<?xml version="1.0" encoding="UTF-8"?>
<svg id="Capa_2" data-name="Capa 2" xmlns="http://www.w3.org/2000/svg" viewBox="0 0 27.57 23.91">
  <defs>
    <style>
      .cls-1 {
        stroke-width: 0px;
      }
    </style>
  </defs>
  <g id="Outline">
    <g>
      <path class="cls-1" d="m1.24,23.91h6v-7H1.24v7Zm2-5h2v3h-2v-3Z"/>
      <path class="cls-1" d="m9.24,23.91h6v-11h-6v11Zm2-9h2v7h-2v-7Z"/>
      <path class="cls-1" d="m17.24,23.91h6v-15h-6v15Zm2-13h2v11h-2v-11Z"/>
      <polygon class="cls-1" points="23.03 0 22.19 1.82 23.63 2.48 9.22 7.79 9.91 9.67 24.32 4.36 23.66 5.8 25.47 6.63 27.57 2.09 23.03 0"/>
      <path class="cls-1" d="m0,9.01h.79v-.34c0-.13,0-.27.01-.42h-.81v-1.49h1.12c.62-1.74,2.13-3.08,4.67-3.08.51,0,1.01.07,1.49.23l-.58,1.76c-.26-.07-.65-.12-.92-.12-1.12,0-1.95.47-2.45,1.21h2.65l-.32,1.49h-2.85c-.01.15-.03.31-.03.46,0,.11,0,.2.01.3h2.62l-.3,1.47h-1.84c.71,1,1.98,1.21,2.5,1.21.32,0,.67-.05,1.02-.17l.59,1.82c-.48.13-1.09.2-1.62.2-2.53,0-4.15-1.14-4.74-3.06H0v-1.47Z"/>
    </g>
  </g>
</svg>