<?xml version="1.0" encoding="UTF-8"?>
<svg id="Capa_1" data-name="Capa 1" xmlns="http://www.w3.org/2000/svg" viewBox="0 0 594.96 361.34">
  <defs>
    <style>
      .cls-1, .cls-2, .cls-3 {
        font-family: Roboto-Bold, Roboto;
        font-weight: 700;
      }

      .cls-1, .cls-4 {
        font-size: 9px;
      }

      .cls-1, .cls-5 {
        fill: #494e54;
      }

      .cls-2 {
        font-size: 8.25px;
        opacity: .6;
      }

      .cls-2, .cls-3 {
        fill: #2550d6;
      }

      .cls-4 {
        fill: #5072dd;
      }

      .cls-4, .cls-5, .cls-6 {
        font-family: Roboto-Regular, Roboto;
      }

      .cls-5 {
        font-size: 8.94px;
      }

      .cls-7 {
        fill: none;
        stroke: #2550d6;
        stroke-miterlimit: 10;
        stroke-width: 2px;
      }

      .cls-6 {
        fill: #91a6e9;
        font-size: 11px;
      }

      .cls-3 {
        font-size: 12.01px;
      }

      .cls-8 {
        fill: #274991;
      }

      .cls-8, .cls-9, .cls-10, .cls-11, .cls-12, .cls-13, .cls-14, .cls-15 {
        stroke-width: 0px;
      }

      .cls-9 {
        fill: #dc732e;
      }

      .cls-10 {
        fill: #dcdedf;
      }

      .cls-11 {
        fill: #bed07c;
      }

      .cls-12 {
        fill: #d12f3a;
      }

      .cls-13 {
        fill: #7fad3e;
      }

      .cls-14 {
        fill: #fff;
      }

      .cls-15 {
        fill: #f3c835;
      }
    </style>
  </defs>
  <rect class="cls-12" x="251.85" y="86.88" width="7.5" height="37.52"/>
  <rect class="cls-9" x="251.85" y="124.39" width="7.5" height="37.52"/>
  <rect class="cls-15" x="251.85" y="161.91" width="7.5" height="37.52"/>
  <rect class="cls-11" x="251.85" y="199.43" width="7.5" height="37.52"/>
  <rect class="cls-13" x="251.85" y="236.94" width="7.5" height="37.52"/>
  <rect class="cls-13" x="251.85" y="274.46" width="7.5" height="9"/>
  <rect class="cls-13" x="259.36" y="274.46" width="51.02" height="9"/>
  <rect class="cls-11" x="310.38" y="274.46" width="79.54" height="9"/>
  <rect class="cls-15" x="389.92" y="274.46" width="77.28" height="9"/>
  <rect class="cls-12" x="467.2" y="274.46" width="49.52" height="9"/>
  <rect class="cls-14" x="251.85" y="283.46" width="7.5" height="25.51"/>
  <rect class="cls-10" x="516.72" y="236.94" width=".75" height="37.52"/>
  <rect class="cls-10" x="467.2" y="236.94" width=".75" height="37.52"/>
  <rect class="cls-10" x="389.92" y="236.94" width=".75" height="37.52"/>
  <rect class="cls-10" x="310.38" y="236.94" width=".75" height="37.52"/>
  <rect class="cls-10" x="516.72" y="199.43" width=".75" height="37.52"/>
  <rect class="cls-10" x="467.2" y="199.43" width=".75" height="37.52"/>
  <rect class="cls-10" x="389.92" y="199.43" width=".75" height="37.52"/>
  <rect class="cls-10" x="259.36" y="236.94" width="51.77" height=".75"/>
  <rect class="cls-10" x="310.38" y="199.43" width=".75" height="38.27"/>
  <rect class="cls-10" x="516.72" y="161.91" width=".75" height="37.52"/>
  <rect class="cls-10" x="467.2" y="161.91" width=".75" height="37.52"/>
  <rect class="cls-10" x="310.38" y="199.43" width="80.29" height=".75"/>
  <rect class="cls-10" x="389.92" y="161.91" width=".75" height="38.27"/>
  <rect class="cls-10" x="259.36" y="199.43" width="51.77" height=".75"/>
  <rect class="cls-10" x="516.72" y="124.39" width=".75" height="37.52"/>
  <rect class="cls-10" x="389.92" y="161.91" width="78.03" height=".75"/>
  <rect class="cls-10" x="467.2" y="124.39" width=".75" height="38.27"/>
  <rect class="cls-10" x="310.38" y="161.91" width="80.29" height=".75"/>
  <rect class="cls-10" x="259.36" y="161.91" width="51.02" height=".75"/>
  <rect class="cls-10" x="467.2" y="86.88" width="50.27" height=".75"/>
  <rect class="cls-10" x="516.72" y="86.88" width=".75" height="37.52"/>
  <rect class="cls-10" x="389.92" y="86.88" width="78.03" height=".75"/>
  <rect class="cls-10" x="467.2" y="86.88" width=".75" height="37.52"/>
  <rect class="cls-10" x="310.38" y="86.88" width="79.54" height=".75"/>
  <rect class="cls-10" x="259.36" y="86.88" width="51.02" height=".75"/>
  <g>
    <text class="cls-2" transform="translate(88.08 37.35)"><tspan x="0" y="0">I</tspan></text>
    <text class="cls-2" transform="translate(90.48 37.35)"><tspan x="0" y="0">N</tspan></text>
    <text class="cls-2" transform="translate(96.64 37.35)"><tspan x="0" y="0">D</tspan></text>
    <text class="cls-2" transform="translate(102.04 37.35)"><tspan x="0" y="0">I</tspan></text>
    <text class="cls-2" transform="translate(104.44 37.35)"><tspan x="0" y="0">C</tspan></text>
    <text class="cls-2" transform="translate(109.84 37.35)"><tspan x="0" y="0">A</tspan></text>
    <text class="cls-2" transform="translate(115.25 37.35)"><tspan x="0" y="0">D</tspan></text>
    <text class="cls-2" transform="translate(120.65 37.35)"><tspan x="0" y="0">O</tspan></text>
    <text class="cls-2" transform="translate(126.8 37.35)"><tspan x="0" y="0">R</tspan></text>
    <text class="cls-2" transform="translate(132.2 37.35)"><tspan x="0" y="0"> </tspan></text>
    <text class="cls-2" transform="translate(134.6 37.35)"><tspan x="0" y="0">D</tspan></text>
    <text class="cls-2" transform="translate(140.01 37.35)"><tspan x="0" y="0">E</tspan></text>
    <text class="cls-2" transform="translate(144.66 37.35)"><tspan x="0" y="0"> </tspan></text>
    <text class="cls-2" transform="translate(147.06 37.35)"><tspan x="0" y="0">R</tspan></text>
    <text class="cls-2" transform="translate(152.46 37.35)"><tspan x="0" y="0">I</tspan></text>
    <text class="cls-2" transform="translate(154.86 37.35)"><tspan x="0" y="0">E</tspan></text>
    <text class="cls-2" transform="translate(159.51 37.35)"><tspan x="0" y="0">S</tspan></text>
    <text class="cls-2" transform="translate(164.92 37.35)"><tspan x="0" y="0">G</tspan></text>
    <text class="cls-2" transform="translate(171.07 37.35)"><tspan x="0" y="0">O</tspan></text>
    <text class="cls-2" transform="translate(177.22 37.35)"><tspan x="0" y="0"> </tspan></text>
    <text class="cls-2" transform="translate(179.62 37.35)"><tspan x="0" y="0">C</tspan></text>
    <text class="cls-2" transform="translate(185.03 37.35)"><tspan x="0" y="0">O</tspan></text>
    <text class="cls-2" transform="translate(191.18 37.35)"><tspan x="0" y="0">M</tspan></text>
    <text class="cls-2" transform="translate(198.83 37.35)"><tspan x="0" y="0">E</tspan></text>
    <text class="cls-2" transform="translate(203.48 37.35)"><tspan x="0" y="0">R</tspan></text>
    <text class="cls-2" transform="translate(208.89 37.35)"><tspan x="0" y="0">C</tspan></text>
    <text class="cls-2" transform="translate(214.29 37.35)"><tspan x="0" y="0">I</tspan></text>
    <text class="cls-2" transform="translate(216.69 37.35)"><tspan x="0" y="0">A</tspan></text>
    <text class="cls-2" transform="translate(222.09 37.35)"><tspan x="0" y="0">L</tspan></text>
  </g>
  <text class="cls-6" transform="translate(88.08 53.86)"><tspan x="0" y="0">R</tspan></text>
  <text class="cls-6" transform="translate(94.84 53.86)"><tspan x="0" y="0">i</tspan></text>
  <text class="cls-6" transform="translate(97.34 53.86)"><tspan x="0" y="0">e</tspan></text>
  <text class="cls-6" transform="translate(103.09 53.86)"><tspan x="0" y="0">s</tspan></text>
  <text class="cls-6" transform="translate(108.34 53.86)"><tspan x="0" y="0">g</tspan></text>
  <text class="cls-6" transform="translate(114.34 53.86)"><tspan x="0" y="0">o</tspan></text>
  <text class="cls-6" transform="translate(120.35 53.86)"><tspan x="0" y="0"> </tspan></text>
  <text class="cls-6" transform="translate(123.35 53.86)"><tspan x="0" y="0">c</tspan></text>
  <text class="cls-6" transform="translate(128.97 53.86)"><tspan x="0" y="0">o</tspan></text>
  <text class="cls-6" transform="translate(134.97 53.86)"><tspan x="0" y="0">m</tspan></text>
  <text class="cls-6" transform="translate(144.36 53.86)"><tspan x="0" y="0">e</tspan></text>
  <text class="cls-6" transform="translate(150.07 53.86)"><tspan x="0" y="0">r</tspan></text>
  <text class="cls-6" transform="translate(153.68 53.86)"><tspan x="0" y="0">c</tspan></text>
  <text class="cls-6" transform="translate(159.36 53.86)"><tspan x="0" y="0">i</tspan></text>
  <text class="cls-6" transform="translate(161.93 53.86)"><tspan x="0" y="0">a</tspan></text>
  <text class="cls-6" transform="translate(167.93 53.86)"><tspan x="0" y="0">l</tspan></text>
  <text class="cls-6" transform="translate(171.37 53.86)"><tspan x="0" y="0"> </tspan></text>
  <text class="cls-6" transform="translate(174.37 53.86)"><tspan x="0" y="0">m</tspan></text>
  <text class="cls-6" transform="translate(184.12 53.86)"><tspan x="0" y="0">í</tspan></text>
  <text class="cls-6" transform="translate(187.13 53.86)"><tspan x="0" y="0">n</tspan></text>
  <text class="cls-6" transform="translate(193.13 53.86)"><tspan x="0" y="0">i</tspan></text>
  <text class="cls-6" transform="translate(196.13 53.86)"><tspan x="0" y="0">m</tspan></text>
  <text class="cls-6" transform="translate(205.88 53.86)"><tspan x="0" y="0">o</tspan></text>
  <text class="cls-1" transform="translate(218.49 108.64)"><tspan x="0" y="0">A</tspan></text>
  <text class="cls-1" transform="translate(224.49 108.64)"><tspan x="0" y="0">l</tspan></text>
  <text class="cls-1" transform="translate(226.74 108.64)"><tspan x="0" y="0">t</tspan></text>
  <text class="cls-1" transform="translate(229.74 108.64)"><tspan x="0" y="0">o</tspan></text>
  <text class="cls-1" transform="translate(174.97 146.15)"><tspan x="0" y="0">M</tspan></text>
  <text class="cls-1" transform="translate(183.22 146.15)"><tspan x="0" y="0">o</tspan></text>
  <text class="cls-1" transform="translate(188.47 146.15)"><tspan x="0" y="0">d</tspan></text>
  <text class="cls-1" transform="translate(193.73 146.15)"><tspan x="0" y="0">e</tspan></text>
  <text class="cls-1" transform="translate(198.23 146.15)"><tspan x="0" y="0">r</tspan></text>
  <text class="cls-1" transform="translate(201.23 146.15)"><tspan x="0" y="0">a</tspan></text>
  <text class="cls-1" transform="translate(205.73 146.15)"><tspan x="0" y="0">d</tspan></text>
  <text class="cls-1" transform="translate(210.99 146.15)"><tspan x="0" y="0">o</tspan></text>
  <text class="cls-1" transform="translate(216.24 146.15)"><tspan x="0" y="0">-</tspan></text>
  <text class="cls-1" transform="translate(219.99 146.15)"><tspan x="0" y="0">a</tspan></text>
  <text class="cls-1" transform="translate(224.49 146.15)"><tspan x="0" y="0">l</tspan></text>
  <text class="cls-1" transform="translate(226.74 146.15)"><tspan x="0" y="0">t</tspan></text>
  <text class="cls-1" transform="translate(229.74 146.15)"><tspan x="0" y="0">o</tspan></text>
  <text class="cls-1" transform="translate(193.73 183.67)"><tspan x="0" y="0">M</tspan></text>
  <text class="cls-1" transform="translate(201.98 183.67)"><tspan x="0" y="0">o</tspan></text>
  <text class="cls-1" transform="translate(207.23 183.67)"><tspan x="0" y="0">d</tspan></text>
  <text class="cls-1" transform="translate(212.49 183.67)"><tspan x="0" y="0">e</tspan></text>
  <text class="cls-1" transform="translate(216.99 183.67)"><tspan x="0" y="0">r</tspan></text>
  <text class="cls-1" transform="translate(219.99 183.67)"><tspan x="0" y="0">a</tspan></text>
  <text class="cls-1" transform="translate(224.49 183.67)"><tspan x="0" y="0">d</tspan></text>
  <text class="cls-1" transform="translate(229.74 183.67)"><tspan x="0" y="0">o</tspan></text>
  <text class="cls-1" transform="translate(172.72 221.19)"><tspan x="0" y="0">M</tspan></text>
  <text class="cls-1" transform="translate(180.97 221.19)"><tspan x="0" y="0">o</tspan></text>
  <text class="cls-1" transform="translate(186.22 221.19)"><tspan x="0" y="0">d</tspan></text>
  <text class="cls-1" transform="translate(191.48 221.19)"><tspan x="0" y="0">e</tspan></text>
  <text class="cls-1" transform="translate(195.98 221.19)"><tspan x="0" y="0">r</tspan></text>
  <text class="cls-1" transform="translate(198.98 221.19)"><tspan x="0" y="0">a</tspan></text>
  <text class="cls-1" transform="translate(203.48 221.19)"><tspan x="0" y="0">d</tspan></text>
  <text class="cls-1" transform="translate(208.73 221.19)"><tspan x="0" y="0">o</tspan></text>
  <text class="cls-1" transform="translate(213.99 221.19)"><tspan x="0" y="0">-</tspan></text>
  <text class="cls-1" transform="translate(217.74 221.19)"><tspan x="0" y="0">b</tspan></text>
  <text class="cls-1" transform="translate(222.99 221.19)"><tspan x="0" y="0">a</tspan></text>
  <text class="cls-1" transform="translate(227.49 221.19)"><tspan x="0" y="0">j</tspan></text>
  <text class="cls-1" transform="translate(229.74 221.19)"><tspan x="0" y="0">o</tspan></text>
  <text class="cls-1" transform="translate(216.99 258.7)"><tspan x="0" y="0">B</tspan></text>
  <text class="cls-1" transform="translate(222.99 258.7)"><tspan x="0" y="0">a</tspan></text>
  <text class="cls-1" transform="translate(227.49 258.7)"><tspan x="0" y="0">j</tspan></text>
  <text class="cls-1" transform="translate(229.74 258.7)"><tspan x="0" y="0">o</tspan></text>
  <text class="cls-5" transform="translate(281.14 282.71)"><tspan x="0" y="0"> </tspan></text>
  <text class="cls-5" transform="translate(283.39 282.71)"><tspan x="0" y="0"> </tspan></text>
  <text class="cls-5" transform="translate(285.64 282.71)"><tspan x="0" y="0"> </tspan></text>
  <text class="cls-5" transform="translate(346.42 282.71)"><tspan x="0" y="0"> </tspan></text>
  <text class="cls-5" transform="translate(348.67 282.71)"><tspan x="0" y="0"> </tspan></text>
  <text class="cls-5" transform="translate(350.92 282.71)"><tspan x="0" y="0"> </tspan></text>
  <text class="cls-5" transform="translate(424.83 282.71)"><tspan x="0" y="0"> </tspan></text>
  <text class="cls-5" transform="translate(427.08 282.71)"><tspan x="0" y="0"> </tspan></text>
  <text class="cls-5" transform="translate(429.33 282.71)"><tspan x="0" y="0"> </tspan></text>
  <text class="cls-5" transform="translate(488.23 282.71)"><tspan x="0" y="0"> </tspan></text>
  <text class="cls-5" transform="translate(490.48 282.71)"><tspan x="0" y="0"> </tspan></text>
  <text class="cls-5" transform="translate(492.73 282.71)"><tspan x="0" y="0"> </tspan></text>
  <text class="cls-1" transform="translate(275.51 299.22)"><tspan x="0" y="0">B</tspan></text>
  <text class="cls-1" transform="translate(281.52 299.22)"><tspan x="0" y="0">a</tspan></text>
  <text class="cls-1" transform="translate(286.02 299.22)"><tspan x="0" y="0">j</tspan></text>
  <text class="cls-1" transform="translate(288.27 299.22)"><tspan x="0" y="0">o</tspan></text>
  <text class="cls-1" transform="translate(326.54 299.22)"><tspan x="0" y="0">M</tspan></text>
  <text class="cls-1" transform="translate(334.79 299.22)"><tspan x="0" y="0">e</tspan></text>
  <text class="cls-1" transform="translate(339.29 299.22)"><tspan x="0" y="0">d</tspan></text>
  <text class="cls-1" transform="translate(344.54 299.22)"><tspan x="0" y="0">i</tspan></text>
  <text class="cls-1" transform="translate(346.79 299.22)"><tspan x="0" y="0">o</tspan></text>
  <text class="cls-1" transform="translate(352.05 299.22)"><tspan x="0" y="0">-</tspan></text>
  <text class="cls-1" transform="translate(355.8 299.22)"><tspan x="0" y="0">b</tspan></text>
  <text class="cls-1" transform="translate(361.05 299.22)"><tspan x="0" y="0">a</tspan></text>
  <text class="cls-1" transform="translate(365.55 299.22)"><tspan x="0" y="0">j</tspan></text>
  <text class="cls-1" transform="translate(367.8 299.22)"><tspan x="0" y="0">o</tspan></text>
  <text class="cls-1" transform="translate(406.07 299.22)"><tspan x="0" y="0">M</tspan></text>
  <text class="cls-1" transform="translate(414.32 299.22)"><tspan x="0" y="0">e</tspan></text>
  <text class="cls-1" transform="translate(418.83 299.22)"><tspan x="0" y="0">d</tspan></text>
  <text class="cls-1" transform="translate(424.08 299.22)"><tspan x="0" y="0">i</tspan></text>
  <text class="cls-1" transform="translate(426.33 299.22)"><tspan x="0" y="0">o</tspan></text>
  <text class="cls-1" transform="translate(431.58 299.22)"><tspan x="0" y="0">-</tspan></text>
  <text class="cls-1" transform="translate(435.33 299.22)"><tspan x="0" y="0">a</tspan></text>
  <text class="cls-1" transform="translate(439.84 299.22)"><tspan x="0" y="0">l</tspan></text>
  <text class="cls-1" transform="translate(442.09 299.22)"><tspan x="0" y="0">t</tspan></text>
  <text class="cls-1" transform="translate(445.09 299.22)"><tspan x="0" y="0">o</tspan></text>
  <text class="cls-1" transform="translate(483.35 299.22)"><tspan x="0" y="0">A</tspan></text>
  <text class="cls-1" transform="translate(489.36 299.22)"><tspan x="0" y="0">l</tspan></text>
  <text class="cls-1" transform="translate(491.61 299.22)"><tspan x="0" y="0">t</tspan></text>
  <text class="cls-1" transform="translate(494.61 299.22)"><tspan x="0" y="0">o</tspan></text>
  <text class="cls-3" transform="translate(342.29 327.73)"><tspan x="0" y="0">R</tspan></text>
  <text class="cls-3" transform="translate(349.8 327.73)"><tspan x="0" y="0">i</tspan></text>
  <text class="cls-3" transform="translate(352.8 327.73)"><tspan x="0" y="0">e</tspan></text>
  <text class="cls-3" transform="translate(359.55 327.73)"><tspan x="0" y="0">s</tspan></text>
  <text class="cls-3" transform="translate(365.55 327.73)"><tspan x="0" y="0">g</tspan></text>
  <text class="cls-3" transform="translate(372.31 327.73)"><tspan x="0" y="0">o</tspan></text>
  <text class="cls-3" transform="translate(379.06 327.73)"><tspan x="0" y="0"> </tspan></text>
  <text class="cls-3" transform="translate(382.06 327.73)"><tspan x="0" y="0">d</tspan></text>
  <text class="cls-3" transform="translate(388.81 327.73)"><tspan x="0" y="0">e</tspan></text>
  <text class="cls-3" transform="translate(395.57 327.73)"><tspan x="0" y="0"> </tspan></text>
  <text class="cls-3" transform="translate(398.57 327.73)"><tspan x="0" y="0">C</tspan></text>
  <text class="cls-3" transform="translate(406.07 327.73)"><tspan x="0" y="0">e</tspan></text>
  <text class="cls-3" transform="translate(412.82 327.73)"><tspan x="0" y="0">s</tspan></text>
  <text class="cls-3" transform="translate(418.83 327.73)"><tspan x="0" y="0">e</tspan></text>
  <text class="cls-3" transform="translate(117.39 281.21) rotate(-90)"><tspan x="0" y="0">R</tspan></text>
  <text class="cls-3" transform="translate(117.39 273.71) rotate(-90)"><tspan x="0" y="0">i</tspan></text>
  <text class="cls-3" transform="translate(117.39 270.71) rotate(-90)"><tspan x="0" y="0">e</tspan></text>
  <text class="cls-3" transform="translate(117.39 263.95) rotate(-90)"><tspan x="0" y="0">s</tspan></text>
  <text class="cls-3" transform="translate(117.39 257.95) rotate(-90)"><tspan x="0" y="0">g</tspan></text>
  <text class="cls-3" transform="translate(117.39 251.2) rotate(-90)"><tspan x="0" y="0">o</tspan></text>
  <text class="cls-3" transform="translate(117.39 244.45) rotate(-90)"><tspan x="0" y="0"> </tspan></text>
  <text class="cls-3" transform="translate(117.39 241.44) rotate(-90)"><tspan x="0" y="0">d</tspan></text>
  <text class="cls-3" transform="translate(117.39 234.69) rotate(-90)"><tspan x="0" y="0">e</tspan></text>
  <text class="cls-3" transform="translate(117.39 227.94) rotate(-90)"><tspan x="0" y="0"> </tspan></text>
  <text class="cls-3" transform="translate(117.39 224.94) rotate(-90)"><tspan x="0" y="0">r</tspan></text>
  <text class="cls-3" transform="translate(117.39 220.44) rotate(-90)"><tspan x="0" y="0">e</tspan></text>
  <text class="cls-3" transform="translate(117.39 213.68) rotate(-90)"><tspan x="0" y="0">t</tspan></text>
  <text class="cls-3" transform="translate(117.39 209.93) rotate(-90)"><tspan x="0" y="0">r</tspan></text>
  <text class="cls-3" transform="translate(117.39 205.43) rotate(-90)"><tspan x="0" y="0">a</tspan></text>
  <text class="cls-3" transform="translate(117.39 198.68) rotate(-90)"><tspan x="0" y="0">s</tspan></text>
  <text class="cls-3" transform="translate(117.39 192.67) rotate(-90)"><tspan x="0" y="0">o</tspan></text>
  <text class="cls-3" transform="translate(117.39 185.92) rotate(-90)"><tspan x="0" y="0"> </tspan></text>
  <text class="cls-3" transform="translate(117.39 182.92) rotate(-90)"><tspan x="0" y="0">e</tspan></text>
  <text class="cls-3" transform="translate(117.39 176.17) rotate(-90)"><tspan x="0" y="0">n</tspan></text>
  <text class="cls-3" transform="translate(117.39 169.41) rotate(-90)"><tspan x="0" y="0"> </tspan></text>
  <text class="cls-3" transform="translate(117.39 166.41) rotate(-90)"><tspan x="0" y="0">l</tspan></text>
  <text class="cls-3" transform="translate(117.39 163.41) rotate(-90)"><tspan x="0" y="0">o</tspan></text>
  <text class="cls-3" transform="translate(117.39 156.66) rotate(-90)"><tspan x="0" y="0">s</tspan></text>
  <text class="cls-3" transform="translate(117.39 150.65) rotate(-90)"><tspan x="0" y="0"> </tspan></text>
  <text class="cls-3" transform="translate(117.39 147.65) rotate(-90)"><tspan x="0" y="0">p</tspan></text>
  <text class="cls-3" transform="translate(117.39 140.9) rotate(-90)"><tspan x="0" y="0">a</tspan></text>
  <text class="cls-3" transform="translate(117.39 134.15) rotate(-90)"><tspan x="0" y="0">g</tspan></text>
  <text class="cls-3" transform="translate(117.39 127.39) rotate(-90)"><tspan x="0" y="0">o</tspan></text>
  <text class="cls-3" transform="translate(117.39 120.64) rotate(-90)"><tspan x="0" y="0">s</tspan></text>
  <polyline class="cls-8" points="351.65 174.66 345.65 185.17 357.65 185.17 351.65 174.66"/>
  <path class="cls-12" d="m288.62,254.95c0,.3-.03.59-.09.88-.06.29-.14.57-.26.84-.11.27-.25.53-.42.78-.16.25-.35.47-.56.68-.21.21-.44.4-.68.56-.25.16-.51.3-.78.42-.27.11-.55.2-.84.26-.29.06-.58.09-.88.09-.3,0-.59-.03-.88-.09-.29-.06-.57-.14-.84-.26-.27-.11-.53-.25-.78-.42-.25-.16-.47-.35-.68-.56-.21-.21-.4-.44-.56-.68-.16-.25-.3-.51-.42-.78-.11-.27-.2-.55-.26-.84-.06-.29-.09-.58-.09-.88s.03-.59.09-.88c.06-.29.14-.57.26-.84.11-.27.25-.53.42-.78.16-.25.35-.47.56-.68.21-.21.44-.4.68-.56s.51-.3.78-.42.55-.2.84-.26c.29-.06.58-.09.88-.09s.59.03.88.09c.29.06.57.14.84.26s.53.25.78.42c.25.16.47.35.68.56.21.21.4.44.56.68.16.25.3.51.42.78.11.27.2.55.26.84.06.29.09.58.09.88Z"/>
  <text class="cls-4" transform="translate(159.96 305.08)"><tspan x="0" y="0">E</tspan></text>
  <text class="cls-4" transform="translate(159.96 327.84)"><tspan x="0" y="0">Sector</tspan></text>
  <text class="cls-4" transform="translate(165.21 305.08)"><tspan x="0" y="0">m</tspan></text>
  <text class="cls-4" transform="translate(173.47 305.08)"><tspan x="0" y="0">p</tspan></text>
  <text class="cls-4" transform="translate(178.72 305.08)"><tspan x="0" y="0">r</tspan></text>
  <text class="cls-4" transform="translate(181.72 305.08)"><tspan x="0" y="0">e</tspan></text>
  <text class="cls-4" transform="translate(186.22 305.08)"><tspan x="0" y="0">s</tspan></text>
  <text class="cls-4" transform="translate(190.73 305.08)"><tspan x="0" y="0">a</tspan></text>
  <path class="cls-12" d="m150.56,301.32c0,.3-.03.59-.09.88-.06.29-.14.57-.26.84-.11.27-.25.53-.42.78-.16.25-.35.47-.56.68-.21.21-.44.4-.68.56-.25.16-.51.3-.78.42s-.55.2-.84.26c-.29.06-.58.09-.88.09s-.59-.03-.88-.09c-.29-.06-.57-.14-.84-.26-.27-.11-.53-.25-.78-.42-.25-.16-.47-.35-.68-.56-.21-.21-.4-.44-.56-.68-.16-.25-.3-.51-.42-.78-.11-.27-.2-.55-.26-.84-.06-.29-.09-.58-.09-.88s.03-.59.09-.88c.06-.29.14-.57.26-.84.11-.27.25-.53.42-.78.16-.25.35-.47.56-.68.21-.21.44-.4.68-.56.25-.16.51-.3.78-.42.27-.11.55-.2.84-.26s.58-.09.88-.09.59.03.88.09c.29.06.57.14.84.26s.53.25.78.42c.25.16.47.35.68.56.21.21.4.44.56.68.16.25.3.51.42.78.11.27.2.55.26.84.06.29.09.58.09.88Z"/>
  <polyline class="cls-8" points="147.56 318.58 141.56 329.09 153.56 329.09 147.56 318.58"/>
  <g>
    <polyline class="cls-7" points="54.51 44.09 58.17 36.22 66.79 42.53 75.74 31.2"/>
    <polyline class="cls-7" points="49.08 43.89 54.64 43.96 66.86 50.81 76.02 44.91"/>
    <line class="cls-7" x1="52.81" y1="47.21" x2="49.22" y2="54.34"/>
  </g>
</svg>