<?xml version="1.0" encoding="UTF-8"?>
<svg id="Capa_1" data-name="Capa 1" xmlns="http://www.w3.org/2000/svg" viewBox="0 0 594.96 169.54">
  <defs>
    <style>
      .cls-1 {
        stroke: #7f7f7f;
      }

      .cls-1, .cls-2 {
        fill: none;
        stroke-miterlimit: 10;
        stroke-width: 1.52px;
      }

      .cls-2 {
        stroke: #9dc34b;
      }

      .cls-3 {
        fill: #2550d6;
        font-family: Roboto-Bold, Roboto;
        font-weight: 700;
        opacity: .6;
      }

      .cls-3, .cls-4 {
        font-size: 8.25px;
      }

      .cls-4 {
        fill: #91a6e9;
      }

      .cls-4, .cls-5 {
        font-family: Roboto-Regular, Roboto;
      }

      .cls-5 {
        fill: #494e54;
        font-size: 11px;
      }
    </style>
  </defs>
  <g>
    <g>
      <text class="cls-3" transform="translate(88.08 40.24)"><tspan x="0" y="0">R</tspan></text>
      <text class="cls-3" transform="translate(93.49 40.24)"><tspan x="0" y="0">A</tspan></text>
      <text class="cls-3" transform="translate(98.89 40.24)"><tspan x="0" y="0">I</tspan></text>
    </g>
    <text class="cls-5" transform="translate(88.08 55.99)"><tspan x="0" y="0">N</tspan></text>
    <text class="cls-5" transform="translate(95.59 55.99)"><tspan x="0" y="0">o</tspan></text>
    <g>
      <text class="cls-3" transform="translate(352.04 40.24)"><tspan x="0" y="0">A</tspan></text>
      <text class="cls-3" transform="translate(357.44 40.24)"><tspan x="0" y="0">S</tspan></text>
      <text class="cls-3" transform="translate(362.84 40.24)"><tspan x="0" y="0">N</tspan></text>
      <text class="cls-3" transform="translate(368.99 40.24)"><tspan x="0" y="0">E</tspan></text>
      <text class="cls-3" transform="translate(373.64 40.24)"><tspan x="0" y="0">F</tspan></text>
      <text class="cls-3" transform="translate(378.3 40.24)"><tspan x="0" y="0"> </tspan></text>
      <text class="cls-3" transform="translate(380.7 40.24)"><tspan x="0" y="0">E</tspan></text>
      <text class="cls-3" transform="translate(385.35 40.24)"><tspan x="0" y="0">M</tspan></text>
      <text class="cls-3" transform="translate(393 40.24)"><tspan x="0" y="0">P</tspan></text>
      <text class="cls-3" transform="translate(398.41 40.24)"><tspan x="0" y="0">R</tspan></text>
      <text class="cls-3" transform="translate(403.81 40.24)"><tspan x="0" y="0">E</tspan></text>
      <text class="cls-3" transform="translate(408.46 40.24)"><tspan x="0" y="0">S</tspan></text>
      <text class="cls-3" transform="translate(413.86 40.24)"><tspan x="0" y="0">A</tspan></text>
      <text class="cls-3" transform="translate(419.27 40.24)"><tspan x="0" y="0">S</tspan></text>
    </g>
    <text class="cls-5" transform="translate(352.04 55.99)"><tspan x="0" y="0">N</tspan></text>
    <text class="cls-5" transform="translate(359.54 55.99)"><tspan x="0" y="0">o</tspan></text>
    <g>
      <text class="cls-3" transform="translate(88.08 80.01)"><tspan x="0" y="0">E</tspan></text>
      <text class="cls-3" transform="translate(92.74 80.01)"><tspan x="0" y="0">B</tspan></text>
      <text class="cls-3" transform="translate(98.14 80.01)"><tspan x="0" y="0">E</tspan></text>
      <text class="cls-3" transform="translate(102.79 80.01)"><tspan x="0" y="0"> </tspan></text>
      <text class="cls-3" transform="translate(105.19 80.01)"><tspan x="0" y="0">M</tspan></text>
      <text class="cls-3" transform="translate(112.84 80.01)"><tspan x="0" y="0">O</tspan></text>
      <text class="cls-3" transform="translate(119 80.01)"><tspan x="0" y="0">R</tspan></text>
      <text class="cls-3" transform="translate(124.4 80.01)"><tspan x="0" y="0">O</tspan></text>
      <text class="cls-3" transform="translate(130.55 80.01)"><tspan x="0" y="0">S</tspan></text>
      <text class="cls-3" transform="translate(135.95 80.01)"><tspan x="0" y="0">I</tspan></text>
      <text class="cls-3" transform="translate(138.36 80.01)"><tspan x="0" y="0">D</tspan></text>
      <text class="cls-3" transform="translate(143.76 80.01)"><tspan x="0" y="0">A</tspan></text>
      <text class="cls-3" transform="translate(149.16 80.01)"><tspan x="0" y="0">D</tspan></text>
    </g>
    <text class="cls-5" transform="translate(88.08 96.51)"><tspan x="0" y="0">N</tspan></text>
    <text class="cls-5" transform="translate(95.59 96.51)"><tspan x="0" y="0">o</tspan></text>
    <g>
      <text class="cls-3" transform="translate(352.04 80.01)"><tspan x="0" y="0">I</tspan></text>
      <text class="cls-3" transform="translate(354.44 80.01)"><tspan x="0" y="0">C</tspan></text>
      <text class="cls-3" transform="translate(359.84 80.01)"><tspan x="0" y="0">I</tspan></text>
      <text class="cls-3" transform="translate(362.24 80.01)"><tspan x="0" y="0">R</tspan></text>
      <text class="cls-3" transform="translate(367.64 80.01)"><tspan x="0" y="0">E</tspan></text>
      <text class="cls-3" transform="translate(372.29 80.01)"><tspan x="0" y="0">D</tspan></text>
    </g>
    <text class="cls-5" transform="translate(352.04 96.51)"><tspan x="0" y="0">N</tspan></text>
    <text class="cls-5" transform="translate(359.54 96.51)"><tspan x="0" y="0">o</tspan></text>
    <g>
      <text class="cls-3" transform="translate(88.08 120.52)"><tspan x="0" y="0">R</tspan></text>
      <text class="cls-3" transform="translate(93.49 120.52)"><tspan x="0" y="0">I</tspan></text>
      <text class="cls-3" transform="translate(95.89 120.52)"><tspan x="0" y="0">J</tspan></text>
    </g>
    <text class="cls-5" transform="translate(88.08 136.28)"><tspan x="0" y="0">N</tspan></text>
    <text class="cls-5" transform="translate(95.59 136.28)"><tspan x="0" y="0">o</tspan></text>
    <g>
      <text class="cls-3" transform="translate(352.04 120.52)"><tspan x="0" y="0">D</tspan></text>
      <text class="cls-3" transform="translate(357.44 120.52)"><tspan x="0" y="0">E</tspan></text>
      <text class="cls-3" transform="translate(362.09 120.52)"><tspan x="0" y="0">M</tspan></text>
      <text class="cls-3" transform="translate(369.74 120.52)"><tspan x="0" y="0">O</tspan></text>
      <text class="cls-3" transform="translate(375.9 120.52)"><tspan x="0" y="0">R</tspan></text>
      <text class="cls-3" transform="translate(381.3 120.52)"><tspan x="0" y="0">A</tspan></text>
      <text class="cls-3" transform="translate(386.7 120.52)"><tspan x="0" y="0"> </tspan></text>
      <text class="cls-3" transform="translate(389.1 120.52)"><tspan x="0" y="0">E</tspan></text>
      <text class="cls-3" transform="translate(393.75 120.52)"><tspan x="0" y="0">N</tspan></text>
      <text class="cls-3" transform="translate(399.91 120.52)"><tspan x="0" y="0"> </tspan></text>
      <text class="cls-3" transform="translate(402.31 120.52)"><tspan x="0" y="0">P</tspan></text>
      <text class="cls-3" transform="translate(406.96 120.52)"><tspan x="0" y="0">A</tspan></text>
      <text class="cls-3" transform="translate(412.36 120.52)"><tspan x="0" y="0">G</tspan></text>
      <text class="cls-3" transform="translate(418.51 120.52)"><tspan x="0" y="0">O</tspan></text>
      <text class="cls-3" transform="translate(424.67 120.52)"><tspan x="0" y="0">S</tspan></text>
    </g>
    <text class="cls-5" transform="translate(352.04 136.28)"><tspan x="0" y="0">0</tspan></text>
    <text class="cls-4" transform="translate(352.04 149.04)"><tspan x="0" y="0">M</tspan></text>
    <text class="cls-4" transform="translate(359.54 149.04)"><tspan x="0" y="0">e</tspan></text>
    <text class="cls-4" transform="translate(364.04 149.04)"><tspan x="0" y="0">d</tspan></text>
    <text class="cls-4" transform="translate(368.54 149.04)"><tspan x="0" y="0">i</tspan></text>
    <text class="cls-4" transform="translate(370.79 149.04)"><tspan x="0" y="0">a</tspan></text>
    <text class="cls-4" transform="translate(375.3 149.04)"><tspan x="0" y="0"> </tspan></text>
    <text class="cls-4" transform="translate(377.55 149.04)"><tspan x="0" y="0">d</tspan></text>
    <text class="cls-4" transform="translate(382.05 149.04)"><tspan x="0" y="0">e</tspan></text>
    <text class="cls-4" transform="translate(386.55 149.04)"><tspan x="0" y="0"> </tspan></text>
    <text class="cls-4" transform="translate(388.8 149.04)"><tspan x="0" y="0">d</tspan></text>
    <text class="cls-4" transform="translate(393.3 149.04)"><tspan x="0" y="0">í</tspan></text>
    <text class="cls-4" transform="translate(395.55 149.04)"><tspan x="0" y="0">a</tspan></text>
    <text class="cls-4" transform="translate(400.06 149.04)"><tspan x="0" y="0">s</tspan></text>
    <text class="cls-4" transform="translate(404.56 149.04)"><tspan x="0" y="0"> </tspan></text>
    <text class="cls-4" transform="translate(406.81 149.04)"><tspan x="0" y="0">d</tspan></text>
    <text class="cls-4" transform="translate(411.31 149.04)"><tspan x="0" y="0">e</tspan></text>
    <text class="cls-4" transform="translate(415.81 149.04)"><tspan x="0" y="0"> </tspan></text>
    <text class="cls-4" transform="translate(418.06 149.04)"><tspan x="0" y="0">d</tspan></text>
    <text class="cls-4" transform="translate(422.57 149.04)"><tspan x="0" y="0">e</tspan></text>
    <text class="cls-4" transform="translate(427.07 149.04)"><tspan x="0" y="0">m</tspan></text>
    <text class="cls-4" transform="translate(434.57 149.04)"><tspan x="0" y="0">o</tspan></text>
    <text class="cls-4" transform="translate(439.07 149.04)"><tspan x="0" y="0">r</tspan></text>
    <text class="cls-4" transform="translate(442.08 149.04)"><tspan x="0" y="0">a</tspan></text>
    <text class="cls-4" transform="translate(446.58 149.04)"><tspan x="0" y="0"> </tspan></text>
    <text class="cls-4" transform="translate(448.83 149.04)"><tspan x="0" y="0">e</tspan></text>
    <text class="cls-4" transform="translate(453.33 149.04)"><tspan x="0" y="0">n</tspan></text>
    <text class="cls-4" transform="translate(457.83 149.04)"><tspan x="0" y="0"> </tspan></text>
    <text class="cls-4" transform="translate(460.08 149.04)"><tspan x="0" y="0">p</tspan></text>
    <text class="cls-4" transform="translate(464.58 149.04)"><tspan x="0" y="0">a</tspan></text>
    <text class="cls-4" transform="translate(469.09 149.04)"><tspan x="0" y="0">g</tspan></text>
    <text class="cls-4" transform="translate(473.59 149.04)"><tspan x="0" y="0">o</tspan></text>
    <text class="cls-4" transform="translate(478.09 149.04)"><tspan x="0" y="0">s</tspan></text>
  </g>
  <g>
    <polygon class="cls-2" points="66.15 33.39 52.84 57.9 79.46 57.9 66.15 33.39"/>
    <g>
      <line class="cls-2" x1="66.15" y1="40.49" x2="66.15" y2="51.41"/>
      <line class="cls-2" x1="66.15" y1="53.02" x2="66.15" y2="54.86"/>
    </g>
  </g>
  <g>
    <polygon class="cls-2" points="66.15 72.08 52.84 96.59 79.46 96.59 66.15 72.08"/>
    <g>
      <line class="cls-2" x1="66.15" y1="79.18" x2="66.15" y2="90.1"/>
      <line class="cls-2" x1="66.15" y1="91.71" x2="66.15" y2="93.54"/>
    </g>
  </g>
  <g>
    <polygon class="cls-2" points="329.6 33.39 316.29 57.9 342.91 57.9 329.6 33.39"/>
    <g>
      <line class="cls-2" x1="329.6" y1="40.49" x2="329.6" y2="51.41"/>
      <line class="cls-2" x1="329.6" y1="53.02" x2="329.6" y2="54.86"/>
    </g>
  </g>
  <g>
    <polygon class="cls-2" points="329.6 72.08 316.29 96.59 342.91 96.59 329.6 72.08"/>
    <g>
      <line class="cls-2" x1="329.6" y1="79.18" x2="329.6" y2="90.1"/>
      <line class="cls-2" x1="329.6" y1="91.71" x2="329.6" y2="93.54"/>
    </g>
  </g>
  <g>
    <polygon class="cls-2" points="66.15 111.85 52.84 136.36 79.46 136.36 66.15 111.85"/>
    <g>
      <line class="cls-2" x1="66.15" y1="118.95" x2="66.15" y2="129.87"/>
      <line class="cls-2" x1="66.15" y1="131.48" x2="66.15" y2="133.32"/>
    </g>
  </g>
  <g>
    <path class="cls-1" d="m316.79,127.82c0,7.07,5.73,12.8,12.8,12.8s12.8-5.73,12.8-12.8-5.73-12.8-12.8-12.8c-5.03,0-9.38,2.9-11.48,7.12"/>
    <polyline class="cls-1" points="324.61 121.25 317.78 122.09 316.94 115.26"/>
    <polyline class="cls-1" points="329.38 120.93 329.38 127.82 334.66 133.09"/>
  </g>
</svg>