<?xml version="1.0" encoding="UTF-8"?>
<svg id="Capa_1" data-name="Capa 1" xmlns="http://www.w3.org/2000/svg" xmlns:xlink="http://www.w3.org/1999/xlink" viewBox="0 0 594.96 178.26">
  <defs>
    <style>
      .cls-1 {
        stroke: #3a61d9;
        stroke-width: 1.5px;
      }

      .cls-1, .cls-2, .cls-3 {
        fill: none;
        stroke-miterlimit: 10;
      }

      .cls-2 {
        stroke: #7f7f7f;
      }

      .cls-2, .cls-3 {
        stroke-width: 1.52px;
      }

      .cls-3 {
        stroke: #9dc34b;
      }

      .cls-4 {
        mask: url(#mask);
      }

      .cls-5 {
        filter: url(#luminosity-noclip);
      }

      .cls-6 {
        fill: #2550d6;
        font-family: Roboto-Bold, Roboto;
        font-weight: 700;
        opacity: .6;
      }

      .cls-6, .cls-7 {
        font-size: 8.25px;
      }

      .cls-7 {
        fill: #91a6e9;
      }

      .cls-7, .cls-8 {
        font-family: Roboto-Regular, Roboto;
      }

      .cls-8 {
        fill: #494e54;
        font-size: 11px;
      }

      .cls-9, .cls-10 {
        stroke-width: 0px;
      }

      .cls-10 {
        fill: #7f7f7f;
      }
    </style>
    <filter id="luminosity-noclip" x="298.82" y="76.49" width="23.07" height="22.78" color-interpolation-filters="sRGB" filterUnits="userSpaceOnUse">
      <feFlood flood-color="#fff" result="bg"/>
      <feBlend in="SourceGraphic" in2="bg"/>
    </filter>
    <mask id="mask" x="298.82" y="76.49" width="23.07" height="22.78" maskUnits="userSpaceOnUse">
      <g class="cls-5">
        <circle class="cls-9" cx="315.21" cy="92.59" r="6.68"/>
      </g>
    </mask>
  </defs>
  <g>
    <g>
      <text class="cls-6" transform="translate(88.08 31.1)"><tspan x="0" y="0">Ú</tspan></text>
      <text class="cls-6" transform="translate(93.49 31.1)"><tspan x="0" y="0">L</tspan></text>
      <text class="cls-6" transform="translate(97.39 31.1)"><tspan x="0" y="0">T</tspan></text>
      <text class="cls-6" transform="translate(102.79 31.1)"><tspan x="0" y="0">I</tspan></text>
      <text class="cls-6" transform="translate(105.19 31.1)"><tspan x="0" y="0">M</tspan></text>
      <text class="cls-6" transform="translate(112.84 31.1)"><tspan x="0" y="0">A</tspan></text>
      <text class="cls-6" transform="translate(118.25 31.1)"><tspan x="0" y="0">S</tspan></text>
      <text class="cls-6" transform="translate(123.65 31.1)"><tspan x="0" y="0"> </tspan></text>
      <text class="cls-6" transform="translate(126.05 31.1)"><tspan x="0" y="0">V</tspan></text>
      <text class="cls-6" transform="translate(131.45 31.1)"><tspan x="0" y="0">E</tspan></text>
      <text class="cls-6" transform="translate(136.1 31.1)"><tspan x="0" y="0">N</tspan></text>
      <text class="cls-6" transform="translate(142.26 31.1)"><tspan x="0" y="0">T</tspan></text>
      <text class="cls-6" transform="translate(146.91 31.1)"><tspan x="0" y="0">A</tspan></text>
      <text class="cls-6" transform="translate(152.31 31.1)"><tspan x="0" y="0">S</tspan></text>
      <text class="cls-6" transform="translate(157.71 31.1)"><tspan x="0" y="0"> </tspan></text>
      <text class="cls-6" transform="translate(160.12 31.1)"><tspan x="0" y="0">(</tspan></text>
      <text class="cls-6" transform="translate(163.27 31.1)"><tspan x="0" y="0">2</tspan></text>
      <text class="cls-6" transform="translate(167.92 31.1)"><tspan x="0" y="0">0</tspan></text>
      <text class="cls-6" transform="translate(172.57 31.1)"><tspan x="0" y="0">2</tspan></text>
      <text class="cls-6" transform="translate(177.22 31.1)"><tspan x="0" y="0">3</tspan></text>
      <text class="cls-6" transform="translate(181.87 31.1)"><tspan x="0" y="0">)</tspan></text>
    </g>
    <text class="cls-8" transform="translate(88.08 46.85)"><tspan x="0" y="0">1</tspan></text>
    <text class="cls-8" transform="translate(93.33 46.85)"><tspan x="0" y="0">0</tspan></text>
    <text class="cls-8" transform="translate(99.34 46.85)"><tspan x="0" y="0">1</tspan></text>
    <text class="cls-8" transform="translate(104.59 46.85)"><tspan x="0" y="0">.</tspan></text>
    <text class="cls-8" transform="translate(106.84 46.85)"><tspan x="0" y="0">5</tspan></text>
    <text class="cls-8" transform="translate(112.84 46.85)"><tspan x="0" y="0">9</tspan></text>
    <text class="cls-8" transform="translate(118.85 46.85)"><tspan x="0" y="0">3</tspan></text>
    <text class="cls-8" transform="translate(124.85 46.85)"><tspan x="0" y="0">.</tspan></text>
    <text class="cls-8" transform="translate(127.1 46.85)"><tspan x="0" y="0">2</tspan></text>
    <text class="cls-8" transform="translate(133.1 46.85)"><tspan x="0" y="0">4</tspan></text>
    <text class="cls-8" transform="translate(139.86 46.85)"><tspan x="0" y="0">0</tspan></text>
    <text class="cls-8" transform="translate(145.86 46.85)"><tspan x="0" y="0"> </tspan></text>
    <text class="cls-8" transform="translate(148.86 46.85)"><tspan x="0" y="0">€</tspan></text>
    <text class="cls-7" transform="translate(88.08 59.61)"><tspan x="0" y="0">(</tspan></text>
    <text class="cls-7" transform="translate(91.08 59.61)"><tspan x="0" y="0">F</tspan></text>
    <text class="cls-7" transform="translate(95.59 59.61)"><tspan x="0" y="0">u</tspan></text>
    <text class="cls-7" transform="translate(100.09 59.61)"><tspan x="0" y="0">e</tspan></text>
    <text class="cls-7" transform="translate(104.59 59.61)"><tspan x="0" y="0">n</tspan></text>
    <text class="cls-7" transform="translate(109.09 59.61)"><tspan x="0" y="0">t</tspan></text>
    <text class="cls-7" transform="translate(112.09 59.61)"><tspan x="0" y="0">e</tspan></text>
    <text class="cls-7" transform="translate(116.6 59.61)"><tspan x="0" y="0">s</tspan></text>
    <text class="cls-7" transform="translate(121.1 59.61)"><tspan x="0" y="0"> </tspan></text>
    <text class="cls-7" transform="translate(123.35 59.61)"><tspan x="0" y="0">P</tspan></text>
    <text class="cls-7" transform="translate(128.6 59.61)"><tspan x="0" y="0">r</tspan></text>
    <text class="cls-7" transform="translate(131.6 59.61)"><tspan x="0" y="0">o</tspan></text>
    <text class="cls-7" transform="translate(136.1 59.61)"><tspan x="0" y="0">p</tspan></text>
    <text class="cls-7" transform="translate(140.61 59.61)"><tspan x="0" y="0">i</tspan></text>
    <text class="cls-7" transform="translate(142.86 59.61)"><tspan x="0" y="0">a</tspan></text>
    <text class="cls-7" transform="translate(147.36 59.61)"><tspan x="0" y="0">s</tspan></text>
    <text class="cls-7" transform="translate(151.86 59.61)"><tspan x="0" y="0">)</tspan></text>
    <g>
      <text class="cls-6" transform="translate(337.7 31.1)"><tspan x="0" y="0">Ú</tspan></text>
      <text class="cls-6" transform="translate(343.1 31.1)"><tspan x="0" y="0">L</tspan></text>
      <text class="cls-6" transform="translate(347 31.1)"><tspan x="0" y="0">T</tspan></text>
      <text class="cls-6" transform="translate(352.41 31.1)"><tspan x="0" y="0">I</tspan></text>
      <text class="cls-6" transform="translate(354.81 31.1)"><tspan x="0" y="0">M</tspan></text>
      <text class="cls-6" transform="translate(362.46 31.1)"><tspan x="0" y="0">O</tspan></text>
      <text class="cls-6" transform="translate(368.61 31.1)"><tspan x="0" y="0">S</tspan></text>
      <text class="cls-6" transform="translate(374.02 31.1)"><tspan x="0" y="0"> </tspan></text>
      <text class="cls-6" transform="translate(376.42 31.1)"><tspan x="0" y="0">R</tspan></text>
      <text class="cls-6" transform="translate(381.82 31.1)"><tspan x="0" y="0">E</tspan></text>
      <text class="cls-6" transform="translate(386.47 31.1)"><tspan x="0" y="0">S</tspan></text>
      <text class="cls-6" transform="translate(391.87 31.1)"><tspan x="0" y="0">U</tspan></text>
      <text class="cls-6" transform="translate(397.28 31.1)"><tspan x="0" y="0">L</tspan></text>
      <text class="cls-6" transform="translate(401.18 31.1)"><tspan x="0" y="0">T</tspan></text>
      <text class="cls-6" transform="translate(405.83 31.1)"><tspan x="0" y="0">A</tspan></text>
      <text class="cls-6" transform="translate(411.23 31.1)"><tspan x="0" y="0">D</tspan></text>
      <text class="cls-6" transform="translate(416.63 31.1)"><tspan x="0" y="0">O</tspan></text>
      <text class="cls-6" transform="translate(422.79 31.1)"><tspan x="0" y="0">S</tspan></text>
      <text class="cls-6" transform="translate(428.19 31.1)"><tspan x="0" y="0"> </tspan></text>
      <text class="cls-6" transform="translate(430.59 31.1)"><tspan x="0" y="0">(</tspan></text>
      <text class="cls-6" transform="translate(433.74 31.1)"><tspan x="0" y="0">2</tspan></text>
      <text class="cls-6" transform="translate(438.39 31.1)"><tspan x="0" y="0">0</tspan></text>
      <text class="cls-6" transform="translate(443.05 31.1)"><tspan x="0" y="0">2</tspan></text>
      <text class="cls-6" transform="translate(447.7 31.1)"><tspan x="0" y="0">3</tspan></text>
      <text class="cls-6" transform="translate(452.35 31.1)"><tspan x="0" y="0">)</tspan></text>
    </g>
    <text class="cls-8" transform="translate(337.7 46.85)"><tspan x="0" y="0">5</tspan></text>
    <text class="cls-8" transform="translate(343.7 46.85)"><tspan x="0" y="0">.</tspan></text>
    <text class="cls-8" transform="translate(345.95 46.85)"><tspan x="0" y="0">0</tspan></text>
    <text class="cls-8" transform="translate(351.96 46.85)"><tspan x="0" y="0">7</tspan></text>
    <text class="cls-8" transform="translate(357.96 46.85)"><tspan x="0" y="0">8</tspan></text>
    <text class="cls-8" transform="translate(363.96 46.85)"><tspan x="0" y="0">.</tspan></text>
    <text class="cls-8" transform="translate(366.21 46.85)"><tspan x="0" y="0">9</tspan></text>
    <text class="cls-8" transform="translate(372.22 46.85)"><tspan x="0" y="0">0</tspan></text>
    <text class="cls-8" transform="translate(378.22 46.85)"><tspan x="0" y="0">0</tspan></text>
    <text class="cls-8" transform="translate(384.22 46.85)"><tspan x="0" y="0"> </tspan></text>
    <text class="cls-8" transform="translate(387.22 46.85)"><tspan x="0" y="0">€</tspan></text>
    <text class="cls-7" transform="translate(337.7 59.61)"><tspan x="0" y="0">(</tspan></text>
    <text class="cls-7" transform="translate(340.7 59.61)"><tspan x="0" y="0">F</tspan></text>
    <text class="cls-7" transform="translate(345.2 59.61)"><tspan x="0" y="0">u</tspan></text>
    <text class="cls-7" transform="translate(349.7 59.61)"><tspan x="0" y="0">e</tspan></text>
    <text class="cls-7" transform="translate(354.21 59.61)"><tspan x="0" y="0">n</tspan></text>
    <text class="cls-7" transform="translate(358.71 59.61)"><tspan x="0" y="0">t</tspan></text>
    <text class="cls-7" transform="translate(361.71 59.61)"><tspan x="0" y="0">e</tspan></text>
    <text class="cls-7" transform="translate(366.21 59.61)"><tspan x="0" y="0">s</tspan></text>
    <text class="cls-7" transform="translate(370.71 59.61)"><tspan x="0" y="0"> </tspan></text>
    <text class="cls-7" transform="translate(372.97 59.61)"><tspan x="0" y="0">P</tspan></text>
    <text class="cls-7" transform="translate(378.22 59.61)"><tspan x="0" y="0">r</tspan></text>
    <text class="cls-7" transform="translate(381.22 59.61)"><tspan x="0" y="0">o</tspan></text>
    <text class="cls-7" transform="translate(385.72 59.61)"><tspan x="0" y="0">p</tspan></text>
    <text class="cls-7" transform="translate(390.22 59.61)"><tspan x="0" y="0">i</tspan></text>
    <text class="cls-7" transform="translate(392.47 59.61)"><tspan x="0" y="0">a</tspan></text>
    <text class="cls-7" transform="translate(396.98 59.61)"><tspan x="0" y="0">s</tspan></text>
    <text class="cls-7" transform="translate(401.48 59.61)"><tspan x="0" y="0">)</tspan></text>
    <g>
      <text class="cls-6" transform="translate(88.08 81.37)"><tspan x="0" y="0">A</tspan></text>
      <text class="cls-6" transform="translate(93.49 81.37)"><tspan x="0" y="0">C</tspan></text>
      <text class="cls-6" transform="translate(98.89 81.37)"><tspan x="0" y="0">T</tspan></text>
      <text class="cls-6" transform="translate(104.29 81.37)"><tspan x="0" y="0">I</tspan></text>
      <text class="cls-6" transform="translate(106.69 81.37)"><tspan x="0" y="0">V</tspan></text>
      <text class="cls-6" transform="translate(112.09 81.37)"><tspan x="0" y="0">O</tspan></text>
      <text class="cls-6" transform="translate(118.25 81.37)"><tspan x="0" y="0"> </tspan></text>
      <text class="cls-6" transform="translate(120.65 81.37)"><tspan x="0" y="0">T</tspan></text>
      <text class="cls-6" transform="translate(126.05 81.37)"><tspan x="0" y="0">O</tspan></text>
      <text class="cls-6" transform="translate(132.2 81.37)"><tspan x="0" y="0">T</tspan></text>
      <text class="cls-6" transform="translate(136.85 81.37)"><tspan x="0" y="0">A</tspan></text>
      <text class="cls-6" transform="translate(142.26 81.37)"><tspan x="0" y="0">L</tspan></text>
      <text class="cls-6" transform="translate(146.91 81.37)"><tspan x="0" y="0"> </tspan></text>
      <text class="cls-6" transform="translate(149.31 81.37)"><tspan x="0" y="0">(</tspan></text>
      <text class="cls-6" transform="translate(152.46 81.37)"><tspan x="0" y="0">2</tspan></text>
      <text class="cls-6" transform="translate(157.11 81.37)"><tspan x="0" y="0">0</tspan></text>
      <text class="cls-6" transform="translate(161.77 81.37)"><tspan x="0" y="0">2</tspan></text>
      <text class="cls-6" transform="translate(166.42 81.37)"><tspan x="0" y="0">3</tspan></text>
      <text class="cls-6" transform="translate(171.07 81.37)"><tspan x="0" y="0">)</tspan></text>
    </g>
    <text class="cls-8" transform="translate(88.08 97.88)"><tspan x="0" y="0">7</tspan></text>
    <text class="cls-8" transform="translate(94.09 97.88)"><tspan x="0" y="0">6</tspan></text>
    <text class="cls-8" transform="translate(100.09 97.88)"><tspan x="0" y="0">.</tspan></text>
    <text class="cls-8" transform="translate(102.34 97.88)"><tspan x="0" y="0">1</tspan></text>
    <text class="cls-8" transform="translate(107.59 97.88)"><tspan x="0" y="0">6</tspan></text>
    <text class="cls-8" transform="translate(113.59 97.88)"><tspan x="0" y="0">7</tspan></text>
    <text class="cls-8" transform="translate(118.85 97.88)"><tspan x="0" y="0">.</tspan></text>
    <text class="cls-8" transform="translate(121.1 97.88)"><tspan x="0" y="0">5</tspan></text>
    <text class="cls-8" transform="translate(127.1 97.88)"><tspan x="0" y="0">6</tspan></text>
    <text class="cls-8" transform="translate(133.1 97.88)"><tspan x="0" y="0">7</tspan></text>
    <text class="cls-8" transform="translate(139.11 97.88)"><tspan x="0" y="0"> </tspan></text>
    <text class="cls-8" transform="translate(142.11 97.88)"><tspan x="0" y="0">€</tspan></text>
    <text class="cls-7" transform="translate(88.08 110.63)"><tspan x="0" y="0">(</tspan></text>
    <text class="cls-7" transform="translate(91.08 110.63)"><tspan x="0" y="0">F</tspan></text>
    <text class="cls-7" transform="translate(95.59 110.63)"><tspan x="0" y="0">u</tspan></text>
    <text class="cls-7" transform="translate(100.09 110.63)"><tspan x="0" y="0">e</tspan></text>
    <text class="cls-7" transform="translate(104.59 110.63)"><tspan x="0" y="0">n</tspan></text>
    <text class="cls-7" transform="translate(109.09 110.63)"><tspan x="0" y="0">t</tspan></text>
    <text class="cls-7" transform="translate(112.09 110.63)"><tspan x="0" y="0">e</tspan></text>
    <text class="cls-7" transform="translate(116.6 110.63)"><tspan x="0" y="0">s</tspan></text>
    <text class="cls-7" transform="translate(121.1 110.63)"><tspan x="0" y="0"> </tspan></text>
    <text class="cls-7" transform="translate(123.35 110.63)"><tspan x="0" y="0">P</tspan></text>
    <text class="cls-7" transform="translate(128.6 110.63)"><tspan x="0" y="0">r</tspan></text>
    <text class="cls-7" transform="translate(131.6 110.63)"><tspan x="0" y="0">o</tspan></text>
    <text class="cls-7" transform="translate(136.1 110.63)"><tspan x="0" y="0">p</tspan></text>
    <text class="cls-7" transform="translate(140.61 110.63)"><tspan x="0" y="0">i</tspan></text>
    <text class="cls-7" transform="translate(142.86 110.63)"><tspan x="0" y="0">a</tspan></text>
    <text class="cls-7" transform="translate(147.36 110.63)"><tspan x="0" y="0">s</tspan></text>
    <text class="cls-7" transform="translate(151.86 110.63)"><tspan x="0" y="0">)</tspan></text>
    <g>
      <text class="cls-6" transform="translate(337.7 81.37)"><tspan x="0" y="0">A</tspan></text>
      <text class="cls-6" transform="translate(343.1 81.37)"><tspan x="0" y="0">C</tspan></text>
      <text class="cls-6" transform="translate(348.5 81.37)"><tspan x="0" y="0">T</tspan></text>
      <text class="cls-6" transform="translate(353.91 81.37)"><tspan x="0" y="0">I</tspan></text>
      <text class="cls-6" transform="translate(356.31 81.37)"><tspan x="0" y="0">V</tspan></text>
      <text class="cls-6" transform="translate(361.71 81.37)"><tspan x="0" y="0">I</tspan></text>
      <text class="cls-6" transform="translate(364.11 81.37)"><tspan x="0" y="0">D</tspan></text>
      <text class="cls-6" transform="translate(369.51 81.37)"><tspan x="0" y="0">A</tspan></text>
      <text class="cls-6" transform="translate(374.92 81.37)"><tspan x="0" y="0">D</tspan></text>
    </g>
    <text class="cls-8" transform="translate(337.7 97.88)"><tspan x="0" y="0">6</tspan></text>
    <text class="cls-8" transform="translate(343.7 97.88)"><tspan x="0" y="0">3</tspan></text>
    <text class="cls-8" transform="translate(349.7 97.88)"><tspan x="0" y="0">1</tspan></text>
    <text class="cls-8" transform="translate(354.96 97.88)"><tspan x="0" y="0">1</tspan></text>
    <text class="cls-8" transform="translate(360.21 97.88)"><tspan x="0" y="0"> </tspan></text>
    <text class="cls-8" transform="translate(363.21 97.88)"><tspan x="0" y="0">-</tspan></text>
    <text class="cls-8" transform="translate(366.96 97.88)"><tspan x="0" y="0"> </tspan></text>
    <text class="cls-8" transform="translate(370.96 97.88)"><tspan x="0" y="0">P</tspan></text>
    <text class="cls-8" transform="translate(377.72 97.88)"><tspan x="0" y="0">r</tspan></text>
    <text class="cls-8" transform="translate(381.22 97.88)"><tspan x="0" y="0">o</tspan></text>
    <text class="cls-8" transform="translate(387.22 97.88)"><tspan x="0" y="0">c</tspan></text>
    <text class="cls-8" transform="translate(392.47 97.88)"><tspan x="0" y="0">e</tspan></text>
    <text class="cls-8" transform="translate(397.73 97.88)"><tspan x="0" y="0">s</tspan></text>
    <text class="cls-8" transform="translate(402.98 97.88)"><tspan x="0" y="0">o</tspan></text>
    <text class="cls-8" transform="translate(408.98 97.88)"><tspan x="0" y="0"> </tspan></text>
    <text class="cls-8" transform="translate(411.98 97.88)"><tspan x="0" y="0">d</tspan></text>
    <text class="cls-8" transform="translate(417.99 97.88)"><tspan x="0" y="0">e</tspan></text>
    <text class="cls-8" transform="translate(423.24 97.88)"><tspan x="0" y="0"> </tspan></text>
    <text class="cls-8" transform="translate(426.24 97.88)"><tspan x="0" y="0">d</tspan></text>
    <text class="cls-8" transform="translate(432.24 97.88)"><tspan x="0" y="0">a</tspan></text>
    <text class="cls-8" transform="translate(438.24 97.88)"><tspan x="0" y="0">t</tspan></text>
    <text class="cls-8" transform="translate(441.75 97.88)"><tspan x="0" y="0">o</tspan></text>
    <text class="cls-8" transform="translate(447.75 97.88)"><tspan x="0" y="0">s</tspan></text>
    <text class="cls-8" transform="translate(454 97.88)"><tspan x="0" y="0">,</tspan></text>
    <text class="cls-8" transform="translate(456.25 97.88)"><tspan x="0" y="0"> </tspan></text>
    <text class="cls-8" transform="translate(459.25 97.88)"><tspan x="0" y="0">h</tspan></text>
    <text class="cls-8" transform="translate(465.26 97.88)"><tspan x="0" y="0">o</tspan></text>
    <text class="cls-8" transform="translate(471.26 97.88)"><tspan x="0" y="0">s</tspan></text>
    <text class="cls-8" transform="translate(477.51 97.88)"><tspan x="0" y="0">t</tspan></text>
    <text class="cls-8" transform="translate(481.01 97.88)"><tspan x="0" y="0">i</tspan></text>
    <text class="cls-8" transform="translate(484.01 97.88)"><tspan x="0" y="0">n</tspan></text>
    <text class="cls-8" transform="translate(490.02 97.88)"><tspan x="0" y="0">g</tspan></text>
    <text class="cls-8" transform="translate(496.02 97.88)"><tspan x="0" y="0"> </tspan></text>
    <text class="cls-8" transform="translate(499.02 97.88)"><tspan x="0" y="0">y</tspan></text>
    <text class="cls-8" transform="translate(337.7 112.13)"><tspan x="0" y="0">a</tspan></text>
    <text class="cls-8" transform="translate(343.25 112.13)"><tspan x="0" y="0">c</tspan></text>
    <text class="cls-8" transform="translate(348.95 112.13)"><tspan x="0" y="0">t</tspan></text>
    <text class="cls-8" transform="translate(353.46 112.13)"><tspan x="0" y="0">i</tspan></text>
    <text class="cls-8" transform="translate(356.46 112.13)"><tspan x="0" y="0">v</tspan></text>
    <text class="cls-8" transform="translate(361.71 112.13)"><tspan x="0" y="0">i</tspan></text>
    <text class="cls-8" transform="translate(364.71 112.13)"><tspan x="0" y="0">d</tspan></text>
    <text class="cls-8" transform="translate(370.71 112.13)"><tspan x="0" y="0">a</tspan></text>
    <text class="cls-8" transform="translate(376.72 112.13)"><tspan x="0" y="0">d</tspan></text>
    <text class="cls-8" transform="translate(382.72 112.13)"><tspan x="0" y="0">e</tspan></text>
    <text class="cls-8" transform="translate(388.52 112.13)"><tspan x="0" y="0">s</tspan></text>
    <text class="cls-8" transform="translate(393.22 112.13)"><tspan x="0" y="0"> </tspan></text>
    <text class="cls-8" transform="translate(397.32 112.13)"><tspan x="0" y="0">r</tspan></text>
    <text class="cls-8" transform="translate(400.73 112.13)"><tspan x="0" y="0">e</tspan></text>
    <text class="cls-8" transform="translate(406.53 112.13)"><tspan x="0" y="0">l</tspan></text>
    <text class="cls-8" transform="translate(408.98 112.13)"><tspan x="0" y="0">a</tspan></text>
    <text class="cls-8" transform="translate(414.98 112.13)"><tspan x="0" y="0">c</tspan></text>
    <text class="cls-8" transform="translate(420.78 112.13)"><tspan x="0" y="0">i</tspan></text>
    <text class="cls-8" transform="translate(423.24 112.13)"><tspan x="0" y="0">o</tspan></text>
    <text class="cls-8" transform="translate(429.24 112.13)"><tspan x="0" y="0">n</tspan></text>
    <text class="cls-8" transform="translate(435.24 112.13)"><tspan x="0" y="0">a</tspan></text>
    <text class="cls-8" transform="translate(441.25 112.13)"><tspan x="0" y="0">d</tspan></text>
    <text class="cls-8" transform="translate(447.25 112.13)"><tspan x="0" y="0">a</tspan></text>
    <text class="cls-8" transform="translate(453.25 112.13)"><tspan x="0" y="0">s</tspan></text>
    <g>
      <text class="cls-6" transform="translate(88.08 134.64)"><tspan x="0" y="0">D</tspan></text>
      <text class="cls-6" transform="translate(93.49 134.64)"><tspan x="0" y="0">E</tspan></text>
      <text class="cls-6" transform="translate(98.14 134.64)"><tspan x="0" y="0">P</tspan></text>
      <text class="cls-6" transform="translate(103.54 134.64)"><tspan x="0" y="0">Ó</tspan></text>
      <text class="cls-6" transform="translate(109.69 134.64)"><tspan x="0" y="0">S</tspan></text>
      <text class="cls-6" transform="translate(115.09 134.64)"><tspan x="0" y="0">I</tspan></text>
      <text class="cls-6" transform="translate(117.5 134.64)"><tspan x="0" y="0">T</tspan></text>
      <text class="cls-6" transform="translate(122.9 134.64)"><tspan x="0" y="0">O</tspan></text>
      <text class="cls-6" transform="translate(129.05 134.64)"><tspan x="0" y="0"> </tspan></text>
      <text class="cls-6" transform="translate(131.45 134.64)"><tspan x="0" y="0">C</tspan></text>
      <text class="cls-6" transform="translate(136.85 134.64)"><tspan x="0" y="0">O</tspan></text>
      <text class="cls-6" transform="translate(143.01 134.64)"><tspan x="0" y="0">N</tspan></text>
      <text class="cls-6" transform="translate(149.16 134.64)"><tspan x="0" y="0">S</tspan></text>
      <text class="cls-6" transform="translate(154.56 134.64)"><tspan x="0" y="0">O</tspan></text>
      <text class="cls-6" transform="translate(160.71 134.64)"><tspan x="0" y="0">L</tspan></text>
      <text class="cls-6" transform="translate(165.37 134.64)"><tspan x="0" y="0">I</tspan></text>
      <text class="cls-6" transform="translate(167.77 134.64)"><tspan x="0" y="0">D</tspan></text>
      <text class="cls-6" transform="translate(173.17 134.64)"><tspan x="0" y="0">A</tspan></text>
      <text class="cls-6" transform="translate(178.57 134.64)"><tspan x="0" y="0">D</tspan></text>
      <text class="cls-6" transform="translate(183.98 134.64)"><tspan x="0" y="0">O</tspan></text>
    </g>
    <text class="cls-8" transform="translate(88.08 151.15)"><tspan x="0" y="0">2</tspan></text>
    <text class="cls-8" transform="translate(94.09 151.15)"><tspan x="0" y="0">0</tspan></text>
    <text class="cls-8" transform="translate(100.09 151.15)"><tspan x="0" y="0">2</tspan></text>
    <text class="cls-8" transform="translate(106.09 151.15)"><tspan x="0" y="0">2</tspan></text>
  </g>
  <polyline class="cls-3" points="47.44 41.6 62.15 26.89 76.86 41.6"/>
  <polyline class="cls-3" points="297.1 41.6 311.81 26.89 326.52 41.6"/>
  <g>
    <rect class="cls-2" x="50.71" y="137.68" width="22.88" height="9.43"/>
    <polyline class="cls-2" points="53.07 137.45 53.07 126.2 64.62 126.2 71.2 132.78 71.2 137.45"/>
    <polyline class="cls-2" points="71.24 132.74 64.55 132.74 64.55 126.2"/>
    <polyline class="cls-2" points="53.21 147.22 53.21 149.71 71.02 149.71 71.02 147.14"/>
    <g>
      <path class="cls-10" d="m58.59,140.19c1.01,0,1.61.28,1.61,1.41,0,1-.57,1.38-1.56,1.38h-.38v1.35h-.98v-4.14h1.31Zm-.33,1.95h.31c.47,0,.63-.16.63-.56s-.16-.55-.63-.55h-.31v1.11Z"/>
      <path class="cls-10" d="m62.26,140.19c1.08,0,1.73.63,1.73,2.06,0,1.32-.65,2.08-1.6,2.08h-1.59v-4.14h1.47Zm-.49,3.3h.41c.65,0,.81-.6.81-1.26,0-.59-.15-1.2-.81-1.2h-.41v2.46Z"/>
      <path class="cls-10" d="m64.61,144.33v-4.14h2.54v.84h-1.56v.87h1.42v.84h-1.42v1.59h-.98Z"/>
    </g>
  </g>
  <g>
    <g>
      <circle class="cls-1" cx="315.21" cy="92.59" r="3.97"/>
      <circle class="cls-1" cx="315.21" cy="92.59" r="6.68"/>
      <polyline class="cls-1" points="321.09 95.85 322.4 97.16 319.78 99.78 318.47 98.47"/>
      <polyline class="cls-1" points="325.24 105.14 321.06 101.07 323.69 98.44 327.86 102.52"/>
      <polyline class="cls-1" points="321.95 97.88 322.99 98.92 321.54 100.38 320.49 99.33"/>
    </g>
    <g class="cls-4">
      <g>
        <rect class="cls-1" x="299.57" y="77.24" width="20.69" height="11.52" rx="1.18" ry="1.18"/>
        <rect class="cls-1" x="302.32" y="79.94" width="8.09" height="1.97"/>
        <line class="cls-1" x1="302.35" y1="83.95" x2="310.67" y2="83.95"/>
        <line class="cls-1" x1="302.35" y1="85.63" x2="310.67" y2="85.63"/>
      </g>
    </g>
  </g>
</svg>