<?xml version="1.0" encoding="UTF-8"?>
<svg id="Capa_1" data-name="Capa 1" xmlns="http://www.w3.org/2000/svg" viewBox="0 0 268.85 200.06">
  <defs>
    <style>
      .cls-1 {
        fill: none;
        stroke: #3a61d9;
        stroke-miterlimit: 10;
        stroke-width: 1.52px;
      }

      .cls-2 {
        fill: #2550d6;
        font-family: Roboto-Bold, Roboto;
        font-size: 8.25px;
        font-weight: 700;
        opacity: .6;
      }

      .cls-3 {
        fill: #494e54;
        font-family: Roboto-Regular, Roboto;
        font-size: 11px;
      }
    </style>
  </defs>
  <g>
    <g>
      <text class="cls-2" transform="translate(88.08 33.55)"><tspan x="0" y="0">F</tspan></text>
      <text class="cls-2" transform="translate(92.74 33.55)"><tspan x="0" y="0">E</tspan></text>
      <text class="cls-2" transform="translate(97.39 33.55)"><tspan x="0" y="0">C</tspan></text>
      <text class="cls-2" transform="translate(102.79 33.55)"><tspan x="0" y="0">H</tspan></text>
      <text class="cls-2" transform="translate(108.94 33.55)"><tspan x="0" y="0">A</tspan></text>
      <text class="cls-2" transform="translate(114.34 33.55)"><tspan x="0" y="0"> </tspan></text>
      <text class="cls-2" transform="translate(116.75 33.55)"><tspan x="0" y="0">D</tspan></text>
      <text class="cls-2" transform="translate(122.15 33.55)"><tspan x="0" y="0">E</tspan></text>
      <text class="cls-2" transform="translate(126.8 33.55)"><tspan x="0" y="0"> </tspan></text>
      <text class="cls-2" transform="translate(129.2 33.55)"><tspan x="0" y="0">C</tspan></text>
      <text class="cls-2" transform="translate(134.6 33.55)"><tspan x="0" y="0">O</tspan></text>
      <text class="cls-2" transform="translate(140.76 33.55)"><tspan x="0" y="0">N</tspan></text>
      <text class="cls-2" transform="translate(146.91 33.55)"><tspan x="0" y="0">S</tspan></text>
      <text class="cls-2" transform="translate(152.31 33.55)"><tspan x="0" y="0">T</tspan></text>
      <text class="cls-2" transform="translate(157.71 33.55)"><tspan x="0" y="0">I</tspan></text>
      <text class="cls-2" transform="translate(160.12 33.55)"><tspan x="0" y="0">T</tspan></text>
      <text class="cls-2" transform="translate(165.52 33.55)"><tspan x="0" y="0">U</tspan></text>
      <text class="cls-2" transform="translate(170.92 33.55)"><tspan x="0" y="0">C</tspan></text>
      <text class="cls-2" transform="translate(176.32 33.55)"><tspan x="0" y="0">I</tspan></text>
      <text class="cls-2" transform="translate(178.72 33.55)"><tspan x="0" y="0">Ó</tspan></text>
      <text class="cls-2" transform="translate(184.88 33.55)"><tspan x="0" y="0">N</tspan></text>
    </g>
    <text class="cls-3" transform="translate(88.08 50.05)"><tspan x="0" y="0">0</tspan></text>
    <text class="cls-3" transform="translate(94.09 50.05)"><tspan x="0" y="0">9</tspan></text>
    <text class="cls-3" transform="translate(100.09 50.05)"><tspan x="0" y="0">/</tspan></text>
    <text class="cls-3" transform="translate(103.09 50.05)"><tspan x="0" y="0">0</tspan></text>
    <text class="cls-3" transform="translate(109.09 50.05)"><tspan x="0" y="0">1</tspan></text>
    <text class="cls-3" transform="translate(115.09 50.05)"><tspan x="0" y="0">/</tspan></text>
    <text class="cls-3" transform="translate(118.1 50.05)"><tspan x="0" y="0">1</tspan></text>
    <text class="cls-3" transform="translate(123.35 50.05)"><tspan x="0" y="0">9</tspan></text>
    <text class="cls-3" transform="translate(129.35 50.05)"><tspan x="0" y="0">9</tspan></text>
    <text class="cls-3" transform="translate(135.35 50.05)"><tspan x="0" y="0">2</tspan></text>
    <g>
      <text class="cls-2" transform="translate(88.08 72.56)"><tspan x="0" y="0">C</tspan></text>
      <text class="cls-2" transform="translate(93.49 72.56)"><tspan x="0" y="0">A</tspan></text>
      <text class="cls-2" transform="translate(98.14 72.56)"><tspan x="0" y="0">T</tspan></text>
      <text class="cls-2" transform="translate(102.79 72.56)"><tspan x="0" y="0">A</tspan></text>
      <text class="cls-2" transform="translate(108.19 72.56)"><tspan x="0" y="0">L</tspan></text>
      <text class="cls-2" transform="translate(112.84 72.56)"><tspan x="0" y="0">O</tspan></text>
      <text class="cls-2" transform="translate(119 72.56)"><tspan x="0" y="0">G</tspan></text>
      <text class="cls-2" transform="translate(125.15 72.56)"><tspan x="0" y="0">A</tspan></text>
      <text class="cls-2" transform="translate(130.55 72.56)"><tspan x="0" y="0">C</tspan></text>
      <text class="cls-2" transform="translate(135.95 72.56)"><tspan x="0" y="0">I</tspan></text>
      <text class="cls-2" transform="translate(138.36 72.56)"><tspan x="0" y="0">Ó</tspan></text>
      <text class="cls-2" transform="translate(144.51 72.56)"><tspan x="0" y="0">N</tspan></text>
      <text class="cls-2" transform="translate(150.66 72.56)"><tspan x="0" y="0"> </tspan></text>
      <text class="cls-2" transform="translate(153.06 72.56)"><tspan x="0" y="0">T</tspan></text>
      <text class="cls-2" transform="translate(157.71 72.56)"><tspan x="0" y="0">A</tspan></text>
      <text class="cls-2" transform="translate(163.12 72.56)"><tspan x="0" y="0">M</tspan></text>
      <text class="cls-2" transform="translate(170.77 72.56)"><tspan x="0" y="0">A</tspan></text>
      <text class="cls-2" transform="translate(176.17 72.56)"><tspan x="0" y="0">Ñ</tspan></text>
      <text class="cls-2" transform="translate(182.32 72.56)"><tspan x="0" y="0">O</tspan></text>
      <text class="cls-2" transform="translate(188.48 72.56)"><tspan x="0" y="0"> </tspan></text>
      <text class="cls-2" transform="translate(190.88 72.56)"><tspan x="0" y="0">S</tspan></text>
      <text class="cls-2" transform="translate(196.28 72.56)"><tspan x="0" y="0">E</tspan></text>
      <text class="cls-2" transform="translate(200.93 72.56)"><tspan x="0" y="0">G</tspan></text>
      <text class="cls-2" transform="translate(207.08 72.56)"><tspan x="0" y="0">Ú</tspan></text>
      <text class="cls-2" transform="translate(212.49 72.56)"><tspan x="0" y="0">N</tspan></text>
      <text class="cls-2" transform="translate(218.64 72.56)"><tspan x="0" y="0"> </tspan></text>
      <text class="cls-2" transform="translate(221.04 72.56)"><tspan x="0" y="0">U</tspan></text>
      <text class="cls-2" transform="translate(226.44 72.56)"><tspan x="0" y="0">E</tspan></text>
    </g>
    <text class="cls-3" transform="translate(88.08 89.07)"><tspan x="0" y="0">E</tspan></text>
    <text class="cls-3" transform="translate(94.09 89.07)"><tspan x="0" y="0">m</tspan></text>
    <text class="cls-3" transform="translate(103.84 89.07)"><tspan x="0" y="0">p</tspan></text>
    <text class="cls-3" transform="translate(109.84 89.07)"><tspan x="0" y="0">r</tspan></text>
    <text class="cls-3" transform="translate(114.34 89.07)"><tspan x="0" y="0">e</tspan></text>
    <text class="cls-3" transform="translate(119.6 89.07)"><tspan x="0" y="0">s</tspan></text>
    <text class="cls-3" transform="translate(124.85 89.07)"><tspan x="0" y="0">a</tspan></text>
    <text class="cls-3" transform="translate(130.85 89.07)"><tspan x="0" y="0"> </tspan></text>
    <text class="cls-3" transform="translate(133.85 89.07)"><tspan x="0" y="0">g</tspan></text>
    <text class="cls-3" transform="translate(139.86 89.07)"><tspan x="0" y="0">r</tspan></text>
    <text class="cls-3" transform="translate(144.36 89.07)"><tspan x="0" y="0">a</tspan></text>
    <text class="cls-3" transform="translate(150.36 89.07)"><tspan x="0" y="0">n</tspan></text>
    <text class="cls-3" transform="translate(156.36 89.07)"><tspan x="0" y="0">d</tspan></text>
    <text class="cls-3" transform="translate(162.37 89.07)"><tspan x="0" y="0">e</tspan></text>
    <g>
      <text class="cls-2" transform="translate(88.08 114.57)"><tspan x="0" y="0">O</tspan></text>
      <text class="cls-2" transform="translate(94.24 114.57)"><tspan x="0" y="0">P</tspan></text>
      <text class="cls-2" transform="translate(99.64 114.57)"><tspan x="0" y="0">E</tspan></text>
      <text class="cls-2" transform="translate(104.29 114.57)"><tspan x="0" y="0">R</tspan></text>
      <text class="cls-2" transform="translate(109.69 114.57)"><tspan x="0" y="0">A</tspan></text>
      <text class="cls-2" transform="translate(115.09 114.57)"><tspan x="0" y="0">C</tspan></text>
      <text class="cls-2" transform="translate(120.5 114.57)"><tspan x="0" y="0">I</tspan></text>
      <text class="cls-2" transform="translate(122.9 114.57)"><tspan x="0" y="0">O</tspan></text>
      <text class="cls-2" transform="translate(129.05 114.57)"><tspan x="0" y="0">N</tspan></text>
      <text class="cls-2" transform="translate(135.2 114.57)"><tspan x="0" y="0">E</tspan></text>
      <text class="cls-2" transform="translate(139.86 114.57)"><tspan x="0" y="0">S</tspan></text>
      <text class="cls-2" transform="translate(145.26 114.57)"><tspan x="0" y="0"> </tspan></text>
      <text class="cls-2" transform="translate(147.66 114.57)"><tspan x="0" y="0">I</tspan></text>
      <text class="cls-2" transform="translate(150.06 114.57)"><tspan x="0" y="0">N</tspan></text>
      <text class="cls-2" transform="translate(156.21 114.57)"><tspan x="0" y="0">T</tspan></text>
      <text class="cls-2" transform="translate(161.62 114.57)"><tspan x="0" y="0">E</tspan></text>
      <text class="cls-2" transform="translate(166.27 114.57)"><tspan x="0" y="0">R</tspan></text>
      <text class="cls-2" transform="translate(171.67 114.57)"><tspan x="0" y="0">N</tspan></text>
      <text class="cls-2" transform="translate(177.82 114.57)"><tspan x="0" y="0">A</tspan></text>
      <text class="cls-2" transform="translate(183.22 114.57)"><tspan x="0" y="0">C</tspan></text>
      <text class="cls-2" transform="translate(188.63 114.57)"><tspan x="0" y="0">I</tspan></text>
      <text class="cls-2" transform="translate(191.03 114.57)"><tspan x="0" y="0">O</tspan></text>
      <text class="cls-2" transform="translate(197.18 114.57)"><tspan x="0" y="0">N</tspan></text>
      <text class="cls-2" transform="translate(203.33 114.57)"><tspan x="0" y="0">A</tspan></text>
      <text class="cls-2" transform="translate(208.74 114.57)"><tspan x="0" y="0">L</tspan></text>
      <text class="cls-2" transform="translate(213.39 114.57)"><tspan x="0" y="0">E</tspan></text>
      <text class="cls-2" transform="translate(218.04 114.57)"><tspan x="0" y="0">S</tspan></text>
    </g>
    <text class="cls-3" transform="translate(88.08 131.07)"><tspan x="0" y="0">E</tspan></text>
    <text class="cls-3" transform="translate(94.09 131.07)"><tspan x="0" y="0">x</tspan></text>
    <text class="cls-3" transform="translate(99.34 131.07)"><tspan x="0" y="0">p</tspan></text>
    <text class="cls-3" transform="translate(105.34 131.07)"><tspan x="0" y="0">o</tspan></text>
    <text class="cls-3" transform="translate(111.34 131.07)"><tspan x="0" y="0">r</tspan></text>
    <text class="cls-3" transform="translate(115.85 131.07)"><tspan x="0" y="0">t</tspan></text>
    <text class="cls-3" transform="translate(120.35 131.07)"><tspan x="0" y="0">a</tspan></text>
    <g>
      <text class="cls-2" transform="translate(88.08 154.33)"><tspan x="0" y="0">E</tspan></text>
      <text class="cls-2" transform="translate(92.74 154.33)"><tspan x="0" y="0">M</tspan></text>
      <text class="cls-2" transform="translate(100.39 154.33)"><tspan x="0" y="0">P</tspan></text>
      <text class="cls-2" transform="translate(105.79 154.33)"><tspan x="0" y="0">L</tspan></text>
      <text class="cls-2" transform="translate(110.44 154.33)"><tspan x="0" y="0">E</tspan></text>
      <text class="cls-2" transform="translate(115.09 154.33)"><tspan x="0" y="0">A</tspan></text>
      <text class="cls-2" transform="translate(120.5 154.33)"><tspan x="0" y="0">D</tspan></text>
      <text class="cls-2" transform="translate(125.9 154.33)"><tspan x="0" y="0">O</tspan></text>
      <text class="cls-2" transform="translate(132.05 154.33)"><tspan x="0" y="0">S</tspan></text>
    </g>
    <text class="cls-3" transform="translate(88.08 170.84)"><tspan x="0" y="0">3</tspan></text>
    <text class="cls-3" transform="translate(94.09 170.84)"><tspan x="0" y="0">5</tspan></text>
    <text class="cls-3" transform="translate(100.09 170.84)"><tspan x="0" y="0">0</tspan></text>
  </g>
  <rect class="cls-1" x="49.93" y="31.07" width="20.29" height="17.68"/>
  <g>
    <line class="cls-1" x1="54.6" y1="28.43" x2="54.6" y2="32.83"/>
    <line class="cls-1" x1="60.07" y1="28.43" x2="60.07" y2="32.83"/>
    <line class="cls-1" x1="65.55" y1="28.43" x2="65.55" y2="32.83"/>
  </g>
  <line class="cls-1" x1="49.9" y1="35.18" x2="70.24" y2="35.18"/>
  <g>
    <rect class="cls-1" x="54.64" y="38.47" width="3.62" height="3.62"/>
    <rect class="cls-1" x="58.26" y="38.47" width="3.62" height="3.62"/>
    <rect class="cls-1" x="54.64" y="42.08" width="3.62" height="3.62"/>
    <rect class="cls-1" x="58.26" y="42.08" width="3.62" height="3.62"/>
    <rect class="cls-1" x="61.89" y="38.47" width="3.62" height="3.62"/>
  </g>
  <g>
    <rect class="cls-1" x="49.81" y="79.58" width="7.77" height="8.41"/>
    <rect class="cls-1" x="62.57" y="76.69" width="7.77" height="11.3"/>
    <g>
      <line class="cls-1" x1="65.16" y1="79.55" x2="67.75" y2="79.55"/>
      <line class="cls-1" x1="65.16" y1="82.34" x2="67.75" y2="82.34"/>
      <line class="cls-1" x1="65.16" y1="85.13" x2="67.75" y2="85.13"/>
    </g>
    <g>
      <line class="cls-1" x1="52.49" y1="82.34" x2="55.09" y2="82.34"/>
      <line class="cls-1" x1="52.49" y1="85.13" x2="55.09" y2="85.13"/>
    </g>
    <polyline class="cls-1" points="54.5 77.48 54.5 69.27 65.6 69.27 65.6 74.79"/>
    <line class="cls-1" x1="58.29" y1="73.03" x2="61.81" y2="73.03"/>
    <line class="cls-1" x1="57.77" y1="87.95" x2="62.57" y2="87.95"/>
  </g>
  <g>
    <circle class="cls-1" cx="60.07" cy="119.62" r="9.97"/>
    <path class="cls-1" d="m64.28,118.44c.05.09-.52-.34-.58-.36-.21-.08-.41-.23-.61-.33-.44-.24-.86-.43-1.35-.22-.34.15-.63.43-.88.69-.42.43-.92.87-1.19,1.41-.42.82-.27,1.02.37,1.56.47.39.86.81.9,1.44.04.59-.47,1.12-.63,1.69-.21.79-.43,2.4.74,2.54.61.07,1.27-.36,1.73-.68.46-.29.84-.67,1.12-1.14.12-.28.25-.56.38-.83.53-.83,1.67-1.09,2.38-1.76.51-.48,1.06-1.03.85-1.8-.18-.68-.88-.65-1.43-.77s-.77-.46-1.1-.86c-.36-.43-.28-.33-.7-.56Z"/>
    <path class="cls-1" d="m59.07,109.74c-.23.26-.52.8-.42,1.2.14.59,1.05.07,1.08.86.03.64-.19,1.26.75,1.29.45.01.81-.24,1,.29.24.69.44,1.31,1.01,1.84.28.26.61.45.99.41.42-.05.63-.3.91-.59.52-.53,1-.93,1.75-.99.61-.05.78.24,1.12-.31-.02,0,.39-.32.37-.32"/>
    <path class="cls-1" d="m54.5,111.5c.11.51.34,1.19.68,1.59.31.37.66.53.78,1.05.1.45-.09.88-.01,1.32.07.38.38.58.49.93.13.4-.24.75-.51.99-.58.52-1.21.94-1.87,1.34-.51.31-.82.78-.88,1.39-.08.72-.02,1.25.66,1.6.39.2.81.4.84.9,0,.18-.06.38-.04.58.05.35.32.58.45.89.41.97-.78,1.6-1.34,2.19-.07.07-.34.41-.43.46"/>
  </g>
  <path class="cls-1" d="m60.24,170.15h2s.49-5.67.49-5.67l1.66-.54v-4.54c0-1.03-.83-1.86-1.86-1.86h-2.59s.24,0,.24,0h-2.59c-1.03,0-1.86.83-1.86,1.86v4.54l1.66.54.49,5.67h2.35Z"/>
  <circle class="cls-1" cx="60.07" cy="152.6" r="2.88"/>
  <g>
    <path class="cls-1" d="m55.16,157.2h-2.15s.2,0,.2,0h-2.15c-.86,0-1.55.69-1.55,1.55v3.78l1.38.45.41,4.72h1.95s1.67,0,1.67,0l.2-2.31"/>
    <circle class="cls-1" cx="53.13" cy="153.09" r="2.4"/>
    <g>
      <path class="cls-1" d="m64.98,157.2h2.15-.2s2.15,0,2.15,0c.86,0,1.55.69,1.55,1.55v3.78s-1.38.45-1.38.45l-.41,4.72h-1.67s-.28,0-.28,0h-1.67s-.2-2.31-.2-2.31"/>
      <circle class="cls-1" cx="67.01" cy="153.09" r="2.4"/>
    </g>
  </g>
</svg>