<?xml version="1.0" encoding="UTF-8"?>
<svg id="Capa_2" data-name="Capa 2" xmlns="http://www.w3.org/2000/svg" viewBox="0 0 240.9 141.7">
  <defs>
    <style>
      .cls-1 {
        fill: #ccd6eb;
      }

      .cls-1, .cls-2, .cls-3, .cls-4, .cls-5, .cls-6 {
        stroke-width: 0px;
      }

      .cls-2 {
        fill: #3a61d9;
      }

      .cls-7 {
        isolation: isolate;
      }

      .cls-3 {
        fill: none;
      }

      .cls-4 {
        fill: #2550d6;
      }

      .cls-5 {
        fill: #e6e6e6;
      }

      .cls-6 {
        fill: #494e54;
      }
    </style>
  </defs>
  <g id="Capa_1-2" data-name="Capa 1">
    <g>
      <g class="cls-7">
        <path class="cls-4" d="M8.65,15.7h-2.3v1.6h2.7v1h-3.9v-5.9h3.9v1h-2.7v1.4h2.3v.9Z"/>
      </g>
      <g class="cls-7">
        <path class="cls-4" d="M11.95,16.8l1.3-4.4h1.3l-2,5.9h-1.3l-2-5.9h1.3l1.4,4.4Z"/>
      </g>
      <g class="cls-7">
        <path class="cls-4" d="M19.95,15.5c0,.6-.1,1.1-.3,1.5s-.5.8-.9,1-.8.4-1.3.4-.9-.1-1.3-.3c-.4-.2-.7-.6-.9-1s-.3-.9-.3-1.5v-.3c0-.6.1-1.1.3-1.5s.5-.8.9-1,.8-.4,1.3-.4.9.1,1.3.4c.4.2.7.6.9,1s.3.9.3,1.5v.2ZM18.75,15.2c0-.6-.1-1.1-.3-1.4s-.5-.5-.9-.5-.7.2-.9.5-.3.8-.3,1.4v.3c0,.6.1,1.1.3,1.4s.5.5,1,.5c.4,0,.7-.2.9-.5s.3-.8.3-1.4v-.3h-.1Z"/>
      </g>
      <g class="cls-7">
        <path class="cls-4" d="M22.55,17.3h2.6v1h-3.8v-5.9h1.2v4.9Z"/>
      </g>
      <g class="cls-7">
        <path class="cls-4" d="M30.45,12.4v3.9c0,.6-.2,1.1-.6,1.5-.4.4-1,.6-1.6.6-.7,0-1.2-.2-1.6-.5-.4-.4-.6-.9-.6-1.5v-3.9h1.2v3.9c0,.4.1.7.3.8s.4.3.8.3c.7,0,1-.4,1-1.1v-3.9h1.1v-.1Z"/>
      </g>
      <g class="cls-7">
        <path class="cls-4" d="M35.95,16.3c0,.6-.3,1.1-.7,1.5-.4.4-1,.5-1.7.5-.8,0-1.3-.3-1.8-.8-.4-.5-.6-1.2-.6-2.1v-.4c0-.6.1-1.1.3-1.5s.5-.8.9-1,.8-.3,1.3-.3c.7,0,1.2.2,1.6.5.4.4.7.9.7,1.5h-1.2c0-.4-.1-.7-.3-.8-.2-.2-.5-.3-.8-.3-.4,0-.7.1-.9.4s-.3.7-.3,1.3v.4c0,.6.1,1.1.3,1.4.2.3.5.4.9.4s.7-.1.8-.3c.2-.2.3-.4.3-.8h1.2v.4Z"/>
      </g>
      <g class="cls-7">
        <path class="cls-4" d="M38.05,18.3h-1.2v-5.9h1.2v5.9Z"/>
      </g>
      <g class="cls-7">
        <path class="cls-4" d="M43.95,15.5c0,.6-.1,1.1-.3,1.5-.2.4-.5.8-.9,1s-.8.4-1.3.4-.9-.1-1.3-.3-.7-.6-.9-1c-.2-.4-.3-.9-.3-1.5v-.3c0-.6.1-1.1.3-1.5.2-.4.5-.8.9-1s.8-.4,1.3-.4.9.1,1.3.4c.4.2.7.6.9,1,.2.4.3.9.3,1.5v.2ZM42.75,15.2c0-.6-.1-1.1-.3-1.4-.2-.3-.5-.5-.9-.5s-.7.2-.9.5c-.2.3-.3.8-.3,1.4v.3c0,.6.1,1.1.3,1.4.2.3.5.5,1,.5.4,0,.7-.2.9-.5.2-.3.3-.8.3-1.4v-.3h-.1ZM41.75,10.8h1.3l-1.1,1.2h-.9l.7-1.2Z"/>
      </g>
      <g class="cls-7">
        <path class="cls-4" d="M50.05,18.3h-1.2l-2.4-3.9v3.9h-1.2v-5.9h1.2l2.4,3.9v-3.9h1.2v5.9Z"/>
      </g>
      <g class="cls-7">
        <path class="cls-4" d="M53.85,18.3v-5.9h1.8c.5,0,1,.1,1.4.3.4.2.7.6,1,1,.2.4.3.9.3,1.5v.3c0,.5-.1,1-.3,1.5-.2.4-.5.8-.9,1s-.9.4-1.4.4h-1.9v-.1ZM55.05,13.4v3.9h.6c.5,0,.8-.2,1.1-.5.2-.3.4-.8.4-1.3v-.3c0-.6-.1-1-.4-1.4s-.6-.5-1.1-.5h-.6v.1Z"/>
      </g>
      <g class="cls-7">
        <path class="cls-4" d="M62.85,15.7h-2.4v1.6h2.7v1h-3.9v-5.9h3.9v1h-2.7v1.4h2.3v.9h.1Z"/>
      </g>
      <g class="cls-7">
        <path class="cls-4" d="M67.55,17.3h2.6v1h-3.8v-5.9h1.2s0,4.9,0,4.9Z"/>
      </g>
      <g class="cls-7">
        <path class="cls-4" d="M75.85,15.5c0,.6-.1,1.1-.3,1.5-.2.4-.5.8-.9,1s-.8.4-1.3.4-.9-.1-1.3-.3-.7-.6-.9-1c-.2-.4-.3-.9-.3-1.5v-.3c0-.6.1-1.1.3-1.5.2-.4.5-.8.9-1s.8-.4,1.3-.4.9.1,1.3.4c.4.2.7.6.9,1,.2.4.3.9.3,1.5v.2ZM74.55,15.2c0-.6-.1-1.1-.3-1.4-.2-.3-.5-.5-.9-.5s-.7.2-.9.5-.3.8-.3,1.4v.3c0,.6.1,1.1.3,1.4.2.3.5.5,1,.5.4,0,.7-.2.9-.5s.3-.8.3-1.4v-.3h-.1Z"/>
      </g>
      <g class="cls-7">
        <path class="cls-4" d="M80.15,16.7c0-.2-.1-.4-.2-.5s-.5-.3-.9-.4-.8-.3-1-.4c-.7-.4-1-.8-1-1.5,0-.3.1-.6.3-.8s.4-.4.8-.6.7-.2,1.1-.2.8.1,1.1.2c.3.2.6.4.8.6.2.3.3.6.3.9h-1.2c0-.3-.1-.5-.3-.6-.2-.1-.4-.2-.7-.2s-.5.1-.7.2-.2.3-.2.5.1.4.3.5c.2.1.5.2.8.4.7.2,1.2.5,1.5.8s.5.7.5,1.1c0,.5-.2.9-.6,1.2s-.9.4-1.6.4c-.5,0-.9-.1-1.2-.2s-.7-.4-.8-.7c-.2-.3-.3-.6-.3-1h1.2c0,.6.4,1,1.2,1,.3,0,.5-.1.7-.2,0-.1.1-.3.1-.5Z"/>
      </g>
      <g class="cls-7">
        <path class="cls-4" d="M88.45,15.7h-2.3v1.6h2.7v1h-3.9v-5.9h3.9v1h-2.7v1.4h2.3v.9Z"/>
      </g>
      <g class="cls-7">
        <path class="cls-4" d="M91.15,12.4l1.5,4.3,1.5-4.3h1.6v5.9h-1.2v-1.6l.1-2.8-1.6,4.4h-.8l-1.6-4.4.1,2.8v1.6h-1.2v-5.9s1.6,0,1.6,0Z"/>
      </g>
      <g class="cls-7">
        <path class="cls-4" d="M98.45,16.2v2.1h-1.2v-5.9h2.3c.4,0,.8.1,1.2.2.3.2.6.4.8.7.2.3.3.6.3,1,0,.6-.2,1-.6,1.4-.4.3-.9.5-1.6.5h-1.2ZM98.45,15.2h1.1c.3,0,.6-.1.7-.2.2-.1.3-.4.3-.6,0-.3-.1-.5-.3-.7s-.4-.3-.7-.3h-1.1v1.8Z"/>
      </g>
      <g class="cls-7">
        <path class="cls-4" d="M103.85,17.3h2.6v1h-3.8v-5.9h1.2v4.9Z"/>
      </g>
      <g class="cls-7">
        <path class="cls-4" d="M110.85,15.7h-2.3v1.6h2.7v1h-3.9v-5.9h3.9v1h-2.7v1.4h2.3v.9Z"/>
      </g>
      <g class="cls-7">
        <path class="cls-4" d="M115.25,17.1h-2.1l-.4,1.2h-1.3l2.2-5.9h1.1l2.2,5.9h-1.3l-.4-1.2ZM113.45,16.1h1.5l-.7-2.2-.8,2.2Z"/>
      </g>
      <g class="cls-7">
        <path class="cls-4" d="M117.35,18.3v-5.9h1.8c.5,0,1,.1,1.4.3.4.2.7.6,1,1,.2.4.3.9.3,1.5v.3c0,.5-.1,1-.3,1.5-.2.4-.5.8-.9,1s-.9.4-1.4.4h-1.9v-.1ZM118.55,13.4v3.9h.6c.5,0,.8-.2,1.1-.5.2-.3.4-.8.4-1.3v-.3c0-.6-.1-1-.4-1.4s-.6-.5-1.1-.5h-.6v.1Z"/>
      </g>
      <g class="cls-7">
        <path class="cls-4" d="M127.55,15.5c0,.6-.1,1.1-.3,1.5s-.5.8-.9,1-.8.4-1.3.4-.9-.1-1.3-.3c-.4-.2-.7-.6-.9-1s-.3-.9-.3-1.5v-.3c0-.6.1-1.1.3-1.5s.5-.8.9-1,.8-.4,1.3-.4.9.1,1.3.4c.4.2.7.6.9,1s.3.9.3,1.5v.2ZM126.35,15.2c0-.6-.1-1.1-.3-1.4s-.5-.5-.9-.5-.7.2-.9.5-.3.8-.3,1.4v.3c0,.6.1,1.1.3,1.4s.5.5,1,.5c.4,0,.7-.2.9-.5s.3-.8.3-1.4v-.3h-.1Z"/>
      </g>
      <g class="cls-7">
        <path class="cls-4" d="M131.95,16.7c0-.2-.1-.4-.2-.5s-.5-.3-.9-.4-.8-.3-1-.4c-.7-.4-1-.8-1-1.5,0-.3.1-.6.3-.8s.4-.4.8-.6c.3-.1.7-.2,1.1-.2s.8.1,1.1.2c.3.2.6.4.8.6.2.3.3.6.3.9h-1.2c0-.3-.1-.5-.3-.6s-.4-.2-.7-.2-.5.1-.7.2-.2.3-.2.5.1.4.3.5.5.2.8.4c.7.2,1.2.5,1.5.8s.5.7.5,1.1c0,.5-.2.9-.6,1.2s-.9.4-1.6.4c-.5,0-.9-.1-1.2-.2-.4-.2-.7-.4-.8-.7-.2-.3-.3-.6-.3-1h1.2c0,.6.4,1,1.2,1,.3,0,.5-.1.7-.2,0-.1.1-.3.1-.5Z"/>
      </g>
    </g>
    <g>
      <rect class="cls-5" x="56.45" y="31" width=".8" height="85.5"/>
      <rect class="cls-5" x="96.25" y="31" width=".8" height="85.5"/>
      <rect class="cls-5" x="135.95" y="31" width=".8" height="85.5"/>
      <rect class="cls-5" x="175.75" y="31" width=".8" height="85.5"/>
      <rect class="cls-5" x="215.55" y="31" width=".8" height="85.5"/>
      <rect class="cls-5" x="36.95" y="116.6" width="198.8" height=".8"/>
      <rect class="cls-5" x="36.95" y="88.1" width="198.8" height=".8"/>
      <rect class="cls-5" x="36.95" y="59.5" width="198.8" height=".8"/>
      <rect class="cls-5" x="36.95" y="30.3" width="198.8" height=".8"/>
      <rect class="cls-1" x="36.95" y="116.6" width="198.8" height=".8"/>
    </g>
    <path class="cls-2" d="M215.95,88.8q-.1,0,0,0c-.3,0-24.3-2.4-40.1-11.5-6.9-4-12.3-10.8-17.4-17.3-6.8-8.6-13.2-16.8-22-16.8-7.8,0-13.5,2.7-19.6,5.6-5.9,2.8-12.1,5.8-20.2,5.8-15.8,0-39.7-5.7-39.9-5.7-.4-.1-.7-.5-.6-.9s.5-.7.9-.6c.2.1,24,5.7,39.6,5.7,7.8,0,13.5-2.7,19.6-5.6,5.9-2.8,12.1-5.8,20.2-5.8,9.5,0,16.1,8.4,23.1,17.3,5.1,6.5,10.4,13.2,17,17,15.6,8.9,39.2,11.3,39.5,11.3.4,0,.7.4.7.8-.1.4-.5.7-.8.7Z"/>
    <g>
      <g class="cls-7">
        <path class="cls-6" d="M51.85,130.8h-3.7v-.5l2-2.2c.3-.3.5-.6.6-.8s.2-.4.2-.6c0-.3-.1-.5-.3-.7s-.4-.3-.7-.3c-.4,0-.6.1-.8.3s-.3.5-.3.9h-.7c0-.5.2-.9.5-1.3s.8-.5,1.4-.5c.5,0,.9.1,1.3.4s.5.6.5,1.1c0,.6-.4,1.2-1.1,2l-1.5,1.7h2.9v.5h-.3Z"/>
        <path class="cls-6" d="M56.15,128.4c0,.8-.1,1.5-.4,1.9s-.7.6-1.4.6c-.6,0-1.1-.2-1.3-.6s-.4-1-.5-1.8v-1c0-.8.1-1.5.4-1.9s.7-.6,1.4-.6c.6,0,1.1.2,1.4.6s.4,1,.4,1.8v1ZM55.45,127.4c0-.6-.1-1.1-.3-1.3s-.4-.4-.8-.4-.6.1-.8.4-.3.7-.3,1.3v1.2c0,.6.1,1.1.3,1.4s.4.4.8.4.6-.1.8-.4.3-.7.3-1.3v-1.3Z"/>
        <path class="cls-6" d="M59.45,130.8h-.7v-4.8l-1.5.5v-.7l2.1-.8h.1v5.8Z"/>
        <path class="cls-6" d="M64.35,128.3c-.2.2-.3.3-.5.4s-.4.2-.7.2-.6-.1-.9-.2-.4-.4-.6-.7-.2-.6-.2-1,.1-.7.2-1,.3-.5.6-.7.6-.2.9-.2c.6,0,1,.2,1.3.6s.5,1,.5,1.7v.2c0,1.1-.2,1.9-.7,2.4s-1.1.8-2,.8h-.1v-.6h.3c.6,0,1.1-.2,1.4-.5s.5-.7.5-1.4ZM63.25,128.3c.2,0,.5-.1.7-.2s.4-.3.4-.6v-.3c0-.5-.1-.9-.3-1.2s-.5-.4-.8-.4-.6.1-.8.4-.3.6-.3,1,.1.7.3,1,.5.3.8.3Z"/>
      </g>
      <g class="cls-7">
        <path class="cls-6" d="M91.65,130.8h-3.7v-.5l2-2.2c.3-.3.5-.6.6-.8s.2-.4.2-.6c0-.3-.1-.5-.3-.7s-.4-.3-.7-.3c-.4,0-.6.1-.8.3s-.3.5-.3.9h-.7c0-.5.2-.9.5-1.3s.8-.5,1.4-.5c.5,0,.9.1,1.3.4s.5.6.5,1.1c0,.6-.4,1.2-1.1,2l-1.5,1.7h2.9v.5h-.3Z"/>
        <path class="cls-6" d="M95.95,128.4c0,.8-.1,1.5-.4,1.9s-.7.6-1.4.6c-.6,0-1.1-.2-1.3-.6s-.4-1-.5-1.8v-1c0-.8.1-1.5.4-1.9s.7-.6,1.4-.6c.6,0,1.1.2,1.4.6s.4,1,.4,1.8v1ZM95.25,127.4c0-.6-.1-1.1-.3-1.3s-.4-.4-.8-.4-.6.1-.8.4-.3.7-.3,1.3v1.2c0,.6.1,1.1.3,1.4s.4.4.8.4.6-.1.8-.4.3-.7.3-1.3v-1.3Z"/>
        <path class="cls-6" d="M100.65,130.8h-3.7v-.5l2-2.2c.3-.3.5-.6.6-.8s.2-.4.2-.6c0-.3-.1-.5-.3-.7s-.4-.3-.7-.3c-.4,0-.6.1-.8.3s-.3.5-.3.9h-.7c0-.5.2-.9.5-1.3s.8-.5,1.4-.5c.5,0,.9.1,1.3.4s.5.6.5,1.1c0,.6-.4,1.2-1.1,2l-1.5,1.7h2.9v.5h-.3Z"/>
        <path class="cls-6" d="M104.95,128.4c0,.8-.1,1.5-.4,1.9s-.7.6-1.4.6c-.6,0-1.1-.2-1.3-.6s-.4-1-.5-1.8v-1c0-.8.1-1.5.4-1.9s.7-.6,1.4-.6c.6,0,1.1.2,1.4.6s.4,1,.4,1.8v1h0ZM104.25,127.4c0-.6-.1-1.1-.3-1.3s-.4-.4-.8-.4-.6.1-.8.4-.3.7-.3,1.3v1.2c0,.6.1,1.1.3,1.4s.4.4.8.4.6-.1.8-.4.3-.7.3-1.3v-1.3Z"/>
      </g>
      <g class="cls-7">
        <path class="cls-6" d="M131.35,130.8h-3.7v-.5l2-2.2c.3-.3.5-.6.6-.8s.2-.4.2-.6c0-.3-.1-.5-.3-.7s-.4-.3-.7-.3c-.4,0-.6.1-.8.3s-.3.5-.3.9h-.7c0-.5.2-.9.5-1.3.3-.3.8-.5,1.4-.5.5,0,.9.1,1.3.4.3.3.5.6.5,1.1,0,.6-.4,1.2-1.1,2l-1.5,1.7h2.9v.5h-.3Z"/>
        <path class="cls-6" d="M135.75,128.4c0,.8-.1,1.5-.4,1.9s-.7.6-1.4.6c-.6,0-1.1-.2-1.3-.6-.3-.4-.4-1-.5-1.8v-1c0-.8.1-1.5.4-1.9s.7-.6,1.4-.6c.6,0,1.1.2,1.4.6s.4,1,.4,1.8v1h0ZM135.05,127.4c0-.6-.1-1.1-.3-1.3s-.4-.4-.8-.4-.6.1-.8.4c-.2.3-.3.7-.3,1.3v1.2c0,.6.1,1.1.3,1.4.2.3.4.4.8.4s.6-.1.8-.4c.2-.3.3-.7.3-1.3v-1.3Z"/>
        <path class="cls-6" d="M140.35,130.8h-3.7v-.5l2-2.2c.3-.3.5-.6.6-.8s.2-.4.2-.6c0-.3-.1-.5-.3-.7s-.4-.3-.7-.3c-.4,0-.6.1-.8.3s-.3.5-.3.9h-.7c0-.5.2-.9.5-1.3.3-.3.8-.5,1.4-.5.5,0,.9.1,1.3.4.3.3.5.6.5,1.1,0,.6-.4,1.2-1.1,2l-1.5,1.7h2.9v.5h-.3Z"/>
        <path class="cls-6" d="M143.55,130.8h-.7v-4.8l-1.5.5v-.7l2.1-.8h.1v5.8h0Z"/>
      </g>
      <g class="cls-7">
        <path class="cls-6" d="M171.15,130.8h-3.7v-.5l2-2.2c.3-.3.5-.6.6-.8s.2-.4.2-.6c0-.3-.1-.5-.3-.7s-.4-.3-.7-.3c-.4,0-.6.1-.8.3s-.3.5-.3.9h-.7c0-.5.2-.9.5-1.3.3-.3.8-.5,1.4-.5.5,0,.9.1,1.3.4.3.3.5.6.5,1.1,0,.6-.4,1.2-1.1,2l-1.5,1.7h2.9v.5h-.3Z"/>
        <path class="cls-6" d="M175.45,128.4c0,.8-.1,1.5-.4,1.9s-.7.6-1.4.6c-.6,0-1.1-.2-1.3-.6-.3-.4-.4-1-.5-1.8v-1c0-.8.1-1.5.4-1.9s.7-.6,1.4-.6c.6,0,1.1.2,1.4.6s.4,1,.4,1.8v1h0ZM174.75,127.4c0-.6-.1-1.1-.3-1.3s-.4-.4-.8-.4-.6.1-.8.4c-.2.3-.3.7-.3,1.3v1.2c0,.6.1,1.1.3,1.4.2.3.4.4.8.4s.6-.1.8-.4c.2-.3.3-.7.3-1.3v-1.3Z"/>
        <path class="cls-6" d="M180.15,130.8h-3.7v-.5l2-2.2c.3-.3.5-.6.6-.8s.2-.4.2-.6c0-.3-.1-.5-.3-.7s-.4-.3-.7-.3c-.4,0-.6.1-.8.3s-.3.5-.3.9h-.7c0-.5.2-.9.5-1.3.3-.3.8-.5,1.4-.5.5,0,.9.1,1.3.4.3.3.5.6.5,1.1,0,.6-.4,1.2-1.1,2l-1.5,1.7h2.9v.5h-.3Z"/>
        <path class="cls-6" d="M184.65,130.8h-3.7v-.5l2-2.2c.3-.3.5-.6.6-.8s.2-.4.2-.6c0-.3-.1-.5-.3-.7s-.4-.3-.7-.3c-.4,0-.6.1-.8.3s-.3.5-.3.9h-.7c0-.5.2-.9.5-1.3.3-.3.8-.5,1.4-.5.5,0,.9.1,1.3.4.3.3.5.6.5,1.1,0,.6-.4,1.2-1.1,2l-1.5,1.7h2.9v.5h-.3Z"/>
      </g>
      <g class="cls-7">
        <path class="cls-6" d="M210.95,130.8h-3.7v-.5l2-2.2c.3-.3.5-.6.6-.8s.2-.4.2-.6c0-.3-.1-.5-.3-.7s-.4-.3-.7-.3c-.4,0-.6.1-.8.3s-.3.5-.3.9h-.7c0-.5.2-.9.5-1.3.3-.3.8-.5,1.4-.5.5,0,.9.1,1.3.4.3.3.5.6.5,1.1,0,.6-.4,1.2-1.1,2l-1.5,1.7h2.9v.5h-.3Z"/>
        <path class="cls-6" d="M215.25,128.4c0,.8-.1,1.5-.4,1.9s-.7.6-1.4.6c-.6,0-1.1-.2-1.3-.6-.3-.4-.4-1-.5-1.8v-1c0-.8.1-1.5.4-1.9s.7-.6,1.4-.6c.6,0,1.1.2,1.4.6s.4,1,.4,1.8v1h0ZM214.55,127.4c0-.6-.1-1.1-.3-1.3s-.4-.4-.8-.4-.6.1-.8.4c-.2.3-.3.7-.3,1.3v1.2c0,.6.1,1.1.3,1.4.2.3.4.4.8.4s.6-.1.8-.4c.2-.3.3-.7.3-1.3v-1.3Z"/>
        <path class="cls-6" d="M219.95,130.8h-3.7v-.5l2-2.2c.3-.3.5-.6.6-.8s.2-.4.2-.6c0-.3-.1-.5-.3-.7s-.4-.3-.7-.3c-.4,0-.6.1-.8.3s-.3.5-.3.9h-.7c0-.5.2-.9.5-1.3.3-.3.8-.5,1.4-.5.5,0,.9.1,1.3.4.3.3.5.6.5,1.1,0,.6-.4,1.2-1.1,2l-1.5,1.7h2.9v.5h-.3Z"/>
        <path class="cls-6" d="M221.75,127.6h.5c.3,0,.6-.1.8-.3s.3-.4.3-.7c0-.7-.3-1-1-1-.3,0-.6.1-.7.3-.2.2-.3.4-.3.7h-.7c0-.5.2-.8.5-1.1s.7-.4,1.3-.4c.5,0,1,.1,1.3.4s.5.7.5,1.2c0,.2-.1.5-.2.7s-.4.4-.7.5c.3.1.6.3.7.5.2.2.3.5.3.8,0,.5-.2.9-.5,1.2s-.8.4-1.3.4-1-.1-1.3-.4c-.3-.3-.5-.7-.5-1.1h.7c0,.3.1.5.3.7s.5.3.8.3.6-.1.8-.3.3-.4.3-.8c0-.3-.1-.6-.3-.8s-.5-.3-.9-.3h-.5v-.5h-.2Z"/>
      </g>
      <g class="cls-7">
        <path class="cls-6" d="M13.45,117.1h.5c.3,0,.6-.1.8-.3s.3-.4.3-.7c0-.7-.3-1-1-1-.3,0-.6.1-.7.3s-.3.4-.3.7h-.7c0-.5.2-.8.5-1.1s.7-.4,1.3-.4c.5,0,1,.1,1.3.4s.5.7.5,1.2c0,.2-.1.5-.2.7s-.4.4-.7.5c.3.1.6.3.7.5s.3.5.3.8c0,.5-.2.9-.5,1.2s-.8.4-1.3.4-1-.1-1.3-.4-.5-.7-.5-1.1h.7c0,.3.1.5.3.7s.5.3.8.3.6-.1.8-.3.3-.4.3-.8c0-.3-.1-.6-.3-.8s-.5-.3-.9-.3h-.7v-.5Z"/>
        <path class="cls-6" d="M19.95,118.4h.8v.6h-.8v1.3h-.7v-1.3h-2.6v-.4l2.5-3.9h.8v3.7ZM17.45,118.4h1.8v-2.8l-.1.2-1.7,2.6Z"/>
        <path class="cls-6" d="M21.75,117.5l.3-2.8h2.9v.7h-2.3l-.2,1.6c.3-.2.6-.2.9-.2.5,0,.9.2,1.2.5s.5.8.5,1.4-.2,1-.5,1.4-.8.5-1.3.5-.9-.1-1.2-.4-.5-.7-.5-1.2h.7c0,.3.2.6.3.7s.4.2.7.2.6-.1.8-.3.3-.5.3-.9-.1-.7-.3-.9-.5-.3-.8-.3-.6.1-.7.2l-.2.2-.6-.4Z"/>
      </g>
      <g class="cls-7">
        <path class="cls-6" d="M13.45,88.6h.5c.3,0,.6-.1.8-.3.2-.2.3-.4.3-.7,0-.7-.3-1-1-1-.3,0-.6.1-.7.3-.2.2-.3.4-.3.7h-.7c0-.4.2-.8.5-1.1.3-.3.7-.4,1.3-.4.5,0,1,.1,1.3.4s.5.7.5,1.2c0,.2-.1.5-.2.7-.2.2-.4.4-.7.5.3.1.6.3.7.5.2.2.3.5.3.8,0,.5-.2.9-.5,1.2-.3.3-.8.4-1.3.4s-1-.1-1.3-.4-.5-.7-.5-1.1h.7c0,.3.1.5.3.7s.5.3.8.3.6-.1.8-.3c.2-.2.3-.4.3-.8,0-.3-.1-.6-.3-.8-.2-.2-.5-.3-.9-.3h-.7v-.5Z"/>
        <path class="cls-6" d="M17.25,89l.3-2.8h2.9v.7h-2.3l-.2,1.6c.3-.2.6-.2.9-.2.5,0,.9.2,1.2.5s.5.8.5,1.4-.2,1-.5,1.4c-.3.3-.8.5-1.3.5s-.9-.1-1.2-.4-.5-.7-.5-1.2h.7c0,.3.2.6.3.7.2.2.4.2.7.2s.6-.1.8-.3c.2-.2.3-.5.3-.9s-.1-.7-.3-.9-.5-.3-.8-.3-.6.1-.7.2l-.2.2-.6-.4Z"/>
        <path class="cls-6" d="M24.95,89.4c0,.8-.1,1.5-.4,1.9-.3.4-.7.6-1.4.6-.6,0-1.1-.2-1.3-.6s-.4-1-.5-1.8v-1c0-.8.1-1.5.4-1.9s.7-.6,1.4-.6c.6,0,1.1.2,1.4.6.3.4.4,1,.4,1.8,0,0,0,1,0,1ZM24.25,88.4c0-.6-.1-1.1-.3-1.3-.2-.3-.4-.4-.8-.4s-.6.1-.8.4-.3.7-.3,1.3v1.2c0,.6.1,1.1.3,1.4s.4.4.8.4.6-.1.8-.4.3-.7.3-1.3v-1.3Z"/>
      </g>
      <g class="cls-7">
        <path class="cls-6" d="M13.45,60.1h.5c.3,0,.6-.1.8-.3s.3-.4.3-.7c0-.7-.3-1-1-1-.3,0-.6.1-.7.3s-.3.4-.3.7h-.7c0-.5.2-.8.5-1.1s.7-.4,1.3-.4c.5,0,1,.1,1.3.4s.5.7.5,1.2c0,.2-.1.5-.2.7s-.4.4-.7.5c.3.1.6.3.7.5s.3.5.3.8c0,.5-.2.9-.5,1.2s-.8.4-1.3.4-1-.1-1.3-.4-.5-.7-.5-1.1h.7c0,.3.1.5.3.7s.5.3.8.3.6-.1.8-.3.3-.4.3-.8c0-.3-.1-.6-.3-.8s-.5-.3-.9-.3h-.7v-.5Z"/>
        <path class="cls-6" d="M17.25,60.4l.3-2.8h2.9v.7h-2.3l-.2,1.6c.3-.2.6-.2.9-.2.5,0,.9.2,1.2.5s.5.8.5,1.4-.2,1-.5,1.4-.8.5-1.3.5-.9-.1-1.2-.4-.5-.7-.5-1.2h.7c0,.3.2.6.3.7s.4.2.7.2.6-.1.8-.3.3-.5.3-.9-.1-.7-.3-.9-.5-.3-.8-.3-.6.1-.7.2h-.2s-.6-.2-.6-.2Z"/>
        <path class="cls-6" d="M21.75,60.4l.3-2.8h2.9v.7h-2.3l-.2,1.5c.3-.2.6-.2.9-.2.5,0,.9.2,1.2.5s.5.8.5,1.4-.2,1-.5,1.4-.8.5-1.3.5-.9-.1-1.2-.4-.5-.7-.5-1.2h.7c0,.3.2.6.3.7s.4.2.7.2.6-.1.8-.3.3-.5.3-.9-.1-.7-.3-.9-.5-.3-.8-.3-.6.1-.7.2l-.3.1-.5-.2Z"/>
      </g>
      <g class="cls-7">
        <path class="cls-6" d="M13.45,31.6h.5c.3,0,.6-.1.8-.3s.3-.4.3-.7c0-.7-.3-1-1-1-.3,0-.6.1-.7.3s-.3.4-.3.7h-.7c0-.5.2-.8.5-1.1s.7-.4,1.3-.4c.5,0,1,.1,1.3.4s.5.7.5,1.2c0,.2-.1.5-.2.7s-.4.4-.7.5c.3.1.6.3.7.5s.3.5.3.8c0,.5-.2.9-.5,1.2s-.8.4-1.3.4-1-.1-1.3-.4-.5-.7-.5-1.1h.7c0,.3.1.5.3.7s.5.3.8.3.6-.1.8-.3.3-.4.3-.8c0-.3-.1-.6-.3-.8s-.5-.3-.9-.3h-.7v-.5Z"/>
        <path class="cls-6" d="M19.75,29.1v.6h-.1c-.6,0-1,.2-1.3.5s-.5.8-.6,1.4c.3-.3.7-.5,1.2-.5s.9.2,1.2.5.4.8.4,1.4-.2,1.1-.5,1.4-.7.5-1.3.5c-.5,0-1-.2-1.3-.6s-.5-1-.5-1.6v-.3c0-1,.2-1.8.7-2.4s1.1-.8,2-.8h.1v-.1ZM18.75,31.7c-.2,0-.5.1-.7.2s-.4.3-.4.6v.3c0,.5.1.8.3,1.1s.5.4.8.4.6-.1.8-.4.3-.6.3-.9c0-.4-.1-.7-.3-.9s-.5-.4-.8-.4Z"/>
        <path class="cls-6" d="M24.95,32.4c0,.8-.1,1.5-.4,1.9s-.7.6-1.4.6c-.6,0-1.1-.2-1.3-.6s-.4-1-.5-1.8v-1c0-.8.1-1.5.4-1.9s.7-.6,1.4-.6c.6,0,1.1.2,1.4.6s.4,1,.4,1.8c0,0,0,1,0,1ZM24.25,31.4c0-.6-.1-1.1-.3-1.3s-.4-.5-.8-.5-.6.1-.8.4-.3.7-.3,1.3v1.2c0,.6.1,1.1.3,1.4s.4.4.8.4.6-.1.8-.4.3-.7.3-1.3v-1.2Z"/>
      </g>
    </g>
    <rect class="cls-3" width="240.9" height="141.7"/>
  </g>
</svg>