<?xml version="1.0" encoding="UTF-8"?>
<svg id="Capa_2" data-name="Capa 2" xmlns="http://www.w3.org/2000/svg" viewBox="0 0 240.94 198.43">
  <defs>
    <style>
      .cls-1 {
        fill: #ccd6eb;
      }

      .cls-1, .cls-2, .cls-3, .cls-4, .cls-5, .cls-6 {
        stroke-width: 0px;
      }

      .cls-2 {
        fill: #3a61d9;
      }

      .cls-7 {
        isolation: isolate;
      }

      .cls-3 {
        fill: none;
      }

      .cls-4 {
        fill: #2550d6;
      }

      .cls-5 {
        fill: #e6e6e6;
      }

      .cls-6 {
        fill: #494e54;
      }
    </style>
  </defs>
  <g id="Capa_1-2" data-name="Capa 1">
    <g>
      <g>
        <g class="cls-7">
          <g class="cls-7">
            <path class="cls-4" d="M8.7,9.93h-2.32v1.57h2.72v.97h-3.93v-5.87h3.92v.98h-2.71v1.4h2.32v.95Z"/>
          </g>
        </g>
        <g class="cls-7">
          <g class="cls-7">
            <path class="cls-4" d="M11.99,11.02l1.33-4.41h1.35l-2.04,5.87h-1.26l-2.03-5.87h1.34l1.32,4.41Z"/>
          </g>
        </g>
        <g class="cls-7">
          <g class="cls-7">
            <path class="cls-4" d="M20.05,9.68c0,.58-.1,1.08-.31,1.52-.2.44-.5.77-.88,1.01s-.82.35-1.31.35-.92-.12-1.3-.35c-.38-.23-.68-.57-.89-1-.21-.43-.32-.93-.32-1.5v-.29c0-.58.1-1.09.31-1.52.21-.44.5-.78.88-1.01.38-.23.81-.35,1.3-.35s.92.12,1.3.35c.38.24.67.57.88,1.01.21.44.31.95.31,1.52v.26ZM18.82,9.41c0-.62-.11-1.08-.33-1.4-.22-.32-.53-.48-.94-.48s-.72.16-.94.47-.33.78-.33,1.39v.29c0,.6.11,1.06.33,1.39.22.33.54.5.95.5s.72-.16.93-.48.33-.78.33-1.39v-.29Z"/>
          </g>
        </g>
        <g class="cls-7">
          <g class="cls-7">
            <path class="cls-4" d="M22.59,11.51h2.57v.97h-3.77v-5.87h1.21v4.89Z"/>
          </g>
        </g>
        <g class="cls-7">
          <g class="cls-7">
            <path class="cls-4" d="M30.47,6.61v3.86c0,.64-.2,1.15-.6,1.52-.4.37-.95.56-1.65.56s-1.23-.18-1.63-.54c-.4-.36-.61-.86-.62-1.5v-3.91h1.21v3.87c0,.38.09.66.28.84s.44.26.76.26c.68,0,1.02-.36,1.04-1.07v-3.9h1.21Z"/>
          </g>
        </g>
        <g class="cls-7">
          <g class="cls-7">
            <path class="cls-4" d="M36.03,10.52c-.05.63-.28,1.13-.7,1.49-.42.36-.97.54-1.66.54-.75,0-1.34-.25-1.77-.76-.43-.51-.65-1.2-.65-2.08v-.36c0-.56.1-1.06.3-1.49s.48-.76.85-.99.8-.34,1.29-.34c.68,0,1.22.18,1.64.54.41.36.65.87.72,1.53h-1.21c-.03-.38-.14-.65-.32-.82-.18-.17-.46-.26-.83-.26-.4,0-.7.14-.9.43-.2.29-.3.74-.31,1.34v.44c0,.63.1,1.1.29,1.39.19.29.5.44.91.44.37,0,.65-.08.84-.26.18-.17.29-.43.32-.79h1.21Z"/>
          </g>
        </g>
        <g class="cls-7">
          <g class="cls-7">
            <path class="cls-4" d="M38.12,12.48h-1.21v-5.87h1.21v5.87Z"/>
          </g>
        </g>
        <g class="cls-7">
          <g class="cls-7">
            <path class="cls-4" d="M44.06,9.68c0,.58-.1,1.08-.31,1.52-.2.44-.5.77-.88,1.01s-.82.35-1.31.35-.92-.12-1.3-.35c-.38-.23-.68-.57-.89-1-.21-.43-.32-.93-.32-1.5v-.29c0-.58.1-1.09.31-1.52.21-.44.5-.78.88-1.01.38-.23.81-.35,1.3-.35s.92.12,1.3.35c.38.24.67.57.88,1.01.21.44.31.95.31,1.52v.26ZM42.83,9.41c0-.62-.11-1.08-.33-1.4-.22-.32-.53-.48-.94-.48s-.72.16-.94.47-.33.78-.33,1.39v.29c0,.6.11,1.06.33,1.39.22.33.54.5.95.5s.72-.16.93-.48.33-.78.33-1.39v-.29ZM41.79,5.04h1.27l-1.12,1.25h-.95l.79-1.25Z"/>
          </g>
        </g>
        <g class="cls-7">
          <g class="cls-7">
            <path class="cls-4" d="M50.16,12.48h-1.21l-2.35-3.86v3.86h-1.21v-5.87h1.21l2.36,3.87v-3.87h1.2v5.87Z"/>
          </g>
        </g>
        <g class="cls-7">
          <g class="cls-7">
            <path class="cls-4" d="M53.94,12.48v-5.87h1.8c.52,0,.98.12,1.38.35.41.23.72.56.95.99.23.43.34.92.34,1.46v.27c0,.55-.11,1.03-.34,1.45-.22.42-.54.75-.95.99s-.87.35-1.38.35h-1.82ZM55.15,7.59v3.92h.58c.47,0,.83-.15,1.08-.46.25-.31.38-.75.38-1.33v-.31c0-.6-.12-1.05-.37-1.36s-.61-.46-1.08-.46h-.6Z"/>
          </g>
        </g>
        <g class="cls-7">
          <g class="cls-7">
            <path class="cls-4" d="M62.88,9.93h-2.32v1.57h2.72v.97h-3.93v-5.87h3.92v.98h-2.71v1.4h2.32v.95Z"/>
          </g>
        </g>
        <g class="cls-7">
          <g class="cls-7">
            <path class="cls-4" d="M65.21,11.51h2.57v.97h-3.77v-5.87h1.21v4.89Z"/>
          </g>
        </g>
        <g class="cls-7">
          <g class="cls-7">
            <path class="cls-4" d="M73.22,10.33h-.96v2.15h-1.21v-5.87h2.18c.69,0,1.23.15,1.6.46.38.31.56.75.56,1.31,0,.4-.09.73-.26,1s-.44.48-.79.64l1.27,2.4v.06h-1.3l-1.1-2.15ZM72.26,9.35h.97c.3,0,.54-.08.71-.23s.25-.37.25-.64-.08-.49-.24-.65c-.16-.16-.4-.24-.72-.24h-.97v1.76Z"/>
          </g>
        </g>
        <g class="cls-7">
          <g class="cls-7">
            <path class="cls-4" d="M79.76,11.27h-2.12l-.4,1.21h-1.29l2.18-5.87h1.12l2.2,5.87h-1.29l-.41-1.21ZM77.97,10.29h1.47l-.74-2.2-.73,2.2Z"/>
          </g>
        </g>
        <g class="cls-7">
          <g class="cls-7">
            <path class="cls-4" d="M85.52,7.59h-1.8v4.89h-1.21v-4.89h-1.77v-.98h4.78v.98Z"/>
          </g>
        </g>
        <g class="cls-7">
          <g class="cls-7">
            <path class="cls-4" d="M87.79,12.48h-1.21v-5.87h1.21v5.87Z"/>
          </g>
        </g>
        <g class="cls-7">
          <g class="cls-7">
            <path class="cls-4" d="M93.68,12.48h-1.21l-2.35-3.86v3.86h-1.21v-5.87h1.21l2.36,3.87v-3.87h1.2v5.87Z"/>
          </g>
        </g>
        <g class="cls-7">
          <g class="cls-7">
            <path class="cls-4" d="M99.7,11.74c-.22.26-.52.46-.92.61s-.84.21-1.32.21c-.51,0-.95-.11-1.34-.33-.38-.22-.68-.54-.89-.96-.21-.42-.31-.92-.32-1.49v-.4c0-.59.1-1.09.3-1.52.2-.43.48-.76.85-.98s.81-.34,1.31-.34c.7,0,1.24.17,1.63.5s.62.81.7,1.45h-1.18c-.05-.34-.17-.58-.36-.74-.18-.16-.44-.23-.76-.23-.41,0-.72.15-.94.46s-.32.77-.33,1.38v.37c0,.62.12,1.08.35,1.39.23.31.58.47,1.03.47s.78-.1.97-.29v-1.01h-1.1v-.89h2.31v2.34Z"/>
          </g>
        </g>
        <g class="cls-7">
          <g class="cls-7">
            <path class="cls-4" d="M104.9,12.48h-1.21v-5.87h1.21v5.87Z"/>
          </g>
        </g>
        <g class="cls-7">
          <g class="cls-7">
            <path class="cls-4" d="M110.79,12.48h-1.21l-2.35-3.86v3.86h-1.21v-5.87h1.21l2.36,3.87v-3.87h1.2v5.87Z"/>
          </g>
        </g>
        <g class="cls-7">
          <g class="cls-7">
            <path class="cls-4" d="M115.7,10.08h-2.32v2.4h-1.21v-5.87h3.82v.98h-2.61v1.51h2.32v.98Z"/>
          </g>
        </g>
        <g class="cls-7">
          <g class="cls-7">
            <path class="cls-4" d="M121.64,9.68c0,.58-.1,1.08-.31,1.52-.2.44-.5.77-.88,1.01s-.82.35-1.31.35-.92-.12-1.3-.35c-.38-.23-.68-.57-.89-1-.21-.43-.32-.93-.32-1.5v-.29c0-.58.1-1.09.31-1.52.21-.44.5-.78.88-1.01.38-.23.81-.35,1.3-.35s.92.12,1.3.35c.38.24.67.57.88,1.01.21.44.31.95.31,1.52v.26ZM120.41,9.41c0-.62-.11-1.08-.33-1.4-.22-.32-.53-.48-.94-.48s-.72.16-.94.47-.33.78-.33,1.39v.29c0,.6.11,1.06.33,1.39.22.33.54.5.95.5s.72-.16.93-.48.33-.78.33-1.39v-.29Z"/>
          </g>
        </g>
        <g class="cls-7">
          <g class="cls-7">
            <path class="cls-4" d="M125.14,10.33h-.96v2.15h-1.21v-5.87h2.18c.69,0,1.23.15,1.6.46.38.31.56.75.56,1.31,0,.4-.09.73-.26,1s-.44.48-.79.64l1.27,2.4v.06h-1.3l-1.1-2.15ZM124.18,9.35h.97c.3,0,.54-.08.71-.23s.25-.37.25-.64-.08-.49-.24-.65c-.16-.16-.4-.24-.72-.24h-.97v1.76Z"/>
          </g>
        </g>
        <g class="cls-7">
          <g class="cls-7">
            <path class="cls-4" d="M129.96,6.61l1.51,4.25,1.5-4.25h1.59v5.87h-1.21v-1.6l.12-2.77-1.58,4.37h-.83l-1.58-4.37.12,2.76v1.6h-1.21v-5.87h1.58Z"/>
          </g>
        </g>
        <g class="cls-7">
          <g class="cls-7">
            <path class="cls-4" d="M139.34,11.27h-2.12l-.4,1.21h-1.29l2.18-5.87h1.12l2.2,5.87h-1.29l-.41-1.21ZM137.55,10.29h1.47l-.74-2.2-.73,2.2Z"/>
          </g>
        </g>
        <g class="cls-7">
          <g class="cls-7">
            <path class="cls-4" d="M146,10.33h-.96v2.15h-1.21v-5.87h2.18c.69,0,1.23.15,1.6.46.38.31.56.75.56,1.31,0,.4-.09.73-.26,1-.17.27-.44.48-.79.64l1.27,2.4v.06h-1.3l-1.1-2.15ZM145.04,9.35h.97c.3,0,.54-.08.71-.23.17-.15.25-.37.25-.64s-.08-.49-.24-.65-.4-.24-.72-.24h-.97v1.76Z"/>
          </g>
        </g>
        <g class="cls-7">
          <g class="cls-7">
            <path class="cls-4" d="M150.52,12.48h-1.21v-5.87h1.21v5.87Z"/>
          </g>
        </g>
        <g class="cls-7">
          <g class="cls-7">
            <path class="cls-4" d="M155.17,9.93h-2.32v1.57h2.72v.97h-3.93v-5.87h3.92v.98h-2.71v1.4h2.32v.95Z"/>
          </g>
        </g>
        <g class="cls-7">
          <g class="cls-7">
            <path class="cls-4" d="M159.33,10.94c0-.23-.08-.4-.24-.53s-.45-.25-.87-.39-.75-.27-1-.4c-.67-.36-1-.84-1-1.46,0-.32.09-.6.27-.85s.44-.44.77-.58c.33-.14.71-.21,1.13-.21s.79.08,1.12.23c.33.15.58.37.76.64.18.28.27.59.27.94h-1.21c0-.27-.08-.48-.25-.63-.17-.15-.41-.22-.71-.22s-.53.06-.69.19-.25.29-.25.49c0,.19.1.35.29.48.19.13.47.25.85.36.69.21,1.19.46,1.5.77.31.31.47.69.47,1.14,0,.51-.19.91-.58,1.19s-.9.43-1.55.43c-.45,0-.86-.08-1.23-.25-.37-.17-.65-.39-.85-.68-.19-.29-.29-.62-.29-1h1.21c0,.65.39.97,1.16.97.29,0,.51-.06.67-.18.16-.12.24-.28.24-.49Z"/>
          </g>
        </g>
        <g class="cls-7">
          <g class="cls-7">
            <path class="cls-4" d="M166.33,11.74c-.22.26-.52.46-.92.61s-.84.21-1.32.21c-.51,0-.95-.11-1.34-.33-.38-.22-.68-.54-.89-.96-.21-.42-.32-.92-.32-1.49v-.4c0-.59.1-1.09.3-1.52.2-.43.48-.76.85-.98s.81-.34,1.31-.34c.7,0,1.24.17,1.63.5.39.33.62.81.7,1.45h-1.18c-.05-.34-.17-.58-.36-.74-.18-.16-.44-.23-.76-.23-.41,0-.72.15-.94.46s-.32.77-.33,1.38v.37c0,.62.12,1.08.35,1.39s.58.47,1.03.47.78-.1.97-.29v-1.01h-1.1v-.89h2.31v2.34Z"/>
          </g>
        </g>
        <g class="cls-7">
          <g class="cls-7">
            <path class="cls-4" d="M172.66,9.68c0,.58-.1,1.08-.31,1.52-.2.44-.5.77-.88,1.01s-.82.35-1.31.35-.92-.12-1.3-.35c-.38-.23-.68-.57-.89-1-.21-.43-.32-.93-.32-1.5v-.29c0-.58.1-1.09.31-1.52.21-.44.5-.78.88-1.01.38-.23.81-.35,1.3-.35s.92.12,1.3.35c.38.24.67.57.88,1.01.21.44.31.95.31,1.52v.26ZM171.43,9.41c0-.62-.11-1.08-.33-1.4-.22-.32-.53-.48-.94-.48s-.72.16-.94.47c-.22.32-.33.78-.33,1.39v.29c0,.6.11,1.06.33,1.39.22.33.54.5.95.5s.72-.16.93-.48c.22-.32.33-.78.33-1.39v-.29Z"/>
          </g>
        </g>
        <g class="cls-7">
          <g class="cls-7">
            <path class="cls-4" d="M176.4,12.48v-5.87h1.8c.52,0,.98.12,1.38.35.41.23.72.56.95.99.23.43.34.92.34,1.46v.27c0,.55-.11,1.03-.34,1.45-.22.42-.54.75-.95.99s-.87.35-1.38.35h-1.82ZM177.61,7.59v3.92h.58c.47,0,.83-.15,1.08-.46.25-.31.38-.75.38-1.33v-.31c0-.6-.12-1.05-.37-1.36s-.61-.46-1.08-.46h-.6Z"/>
          </g>
        </g>
        <g class="cls-7">
          <g class="cls-7">
            <path class="cls-4" d="M185.33,9.93h-2.32v1.57h2.72v.97h-3.93v-5.87h3.92v.98h-2.71v1.4h2.32v.95Z"/>
          </g>
        </g>
        <g class="cls-7">
          <g class="cls-7">
            <path class="cls-4" d="M193.45,10.52c-.04.63-.28,1.13-.7,1.49-.42.36-.97.54-1.66.54-.75,0-1.34-.25-1.77-.76s-.65-1.2-.65-2.08v-.36c0-.56.1-1.06.3-1.49.2-.43.48-.76.85-.99s.8-.34,1.29-.34c.68,0,1.22.18,1.63.54.41.36.65.87.72,1.53h-1.21c-.03-.38-.13-.65-.32-.82-.18-.17-.46-.26-.83-.26-.4,0-.71.14-.9.43-.2.29-.3.74-.31,1.34v.44c0,.63.1,1.1.29,1.39.19.29.5.44.91.44.37,0,.65-.08.84-.26s.29-.43.32-.79h1.21Z"/>
          </g>
        </g>
        <g class="cls-7">
          <g class="cls-7">
            <path class="cls-4" d="M197.79,9.93h-2.32v1.57h2.72v.97h-3.93v-5.87h3.92v.98h-2.71v1.4h2.32v.95Z"/>
          </g>
        </g>
        <g class="cls-7">
          <g class="cls-7">
            <path class="cls-4" d="M201.95,10.94c0-.23-.08-.4-.24-.53s-.45-.25-.87-.39-.75-.27-1-.4c-.67-.36-1-.84-1-1.46,0-.32.09-.6.27-.85s.44-.44.77-.58c.33-.14.71-.21,1.13-.21s.79.08,1.12.23c.33.15.58.37.76.64.18.28.27.59.27.94h-1.21c0-.27-.08-.48-.25-.63-.17-.15-.41-.22-.71-.22s-.53.06-.69.19-.25.29-.25.49c0,.19.1.35.29.48.19.13.47.25.85.36.69.21,1.19.46,1.5.77.31.31.47.69.47,1.14,0,.51-.19.91-.58,1.19s-.9.43-1.55.43c-.45,0-.86-.08-1.23-.25-.37-.17-.65-.39-.85-.68-.19-.29-.29-.62-.29-1h1.21c0,.65.39.97,1.16.97.29,0,.51-.06.67-.18.16-.12.24-.28.24-.49Z"/>
          </g>
        </g>
        <g class="cls-7">
          <g class="cls-7">
            <path class="cls-4" d="M207.84,9.93h-2.32v1.57h2.72v.97h-3.93v-5.87h3.92v.98h-2.71v1.4h2.32v.95Z"/>
          </g>
        </g>
      </g>
      <g>
        <rect class="cls-5" x="45.19" y="25.24" width=".75" height="153.82"/>
        <rect class="cls-5" x="68.45" y="25.24" width=".75" height="153.82"/>
        <rect class="cls-5" x="90.96" y="25.24" width=".75" height="153.82"/>
        <rect class="cls-5" x="114.22" y="25.24" width=".75" height="153.82"/>
        <rect class="cls-5" x="137.48" y="25.24" width=".75" height="153.82"/>
        <rect class="cls-5" x="159.99" y="25.24" width=".75" height="153.82"/>
        <rect class="cls-5" x="183.25" y="25.24" width=".75" height="153.82"/>
        <rect class="cls-5" x="205.76" y="25.24" width=".75" height="153.82"/>
        <rect class="cls-5" x="229.02" y="25.24" width=".75" height="153.82"/>
        <rect class="cls-5" x="32.44" y="175.3" width="203.34" height=".75"/>
        <rect class="cls-5" x="32.44" y="146.04" width="203.34" height=".75"/>
        <rect class="cls-5" x="32.44" y="116.77" width="203.34" height=".75"/>
        <rect class="cls-5" x="32.44" y="87.51" width="203.34" height=".75"/>
        <rect class="cls-5" x="32.44" y="58.25" width="203.34" height=".75"/>
        <rect class="cls-5" x="32.44" y="28.99" width="203.34" height=".75"/>
        <rect class="cls-1" x="45.19" y="179.06" width=".75" height="7.5"/>
        <rect class="cls-1" x="68.45" y="179.06" width=".75" height="7.5"/>
        <rect class="cls-1" x="90.96" y="179.06" width=".75" height="7.5"/>
        <rect class="cls-1" x="114.22" y="179.06" width=".75" height="7.5"/>
        <rect class="cls-1" x="137.48" y="179.06" width=".75" height="7.5"/>
        <rect class="cls-1" x="159.99" y="179.06" width=".75" height="7.5"/>
        <rect class="cls-1" x="183.25" y="179.06" width=".75" height="7.5"/>
        <rect class="cls-1" x="205.76" y="179.06" width=".75" height="7.5"/>
        <rect class="cls-1" x="229.02" y="179.06" width=".75" height="7.5"/>
        <rect class="cls-1" x="32.44" y="179.05" width="203.34" height=".75"/>
      </g>
      <path class="cls-2" d="M233.78,44.3H34.43c-.41,0-.75-.34-.75-.75s.34-.75.75-.75h199.35c.41,0,.75.34.75.75s-.34.75-.75.75Z"/>
      <g>
        <g class="cls-7">
          <g class="cls-7">
            <path class="cls-6" d="M40.93,193.31h-3.73v-.52l1.97-2.19c.29-.33.49-.6.6-.81s.17-.42.17-.64c0-.3-.09-.54-.27-.73s-.42-.29-.72-.29c-.36,0-.64.1-.84.31s-.3.49-.3.85h-.72c0-.52.17-.95.51-1.27s.79-.48,1.35-.48c.53,0,.95.14,1.25.42s.46.65.46,1.11c0,.56-.36,1.23-1.07,2l-1.52,1.65h2.86v.59Z"/>
            <path class="cls-6" d="M45.27,190.88c0,.85-.14,1.48-.43,1.89s-.74.62-1.36.62-1.06-.2-1.35-.6-.44-1-.45-1.8v-.96c0-.84.14-1.46.43-1.86s.74-.61,1.36-.61,1.06.2,1.35.59.44,1,.45,1.81v.94ZM44.54,189.89c0-.61-.09-1.06-.26-1.34s-.44-.42-.82-.42-.64.14-.81.42-.26.71-.26,1.29v1.16c0,.61.09,1.07.27,1.36s.45.44.81.44.62-.14.79-.41.26-.71.27-1.3v-1.18Z"/>
            <path class="cls-6" d="M49.76,190.88c0,.85-.14,1.48-.43,1.89s-.74.62-1.36.62-1.06-.2-1.35-.6-.44-1-.45-1.8v-.96c0-.84.14-1.46.43-1.86s.74-.61,1.36-.61,1.06.2,1.35.59.44,1,.45,1.81v.94ZM49.04,189.89c0-.61-.09-1.06-.26-1.34s-.44-.42-.82-.42-.64.14-.81.42-.26.71-.26,1.29v1.16c0,.61.09,1.07.27,1.36s.45.44.81.44.62-.14.79-.41.26-.71.27-1.3v-1.18Z"/>
            <path class="cls-6" d="M54.13,189.1c0,.28-.07.54-.22.76s-.35.39-.61.52c.3.13.53.31.71.56s.26.52.26.83c0,.49-.17.88-.5,1.18s-.77.44-1.31.44-.98-.15-1.31-.44-.49-.68-.49-1.17c0-.31.08-.58.25-.83s.4-.43.7-.56c-.25-.12-.45-.3-.6-.52s-.22-.47-.22-.75c0-.48.15-.86.46-1.14s.71-.42,1.21-.42.9.14,1.21.42.46.66.46,1.14ZM53.54,191.76c0-.32-.1-.58-.3-.78s-.47-.3-.79-.3-.59.1-.78.3-.29.46-.29.78.1.58.29.76.46.28.8.28.6-.09.8-.28.29-.44.29-.76ZM52.46,188.13c-.28,0-.51.09-.69.26s-.26.42-.26.72.09.52.26.7.4.27.69.27.52-.09.69-.27.26-.41.26-.7-.09-.52-.27-.71-.41-.27-.68-.27Z"/>
          </g>
        </g>
        <g class="cls-7">
          <g class="cls-7">
            <path class="cls-6" d="M63.93,193.31h-3.73v-.52l1.97-2.19c.29-.33.49-.6.6-.81s.17-.42.17-.64c0-.3-.09-.54-.27-.73s-.42-.29-.72-.29c-.36,0-.64.1-.84.31s-.3.49-.3.85h-.72c0-.52.17-.95.51-1.27s.79-.48,1.35-.48c.53,0,.95.14,1.25.42s.46.65.46,1.11c0,.56-.36,1.23-1.07,2l-1.52,1.65h2.86v.59Z"/>
            <path class="cls-6" d="M68.27,190.88c0,.85-.14,1.48-.43,1.89s-.74.62-1.36.62-1.06-.2-1.35-.6-.44-1-.45-1.8v-.96c0-.84.14-1.46.43-1.86s.74-.61,1.36-.61,1.06.2,1.35.59.44,1,.45,1.81v.94ZM67.54,189.89c0-.61-.09-1.06-.26-1.34s-.44-.42-.82-.42-.64.14-.81.42-.26.71-.26,1.29v1.16c0,.61.09,1.07.27,1.36s.45.44.81.44.62-.14.79-.41.26-.71.27-1.3v-1.18Z"/>
            <path class="cls-6" d="M71.57,193.31h-.73v-4.82l-1.46.54v-.66l2.07-.78h.11v5.71Z"/>
            <path class="cls-6" d="M77.25,190.88c0,.85-.14,1.48-.43,1.89s-.74.62-1.36.62-1.06-.2-1.35-.6-.44-1-.45-1.8v-.96c0-.84.14-1.46.43-1.86s.74-.61,1.36-.61,1.06.2,1.35.59.44,1,.45,1.81v.94ZM76.53,189.89c0-.61-.09-1.06-.26-1.34s-.44-.42-.82-.42-.64.14-.81.42-.26.71-.26,1.29v1.16c0,.61.09,1.07.27,1.36s.45.44.81.44.62-.14.79-.41.26-.71.27-1.3v-1.18Z"/>
          </g>
        </g>
        <g class="cls-7">
          <g class="cls-7">
            <path class="cls-6" d="M86.91,193.31h-3.73v-.52l1.97-2.19c.29-.33.49-.6.6-.81s.17-.42.17-.64c0-.3-.09-.54-.27-.73s-.42-.29-.72-.29c-.36,0-.64.1-.84.31s-.3.49-.3.85h-.72c0-.52.17-.95.51-1.27s.79-.48,1.35-.48c.53,0,.95.14,1.25.42s.46.65.46,1.11c0,.56-.36,1.23-1.07,2l-1.52,1.65h2.86v.59Z"/>
            <path class="cls-6" d="M91.24,190.88c0,.85-.14,1.48-.43,1.89s-.74.62-1.36.62-1.06-.2-1.35-.6-.44-1-.45-1.8v-.96c0-.84.14-1.46.43-1.86s.74-.61,1.36-.61,1.06.2,1.35.59.44,1,.45,1.81v.94ZM90.51,189.89c0-.61-.09-1.06-.26-1.34s-.44-.42-.82-.42-.64.14-.81.42-.26.71-.26,1.29v1.16c0,.61.09,1.07.27,1.36s.45.44.81.44.62-.14.79-.41.26-.71.27-1.3v-1.18Z"/>
            <path class="cls-6" d="M94.54,193.31h-.73v-4.82l-1.46.54v-.66l2.07-.78h.11v5.71Z"/>
            <path class="cls-6" d="M100.38,193.31h-3.73v-.52l1.97-2.19c.29-.33.49-.6.6-.81s.17-.42.17-.64c0-.3-.09-.54-.27-.73s-.42-.29-.72-.29c-.36,0-.64.1-.84.31s-.3.49-.3.85h-.72c0-.52.17-.95.51-1.27s.79-.48,1.35-.48c.53,0,.95.14,1.25.42s.46.65.46,1.11c0,.56-.36,1.23-1.07,2l-1.52,1.65h2.86v.59Z"/>
          </g>
        </g>
        <g class="cls-7">
          <g class="cls-7">
            <path class="cls-6" d="M109.91,193.31h-3.73v-.52l1.97-2.19c.29-.33.49-.6.6-.81s.17-.42.17-.64c0-.3-.09-.54-.27-.73s-.42-.29-.72-.29c-.36,0-.64.1-.84.31s-.3.49-.3.85h-.72c0-.52.17-.95.51-1.27s.79-.48,1.35-.48c.53,0,.95.14,1.25.42s.46.65.46,1.11c0,.56-.36,1.23-1.07,2l-1.52,1.65h2.86v.59Z"/>
            <path class="cls-6" d="M114.24,190.88c0,.85-.14,1.48-.43,1.89s-.74.62-1.36.62-1.06-.2-1.35-.6-.44-1-.45-1.8v-.96c0-.84.14-1.46.43-1.86s.74-.61,1.36-.61,1.06.2,1.35.59.44,1,.45,1.81v.94ZM113.51,189.89c0-.61-.09-1.06-.26-1.34s-.44-.42-.82-.42-.64.14-.81.42-.26.71-.26,1.29v1.16c0,.61.09,1.07.27,1.36s.45.44.81.44.62-.14.79-.41.26-.71.27-1.3v-1.18Z"/>
            <path class="cls-6" d="M117.54,193.31h-.73v-4.82l-1.46.54v-.66l2.07-.78h.11v5.71Z"/>
            <path class="cls-6" d="M122.71,191.4h.79v.59h-.79v1.32h-.73v-1.32h-2.59v-.43l2.55-3.94h.77v3.78ZM120.21,191.4h1.77v-2.79l-.09.16-1.68,2.63Z"/>
          </g>
        </g>
        <g class="cls-7">
          <g class="cls-7">
            <path class="cls-6" d="M132.89,193.31h-3.73v-.52l1.97-2.19c.29-.33.49-.6.6-.81.11-.21.17-.42.17-.64,0-.3-.09-.54-.27-.73s-.42-.29-.72-.29c-.36,0-.64.1-.84.31s-.3.49-.3.85h-.72c0-.52.17-.95.51-1.27.34-.32.79-.48,1.35-.48.53,0,.95.14,1.25.42.31.28.46.65.46,1.11,0,.56-.36,1.23-1.07,2l-1.52,1.65h2.86v.59Z"/>
            <path class="cls-6" d="M137.22,190.88c0,.85-.14,1.48-.43,1.89s-.74.62-1.36.62-1.06-.2-1.35-.6c-.29-.4-.44-1-.45-1.8v-.96c0-.84.14-1.46.43-1.86s.74-.61,1.36-.61,1.06.2,1.35.59.44,1,.45,1.81v.94ZM136.49,189.89c0-.61-.09-1.06-.26-1.34s-.44-.42-.82-.42-.64.14-.81.42c-.17.28-.26.71-.26,1.29v1.16c0,.61.09,1.07.27,1.36.18.29.45.44.81.44s.62-.14.79-.41c.17-.28.26-.71.27-1.3v-1.18Z"/>
            <path class="cls-6" d="M140.52,193.31h-.73v-4.82l-1.46.54v-.66l2.07-.78h.11v5.71Z"/>
            <path class="cls-6" d="M145.47,187.62v.61h-.13c-.56.01-1.01.18-1.34.5-.33.32-.53.78-.58,1.36.3-.34.71-.52,1.23-.52s.89.17,1.19.52c.29.35.44.8.44,1.35,0,.59-.16,1.05-.48,1.41-.32.35-.75.53-1.28.53s-.99-.21-1.32-.63c-.34-.42-.51-.96-.51-1.62v-.28c0-1.05.22-1.85.67-2.4.45-.55,1.11-.84,1.99-.85h.13ZM144.52,190.18c-.25,0-.48.07-.68.22-.21.15-.35.33-.43.56v.27c0,.47.11.85.32,1.13s.47.43.79.43.58-.12.77-.36c.19-.24.28-.55.28-.94s-.09-.71-.28-.95c-.19-.24-.44-.36-.75-.36Z"/>
          </g>
        </g>
        <g class="cls-7">
          <g class="cls-7">
            <path class="cls-6" d="M155.89,193.31h-3.73v-.52l1.97-2.19c.29-.33.49-.6.6-.81.11-.21.17-.42.17-.64,0-.3-.09-.54-.27-.73s-.42-.29-.72-.29c-.36,0-.64.1-.84.31s-.3.49-.3.85h-.72c0-.52.17-.95.51-1.27.34-.32.79-.48,1.35-.48.53,0,.95.14,1.25.42.31.28.46.65.46,1.11,0,.56-.36,1.23-1.07,2l-1.52,1.65h2.86v.59Z"/>
            <path class="cls-6" d="M160.22,190.88c0,.85-.14,1.48-.43,1.89s-.74.62-1.36.62-1.06-.2-1.35-.6c-.29-.4-.44-1-.45-1.8v-.96c0-.84.14-1.46.43-1.86s.74-.61,1.36-.61,1.06.2,1.35.59.44,1,.45,1.81v.94ZM159.49,189.89c0-.61-.09-1.06-.26-1.34s-.44-.42-.82-.42-.64.14-.81.42c-.17.28-.26.71-.26,1.29v1.16c0,.61.09,1.07.27,1.36.18.29.45.44.81.44s.62-.14.79-.41c.17-.28.26-.71.27-1.3v-1.18Z"/>
            <path class="cls-6" d="M163.52,193.31h-.73v-4.82l-1.46.54v-.66l2.07-.78h.11v5.71Z"/>
            <path class="cls-6" d="M169.08,189.1c0,.28-.08.54-.22.76-.15.22-.35.39-.61.52.3.13.53.31.71.56.17.25.26.52.26.83,0,.49-.17.88-.5,1.18s-.77.44-1.31.44-.99-.15-1.31-.44c-.33-.29-.49-.68-.49-1.17,0-.31.08-.58.25-.83s.4-.43.7-.56c-.25-.12-.45-.3-.6-.52-.15-.22-.22-.47-.22-.75,0-.48.15-.86.46-1.14.31-.28.71-.42,1.21-.42s.9.14,1.21.42.46.66.46,1.14ZM168.49,191.76c0-.32-.1-.58-.3-.78-.2-.2-.47-.3-.79-.3s-.59.1-.78.3c-.2.2-.29.46-.29.78s.1.58.29.76.46.28.8.28.6-.09.8-.28c.19-.19.29-.44.29-.76ZM167.41,188.13c-.28,0-.51.09-.69.26s-.26.42-.26.72.09.52.26.7c.17.18.4.27.69.27s.52-.09.69-.27c.17-.18.26-.41.26-.7s-.09-.52-.27-.71-.41-.27-.68-.27Z"/>
          </g>
        </g>
        <g class="cls-7">
          <g class="cls-7">
            <path class="cls-6" d="M178.85,193.31h-3.73v-.52l1.97-2.19c.29-.33.49-.6.6-.81.11-.21.17-.42.17-.64,0-.3-.09-.54-.27-.73s-.42-.29-.72-.29c-.36,0-.64.1-.84.31s-.3.49-.3.85h-.72c0-.52.17-.95.51-1.27.34-.32.79-.48,1.35-.48.53,0,.95.14,1.25.42.31.28.46.65.46,1.11,0,.56-.36,1.23-1.07,2l-1.52,1.65h2.86v.59Z"/>
            <path class="cls-6" d="M183.19,190.88c0,.85-.14,1.48-.43,1.89s-.74.62-1.36.62-1.06-.2-1.35-.6c-.29-.4-.44-1-.45-1.8v-.96c0-.84.14-1.46.43-1.86s.74-.61,1.36-.61,1.06.2,1.35.59.44,1,.45,1.81v.94ZM182.46,189.89c0-.61-.09-1.06-.26-1.34s-.44-.42-.82-.42-.64.14-.81.42c-.17.28-.26.71-.26,1.29v1.16c0,.61.09,1.07.27,1.36.18.29.45.44.81.44s.62-.14.79-.41c.17-.28.26-.71.27-1.3v-1.18Z"/>
            <path class="cls-6" d="M187.84,193.31h-3.73v-.52l1.97-2.19c.29-.33.49-.6.6-.81.11-.21.17-.42.17-.64,0-.3-.09-.54-.27-.73s-.42-.29-.72-.29c-.36,0-.64.1-.84.31s-.3.49-.3.85h-.72c0-.52.17-.95.51-1.27.34-.32.79-.48,1.35-.48.53,0,.95.14,1.25.42.31.28.46.65.46,1.11,0,.56-.36,1.23-1.07,2l-1.52,1.65h2.86v.59Z"/>
            <path class="cls-6" d="M192.17,190.88c0,.85-.14,1.48-.43,1.89s-.74.62-1.36.62-1.06-.2-1.35-.6c-.29-.4-.44-1-.45-1.8v-.96c0-.84.14-1.46.43-1.86s.74-.61,1.36-.61,1.06.2,1.35.59.44,1,.45,1.81v.94ZM191.45,189.89c0-.61-.09-1.06-.26-1.34s-.44-.42-.82-.42-.64.14-.81.42c-.17.28-.26.71-.26,1.29v1.16c0,.61.09,1.07.27,1.36.18.29.45.44.81.44s.62-.14.79-.41c.17-.28.26-.71.27-1.3v-1.18Z"/>
          </g>
        </g>
        <g class="cls-7">
          <g class="cls-7">
            <path class="cls-6" d="M201.86,193.31h-3.73v-.52l1.97-2.19c.29-.33.49-.6.6-.81.11-.21.17-.42.17-.64,0-.3-.09-.54-.27-.73s-.42-.29-.72-.29c-.36,0-.64.1-.84.31s-.3.49-.3.85h-.72c0-.52.17-.95.51-1.27.34-.32.79-.48,1.35-.48.53,0,.95.14,1.25.42.31.28.46.65.46,1.11,0,.56-.36,1.23-1.07,2l-1.52,1.65h2.86v.59Z"/>
            <path class="cls-6" d="M206.2,190.88c0,.85-.14,1.48-.43,1.89s-.74.62-1.36.62-1.06-.2-1.35-.6c-.29-.4-.44-1-.45-1.8v-.96c0-.84.14-1.46.43-1.86s.74-.61,1.36-.61,1.06.2,1.35.59.44,1,.45,1.81v.94ZM205.47,189.89c0-.61-.09-1.06-.26-1.34s-.44-.42-.82-.42-.64.14-.81.42c-.17.28-.26.71-.26,1.29v1.16c0,.61.09,1.07.27,1.36.18.29.45.44.81.44s.62-.14.79-.41c.17-.28.26-.71.27-1.3v-1.18Z"/>
            <path class="cls-6" d="M210.85,193.31h-3.73v-.52l1.97-2.19c.29-.33.49-.6.6-.81.11-.21.17-.42.17-.64,0-.3-.09-.54-.27-.73s-.42-.29-.72-.29c-.36,0-.64.1-.84.31s-.3.49-.3.85h-.72c0-.52.17-.95.51-1.27.34-.32.79-.48,1.35-.48.53,0,.95.14,1.25.42.31.28.46.65.46,1.11,0,.56-.36,1.23-1.07,2l-1.52,1.65h2.86v.59Z"/>
            <path class="cls-6" d="M215.34,193.31h-3.73v-.52l1.97-2.19c.29-.33.49-.6.6-.81.11-.21.17-.42.17-.64,0-.3-.09-.54-.27-.73s-.42-.29-.72-.29c-.36,0-.64.1-.84.31s-.3.49-.3.85h-.72c0-.52.17-.95.51-1.27.34-.32.79-.48,1.35-.48.53,0,.95.14,1.25.42.31.28.46.65.46,1.11,0,.56-.36,1.23-1.07,2l-1.52,1.65h2.86v.59Z"/>
          </g>
        </g>
        <g class="cls-7">
          <g class="cls-7">
            <path class="cls-6" d="M221.6,193.31h-3.73v-.52l1.97-2.19c.29-.33.49-.6.6-.81.11-.21.17-.42.17-.64,0-.3-.09-.54-.27-.73s-.42-.29-.72-.29c-.36,0-.64.1-.84.31s-.3.49-.3.85h-.72c0-.52.17-.95.51-1.27.34-.32.79-.48,1.35-.48.53,0,.95.14,1.25.42.31.28.46.65.46,1.11,0,.56-.36,1.23-1.07,2l-1.52,1.65h2.86v.59Z"/>
            <path class="cls-6" d="M225.94,190.88c0,.85-.14,1.48-.43,1.89s-.74.62-1.36.62-1.06-.2-1.35-.6c-.29-.4-.44-1-.45-1.8v-.96c0-.84.14-1.46.43-1.86s.74-.61,1.36-.61,1.06.2,1.35.59.44,1,.45,1.81v.94ZM225.21,189.89c0-.61-.09-1.06-.26-1.34s-.44-.42-.82-.42-.64.14-.81.42c-.17.28-.26.71-.26,1.29v1.16c0,.61.09,1.07.27,1.36.18.29.45.44.81.44s.62-.14.79-.41c.17-.28.26-.71.27-1.3v-1.18Z"/>
            <path class="cls-6" d="M230.59,193.31h-3.73v-.52l1.97-2.19c.29-.33.49-.6.6-.81.11-.21.17-.42.17-.64,0-.3-.09-.54-.27-.73s-.42-.29-.72-.29c-.36,0-.64.1-.84.31s-.3.49-.3.85h-.72c0-.52.17-.95.51-1.27.34-.32.79-.48,1.35-.48.53,0,.95.14,1.25.42.31.28.46.65.46,1.11,0,.56-.36,1.23-1.07,2l-1.52,1.65h2.86v.59Z"/>
            <path class="cls-6" d="M234.41,191.4h.79v.59h-.79v1.32h-.73v-1.32h-2.59v-.43l2.55-3.94h.77v3.78ZM231.91,191.4h1.77v-2.79l-.09.16-1.68,2.63Z"/>
          </g>
        </g>
        <g class="cls-7">
          <g class="cls-7">
            <path class="cls-6" d="M20.62,176.63c0,.85-.14,1.48-.43,1.89s-.74.62-1.36.62-1.06-.2-1.35-.6-.44-1-.45-1.8v-.96c0-.84.14-1.46.43-1.86s.74-.61,1.36-.61,1.06.2,1.35.59.44,1,.45,1.81v.94ZM19.9,175.64c0-.61-.09-1.06-.26-1.34s-.44-.42-.82-.42-.64.14-.81.42-.26.71-.26,1.29v1.16c0,.61.09,1.07.27,1.36s.45.44.81.44.62-.14.79-.41.26-.71.27-1.3v-1.18Z"/>
          </g>
        </g>
        <g class="cls-7">
          <g class="cls-7">
            <path class="cls-6" d="M20.11,147.88h.79v.59h-.79v1.32h-.73v-1.32h-2.59v-.43l2.55-3.94h.77v3.78ZM17.61,147.88h1.77v-2.79l-.09.16-1.68,2.63Z"/>
          </g>
        </g>
        <g class="cls-7">
          <g class="cls-7">
            <path class="cls-6" d="M20.51,116.32c0,.28-.07.54-.22.76s-.35.39-.61.52c.3.13.53.31.71.56s.26.52.26.83c0,.49-.17.88-.5,1.18s-.77.44-1.31.44-.98-.15-1.31-.44-.49-.68-.49-1.17c0-.31.08-.58.25-.83s.4-.43.7-.56c-.25-.12-.45-.3-.6-.52s-.22-.47-.22-.75c0-.48.15-.86.46-1.14s.71-.42,1.21-.42.9.14,1.21.42.46.66.46,1.14ZM19.92,118.98c0-.32-.1-.58-.3-.78s-.47-.3-.79-.3-.59.1-.78.3-.29.46-.29.78.1.58.29.76.46.28.8.28.6-.09.8-.28.29-.44.29-.76ZM18.83,115.35c-.28,0-.51.09-.69.26s-.26.42-.26.72.09.52.26.7.4.27.69.27.52-.09.69-.27.26-.41.26-.7-.09-.52-.27-.71-.41-.27-.68-.27Z"/>
          </g>
        </g>
        <g class="cls-7">
          <g class="cls-7">
            <path class="cls-6" d="M14.84,91.27h-.73v-4.82l-1.46.54v-.66l2.07-.78h.11v5.71Z"/>
            <path class="cls-6" d="M20.69,91.27h-3.73v-.52l1.97-2.19c.29-.33.49-.6.6-.81s.17-.42.17-.64c0-.3-.09-.54-.27-.73s-.42-.29-.72-.29c-.36,0-.64.1-.84.31s-.3.49-.3.85h-.72c0-.52.17-.95.51-1.27s.79-.48,1.35-.48c.53,0,.95.14,1.25.42s.46.65.46,1.11c0,.56-.36,1.23-1.07,2l-1.52,1.65h2.86v.59Z"/>
          </g>
        </g>
        <g class="cls-7">
          <g class="cls-7">
            <path class="cls-6" d="M14.84,62h-.73v-4.82l-1.46.54v-.66l2.07-.78h.11v5.71Z"/>
            <path class="cls-6" d="M19.8,56.31v.61h-.13c-.56.01-1.01.18-1.34.5s-.53.78-.58,1.36c.3-.34.71-.52,1.23-.52s.89.17,1.19.52.44.8.44,1.35c0,.59-.16,1.05-.48,1.41s-.75.53-1.28.53-.99-.21-1.32-.63-.51-.96-.51-1.62v-.28c0-1.05.22-1.85.67-2.4s1.11-.84,1.99-.85h.13ZM18.85,58.87c-.25,0-.48.07-.68.22s-.35.33-.43.56v.27c0,.47.11.85.32,1.13s.47.43.79.43.58-.12.77-.36.28-.55.28-.94-.09-.71-.28-.95-.44-.36-.75-.36Z"/>
          </g>
        </g>
        <g class="cls-7">
          <g class="cls-7">
            <path class="cls-6" d="M16.19,32.74h-3.73v-.52l1.97-2.19c.29-.33.49-.6.6-.81s.17-.42.17-.64c0-.3-.09-.54-.27-.73s-.42-.29-.72-.29c-.36,0-.64.1-.84.31s-.3.49-.3.85h-.72c0-.52.17-.95.51-1.27s.79-.48,1.35-.48c.53,0,.95.14,1.25.42s.46.65.46,1.11c0,.56-.36,1.23-1.07,2l-1.52,1.65h2.86v.59Z"/>
            <path class="cls-6" d="M20.53,30.31c0,.85-.14,1.48-.43,1.89s-.74.62-1.36.62-1.06-.2-1.35-.6-.44-1-.45-1.8v-.96c0-.84.14-1.46.43-1.86s.74-.61,1.36-.61,1.06.2,1.35.59.44,1,.45,1.81v.94ZM19.8,29.32c0-.61-.09-1.06-.26-1.34s-.44-.42-.82-.42-.64.14-.81.42-.26.71-.26,1.29v1.16c0,.61.09,1.07.27,1.36s.45.44.81.44.62-.14.79-.41.26-.71.27-1.3v-1.18Z"/>
          </g>
        </g>
      </g>
    </g>
    <rect class="cls-3" width="240.94" height="198.43"/>
  </g>
</svg>