<?xml version="1.0" encoding="UTF-8"?>
<svg id="Capa_2" data-name="Capa 2" xmlns="http://www.w3.org/2000/svg" xmlns:xlink="http://www.w3.org/1999/xlink" viewBox="0 0 240.94 141.73">
  <defs>
    <style>
      .cls-1 {
        fill: #ccd6eb;
      }

      .cls-1, .cls-2, .cls-3, .cls-4, .cls-5, .cls-6 {
        stroke-width: 0px;
      }

      .cls-2 {
        fill: #3a61d9;
      }

      .cls-7 {
        isolation: isolate;
      }

      .cls-3 {
        fill: none;
      }

      .cls-4 {
        fill: #2550d6;
      }

      .cls-5 {
        fill: #e6e6e6;
      }

      .cls-6 {
        fill: #494e54;
      }

      .cls-8 {
        clip-path: url(#clippath);
      }
    </style>
    <clipPath id="clippath">
      <rect class="cls-3" x="39.41" y="29.98" width="196.59" height="85.54"/>
    </clipPath>
  </defs>
  <g id="Capa_1-2" data-name="Capa 1">
    <g>
      <g class="cls-7">
        <g class="cls-7">
          <path class="cls-4" d="M9,14.68h-2.32v1.57h2.72v.97h-3.93v-5.87h3.92v.98h-2.71v1.4h2.32v.95Z"/>
        </g>
      </g>
      <g class="cls-7">
        <g class="cls-7">
          <path class="cls-4" d="M12.29,15.77l1.33-4.41h1.35l-2.04,5.87h-1.26l-2.03-5.87h1.34l1.32,4.41Z"/>
        </g>
      </g>
      <g class="cls-7">
        <g class="cls-7">
          <path class="cls-4" d="M20.35,14.42c0,.58-.1,1.08-.31,1.52-.2.44-.5.77-.88,1.01s-.82.35-1.31.35-.92-.12-1.3-.35c-.38-.23-.68-.57-.89-1-.21-.43-.32-.93-.32-1.5v-.29c0-.58.1-1.09.31-1.52.21-.44.5-.78.88-1.01.38-.23.81-.35,1.3-.35s.92.12,1.3.35c.38.24.67.57.88,1.01.21.44.31.95.31,1.52v.26ZM19.12,14.16c0-.62-.11-1.08-.33-1.4-.22-.32-.53-.48-.94-.48s-.72.16-.94.47-.33.78-.33,1.39v.29c0,.6.11,1.06.33,1.39.22.33.54.5.95.5s.72-.16.93-.48.33-.78.33-1.39v-.29Z"/>
        </g>
      </g>
      <g class="cls-7">
        <g class="cls-7">
          <path class="cls-4" d="M22.89,16.25h2.57v.97h-3.77v-5.87h1.21v4.89Z"/>
        </g>
      </g>
      <g class="cls-7">
        <g class="cls-7">
          <path class="cls-4" d="M30.77,11.36v3.86c0,.64-.2,1.15-.6,1.52-.4.37-.95.56-1.65.56s-1.23-.18-1.63-.54c-.4-.36-.61-.86-.62-1.5v-3.91h1.21v3.87c0,.38.09.66.28.84s.44.26.76.26c.68,0,1.02-.36,1.04-1.07v-3.9h1.21Z"/>
        </g>
      </g>
      <g class="cls-7">
        <g class="cls-7">
          <path class="cls-4" d="M36.34,15.27c-.05.63-.28,1.13-.7,1.49-.42.36-.97.54-1.66.54-.75,0-1.34-.25-1.77-.76-.43-.51-.65-1.2-.65-2.08v-.36c0-.56.1-1.06.3-1.49s.48-.76.85-.99.8-.34,1.29-.34c.68,0,1.22.18,1.64.54.41.36.65.87.72,1.53h-1.21c-.03-.38-.14-.65-.32-.82-.18-.17-.46-.26-.83-.26-.4,0-.7.14-.9.43-.2.29-.3.74-.31,1.34v.44c0,.63.1,1.1.29,1.39.19.29.5.44.91.44.37,0,.65-.08.84-.26.18-.17.29-.43.32-.79h1.21Z"/>
        </g>
      </g>
      <g class="cls-7">
        <g class="cls-7">
          <path class="cls-4" d="M38.43,17.22h-1.21v-5.87h1.21v5.87Z"/>
        </g>
      </g>
      <g class="cls-7">
        <g class="cls-7">
          <path class="cls-4" d="M44.36,14.42c0,.58-.1,1.08-.31,1.52-.2.44-.5.77-.88,1.01s-.82.35-1.31.35-.92-.12-1.3-.35c-.38-.23-.68-.57-.89-1-.21-.43-.32-.93-.32-1.5v-.29c0-.58.1-1.09.31-1.52.21-.44.5-.78.88-1.01.38-.23.81-.35,1.3-.35s.92.12,1.3.35c.38.24.67.57.88,1.01.21.44.31.95.31,1.52v.26ZM43.13,14.16c0-.62-.11-1.08-.33-1.4-.22-.32-.53-.48-.94-.48s-.72.16-.94.47-.33.78-.33,1.39v.29c0,.6.11,1.06.33,1.39.22.33.54.5.95.5s.72-.16.93-.48.33-.78.33-1.39v-.29ZM42.1,9.79h1.27l-1.12,1.25h-.95l.79-1.25Z"/>
        </g>
      </g>
      <g class="cls-7">
        <g class="cls-7">
          <path class="cls-4" d="M50.46,17.22h-1.21l-2.35-3.86v3.86h-1.21v-5.87h1.21l2.36,3.87v-3.87h1.2v5.87Z"/>
        </g>
      </g>
      <g class="cls-7">
        <g class="cls-7">
          <path class="cls-4" d="M54.24,17.22v-5.87h1.8c.52,0,.98.12,1.38.35.41.23.72.56.95.99.23.43.34.92.34,1.46v.27c0,.55-.11,1.03-.34,1.45-.22.42-.54.75-.95.99s-.87.35-1.38.35h-1.82ZM55.45,12.34v3.92h.58c.47,0,.83-.15,1.08-.46.25-.31.38-.75.38-1.33v-.31c0-.6-.12-1.05-.37-1.36s-.61-.46-1.08-.46h-.6Z"/>
        </g>
      </g>
      <g class="cls-7">
        <g class="cls-7">
          <path class="cls-4" d="M63.18,14.68h-2.32v1.57h2.72v.97h-3.93v-5.87h3.92v.98h-2.71v1.4h2.32v.95Z"/>
        </g>
      </g>
      <g class="cls-7">
        <g class="cls-7">
          <path class="cls-4" d="M67.91,16.25h2.57v.97h-3.77v-5.87h1.21v4.89Z"/>
        </g>
      </g>
      <g class="cls-7">
        <g class="cls-7">
          <path class="cls-4" d="M74.66,16.01h-2.12l-.4,1.21h-1.29l2.18-5.87h1.12l2.2,5.87h-1.29l-.41-1.21ZM72.87,15.04h1.47l-.74-2.2-.73,2.2Z"/>
        </g>
      </g>
      <g class="cls-7">
        <g class="cls-7">
          <path class="cls-4" d="M79.79,15.68c0-.23-.08-.4-.24-.53s-.45-.25-.87-.39-.75-.27-1-.4c-.67-.36-1-.84-1-1.46,0-.32.09-.6.27-.85s.44-.44.77-.58.71-.21,1.13-.21.79.08,1.12.23c.33.15.58.37.76.64.18.28.27.59.27.94h-1.21c0-.27-.08-.48-.25-.63-.17-.15-.41-.22-.71-.22s-.53.06-.69.19c-.16.12-.25.29-.25.49,0,.19.1.35.29.48.19.13.47.25.85.36.69.21,1.19.46,1.5.77.31.31.47.69.47,1.14,0,.51-.19.91-.58,1.19-.38.29-.9.43-1.55.43-.45,0-.86-.08-1.23-.25s-.65-.39-.85-.68c-.19-.29-.29-.62-.29-1h1.21c0,.65.39.97,1.16.97.29,0,.51-.06.67-.18.16-.12.24-.28.24-.49Z"/>
        </g>
      </g>
      <g class="cls-7">
        <g class="cls-7">
          <path class="cls-4" d="M86.73,15.77l1.33-4.41h1.35l-2.04,5.87h-1.26l-2.03-5.87h1.34l1.32,4.41Z"/>
        </g>
      </g>
      <g class="cls-7">
        <g class="cls-7">
          <path class="cls-4" d="M93.49,14.68h-2.32v1.57h2.72v.97h-3.93v-5.87h3.92v.98h-2.71v1.4h2.32v.95Z"/>
        </g>
      </g>
      <g class="cls-7">
        <g class="cls-7">
          <path class="cls-4" d="M99.38,17.22h-1.21l-2.35-3.86v3.86h-1.21v-5.87h1.21l2.36,3.87v-3.87h1.2v5.87Z"/>
        </g>
      </g>
      <g class="cls-7">
        <g class="cls-7">
          <path class="cls-4" d="M105.18,12.34h-1.8v4.89h-1.21v-4.89h-1.77v-.98h4.78v.98Z"/>
        </g>
      </g>
      <g class="cls-7">
        <g class="cls-7">
          <path class="cls-4" d="M108.73,16.01h-2.12l-.4,1.21h-1.29l2.18-5.87h1.12l2.2,5.87h-1.29l-.41-1.21ZM106.94,15.04h1.47l-.74-2.2-.73,2.2Z"/>
        </g>
      </g>
      <g class="cls-7">
        <g class="cls-7">
          <path class="cls-4" d="M113.86,15.68c0-.23-.08-.4-.24-.53s-.45-.25-.87-.39-.75-.27-1-.4c-.67-.36-1-.84-1-1.46,0-.32.09-.6.27-.85s.44-.44.77-.58.71-.21,1.13-.21.79.08,1.12.23c.33.15.58.37.76.64.18.28.27.59.27.94h-1.21c0-.27-.08-.48-.25-.63-.17-.15-.41-.22-.71-.22s-.53.06-.69.19c-.16.12-.25.29-.25.49,0,.19.1.35.29.48.19.13.47.25.85.36.69.21,1.19.46,1.5.77.31.31.47.69.47,1.14,0,.51-.19.91-.58,1.19-.38.29-.9.43-1.55.43-.45,0-.86-.08-1.23-.25s-.65-.39-.85-.68c-.19-.29-.29-.62-.29-1h1.21c0,.65.39.97,1.16.97.29,0,.51-.06.67-.18.16-.12.24-.28.24-.49Z"/>
        </g>
      </g>
    </g>
    <g>
      <rect class="cls-5" x="55.16" y="29.98" width=".75" height="85.53"/>
      <rect class="cls-5" x="88.18" y="29.98" width=".75" height="85.53"/>
      <rect class="cls-5" x="120.44" y="29.98" width=".75" height="85.53"/>
      <rect class="cls-5" x="153.45" y="29.98" width=".75" height="85.53"/>
      <rect class="cls-5" x="186.47" y="29.98" width=".75" height="85.53"/>
      <rect class="cls-5" x="218.73" y="29.98" width=".75" height="85.53"/>
      <rect class="cls-5" x="39.41" y="115.52" width="196.58" height=".75"/>
      <rect class="cls-5" x="39.41" y="87.01" width="196.58" height=".75"/>
      <rect class="cls-5" x="39.41" y="58.49" width="196.58" height=".75"/>
      <rect class="cls-5" x="39.41" y="29.23" width="196.58" height=".75"/>
      <rect class="cls-1" x="39.41" y="115.52" width="196.58" height=".75"/>
    </g>
    <g class="cls-8">
      <path class="cls-2" d="M55.79,105.99c-.3,0-.58-.18-.7-.47-.15-.38.03-.82.42-.97.81-.32,19.94-7.91,33.04-7.91,6.62,0,11.65.91,16.51,1.8,4.8.87,9.76,1.77,16.25,1.77,7.41,0,12.75-2.57,18.39-5.3,4.23-2.04,8.6-4.15,14.2-5.42,6.02-1.37,10.67-1.49,15.16-1.62,5.39-.15,10.48-.29,17.54-2.53,12.76-4.05,32.23-25.59,32.43-25.81.28-.31.75-.33,1.06-.06.31.28.33.75.06,1.06-.81.9-19.94,22.06-33.09,26.23-7.26,2.3-12.45,2.45-17.95,2.6-4.42.12-9,.25-14.87,1.58-5.43,1.24-9.73,3.31-13.88,5.31-5.8,2.8-11.29,5.45-19.04,5.45-6.62,0-11.65-.91-16.51-1.8-4.8-.87-9.76-1.77-16.25-1.77-12.81,0-32.29,7.73-32.48,7.81-.09.04-.19.05-.28.05Z"/>
    </g>
    <g>
      <g class="cls-7">
        <g class="cls-7">
          <path class="cls-6" d="M50.81,129.77h-3.73v-.52l1.97-2.19c.29-.33.49-.6.6-.81s.17-.42.17-.64c0-.3-.09-.54-.27-.73s-.42-.29-.72-.29c-.36,0-.64.1-.84.31s-.3.49-.3.85h-.72c0-.52.17-.95.51-1.27s.79-.48,1.35-.48c.53,0,.95.14,1.25.42s.46.65.46,1.11c0,.56-.36,1.23-1.07,2l-1.52,1.65h2.86v.59Z"/>
          <path class="cls-6" d="M55.14,127.35c0,.85-.14,1.48-.43,1.89s-.74.62-1.36.62-1.06-.2-1.35-.6-.44-1-.45-1.8v-.96c0-.84.14-1.46.43-1.86s.74-.61,1.36-.61,1.06.2,1.35.59.44,1,.45,1.81v.94ZM54.42,126.36c0-.61-.09-1.06-.26-1.34s-.44-.42-.82-.42-.64.14-.81.42-.26.71-.26,1.29v1.16c0,.61.09,1.07.27,1.36s.45.44.81.44.62-.14.79-.41.26-.71.27-1.3v-1.18Z"/>
          <path class="cls-6" d="M58.44,129.77h-.73v-4.82l-1.46.54v-.66l2.07-.78h.11v5.71Z"/>
          <path class="cls-6" d="M64.01,125.57c0,.28-.07.54-.22.76s-.35.39-.61.52c.3.13.53.31.71.56s.26.52.26.83c0,.49-.17.88-.5,1.18s-.77.44-1.31.44-.98-.15-1.31-.44-.49-.68-.49-1.17c0-.31.08-.58.25-.83s.4-.43.7-.56c-.25-.12-.45-.3-.6-.52s-.22-.47-.22-.75c0-.48.15-.86.46-1.14s.71-.42,1.21-.42.9.14,1.21.42.46.66.46,1.14ZM63.42,128.22c0-.32-.1-.58-.3-.78s-.47-.3-.79-.3-.59.1-.78.3-.29.46-.29.78.1.58.29.76.46.28.8.28.6-.09.8-.28.29-.44.29-.76ZM62.33,124.6c-.28,0-.51.09-.69.26s-.26.42-.26.72.09.52.26.7.4.27.69.27.52-.09.69-.27.26-.41.26-.7-.09-.52-.27-.71-.41-.27-.68-.27Z"/>
        </g>
      </g>
      <g class="cls-7">
        <g class="cls-7">
          <path class="cls-6" d="M83.58,129.77h-3.73v-.52l1.97-2.19c.29-.33.49-.6.6-.81s.17-.42.17-.64c0-.3-.09-.54-.27-.73s-.42-.29-.72-.29c-.36,0-.64.1-.84.31s-.3.49-.3.85h-.72c0-.52.17-.95.51-1.27s.79-.48,1.35-.48c.53,0,.95.14,1.25.42s.46.65.46,1.11c0,.56-.36,1.23-1.07,2l-1.52,1.65h2.86v.59Z"/>
          <path class="cls-6" d="M87.91,127.35c0,.85-.14,1.48-.43,1.89s-.74.62-1.36.62-1.06-.2-1.35-.6-.44-1-.45-1.8v-.96c0-.84.14-1.46.43-1.86s.74-.61,1.36-.61,1.06.2,1.35.59.44,1,.45,1.81v.94ZM87.19,126.36c0-.61-.09-1.06-.26-1.34s-.44-.42-.82-.42-.64.14-.81.42-.26.71-.26,1.29v1.16c0,.61.09,1.07.27,1.36s.45.44.81.44.62-.14.79-.41.26-.71.27-1.3v-1.18Z"/>
          <path class="cls-6" d="M91.21,129.77h-.73v-4.82l-1.46.54v-.66l2.07-.78h.11v5.71Z"/>
          <path class="cls-6" d="M96.1,127.27c-.15.18-.33.32-.54.43s-.44.16-.69.16c-.33,0-.61-.08-.86-.24s-.43-.39-.56-.68-.2-.62-.2-.97c0-.38.07-.72.22-1.03s.35-.54.62-.7.58-.24.93-.24c.56,0,1.01.21,1.33.63s.49.99.49,1.72v.21c0,1.11-.22,1.92-.66,2.42s-1.1.77-1.98.78h-.14v-.61h.15c.6-.01,1.05-.17,1.38-.47s.49-.78.52-1.42ZM94.98,127.27c.24,0,.47-.07.67-.22s.35-.33.45-.55v-.29c0-.47-.1-.86-.31-1.16s-.47-.45-.78-.45-.57.12-.77.37-.29.56-.29.96.09.71.28.96.44.38.75.38Z"/>
        </g>
      </g>
      <g class="cls-7">
        <g class="cls-7">
          <path class="cls-6" d="M116.34,129.77h-3.73v-.52l1.97-2.19c.29-.33.49-.6.6-.81s.17-.42.17-.64c0-.3-.09-.54-.27-.73s-.42-.29-.72-.29c-.36,0-.64.1-.84.31s-.3.49-.3.85h-.72c0-.52.17-.95.51-1.27s.79-.48,1.35-.48c.53,0,.95.14,1.25.42s.46.65.46,1.11c0,.56-.36,1.23-1.07,2l-1.52,1.65h2.86v.59Z"/>
          <path class="cls-6" d="M120.67,127.35c0,.85-.14,1.48-.43,1.89s-.74.62-1.36.62-1.06-.2-1.35-.6c-.29-.4-.44-1-.45-1.8v-.96c0-.84.14-1.46.43-1.86s.74-.61,1.36-.61,1.06.2,1.35.59.44,1,.45,1.81v.94ZM119.95,126.36c0-.61-.09-1.06-.26-1.34s-.44-.42-.82-.42-.64.14-.81.42c-.17.28-.26.71-.26,1.29v1.16c0,.61.09,1.07.27,1.36.18.29.45.44.81.44s.62-.14.79-.41c.17-.28.26-.71.27-1.3v-1.18Z"/>
          <path class="cls-6" d="M125.32,129.77h-3.73v-.52l1.97-2.19c.29-.33.49-.6.6-.81.11-.21.17-.42.17-.64,0-.3-.09-.54-.27-.73s-.42-.29-.72-.29c-.36,0-.64.1-.84.31s-.3.49-.3.85h-.72c0-.52.17-.95.51-1.27.34-.32.79-.48,1.35-.48.53,0,.95.14,1.25.42.31.28.46.65.46,1.11,0,.56-.36,1.23-1.07,2l-1.52,1.65h2.86v.59Z"/>
          <path class="cls-6" d="M129.65,127.35c0,.85-.14,1.48-.43,1.89s-.74.62-1.36.62-1.06-.2-1.35-.6c-.29-.4-.44-1-.45-1.8v-.96c0-.84.14-1.46.43-1.86s.74-.61,1.36-.61,1.06.2,1.35.59.44,1,.45,1.81v.94ZM128.93,126.36c0-.61-.09-1.06-.26-1.34s-.44-.42-.82-.42-.64.14-.81.42c-.17.28-.26.71-.26,1.29v1.16c0,.61.09,1.07.27,1.36.18.29.45.44.81.44s.62-.14.79-.41c.17-.28.26-.71.27-1.3v-1.18Z"/>
        </g>
      </g>
      <g class="cls-7">
        <g class="cls-7">
          <path class="cls-6" d="M149.1,129.77h-3.73v-.52l1.97-2.19c.29-.33.49-.6.6-.81.11-.21.17-.42.17-.64,0-.3-.09-.54-.27-.73s-.42-.29-.72-.29c-.36,0-.64.1-.84.31s-.3.49-.3.85h-.72c0-.52.17-.95.51-1.27.34-.32.79-.48,1.35-.48.53,0,.95.14,1.25.42.31.28.46.65.46,1.11,0,.56-.36,1.23-1.07,2l-1.52,1.65h2.86v.59Z"/>
          <path class="cls-6" d="M153.43,127.35c0,.85-.14,1.48-.43,1.89s-.74.62-1.36.62-1.06-.2-1.35-.6c-.29-.4-.44-1-.45-1.8v-.96c0-.84.14-1.46.43-1.86s.74-.61,1.36-.61,1.06.2,1.35.59.44,1,.45,1.81v.94ZM152.71,126.36c0-.61-.09-1.06-.26-1.34s-.44-.42-.82-.42-.64.14-.81.42c-.17.28-.26.71-.26,1.29v1.16c0,.61.09,1.07.27,1.36.18.29.45.44.81.44s.62-.14.79-.41c.17-.28.26-.71.27-1.3v-1.18Z"/>
          <path class="cls-6" d="M158.08,129.77h-3.73v-.52l1.97-2.19c.29-.33.49-.6.6-.81.11-.21.17-.42.17-.64,0-.3-.09-.54-.27-.73s-.42-.29-.72-.29c-.36,0-.64.1-.84.31s-.3.49-.3.85h-.72c0-.52.17-.95.51-1.27.34-.32.79-.48,1.35-.48.53,0,.95.14,1.25.42.31.28.46.65.46,1.11,0,.56-.36,1.23-1.07,2l-1.52,1.65h2.86v.59Z"/>
          <path class="cls-6" d="M161.22,129.77h-.73v-4.82l-1.46.54v-.66l2.07-.78h.11v5.71Z"/>
        </g>
      </g>
      <g class="cls-7">
        <g class="cls-7">
          <path class="cls-6" d="M181.87,129.77h-3.73v-.52l1.97-2.19c.29-.33.49-.6.6-.81.11-.21.17-.42.17-.64,0-.3-.09-.54-.27-.73s-.42-.29-.72-.29c-.36,0-.64.1-.84.31s-.3.49-.3.85h-.72c0-.52.17-.95.51-1.27.34-.32.79-.48,1.35-.48.53,0,.95.14,1.25.42.31.28.46.65.46,1.11,0,.56-.36,1.23-1.07,2l-1.52,1.65h2.86v.59Z"/>
          <path class="cls-6" d="M186.2,127.35c0,.85-.14,1.48-.43,1.89s-.74.62-1.36.62-1.06-.2-1.35-.6c-.29-.4-.44-1-.45-1.8v-.96c0-.84.14-1.46.43-1.86s.74-.61,1.36-.61,1.06.2,1.35.59.44,1,.45,1.81v.94ZM185.48,126.36c0-.61-.09-1.06-.26-1.34s-.44-.42-.82-.42-.64.14-.81.42c-.17.28-.26.71-.26,1.29v1.16c0,.61.09,1.07.27,1.36.18.29.45.44.81.44s.62-.14.79-.41c.17-.28.26-.71.27-1.3v-1.18Z"/>
          <path class="cls-6" d="M190.85,129.77h-3.73v-.52l1.97-2.19c.29-.33.49-.6.6-.81.11-.21.17-.42.17-.64,0-.3-.09-.54-.27-.73s-.42-.29-.72-.29c-.36,0-.64.1-.84.31s-.3.49-.3.85h-.72c0-.52.17-.95.51-1.27.34-.32.79-.48,1.35-.48.53,0,.95.14,1.25.42.31.28.46.65.46,1.11,0,.56-.36,1.23-1.07,2l-1.52,1.65h2.86v.59Z"/>
          <path class="cls-6" d="M195.34,129.77h-3.73v-.52l1.97-2.19c.29-.33.49-.6.6-.81.11-.21.17-.42.17-.64,0-.3-.09-.54-.27-.73s-.42-.29-.72-.29c-.36,0-.64.1-.84.31s-.3.49-.3.85h-.72c0-.52.17-.95.51-1.27.34-.32.79-.48,1.35-.48.53,0,.95.14,1.25.42.31.28.46.65.46,1.11,0,.56-.36,1.23-1.07,2l-1.52,1.65h2.86v.59Z"/>
        </g>
      </g>
      <g class="cls-7">
        <g class="cls-7">
          <path class="cls-6" d="M214.63,129.77h-3.73v-.52l1.97-2.19c.29-.33.49-.6.6-.81.11-.21.17-.42.17-.64,0-.3-.09-.54-.27-.73s-.42-.29-.72-.29c-.36,0-.64.1-.84.31s-.3.49-.3.85h-.72c0-.52.17-.95.51-1.27.34-.32.79-.48,1.35-.48.53,0,.95.14,1.25.42.31.28.46.65.46,1.11,0,.56-.36,1.23-1.07,2l-1.52,1.65h2.86v.59Z"/>
          <path class="cls-6" d="M218.96,127.35c0,.85-.14,1.48-.43,1.89s-.74.62-1.36.62-1.06-.2-1.35-.6c-.29-.4-.44-1-.45-1.8v-.96c0-.84.14-1.46.43-1.86s.74-.61,1.36-.61,1.06.2,1.35.59.44,1,.45,1.81v.94ZM218.24,126.36c0-.61-.09-1.06-.26-1.34s-.44-.42-.82-.42-.64.14-.81.42c-.17.28-.26.71-.26,1.29v1.16c0,.61.09,1.07.27,1.36.18.29.45.44.81.44s.62-.14.79-.41c.17-.28.26-.71.27-1.3v-1.18Z"/>
          <path class="cls-6" d="M223.61,129.77h-3.73v-.52l1.97-2.19c.29-.33.49-.6.6-.81.11-.21.17-.42.17-.64,0-.3-.09-.54-.27-.73s-.42-.29-.72-.29c-.36,0-.64.1-.84.31s-.3.49-.3.85h-.72c0-.52.17-.95.51-1.27.34-.32.79-.48,1.35-.48.53,0,.95.14,1.25.42.31.28.46.65.46,1.11,0,.56-.36,1.23-1.07,2l-1.52,1.65h2.86v.59Z"/>
          <path class="cls-6" d="M225.43,126.58h.54c.34,0,.61-.09.8-.27s.29-.41.29-.71c0-.67-.33-1-1-1-.31,0-.56.09-.75.27-.19.18-.28.42-.28.71h-.72c0-.45.16-.83.49-1.12.33-.3.75-.45,1.26-.45.54,0,.96.14,1.26.43s.46.68.46,1.18c0,.25-.08.49-.24.72s-.38.41-.65.52c.31.1.55.26.72.49.17.23.26.51.26.84,0,.51-.17.92-.5,1.21-.33.3-.77.45-1.3.45s-.97-.14-1.3-.43c-.33-.29-.5-.67-.5-1.14h.73c0,.3.1.54.29.72s.46.27.79.27c.35,0,.62-.09.8-.27.18-.18.28-.44.28-.79s-.1-.58-.3-.76-.5-.27-.88-.27h-.54v-.59Z"/>
        </g>
      </g>
      <g class="cls-7">
        <g class="cls-7">
          <path class="cls-6" d="M15.41,113.58v.61h-.13c-.56.01-1.01.18-1.34.5s-.53.78-.58,1.36c.3-.34.71-.52,1.23-.52s.89.17,1.19.52.44.8.44,1.35c0,.59-.16,1.05-.48,1.41s-.75.53-1.28.53-.99-.21-1.32-.63-.51-.96-.51-1.62v-.28c0-1.05.22-1.85.67-2.4s1.11-.84,1.99-.85h.13ZM14.46,116.15c-.25,0-.48.07-.68.22s-.35.33-.43.56v.27c0,.47.11.85.32,1.13s.47.43.79.43.58-.12.77-.36.28-.55.28-.94-.09-.71-.28-.95-.44-.36-.75-.36Z"/>
          <path class="cls-6" d="M20.63,116.85c0,.85-.14,1.48-.43,1.89s-.74.62-1.36.62-1.06-.2-1.35-.6-.44-1-.45-1.8v-.96c0-.84.14-1.46.43-1.86s.74-.61,1.36-.61,1.06.2,1.35.59.44,1,.45,1.81v.94ZM19.91,115.86c0-.61-.09-1.06-.26-1.34s-.44-.42-.82-.42-.64.14-.81.42-.26.71-.26,1.29v1.16c0,.61.09,1.07.27,1.36s.45.44.81.44.62-.14.79-.41.26-.71.27-1.3v-1.18Z"/>
          <path class="cls-6" d="M22.71,113.59l1.86,4.64,1.86-4.64h.97v5.69h-.75v-2.21l.07-2.39-1.87,4.61h-.57l-1.86-4.59.07,2.38v2.21h-.75v-5.69h.97Z"/>
        </g>
      </g>
      <g class="cls-7">
        <g class="cls-7">
          <path class="cls-6" d="M15.41,85.06v.61h-.13c-.56.01-1.01.18-1.34.5s-.53.78-.58,1.36c.3-.34.71-.52,1.23-.52s.89.17,1.19.52.44.8.44,1.35c0,.59-.16,1.05-.48,1.41s-.75.53-1.28.53-.99-.21-1.32-.63-.51-.96-.51-1.62v-.28c0-1.05.22-1.85.67-2.4s1.11-.84,1.99-.85h.13ZM14.46,87.62c-.25,0-.48.07-.68.22s-.35.33-.43.56v.27c0,.47.11.85.32,1.13s.47.43.79.43.58-.12.77-.36.28-.55.28-.94-.09-.71-.28-.95-.44-.36-.75-.36Z"/>
          <path class="cls-6" d="M17.39,87.9l.29-2.84h2.91v.67h-2.3l-.17,1.55c.28-.16.6-.25.95-.25.52,0,.93.17,1.23.51s.46.81.46,1.39-.16,1.05-.47,1.38-.76.51-1.33.51c-.5,0-.91-.14-1.23-.42s-.5-.66-.54-1.16h.68c.04.33.16.57.35.74s.44.25.74.25c.34,0,.6-.11.79-.34s.29-.55.29-.95c0-.38-.1-.69-.31-.92s-.48-.35-.83-.35c-.31,0-.56.07-.74.21l-.19.16-.58-.15Z"/>
          <path class="cls-6" d="M22.71,85.07l1.86,4.64,1.86-4.64h.97v5.69h-.75v-2.21l.07-2.39-1.87,4.61h-.57l-1.86-4.59.07,2.38v2.21h-.75v-5.69h.97Z"/>
        </g>
      </g>
      <g class="cls-7">
        <g class="cls-7">
          <path class="cls-6" d="M16.24,56.96l-2.36,5.28h-.76l2.35-5.09h-3.08v-.59h3.84v.41Z"/>
          <path class="cls-6" d="M20.63,59.82c0,.85-.14,1.48-.43,1.89s-.74.62-1.36.62-1.06-.2-1.35-.6-.44-1-.45-1.8v-.96c0-.84.14-1.46.43-1.86s.74-.61,1.36-.61,1.06.2,1.35.59.44,1,.45,1.81v.94ZM19.91,58.83c0-.61-.09-1.06-.26-1.34s-.44-.42-.82-.42-.64.14-.81.42-.26.71-.26,1.29v1.16c0,.61.09,1.07.27,1.36s.45.44.81.44.62-.14.79-.41.26-.71.27-1.3v-1.18Z"/>
          <path class="cls-6" d="M22.71,56.56l1.86,4.64,1.86-4.64h.97v5.69h-.75v-2.21l.07-2.39-1.87,4.61h-.57l-1.86-4.59.07,2.38v2.21h-.75v-5.69h.97Z"/>
        </g>
      </g>
      <g class="cls-7">
        <g class="cls-7">
          <path class="cls-6" d="M16.24,28.45l-2.36,5.28h-.76l2.35-5.09h-3.08v-.59h3.84v.41Z"/>
          <path class="cls-6" d="M17.39,30.88l.29-2.84h2.91v.67h-2.3l-.17,1.55c.28-.16.6-.25.95-.25.52,0,.93.17,1.23.51s.46.81.46,1.39-.16,1.05-.47,1.38-.76.51-1.33.51c-.5,0-.91-.14-1.23-.42s-.5-.66-.54-1.16h.68c.04.33.16.57.35.74s.44.25.74.25c.34,0,.6-.11.79-.34s.29-.55.29-.95c0-.38-.1-.69-.31-.92s-.48-.35-.83-.35c-.31,0-.56.07-.74.21l-.19.16-.58-.15Z"/>
          <path class="cls-6" d="M22.71,28.05l1.86,4.64,1.86-4.64h.97v5.69h-.75v-2.21l.07-2.39-1.87,4.61h-.57l-1.86-4.59.07,2.38v2.21h-.75v-5.69h.97Z"/>
        </g>
      </g>
    </g>
    <rect class="cls-3" width="240.94" height="141.73"/>
  </g>
</svg>