<?xml version="1.0" encoding="UTF-8"?>
<svg id="Capa_1" data-name="Capa 1" xmlns="http://www.w3.org/2000/svg" xmlns:xlink="http://www.w3.org/1999/xlink" viewBox="0 0 594.96 317.75">
  <defs>
    <style>
      .cls-1 {
        clip-path: url(#clippath);
      }

      .cls-2, .cls-3, .cls-4, .cls-5, .cls-6 {
        fill: none;
      }

      .cls-2, .cls-7, .cls-8, .cls-9, .cls-10, .cls-11, .cls-12, .cls-13, .cls-14, .cls-15, .cls-16, .cls-17, .cls-18, .cls-19 {
        stroke-width: 0px;
      }

      .cls-20 {
        font-size: 11px;
      }

      .cls-20, .cls-21 {
        fill: #494e54;
      }

      .cls-20, .cls-22, .cls-23 {
        font-family: Roboto-Bold, Roboto;
        font-weight: 700;
      }

      .cls-24 {
        clip-path: url(#clippath-1);
      }

      .cls-21 {
        font-family: Roboto-Regular, Roboto;
      }

      .cls-21, .cls-22, .cls-23 {
        font-size: 8.25px;
      }

      .cls-3 {
        stroke: #9dc34b;
        stroke-miterlimit: 10;
        stroke-width: 2px;
      }

      .cls-22, .cls-17 {
        fill: #fff;
      }

      .cls-23 {
        fill: #7c96e6;
      }

      .cls-4 {
        stroke: #f0f4f9;
        stroke-width: 1.5px;
      }

      .cls-5 {
        stroke: #e6e6e6;
      }

      .cls-5, .cls-6 {
        stroke-width: .75px;
      }

      .cls-6 {
        stroke: #fff;
      }

      .cls-7 {
        fill: #f3f8fc;
      }

      .cls-8 {
        fill: #f2f8f8;
      }

      .cls-9 {
        fill: #f9faf2;
      }

      .cls-10 {
        fill: #f8f9f3;
      }

      .cls-11 {
        fill: #36c66c;
      }

      .cls-12 {
        fill: #55d1a8;
      }

      .cls-13 {
        fill: #35ccfd;
      }

      .cls-14 {
        fill: #1dc5f9;
      }

      .cls-15 {
        fill: #2294fc;
      }

      .cls-16 {
        fill: #30befd;
      }

      .cls-18 {
        fill: #f0f5fb;
      }

      .cls-19 {
        fill: #e9f0f6;
      }
    </style>
    <clipPath id="clippath">
      <rect class="cls-2" x="252.6" y="12.28" width="113.3" height="38.27"/>
    </clipPath>
    <clipPath id="clippath-1">
      <rect class="cls-2" x="252.6" y="12.28" width="113.3" height="38.27"/>
    </clipPath>
  </defs>
  <g>
    <path class="cls-17" d="m44.76,10.03v-44.27c0-.3.06-.59.17-.86.11-.28.28-.52.49-.73.21-.21.45-.37.73-.49s.56-.17.86-.17h159.07c.3,0,.59.06.86.17.28.11.52.28.73.49.21.21.37.45.49.73.11.28.17.56.17.86V10.03c0,.3-.06.59-.17.86-.11.28-.28.52-.49.73-.21.21-.45.37-.73.49-.28.11-.56.17-.86.17H47.01c-.3,0-.59-.06-.86-.17-.28-.11-.52-.28-.73-.49-.21-.21-.37-.45-.49-.73-.11-.28-.17-.56-.17-.86Z"/>
    <path class="cls-4" d="m44.76,10.03v-44.27c0-.3.06-.59.17-.86.11-.28.28-.52.49-.73.21-.21.45-.37.73-.49s.56-.17.86-.17h159.07c.3,0,.59.06.86.17.28.11.52.28.73.49.21.21.37.45.49.73.11.28.17.56.17.86V10.03c0,.3-.06.59-.17.86-.11.28-.28.52-.49.73-.21.21-.45.37-.73.49-.28.11-.56.17-.86.17H47.01c-.3,0-.59-.06-.86-.17-.28-.11-.52-.28-.73-.49-.21-.21-.37-.45-.49-.73-.11-.28-.17-.56-.17-.86Z"/>
  </g>
  <line class="cls-5" x1="252.6" y1="11.91" x2="365.9" y2="11.91"/>
  <g class="cls-1">
    <rect class="cls-14" x="323.51" y="11.91" width="27.76" height="154.57"/>
    <rect class="cls-6" x="323.51" y="11.91" width="27.76" height="154.57"/>
  </g>
  <g class="cls-24">
    <rect class="cls-14" x="267.24" y="11.91" width="27.76" height="78.78"/>
    <rect class="cls-6" x="267.24" y="11.91" width="27.76" height="78.78"/>
  </g>
  <text class="cls-23" transform="translate(227.58 16.04)"><tspan x="0" y="0">100</tspan></text>
  <path class="cls-17" d="m396.67,10.03v-44.27c0-.3.06-.59.17-.86.11-.28.28-.52.49-.73.21-.21.45-.37.73-.49s.56-.17.86-.17h159.07c.3,0,.59.06.86.17s.52.28.73.49c.21.21.37.45.49.73.11.28.17.56.17.86V10.03c0,.3-.06.59-.17.86-.11.28-.28.52-.49.73-.21.21-.45.37-.73.49-.28.11-.56.17-.86.17h-159.07c-.3,0-.59-.06-.86-.17-.28-.11-.52-.28-.73-.49-.21-.21-.37-.45-.49-.73-.11-.28-.17-.56-.17-.86Z"/>
  <path class="cls-4" d="m396.67,10.03v-44.27c0-.3.06-.59.17-.86.11-.28.28-.52.49-.73.21-.21.45-.37.73-.49s.56-.17.86-.17h159.07c.3,0,.59.06.86.17s.52.28.73.49c.21.21.37.45.49.73.11.28.17.56.17.86V10.03c0,.3-.06.59-.17.86-.11.28-.28.52-.49.73-.21.21-.45.37-.73.49-.28.11-.56.17-.86.17h-159.07c-.3,0-.59-.06-.86-.17-.28-.11-.52-.28-.73-.49-.21-.21-.37-.45-.49-.73-.11-.28-.17-.56-.17-.86Z"/>
  <polygon class="cls-19" points="211.34 79.2 554.24 79.2 542.23 112.21 199.33 112.21 211.34 79.2"/>
  <text class="cls-20" transform="translate(352.43 92.57)"><tspan x="0" y="0">6</tspan></text>
  <text class="cls-20" transform="translate(358.44 92.57)"><tspan x="0" y="0">9</tspan></text>
  <text class="cls-20" transform="translate(364.44 92.57)"><tspan x="0" y="0">.</tspan></text>
  <text class="cls-20" transform="translate(366.69 92.57)"><tspan x="0" y="0">7</tspan></text>
  <text class="cls-20" transform="translate(372.69 92.57)"><tspan x="0" y="0">3</tspan></text>
  <text class="cls-20" transform="translate(378.7 92.57)"><tspan x="0" y="0">0</tspan></text>
  <text class="cls-20" transform="translate(384.7 92.57)"><tspan x="0" y="0">.</tspan></text>
  <text class="cls-20" transform="translate(386.95 92.57)"><tspan x="0" y="0">6</tspan></text>
  <text class="cls-20" transform="translate(392.95 92.57)"><tspan x="0" y="0">9</tspan></text>
  <text class="cls-20" transform="translate(398.95 92.57)"><tspan x="0" y="0">8</tspan></text>
  <text class="cls-20" transform="translate(404.96 92.57)"><tspan x="0" y="0"> </tspan></text>
  <text class="cls-20" transform="translate(407.96 92.57)"><tspan x="0" y="0">€</tspan></text>
  <text class="cls-21" transform="translate(352.43 105.33)"><tspan x="0" y="0">6</tspan></text>
  <text class="cls-21" transform="translate(356.94 105.33)"><tspan x="0" y="0">5</tspan></text>
  <text class="cls-21" transform="translate(361.44 105.33)"><tspan x="0" y="0">.</tspan></text>
  <text class="cls-21" transform="translate(363.69 105.33)"><tspan x="0" y="0">1</tspan></text>
  <text class="cls-21" transform="translate(368.19 105.33)"><tspan x="0" y="0">6</tspan></text>
  <text class="cls-21" transform="translate(372.69 105.33)"><tspan x="0" y="0">7</tspan></text>
  <text class="cls-21" transform="translate(377.19 105.33)"><tspan x="0" y="0">.</tspan></text>
  <text class="cls-21" transform="translate(379.45 105.33)"><tspan x="0" y="0">2</tspan></text>
  <text class="cls-21" transform="translate(383.95 105.33)"><tspan x="0" y="0">9</tspan></text>
  <text class="cls-21" transform="translate(388.45 105.33)"><tspan x="0" y="0">2</tspan></text>
  <text class="cls-21" transform="translate(392.95 105.33)"><tspan x="0" y="0"> </tspan></text>
  <text class="cls-21" transform="translate(395.2 105.33)"><tspan x="0" y="0">€</tspan></text>
  <polygon class="cls-18" points="211.34 118.22 539.24 118.22 527.22 151.23 199.33 151.23 211.34 118.22"/>
  <text class="cls-20" transform="translate(352.43 131.59)"><tspan x="0" y="0">1</tspan></text>
  <text class="cls-20" transform="translate(357.69 131.59)"><tspan x="0" y="0">6</tspan></text>
  <text class="cls-20" transform="translate(363.69 131.59)"><tspan x="0" y="0">.</tspan></text>
  <text class="cls-20" transform="translate(365.94 131.59)"><tspan x="0" y="0">6</tspan></text>
  <text class="cls-20" transform="translate(371.94 131.59)"><tspan x="0" y="0">0</tspan></text>
  <text class="cls-20" transform="translate(377.95 131.59)"><tspan x="0" y="0">1</tspan></text>
  <text class="cls-20" transform="translate(383.2 131.59)"><tspan x="0" y="0">.</tspan></text>
  <text class="cls-20" transform="translate(385.45 131.59)"><tspan x="0" y="0">7</tspan></text>
  <text class="cls-20" transform="translate(391.45 131.59)"><tspan x="0" y="0">0</tspan></text>
  <text class="cls-20" transform="translate(397.45 131.59)"><tspan x="0" y="0">8</tspan></text>
  <text class="cls-20" transform="translate(403.46 131.59)"><tspan x="0" y="0"> </tspan></text>
  <text class="cls-20" transform="translate(406.46 131.59)"><tspan x="0" y="0">€</tspan></text>
  <text class="cls-21" transform="translate(352.43 144.34)"><tspan x="0" y="0">1</tspan></text>
  <text class="cls-21" transform="translate(356.94 144.34)"><tspan x="0" y="0">5</tspan></text>
  <text class="cls-21" transform="translate(361.44 144.34)"><tspan x="0" y="0">.</tspan></text>
  <text class="cls-21" transform="translate(363.69 144.34)"><tspan x="0" y="0">3</tspan></text>
  <text class="cls-21" transform="translate(368.19 144.34)"><tspan x="0" y="0">3</tspan></text>
  <text class="cls-21" transform="translate(372.69 144.34)"><tspan x="0" y="0">0</tspan></text>
  <text class="cls-21" transform="translate(377.19 144.34)"><tspan x="0" y="0">.</tspan></text>
  <text class="cls-21" transform="translate(379.45 144.34)"><tspan x="0" y="0">9</tspan></text>
  <text class="cls-21" transform="translate(383.95 144.34)"><tspan x="0" y="0">2</tspan></text>
  <text class="cls-21" transform="translate(388.45 144.34)"><tspan x="0" y="0">0</tspan></text>
  <text class="cls-21" transform="translate(392.95 144.34)"><tspan x="0" y="0"> </tspan></text>
  <text class="cls-21" transform="translate(395.2 144.34)"><tspan x="0" y="0">€</tspan></text>
  <polygon class="cls-7" points="211.34 157.23 524.23 157.23 512.21 190.25 199.33 190.25 211.34 157.23"/>
  <text class="cls-20" transform="translate(352.43 170.6)"><tspan x="0" y="0">5</tspan></text>
  <text class="cls-20" transform="translate(358.44 170.6)"><tspan x="0" y="0">.</tspan></text>
  <text class="cls-20" transform="translate(360.69 170.6)"><tspan x="0" y="0">9</tspan></text>
  <text class="cls-20" transform="translate(366.69 170.6)"><tspan x="0" y="0">6</tspan></text>
  <text class="cls-20" transform="translate(372.69 170.6)"><tspan x="0" y="0">8</tspan></text>
  <text class="cls-20" transform="translate(378.7 170.6)"><tspan x="0" y="0">.</tspan></text>
  <text class="cls-20" transform="translate(380.95 170.6)"><tspan x="0" y="0">7</tspan></text>
  <text class="cls-20" transform="translate(386.95 170.6)"><tspan x="0" y="0">1</tspan></text>
  <text class="cls-20" transform="translate(392.2 170.6)"><tspan x="0" y="0">2</tspan></text>
  <text class="cls-20" transform="translate(398.2 170.6)"><tspan x="0" y="0"> </tspan></text>
  <text class="cls-20" transform="translate(401.21 170.6)"><tspan x="0" y="0">€</tspan></text>
  <text class="cls-21" transform="translate(352.43 183.36)"><tspan x="0" y="0">4</tspan></text>
  <text class="cls-21" transform="translate(356.94 183.36)"><tspan x="0" y="0">.</tspan></text>
  <text class="cls-21" transform="translate(359.19 183.36)"><tspan x="0" y="0">6</tspan></text>
  <text class="cls-21" transform="translate(363.69 183.36)"><tspan x="0" y="0">0</tspan></text>
  <text class="cls-21" transform="translate(368.19 183.36)"><tspan x="0" y="0">1</tspan></text>
  <text class="cls-21" transform="translate(372.69 183.36)"><tspan x="0" y="0">.</tspan></text>
  <text class="cls-21" transform="translate(374.94 183.36)"><tspan x="0" y="0">8</tspan></text>
  <text class="cls-21" transform="translate(379.45 183.36)"><tspan x="0" y="0">3</tspan></text>
  <text class="cls-21" transform="translate(383.95 183.36)"><tspan x="0" y="0">8</tspan></text>
  <text class="cls-21" transform="translate(388.45 183.36)"><tspan x="0" y="0"> </tspan></text>
  <text class="cls-21" transform="translate(390.7 183.36)"><tspan x="0" y="0">€</tspan></text>
  <polygon class="cls-8" points="211.34 196.25 509.22 196.25 497.21 229.26 199.33 229.26 211.34 196.25"/>
  <text class="cls-20" transform="translate(352.43 209.62)"><tspan x="0" y="0">3</tspan></text>
  <text class="cls-20" transform="translate(358.44 209.62)"><tspan x="0" y="0">.</tspan></text>
  <text class="cls-20" transform="translate(360.69 209.62)"><tspan x="0" y="0">2</tspan></text>
  <text class="cls-20" transform="translate(366.69 209.62)"><tspan x="0" y="0">9</tspan></text>
  <text class="cls-20" transform="translate(372.69 209.62)"><tspan x="0" y="0">3</tspan></text>
  <text class="cls-20" transform="translate(378.7 209.62)"><tspan x="0" y="0">.</tspan></text>
  <text class="cls-20" transform="translate(380.95 209.62)"><tspan x="0" y="0">4</tspan></text>
  <text class="cls-20" transform="translate(387.7 209.62)"><tspan x="0" y="0">3</tspan></text>
  <text class="cls-20" transform="translate(393.7 209.62)"><tspan x="0" y="0">3</tspan></text>
  <text class="cls-20" transform="translate(399.71 209.62)"><tspan x="0" y="0"> </tspan></text>
  <text class="cls-20" transform="translate(402.71 209.62)"><tspan x="0" y="0">€</tspan></text>
  <text class="cls-21" transform="translate(352.43 222.38)"><tspan x="0" y="0">3</tspan></text>
  <text class="cls-21" transform="translate(356.94 222.38)"><tspan x="0" y="0">.</tspan></text>
  <text class="cls-21" transform="translate(359.19 222.38)"><tspan x="0" y="0">2</tspan></text>
  <text class="cls-21" transform="translate(363.69 222.38)"><tspan x="0" y="0">9</tspan></text>
  <text class="cls-21" transform="translate(368.19 222.38)"><tspan x="0" y="0">2</tspan></text>
  <text class="cls-21" transform="translate(372.69 222.38)"><tspan x="0" y="0">.</tspan></text>
  <text class="cls-21" transform="translate(374.94 222.38)"><tspan x="0" y="0">5</tspan></text>
  <text class="cls-21" transform="translate(379.45 222.38)"><tspan x="0" y="0">5</tspan></text>
  <text class="cls-21" transform="translate(383.95 222.38)"><tspan x="0" y="0">1</tspan></text>
  <text class="cls-21" transform="translate(388.45 222.38)"><tspan x="0" y="0"> </tspan></text>
  <text class="cls-21" transform="translate(390.7 222.38)"><tspan x="0" y="0">€</tspan></text>
  <polygon class="cls-10" points="211.34 233.63 494.22 233.63 482.2 266.65 199.33 266.65 211.34 233.63"/>
  <text class="cls-20" transform="translate(352.43 248.64)"><tspan x="0" y="0">9</tspan></text>
  <text class="cls-20" transform="translate(358.44 248.64)"><tspan x="0" y="0">.</tspan></text>
  <text class="cls-20" transform="translate(360.69 248.64)"><tspan x="0" y="0">2</tspan></text>
  <text class="cls-20" transform="translate(366.69 248.64)"><tspan x="0" y="0">6</tspan></text>
  <text class="cls-20" transform="translate(372.69 248.64)"><tspan x="0" y="0">2</tspan></text>
  <text class="cls-20" transform="translate(378.7 248.64)"><tspan x="0" y="0">.</tspan></text>
  <text class="cls-20" transform="translate(380.95 248.64)"><tspan x="0" y="0">1</tspan></text>
  <text class="cls-20" transform="translate(386.2 248.64)"><tspan x="0" y="0">4</tspan></text>
  <text class="cls-20" transform="translate(392.95 248.64)"><tspan x="0" y="0">5</tspan></text>
  <text class="cls-20" transform="translate(398.95 248.64)"><tspan x="0" y="0"> </tspan></text>
  <text class="cls-20" transform="translate(401.96 248.64)"><tspan x="0" y="0">€</tspan></text>
  <text class="cls-21" transform="translate(352.43 261.39)"><tspan x="0" y="0">7</tspan></text>
  <text class="cls-21" transform="translate(356.94 261.39)"><tspan x="0" y="0">.</tspan></text>
  <text class="cls-21" transform="translate(359.19 261.39)"><tspan x="0" y="0">8</tspan></text>
  <text class="cls-21" transform="translate(363.69 261.39)"><tspan x="0" y="0">9</tspan></text>
  <text class="cls-21" transform="translate(368.19 261.39)"><tspan x="0" y="0">4</tspan></text>
  <text class="cls-21" transform="translate(372.69 261.39)"><tspan x="0" y="0">.</tspan></text>
  <text class="cls-21" transform="translate(374.94 261.39)"><tspan x="0" y="0">3</tspan></text>
  <text class="cls-21" transform="translate(379.45 261.39)"><tspan x="0" y="0">8</tspan></text>
  <text class="cls-21" transform="translate(383.95 261.39)"><tspan x="0" y="0">9</tspan></text>
  <text class="cls-21" transform="translate(388.45 261.39)"><tspan x="0" y="0"> </tspan></text>
  <text class="cls-21" transform="translate(390.7 261.39)"><tspan x="0" y="0">€</tspan></text>
  <polygon class="cls-9" points="211.34 272.65 479.21 272.65 467.19 305.66 199.33 305.66 211.34 272.65"/>
  <text class="cls-20" transform="translate(352.43 287.66)"><tspan x="0" y="0">7</tspan></text>
  <text class="cls-20" transform="translate(357.69 287.66)"><tspan x="0" y="0">.</tspan></text>
  <text class="cls-20" transform="translate(359.94 287.66)"><tspan x="0" y="0">2</tspan></text>
  <text class="cls-20" transform="translate(365.94 287.66)"><tspan x="0" y="0">1</tspan></text>
  <text class="cls-20" transform="translate(371.19 287.66)"><tspan x="0" y="0">6</tspan></text>
  <text class="cls-20" transform="translate(377.19 287.66)"><tspan x="0" y="0">.</tspan></text>
  <text class="cls-20" transform="translate(379.45 287.66)"><tspan x="0" y="0">9</tspan></text>
  <text class="cls-20" transform="translate(385.45 287.66)"><tspan x="0" y="0">0</tspan></text>
  <text class="cls-20" transform="translate(391.45 287.66)"><tspan x="0" y="0">3</tspan></text>
  <text class="cls-20" transform="translate(397.45 287.66)"><tspan x="0" y="0"> </tspan></text>
  <text class="cls-20" transform="translate(400.46 287.66)"><tspan x="0" y="0">€</tspan></text>
  <text class="cls-21" transform="translate(352.43 300.41)"><tspan x="0" y="0">6</tspan></text>
  <text class="cls-21" transform="translate(356.94 300.41)"><tspan x="0" y="0">.</tspan></text>
  <text class="cls-21" transform="translate(359.19 300.41)"><tspan x="0" y="0">4</tspan></text>
  <text class="cls-21" transform="translate(363.69 300.41)"><tspan x="0" y="0">9</tspan></text>
  <text class="cls-21" transform="translate(368.19 300.41)"><tspan x="0" y="0">8</tspan></text>
  <text class="cls-21" transform="translate(372.69 300.41)"><tspan x="0" y="0">.</tspan></text>
  <text class="cls-21" transform="translate(374.94 300.41)"><tspan x="0" y="0">9</tspan></text>
  <text class="cls-21" transform="translate(379.45 300.41)"><tspan x="0" y="0">0</tspan></text>
  <text class="cls-21" transform="translate(383.95 300.41)"><tspan x="0" y="0">0</tspan></text>
  <text class="cls-21" transform="translate(388.45 300.41)"><tspan x="0" y="0"> </tspan></text>
  <text class="cls-21" transform="translate(390.7 300.41)"><tspan x="0" y="0">€</tspan></text>
  <g>
    <polygon class="cls-15" points="50.76 79.06 214.33 79.06 226.35 112.08 62.78 112.08 50.76 79.06"/>
    <text class="cls-22" transform="translate(71.67 97.82)"><tspan x="0" y="0">V</tspan></text>
    <text class="cls-22" transform="translate(78.42 97.82)"><tspan x="0" y="0">E</tspan></text>
    <text class="cls-22" transform="translate(83.67 97.82)"><tspan x="0" y="0">N</tspan></text>
    <text class="cls-22" transform="translate(90.43 97.82)"><tspan x="0" y="0">T</tspan></text>
    <text class="cls-22" transform="translate(95.68 97.82)"><tspan x="0" y="0">A</tspan></text>
    <text class="cls-22" transform="translate(102.43 97.82)"><tspan x="0" y="0">S</tspan></text>
    <polygon class="cls-16" points="65.77 118.08 229.34 118.08 241.36 151.09 77.78 151.09 65.77 118.08"/>
    <text class="cls-22" transform="translate(86.68 136.84)"><tspan x="0" y="0">E</tspan></text>
    <text class="cls-22" transform="translate(91.93 136.84)"><tspan x="0" y="0">B</tspan></text>
    <text class="cls-22" transform="translate(97.93 136.84)"><tspan x="0" y="0">I</tspan></text>
    <text class="cls-22" transform="translate(100.93 136.84)"><tspan x="0" y="0">T</tspan></text>
    <text class="cls-22" transform="translate(106.94 136.84)"><tspan x="0" y="0">D</tspan></text>
    <text class="cls-22" transform="translate(112.94 136.84)"><tspan x="0" y="0">A</tspan></text>
    <polygon class="cls-13" points="80.77 157.47 244.35 157.47 256.36 190.48 92.79 190.48 80.77 157.47"/>
    <text class="cls-22" transform="translate(101.68 175.86)"><tspan x="0" y="0">E</tspan></text>
    <text class="cls-22" transform="translate(106.94 175.86)"><tspan x="0" y="0">B</tspan></text>
    <text class="cls-22" transform="translate(112.94 175.86)"><tspan x="0" y="0">I</tspan></text>
    <text class="cls-22" transform="translate(115.94 175.86)"><tspan x="0" y="0">T</tspan></text>
    <polygon class="cls-12" points="95.78 196.49 259.35 196.49 271.37 229.5 107.8 229.5 95.78 196.49"/>
    <text class="cls-22" transform="translate(116.69 214.87)"><tspan x="0" y="0">R</tspan></text>
    <text class="cls-22" transform="translate(122.69 214.87)"><tspan x="0" y="0">E</tspan></text>
    <text class="cls-22" transform="translate(127.94 214.87)"><tspan x="0" y="0">S</tspan></text>
    <text class="cls-22" transform="translate(133.95 214.87)"><tspan x="0" y="0">U</tspan></text>
    <text class="cls-22" transform="translate(140.7 214.87)"><tspan x="0" y="0">L</tspan></text>
    <text class="cls-22" transform="translate(145.2 214.87)"><tspan x="0" y="0">T</tspan></text>
    <text class="cls-22" transform="translate(150.45 214.87)"><tspan x="0" y="0">A</tspan></text>
    <text class="cls-22" transform="translate(157.21 214.87)"><tspan x="0" y="0">D</tspan></text>
    <text class="cls-22" transform="translate(163.21 214.87)"><tspan x="0" y="0">O</tspan></text>
    <text class="cls-22" transform="translate(169.96 214.87)"><tspan x="0" y="0"> </tspan></text>
    <text class="cls-22" transform="translate(172.21 214.87)"><tspan x="0" y="0">F</tspan></text>
    <text class="cls-22" transform="translate(177.47 214.87)"><tspan x="0" y="0">I</tspan></text>
    <text class="cls-22" transform="translate(180.47 214.87)"><tspan x="0" y="0">N</tspan></text>
    <text class="cls-22" transform="translate(187.22 214.87)"><tspan x="0" y="0">A</tspan></text>
    <text class="cls-22" transform="translate(193.97 214.87)"><tspan x="0" y="0">N</tspan></text>
    <text class="cls-22" transform="translate(200.73 214.87)"><tspan x="0" y="0">C</tspan></text>
    <text class="cls-22" transform="translate(207.48 214.87)"><tspan x="0" y="0">I</tspan></text>
    <text class="cls-22" transform="translate(210.48 214.87)"><tspan x="0" y="0">E</tspan></text>
    <text class="cls-22" transform="translate(215.73 214.87)"><tspan x="0" y="0">R</tspan></text>
    <text class="cls-22" transform="translate(221.74 214.87)"><tspan x="0" y="0">O</tspan></text>
    <polygon class="cls-12" points="110.79 233.63 274.36 233.63 286.38 266.65 122.8 266.65 110.79 233.63"/>
    <text class="cls-22" transform="translate(131.7 253.89)"><tspan x="0" y="0">R</tspan></text>
    <text class="cls-22" transform="translate(137.7 253.89)"><tspan x="0" y="0">D</tspan></text>
    <text class="cls-22" transform="translate(143.7 253.89)"><tspan x="0" y="0">O</tspan></text>
    <text class="cls-22" transform="translate(149.7 253.89)"><tspan x="0" y="0">.</tspan></text>
    <text class="cls-22" transform="translate(152.71 253.89)"><tspan x="0" y="0"> </tspan></text>
    <text class="cls-22" transform="translate(154.96 253.89)"><tspan x="0" y="0">A</tspan></text>
    <text class="cls-22" transform="translate(161.71 253.89)"><tspan x="0" y="0">N</tspan></text>
    <text class="cls-22" transform="translate(168.46 253.89)"><tspan x="0" y="0">T</tspan></text>
    <text class="cls-22" transform="translate(174.46 253.89)"><tspan x="0" y="0">E</tspan></text>
    <text class="cls-22" transform="translate(179.72 253.89)"><tspan x="0" y="0">S</tspan></text>
    <text class="cls-22" transform="translate(185.72 253.89)"><tspan x="0" y="0"> </tspan></text>
    <text class="cls-22" transform="translate(187.97 253.89)"><tspan x="0" y="0">D</tspan></text>
    <text class="cls-22" transform="translate(193.97 253.89)"><tspan x="0" y="0">E</tspan></text>
    <text class="cls-22" transform="translate(199.23 253.89)"><tspan x="0" y="0"> </tspan></text>
    <text class="cls-22" transform="translate(201.48 253.89)"><tspan x="0" y="0">I</tspan></text>
    <text class="cls-22" transform="translate(204.48 253.89)"><tspan x="0" y="0">M</tspan></text>
    <text class="cls-22" transform="translate(212.73 253.89)"><tspan x="0" y="0">P</tspan></text>
    <text class="cls-22" transform="translate(218.73 253.89)"><tspan x="0" y="0">U</tspan></text>
    <text class="cls-22" transform="translate(225.49 253.89)"><tspan x="0" y="0">E</tspan></text>
    <text class="cls-22" transform="translate(230.74 253.89)"><tspan x="0" y="0">S</tspan></text>
    <text class="cls-22" transform="translate(236.74 253.89)"><tspan x="0" y="0">T</tspan></text>
    <text class="cls-22" transform="translate(242.75 253.89)"><tspan x="0" y="0">O</tspan></text>
    <text class="cls-22" transform="translate(249.5 253.89)"><tspan x="0" y="0">S</tspan></text>
    <polygon class="cls-11" points="125.79 272.65 289.37 272.65 301.38 305.66 137.81 305.66 125.79 272.65"/>
    <text class="cls-22" transform="translate(146.7 292.91)"><tspan x="0" y="0">R</tspan></text>
    <text class="cls-22" transform="translate(152.71 292.91)"><tspan x="0" y="0">E</tspan></text>
    <text class="cls-22" transform="translate(157.96 292.91)"><tspan x="0" y="0">S</tspan></text>
    <text class="cls-22" transform="translate(163.96 292.91)"><tspan x="0" y="0">U</tspan></text>
    <text class="cls-22" transform="translate(170.71 292.91)"><tspan x="0" y="0">L</tspan></text>
    <text class="cls-22" transform="translate(175.21 292.91)"><tspan x="0" y="0">T</tspan></text>
    <text class="cls-22" transform="translate(180.47 292.91)"><tspan x="0" y="0">A</tspan></text>
    <text class="cls-22" transform="translate(187.22 292.91)"><tspan x="0" y="0">D</tspan></text>
    <text class="cls-22" transform="translate(193.22 292.91)"><tspan x="0" y="0">O</tspan></text>
  </g>
  <polyline class="cls-3" points="311.57 101.38 322.93 90.03 334.28 101.38"/>
  <polyline class="cls-3" points="311.57 139.2 322.93 127.85 334.28 139.2"/>
  <polyline class="cls-3" points="311.57 179.42 322.93 168.06 334.28 179.42"/>
  <polyline class="cls-3" points="311.57 218.43 322.93 207.08 334.28 218.43"/>
  <polyline class="cls-3" points="311.57 255.82 322.93 244.46 334.28 255.82"/>
  <polyline class="cls-3" points="311.57 294.83 322.93 283.48 334.28 294.83"/>
</svg>