<?xml version="1.0" encoding="UTF-8"?>
<svg id="Capa_1" data-name="Capa 1" xmlns="http://www.w3.org/2000/svg" viewBox="0 0 250.08 203.6">
  <defs>
    <style>
      .cls-1 {
        fill: #7c96e6;
        font-family: Roboto-Bold, Roboto;
        font-size: 8.25px;
        font-weight: 700;
        opacity: .6;
      }

      .cls-2 {
        fill: #494e54;
        font-family: Roboto-Regular, Roboto;
        font-size: 9px;
      }

      .cls-3 {
        stroke: #9dc34b;
      }

      .cls-3, .cls-4 {
        fill: none;
        stroke-miterlimit: 10;
        stroke-width: 2px;
      }

      .cls-4 {
        stroke: red;
      }

      .cls-5 {
        fill: #1dc5f9;
      }

      .cls-5, .cls-6, .cls-7 {
        stroke-width: 0px;
      }

      .cls-6 {
        fill: #1186e2;
      }

      .cls-7 {
        fill: #112f80;
      }
    </style>
  </defs>
  <g>
    <g>
      <text class="cls-1" transform="translate(118.15 34.08)"><tspan x="0" y="0">P</tspan></text>
      <text class="cls-1" transform="translate(122.8 34.08)"><tspan x="0" y="0">A</tspan></text>
      <text class="cls-1" transform="translate(127.46 34.08)"><tspan x="0" y="0">T</tspan></text>
      <text class="cls-1" transform="translate(132.86 34.08)"><tspan x="0" y="0">R</tspan></text>
      <text class="cls-1" transform="translate(138.26 34.08)"><tspan x="0" y="0">I</tspan></text>
      <text class="cls-1" transform="translate(140.66 34.08)"><tspan x="0" y="0">M</tspan></text>
      <text class="cls-1" transform="translate(148.31 34.08)"><tspan x="0" y="0">O</tspan></text>
      <text class="cls-1" transform="translate(154.47 34.08)"><tspan x="0" y="0">N</tspan></text>
      <text class="cls-1" transform="translate(160.62 34.08)"><tspan x="0" y="0">I</tspan></text>
      <text class="cls-1" transform="translate(163.02 34.08)"><tspan x="0" y="0">O</tspan></text>
      <text class="cls-1" transform="translate(169.17 34.08)"><tspan x="0" y="0"> </tspan></text>
      <text class="cls-1" transform="translate(171.57 34.08)"><tspan x="0" y="0">N</tspan></text>
      <text class="cls-1" transform="translate(177.73 34.08)"><tspan x="0" y="0">E</tspan></text>
      <text class="cls-1" transform="translate(182.38 34.08)"><tspan x="0" y="0">T</tspan></text>
      <text class="cls-1" transform="translate(187.78 34.08)"><tspan x="0" y="0">O</tspan></text>
    </g>
    <text class="cls-2" transform="translate(130.91 50.59)"><tspan x="0" y="0">6</tspan></text>
    <text class="cls-2" transform="translate(136.91 50.59)"><tspan x="0" y="0">0</tspan></text>
    <text class="cls-2" transform="translate(142.91 50.59)"><tspan x="0" y="0">.</tspan></text>
    <text class="cls-2" transform="translate(145.16 50.59)"><tspan x="0" y="0">0</tspan></text>
    <text class="cls-2" transform="translate(151.17 50.59)"><tspan x="0" y="0">3</tspan></text>
    <text class="cls-2" transform="translate(157.17 50.59)"><tspan x="0" y="0">4</tspan></text>
    <text class="cls-2" transform="translate(163.92 50.59)"><tspan x="0" y="0">.</tspan></text>
    <text class="cls-2" transform="translate(166.17 50.59)"><tspan x="0" y="0">8</tspan></text>
    <text class="cls-2" transform="translate(172.17 50.59)"><tspan x="0" y="0">8</tspan></text>
    <text class="cls-2" transform="translate(178.18 50.59)"><tspan x="0" y="0">9</tspan></text>
    <text class="cls-2" transform="translate(184.18 50.59)"><tspan x="0" y="0"> </tspan></text>
    <text class="cls-2" transform="translate(187.18 50.59)"><tspan x="0" y="0">€</tspan></text>
  </g>
  <rect class="cls-5" x="41.89" y="11.57" width="162.07" height="4.5"/>
  <g>
    <g>
      <text class="cls-1" transform="translate(101.8 98.61)"><tspan x="0" y="0">P</tspan></text>
      <text class="cls-1" transform="translate(106.45 98.61)"><tspan x="0" y="0">A</tspan></text>
      <text class="cls-1" transform="translate(111.85 98.61)"><tspan x="0" y="0">S</tspan></text>
      <text class="cls-1" transform="translate(117.25 98.61)"><tspan x="0" y="0">I</tspan></text>
      <text class="cls-1" transform="translate(119.65 98.61)"><tspan x="0" y="0">V</tspan></text>
      <text class="cls-1" transform="translate(125.06 98.61)"><tspan x="0" y="0">O</tspan></text>
      <text class="cls-1" transform="translate(131.21 98.61)"><tspan x="0" y="0"> </tspan></text>
      <text class="cls-1" transform="translate(133.61 98.61)"><tspan x="0" y="0">N</tspan></text>
      <text class="cls-1" transform="translate(139.76 98.61)"><tspan x="0" y="0">O</tspan></text>
      <text class="cls-1" transform="translate(145.92 98.61)"><tspan x="0" y="0"> </tspan></text>
      <text class="cls-1" transform="translate(148.32 98.61)"><tspan x="0" y="0">C</tspan></text>
      <text class="cls-1" transform="translate(153.72 98.61)"><tspan x="0" y="0">O</tspan></text>
      <text class="cls-1" transform="translate(159.87 98.61)"><tspan x="0" y="0">R</tspan></text>
      <text class="cls-1" transform="translate(165.27 98.61)"><tspan x="0" y="0">R</tspan></text>
      <text class="cls-1" transform="translate(170.68 98.61)"><tspan x="0" y="0">I</tspan></text>
      <text class="cls-1" transform="translate(173.08 98.61)"><tspan x="0" y="0">E</tspan></text>
      <text class="cls-1" transform="translate(177.73 98.61)"><tspan x="0" y="0">N</tspan></text>
      <text class="cls-1" transform="translate(183.88 98.61)"><tspan x="0" y="0">T</tspan></text>
      <text class="cls-1" transform="translate(189.28 98.61)"><tspan x="0" y="0">E</tspan></text>
    </g>
    <text class="cls-2" transform="translate(137.66 115.11)"><tspan x="0" y="0">1</tspan></text>
    <text class="cls-2" transform="translate(142.91 115.11)"><tspan x="0" y="0">.</tspan></text>
    <text class="cls-2" transform="translate(145.16 115.11)"><tspan x="0" y="0">2</tspan></text>
    <text class="cls-2" transform="translate(151.17 115.11)"><tspan x="0" y="0">4</tspan></text>
    <text class="cls-2" transform="translate(157.92 115.11)"><tspan x="0" y="0">8</tspan></text>
    <text class="cls-2" transform="translate(163.92 115.11)"><tspan x="0" y="0">.</tspan></text>
    <text class="cls-2" transform="translate(166.17 115.11)"><tspan x="0" y="0">4</tspan></text>
    <text class="cls-2" transform="translate(172.93 115.11)"><tspan x="0" y="0">1</tspan></text>
    <text class="cls-2" transform="translate(178.18 115.11)"><tspan x="0" y="0">2</tspan></text>
    <text class="cls-2" transform="translate(184.18 115.11)"><tspan x="0" y="0"> </tspan></text>
    <text class="cls-2" transform="translate(187.18 115.11)"><tspan x="0" y="0">€</tspan></text>
  </g>
  <rect class="cls-6" x="41.89" y="75.35" width="162.07" height="4.5"/>
  <g>
    <g>
      <text class="cls-1" transform="translate(116.51 162.38)"><tspan x="0" y="0">P</tspan></text>
      <text class="cls-1" transform="translate(121.16 162.38)"><tspan x="0" y="0">A</tspan></text>
      <text class="cls-1" transform="translate(126.56 162.38)"><tspan x="0" y="0">S</tspan></text>
      <text class="cls-1" transform="translate(131.97 162.38)"><tspan x="0" y="0">I</tspan></text>
      <text class="cls-1" transform="translate(134.37 162.38)"><tspan x="0" y="0">V</tspan></text>
      <text class="cls-1" transform="translate(139.77 162.38)"><tspan x="0" y="0">O</tspan></text>
      <text class="cls-1" transform="translate(145.92 162.38)"><tspan x="0" y="0"> </tspan></text>
      <text class="cls-1" transform="translate(148.32 162.38)"><tspan x="0" y="0">C</tspan></text>
      <text class="cls-1" transform="translate(153.73 162.38)"><tspan x="0" y="0">O</tspan></text>
      <text class="cls-1" transform="translate(159.88 162.38)"><tspan x="0" y="0">R</tspan></text>
      <text class="cls-1" transform="translate(165.28 162.38)"><tspan x="0" y="0">R</tspan></text>
      <text class="cls-1" transform="translate(170.68 162.38)"><tspan x="0" y="0">I</tspan></text>
      <text class="cls-1" transform="translate(173.08 162.38)"><tspan x="0" y="0">E</tspan></text>
      <text class="cls-1" transform="translate(177.74 162.38)"><tspan x="0" y="0">N</tspan></text>
      <text class="cls-1" transform="translate(183.89 162.38)"><tspan x="0" y="0">T</tspan></text>
      <text class="cls-1" transform="translate(189.29 162.38)"><tspan x="0" y="0">E</tspan></text>
    </g>
    <text class="cls-2" transform="translate(130.91 178.89)"><tspan x="0" y="0">1</tspan></text>
    <text class="cls-2" transform="translate(136.16 178.89)"><tspan x="0" y="0">3</tspan></text>
    <text class="cls-2" transform="translate(142.16 178.89)"><tspan x="0" y="0">.</tspan></text>
    <text class="cls-2" transform="translate(144.41 178.89)"><tspan x="0" y="0">4</tspan></text>
    <text class="cls-2" transform="translate(151.17 178.89)"><tspan x="0" y="0">3</tspan></text>
    <text class="cls-2" transform="translate(157.17 178.89)"><tspan x="0" y="0">3</tspan></text>
    <text class="cls-2" transform="translate(163.17 178.89)"><tspan x="0" y="0">.</tspan></text>
    <text class="cls-2" transform="translate(165.42 178.89)"><tspan x="0" y="0">5</tspan></text>
    <text class="cls-2" transform="translate(171.42 178.89)"><tspan x="0" y="0">3</tspan></text>
    <text class="cls-2" transform="translate(177.43 178.89)"><tspan x="0" y="0">4</tspan></text>
    <text class="cls-2" transform="translate(184.18 178.89)"><tspan x="0" y="0"> </tspan></text>
    <text class="cls-2" transform="translate(187.18 178.89)"><tspan x="0" y="0">€</tspan></text>
  </g>
  <rect class="cls-7" x="41.89" y="139.88" width="162.07" height="4.5"/>
  <polyline class="cls-3" points="49.67 45.7 61.02 34.35 72.37 45.7"/>
  <polyline class="cls-3" points="49.67 174 61.02 162.65 72.37 174"/>
  <polyline class="cls-4" points="72.37 98.87 61.02 110.23 49.67 98.87"/>
</svg>