<?xml version="1.0" encoding="UTF-8"?>
<svg id="base-datos" data-name="Capa 2" xmlns="http://www.w3.org/2000/svg" viewBox="0 0 41.88 24">
  <defs>
    <style>
      #base-datos .cls-1 {
        stroke-width: 0px;
        fill: #5072DD;
      }
    </style>
  </defs>
  <g id="Outline">
    <g>
      <path class="cls-1" d="m33.88,8c-.09,0-.19,0-.28.01-.09,0-.18.01-.27.01h0c-.09.01-.19.02-.28.03-.04-.08-.09-.16-.14-.23,0-.01-.01-.01-.01-.02-.05-.07-.1-.14-.15-.21-1.5-2.11-3.92-3.37-6.52-3.37-.35,0-.68.02-.98.07-.07,0-.13,0-.19.02-.03,0-.05.01-.08.01-.09.02-.18.03-.26.05-.04-.08-.09-.15-.14-.22-.01-.02-.02-.03-.03-.05-.04-.06-.08-.12-.12-.18-1.69-2.46-4.44-3.92-7.42-3.92-4.42,0-8.14,3.15-8.86,7.51,0,.03-.02.05-.02.08-.01.05-.02.1-.02.16-.02.08-.03.16-.03.25h-.1s-.1,0-.16.01c-.05-.01-.1,0-.15,0-.03,0-.07,0-.1.01-4.25.24-7.56,3.72-7.56,7.98s3.59,8,8,8c.08,0,.17,0,.25-.01.08,0,.17,0,.25-.01v.02h24.88v-.02c.08.01.17.01.25.01.08.01.17.01.25.01,4.41,0,8-3.59,8-8s-3.59-8-8-8Zm0,13.5H8c-3.03,0-5.5-2.46-5.5-5.5s2.26-5.29,5.12-5.48c.12-.02.25-.02.38-.02,1.09,0,2.1.32,2.95.87-.29-.73-.45-1.53-.45-2.37,0-.37.03-.74.1-1.09.51-3.06,3.19-5.41,6.4-5.41,2,0,3.8.92,4.99,2.35.65.77,1.11,1.69,1.34,2.7.84-.53,1.83-.83,2.89-.83,1.53,0,2.93.63,3.92,1.65.71.72,1.22,1.63,1.44,2.64.7-.33,1.48-.51,2.3-.51.23,0,.46.01.68.05,2.71.33,4.82,2.65,4.82,5.45,0,3.04-2.47,5.5-5.5,5.5Z"/>
      <rect class="cls-1" x="14.34" y="14.32" width="3.17" height="3.17"/>
      <rect class="cls-1" x="19.36" y="14.32" width="3.17" height="3.17"/>
      <rect class="cls-1" x="24.38" y="14.32" width="3.17" height="3.17"/>
    </g>
  </g>
</svg>