<?xml version="1.0" encoding="UTF-8"?>
<svg id="equipo" data-name="Capa 2" xmlns="http://www.w3.org/2000/svg" viewBox="0 0 57.01 30.03">
  <defs>
    <style>
      #equipo .cls-1 {
        stroke-width: 0px;
        fill: #5072DD;
      }
    </style>
  </defs>
  <g id="Outline">
    <g>
      <g>
        <path class="cls-1" d="m28.53,4.03c-3.31,0-6,2.69-6,6s2.69,6,6,6,6-2.69,6-6-2.69-6-6-6Zm0,10c-2.21,0-4-1.79-4-4s1.79-4,4-4,4,1.79,4,4-1.79,4-4,4Z"/>
        <path class="cls-1" d="m37.35,20.53c.25.12.47.27.68.44v-.44h-.68Zm-17.61-2.16c-2.46.75-4.18,3.08-4.21,5.66h2c.02-1.21.59-2.32,1.5-3.06.21-.17.43-.32.68-.44.19-.1.4-.19.61-.25,1.21-.37,2.43-.66,3.65-.86-.12-.7-.43-1.35-.87-1.88-1.12.21-2.24.48-3.36.83Zm17.58,0c-1.12-.35-2.24-.62-3.36-.83-.73-.14-1.46-.25-2.18-.33-2.17-.24-4.33-.24-6.5,0-.72.08-1.45.19-2.18.33-1.12.21-2.24.48-3.36.83-2.46.75-4.18,3.08-4.21,5.66v6h26v-6c-.03-2.58-1.75-4.91-4.21-5.66Zm2.21,9.66h-3v-3.5h-2v3.5h-12v-3.5h-2v3.5h-3v-4c.02-1.21.59-2.32,1.5-3.06.21-.17.43-.32.68-.44.19-.1.4-.19.61-.25,1.21-.37,2.43-.66,3.65-.86.29-.05.59-.09.89-.13.47-.06.76-.1,1.1-.11.19-.02.39-.02.65-.02h2.92c.43,0,1.01.01,1.57.04.4.02.79.05,1.1.09.3.04.6.08.89.13,1.22.2,2.44.49,3.65.86.21.06.42.15.61.25.25.12.47.27.68.44.91.74,1.48,1.85,1.5,3.06v4Zm-20.5-7.5v.44c.21-.17.43-.32.68-.44h-.68Zm18.32,0c.25.12.47.27.68.44v-.44h-.68Z"/>
      </g>
      <g>
        <g>
          <path class="cls-1" d="m44.05.06c-3.31,0-6.01,2.68-6.01,5.99s2.68,6.01,5.99,6.01,6.01-2.68,6.01-5.99S47.36.07,44.05.06Zm-.02,10c-2.21,0-4-1.8-3.99-4.01s1.8-4,4.01-3.99,4,1.8,3.99,4.01-1.8,4-4.01,3.99Z"/>
          <path class="cls-1" d="m52.81,14.42c-5.83-1.8-11.75-1.81-17.58-.04-1.5.46-2.73,1.5-3.47,2.83-.34.61-.57,1.28-.68,1.99.4.02.79.05,1.1.09.3.04.6.08.89.13.12-.7.43-1.35.87-1.88.47-.59,1.12-1.03,1.86-1.26,1.51-.46,3.03-.78,4.54-.98.73-.1,1.01-.13,1.75-.13h2.92c.74,0,1.94.04,2.67.14,1.51.2,3.03.54,4.54,1,1.64.51,2.79,2.09,2.78,3.83v3.93s-3.01,0-3.01,0v-3.5s-1.99,0-1.99,0v3.5s-10.51-.02-10.51-.02v2s17.5.03,17.5.03v-5.93c.02-2.61-1.71-4.97-4.19-5.74Zm-14.8,6.57v-.44s-.68,0-.68,0c.25.12.47.27.68.44Zm-3.51,5.05h2s0-1.5,0-1.5h-2s0,1.5,0,1.5Z"/>
        </g>
        <g>
          <path class="cls-1" d="m13.05,0c-3.31,0-6.01,2.68-6.01,5.99s2.68,6.01,5.99,6.01,6.01-2.68,6.01-5.99S16.36,0,13.05,0Zm-.02,10c-2.21,0-4-1.8-3.99-4.01s1.8-4,4.01-3.99,4,1.8,3.99,4.01-1.8,4-4.01,3.99Z"/>
          <path class="cls-1" d="m19.01,20.51v.44c.21-.17.43-.32.68-.44h-.68Zm1.49,4v1.5s2,0,2,0v-1.5s-2,0-2,0Zm4.76-7.31c-.73-1.33-1.96-2.38-3.45-2.85-5.83-1.8-11.75-1.81-17.58-.04C1.75,15.08.02,17.43.01,20.04v5.93s17.49.03,17.49.03v-2s-10.5-.02-10.5-.02v-3.5s-1.99,0-1.99,0v3.5s-3.01,0-3.01,0v-3.93c.01-1.74,1.16-3.31,2.81-3.81,1.51-.46,3.03-.78,4.54-.98.73-.1,1.01-.13,1.75-.13h2.92c.74,0,1.94.04,2.67.14,1.51.2,3.03.54,4.54,1,.74.23,1.39.67,1.86,1.26.44.53.75,1.18.87,1.88.29-.05.59-.09.89-.13.47-.06.76-.1,1.1-.11-.11-.7-.34-1.37-.68-1.97Z"/>
        </g>
      </g>
    </g>
  </g>
</svg>