<?xml version="1.0" encoding="utf-8"?>
<!-- Generator: Adobe Illustrator 28.0.0, SVG Export Plug-In . SVG Version: 6.00 Build 0)  -->
<svg version="1.1" id="Capa_1" xmlns="http://www.w3.org/2000/svg" xmlns:xlink="http://www.w3.org/1999/xlink" x="0px" y="0px"
	 viewBox="0 0 1366 447.6" style="enable-background:new 0 0 1366 447.6;" xml:space="preserve">
<style type="text/css">
	.st0{clip-path:url(#SVGID_00000141424881174062668790000005343633352215777189_);fill:#FCA216;}
	.st1{clip-path:url(#SVGID_00000141424881174062668790000005343633352215777189_);fill:#FCA116;}
	.st2{clip-path:url(#SVGID_00000141424881174062668790000005343633352215777189_);fill:#FCA016;}
	.st3{clip-path:url(#SVGID_00000141424881174062668790000005343633352215777189_);fill:#FC9F16;}
	.st4{clip-path:url(#SVGID_00000141424881174062668790000005343633352215777189_);fill:#FC9D16;}
	.st5{clip-path:url(#SVGID_00000141424881174062668790000005343633352215777189_);fill:#FC9C16;}
	.st6{clip-path:url(#SVGID_00000141424881174062668790000005343633352215777189_);fill:#FC9B16;}
	.st7{clip-path:url(#SVGID_00000141424881174062668790000005343633352215777189_);fill:#FC9A16;}
	.st8{clip-path:url(#SVGID_00000141424881174062668790000005343633352215777189_);fill:#FC9916;}
	.st9{clip-path:url(#SVGID_00000141424881174062668790000005343633352215777189_);fill:#FC9816;}
	.st10{clip-path:url(#SVGID_00000141424881174062668790000005343633352215777189_);fill:#FC9716;}
	.st11{clip-path:url(#SVGID_00000141424881174062668790000005343633352215777189_);fill:#FC9616;}
	.st12{clip-path:url(#SVGID_00000141424881174062668790000005343633352215777189_);fill:#FC9516;}
	.st13{clip-path:url(#SVGID_00000141424881174062668790000005343633352215777189_);fill:#FC9416;}
	.st14{clip-path:url(#SVGID_00000141424881174062668790000005343633352215777189_);fill:#FC9316;}
	.st15{clip-path:url(#SVGID_00000141424881174062668790000005343633352215777189_);fill:#FC9216;}
	.st16{clip-path:url(#SVGID_00000141424881174062668790000005343633352215777189_);fill:#FC9116;}
	.st17{clip-path:url(#SVGID_00000141424881174062668790000005343633352215777189_);fill:#FC9016;}
	.st18{clip-path:url(#SVGID_00000141424881174062668790000005343633352215777189_);fill:#FC8F16;}
	.st19{clip-path:url(#SVGID_00000141424881174062668790000005343633352215777189_);fill:#FC8E16;}
	.st20{clip-path:url(#SVGID_00000141424881174062668790000005343633352215777189_);fill:#FC8D16;}
	.st21{clip-path:url(#SVGID_00000141424881174062668790000005343633352215777189_);fill:#FC8C16;}
	.st22{clip-path:url(#SVGID_00000141424881174062668790000005343633352215777189_);fill:#FC8B16;}
	.st23{clip-path:url(#SVGID_00000141424881174062668790000005343633352215777189_);fill:#FC8A16;}
	.st24{clip-path:url(#SVGID_00000141424881174062668790000005343633352215777189_);fill:#FC8916;}
	.st25{fill:#010D19;}
	.st26{clip-path:url(#SVGID_00000138540773770538995580000008705201370017529272_);fill:#D93353;}
	.st27{clip-path:url(#SVGID_00000138540773770538995580000008705201370017529272_);fill:#D83353;}
	.st28{clip-path:url(#SVGID_00000138540773770538995580000008705201370017529272_);fill:#D73253;}
	.st29{clip-path:url(#SVGID_00000138540773770538995580000008705201370017529272_);fill:#D63253;}
	.st30{clip-path:url(#SVGID_00000138540773770538995580000008705201370017529272_);fill:#D43153;}
	.st31{clip-path:url(#SVGID_00000138540773770538995580000008705201370017529272_);fill:#D33153;}
	.st32{clip-path:url(#SVGID_00000138540773770538995580000008705201370017529272_);fill:#D23053;}
	.st33{clip-path:url(#SVGID_00000138540773770538995580000008705201370017529272_);fill:#D13053;}
	.st34{clip-path:url(#SVGID_00000138540773770538995580000008705201370017529272_);fill:#D03053;}
	.st35{clip-path:url(#SVGID_00000138540773770538995580000008705201370017529272_);fill:#CF2F53;}
	.st36{clip-path:url(#SVGID_00000138540773770538995580000008705201370017529272_);fill:#CE2F53;}
	.st37{clip-path:url(#SVGID_00000138540773770538995580000008705201370017529272_);fill:#CD2E53;}
	.st38{clip-path:url(#SVGID_00000138540773770538995580000008705201370017529272_);fill:#CC2E53;}
	.st39{clip-path:url(#SVGID_00000138540773770538995580000008705201370017529272_);fill:#CB2E53;}
	.st40{clip-path:url(#SVGID_00000138540773770538995580000008705201370017529272_);fill:#CA2D53;}
	.st41{clip-path:url(#SVGID_00000138540773770538995580000008705201370017529272_);fill:#C92D53;}
	.st42{clip-path:url(#SVGID_00000138540773770538995580000008705201370017529272_);fill:#C82C53;}
	.st43{clip-path:url(#SVGID_00000138540773770538995580000008705201370017529272_);fill:#C72C53;}
	.st44{clip-path:url(#SVGID_00000138540773770538995580000008705201370017529272_);fill:#C62C53;}
	.st45{clip-path:url(#SVGID_00000138540773770538995580000008705201370017529272_);fill:#C52B53;}
	.st46{clip-path:url(#SVGID_00000138540773770538995580000008705201370017529272_);fill:#C42B53;}
	.st47{clip-path:url(#SVGID_00000138540773770538995580000008705201370017529272_);fill:#C32A53;}
	.st48{clip-path:url(#SVGID_00000138540773770538995580000008705201370017529272_);fill:#C22A53;}
	.st49{clip-path:url(#SVGID_00000138540773770538995580000008705201370017529272_);fill:#C12A53;}
	.st50{clip-path:url(#SVGID_00000138540773770538995580000008705201370017529272_);fill:#C02953;}
	.st51{clip-path:url(#SVGID_00000138540773770538995580000008705201370017529272_);fill:#BF2953;}
	.st52{clip-path:url(#SVGID_00000138540773770538995580000008705201370017529272_);fill:#BE2853;}
	.st53{clip-path:url(#SVGID_00000138540773770538995580000008705201370017529272_);fill:#BD2853;}
	.st54{fill:#123387;}
	.st55{clip-path:url(#SVGID_00000181047150845945246890000012858700199145584017_);fill:#8365AB;}
	.st56{clip-path:url(#SVGID_00000181047150845945246890000012858700199145584017_);fill:#8265AB;}
	.st57{clip-path:url(#SVGID_00000181047150845945246890000012858700199145584017_);fill:#8165AB;}
	.st58{clip-path:url(#SVGID_00000181047150845945246890000012858700199145584017_);fill:#8065AB;}
	.st59{clip-path:url(#SVGID_00000181047150845945246890000012858700199145584017_);fill:#7F65AB;}
	.st60{clip-path:url(#SVGID_00000181047150845945246890000012858700199145584017_);fill:#7E65AB;}
	.st61{clip-path:url(#SVGID_00000181047150845945246890000012858700199145584017_);fill:#7D65AB;}
	.st62{fill:#5F7BC1;}
	.st63{fill:#081E3B;}
	.st64{fill:#2550D6;}
	.st65{fill:#91A6E9;}
	.st66{fill:#FFFFFF;}
	.st67{fill:#20344E;}
</style>
<g>
	<g>
		<g>
			<g>
				<defs>
					<polygon id="SVGID_1_" points="527.9,160 479.3,194 430.4,160 					"/>
				</defs>
				<clipPath id="SVGID_00000133523239143879344210000001302070629693594266_">
					<use xlink:href="#SVGID_1_"  style="overflow:visible;"/>
				</clipPath>
				<polygon style="clip-path:url(#SVGID_00000133523239143879344210000001302070629693594266_);fill:#FCA216;" points="431.2,160 
					430.9,194 430.4,194 430.4,160 				"/>
				<polygon style="clip-path:url(#SVGID_00000133523239143879344210000001302070629693594266_);fill:#FCA116;" points="433.4,160 
					433,194 430.9,194 431.2,160 				"/>
				<polygon style="clip-path:url(#SVGID_00000133523239143879344210000001302070629693594266_);fill:#FCA016;" points="435.6,160 
					435.2,194 433,194 433.4,160 				"/>
				<polygon style="clip-path:url(#SVGID_00000133523239143879344210000001302070629693594266_);fill:#FC9F16;" points="437.7,160 
					437.4,194 435.2,194 435.6,160 				"/>
				<polygon style="clip-path:url(#SVGID_00000133523239143879344210000001302070629693594266_);fill:#FC9D16;" points="439.9,160 
					439.6,194 437.4,194 437.7,160 				"/>
				<polygon style="clip-path:url(#SVGID_00000133523239143879344210000001302070629693594266_);fill:#FC9C16;" points="442.1,160 
					441.7,194 439.6,194 439.9,160 				"/>
				<polygon style="clip-path:url(#SVGID_00000133523239143879344210000001302070629693594266_);fill:#FC9B16;" points="444.2,160 
					443.9,194 441.7,194 442.1,160 				"/>
				<polygon style="clip-path:url(#SVGID_00000133523239143879344210000001302070629693594266_);fill:#FC9A16;" points="446.4,160 
					446.1,194 443.9,194 444.2,160 				"/>
				<polygon style="clip-path:url(#SVGID_00000133523239143879344210000001302070629693594266_);fill:#FC9916;" points="448.6,160 
					448.3,194 446.1,194 446.4,160 				"/>
				<polygon style="clip-path:url(#SVGID_00000133523239143879344210000001302070629693594266_);fill:#FC9816;" points="450.8,160 
					450.4,194 448.3,194 448.6,160 				"/>
				<polygon style="clip-path:url(#SVGID_00000133523239143879344210000001302070629693594266_);fill:#FC9716;" points="452.9,160 
					452.6,194 450.4,194 450.8,160 				"/>
				<polygon style="clip-path:url(#SVGID_00000133523239143879344210000001302070629693594266_);fill:#FC9616;" points="455.1,160 
					454.8,194 452.6,194 452.9,160 				"/>
				<polygon style="clip-path:url(#SVGID_00000133523239143879344210000001302070629693594266_);fill:#FC9516;" points="457.3,160 
					457,194 454.8,194 455.1,160 				"/>
				<polygon style="clip-path:url(#SVGID_00000133523239143879344210000001302070629693594266_);fill:#FC9416;" points="459.5,160 
					459.1,194 457,194 457.3,160 				"/>
				<polygon style="clip-path:url(#SVGID_00000133523239143879344210000001302070629693594266_);fill:#FC9316;" points="461.6,160 
					461.3,194 459.1,194 459.5,160 				"/>
				<polygon style="clip-path:url(#SVGID_00000133523239143879344210000001302070629693594266_);fill:#FC9216;" points="463.8,160 
					463.5,194 461.3,194 461.6,160 				"/>
				<polygon style="clip-path:url(#SVGID_00000133523239143879344210000001302070629693594266_);fill:#FC9116;" points="466,160 
					465.6,194 463.5,194 463.8,160 				"/>
				<polygon style="clip-path:url(#SVGID_00000133523239143879344210000001302070629693594266_);fill:#FC9016;" points="468.2,160 
					467.8,194 465.6,194 466,160 				"/>
				<polygon style="clip-path:url(#SVGID_00000133523239143879344210000001302070629693594266_);fill:#FC8F16;" points="470.3,160 
					470,194 467.8,194 468.2,160 				"/>
				<polygon style="clip-path:url(#SVGID_00000133523239143879344210000001302070629693594266_);fill:#FC8E16;" points="472.5,160 
					472.2,194 470,194 470.3,160 				"/>
				<polygon style="clip-path:url(#SVGID_00000133523239143879344210000001302070629693594266_);fill:#FC8D16;" points="474.7,160 
					474.3,194 472.2,194 472.5,160 				"/>
				<polygon style="clip-path:url(#SVGID_00000133523239143879344210000001302070629693594266_);fill:#FC8C16;" points="476.8,160 
					476.5,194 474.3,194 474.7,160 				"/>
				<polygon style="clip-path:url(#SVGID_00000133523239143879344210000001302070629693594266_);fill:#FC8B16;" points="479,160 
					478.7,194 476.5,194 476.8,160 				"/>
				<polygon style="clip-path:url(#SVGID_00000133523239143879344210000001302070629693594266_);fill:#FC8A16;" points="481.2,160 
					480.9,194 478.7,194 479,160 				"/>
				<polygon style="clip-path:url(#SVGID_00000133523239143879344210000001302070629693594266_);fill:#FC8916;" points="483.4,160 
					483,194 480.9,194 481.2,160 				"/>
				<polygon style="clip-path:url(#SVGID_00000133523239143879344210000001302070629693594266_);fill:#FC8916;" points="483,194 
					483.4,160 527.9,160 527.9,194 				"/>
			</g>
		</g>
		<g>
			<polygon class="st25" points="527.9,160 479.3,194 430.4,160 			"/>
		</g>
	</g>
	<g>
		<g>
			<defs>
				<polygon id="SVGID_00000015339421118996258230000001426202047092459959_" points="473.9,280.3 585.4,250.5 372.8,250.5 				"/>
			</defs>
			<clipPath id="SVGID_00000008123417028234234740000015338707031379217037_">
				<use xlink:href="#SVGID_00000015339421118996258230000001426202047092459959_"  style="overflow:visible;"/>
			</clipPath>
			<polygon style="clip-path:url(#SVGID_00000008123417028234234740000015338707031379217037_);fill:#D93353;" points="376,250.5 
				375.7,280.3 372.8,280.3 372.8,250.5 			"/>
			<polygon style="clip-path:url(#SVGID_00000008123417028234234740000015338707031379217037_);fill:#D83353;" points="380,250.5 
				379.8,280.3 375.7,280.3 376,250.5 			"/>
			<polygon style="clip-path:url(#SVGID_00000008123417028234234740000015338707031379217037_);fill:#D73253;" points="384.1,250.5 
				383.8,280.3 379.8,280.3 380,250.5 			"/>
			<polygon style="clip-path:url(#SVGID_00000008123417028234234740000015338707031379217037_);fill:#D63253;" points="388.1,250.5 
				387.8,280.3 383.8,280.3 384.1,250.5 			"/>
			<polygon style="clip-path:url(#SVGID_00000008123417028234234740000015338707031379217037_);fill:#D43153;" points="392.1,250.5 
				391.9,280.3 387.8,280.3 388.1,250.5 			"/>
			<polygon style="clip-path:url(#SVGID_00000008123417028234234740000015338707031379217037_);fill:#D33153;" points="396.2,250.5 
				395.9,280.3 391.9,280.3 392.1,250.5 			"/>
			<polygon style="clip-path:url(#SVGID_00000008123417028234234740000015338707031379217037_);fill:#D23053;" points="400.2,250.5 
				399.9,280.3 395.9,280.3 396.2,250.5 			"/>
			<polygon style="clip-path:url(#SVGID_00000008123417028234234740000015338707031379217037_);fill:#D13053;" points="404.2,250.5 
				404,280.3 399.9,280.3 400.2,250.5 			"/>
			<polygon style="clip-path:url(#SVGID_00000008123417028234234740000015338707031379217037_);fill:#D03053;" points="408.3,250.5 
				408,280.3 404,280.3 404.2,250.5 			"/>
			<polygon style="clip-path:url(#SVGID_00000008123417028234234740000015338707031379217037_);fill:#CF2F53;" points="412.3,250.5 
				412,280.3 408,280.3 408.3,250.5 			"/>
			<polygon style="clip-path:url(#SVGID_00000008123417028234234740000015338707031379217037_);fill:#CE2F53;" points="416.3,250.5 
				416.1,280.3 412,280.3 412.3,250.5 			"/>
			<polygon style="clip-path:url(#SVGID_00000008123417028234234740000015338707031379217037_);fill:#CD2E53;" points="420.4,250.5 
				420.1,280.3 416.1,280.3 416.3,250.5 			"/>
			<polygon style="clip-path:url(#SVGID_00000008123417028234234740000015338707031379217037_);fill:#CC2E53;" points="424.4,250.5 
				424.1,280.3 420.1,280.3 420.4,250.5 			"/>
			<polygon style="clip-path:url(#SVGID_00000008123417028234234740000015338707031379217037_);fill:#CB2E53;" points="428.4,250.5 
				428.2,280.3 424.1,280.3 424.4,250.5 			"/>
			<polygon style="clip-path:url(#SVGID_00000008123417028234234740000015338707031379217037_);fill:#CA2D53;" points="432.5,250.5 
				432.2,280.3 428.2,280.3 428.4,250.5 			"/>
			<polygon style="clip-path:url(#SVGID_00000008123417028234234740000015338707031379217037_);fill:#C92D53;" points="436.5,250.5 
				436.2,280.3 432.2,280.3 432.5,250.5 			"/>
			<polygon style="clip-path:url(#SVGID_00000008123417028234234740000015338707031379217037_);fill:#C82C53;" points="440.5,250.5 
				440.3,280.3 436.2,280.3 436.5,250.5 			"/>
			<polygon style="clip-path:url(#SVGID_00000008123417028234234740000015338707031379217037_);fill:#C72C53;" points="444.6,250.5 
				444.3,280.3 440.3,280.3 440.5,250.5 			"/>
			<polygon style="clip-path:url(#SVGID_00000008123417028234234740000015338707031379217037_);fill:#C62C53;" points="448.6,250.5 
				448.3,280.3 444.3,280.3 444.6,250.5 			"/>
			<polygon style="clip-path:url(#SVGID_00000008123417028234234740000015338707031379217037_);fill:#C52B53;" points="452.6,250.5 
				452.4,280.3 448.3,280.3 448.6,250.5 			"/>
			<polygon style="clip-path:url(#SVGID_00000008123417028234234740000015338707031379217037_);fill:#C42B53;" points="456.7,250.5 
				456.4,280.3 452.4,280.3 452.6,250.5 			"/>
			<polygon style="clip-path:url(#SVGID_00000008123417028234234740000015338707031379217037_);fill:#C32A53;" points="460.7,250.5 
				460.4,280.3 456.4,280.3 456.7,250.5 			"/>
			<polygon style="clip-path:url(#SVGID_00000008123417028234234740000015338707031379217037_);fill:#C22A53;" points="464.7,250.5 
				464.5,280.3 460.4,280.3 460.7,250.5 			"/>
			<polygon style="clip-path:url(#SVGID_00000008123417028234234740000015338707031379217037_);fill:#C12A53;" points="468.8,250.5 
				468.5,280.3 464.5,280.3 464.7,250.5 			"/>
			<polygon style="clip-path:url(#SVGID_00000008123417028234234740000015338707031379217037_);fill:#C02953;" points="472.8,250.5 
				472.5,280.3 468.5,280.3 468.8,250.5 			"/>
			<polygon style="clip-path:url(#SVGID_00000008123417028234234740000015338707031379217037_);fill:#BF2953;" points="476.8,250.5 
				476.6,280.3 472.5,280.3 472.8,250.5 			"/>
			<polygon style="clip-path:url(#SVGID_00000008123417028234234740000015338707031379217037_);fill:#BE2853;" points="480.9,250.5 
				480.6,280.3 476.6,280.3 476.8,250.5 			"/>
			<polygon style="clip-path:url(#SVGID_00000008123417028234234740000015338707031379217037_);fill:#BD2853;" points="484.9,250.5 
				484.6,280.3 480.6,280.3 480.9,250.5 			"/>
			<polygon style="clip-path:url(#SVGID_00000008123417028234234740000015338707031379217037_);fill:#BD2853;" points="484.6,280.3 
				484.9,250.5 585.4,250.5 585.4,280.3 			"/>
		</g>
	</g>
	<g>
		<polygon class="st54" points="473.9,280.3 585.4,250.5 372.8,250.5 		"/>
	</g>
	<g>
		<g>
			<defs>
				<polygon id="SVGID_00000137842986533151390120000003530510996120332710_" points="473.9,377.5 643,341 315.3,341 				"/>
			</defs>
			<clipPath id="SVGID_00000183209391133918865150000008828310030325870255_">
				<use xlink:href="#SVGID_00000137842986533151390120000003530510996120332710_"  style="overflow:visible;"/>
			</clipPath>
			<polygon style="clip-path:url(#SVGID_00000183209391133918865150000008828310030325870255_);fill:#8365AB;" points="354.1,341 
				353.7,377.5 315.3,377.5 315.3,341 			"/>
			<polygon style="clip-path:url(#SVGID_00000183209391133918865150000008828310030325870255_);fill:#8265AB;" points="410,341 
				409.7,377.5 353.7,377.5 354.1,341 			"/>
			<polygon style="clip-path:url(#SVGID_00000183209391133918865150000008828310030325870255_);fill:#8165AB;" points="466,341 
				465.6,377.5 409.7,377.5 410,341 			"/>
			<polygon style="clip-path:url(#SVGID_00000183209391133918865150000008828310030325870255_);fill:#8065AB;" points="521.9,341 
				521.6,377.5 465.6,377.5 466,341 			"/>
			<polygon style="clip-path:url(#SVGID_00000183209391133918865150000008828310030325870255_);fill:#7F65AB;" points="577.9,341 
				577.5,377.5 521.6,377.5 521.9,341 			"/>
			<polygon style="clip-path:url(#SVGID_00000183209391133918865150000008828310030325870255_);fill:#7E65AB;" points="633.8,341 
				633.4,377.5 577.5,377.5 577.9,341 			"/>
			<polygon style="clip-path:url(#SVGID_00000183209391133918865150000008828310030325870255_);fill:#7D65AB;" points="633.4,377.5 
				633.8,341 643,341 643,377.5 			"/>
		</g>
	</g>
	<g>
		<polygon class="st62" points="473.9,377.5 643,341 315.3,341 		"/>
	</g>
	<g>
		<polygon class="st63" points="479.7,84.3 478.5,84.3 430.4,160 527.9,160 		"/>
	</g>
	<g>
		<polygon class="st64" points="372.8,250.5 585.4,250.5 537.2,174.8 421,174.8 		"/>
	</g>
	<g>
		<polygon class="st65" points="315.3,341 643,341 594.8,265.2 363.4,265.2 		"/>
	</g>
</g>
<g>
	<g>
		<path class="st63" d="M591.3,158.8h475.4v-24.9c0-25.6-20.8-46.4-46.4-46.4h-429V158.8z"/>
	</g>
	<g>
		<polygon class="st63" points="599.6,79.2 599.6,165.1 549.6,120 		"/>
	</g>
</g>
<g>
	<g>
		<path class="st64" d="M651.3,249.2h475.4v-24.9c0-25.6-20.8-46.4-46.4-46.4h-429V249.2z"/>
	</g>
	<g>
		<polygon class="st64" points="659.5,169.7 659.5,255.6 609.6,210.4 		"/>
	</g>
</g>
<g>
	<g>
		<path class="st65" d="M692.7,339.7h475.4v-24.9c0-25.6-20.8-46.4-46.4-46.4h-429V339.7z"/>
	</g>
	<g>
		<polygon class="st65" points="700.9,260.1 700.9,346.1 651,300.9 		"/>
	</g>
</g>
<g>
	<path class="st66" d="M634.7,117.4c0-4.9,2.8-8.1,8.4-8.1c4.3,0,6.4,2.1,7.8,4.9l-4.2,2.1c-0.6-1.4-1.6-2.3-3.4-2.3
		c-2.4,0-3.3,1.7-3.3,3.7v5.8c0,2.1,1,3.7,3.4,3.7c1.8,0,2.8-0.9,3.5-2.3l4.1,2.1c-1.2,2.8-3.2,4.9-7.8,4.9c-5.7,0-8.5-3.3-8.5-8.1
		V117.4z"/>
	<path class="st66" d="M663,130.1c-1.2,1.1-2.8,1.8-4.8,1.8c-3.8,0-5.2-2.7-5.2-6.3v-11.6h5.1v10.5c0,1.9,0.7,2.5,1.9,2.5
		c0.9,0,1.8-0.5,2.5-1v-12h5.1v17.6h-4.1L663,130.1z"/>
	<path class="st66" d="M669.9,130l1.1-3.7c2.3,1,4.2,1.4,5.4,1.4c1.5,0,2-0.6,2-1.5c0-2.7-8.1-1-8.1-7.1c0-3.7,2.7-5.4,6.5-5.4
		c2.1,0,4.4,0.7,6,1.7l-1.2,3.6c-1.6-0.7-3.2-1.3-4.8-1.3c-1,0-1.6,0.3-1.6,1c0,2.5,8.1,0.9,8.1,7c0,4.1-2.2,6.1-6.8,6.1
		C674.4,131.9,672,131.3,669.9,130z"/>
	<path class="st66" d="M687.3,125.8v-7.7h-2.8v-3.8l2.9-0.2v-3.2l4.9-0.5v3.7h4.4v4.1h-4.4v8c0,0.9,0.7,1.3,1.6,1.3
		c0.9,0,1.6-0.2,2.3-0.4l1.1,3.6c-1.3,0.9-2.8,1.3-4.4,1.3C688.7,131.9,687.3,129.4,687.3,125.8z"/>
	<path class="st66" d="M698.9,125v-4.1c0-4.3,2.4-7.1,7.3-7.1c4.9,0,7.3,2.7,7.3,7.1v4.1c0,4.3-2.4,6.9-7.3,6.9
		C701.3,131.9,698.9,129.3,698.9,125z M704,121v3.8c0,1.9,0.5,2.8,2.2,2.8c1.7,0,2.2-0.9,2.2-2.8V121c0-1.9-0.5-2.8-2.2-2.8
		C704.5,118.2,704,119.1,704,121z"/>
	<path class="st66" d="M730.7,131.7h-5V121c0-1.7-0.7-2.4-1.9-2.4c-0.9,0-1.7,0.4-2.3,1v12h-5.1v-17.6h4.2l0.4,1.6
		c1.2-1,2.7-1.8,4.7-1.8c2.2,0,3.5,0.9,4.3,1.9c1.3-1.2,2.6-1.9,4.6-1.9c3.9,0,5.3,2.7,5.3,6.3v11.6h-5.1v-10.5c0-1.9-0.7-2.5-2-2.5
		c-0.7,0-1.5,0.3-2.1,0.7c0,0.4,0.1,0.8,0.1,1.2V131.7z"/>
	<path class="st66" d="M742.4,120.7c0-4.3,2.3-6.9,7.1-6.9c4.9,0,7,2.5,7,6.9v4h-9v1.2c0,1,0.6,1.8,2.4,1.8c1.6,0,2.7-0.1,5-1.1
		l1.2,3.6c-1.8,1.2-4.1,1.7-6.5,1.7c-4.8,0-7.2-2.5-7.2-6.5V120.7z M747.5,120.4v0.6h4.2v-0.6c0-1.6-0.5-2.5-2.1-2.5
		C748.1,117.9,747.5,118.8,747.5,120.4z"/>
	<path class="st66" d="M764.2,131.7h-5.1v-17.6h4.2l0.4,2.2c0.9-1.4,2.4-2.4,4-2.4c1,0,1.6,0.3,2.3,0.6l-1,4.7
		c-0.5-0.2-1-0.4-1.8-0.4c-1.1,0-2.2,0.6-3,1.6V131.7z"/>
	<path class="st66" d="M779.5,117.4c0-4.9,2.8-8.1,8.4-8.1c4.3,0,6.4,2.1,7.8,4.9l-4.2,2.1c-0.6-1.4-1.6-2.3-3.4-2.3
		c-2.4,0-3.3,1.7-3.3,3.7v5.8c0,2.1,1,3.7,3.4,3.7c1.8,0,2.8-0.9,3.5-2.3l4.2,2.1c-1.2,2.8-3.2,4.9-7.8,4.9c-5.7,0-8.5-3.3-8.5-8.1
		V117.4z"/>
	<path class="st66" d="M797.4,120.7c0-4.3,2.3-6.9,7.1-6.9c4.9,0,7,2.5,7,6.9v4h-9v1.2c0,1,0.6,1.8,2.4,1.8c1.6,0,2.7-0.1,5-1.1
		l1.2,3.6c-1.8,1.2-4.1,1.7-6.5,1.7c-4.8,0-7.2-2.5-7.2-6.5V120.7z M802.5,120.4v0.6h4.2v-0.6c0-1.6-0.5-2.5-2.1-2.5
		C803.1,117.9,802.5,118.8,802.5,120.4z"/>
	<path class="st66" d="M818.7,115.6c1.2-1.1,2.8-1.8,4.8-1.8c3.8,0,5.2,2.7,5.2,6.3v11.6h-5.1v-10.5c0-1.9-0.7-2.5-1.9-2.5
		c-0.9,0-1.8,0.5-2.5,1v12h-5.1v-17.6h4.1L818.7,115.6z"/>
	<path class="st66" d="M833.3,125.8v-7.7h-2.8v-3.8l2.9-0.2v-3.2l4.9-0.5v3.7h4.4v4.1h-4.4v8c0,0.9,0.7,1.3,1.6,1.3
		c0.9,0,1.6-0.2,2.3-0.4l1.1,3.6c-1.3,0.9-2.8,1.3-4.4,1.3C834.8,131.9,833.3,129.4,833.3,125.8z"/>
	<path class="st66" d="M850.8,131.7h-5.1v-17.6h4.2l0.4,2.2c0.9-1.4,2.4-2.4,4-2.4c1,0,1.6,0.3,2.3,0.6l-1,4.7
		c-0.5-0.2-1-0.4-1.8-0.4c-1.1,0-2.2,0.6-3,1.6V131.7z"/>
	<path class="st66" d="M858.5,107.3h5.2v5h-5.2V107.3z M858.6,114.1h5.1v17.6h-5.1V114.1z"/>
	<path class="st66" d="M866.5,120.9c0-4.3,2.4-7.1,7.3-7.1c3.4,0,5.4,1.6,6.6,3.8l-3.5,2.5c-0.9-1.4-1.7-2-2.9-2
		c-1.5,0-2.3,1-2.3,2.6v4.1c0,1.6,0.8,2.6,2.3,2.6c1,0,2-0.4,3-2l3.6,2.5c-1.5,2.3-3.3,3.9-6.6,3.9c-4.9,0-7.4-2.8-7.4-7.1V120.9z"
		/>
</g>
<g>
	<path class="st66" d="M697.8,202.1c5.8,0,9.2,3.4,9.2,11c0,7.1-3.5,11.2-8.6,11.2h-8.5v-22.2H697.8z M695.2,219.8h2.2
		c3.5,0,4.3-3.2,4.3-6.7c0-3.1-0.8-6.4-4.3-6.4h-2.2V219.8z"/>
	<path class="st66" d="M723.6,224.3h-4.2l-0.3-1.7c-0.9,1-2.2,2-4.4,2c-3,0-5.3-1.9-5.3-5.1c0-4.6,4.4-6.3,9.2-6.3v-0.8
		c0-1-0.5-1.7-2.3-1.7c-1.4,0-2.9,0.3-4.9,1.3l-1.3-3.5c2.1-1.3,4.4-2,6.7-2c4.7,0,7,2.3,7,6.4V224.3z M718.5,219.1v-2.6
		c-2.3,0-4.2,0.8-4.2,2.4c0,0.9,0.6,1.6,1.7,1.6C717.3,220.5,718.2,219.8,718.5,219.1z"/>
	<path class="st66" d="M728.2,218.4v-7.7h-2.8v-3.8l2.9-0.2v-3.2l4.9-0.5v3.7h4.4v4.1h-4.4v8c0,0.9,0.7,1.3,1.6,1.3
		c0.9,0,1.6-0.2,2.3-0.4l1.1,3.6c-1.3,0.9-2.8,1.3-4.4,1.3C729.7,224.5,728.2,222,728.2,218.4z"/>
	<path class="st66" d="M753.9,224.3h-4.2l-0.3-1.7c-0.9,1-2.2,2-4.4,2c-3,0-5.3-1.9-5.3-5.1c0-4.6,4.4-6.3,9.2-6.3v-0.8
		c0-1-0.5-1.7-2.3-1.7c-1.4,0-2.9,0.3-4.9,1.3l-1.3-3.5c2.1-1.3,4.4-2,6.7-2c4.7,0,7,2.3,7,6.4V224.3z M748.8,219.1v-2.6
		c-2.3,0-4.2,0.8-4.2,2.4c0,0.9,0.6,1.6,1.7,1.6C747.6,220.5,748.4,219.8,748.8,219.1z"/>
	<path class="st66" d="M773.3,202.1c5.8,0,9.2,3.4,9.2,11c0,7.1-3.5,11.2-8.6,11.2h-8.5v-22.2H773.3z M770.7,219.8h2.2
		c3.5,0,4.3-3.2,4.3-6.7c0-3.1-0.8-6.4-4.3-6.4h-2.2V219.8z"/>
	<path class="st66" d="M790.4,224.3h-5.1v-17.6h4.2l0.4,2.2c0.9-1.4,2.4-2.4,4-2.4c1,0,1.6,0.3,2.3,0.6l-1,4.7
		c-0.5-0.2-1-0.4-1.8-0.4c-1.1,0-2.2,0.6-3,1.6V224.3z"/>
	<path class="st66" d="M798.1,199.9h5.2v5h-5.2V199.9z M798.1,206.7h5.1v17.6h-5.1V206.7z"/>
	<path class="st66" d="M810.8,224.3l-5.4-17.6h5.4l2.5,11.2h0.1l2.5-11.2h5.4l-5.5,17.6H810.8z"/>
	<path class="st66" d="M822.7,213.4c0-4.3,2.3-6.9,7.1-6.9c4.9,0,7,2.5,7,6.9v4h-9v1.2c0,1,0.6,1.8,2.4,1.8c1.6,0,2.7-0.1,5-1.1
		l1.2,3.6c-1.8,1.2-4.1,1.7-6.5,1.7c-4.8,0-7.2-2.5-7.2-6.5V213.4z M827.8,213v0.6h4.2V213c0-1.6-0.5-2.5-2.1-2.5
		C828.4,210.5,827.8,211.5,827.8,213z"/>
	<path class="st66" d="M844,208.2c1.2-1.1,2.8-1.8,4.8-1.8c3.8,0,5.2,2.7,5.2,6.3v11.6H849v-10.5c0-1.9-0.7-2.5-1.9-2.5
		c-0.9,0-1.8,0.5-2.5,1v12h-5.1v-17.6h4.2L844,208.2z"/>
</g>
<g>
	<path class="st66" d="M739.9,308.8h8.3v4.8h-13.6v-22.2h5.3V308.8z"/>
	<path class="st66" d="M764.4,313.7h-4.2l-0.3-1.7c-0.9,1-2.2,2-4.4,2c-3,0-5.3-1.9-5.3-5.1c0-4.6,4.4-6.3,9.2-6.3v-0.8
		c0-1-0.5-1.7-2.3-1.7c-1.4,0-2.9,0.3-4.9,1.3l-1.3-3.5c2.1-1.3,4.4-2,6.7-2c4.7,0,7,2.3,7,6.4V313.7z M759.3,308.5v-2.6
		c-2.3,0-4.2,0.8-4.2,2.4c0,0.9,0.6,1.6,1.7,1.6C758.1,309.9,758.9,309.2,759.3,308.5z"/>
	<path class="st66" d="M776.5,311.9c-0.9,0.9-2.4,1.6-3.9,1.6c-3.7,0-5.6-2.6-5.6-6.9v-3.7c0-4.3,1.9-7,5.8-7c1.6,0,3.3,0.8,4.2,1.9
		l0.4-1.6h4.1v16.9c0,4.4-2.8,7.4-7.5,7.4c-2.3,0-4.8-0.5-6.4-1.6l1.3-3.7c2.1,0.8,3.2,1,4.7,1c2,0,2.9-1,2.9-2.3V311.9z
		 M776.5,301.7c-0.6-0.7-1.4-1.2-2.2-1.2c-1.5,0-2.2,0.9-2.2,2.8v2.5c0,1.9,0.7,2.8,2.2,2.8c0.9,0,1.6-0.4,2.2-1.1V301.7z"/>
	<path class="st66" d="M784.3,307v-4.1c0-4.3,2.4-7.1,7.3-7.1s7.3,2.7,7.3,7.1v4.1c0,4.3-2.4,6.9-7.3,6.9S784.3,311.2,784.3,307z
		 M789.4,303v3.8c0,1.9,0.5,2.8,2.2,2.8c1.7,0,2.2-0.9,2.2-2.8V303c0-1.9-0.5-2.8-2.2-2.8C789.9,300.2,789.4,301,789.4,303z"/>
	<path class="st66" d="M818.5,289.9h5.1v23.8h-4.1l-0.4-1.6c-0.9,1.1-2.6,1.9-4.2,1.9c-3.9,0-5.8-2.6-5.8-7v-4.2
		c0-4.3,1.9-6.9,5.6-6.9c1.5,0,3,0.7,3.9,1.6V289.9z M818.5,301.7c-0.6-0.7-1.4-1.1-2.2-1.1c-1.5,0-2.2,0.9-2.2,2.8v3
		c0,1.9,0.7,2.8,2.2,2.8c0.9,0,1.6-0.5,2.2-1.2V301.7z"/>
	<path class="st66" d="M826.4,302.7c0-4.3,2.3-6.9,7.1-6.9c4.9,0,7,2.5,7,6.9v4h-9v1.2c0,1,0.6,1.8,2.4,1.8c1.6,0,2.7-0.1,5-1.1
		l1.2,3.6c-1.8,1.2-4.1,1.7-6.5,1.7c-4.8,0-7.2-2.5-7.2-6.5V302.7z M831.5,302.4v0.6h4.2v-0.6c0-1.6-0.5-2.5-2.1-2.5
		C832.1,299.9,831.5,300.8,831.5,302.4z"/>
	<path class="st66" d="M859.4,291.5c5.8,0,9.2,3.4,9.2,11c0,7.1-3.5,11.2-8.6,11.2h-8.5v-22.2H859.4z M856.7,309.2h2.2
		c3.5,0,4.3-3.2,4.3-6.7c0-3.1-0.8-6.4-4.3-6.4h-2.2V309.2z"/>
	<path class="st66" d="M885.2,313.7H881l-0.3-1.7c-0.9,1-2.2,2-4.4,2c-3,0-5.3-1.9-5.3-5.1c0-4.6,4.4-6.3,9.2-6.3v-0.8
		c0-1-0.5-1.7-2.3-1.7c-1.4,0-2.9,0.3-4.9,1.3l-1.3-3.5c2.1-1.3,4.4-2,6.7-2c4.7,0,7,2.3,7,6.4V313.7z M880.1,308.5v-2.6
		c-2.3,0-4.2,0.8-4.2,2.4c0,0.9,0.6,1.6,1.7,1.6C878.9,309.9,879.7,309.2,880.1,308.5z"/>
	<path class="st66" d="M889.8,307.8v-7.7H887v-3.8l2.9-0.2v-3.2l4.9-0.5v3.7h4.4v4.1h-4.4v8c0,0.9,0.7,1.3,1.6,1.3
		c0.9,0,1.6-0.2,2.3-0.4l1.1,3.6c-1.3,0.9-2.8,1.3-4.4,1.3C891.2,313.9,889.8,311.4,889.8,307.8z"/>
	<path class="st66" d="M901.4,307v-4.1c0-4.3,2.4-7.1,7.3-7.1s7.3,2.7,7.3,7.1v4.1c0,4.3-2.4,6.9-7.3,6.9S901.4,311.2,901.4,307z
		 M906.5,303v3.8c0,1.9,0.5,2.8,2.2,2.8c1.7,0,2.2-0.9,2.2-2.8V303c0-1.9-0.5-2.8-2.2-2.8C907,300.2,906.5,301,906.5,303z"/>
	<path class="st66" d="M917.8,312l1.1-3.7c2.3,1,4.2,1.4,5.4,1.4c1.5,0,2-0.6,2-1.5c0-2.7-8.1-1-8.1-7.1c0-3.7,2.7-5.4,6.5-5.4
		c2.1,0,4.4,0.7,6,1.7l-1.2,3.6c-1.6-0.7-3.2-1.3-4.8-1.3c-1,0-1.6,0.3-1.6,1c0,2.5,8.1,0.9,8.1,7c0,4.1-2.2,6.1-6.8,6.1
		C922.4,313.9,920,313.3,917.8,312z"/>
</g>
<g>
	<rect x="66.7" y="69.8" class="st67" width="86.1" height="309"/>
</g>
<g>
	<g>
		<path class="st66" d="M97.5,314.8h-6.4c-4.9,0-8.1-2.8-8.1-8.4c0-5.6,3.3-8.4,8.1-8.4h6.4c4.9,0,8.1,2.7,8.1,8.4
			C105.6,312.1,102.4,314.8,97.5,314.8z M97.1,303.3h-5.8c-2.4,0-3.7,0.8-3.7,3.1c0,2.3,1.3,3.1,3.7,3.1h5.8c2.5,0,3.8-0.8,3.8-3.1
			C100.9,304.1,99.6,303.3,97.1,303.3z"/>
		<path class="st66" d="M83.2,286.4c0-4.9,2.6-7.3,6.2-7.3c2,0,3.5,1,4.3,2.6h0.1c1-2,2.8-3,5-3c4.3,0,6.5,2.6,6.5,8v8H83.2V286.4z
			 M91.9,289.5v-2.9c0-1.6-0.7-2.2-2.1-2.2c-1.4,0-2.1,0.6-2.1,2.2v2.9H91.9z M100.8,289.5v-2.4c0-2-0.5-3-2.3-3
			c-1.8,0-2.3,1-2.3,2.8v2.6H100.8z"/>
		<path class="st66" d="M97.5,266.2c4.5,0,8.1,1,8.1,7.2c0,0.9-0.2,2.3-0.6,3.6l-4.3-0.3c0.2-1.4,0.3-2.2,0.3-2.8
			c0-2.1-1.2-2.4-3.4-2.4H83.2v-5.3H97.5z"/>
		<path class="st66" d="M105.3,262.2H83.2v-13.6h4.5v8.3h4.1v-7.6h4.5v7.6h4.6v-8.3h4.5V262.2z"/>
		<path class="st66" d="M83.2,229.2H88v5.7h17.4v5.3H88v5.8h-4.8V229.2z"/>
		<path class="st66" d="M83.2,226v-5.3h22.2v5.3H83.2z"/>
		<path class="st66" d="M97.5,209l-14.3-3.5v-5.7l22.2,6.9v4.8l-22.2,6.6v-5.4l14.3-3.5V209z"/>
		<path class="st66" d="M97.5,198h-6.4c-4.9,0-8.1-2.8-8.1-8.4c0-5.6,3.3-8.4,8.1-8.4h6.4c4.9,0,8.1,2.7,8.1,8.4
			C105.6,195.2,102.4,198,97.5,198z M97.1,186.5h-5.8c-2.4,0-3.7,0.8-3.7,3.1c0,2.3,1.3,3.1,3.7,3.1h5.8c2.5,0,3.8-0.8,3.8-3.1
			C100.9,187.2,99.6,186.5,97.1,186.5z"/>
		<path class="st66" d="M103.2,179.4l-4-1.8c1.2-2.6,1.7-4.5,1.7-6.2c0-2.1-1-2.9-2.1-2.9c-4,0-1.6,10.2-9.5,10.2
			c-4.1,0-6.5-2.6-6.5-7.4c0-3.2,1.2-5.7,2.3-7.4l3.8,2.2c-1,1.8-1.6,3.4-1.6,5c0,1.7,0.7,2.5,1.7,2.5c3.2,0,1.5-10.3,9.5-10.3
			c4.3,0,6.9,2.5,6.9,8.3C105.6,174.9,104.3,177.6,103.2,179.4z"/>
	</g>
	<g>
		<path class="st66" d="M138,314.1h-22.2v-13.6h4.5v8.3h4.1v-7.6h4.5v7.6h4.6v-8.3h4.5V314.1z"/>
		<path class="st66" d="M123.7,297.5c-4.9,0-8.1-2.8-8.1-8.4c0-4.3,2.1-6.4,4.9-7.8l2.1,4.2c-1.4,0.6-2.3,1.6-2.3,3.4
			c0,2.4,1.7,3.3,3.7,3.3h5.8c2.1,0,3.7-1,3.7-3.4c0-1.8-0.9-2.8-2.3-3.5l2.1-4.2c2.8,1.2,4.9,3.2,4.9,7.8c0,5.7-3.3,8.5-8.1,8.5
			H123.7z"/>
		<path class="st66" d="M130.2,279.5h-6.4c-4.9,0-8.1-2.8-8.1-8.4c0-5.6,3.3-8.4,8.1-8.4h6.4c4.9,0,8.1,2.7,8.1,8.4
			C138.3,276.7,135.1,279.5,130.2,279.5z M129.8,268H124c-2.4,0-3.7,0.8-3.7,3.1s1.3,3.1,3.7,3.1h5.8c2.5,0,3.8-0.8,3.8-3.1
			S132.3,268,129.8,268z"/>
		<path class="st66" d="M138,242v4.6l-12.2,7.5v0.1H138v5.1h-22.2v-4.7l11.8-7.4v-0.1h-11.8V242H138z"/>
		<path class="st66" d="M107.7,226.3l6.1,3.3v3.5l-6.1-1.7V226.3z M130.2,239h-6.4c-4.9,0-8.1-2.8-8.1-8.4c0-5.6,3.3-8.4,8.1-8.4
			h6.4c4.9,0,8.1,2.7,8.1,8.4C138.3,236.2,135.1,239,130.2,239z M129.8,227.5H124c-2.4,0-3.7,0.8-3.7,3.1s1.3,3.1,3.7,3.1h5.8
			c2.5,0,3.8-0.8,3.8-3.1S132.3,227.5,129.8,227.5z"/>
		<path class="st66" d="M134.4,210.2l-6.9,3.4v0.1H138v5.1h-22.2v-4.2l11.5-5.9v-0.1l-11.5-5.9v-4.2H138v5.1h-10.6v0.1l6.9,3.4
			V210.2z"/>
		<path class="st66" d="M115.9,194.5v-5.3H138v5.3H115.9z"/>
		<path class="st66" d="M123.7,185.9c-4.9,0-8.1-2.8-8.1-8.4c0-4.3,2.1-6.4,4.9-7.8l2.1,4.2c-1.4,0.6-2.3,1.6-2.3,3.4
			c0,2.4,1.7,3.3,3.7,3.3h5.8c2.1,0,3.7-1,3.7-3.4c0-1.8-0.9-2.8-2.3-3.5l2.1-4.1c2.8,1.2,4.9,3.2,4.9,7.8c0,5.7-3.3,8.5-8.1,8.5
			H123.7z"/>
		<path class="st66" d="M130.2,167.9h-6.4c-4.9,0-8.1-2.8-8.1-8.4c0-5.6,3.3-8.4,8.1-8.4h6.4c4.9,0,8.1,2.7,8.1,8.4
			C138.3,165.2,135.1,167.9,130.2,167.9z M129.8,156.4H124c-2.4,0-3.7,0.8-3.7,3.1s1.3,3.1,3.7,3.1h5.8c2.5,0,3.8-0.8,3.8-3.1
			S132.3,156.4,129.8,156.4z"/>
		<path class="st66" d="M135.9,149.3l-4-1.8c1.2-2.6,1.7-4.5,1.7-6.2c0-2.1-1-2.9-2.1-2.9c-4,0-1.6,10.2-9.5,10.2
			c-4.1,0-6.5-2.6-6.5-7.4c0-3.2,1.2-5.7,2.3-7.4l3.8,2.2c-1,1.8-1.6,3.4-1.6,5c0,1.7,0.7,2.5,1.7,2.5c3.2,0,1.5-10.3,9.5-10.3
			c4.3,0,6.9,2.5,6.9,8.3C138.3,144.9,137,147.5,135.9,149.3z"/>
	</g>
</g>
<g>
	<rect x="169.2" y="69.8" class="st67" width="86.1" height="309"/>
</g>
<g>
	<g>
		<path class="st66" d="M222,341.7l-4-1.8c1.2-2.6,1.7-4.5,1.7-6.2c0-2.1-1-2.9-2.1-2.9c-4,0-1.6,10.2-9.5,10.2
			c-4.1,0-6.5-2.6-6.5-7.4c0-3.2,1.2-5.7,2.3-7.4l3.8,2.2c-1,1.8-1.6,3.4-1.6,5c0,1.7,0.7,2.5,1.7,2.5c3.2,0,1.5-10.3,9.5-10.3
			c4.3,0,6.9,2.5,6.9,8.3C224.4,337.3,223,340,222,341.7z"/>
		<path class="st66" d="M216.3,323.6h-6.4c-4.9,0-8.1-2.8-8.1-8.4c0-5.6,3.3-8.4,8.1-8.4h6.4c4.9,0,8.1,2.7,8.1,8.4
			C224.4,320.9,221.2,323.6,216.3,323.6z M215.9,312.1h-5.8c-2.4,0-3.7,0.8-3.7,3.1c0,2.3,1.3,3.1,3.7,3.1h5.8
			c2.5,0,3.8-0.8,3.8-3.1C219.7,312.9,218.4,312.1,215.9,312.1z"/>
		<path class="st66" d="M222,305l-4-1.8c1.2-2.6,1.7-4.5,1.7-6.2c0-2.1-1-2.9-2.1-2.9c-4,0-1.6,10.2-9.5,10.2
			c-4.1,0-6.5-2.6-6.5-7.4c0-3.2,1.2-5.7,2.3-7.4l3.8,2.2c-1,1.8-1.6,3.4-1.6,5c0,1.7,0.7,2.5,1.7,2.5c3.2,0,1.5-10.3,9.5-10.3
			c4.3,0,6.9,2.5,6.9,8.3C224.4,300.6,223,303.2,222,305z"/>
		<path class="st66" d="M202,271h4.8v5.7h17.4v5.3h-17.4v5.8H202V271z"/>
		<path class="st66" d="M224.1,267.8H202v-13.6h4.5v8.3h4.1v-7.6h4.5v7.6h4.6v-8.3h4.5V267.8z"/>
		<path class="st66" d="M224.1,233.1v4.6l-12.2,7.5v0.1h12.2v5.1H202v-4.7l11.8-7.4v-0.1H202v-5.1H224.1z"/>
		<path class="st66" d="M202,229.4v-5.3h22.2v5.3H202z"/>
		<path class="st66" d="M202,211.7c0-4.9,2.6-7.3,6.2-7.3c2,0,3.5,1,4.3,2.6h0.1c1-2,2.8-3,5-3c4.3,0,6.5,2.6,6.5,8v8H202V211.7z
			 M210.7,214.9V212c0-1.6-0.7-2.2-2.1-2.2c-1.4,0-2.1,0.6-2.1,2.2v2.9H210.7z M219.6,214.9v-2.4c0-2-0.5-3-2.3-3
			c-1.8,0-2.3,1-2.3,2.8v2.6H219.6z"/>
		<path class="st66" d="M202,201v-5.3h22.2v5.3H202z"/>
		<path class="st66" d="M219.3,186.4v-8.3h4.8v13.6H202v-5.3H219.3z"/>
		<path class="st66" d="M202,175.2V170h22.2v5.3H202z"/>
		<path class="st66" d="M202,158.1c0-5.8,3.4-9.2,11-9.2c7.1,0,11.2,3.5,11.2,8.6v8.5H202V158.1z M219.6,160.7v-2.2
			c0-3.5-3.2-4.3-6.7-4.3c-3.1,0-6.4,0.8-6.4,4.3v2.2H219.6z"/>
		<path class="st66" d="M202,136.5l22.2-7v5.5l-4.3,1.3v5.5l4.3,1.3v5.5l-22.2-7V136.5z M215.3,137.2l-6.4,1.6v0.1l6.4,1.6V137.2z"
			/>
		<path class="st66" d="M202,119.3c0-5.8,3.4-9.2,11-9.2c7.1,0,11.2,3.5,11.2,8.6v8.5H202V119.3z M219.6,121.9v-2.2
			c0-3.5-3.2-4.3-6.7-4.3c-3.1,0-6.4,0.8-6.4,4.3v2.2H219.6z"/>
	</g>
</g>
<g>
	<rect x="1213.2" y="69.8" class="st67" width="86.1" height="309"/>
</g>
<g>
	<g>
		<path class="st66" d="M1246.5,309.3V304h22.2v5.3H1246.5z"/>
		<path class="st66" d="M1268.7,282.6v4.6l-12.2,7.5v0.1h12.2v5.1h-22.2v-4.7l11.8-7.4v-0.1h-11.8v-5.1H1268.7z"/>
		<path class="st66" d="M1268.7,261.5v4.6l-12.2,7.5v0.1h12.2v5.1h-22.2v-4.7l11.8-7.4v-0.1h-11.8v-5.1H1268.7z"/>
		<path class="st66" d="M1260.9,258.5h-6.4c-4.9,0-8.1-2.8-8.1-8.4c0-5.6,3.3-8.4,8.1-8.4h6.4c4.9,0,8.1,2.7,8.1,8.4
			C1269,255.7,1265.8,258.5,1260.9,258.5z M1260.5,247h-5.8c-2.4,0-3.7,0.8-3.7,3.1s1.3,3.1,3.7,3.1h5.8c2.5,0,3.8-0.8,3.8-3.1
			S1263,247,1260.5,247z"/>
		<path class="st66" d="M1260.9,231.3l-14.3-3.5v-5.7l22.2,6.9v4.8l-22.2,6.6V235l14.3-3.5V231.3z"/>
		<path class="st66" d="M1246.5,211.8l22.2-7v5.5l-4.3,1.3v5.5l4.3,1.3v5.5l-22.2-7V211.8z M1259.8,212.6l-6.4,1.6v0.1l6.4,1.6
			V212.6z"/>
		<path class="st66" d="M1254.4,203.8c-4.9,0-8.1-2.8-8.1-8.4c0-4.3,2.1-6.4,4.9-7.8l2.1,4.2c-1.4,0.6-2.3,1.6-2.3,3.4
			c0,2.4,1.7,3.3,3.7,3.3h5.8c2.1,0,3.7-1,3.7-3.4c0-1.8-0.9-2.8-2.3-3.5l2.1-4.1c2.8,1.2,4.9,3.2,4.9,7.8c0,5.7-3.3,8.5-8.1,8.5
			H1254.4z"/>
		<path class="st66" d="M1246.5,185.1v-5.3h22.2v5.3H1246.5z"/>
		<path class="st66" d="M1238.4,163.8l6,3.3v3.5l-6-1.7V163.8z M1260.9,176.5h-6.4c-4.9,0-8.1-2.8-8.1-8.4c0-5.6,3.3-8.4,8.1-8.4
			h6.4c4.9,0,8.1,2.7,8.1,8.4C1269,173.7,1265.8,176.5,1260.9,176.5z M1260.5,165h-5.8c-2.4,0-3.7,0.8-3.7,3.1
			c0,2.3,1.3,3.1,3.7,3.1h5.8c2.5,0,3.8-0.8,3.8-3.1C1264.3,165.8,1263,165,1260.5,165z"/>
		<path class="st66" d="M1268.7,139v4.6l-12.2,7.5v0.1h12.2v5.1h-22.2v-4.7l11.8-7.4v-0.1h-11.8V139H1268.7z"/>
	</g>
</g>
</svg>
