<?xml version="1.0" encoding="UTF-8"?>
<svg id="Capa_1" data-name="Capa 1" xmlns="http://www.w3.org/2000/svg" viewBox="0 0 594.96 169.54">
  <defs>
    <style>
      .cls-1, .cls-2, .cls-3 {
        stroke-linecap: round;
        stroke-linejoin: round;
      }

      .cls-1, .cls-2, .cls-3, .cls-4, .cls-5 {
        fill: none;
        stroke: #3a61d9;
      }

      .cls-1, .cls-4 {
        stroke-width: 1.5px;
      }

      .cls-2 {
        stroke-width: 1.52px;
      }

      .cls-4, .cls-5 {
        stroke-miterlimit: 10;
      }

      .cls-5 {
        stroke-width: 1.52px;
      }

      .cls-6 {
        fill: #2550d6;
        font-family: Roboto-Bold, Roboto;
        font-weight: 700;
        opacity: .6;
      }

      .cls-6, .cls-7 {
        font-size: 8.25px;
      }

      .cls-7 {
        fill: #91a6e9;
      }

      .cls-7, .cls-8 {
        font-family: Roboto-Regular, Roboto;
      }

      .cls-8 {
        fill: #494e54;
        font-size: 11px;
      }

      .cls-9 {
        fill: #3a61d9;
        stroke-width: 0px;
      }
    </style>
  </defs>
  <g>
    <g>
      <text class="cls-6" transform="translate(88.08 27.35)"><tspan x="0" y="0">R</tspan></text>
      <text class="cls-6" transform="translate(93.49 27.35)"><tspan x="0" y="0">A</tspan></text>
      <text class="cls-6" transform="translate(98.14 27.35)"><tspan x="0" y="0">T</tspan></text>
      <text class="cls-6" transform="translate(103.54 27.35)"><tspan x="0" y="0">I</tspan></text>
      <text class="cls-6" transform="translate(105.94 27.35)"><tspan x="0" y="0">N</tspan></text>
      <text class="cls-6" transform="translate(112.09 27.35)"><tspan x="0" y="0">G</tspan></text>
      <text class="cls-6" transform="translate(118.25 27.35)"><tspan x="0" y="0"> </tspan></text>
      <text class="cls-6" transform="translate(120.65 27.35)"><tspan x="0" y="0">I</tspan></text>
      <text class="cls-6" transform="translate(123.05 27.35)"><tspan x="0" y="0">N</tspan></text>
      <text class="cls-6" transform="translate(129.2 27.35)"><tspan x="0" y="0">F</tspan></text>
      <text class="cls-6" transform="translate(133.85 27.35)"><tspan x="0" y="0">O</tspan></text>
      <text class="cls-6" transform="translate(140.01 27.35)"><tspan x="0" y="0">R</tspan></text>
      <text class="cls-6" transform="translate(145.41 27.35)"><tspan x="0" y="0">M</tspan></text>
      <text class="cls-6" transform="translate(153.06 27.35)"><tspan x="0" y="0">A</tspan></text>
    </g>
    <text class="cls-8" transform="translate(88.08 43.85)"><tspan x="0" y="0">1</tspan></text>
    <text class="cls-8" transform="translate(93.33 43.85)"><tspan x="0" y="0">8</tspan></text>
    <text class="cls-8" transform="translate(99.34 43.85)"><tspan x="0" y="0">/</tspan></text>
    <text class="cls-8" transform="translate(103.51 43.85)"><tspan x="0" y="0">2</tspan></text>
    <text class="cls-8" transform="translate(109.52 43.85)"><tspan x="0" y="0">0</tspan></text>
    <text class="cls-7" transform="translate(88.08 56.61)"><tspan x="0" y="0">R</tspan></text>
    <text class="cls-7" transform="translate(93.33 56.61)"><tspan x="0" y="0">i</tspan></text>
    <text class="cls-7" transform="translate(95.59 56.61)"><tspan x="0" y="0">e</tspan></text>
    <text class="cls-7" transform="translate(100.09 56.61)"><tspan x="0" y="0">s</tspan></text>
    <text class="cls-7" transform="translate(104.59 56.61)"><tspan x="0" y="0">g</tspan></text>
    <text class="cls-7" transform="translate(109.09 56.61)"><tspan x="0" y="0">o</tspan></text>
    <text class="cls-7" transform="translate(113.59 56.61)"><tspan x="0" y="0"> </tspan></text>
    <text class="cls-7" transform="translate(115.85 56.61)"><tspan x="0" y="0">d</tspan></text>
    <text class="cls-7" transform="translate(120.35 56.61)"><tspan x="0" y="0">e</tspan></text>
    <text class="cls-7" transform="translate(124.85 56.61)"><tspan x="0" y="0"> </tspan></text>
    <text class="cls-7" transform="translate(127.1 56.61)"><tspan x="0" y="0">C</tspan></text>
    <text class="cls-7" transform="translate(132.35 56.61)"><tspan x="0" y="0">e</tspan></text>
    <text class="cls-7" transform="translate(136.85 56.61)"><tspan x="0" y="0">s</tspan></text>
    <text class="cls-7" transform="translate(141.36 56.61)"><tspan x="0" y="0">e</tspan></text>
    <text class="cls-7" transform="translate(145.86 56.61)"><tspan x="0" y="0"> </tspan></text>
    <text class="cls-7" transform="translate(148.11 56.61)"><tspan x="0" y="0">B</tspan></text>
    <text class="cls-7" transform="translate(153.36 56.61)"><tspan x="0" y="0">a</tspan></text>
    <text class="cls-7" transform="translate(157.86 56.61)"><tspan x="0" y="0">j</tspan></text>
    <text class="cls-7" transform="translate(160.12 56.61)"><tspan x="0" y="0">o</tspan></text>
    <g>
      <text class="cls-6" transform="translate(352.04 27.35)"><tspan x="0" y="0">O</tspan></text>
      <text class="cls-6" transform="translate(358.19 27.35)"><tspan x="0" y="0">P</tspan></text>
      <text class="cls-6" transform="translate(363.59 27.35)"><tspan x="0" y="0">I</tspan></text>
      <text class="cls-6" transform="translate(365.99 27.35)"><tspan x="0" y="0">N</tspan></text>
      <text class="cls-6" transform="translate(372.14 27.35)"><tspan x="0" y="0">I</tspan></text>
      <text class="cls-6" transform="translate(374.54 27.35)"><tspan x="0" y="0">Ó</tspan></text>
      <text class="cls-6" transform="translate(380.7 27.35)"><tspan x="0" y="0">N</tspan></text>
      <text class="cls-6" transform="translate(386.85 27.35)"><tspan x="0" y="0"> </tspan></text>
      <text class="cls-6" transform="translate(389.25 27.35)"><tspan x="0" y="0">D</tspan></text>
      <text class="cls-6" transform="translate(394.65 27.35)"><tspan x="0" y="0">E</tspan></text>
      <text class="cls-6" transform="translate(399.31 27.35)"><tspan x="0" y="0"> </tspan></text>
      <text class="cls-6" transform="translate(401.71 27.35)"><tspan x="0" y="0">C</tspan></text>
      <text class="cls-6" transform="translate(407.11 27.35)"><tspan x="0" y="0">R</tspan></text>
      <text class="cls-6" transform="translate(412.51 27.35)"><tspan x="0" y="0">É</tspan></text>
      <text class="cls-6" transform="translate(417.16 27.35)"><tspan x="0" y="0">D</tspan></text>
      <text class="cls-6" transform="translate(422.57 27.35)"><tspan x="0" y="0">I</tspan></text>
      <text class="cls-6" transform="translate(424.97 27.35)"><tspan x="0" y="0">T</tspan></text>
      <text class="cls-6" transform="translate(430.37 27.35)"><tspan x="0" y="0">O</tspan></text>
    </g>
    <text class="cls-8" transform="translate(352.04 43.85)"><tspan x="0" y="0">2</tspan></text>
    <text class="cls-8" transform="translate(358.04 43.85)"><tspan x="0" y="0">.</tspan></text>
    <text class="cls-8" transform="translate(360.29 43.85)"><tspan x="0" y="0">0</tspan></text>
    <text class="cls-8" transform="translate(366.29 43.85)"><tspan x="0" y="0">0</tspan></text>
    <text class="cls-8" transform="translate(372.29 43.85)"><tspan x="0" y="0">0</tspan></text>
    <text class="cls-8" transform="translate(378.3 43.85)"><tspan x="0" y="0">.</tspan></text>
    <text class="cls-8" transform="translate(380.55 43.85)"><tspan x="0" y="0">0</tspan></text>
    <text class="cls-8" transform="translate(386.55 43.85)"><tspan x="0" y="0">0</tspan></text>
    <text class="cls-8" transform="translate(392.55 43.85)"><tspan x="0" y="0">0</tspan></text>
    <text class="cls-8" transform="translate(398.56 43.85)"><tspan x="0" y="0"> </tspan></text>
    <text class="cls-8" transform="translate(401.56 43.85)"><tspan x="0" y="0">€</tspan></text>
    <g>
      <text class="cls-6" transform="translate(88.08 78.37)"><tspan x="0" y="0">S</tspan></text>
      <text class="cls-6" transform="translate(93.49 78.37)"><tspan x="0" y="0">C</tspan></text>
      <text class="cls-6" transform="translate(98.89 78.37)"><tspan x="0" y="0">O</tspan></text>
      <text class="cls-6" transform="translate(105.04 78.37)"><tspan x="0" y="0">R</tspan></text>
      <text class="cls-6" transform="translate(110.44 78.37)"><tspan x="0" y="0">E</tspan></text>
      <text class="cls-6" transform="translate(115.09 78.37)"><tspan x="0" y="0"> </tspan></text>
      <text class="cls-6" transform="translate(117.5 78.37)"><tspan x="0" y="0">L</tspan></text>
      <text class="cls-6" transform="translate(122.15 78.37)"><tspan x="0" y="0">I</tspan></text>
      <text class="cls-6" transform="translate(124.55 78.37)"><tspan x="0" y="0">Q</tspan></text>
      <text class="cls-6" transform="translate(130.7 78.37)"><tspan x="0" y="0">U</tspan></text>
      <text class="cls-6" transform="translate(136.1 78.37)"><tspan x="0" y="0">I</tspan></text>
      <text class="cls-6" transform="translate(138.51 78.37)"><tspan x="0" y="0">D</tspan></text>
      <text class="cls-6" transform="translate(143.91 78.37)"><tspan x="0" y="0">E</tspan></text>
      <text class="cls-6" transform="translate(148.56 78.37)"><tspan x="0" y="0">Z</tspan></text>
    </g>
    <text class="cls-8" transform="translate(88.08 94.87)"><tspan x="0" y="0">9</tspan></text>
    <text class="cls-8" transform="translate(94.09 94.87)"><tspan x="0" y="0">5</tspan></text>
    <text class="cls-8" transform="translate(100.09 94.87)"><tspan x="0" y="0">/</tspan></text>
    <text class="cls-8" transform="translate(104.13 94.87)"><tspan x="0" y="0">1</tspan></text>
    <text class="cls-8" transform="translate(109.39 94.87)"><tspan x="0" y="0">0</tspan></text>
    <text class="cls-8" transform="translate(115.39 94.87)"><tspan x="0" y="0">0</tspan></text>
    <text class="cls-7" transform="translate(88.08 107.63)"><tspan x="0" y="0">(</tspan></text>
    <text class="cls-7" transform="translate(91.08 107.63)"><tspan x="0" y="0">P</tspan></text>
    <text class="cls-7" transform="translate(96.34 107.63)"><tspan x="0" y="0">r</tspan></text>
    <text class="cls-7" transform="translate(99.34 107.63)"><tspan x="0" y="0">o</tspan></text>
    <text class="cls-7" transform="translate(103.84 107.63)"><tspan x="0" y="0">b</tspan></text>
    <text class="cls-7" transform="translate(108.34 107.63)"><tspan x="0" y="0">a</tspan></text>
    <text class="cls-7" transform="translate(112.84 107.63)"><tspan x="0" y="0">b</tspan></text>
    <text class="cls-7" transform="translate(117.35 107.63)"><tspan x="0" y="0">i</tspan></text>
    <text class="cls-7" transform="translate(119.6 107.63)"><tspan x="0" y="0">l</tspan></text>
    <text class="cls-7" transform="translate(121.85 107.63)"><tspan x="0" y="0">i</tspan></text>
    <text class="cls-7" transform="translate(124.1 107.63)"><tspan x="0" y="0">d</tspan></text>
    <text class="cls-7" transform="translate(128.6 107.63)"><tspan x="0" y="0">a</tspan></text>
    <text class="cls-7" transform="translate(133.1 107.63)"><tspan x="0" y="0">d</tspan></text>
    <text class="cls-7" transform="translate(137.6 107.63)"><tspan x="0" y="0"> </tspan></text>
    <text class="cls-7" transform="translate(139.86 107.63)"><tspan x="0" y="0">d</tspan></text>
    <text class="cls-7" transform="translate(144.36 107.63)"><tspan x="0" y="0">e</tspan></text>
    <text class="cls-7" transform="translate(148.86 107.63)"><tspan x="0" y="0"> </tspan></text>
    <text class="cls-7" transform="translate(151.11 107.63)"><tspan x="0" y="0">r</tspan></text>
    <text class="cls-7" transform="translate(154.11 107.63)"><tspan x="0" y="0">e</tspan></text>
    <text class="cls-7" transform="translate(158.61 107.63)"><tspan x="0" y="0">t</tspan></text>
    <text class="cls-7" transform="translate(161.62 107.63)"><tspan x="0" y="0">r</tspan></text>
    <text class="cls-7" transform="translate(164.62 107.63)"><tspan x="0" y="0">a</tspan></text>
    <text class="cls-7" transform="translate(169.12 107.63)"><tspan x="0" y="0">s</tspan></text>
    <text class="cls-7" transform="translate(173.62 107.63)"><tspan x="0" y="0">o</tspan></text>
    <text class="cls-7" transform="translate(178.12 107.63)"><tspan x="0" y="0">s</tspan></text>
    <text class="cls-7" transform="translate(182.62 107.63)"><tspan x="0" y="0"> </tspan></text>
    <text class="cls-7" transform="translate(184.88 107.63)"><tspan x="0" y="0">e</tspan></text>
    <text class="cls-7" transform="translate(189.38 107.63)"><tspan x="0" y="0">n</tspan></text>
    <text class="cls-7" transform="translate(193.88 107.63)"><tspan x="0" y="0"> </tspan></text>
    <text class="cls-7" transform="translate(196.13 107.63)"><tspan x="0" y="0">p</tspan></text>
    <text class="cls-7" transform="translate(200.63 107.63)"><tspan x="0" y="0">a</tspan></text>
    <text class="cls-7" transform="translate(205.13 107.63)"><tspan x="0" y="0">g</tspan></text>
    <text class="cls-7" transform="translate(209.64 107.63)"><tspan x="0" y="0">o</tspan></text>
    <text class="cls-7" transform="translate(214.14 107.63)"><tspan x="0" y="0">s</tspan></text>
    <text class="cls-7" transform="translate(218.64 107.63)"><tspan x="0" y="0"> </tspan></text>
    <text class="cls-7" transform="translate(220.89 107.63)"><tspan x="0" y="0">1</tspan></text>
    <text class="cls-7" transform="translate(225.39 107.63)"><tspan x="0" y="0">.</tspan></text>
    <text class="cls-7" transform="translate(227.64 107.63)"><tspan x="0" y="0">0</tspan></text>
    <text class="cls-7" transform="translate(232.15 107.63)"><tspan x="0" y="0">4</tspan></text>
    <text class="cls-7" transform="translate(236.65 107.63)"><tspan x="0" y="0">%</tspan></text>
    <text class="cls-7" transform="translate(242.65 107.63)"><tspan x="0" y="0"> </tspan></text>
    <text class="cls-7" transform="translate(244.9 107.63)"><tspan x="0" y="0">-</tspan></text>
    <text class="cls-7" transform="translate(247.15 107.63)"><tspan x="0" y="0"> </tspan></text>
    <text class="cls-7" transform="translate(249.4 107.63)"><tspan x="0" y="0">B</tspan></text>
    <text class="cls-7" transform="translate(254.66 107.63)"><tspan x="0" y="0">a</tspan></text>
    <text class="cls-7" transform="translate(259.16 107.63)"><tspan x="0" y="0">j</tspan></text>
    <text class="cls-7" transform="translate(261.41 107.63)"><tspan x="0" y="0">o</tspan></text>
    <text class="cls-7" transform="translate(265.91 107.63)"><tspan x="0" y="0">)</tspan></text>
    <g>
      <text class="cls-6" transform="translate(352.04 78.37)"><tspan x="0" y="0">R</tspan></text>
      <text class="cls-6" transform="translate(357.44 78.37)"><tspan x="0" y="0">E</tspan></text>
      <text class="cls-6" transform="translate(362.09 78.37)"><tspan x="0" y="0">S</tspan></text>
      <text class="cls-6" transform="translate(367.49 78.37)"><tspan x="0" y="0">I</tspan></text>
      <text class="cls-6" transform="translate(369.89 78.37)"><tspan x="0" y="0">L</tspan></text>
      <text class="cls-6" transform="translate(374.54 78.37)"><tspan x="0" y="0">I</tspan></text>
      <text class="cls-6" transform="translate(376.95 78.37)"><tspan x="0" y="0">E</tspan></text>
      <text class="cls-6" transform="translate(381.6 78.37)"><tspan x="0" y="0">N</tspan></text>
      <text class="cls-6" transform="translate(387.75 78.37)"><tspan x="0" y="0">C</tspan></text>
      <text class="cls-6" transform="translate(393.15 78.37)"><tspan x="0" y="0">I</tspan></text>
      <text class="cls-6" transform="translate(395.55 78.37)"><tspan x="0" y="0">A</tspan></text>
    </g>
    <text class="cls-8" transform="translate(352.04 94.87)"><tspan x="0" y="0">6</tspan></text>
    <text class="cls-8" transform="translate(358.04 94.87)"><tspan x="0" y="0">5</tspan></text>
    <text class="cls-8" transform="translate(365.04 94.87)"><tspan x="0" y="0">/</tspan></text>
    <text class="cls-8" transform="translate(369.04 94.87)"><tspan x="0" y="0">1</tspan></text>
    <text class="cls-8" transform="translate(374.29 94.87)"><tspan x="0" y="0">0</tspan></text>
    <text class="cls-8" transform="translate(380.3 94.87)"><tspan x="0" y="0">0</tspan></text>
    <text class="cls-7" transform="translate(352.04 107.63)"><tspan x="0" y="0">M</tspan></text>
    <text class="cls-7" transform="translate(359.54 107.63)"><tspan x="0" y="0">e</tspan></text>
    <text class="cls-7" transform="translate(364.04 107.63)"><tspan x="0" y="0">d</tspan></text>
    <text class="cls-7" transform="translate(368.54 107.63)"><tspan x="0" y="0">i</tspan></text>
    <text class="cls-7" transform="translate(370.79 107.63)"><tspan x="0" y="0">o</tspan></text>
    <text class="cls-7" transform="translate(375.3 107.63)"><tspan x="0" y="0">-</tspan></text>
    <text class="cls-7" transform="translate(377.55 107.63)"><tspan x="0" y="0">A</tspan></text>
    <text class="cls-7" transform="translate(382.8 107.63)"><tspan x="0" y="0">l</tspan></text>
    <text class="cls-7" transform="translate(385.05 107.63)"><tspan x="0" y="0">t</tspan></text>
    <text class="cls-7" transform="translate(388.05 107.63)"><tspan x="0" y="0">o</tspan></text>
    <g>
      <text class="cls-6" transform="translate(88.08 129.39)"><tspan x="0" y="0">A</tspan></text>
      <text class="cls-6" transform="translate(93.49 129.39)"><tspan x="0" y="0">S</tspan></text>
      <text class="cls-6" transform="translate(98.89 129.39)"><tspan x="0" y="0">E</tspan></text>
      <text class="cls-6" transform="translate(103.54 129.39)"><tspan x="0" y="0">G</tspan></text>
      <text class="cls-6" transform="translate(109.69 129.39)"><tspan x="0" y="0">U</tspan></text>
      <text class="cls-6" transform="translate(115.09 129.39)"><tspan x="0" y="0">R</tspan></text>
      <text class="cls-6" transform="translate(120.5 129.39)"><tspan x="0" y="0">A</tspan></text>
      <text class="cls-6" transform="translate(125.9 129.39)"><tspan x="0" y="0">B</tspan></text>
      <text class="cls-6" transform="translate(131.3 129.39)"><tspan x="0" y="0">L</tspan></text>
      <text class="cls-6" transform="translate(135.95 129.39)"><tspan x="0" y="0">E</tspan></text>
      <text class="cls-6" transform="translate(140.61 129.39)"><tspan x="0" y="0"> </tspan></text>
      <text class="cls-6" transform="translate(143.01 129.39)"><tspan x="0" y="0">P</tspan></text>
      <text class="cls-6" transform="translate(148.41 129.39)"><tspan x="0" y="0">O</tspan></text>
      <text class="cls-6" transform="translate(154.56 129.39)"><tspan x="0" y="0">R</tspan></text>
      <text class="cls-6" transform="translate(159.96 129.39)"><tspan x="0" y="0"> </tspan></text>
      <text class="cls-6" transform="translate(162.37 129.39)"><tspan x="0" y="0">C</tspan></text>
      <text class="cls-6" transform="translate(167.77 129.39)"><tspan x="0" y="0">E</tspan></text>
      <text class="cls-6" transform="translate(172.42 129.39)"><tspan x="0" y="0">S</tspan></text>
      <text class="cls-6" transform="translate(177.82 129.39)"><tspan x="0" y="0">C</tspan></text>
      <text class="cls-6" transform="translate(183.22 129.39)"><tspan x="0" y="0">E</tspan></text>
    </g>
    <text class="cls-8" transform="translate(88.08 145.15)"><tspan x="0" y="0">S</tspan></text>
    <text class="cls-8" transform="translate(94.09 145.15)"><tspan x="0" y="0">í</tspan></text>
  </g>
  <g>
    <path class="cls-4" d="m64.52,44.17c-.25-1.64-4.95-12.66-4.95-12.66,0,0-1.25,11.92-1,13.56.25,1.64,1.78,2.77,3.42,2.53s2.77-1.78,2.53-3.42Z"/>
    <path class="cls-5" d="m48.06,27.68c3-4.27,7.97-7.06,13.58-7.06s10.62,2.81,13.62,7.12l-4.5,2.93c-2.04-2.83-5.36-4.68-9.12-4.68s-7.08,1.85-9.12,4.68l-4.47-2.98Z"/>
    <line class="cls-5" x1="62.19" y1="25.48" x2="62.19" y2="20.54"/>
  </g>
  <g>
    <path class="cls-4" d="m64.52,97.2c-.25-1.64-4.95-12.66-4.95-12.66,0,0-1.25,11.92-1,13.56.25,1.64,1.78,2.77,3.42,2.53s2.77-1.78,2.53-3.42Z"/>
    <path class="cls-5" d="m48.06,80.72c3-4.27,7.97-7.06,13.58-7.06s10.62,2.81,13.62,7.12l-4.5,2.93c-2.04-2.83-5.36-4.68-9.12-4.68s-7.08,1.85-9.12,4.68l-4.47-2.98Z"/>
    <line class="cls-5" x1="62.19" y1="78.52" x2="62.19" y2="73.57"/>
  </g>
  <g>
    <path class="cls-1" d="m72.36,132.24c-.84-1.06-2.14-1.74-3.6-1.74s-2.71.65-3.55,1.68c-.84-1.03-2.12-1.68-3.55-1.68s-2.71.65-3.55,1.67c-.86-1.02-2.14-1.67-3.56-1.67s-2.76.68-3.6,1.74c.06-5.86,4.83-10.6,10.71-10.6s10.64,4.74,10.7,10.6Z"/>
    <g>
      <path class="cls-1" d="m62.67,121.7s2.54,4.3,2.51,10.48"/>
      <path class="cls-1" d="m60.64,121.7s-2.54,4.3-2.51,10.48"/>
    </g>
    <rect class="cls-1" x="53.8" y="136.22" width="15.43" height="11.22"/>
    <rect class="cls-1" x="53.8" y="136.22" width="15.43" height="11.22"/>
    <polyline class="cls-3" points="58.65 136.38 58.65 133.58 64.38 133.58 64.38 136.38"/>
    <g>
      <polyline class="cls-3" points="55.86 136.18 55.86 141.87 57.39 141.87"/>
      <polyline class="cls-3" points="67.17 136.18 67.17 141.87 65.64 141.87"/>
    </g>
    <path class="cls-9" d="m62.65,143.02h-1.35c.01.4.12.69.32.89s.5.3.92.3c.28,0,.54-.04.77-.12l.14.98c-.33.08-.68.12-1.03.12-.71,0-1.27-.19-1.68-.57s-.63-.91-.65-1.59h-.68v-.61h.68v-.5h-.68v-.61h.69c.05-.68.28-1.2.71-1.58.43-.37.99-.56,1.7-.56.28,0,.6.04.95.12l-.14.98c-.25-.09-.5-.13-.75-.13-.76,0-1.18.39-1.25,1.17h1.34v.61h-1.35v.5h1.35v.61Z"/>
  </g>
  <g>
    <path class="cls-5" d="m330.51,26.15c-1.18-.77-2.58-1.21-4.09-1.21-4.14,0-7.49,3.35-7.49,7.49s3.35,7.49,7.49,7.49c1.52,0,2.93-.45,4.1-1.22"/>
    <line class="cls-5" x1="315.82" y1="29.99" x2="325.62" y2="29.99"/>
    <line class="cls-5" x1="315.82" y1="35.03" x2="325.62" y2="35.03"/>
    <circle class="cls-5" cx="325.11" cy="32.4" r="13.83"/>
  </g>
  <g>
    <polygon class="cls-2" points="313.05 79.07 313.05 89.88 319.7 84.5 313.05 79.07"/>
    <line class="cls-2" x1="307.53" y1="84.48" x2="313" y2="84.48"/>
    <line class="cls-2" x1="318.3" y1="75.17" x2="334.03" y2="75.17"/>
    <line class="cls-2" x1="318.3" y1="93.74" x2="334.03" y2="93.74"/>
    <line class="cls-2" x1="323.98" y1="79.92" x2="334.03" y2="79.92"/>
    <line class="cls-2" x1="326.65" y1="84.54" x2="334.03" y2="84.54"/>
    <line class="cls-2" x1="323.98" y1="89.25" x2="334.03" y2="89.25"/>
  </g>
</svg>