<?xml version="1.0" encoding="UTF-8"?>
<svg id="Capa_1" data-name="Capa 1" xmlns="http://www.w3.org/2000/svg" viewBox="0 0 594.96 119.69">
  <defs>
    <style>
      .cls-1 {
        stroke: #9dc34b;
      }

      .cls-1, .cls-2 {
        fill: none;
        stroke-miterlimit: 10;
        stroke-width: 1.52px;
      }

      .cls-2 {
        stroke: red;
      }

      .cls-3 {
        fill: #2550d6;
        font-family: Roboto-Bold, Roboto;
        font-size: 8.25px;
        font-weight: 700;
        opacity: .6;
      }

      .cls-4 {
        fill: #494e54;
        font-family: Roboto-Regular, Roboto;
        font-size: 11px;
      }
    </style>
  </defs>
  <g>
    <g>
      <text class="cls-3" transform="translate(87.08 34.85)"><tspan x="0" y="0">P</tspan></text>
      <text class="cls-3" transform="translate(92.49 34.85)"><tspan x="0" y="0">R</tspan></text>
      <text class="cls-3" transform="translate(97.89 34.85)"><tspan x="0" y="0">O</tspan></text>
      <text class="cls-3" transform="translate(104.04 34.85)"><tspan x="0" y="0">C</tspan></text>
      <text class="cls-3" transform="translate(109.44 34.85)"><tspan x="0" y="0">E</tspan></text>
      <text class="cls-3" transform="translate(114.09 34.85)"><tspan x="0" y="0">D</tspan></text>
      <text class="cls-3" transform="translate(119.5 34.85)"><tspan x="0" y="0">I</tspan></text>
      <text class="cls-3" transform="translate(121.9 34.85)"><tspan x="0" y="0">M</tspan></text>
      <text class="cls-3" transform="translate(129.55 34.85)"><tspan x="0" y="0">I</tspan></text>
      <text class="cls-3" transform="translate(131.95 34.85)"><tspan x="0" y="0">E</tspan></text>
      <text class="cls-3" transform="translate(136.6 34.85)"><tspan x="0" y="0">N</tspan></text>
      <text class="cls-3" transform="translate(142.76 34.85)"><tspan x="0" y="0">T</tspan></text>
      <text class="cls-3" transform="translate(148.16 34.85)"><tspan x="0" y="0">O</tspan></text>
      <text class="cls-3" transform="translate(154.31 34.85)"><tspan x="0" y="0">S</tspan></text>
      <text class="cls-3" transform="translate(159.71 34.85)"><tspan x="0" y="0"> </tspan></text>
      <text class="cls-3" transform="translate(162.12 34.85)"><tspan x="0" y="0">C</tspan></text>
      <text class="cls-3" transform="translate(167.52 34.85)"><tspan x="0" y="0">O</tspan></text>
      <text class="cls-3" transform="translate(173.67 34.85)"><tspan x="0" y="0">N</tspan></text>
      <text class="cls-3" transform="translate(179.82 34.85)"><tspan x="0" y="0">C</tspan></text>
      <text class="cls-3" transform="translate(185.23 34.85)"><tspan x="0" y="0">U</tspan></text>
      <text class="cls-3" transform="translate(190.63 34.85)"><tspan x="0" y="0">R</tspan></text>
      <text class="cls-3" transform="translate(196.03 34.85)"><tspan x="0" y="0">S</tspan></text>
      <text class="cls-3" transform="translate(201.43 34.85)"><tspan x="0" y="0">A</tspan></text>
      <text class="cls-3" transform="translate(206.84 34.85)"><tspan x="0" y="0">L</tspan></text>
      <text class="cls-3" transform="translate(211.49 34.85)"><tspan x="0" y="0">E</tspan></text>
      <text class="cls-3" transform="translate(216.14 34.85)"><tspan x="0" y="0">S</tspan></text>
      <text class="cls-3" transform="translate(221.54 34.85)"><tspan x="0" y="0"> </tspan></text>
      <text class="cls-3" transform="translate(223.94 34.85)"><tspan x="0" y="0">Y</tspan></text>
      <text class="cls-3" transform="translate(229.35 34.85)"><tspan x="0" y="0"> </tspan></text>
      <text class="cls-3" transform="translate(231.75 34.85)"><tspan x="0" y="0">E</tspan></text>
      <text class="cls-3" transform="translate(236.4 34.85)"><tspan x="0" y="0">S</tspan></text>
      <text class="cls-3" transform="translate(241.8 34.85)"><tspan x="0" y="0">P</tspan></text>
      <text class="cls-3" transform="translate(247.2 34.85)"><tspan x="0" y="0">E</tspan></text>
      <text class="cls-3" transform="translate(251.86 34.85)"><tspan x="0" y="0">C</tspan></text>
      <text class="cls-3" transform="translate(257.26 34.85)"><tspan x="0" y="0">I</tspan></text>
      <text class="cls-3" transform="translate(259.66 34.85)"><tspan x="0" y="0">A</tspan></text>
      <text class="cls-3" transform="translate(265.06 34.85)"><tspan x="0" y="0">L</tspan></text>
      <text class="cls-3" transform="translate(269.71 34.85)"><tspan x="0" y="0">E</tspan></text>
      <text class="cls-3" transform="translate(274.37 34.85)"><tspan x="0" y="0">S</tspan></text>
    </g>
    <text class="cls-4" transform="translate(87.08 51.36)"><tspan x="0" y="0">0</tspan></text>
    <g>
      <text class="cls-3" transform="translate(351.04 34.85)"><tspan x="0" y="0">I</tspan></text>
      <text class="cls-3" transform="translate(353.44 34.85)"><tspan x="0" y="0">N</tspan></text>
      <text class="cls-3" transform="translate(359.59 34.85)"><tspan x="0" y="0">C</tspan></text>
      <text class="cls-3" transform="translate(364.99 34.85)"><tspan x="0" y="0">I</tspan></text>
      <text class="cls-3" transform="translate(367.39 34.85)"><tspan x="0" y="0">D</tspan></text>
      <text class="cls-3" transform="translate(372.79 34.85)"><tspan x="0" y="0">E</tspan></text>
      <text class="cls-3" transform="translate(377.45 34.85)"><tspan x="0" y="0">N</tspan></text>
      <text class="cls-3" transform="translate(383.6 34.85)"><tspan x="0" y="0">C</tspan></text>
      <text class="cls-3" transform="translate(389 34.85)"><tspan x="0" y="0">I</tspan></text>
      <text class="cls-3" transform="translate(391.4 34.85)"><tspan x="0" y="0">A</tspan></text>
      <text class="cls-3" transform="translate(396.81 34.85)"><tspan x="0" y="0">S</tspan></text>
      <text class="cls-3" transform="translate(402.21 34.85)"><tspan x="0" y="0"> </tspan></text>
      <text class="cls-3" transform="translate(404.61 34.85)"><tspan x="0" y="0">J</tspan></text>
      <text class="cls-3" transform="translate(409.26 34.85)"><tspan x="0" y="0">U</tspan></text>
      <text class="cls-3" transform="translate(414.66 34.85)"><tspan x="0" y="0">D</tspan></text>
      <text class="cls-3" transform="translate(420.07 34.85)"><tspan x="0" y="0">I</tspan></text>
      <text class="cls-3" transform="translate(422.47 34.85)"><tspan x="0" y="0">C</tspan></text>
      <text class="cls-3" transform="translate(427.87 34.85)"><tspan x="0" y="0">I</tspan></text>
      <text class="cls-3" transform="translate(430.27 34.85)"><tspan x="0" y="0">A</tspan></text>
      <text class="cls-3" transform="translate(435.67 34.85)"><tspan x="0" y="0">L</tspan></text>
      <text class="cls-3" transform="translate(440.32 34.85)"><tspan x="0" y="0">E</tspan></text>
      <text class="cls-3" transform="translate(444.98 34.85)"><tspan x="0" y="0">S</tspan></text>
    </g>
    <text class="cls-4" transform="translate(351.04 51.36)"><tspan x="0" y="0">0</tspan></text>
    <g>
      <text class="cls-3" transform="translate(87.08 73.87)"><tspan x="0" y="0">R</tspan></text>
      <text class="cls-3" transform="translate(92.49 73.87)"><tspan x="0" y="0">E</tspan></text>
      <text class="cls-3" transform="translate(97.14 73.87)"><tspan x="0" y="0">C</tspan></text>
      <text class="cls-3" transform="translate(102.54 73.87)"><tspan x="0" y="0">L</tspan></text>
      <text class="cls-3" transform="translate(107.19 73.87)"><tspan x="0" y="0">A</tspan></text>
      <text class="cls-3" transform="translate(112.59 73.87)"><tspan x="0" y="0">M</tspan></text>
      <text class="cls-3" transform="translate(120.25 73.87)"><tspan x="0" y="0">A</tspan></text>
      <text class="cls-3" transform="translate(125.65 73.87)"><tspan x="0" y="0">C</tspan></text>
      <text class="cls-3" transform="translate(131.05 73.87)"><tspan x="0" y="0">I</tspan></text>
      <text class="cls-3" transform="translate(133.45 73.87)"><tspan x="0" y="0">O</tspan></text>
      <text class="cls-3" transform="translate(139.61 73.87)"><tspan x="0" y="0">N</tspan></text>
      <text class="cls-3" transform="translate(145.76 73.87)"><tspan x="0" y="0">E</tspan></text>
      <text class="cls-3" transform="translate(150.41 73.87)"><tspan x="0" y="0">S</tspan></text>
      <text class="cls-3" transform="translate(155.81 73.87)"><tspan x="0" y="0"> </tspan></text>
      <text class="cls-3" transform="translate(158.21 73.87)"><tspan x="0" y="0">A</tspan></text>
      <text class="cls-3" transform="translate(163.62 73.87)"><tspan x="0" y="0">D</tspan></text>
      <text class="cls-3" transform="translate(169.02 73.87)"><tspan x="0" y="0">M</tspan></text>
      <text class="cls-3" transform="translate(176.67 73.87)"><tspan x="0" y="0">I</tspan></text>
      <text class="cls-3" transform="translate(179.07 73.87)"><tspan x="0" y="0">N</tspan></text>
      <text class="cls-3" transform="translate(185.23 73.87)"><tspan x="0" y="0">I</tspan></text>
      <text class="cls-3" transform="translate(187.63 73.87)"><tspan x="0" y="0">S</tspan></text>
      <text class="cls-3" transform="translate(193.03 73.87)"><tspan x="0" y="0">T</tspan></text>
      <text class="cls-3" transform="translate(198.43 73.87)"><tspan x="0" y="0">R</tspan></text>
      <text class="cls-3" transform="translate(203.83 73.87)"><tspan x="0" y="0">A</tspan></text>
      <text class="cls-3" transform="translate(208.49 73.87)"><tspan x="0" y="0">T</tspan></text>
      <text class="cls-3" transform="translate(213.89 73.87)"><tspan x="0" y="0">I</tspan></text>
      <text class="cls-3" transform="translate(216.29 73.87)"><tspan x="0" y="0">V</tspan></text>
      <text class="cls-3" transform="translate(221.69 73.87)"><tspan x="0" y="0">A</tspan></text>
      <text class="cls-3" transform="translate(227.09 73.87)"><tspan x="0" y="0">S</tspan></text>
    </g>
    <text class="cls-4" transform="translate(87.08 90.38)"><tspan x="0" y="0">0</tspan></text>
    <g>
      <text class="cls-3" transform="translate(351.04 73.87)"><tspan x="0" y="0">A</tspan></text>
      <text class="cls-3" transform="translate(356.44 73.87)"><tspan x="0" y="0">C</tspan></text>
      <text class="cls-3" transform="translate(361.84 73.87)"><tspan x="0" y="0">R</tspan></text>
      <text class="cls-3" transform="translate(367.24 73.87)"><tspan x="0" y="0">E</tspan></text>
      <text class="cls-3" transform="translate(371.89 73.87)"><tspan x="0" y="0">E</tspan></text>
      <text class="cls-3" transform="translate(376.55 73.87)"><tspan x="0" y="0">D</tspan></text>
      <text class="cls-3" transform="translate(381.95 73.87)"><tspan x="0" y="0">O</tspan></text>
      <text class="cls-3" transform="translate(388.1 73.87)"><tspan x="0" y="0">R</tspan></text>
      <text class="cls-3" transform="translate(393.5 73.87)"><tspan x="0" y="0"> </tspan></text>
      <text class="cls-3" transform="translate(395.91 73.87)"><tspan x="0" y="0">D</tspan></text>
      <text class="cls-3" transform="translate(401.31 73.87)"><tspan x="0" y="0">E</tspan></text>
      <text class="cls-3" transform="translate(405.96 73.87)"><tspan x="0" y="0">L</tspan></text>
      <text class="cls-3" transform="translate(410.61 73.87)"><tspan x="0" y="0"> </tspan></text>
      <text class="cls-3" transform="translate(413.01 73.87)"><tspan x="0" y="0">P</tspan></text>
      <text class="cls-3" transform="translate(418.42 73.87)"><tspan x="0" y="0">R</tspan></text>
      <text class="cls-3" transform="translate(423.82 73.87)"><tspan x="0" y="0">O</tspan></text>
      <text class="cls-3" transform="translate(429.97 73.87)"><tspan x="0" y="0">C</tspan></text>
      <text class="cls-3" transform="translate(435.37 73.87)"><tspan x="0" y="0">E</tspan></text>
      <text class="cls-3" transform="translate(440.02 73.87)"><tspan x="0" y="0">D</tspan></text>
      <text class="cls-3" transform="translate(445.43 73.87)"><tspan x="0" y="0">I</tspan></text>
      <text class="cls-3" transform="translate(447.83 73.87)"><tspan x="0" y="0">M</tspan></text>
      <text class="cls-3" transform="translate(455.48 73.87)"><tspan x="0" y="0">I</tspan></text>
      <text class="cls-3" transform="translate(457.88 73.87)"><tspan x="0" y="0">E</tspan></text>
      <text class="cls-3" transform="translate(462.54 73.87)"><tspan x="0" y="0">N</tspan></text>
      <text class="cls-3" transform="translate(468.69 73.87)"><tspan x="0" y="0">T</tspan></text>
      <text class="cls-3" transform="translate(474.09 73.87)"><tspan x="0" y="0">O</tspan></text>
      <text class="cls-3" transform="translate(480.24 73.87)"><tspan x="0" y="0"> </tspan></text>
      <text class="cls-3" transform="translate(482.64 73.87)"><tspan x="0" y="0">C</tspan></text>
      <text class="cls-3" transform="translate(488.05 73.87)"><tspan x="0" y="0">O</tspan></text>
      <text class="cls-3" transform="translate(494.2 73.87)"><tspan x="0" y="0">N</tspan></text>
      <text class="cls-3" transform="translate(500.35 73.87)"><tspan x="0" y="0">C</tspan></text>
      <text class="cls-3" transform="translate(505.75 73.87)"><tspan x="0" y="0">U</tspan></text>
      <text class="cls-3" transform="translate(511.16 73.87)"><tspan x="0" y="0">R</tspan></text>
      <text class="cls-3" transform="translate(516.56 73.87)"><tspan x="0" y="0">S</tspan></text>
      <text class="cls-3" transform="translate(521.96 73.87)"><tspan x="0" y="0">A</tspan></text>
      <text class="cls-3" transform="translate(527.36 73.87)"><tspan x="0" y="0">L</tspan></text>
      <text class="cls-3" transform="translate(532.01 73.87)"><tspan x="0" y="0"> </tspan></text>
    </g>
    <text class="cls-4" transform="translate(351.04 90.38)"><tspan x="0" y="0">1</tspan></text>
    <text class="cls-4" transform="translate(356.29 90.38)"><tspan x="0" y="0"> </tspan></text>
    <text class="cls-4" transform="translate(359.29 90.38)"><tspan x="0" y="0">e</tspan></text>
    <text class="cls-4" transform="translate(364.54 90.38)"><tspan x="0" y="0">m</tspan></text>
    <text class="cls-4" transform="translate(374.3 90.38)"><tspan x="0" y="0">p</tspan></text>
    <text class="cls-4" transform="translate(380.3 90.38)"><tspan x="0" y="0">r</tspan></text>
    <text class="cls-4" transform="translate(384.8 90.38)"><tspan x="0" y="0">e</tspan></text>
    <text class="cls-4" transform="translate(390.05 90.38)"><tspan x="0" y="0">s</tspan></text>
    <text class="cls-4" transform="translate(395.3 90.38)"><tspan x="0" y="0">a</tspan></text>
  </g>
  <g>
    <rect class="cls-1" x="60.07" y="31.54" width="12.95" height="6.5" transform="translate(44.09 -36.86) rotate(45)"/>
    <g>
      <line class="cls-1" x1="72.4" y1="34.54" x2="66.28" y2="40.65"/>
      <line class="cls-1" x1="66.8" y1="28.94" x2="60.69" y2="35.06"/>
    </g>
    <line class="cls-1" x1="64.18" y1="37.19" x2="52.67" y2="48.71"/>
    <line class="cls-1" x1="64.59" y1="45.55" x2="71.2" y2="45.55"/>
    <line class="cls-1" x1="61.68" y1="48.09" x2="74.12" y2="48.09"/>
  </g>
  <g>
    <rect class="cls-1" x="323" y="31.54" width="12.95" height="6.5" transform="translate(121.11 -222.78) rotate(45)"/>
    <g>
      <line class="cls-1" x1="335.33" y1="34.54" x2="329.22" y2="40.65"/>
      <line class="cls-1" x1="329.74" y1="28.94" x2="323.62" y2="35.06"/>
    </g>
    <line class="cls-1" x1="327.12" y1="37.19" x2="315.6" y2="48.71"/>
    <line class="cls-1" x1="327.52" y1="45.55" x2="334.14" y2="45.55"/>
    <line class="cls-1" x1="324.61" y1="48.09" x2="337.05" y2="48.09"/>
  </g>
  <g>
    <rect class="cls-2" x="323" y="71.7" width="12.95" height="6.5" transform="translate(149.5 -211.02) rotate(45)"/>
    <g>
      <line class="cls-2" x1="335.33" y1="74.69" x2="329.22" y2="80.81"/>
      <line class="cls-2" x1="329.74" y1="69.1" x2="323.62" y2="75.21"/>
    </g>
    <line class="cls-2" x1="327.12" y1="77.35" x2="315.6" y2="88.87"/>
    <line class="cls-2" x1="327.52" y1="85.71" x2="334.14" y2="85.71"/>
    <line class="cls-2" x1="324.61" y1="88.25" x2="337.05" y2="88.25"/>
  </g>
  <g>
    <rect class="cls-1" x="60.07" y="71.51" width="12.95" height="6.5" transform="translate(72.35 -25.16) rotate(45)"/>
    <g>
      <line class="cls-1" x1="72.4" y1="74.5" x2="66.28" y2="80.62"/>
      <line class="cls-1" x1="66.8" y1="68.9" x2="60.69" y2="75.02"/>
    </g>
    <line class="cls-1" x1="64.18" y1="77.16" x2="52.67" y2="88.67"/>
    <line class="cls-1" x1="64.59" y1="85.51" x2="71.2" y2="85.51"/>
    <line class="cls-1" x1="61.68" y1="88.05" x2="74.12" y2="88.05"/>
  </g>
</svg>