<?xml version="1.0" encoding="UTF-8"?>
<svg id="Capa_1" data-name="Capa 1" xmlns="http://www.w3.org/2000/svg" xmlns:xlink="http://www.w3.org/1999/xlink" viewBox="0 0 594.96 156.2">
  <defs>
    <style>
      .cls-1 {
        stroke: #3a61d9;
        stroke-width: 1.5px;
      }

      .cls-1, .cls-2, .cls-3 {
        fill: none;
        stroke-miterlimit: 10;
      }

      .cls-2 {
        stroke: #7f7f7f;
      }

      .cls-2, .cls-3 {
        stroke-width: 1.52px;
      }

      .cls-3 {
        stroke: #9dc34b;
      }

      .cls-4 {
        mask: url(#mask);
      }

      .cls-5 {
        filter: url(#luminosity-noclip);
      }

      .cls-6 {
        fill: #2550d6;
        font-family: Roboto-Bold, Roboto;
        font-weight: 700;
        opacity: .6;
      }

      .cls-6, .cls-7 {
        font-size: 8.25px;
      }

      .cls-7 {
        fill: #91a6e9;
      }

      .cls-7, .cls-8 {
        font-family: Roboto-Regular, Roboto;
      }

      .cls-8 {
        fill: #494e54;
        font-size: 11px;
      }

      .cls-9, .cls-10 {
        stroke-width: 0px;
      }

      .cls-10 {
        fill: #7f7f7f;
      }
    </style>
    <filter id="luminosity-noclip" x="313.34" y="69.53" width="23.07" height="22.78" color-interpolation-filters="sRGB" filterUnits="userSpaceOnUse">
      <feFlood flood-color="#fff" result="bg"/>
      <feBlend in="SourceGraphic" in2="bg"/>
    </filter>
    <mask id="mask" x="313.34" y="69.53" width="23.07" height="22.78" maskUnits="userSpaceOnUse">
      <g class="cls-5">
        <circle class="cls-9" cx="329.73" cy="85.64" r="6.68"/>
      </g>
    </mask>
  </defs>
  <g>
    <g>
      <text class="cls-6" transform="translate(87.08 23.51)"><tspan x="0" y="0">V</tspan></text>
      <text class="cls-6" transform="translate(92.49 23.51)"><tspan x="0" y="0">E</tspan></text>
      <text class="cls-6" transform="translate(97.14 23.51)"><tspan x="0" y="0">N</tspan></text>
      <text class="cls-6" transform="translate(103.29 23.51)"><tspan x="0" y="0">T</tspan></text>
      <text class="cls-6" transform="translate(107.94 23.51)"><tspan x="0" y="0">A</tspan></text>
      <text class="cls-6" transform="translate(113.34 23.51)"><tspan x="0" y="0">S</tspan></text>
      <text class="cls-6" transform="translate(118.75 23.51)"><tspan x="0" y="0"> </tspan></text>
      <text class="cls-6" transform="translate(121.15 23.51)"><tspan x="0" y="0">B</tspan></text>
      <text class="cls-6" transform="translate(126.55 23.51)"><tspan x="0" y="0">A</tspan></text>
      <text class="cls-6" transform="translate(131.95 23.51)"><tspan x="0" y="0">L</tspan></text>
      <text class="cls-6" transform="translate(136.6 23.51)"><tspan x="0" y="0">A</tspan></text>
      <text class="cls-6" transform="translate(142.01 23.51)"><tspan x="0" y="0">N</tspan></text>
      <text class="cls-6" transform="translate(148.16 23.51)"><tspan x="0" y="0">C</tspan></text>
      <text class="cls-6" transform="translate(153.56 23.51)"><tspan x="0" y="0">E</tspan></text>
      <text class="cls-6" transform="translate(158.21 23.51)"><tspan x="0" y="0"> </tspan></text>
      <text class="cls-6" transform="translate(160.62 23.51)"><tspan x="0" y="0">(</tspan></text>
      <text class="cls-6" transform="translate(163.77 23.51)"><tspan x="0" y="0">2</tspan></text>
      <text class="cls-6" transform="translate(168.42 23.51)"><tspan x="0" y="0">0</tspan></text>
      <text class="cls-6" transform="translate(173.07 23.51)"><tspan x="0" y="0">2</tspan></text>
      <text class="cls-6" transform="translate(177.72 23.51)"><tspan x="0" y="0">3</tspan></text>
      <text class="cls-6" transform="translate(182.38 23.51)"><tspan x="0" y="0">)</tspan></text>
    </g>
    <text class="cls-8" transform="translate(87.08 40.02)"><tspan x="0" y="0">6</tspan></text>
    <text class="cls-8" transform="translate(93.09 40.02)"><tspan x="0" y="0">9</tspan></text>
    <text class="cls-8" transform="translate(99.09 40.02)"><tspan x="0" y="0">.</tspan></text>
    <text class="cls-8" transform="translate(101.34 40.02)"><tspan x="0" y="0">7</tspan></text>
    <text class="cls-8" transform="translate(107.34 40.02)"><tspan x="0" y="0">3</tspan></text>
    <text class="cls-8" transform="translate(113.34 40.02)"><tspan x="0" y="0">0</tspan></text>
    <text class="cls-8" transform="translate(119.35 40.02)"><tspan x="0" y="0">.</tspan></text>
    <text class="cls-8" transform="translate(121.6 40.02)"><tspan x="0" y="0">6</tspan></text>
    <text class="cls-8" transform="translate(127.6 40.02)"><tspan x="0" y="0">9</tspan></text>
    <text class="cls-8" transform="translate(133.6 40.02)"><tspan x="0" y="0">8</tspan></text>
    <text class="cls-8" transform="translate(139.61 40.02)"><tspan x="0" y="0"> </tspan></text>
    <text class="cls-8" transform="translate(142.61 40.02)"><tspan x="0" y="0">€</tspan></text>
    <text class="cls-7" transform="translate(87.08 52.78)"><tspan x="0" y="0">(</tspan></text>
    <text class="cls-7" transform="translate(90.08 52.78)"><tspan x="0" y="0">F</tspan></text>
    <text class="cls-7" transform="translate(94.59 52.78)"><tspan x="0" y="0">u</tspan></text>
    <text class="cls-7" transform="translate(99.09 52.78)"><tspan x="0" y="0">e</tspan></text>
    <text class="cls-7" transform="translate(103.59 52.78)"><tspan x="0" y="0">n</tspan></text>
    <text class="cls-7" transform="translate(108.09 52.78)"><tspan x="0" y="0">t</tspan></text>
    <text class="cls-7" transform="translate(111.09 52.78)"><tspan x="0" y="0">e</tspan></text>
    <text class="cls-7" transform="translate(115.6 52.78)"><tspan x="0" y="0">s</tspan></text>
    <text class="cls-7" transform="translate(120.1 52.78)"><tspan x="0" y="0"> </tspan></text>
    <text class="cls-7" transform="translate(122.35 52.78)"><tspan x="0" y="0">P</tspan></text>
    <text class="cls-7" transform="translate(127.6 52.78)"><tspan x="0" y="0">r</tspan></text>
    <text class="cls-7" transform="translate(130.6 52.78)"><tspan x="0" y="0">o</tspan></text>
    <text class="cls-7" transform="translate(135.1 52.78)"><tspan x="0" y="0">p</tspan></text>
    <text class="cls-7" transform="translate(139.61 52.78)"><tspan x="0" y="0">i</tspan></text>
    <text class="cls-7" transform="translate(141.86 52.78)"><tspan x="0" y="0">a</tspan></text>
    <text class="cls-7" transform="translate(146.36 52.78)"><tspan x="0" y="0">s</tspan></text>
    <text class="cls-7" transform="translate(150.86 52.78)"><tspan x="0" y="0">)</tspan></text>
    <g>
      <text class="cls-6" transform="translate(351.04 23.51)"><tspan x="0" y="0">R</tspan></text>
      <text class="cls-6" transform="translate(356.44 23.51)"><tspan x="0" y="0">E</tspan></text>
      <text class="cls-6" transform="translate(361.09 23.51)"><tspan x="0" y="0">S</tspan></text>
      <text class="cls-6" transform="translate(366.49 23.51)"><tspan x="0" y="0">U</tspan></text>
      <text class="cls-6" transform="translate(371.89 23.51)"><tspan x="0" y="0">L</tspan></text>
      <text class="cls-6" transform="translate(375.8 23.51)"><tspan x="0" y="0">T</tspan></text>
      <text class="cls-6" transform="translate(380.45 23.51)"><tspan x="0" y="0">A</tspan></text>
      <text class="cls-6" transform="translate(385.85 23.51)"><tspan x="0" y="0">D</tspan></text>
      <text class="cls-6" transform="translate(391.25 23.51)"><tspan x="0" y="0">O</tspan></text>
      <text class="cls-6" transform="translate(397.41 23.51)"><tspan x="0" y="0">S</tspan></text>
      <text class="cls-6" transform="translate(402.81 23.51)"><tspan x="0" y="0"> </tspan></text>
      <text class="cls-6" transform="translate(405.21 23.51)"><tspan x="0" y="0">B</tspan></text>
      <text class="cls-6" transform="translate(410.61 23.51)"><tspan x="0" y="0">A</tspan></text>
      <text class="cls-6" transform="translate(416.01 23.51)"><tspan x="0" y="0">L</tspan></text>
      <text class="cls-6" transform="translate(420.67 23.51)"><tspan x="0" y="0">A</tspan></text>
      <text class="cls-6" transform="translate(426.07 23.51)"><tspan x="0" y="0">N</tspan></text>
      <text class="cls-6" transform="translate(432.22 23.51)"><tspan x="0" y="0">C</tspan></text>
      <text class="cls-6" transform="translate(437.62 23.51)"><tspan x="0" y="0">E</tspan></text>
      <text class="cls-6" transform="translate(442.28 23.51)"><tspan x="0" y="0"> </tspan></text>
      <text class="cls-6" transform="translate(444.68 23.51)"><tspan x="0" y="0">(</tspan></text>
      <text class="cls-6" transform="translate(447.83 23.51)"><tspan x="0" y="0">2</tspan></text>
      <text class="cls-6" transform="translate(452.48 23.51)"><tspan x="0" y="0">0</tspan></text>
      <text class="cls-6" transform="translate(457.13 23.51)"><tspan x="0" y="0">2</tspan></text>
      <text class="cls-6" transform="translate(461.78 23.51)"><tspan x="0" y="0">3</tspan></text>
      <text class="cls-6" transform="translate(466.44 23.51)"><tspan x="0" y="0">)</tspan></text>
    </g>
    <text class="cls-8" transform="translate(351.04 40.02)"><tspan x="0" y="0">7</tspan></text>
    <text class="cls-8" transform="translate(356.29 40.02)"><tspan x="0" y="0">.</tspan></text>
    <text class="cls-8" transform="translate(358.54 40.02)"><tspan x="0" y="0">2</tspan></text>
    <text class="cls-8" transform="translate(364.54 40.02)"><tspan x="0" y="0">1</tspan></text>
    <text class="cls-8" transform="translate(369.79 40.02)"><tspan x="0" y="0">6</tspan></text>
    <text class="cls-8" transform="translate(375.8 40.02)"><tspan x="0" y="0">.</tspan></text>
    <text class="cls-8" transform="translate(378.05 40.02)"><tspan x="0" y="0">9</tspan></text>
    <text class="cls-8" transform="translate(384.05 40.02)"><tspan x="0" y="0">0</tspan></text>
    <text class="cls-8" transform="translate(390.05 40.02)"><tspan x="0" y="0">3</tspan></text>
    <text class="cls-8" transform="translate(396.05 40.02)"><tspan x="0" y="0"> </tspan></text>
    <text class="cls-8" transform="translate(399.06 40.02)"><tspan x="0" y="0">€</tspan></text>
    <text class="cls-7" transform="translate(351.04 52.78)"><tspan x="0" y="0">(</tspan></text>
    <text class="cls-7" transform="translate(354.04 52.78)"><tspan x="0" y="0">F</tspan></text>
    <text class="cls-7" transform="translate(358.54 52.78)"><tspan x="0" y="0">u</tspan></text>
    <text class="cls-7" transform="translate(363.04 52.78)"><tspan x="0" y="0">e</tspan></text>
    <text class="cls-7" transform="translate(367.54 52.78)"><tspan x="0" y="0">n</tspan></text>
    <text class="cls-7" transform="translate(372.04 52.78)"><tspan x="0" y="0">t</tspan></text>
    <text class="cls-7" transform="translate(375.05 52.78)"><tspan x="0" y="0">e</tspan></text>
    <text class="cls-7" transform="translate(379.55 52.78)"><tspan x="0" y="0">s</tspan></text>
    <text class="cls-7" transform="translate(384.05 52.78)"><tspan x="0" y="0"> </tspan></text>
    <text class="cls-7" transform="translate(386.3 52.78)"><tspan x="0" y="0">P</tspan></text>
    <text class="cls-7" transform="translate(391.55 52.78)"><tspan x="0" y="0">r</tspan></text>
    <text class="cls-7" transform="translate(394.55 52.78)"><tspan x="0" y="0">o</tspan></text>
    <text class="cls-7" transform="translate(399.06 52.78)"><tspan x="0" y="0">p</tspan></text>
    <text class="cls-7" transform="translate(403.56 52.78)"><tspan x="0" y="0">i</tspan></text>
    <text class="cls-7" transform="translate(405.81 52.78)"><tspan x="0" y="0">a</tspan></text>
    <text class="cls-7" transform="translate(410.31 52.78)"><tspan x="0" y="0">s</tspan></text>
    <text class="cls-7" transform="translate(414.81 52.78)"><tspan x="0" y="0">)</tspan></text>
    <g>
      <text class="cls-6" transform="translate(87.08 74.54)"><tspan x="0" y="0">A</tspan></text>
      <text class="cls-6" transform="translate(92.49 74.54)"><tspan x="0" y="0">C</tspan></text>
      <text class="cls-6" transform="translate(97.89 74.54)"><tspan x="0" y="0">T</tspan></text>
      <text class="cls-6" transform="translate(103.29 74.54)"><tspan x="0" y="0">I</tspan></text>
      <text class="cls-6" transform="translate(105.69 74.54)"><tspan x="0" y="0">V</tspan></text>
      <text class="cls-6" transform="translate(111.09 74.54)"><tspan x="0" y="0">O</tspan></text>
      <text class="cls-6" transform="translate(117.25 74.54)"><tspan x="0" y="0"> </tspan></text>
      <text class="cls-6" transform="translate(119.65 74.54)"><tspan x="0" y="0">T</tspan></text>
      <text class="cls-6" transform="translate(125.05 74.54)"><tspan x="0" y="0">O</tspan></text>
      <text class="cls-6" transform="translate(131.2 74.54)"><tspan x="0" y="0">T</tspan></text>
      <text class="cls-6" transform="translate(135.85 74.54)"><tspan x="0" y="0">A</tspan></text>
      <text class="cls-6" transform="translate(141.26 74.54)"><tspan x="0" y="0">L</tspan></text>
      <text class="cls-6" transform="translate(145.91 74.54)"><tspan x="0" y="0"> </tspan></text>
      <text class="cls-6" transform="translate(148.31 74.54)"><tspan x="0" y="0">(</tspan></text>
      <text class="cls-6" transform="translate(151.46 74.54)"><tspan x="0" y="0">2</tspan></text>
      <text class="cls-6" transform="translate(156.11 74.54)"><tspan x="0" y="0">0</tspan></text>
      <text class="cls-6" transform="translate(160.77 74.54)"><tspan x="0" y="0">2</tspan></text>
      <text class="cls-6" transform="translate(165.42 74.54)"><tspan x="0" y="0">3</tspan></text>
      <text class="cls-6" transform="translate(170.07 74.54)"><tspan x="0" y="0">)</tspan></text>
    </g>
    <text class="cls-8" transform="translate(87.08 91.04)"><tspan x="0" y="0">7</tspan></text>
    <text class="cls-8" transform="translate(92.33 91.04)"><tspan x="0" y="0">4</tspan></text>
    <text class="cls-8" transform="translate(99.09 91.04)"><tspan x="0" y="0">.</tspan></text>
    <text class="cls-8" transform="translate(101.34 91.04)"><tspan x="0" y="0">7</tspan></text>
    <text class="cls-8" transform="translate(107.34 91.04)"><tspan x="0" y="0">1</tspan></text>
    <text class="cls-8" transform="translate(112.59 91.04)"><tspan x="0" y="0">6</tspan></text>
    <text class="cls-8" transform="translate(118.6 91.04)"><tspan x="0" y="0">.</tspan></text>
    <text class="cls-8" transform="translate(120.85 91.04)"><tspan x="0" y="0">8</tspan></text>
    <text class="cls-8" transform="translate(126.85 91.04)"><tspan x="0" y="0">3</tspan></text>
    <text class="cls-8" transform="translate(132.85 91.04)"><tspan x="0" y="0">5</tspan></text>
    <text class="cls-8" transform="translate(138.86 91.04)"><tspan x="0" y="0"> </tspan></text>
    <text class="cls-8" transform="translate(141.86 91.04)"><tspan x="0" y="0">€</tspan></text>
    <text class="cls-7" transform="translate(87.08 103.8)"><tspan x="0" y="0">(</tspan></text>
    <text class="cls-7" transform="translate(90.08 103.8)"><tspan x="0" y="0">F</tspan></text>
    <text class="cls-7" transform="translate(94.59 103.8)"><tspan x="0" y="0">u</tspan></text>
    <text class="cls-7" transform="translate(99.09 103.8)"><tspan x="0" y="0">e</tspan></text>
    <text class="cls-7" transform="translate(103.59 103.8)"><tspan x="0" y="0">n</tspan></text>
    <text class="cls-7" transform="translate(108.09 103.8)"><tspan x="0" y="0">t</tspan></text>
    <text class="cls-7" transform="translate(111.09 103.8)"><tspan x="0" y="0">e</tspan></text>
    <text class="cls-7" transform="translate(115.6 103.8)"><tspan x="0" y="0">s</tspan></text>
    <text class="cls-7" transform="translate(120.1 103.8)"><tspan x="0" y="0"> </tspan></text>
    <text class="cls-7" transform="translate(122.35 103.8)"><tspan x="0" y="0">P</tspan></text>
    <text class="cls-7" transform="translate(127.6 103.8)"><tspan x="0" y="0">r</tspan></text>
    <text class="cls-7" transform="translate(130.6 103.8)"><tspan x="0" y="0">o</tspan></text>
    <text class="cls-7" transform="translate(135.1 103.8)"><tspan x="0" y="0">p</tspan></text>
    <text class="cls-7" transform="translate(139.61 103.8)"><tspan x="0" y="0">i</tspan></text>
    <text class="cls-7" transform="translate(141.86 103.8)"><tspan x="0" y="0">a</tspan></text>
    <text class="cls-7" transform="translate(146.36 103.8)"><tspan x="0" y="0">s</tspan></text>
    <text class="cls-7" transform="translate(150.86 103.8)"><tspan x="0" y="0">)</tspan></text>
    <g>
      <text class="cls-6" transform="translate(351.04 74.54)"><tspan x="0" y="0">C</tspan></text>
      <text class="cls-6" transform="translate(356.44 74.54)"><tspan x="0" y="0">A</tspan></text>
      <text class="cls-6" transform="translate(361.84 74.54)"><tspan x="0" y="0">P</tspan></text>
      <text class="cls-6" transform="translate(367.24 74.54)"><tspan x="0" y="0">I</tspan></text>
      <text class="cls-6" transform="translate(369.64 74.54)"><tspan x="0" y="0">T</tspan></text>
      <text class="cls-6" transform="translate(374.3 74.54)"><tspan x="0" y="0">A</tspan></text>
      <text class="cls-6" transform="translate(379.7 74.54)"><tspan x="0" y="0">L</tspan></text>
      <text class="cls-6" transform="translate(384.35 74.54)"><tspan x="0" y="0"> </tspan></text>
      <text class="cls-6" transform="translate(386.75 74.54)"><tspan x="0" y="0">S</tspan></text>
      <text class="cls-6" transform="translate(392.15 74.54)"><tspan x="0" y="0">O</tspan></text>
      <text class="cls-6" transform="translate(398.31 74.54)"><tspan x="0" y="0">C</tspan></text>
      <text class="cls-6" transform="translate(403.71 74.54)"><tspan x="0" y="0">I</tspan></text>
      <text class="cls-6" transform="translate(406.11 74.54)"><tspan x="0" y="0">A</tspan></text>
      <text class="cls-6" transform="translate(411.51 74.54)"><tspan x="0" y="0">L</tspan></text>
    </g>
    <text class="cls-8" transform="translate(351.04 91.04)"><tspan x="0" y="0">2</tspan></text>
    <text class="cls-8" transform="translate(357.04 91.04)"><tspan x="0" y="0">.</tspan></text>
    <text class="cls-8" transform="translate(359.29 91.04)"><tspan x="0" y="0">3</tspan></text>
    <text class="cls-8" transform="translate(365.29 91.04)"><tspan x="0" y="0">0</tspan></text>
    <text class="cls-8" transform="translate(371.29 91.04)"><tspan x="0" y="0">0</tspan></text>
    <text class="cls-8" transform="translate(377.3 91.04)"><tspan x="0" y="0">.</tspan></text>
    <text class="cls-8" transform="translate(379.55 91.04)"><tspan x="0" y="0">0</tspan></text>
    <text class="cls-8" transform="translate(385.55 91.04)"><tspan x="0" y="0">0</tspan></text>
    <text class="cls-8" transform="translate(391.55 91.04)"><tspan x="0" y="0">0</tspan></text>
    <text class="cls-8" transform="translate(397.56 91.04)"><tspan x="0" y="0"> </tspan></text>
    <text class="cls-8" transform="translate(400.56 91.04)"><tspan x="0" y="0">€</tspan></text>
    <g>
      <text class="cls-6" transform="translate(87.08 125.56)"><tspan x="0" y="0">D</tspan></text>
      <text class="cls-6" transform="translate(92.49 125.56)"><tspan x="0" y="0">E</tspan></text>
      <text class="cls-6" transform="translate(97.14 125.56)"><tspan x="0" y="0">P</tspan></text>
      <text class="cls-6" transform="translate(102.54 125.56)"><tspan x="0" y="0">Ó</tspan></text>
      <text class="cls-6" transform="translate(108.69 125.56)"><tspan x="0" y="0">S</tspan></text>
      <text class="cls-6" transform="translate(114.09 125.56)"><tspan x="0" y="0">I</tspan></text>
      <text class="cls-6" transform="translate(116.5 125.56)"><tspan x="0" y="0">T</tspan></text>
      <text class="cls-6" transform="translate(121.9 125.56)"><tspan x="0" y="0">O</tspan></text>
      <text class="cls-6" transform="translate(128.05 125.56)"><tspan x="0" y="0"> </tspan></text>
      <text class="cls-6" transform="translate(130.45 125.56)"><tspan x="0" y="0">I</tspan></text>
      <text class="cls-6" transform="translate(132.85 125.56)"><tspan x="0" y="0">N</tspan></text>
      <text class="cls-6" transform="translate(139.01 125.56)"><tspan x="0" y="0">D</tspan></text>
      <text class="cls-6" transform="translate(144.41 125.56)"><tspan x="0" y="0">I</tspan></text>
      <text class="cls-6" transform="translate(146.81 125.56)"><tspan x="0" y="0">V</tspan></text>
      <text class="cls-6" transform="translate(152.21 125.56)"><tspan x="0" y="0">I</tspan></text>
      <text class="cls-6" transform="translate(154.61 125.56)"><tspan x="0" y="0">D</tspan></text>
      <text class="cls-6" transform="translate(160.02 125.56)"><tspan x="0" y="0">U</tspan></text>
      <text class="cls-6" transform="translate(165.42 125.56)"><tspan x="0" y="0">A</tspan></text>
      <text class="cls-6" transform="translate(170.82 125.56)"><tspan x="0" y="0">L</tspan></text>
    </g>
    <text class="cls-8" transform="translate(87.08 142.07)"><tspan x="0" y="0">2</tspan></text>
    <text class="cls-8" transform="translate(93.09 142.07)"><tspan x="0" y="0">0</tspan></text>
    <text class="cls-8" transform="translate(99.09 142.07)"><tspan x="0" y="0">2</tspan></text>
    <text class="cls-8" transform="translate(105.09 142.07)"><tspan x="0" y="0">2</tspan></text>
  </g>
  <polyline class="cls-3" points="47.62 34.65 62.34 19.93 77.05 34.65"/>
  <polyline class="cls-3" points="311.62 34.65 326.33 19.93 341.04 34.65"/>
  <g>
    <rect class="cls-2" x="50.89" y="130.72" width="22.88" height="9.43"/>
    <polyline class="cls-2" points="53.25 130.5 53.25 119.24 64.81 119.24 71.38 125.82 71.38 130.5"/>
    <polyline class="cls-2" points="71.42 125.78 64.73 125.78 64.73 119.24"/>
    <polyline class="cls-2" points="53.4 140.26 53.4 142.75 71.21 142.75 71.21 140.18"/>
    <g>
      <path class="cls-10" d="m58.77,133.24c1.01,0,1.61.28,1.61,1.41,0,1-.57,1.38-1.56,1.38h-.38v1.35h-.98v-4.14h1.31Zm-.33,1.95h.31c.47,0,.63-.16.63-.56s-.16-.55-.63-.55h-.31v1.11Z"/>
      <path class="cls-10" d="m62.44,133.24c1.08,0,1.73.63,1.73,2.06,0,1.32-.65,2.08-1.6,2.08h-1.59v-4.14h1.47Zm-.49,3.3h.41c.65,0,.81-.6.81-1.26,0-.59-.15-1.2-.81-1.2h-.41v2.46Z"/>
      <path class="cls-10" d="m64.79,137.38v-4.14h2.54v.84h-1.56v.87h1.42v.84h-1.42v1.59h-.98Z"/>
    </g>
  </g>
  <g>
    <g>
      <circle class="cls-1" cx="329.73" cy="85.64" r="3.97"/>
      <circle class="cls-1" cx="329.73" cy="85.64" r="6.68"/>
      <polyline class="cls-1" points="335.61 88.89 336.92 90.21 334.3 92.83 332.99 91.52"/>
      <polyline class="cls-1" points="339.76 98.19 335.58 94.11 338.21 91.49 342.38 95.56"/>
      <polyline class="cls-1" points="336.47 90.92 337.51 91.97 336.06 93.42 335.01 92.38"/>
    </g>
    <g class="cls-4">
      <g>
        <rect class="cls-1" x="314.09" y="70.28" width="20.69" height="11.52" rx="1.18" ry="1.18"/>
        <rect class="cls-1" x="316.85" y="72.99" width="8.09" height="1.97"/>
        <line class="cls-1" x1="316.87" y1="76.99" x2="325.19" y2="76.99"/>
        <line class="cls-1" x1="316.87" y1="78.68" x2="325.19" y2="78.68"/>
      </g>
    </g>
  </g>
</svg>