<?xml version="1.0" encoding="UTF-8"?>
<svg id="Capa_1" data-name="Capa 1" xmlns="http://www.w3.org/2000/svg" xmlns:xlink="http://www.w3.org/1999/xlink" viewBox="0 0 298.27 200.06">
  <defs>
    <style>
      .cls-1 {
        stroke-width: 1.5px;
      }

      .cls-1, .cls-2 {
        fill: none;
        stroke: #3a61d9;
        stroke-miterlimit: 10;
      }

      .cls-2 {
        stroke-width: 1.52px;
      }

      .cls-3 {
        mask: url(#mask);
      }

      .cls-4 {
        filter: url(#luminosity-noclip);
      }

      .cls-5 {
        fill: #2550d6;
        font-family: Roboto-Bold, Roboto;
        font-weight: 700;
        opacity: .6;
      }

      .cls-5, .cls-6 {
        font-size: 8.25px;
      }

      .cls-6 {
        fill: #91a6e9;
      }

      .cls-6, .cls-7 {
        font-family: Roboto-Regular, Roboto;
      }

      .cls-7 {
        fill: #494e54;
        font-size: 11px;
      }

      .cls-8 {
        stroke-width: 0px;
      }
    </style>
    <filter id="luminosity-noclip" x="37.55" y="65.79" width="23.07" height="22.78" color-interpolation-filters="sRGB" filterUnits="userSpaceOnUse">
      <feFlood flood-color="#fff" result="bg"/>
      <feBlend in="SourceGraphic" in2="bg"/>
    </filter>
    <mask id="mask" x="37.55" y="65.79" width="23.07" height="22.78" maskUnits="userSpaceOnUse">
      <g class="cls-4">
        <circle class="cls-8" cx="53.94" cy="81.89" r="6.68"/>
      </g>
    </mask>
  </defs>
  <g>
    <g>
      <text class="cls-5" transform="translate(79.87 33.55)"><tspan x="0" y="0">F</tspan></text>
      <text class="cls-5" transform="translate(84.52 33.55)"><tspan x="0" y="0">E</tspan></text>
      <text class="cls-5" transform="translate(89.17 33.55)"><tspan x="0" y="0">C</tspan></text>
      <text class="cls-5" transform="translate(94.58 33.55)"><tspan x="0" y="0">H</tspan></text>
      <text class="cls-5" transform="translate(100.73 33.55)"><tspan x="0" y="0">A</tspan></text>
      <text class="cls-5" transform="translate(106.13 33.55)"><tspan x="0" y="0"> </tspan></text>
      <text class="cls-5" transform="translate(108.53 33.55)"><tspan x="0" y="0">I</tspan></text>
      <text class="cls-5" transform="translate(110.93 33.55)"><tspan x="0" y="0">N</tspan></text>
      <text class="cls-5" transform="translate(117.09 33.55)"><tspan x="0" y="0">I</tspan></text>
      <text class="cls-5" transform="translate(119.49 33.55)"><tspan x="0" y="0">C</tspan></text>
      <text class="cls-5" transform="translate(124.89 33.55)"><tspan x="0" y="0">I</tspan></text>
      <text class="cls-5" transform="translate(127.29 33.55)"><tspan x="0" y="0">O</tspan></text>
      <text class="cls-5" transform="translate(133.44 33.55)"><tspan x="0" y="0"> </tspan></text>
      <text class="cls-5" transform="translate(135.85 33.55)"><tspan x="0" y="0">A</tspan></text>
      <text class="cls-5" transform="translate(141.25 33.55)"><tspan x="0" y="0">C</tspan></text>
      <text class="cls-5" transform="translate(146.65 33.55)"><tspan x="0" y="0">T</tspan></text>
      <text class="cls-5" transform="translate(152.05 33.55)"><tspan x="0" y="0">I</tspan></text>
      <text class="cls-5" transform="translate(154.45 33.55)"><tspan x="0" y="0">V</tspan></text>
      <text class="cls-5" transform="translate(159.85 33.55)"><tspan x="0" y="0">I</tspan></text>
      <text class="cls-5" transform="translate(162.26 33.55)"><tspan x="0" y="0">D</tspan></text>
      <text class="cls-5" transform="translate(167.66 33.55)"><tspan x="0" y="0">A</tspan></text>
      <text class="cls-5" transform="translate(173.06 33.55)"><tspan x="0" y="0">D</tspan></text>
    </g>
    <text class="cls-7" transform="translate(79.87 50.05)"><tspan x="0" y="0">1</tspan></text>
    <text class="cls-7" transform="translate(85.12 50.05)"><tspan x="0" y="0">3</tspan></text>
    <text class="cls-7" transform="translate(91.12 50.05)"><tspan x="0" y="0">/</tspan></text>
    <text class="cls-7" transform="translate(94.13 50.05)"><tspan x="0" y="0">0</tspan></text>
    <text class="cls-7" transform="translate(100.13 50.05)"><tspan x="0" y="0">3</tspan></text>
    <text class="cls-7" transform="translate(106.13 50.05)"><tspan x="0" y="0">/</tspan></text>
    <text class="cls-7" transform="translate(109.13 50.05)"><tspan x="0" y="0">1</tspan></text>
    <text class="cls-7" transform="translate(114.39 50.05)"><tspan x="0" y="0">9</tspan></text>
    <text class="cls-7" transform="translate(120.39 50.05)"><tspan x="0" y="0">9</tspan></text>
    <text class="cls-7" transform="translate(126.39 50.05)"><tspan x="0" y="0">2</tspan></text>
    <g>
      <text class="cls-5" transform="translate(79.87 72.56)"><tspan x="0" y="0">A</tspan></text>
      <text class="cls-5" transform="translate(85.27 72.56)"><tspan x="0" y="0">C</tspan></text>
      <text class="cls-5" transform="translate(90.67 72.56)"><tspan x="0" y="0">T</tspan></text>
      <text class="cls-5" transform="translate(96.08 72.56)"><tspan x="0" y="0">I</tspan></text>
      <text class="cls-5" transform="translate(98.48 72.56)"><tspan x="0" y="0">V</tspan></text>
      <text class="cls-5" transform="translate(103.88 72.56)"><tspan x="0" y="0">I</tspan></text>
      <text class="cls-5" transform="translate(106.28 72.56)"><tspan x="0" y="0">D</tspan></text>
      <text class="cls-5" transform="translate(111.68 72.56)"><tspan x="0" y="0">A</tspan></text>
      <text class="cls-5" transform="translate(117.09 72.56)"><tspan x="0" y="0">D</tspan></text>
      <text class="cls-5" transform="translate(122.49 72.56)"><tspan x="0" y="0"> </tspan></text>
      <text class="cls-5" transform="translate(124.89 72.56)"><tspan x="0" y="0">(</tspan></text>
      <text class="cls-5" transform="translate(128.04 72.56)"><tspan x="0" y="0">C</tspan></text>
      <text class="cls-5" transform="translate(133.44 72.56)"><tspan x="0" y="0">N</tspan></text>
      <text class="cls-5" transform="translate(139.6 72.56)"><tspan x="0" y="0">A</tspan></text>
      <text class="cls-5" transform="translate(145 72.56)"><tspan x="0" y="0">E</tspan></text>
      <text class="cls-5" transform="translate(149.65 72.56)"><tspan x="0" y="0"> </tspan></text>
      <text class="cls-5" transform="translate(152.05 72.56)"><tspan x="0" y="0">2</tspan></text>
      <text class="cls-5" transform="translate(156.7 72.56)"><tspan x="0" y="0">0</tspan></text>
      <text class="cls-5" transform="translate(161.36 72.56)"><tspan x="0" y="0">0</tspan></text>
      <text class="cls-5" transform="translate(166.01 72.56)"><tspan x="0" y="0">9</tspan></text>
      <text class="cls-5" transform="translate(170.66 72.56)"><tspan x="0" y="0">)</tspan></text>
    </g>
    <text class="cls-7" transform="translate(79.87 89.07)"><tspan x="0" y="0">6</tspan></text>
    <text class="cls-7" transform="translate(85.87 89.07)"><tspan x="0" y="0">3</tspan></text>
    <text class="cls-7" transform="translate(91.87 89.07)"><tspan x="0" y="0">1</tspan></text>
    <text class="cls-7" transform="translate(97.13 89.07)"><tspan x="0" y="0">1</tspan></text>
    <text class="cls-6" transform="translate(79.87 101.83)"><tspan x="0" y="0">P</tspan></text>
    <text class="cls-6" transform="translate(85.12 101.83)"><tspan x="0" y="0">r</tspan></text>
    <text class="cls-6" transform="translate(88.12 101.83)"><tspan x="0" y="0">o</tspan></text>
    <text class="cls-6" transform="translate(92.63 101.83)"><tspan x="0" y="0">c</tspan></text>
    <text class="cls-6" transform="translate(97.13 101.83)"><tspan x="0" y="0">e</tspan></text>
    <text class="cls-6" transform="translate(101.63 101.83)"><tspan x="0" y="0">s</tspan></text>
    <text class="cls-6" transform="translate(106.13 101.83)"><tspan x="0" y="0">o</tspan></text>
    <text class="cls-6" transform="translate(110.63 101.83)"><tspan x="0" y="0"> </tspan></text>
    <text class="cls-6" transform="translate(112.88 101.83)"><tspan x="0" y="0">d</tspan></text>
    <text class="cls-6" transform="translate(117.39 101.83)"><tspan x="0" y="0">e</tspan></text>
    <text class="cls-6" transform="translate(121.89 101.83)"><tspan x="0" y="0"> </tspan></text>
    <text class="cls-6" transform="translate(124.14 101.83)"><tspan x="0" y="0">d</tspan></text>
    <text class="cls-6" transform="translate(128.64 101.83)"><tspan x="0" y="0">a</tspan></text>
    <text class="cls-6" transform="translate(133.14 101.83)"><tspan x="0" y="0">t</tspan></text>
    <text class="cls-6" transform="translate(136.14 101.83)"><tspan x="0" y="0">o</tspan></text>
    <text class="cls-6" transform="translate(140.65 101.83)"><tspan x="0" y="0">s</tspan></text>
    <text class="cls-6" transform="translate(145.15 101.83)"><tspan x="0" y="0">,</tspan></text>
    <text class="cls-6" transform="translate(146.65 101.83)"><tspan x="0" y="0"> </tspan></text>
    <text class="cls-6" transform="translate(148.9 101.83)"><tspan x="0" y="0">h</tspan></text>
    <text class="cls-6" transform="translate(153.4 101.83)"><tspan x="0" y="0">o</tspan></text>
    <text class="cls-6" transform="translate(157.9 101.83)"><tspan x="0" y="0">s</tspan></text>
    <text class="cls-6" transform="translate(162.41 101.83)"><tspan x="0" y="0">t</tspan></text>
    <text class="cls-6" transform="translate(165.41 101.83)"><tspan x="0" y="0">i</tspan></text>
    <text class="cls-6" transform="translate(167.66 101.83)"><tspan x="0" y="0">n</tspan></text>
    <text class="cls-6" transform="translate(172.16 101.83)"><tspan x="0" y="0">g</tspan></text>
    <text class="cls-6" transform="translate(176.66 101.83)"><tspan x="0" y="0"> </tspan></text>
    <text class="cls-6" transform="translate(178.91 101.83)"><tspan x="0" y="0">y</tspan></text>
    <text class="cls-6" transform="translate(182.66 101.83)"><tspan x="0" y="0"> </tspan></text>
    <text class="cls-6" transform="translate(184.92 101.83)"><tspan x="0" y="0">a</tspan></text>
    <text class="cls-6" transform="translate(189.42 101.83)"><tspan x="0" y="0">c</tspan></text>
    <text class="cls-6" transform="translate(193.92 101.83)"><tspan x="0" y="0">t</tspan></text>
    <text class="cls-6" transform="translate(196.92 101.83)"><tspan x="0" y="0">i</tspan></text>
    <text class="cls-6" transform="translate(199.17 101.83)"><tspan x="0" y="0">v</tspan></text>
    <text class="cls-6" transform="translate(202.92 101.83)"><tspan x="0" y="0">i</tspan></text>
    <text class="cls-6" transform="translate(205.18 101.83)"><tspan x="0" y="0">d</tspan></text>
    <text class="cls-6" transform="translate(209.68 101.83)"><tspan x="0" y="0">a</tspan></text>
    <text class="cls-6" transform="translate(214.18 101.83)"><tspan x="0" y="0">d</tspan></text>
    <text class="cls-6" transform="translate(218.68 101.83)"><tspan x="0" y="0">e</tspan></text>
    <text class="cls-6" transform="translate(223.18 101.83)"><tspan x="0" y="0">s</tspan></text>
    <text class="cls-6" transform="translate(227.68 101.83)"><tspan x="0" y="0"> </tspan></text>
    <text class="cls-6" transform="translate(229.94 101.83)"><tspan x="0" y="0">r</tspan></text>
    <text class="cls-6" transform="translate(232.94 101.83)"><tspan x="0" y="0">e</tspan></text>
    <text class="cls-6" transform="translate(237.44 101.83)"><tspan x="0" y="0">l</tspan></text>
    <text class="cls-6" transform="translate(239.69 101.83)"><tspan x="0" y="0">a</tspan></text>
    <text class="cls-6" transform="translate(244.19 101.83)"><tspan x="0" y="0">c</tspan></text>
    <text class="cls-6" transform="translate(248.69 101.83)"><tspan x="0" y="0">i</tspan></text>
    <text class="cls-6" transform="translate(250.94 101.83)"><tspan x="0" y="0">o</tspan></text>
    <text class="cls-6" transform="translate(255.45 101.83)"><tspan x="0" y="0">n</tspan></text>
    <text class="cls-6" transform="translate(259.95 101.83)"><tspan x="0" y="0">a</tspan></text>
    <text class="cls-6" transform="translate(264.45 101.83)"><tspan x="0" y="0">d</tspan></text>
    <text class="cls-6" transform="translate(268.95 101.83)"><tspan x="0" y="0">a</tspan></text>
    <text class="cls-6" transform="translate(273.45 101.83)"><tspan x="0" y="0">s</tspan></text>
    <g>
      <text class="cls-5" transform="translate(79.87 123.59)"><tspan x="0" y="0">C</tspan></text>
      <text class="cls-5" transform="translate(85.27 123.59)"><tspan x="0" y="0">O</tspan></text>
      <text class="cls-5" transform="translate(91.43 123.59)"><tspan x="0" y="0">N</tspan></text>
      <text class="cls-5" transform="translate(97.58 123.59)"><tspan x="0" y="0">T</tspan></text>
      <text class="cls-5" transform="translate(102.98 123.59)"><tspan x="0" y="0">R</tspan></text>
      <text class="cls-5" transform="translate(108.38 123.59)"><tspan x="0" y="0">A</tspan></text>
      <text class="cls-5" transform="translate(113.03 123.59)"><tspan x="0" y="0">T</tspan></text>
      <text class="cls-5" transform="translate(118.44 123.59)"><tspan x="0" y="0">O</tspan></text>
      <text class="cls-5" transform="translate(124.59 123.59)"><tspan x="0" y="0">S</tspan></text>
      <text class="cls-5" transform="translate(129.99 123.59)"><tspan x="0" y="0"> </tspan></text>
      <text class="cls-5" transform="translate(132.39 123.59)"><tspan x="0" y="0">P</tspan></text>
      <text class="cls-5" transform="translate(137.8 123.59)"><tspan x="0" y="0">Ú</tspan></text>
      <text class="cls-5" transform="translate(143.2 123.59)"><tspan x="0" y="0">B</tspan></text>
      <text class="cls-5" transform="translate(148.6 123.59)"><tspan x="0" y="0">L</tspan></text>
      <text class="cls-5" transform="translate(153.25 123.59)"><tspan x="0" y="0">I</tspan></text>
      <text class="cls-5" transform="translate(155.65 123.59)"><tspan x="0" y="0">C</tspan></text>
      <text class="cls-5" transform="translate(161.06 123.59)"><tspan x="0" y="0">O</tspan></text>
      <text class="cls-5" transform="translate(167.21 123.59)"><tspan x="0" y="0">S</tspan></text>
      <text class="cls-5" transform="translate(172.61 123.59)"><tspan x="0" y="0"> </tspan></text>
      <text class="cls-5" transform="translate(175.01 123.59)"><tspan x="0" y="0">A</tspan></text>
      <text class="cls-5" transform="translate(180.41 123.59)"><tspan x="0" y="0">D</tspan></text>
      <text class="cls-5" transform="translate(185.82 123.59)"><tspan x="0" y="0">J</tspan></text>
      <text class="cls-5" transform="translate(190.47 123.59)"><tspan x="0" y="0">U</tspan></text>
      <text class="cls-5" transform="translate(195.87 123.59)"><tspan x="0" y="0">D</tspan></text>
      <text class="cls-5" transform="translate(201.27 123.59)"><tspan x="0" y="0">I</tspan></text>
      <text class="cls-5" transform="translate(203.67 123.59)"><tspan x="0" y="0">C</tspan></text>
      <text class="cls-5" transform="translate(209.08 123.59)"><tspan x="0" y="0">A</tspan></text>
      <text class="cls-5" transform="translate(214.48 123.59)"><tspan x="0" y="0">D</tspan></text>
      <text class="cls-5" transform="translate(219.88 123.59)"><tspan x="0" y="0">O</tspan></text>
      <text class="cls-5" transform="translate(226.03 123.59)"><tspan x="0" y="0">S</tspan></text>
    </g>
    <text class="cls-7" transform="translate(79.87 140.09)"><tspan x="0" y="0">S</tspan></text>
    <text class="cls-7" transform="translate(85.87 140.09)"><tspan x="0" y="0">í</tspan></text>
    <g>
      <text class="cls-5" transform="translate(79.87 163.35)"><tspan x="0" y="0">E</tspan></text>
      <text class="cls-5" transform="translate(84.52 163.35)"><tspan x="0" y="0">N</tspan></text>
      <text class="cls-5" transform="translate(90.67 163.35)"><tspan x="0" y="0">T</tspan></text>
      <text class="cls-5" transform="translate(96.08 163.35)"><tspan x="0" y="0">I</tspan></text>
      <text class="cls-5" transform="translate(98.48 163.35)"><tspan x="0" y="0">D</tspan></text>
      <text class="cls-5" transform="translate(103.88 163.35)"><tspan x="0" y="0">A</tspan></text>
      <text class="cls-5" transform="translate(109.28 163.35)"><tspan x="0" y="0">D</tspan></text>
      <text class="cls-5" transform="translate(114.68 163.35)"><tspan x="0" y="0">E</tspan></text>
      <text class="cls-5" transform="translate(119.34 163.35)"><tspan x="0" y="0">S</tspan></text>
      <text class="cls-5" transform="translate(124.74 163.35)"><tspan x="0" y="0"> </tspan></text>
      <text class="cls-5" transform="translate(127.14 163.35)"><tspan x="0" y="0">B</tspan></text>
      <text class="cls-5" transform="translate(132.54 163.35)"><tspan x="0" y="0">A</tspan></text>
      <text class="cls-5" transform="translate(137.95 163.35)"><tspan x="0" y="0">N</tspan></text>
      <text class="cls-5" transform="translate(144.1 163.35)"><tspan x="0" y="0">C</tspan></text>
      <text class="cls-5" transform="translate(149.5 163.35)"><tspan x="0" y="0">A</tspan></text>
      <text class="cls-5" transform="translate(154.9 163.35)"><tspan x="0" y="0">R</tspan></text>
      <text class="cls-5" transform="translate(160.31 163.35)"><tspan x="0" y="0">I</tspan></text>
      <text class="cls-5" transform="translate(162.71 163.35)"><tspan x="0" y="0">A</tspan></text>
      <text class="cls-5" transform="translate(168.11 163.35)"><tspan x="0" y="0">S</tspan></text>
    </g>
    <text class="cls-7" transform="translate(79.87 179.86)"><tspan x="0" y="0">4</tspan></text>
  </g>
  <g>
    <g>
      <circle class="cls-1" cx="53.94" cy="81.89" r="3.97"/>
      <circle class="cls-1" cx="53.94" cy="81.89" r="6.68"/>
      <polyline class="cls-1" points="59.82 85.15 61.13 86.46 58.51 89.08 57.2 87.77"/>
      <polyline class="cls-1" points="63.97 94.44 59.79 90.37 62.42 87.74 66.59 91.82"/>
      <polyline class="cls-1" points="60.68 87.17 61.73 88.22 60.27 89.68 59.23 88.63"/>
    </g>
    <g class="cls-3">
      <g>
        <rect class="cls-1" x="38.3" y="66.54" width="20.69" height="11.52" rx="1.18" ry="1.18"/>
        <rect class="cls-1" x="41.06" y="69.24" width="8.09" height="1.97"/>
        <line class="cls-1" x1="41.08" y1="73.25" x2="49.4" y2="73.25"/>
        <line class="cls-1" x1="41.08" y1="74.93" x2="49.4" y2="74.93"/>
      </g>
    </g>
  </g>
  <g>
    <path class="cls-1" d="m55.31,50.16c-.25-1.64-4.95-12.66-4.95-12.66,0,0-1.25,11.92-1,13.56s1.78,2.77,3.42,2.53,2.77-1.78,2.53-3.42Z"/>
    <path class="cls-2" d="m38.85,33.67c3-4.27,7.97-7.06,13.58-7.06s10.62,2.81,13.62,7.12l-4.5,2.93c-2.04-2.83-5.36-4.68-9.12-4.68s-7.08,1.85-9.12,4.68l-4.47-2.98Z"/>
    <line class="cls-2" x1="52.98" y1="31.47" x2="52.98" y2="26.52"/>
  </g>
  <g>
    <polygon class="cls-2" points="52.45 157.51 42.25 163.09 42.25 165.43 62.64 165.43 62.64 162.94 52.45 157.51"/>
    <circle class="cls-2" cx="52.45" cy="161.91" r="1.69"/>
    <rect class="cls-2" x="42.25" y="174.53" width="20.39" height="3.15"/>
    <g>
      <line class="cls-2" x1="60.59" y1="167.34" x2="60.59" y2="174.45"/>
      <line class="cls-2" x1="55.16" y1="167.34" x2="55.16" y2="174.45"/>
      <line class="cls-2" x1="49.73" y1="167.34" x2="49.73" y2="174.45"/>
      <line class="cls-2" x1="44.31" y1="167.34" x2="44.31" y2="174.45"/>
    </g>
  </g>
  <g>
    <circle class="cls-2" cx="57.56" cy="134.56" r="3.99"/>
    <polyline class="cls-2" points="55.32 134.73 56.98 135.98 59.47 133.32"/>
    <polyline class="cls-2" points="59.06 130.74 59.06 117.19 43.34 117.19 43.34 138.39 56.23 138.39"/>
    <line class="cls-2" x1="46.34" y1="121.68" x2="56.06" y2="121.68"/>
    <line class="cls-2" x1="46.34" y1="125.17" x2="56.06" y2="125.17"/>
    <line class="cls-2" x1="46.34" y1="128.66" x2="56.06" y2="128.66"/>
  </g>
</svg>