<?xml version="1.0" encoding="UTF-8"?>
<svg id="Capa_1" data-name="Capa 1" xmlns="http://www.w3.org/2000/svg" viewBox="0 0 298.27 214.77">
  <defs>
    <style>
      .cls-1 {
        stroke: #3a61d9;
        stroke-linecap: round;
        stroke-linejoin: round;
        stroke-width: 1.5px;
      }

      .cls-1, .cls-2, .cls-3 {
        fill: none;
      }

      .cls-4 {
        fill: #494e54;
        font-family: Roboto-Regular, Roboto;
        font-size: 8px;
      }

      .cls-5 {
        fill: #2550d6;
        font-family: Roboto-Bold, Roboto;
        font-size: 8.25px;
        font-weight: 700;
        opacity: .6;
      }

      .cls-2 {
        stroke: #ccd6eb;
      }

      .cls-2, .cls-3 {
        stroke-width: .75px;
      }

      .cls-3 {
        stroke: #e6e6e6;
      }
    </style>
  </defs>
  <g>
    <text class="cls-5" transform="translate(25.66 21.1)"><tspan x="0" y="0">E</tspan></text>
    <text class="cls-5" transform="translate(30.31 21.1)"><tspan x="0" y="0">V</tspan></text>
    <text class="cls-5" transform="translate(35.72 21.1)"><tspan x="0" y="0">O</tspan></text>
    <text class="cls-5" transform="translate(41.87 21.1)"><tspan x="0" y="0">L</tspan></text>
    <text class="cls-5" transform="translate(46.52 21.1)"><tspan x="0" y="0">U</tspan></text>
    <text class="cls-5" transform="translate(51.92 21.1)"><tspan x="0" y="0">C</tspan></text>
    <text class="cls-5" transform="translate(57.33 21.1)"><tspan x="0" y="0">I</tspan></text>
    <text class="cls-5" transform="translate(59.73 21.1)"><tspan x="0" y="0">Ó</tspan></text>
    <text class="cls-5" transform="translate(65.88 21.1)"><tspan x="0" y="0">N</tspan></text>
    <text class="cls-5" transform="translate(72.03 21.1)"><tspan x="0" y="0"> </tspan></text>
    <text class="cls-5" transform="translate(74.43 21.1)"><tspan x="0" y="0">D</tspan></text>
    <text class="cls-5" transform="translate(79.84 21.1)"><tspan x="0" y="0">E</tspan></text>
    <text class="cls-5" transform="translate(84.49 21.1)"><tspan x="0" y="0">L</tspan></text>
    <text class="cls-5" transform="translate(89.14 21.1)"><tspan x="0" y="0"> </tspan></text>
    <text class="cls-5" transform="translate(91.54 21.1)"><tspan x="0" y="0">R</tspan></text>
    <text class="cls-5" transform="translate(96.94 21.1)"><tspan x="0" y="0">A</tspan></text>
    <text class="cls-5" transform="translate(101.6 21.1)"><tspan x="0" y="0">T</tspan></text>
    <text class="cls-5" transform="translate(107 21.1)"><tspan x="0" y="0">I</tspan></text>
    <text class="cls-5" transform="translate(109.4 21.1)"><tspan x="0" y="0">N</tspan></text>
    <text class="cls-5" transform="translate(115.55 21.1)"><tspan x="0" y="0">G</tspan></text>
    <text class="cls-5" transform="translate(121.7 21.1)"><tspan x="0" y="0"> </tspan></text>
    <text class="cls-5" transform="translate(124.11 21.1)"><tspan x="0" y="0">I</tspan></text>
    <text class="cls-5" transform="translate(126.51 21.1)"><tspan x="0" y="0">N</tspan></text>
    <text class="cls-5" transform="translate(132.66 21.1)"><tspan x="0" y="0">F</tspan></text>
    <text class="cls-5" transform="translate(137.31 21.1)"><tspan x="0" y="0">O</tspan></text>
    <text class="cls-5" transform="translate(143.46 21.1)"><tspan x="0" y="0">R</tspan></text>
    <text class="cls-5" transform="translate(148.87 21.1)"><tspan x="0" y="0">M</tspan></text>
    <text class="cls-5" transform="translate(156.52 21.1)"><tspan x="0" y="0">A</tspan></text>
    <text class="cls-5" transform="translate(161.92 21.1)"><tspan x="0" y="0"> </tspan></text>
    <text class="cls-5" transform="translate(164.32 21.1)"><tspan x="0" y="0">R</tspan></text>
    <text class="cls-5" transform="translate(169.73 21.1)"><tspan x="0" y="0">I</tspan></text>
    <text class="cls-5" transform="translate(172.13 21.1)"><tspan x="0" y="0">E</tspan></text>
    <text class="cls-5" transform="translate(176.78 21.1)"><tspan x="0" y="0">S</tspan></text>
    <text class="cls-5" transform="translate(182.18 21.1)"><tspan x="0" y="0">G</tspan></text>
    <text class="cls-5" transform="translate(188.33 21.1)"><tspan x="0" y="0">O</tspan></text>
    <text class="cls-5" transform="translate(194.49 21.1)"><tspan x="0" y="0"> </tspan></text>
    <text class="cls-5" transform="translate(196.89 21.1)"><tspan x="0" y="0">D</tspan></text>
    <text class="cls-5" transform="translate(202.29 21.1)"><tspan x="0" y="0">E</tspan></text>
    <text class="cls-5" transform="translate(206.94 21.1)"><tspan x="0" y="0"> </tspan></text>
    <text class="cls-5" transform="translate(209.34 21.1)"><tspan x="0" y="0">C</tspan></text>
    <text class="cls-5" transform="translate(214.75 21.1)"><tspan x="0" y="0">E</tspan></text>
    <text class="cls-5" transform="translate(219.4 21.1)"><tspan x="0" y="0">S</tspan></text>
    <text class="cls-5" transform="translate(224.8 21.1)"><tspan x="0" y="0">E</tspan></text>
  </g>
  <g>
    <line class="cls-3" x1="66.58" y1="33.86" x2="66.58" y2="187.68"/>
    <line class="cls-3" x1="89.84" y1="33.86" x2="89.84" y2="187.68"/>
    <line class="cls-3" x1="112.35" y1="33.86" x2="112.35" y2="187.68"/>
    <line class="cls-3" x1="135.61" y1="33.86" x2="135.61" y2="187.68"/>
    <line class="cls-3" x1="158.87" y1="33.86" x2="158.87" y2="187.68"/>
    <line class="cls-3" x1="181.38" y1="33.86" x2="181.38" y2="187.68"/>
    <line class="cls-3" x1="204.64" y1="33.86" x2="204.64" y2="187.68"/>
    <line class="cls-3" x1="227.15" y1="33.86" x2="227.15" y2="187.68"/>
    <line class="cls-3" x1="250.41" y1="33.86" x2="250.41" y2="187.68"/>
    <line class="cls-3" x1="53.45" y1="184.3" x2="256.79" y2="184.3"/>
    <line class="cls-3" x1="53.45" y1="155.04" x2="256.79" y2="155.04"/>
    <line class="cls-3" x1="53.45" y1="125.77" x2="256.79" y2="125.77"/>
    <line class="cls-3" x1="53.45" y1="96.51" x2="256.79" y2="96.51"/>
    <line class="cls-3" x1="53.45" y1="67.25" x2="256.79" y2="67.25"/>
    <line class="cls-3" x1="53.45" y1="37.99" x2="256.79" y2="37.99"/>
    <line class="cls-2" x1="66.58" y1="187.68" x2="66.58" y2="195.18"/>
    <line class="cls-2" x1="89.84" y1="187.68" x2="89.84" y2="195.18"/>
    <line class="cls-2" x1="112.35" y1="187.68" x2="112.35" y2="195.18"/>
    <line class="cls-2" x1="135.61" y1="187.68" x2="135.61" y2="195.18"/>
    <line class="cls-2" x1="158.87" y1="187.68" x2="158.87" y2="195.18"/>
    <line class="cls-2" x1="181.38" y1="187.68" x2="181.38" y2="195.18"/>
    <line class="cls-2" x1="204.64" y1="187.68" x2="204.64" y2="195.18"/>
    <line class="cls-2" x1="227.15" y1="187.68" x2="227.15" y2="195.18"/>
    <line class="cls-2" x1="250.41" y1="187.68" x2="250.41" y2="195.18"/>
    <line class="cls-2" x1="53.45" y1="188.05" x2="256.79" y2="188.05"/>
  </g>
  <path class="cls-1" d="m55.44,52.17h199.35"/>
  <g>
    <text class="cls-4" transform="translate(57.75 201.93)"><tspan x="0" y="0">2008</tspan></text>
    <text class="cls-4" transform="translate(80.75 201.93)"><tspan x="0" y="0">2010</tspan></text>
    <text class="cls-4" transform="translate(103.72 201.93)"><tspan x="0" y="0">2012</tspan></text>
    <text class="cls-4" transform="translate(126.72 201.93)"><tspan x="0" y="0">2014</tspan></text>
    <text class="cls-4" transform="translate(149.7 201.93)"><tspan x="0" y="0">2016</tspan></text>
    <text class="cls-4" transform="translate(172.7 201.93)"><tspan x="0" y="0">2018</tspan></text>
    <text class="cls-4" transform="translate(195.67 201.93)"><tspan x="0" y="0">2020</tspan></text>
    <text class="cls-4" transform="translate(218.68 201.93)"><tspan x="0" y="0">2022</tspan></text>
    <text class="cls-4" transform="translate(238.42 201.93)"><tspan x="0" y="0">2024</tspan></text>
    <text class="cls-4" transform="translate(37.6 187.68)"><tspan x="0" y="0">0</tspan></text>
    <text class="cls-4" transform="translate(37.6 158.41)"><tspan x="0" y="0">4</tspan></text>
    <text class="cls-4" transform="translate(37.6 129.15)"><tspan x="0" y="0">8</tspan></text>
    <text class="cls-4" transform="translate(33.01 99.89)"><tspan x="0" y="0">12</tspan></text>
    <text class="cls-4" transform="translate(33.01 70.62)"><tspan x="0" y="0">16</tspan></text>
    <text class="cls-4" transform="translate(33.01 41.36)"><tspan x="0" y="0">20</tspan></text>
  </g>
</svg>