<?xml version="1.0" encoding="UTF-8"?>
<svg id="Capa_1" data-name="Capa 1" xmlns="http://www.w3.org/2000/svg" xmlns:xlink="http://www.w3.org/1999/xlink" viewBox="0 0 297.48 176.63">
  <defs>
    <style>
      .cls-1 {
        stroke: #3a61d9;
        stroke-linecap: round;
        stroke-linejoin: round;
        stroke-width: 1.5px;
      }

      .cls-1, .cls-2, .cls-3, .cls-4 {
        fill: none;
      }

      .cls-5 {
        clip-path: url(#clippath);
      }

      .cls-2 {
        stroke-width: 0px;
      }

      .cls-6 {
        fill: #494e54;
        font-family: Roboto-Regular, Roboto;
        font-size: 8px;
      }

      .cls-7 {
        fill: #2550d6;
        font-family: Roboto-Bold, Roboto;
        font-size: 8.25px;
        font-weight: 700;
        opacity: .6;
      }

      .cls-3 {
        stroke: #ccd6eb;
      }

      .cls-3, .cls-4 {
        stroke-width: .75px;
      }

      .cls-4 {
        stroke: #e6e6e6;
      }
    </style>
    <clipPath id="clippath">
      <rect class="cls-2" x="78.53" y="46.67" width="196.59" height="85.54"/>
    </clipPath>
  </defs>
  <g>
    <text class="cls-7" transform="translate(44.07 33.91)"><tspan x="0" y="0">E</tspan></text>
    <text class="cls-7" transform="translate(48.72 33.91)"><tspan x="0" y="0">V</tspan></text>
    <text class="cls-7" transform="translate(54.13 33.91)"><tspan x="0" y="0">O</tspan></text>
    <text class="cls-7" transform="translate(60.28 33.91)"><tspan x="0" y="0">L</tspan></text>
    <text class="cls-7" transform="translate(64.93 33.91)"><tspan x="0" y="0">U</tspan></text>
    <text class="cls-7" transform="translate(70.33 33.91)"><tspan x="0" y="0">C</tspan></text>
    <text class="cls-7" transform="translate(75.74 33.91)"><tspan x="0" y="0">I</tspan></text>
    <text class="cls-7" transform="translate(78.14 33.91)"><tspan x="0" y="0">Ó</tspan></text>
    <text class="cls-7" transform="translate(84.29 33.91)"><tspan x="0" y="0">N</tspan></text>
    <text class="cls-7" transform="translate(90.44 33.91)"><tspan x="0" y="0"> </tspan></text>
    <text class="cls-7" transform="translate(92.84 33.91)"><tspan x="0" y="0">D</tspan></text>
    <text class="cls-7" transform="translate(98.25 33.91)"><tspan x="0" y="0">E</tspan></text>
    <text class="cls-7" transform="translate(102.9 33.91)"><tspan x="0" y="0"> </tspan></text>
    <text class="cls-7" transform="translate(105.3 33.91)"><tspan x="0" y="0">L</tspan></text>
    <text class="cls-7" transform="translate(109.95 33.91)"><tspan x="0" y="0">A</tspan></text>
    <text class="cls-7" transform="translate(115.35 33.91)"><tspan x="0" y="0">S</tspan></text>
    <text class="cls-7" transform="translate(120.76 33.91)"><tspan x="0" y="0"> </tspan></text>
    <text class="cls-7" transform="translate(123.16 33.91)"><tspan x="0" y="0">V</tspan></text>
    <text class="cls-7" transform="translate(128.56 33.91)"><tspan x="0" y="0">E</tspan></text>
    <text class="cls-7" transform="translate(133.21 33.91)"><tspan x="0" y="0">N</tspan></text>
    <text class="cls-7" transform="translate(139.36 33.91)"><tspan x="0" y="0">T</tspan></text>
    <text class="cls-7" transform="translate(144.02 33.91)"><tspan x="0" y="0">A</tspan></text>
    <text class="cls-7" transform="translate(149.42 33.91)"><tspan x="0" y="0">S</tspan></text>
  </g>
  <g>
    <line class="cls-4" x1="94.66" y1="46.67" x2="94.66" y2="132.2"/>
    <line class="cls-4" x1="127.68" y1="46.67" x2="127.68" y2="132.2"/>
    <line class="cls-4" x1="159.94" y1="46.67" x2="159.94" y2="132.2"/>
    <line class="cls-4" x1="192.95" y1="46.67" x2="192.95" y2="132.2"/>
    <line class="cls-4" x1="225.97" y1="46.67" x2="225.97" y2="132.2"/>
    <line class="cls-4" x1="258.23" y1="46.67" x2="258.23" y2="132.2"/>
    <line class="cls-4" x1="78.53" y1="132.58" x2="275.11" y2="132.58"/>
    <line class="cls-4" x1="78.53" y1="104.07" x2="275.11" y2="104.07"/>
    <line class="cls-4" x1="78.53" y1="75.55" x2="275.11" y2="75.55"/>
    <line class="cls-4" x1="78.53" y1="46.29" x2="275.11" y2="46.29"/>
    <line class="cls-3" x1="78.53" y1="132.58" x2="275.11" y2="132.58"/>
  </g>
  <g class="cls-5">
    <path class="cls-1" d="m94.91,121.93s19.66-7.86,32.76-7.86,19.66,3.57,32.76,3.57,19.66-7.76,32.76-10.74c13.11-2.98,19.66,0,32.76-4.16,13.11-4.16,32.76-26.02,32.76-26.02"/>
  </g>
  <g>
    <text class="cls-6" transform="translate(85.73 146.46)"><tspan x="0" y="0">2018</tspan></text>
    <text class="cls-6" transform="translate(118.5 146.46)"><tspan x="0" y="0">2019</tspan></text>
    <text class="cls-6" transform="translate(151.26 146.46)"><tspan x="0" y="0">2020</tspan></text>
    <text class="cls-6" transform="translate(184.02 146.46)"><tspan x="0" y="0">2021</tspan></text>
    <text class="cls-6" transform="translate(216.79 146.46)"><tspan x="0" y="0">2022</tspan></text>
    <text class="cls-6" transform="translate(249.55 146.46)"><tspan x="0" y="0">2023</tspan></text>
    <text class="cls-6" transform="translate(51.22 135.96)"><tspan x="0" y="0">60M</tspan></text>
    <text class="cls-6" transform="translate(51.22 107.44)"><tspan x="0" y="0">65M</tspan></text>
    <text class="cls-6" transform="translate(51.22 78.93)"><tspan x="0" y="0">70M</tspan></text>
    <text class="cls-6" transform="translate(51.22 50.42)"><tspan x="0" y="0">75M</tspan></text>
  </g>
</svg>