<?xml version="1.0" encoding="UTF-8"?>
<svg id="Capa_1" data-name="Capa 1" xmlns="http://www.w3.org/2000/svg" xmlns:xlink="http://www.w3.org/1999/xlink" viewBox="0 0 297.48 186.43">
  <defs>
    <style>
      .cls-1 {
        fill: none;
        stroke: #3a61d9;
        stroke-miterlimit: 10;
        stroke-width: 1.52px;
      }

      .cls-2 {
        clip-path: url(#clippath);
      }

      .cls-3 {
        fill: #2550d6;
        font-family: Roboto-Bold, Roboto;
        font-size: 8.25px;
        font-weight: 700;
        opacity: .6;
      }

      .cls-4 {
        fill: #494e54;
        font-family: Roboto-Regular, Roboto;
        font-size: 9px;
      }
    </style>
    <clipPath id="clippath">
      <circle class="cls-1" cx="54.14" cy="120.44" r="5.37"/>
    </clipPath>
  </defs>
  <g>
    <text class="cls-3" transform="translate(77.07 14.69)"><tspan x="0" y="0">P</tspan></text>
    <text class="cls-3" transform="translate(82.48 14.69)"><tspan x="0" y="0">R</tspan></text>
    <text class="cls-3" transform="translate(87.88 14.69)"><tspan x="0" y="0">E</tspan></text>
    <text class="cls-3" transform="translate(92.53 14.69)"><tspan x="0" y="0">S</tspan></text>
    <text class="cls-3" transform="translate(97.93 14.69)"><tspan x="0" y="0">I</tspan></text>
    <text class="cls-3" transform="translate(100.33 14.69)"><tspan x="0" y="0">D</tspan></text>
    <text class="cls-3" transform="translate(105.74 14.69)"><tspan x="0" y="0">E</tspan></text>
    <text class="cls-3" transform="translate(110.39 14.69)"><tspan x="0" y="0">N</tspan></text>
    <text class="cls-3" transform="translate(116.54 14.69)"><tspan x="0" y="0">T</tspan></text>
    <text class="cls-3" transform="translate(121.94 14.69)"><tspan x="0" y="0">E</tspan></text>
  </g>
  <text class="cls-4" transform="translate(77.07 28.94)"><tspan x="0" y="0">S</tspan></text>
  <text class="cls-4" transform="translate(82.33 28.94)"><tspan x="0" y="0">A</tspan></text>
  <text class="cls-4" transform="translate(88.33 28.94)"><tspan x="0" y="0">L</tspan></text>
  <text class="cls-4" transform="translate(92.83 28.94)"><tspan x="0" y="0">A</tspan></text>
  <text class="cls-4" transform="translate(98.83 28.94)"><tspan x="0" y="0">Z</tspan></text>
  <text class="cls-4" transform="translate(104.09 28.94)"><tspan x="0" y="0">A</tspan></text>
  <text class="cls-4" transform="translate(110.09 28.94)"><tspan x="0" y="0">R</tspan></text>
  <text class="cls-4" transform="translate(115.34 28.94)"><tspan x="0" y="0"> </tspan></text>
  <text class="cls-4" transform="translate(117.59 28.94)"><tspan x="0" y="0">P</tspan></text>
  <text class="cls-4" transform="translate(122.84 28.94)"><tspan x="0" y="0">A</tspan></text>
  <text class="cls-4" transform="translate(128.85 28.94)"><tspan x="0" y="0">L</tspan></text>
  <text class="cls-4" transform="translate(133.35 28.94)"><tspan x="0" y="0">M</tspan></text>
  <text class="cls-4" transform="translate(140.85 28.94)"><tspan x="0" y="0">A</tspan></text>
  <text class="cls-4" transform="translate(146.86 28.94)"><tspan x="0" y="0">,</tspan></text>
  <text class="cls-4" transform="translate(148.36 28.94)"><tspan x="0" y="0"> </tspan></text>
  <text class="cls-4" transform="translate(150.61 28.94)"><tspan x="0" y="0">F</tspan></text>
  <text class="cls-4" transform="translate(155.86 28.94)"><tspan x="0" y="0">E</tspan></text>
  <text class="cls-4" transform="translate(161.11 28.94)"><tspan x="0" y="0">R</tspan></text>
  <text class="cls-4" transform="translate(166.36 28.94)"><tspan x="0" y="0">N</tspan></text>
  <text class="cls-4" transform="translate(173.12 28.94)"><tspan x="0" y="0">A</tspan></text>
  <text class="cls-4" transform="translate(179.12 28.94)"><tspan x="0" y="0">N</tspan></text>
  <text class="cls-4" transform="translate(185.87 28.94)"><tspan x="0" y="0">D</tspan></text>
  <text class="cls-4" transform="translate(191.88 28.94)"><tspan x="0" y="0">O</tspan></text>
  <g>
    <text class="cls-3" transform="translate(77.07 50.7)"><tspan x="0" y="0">M</tspan></text>
    <text class="cls-3" transform="translate(84.73 50.7)"><tspan x="0" y="0">A</tspan></text>
    <text class="cls-3" transform="translate(89.38 50.7)"><tspan x="0" y="0">T</tspan></text>
    <text class="cls-3" transform="translate(94.78 50.7)"><tspan x="0" y="0">R</tspan></text>
    <text class="cls-3" transform="translate(100.18 50.7)"><tspan x="0" y="0">I</tspan></text>
    <text class="cls-3" transform="translate(102.59 50.7)"><tspan x="0" y="0">Z</tspan></text>
  </g>
  <text class="cls-4" transform="translate(77.07 64.96)"><tspan x="0" y="0">C</tspan></text>
  <text class="cls-4" transform="translate(83.08 64.96)"><tspan x="0" y="0">O</tspan></text>
  <text class="cls-4" transform="translate(89.08 64.96)"><tspan x="0" y="0">M</tspan></text>
  <text class="cls-4" transform="translate(96.58 64.96)"><tspan x="0" y="0">P</tspan></text>
  <text class="cls-4" transform="translate(101.83 64.96)"><tspan x="0" y="0">A</tspan></text>
  <text class="cls-4" transform="translate(107.84 64.96)"><tspan x="0" y="0">Ñ</tspan></text>
  <text class="cls-4" transform="translate(114.59 64.96)"><tspan x="0" y="0">I</tspan></text>
  <text class="cls-4" transform="translate(116.84 64.96)"><tspan x="0" y="0">A</tspan></text>
  <text class="cls-4" transform="translate(122.84 64.96)"><tspan x="0" y="0"> </tspan></text>
  <text class="cls-4" transform="translate(125.1 64.96)"><tspan x="0" y="0">E</tspan></text>
  <text class="cls-4" transform="translate(130.35 64.96)"><tspan x="0" y="0">S</tspan></text>
  <text class="cls-4" transform="translate(135.6 64.96)"><tspan x="0" y="0">P</tspan></text>
  <text class="cls-4" transform="translate(140.85 64.96)"><tspan x="0" y="0">A</tspan></text>
  <text class="cls-4" transform="translate(146.86 64.96)"><tspan x="0" y="0">Ñ</tspan></text>
  <text class="cls-4" transform="translate(153.61 64.96)"><tspan x="0" y="0">O</tspan></text>
  <text class="cls-4" transform="translate(159.61 64.96)"><tspan x="0" y="0">L</tspan></text>
  <text class="cls-4" transform="translate(164.11 64.96)"><tspan x="0" y="0">A</tspan></text>
  <text class="cls-4" transform="translate(170.12 64.96)"><tspan x="0" y="0"> </tspan></text>
  <text class="cls-4" transform="translate(172.37 64.96)"><tspan x="0" y="0">D</tspan></text>
  <text class="cls-4" transform="translate(178.37 64.96)"><tspan x="0" y="0">E</tspan></text>
  <text class="cls-4" transform="translate(183.62 64.96)"><tspan x="0" y="0"> </tspan></text>
  <text class="cls-4" transform="translate(185.87 64.96)"><tspan x="0" y="0">S</tspan></text>
  <text class="cls-4" transform="translate(191.12 64.96)"><tspan x="0" y="0">E</tspan></text>
  <text class="cls-4" transform="translate(196.38 64.96)"><tspan x="0" y="0">G</tspan></text>
  <text class="cls-4" transform="translate(202.38 64.96)"><tspan x="0" y="0">U</tspan></text>
  <text class="cls-4" transform="translate(208.38 64.96)"><tspan x="0" y="0">R</tspan></text>
  <text class="cls-4" transform="translate(213.63 64.96)"><tspan x="0" y="0">O</tspan></text>
  <text class="cls-4" transform="translate(219.64 64.96)"><tspan x="0" y="0">S</tspan></text>
  <text class="cls-4" transform="translate(224.89 64.96)"><tspan x="0" y="0"> </tspan></text>
  <text class="cls-4" transform="translate(227.14 64.96)"><tspan x="0" y="0">D</tspan></text>
  <text class="cls-4" transform="translate(233.14 64.96)"><tspan x="0" y="0">E</tspan></text>
  <text class="cls-4" transform="translate(238.4 64.96)"><tspan x="0" y="0"> </tspan></text>
  <text class="cls-4" transform="translate(240.65 64.96)"><tspan x="0" y="0">C</tspan></text>
  <text class="cls-4" transform="translate(246.65 64.96)"><tspan x="0" y="0">R</tspan></text>
  <text class="cls-4" transform="translate(251.9 64.96)"><tspan x="0" y="0">E</tspan></text>
  <text class="cls-4" transform="translate(257.15 64.96)"><tspan x="0" y="0">D</tspan></text>
  <text class="cls-4" transform="translate(263.16 64.96)"><tspan x="0" y="0">I</tspan></text>
  <text class="cls-4" transform="translate(265.41 64.96)"><tspan x="0" y="0">T</tspan></text>
  <text class="cls-4" transform="translate(270.66 64.96)"><tspan x="0" y="0">O</tspan></text>
  <text class="cls-4" transform="translate(276.66 64.96)"><tspan x="0" y="0"> </tspan></text>
  <text class="cls-4" transform="translate(278.91 64.96)"><tspan x="0" y="0">A</tspan></text>
  <text class="cls-4" transform="translate(77.07 76.21)"><tspan x="0" y="0">L</tspan></text>
  <text class="cls-4" transform="translate(81.58 76.21)"><tspan x="0" y="0">A</tspan></text>
  <text class="cls-4" transform="translate(87.58 76.21)"><tspan x="0" y="0"> </tspan></text>
  <text class="cls-4" transform="translate(89.83 76.21)"><tspan x="0" y="0">E</tspan></text>
  <text class="cls-4" transform="translate(95.08 76.21)"><tspan x="0" y="0">X</tspan></text>
  <text class="cls-4" transform="translate(101.08 76.21)"><tspan x="0" y="0">P</tspan></text>
  <text class="cls-4" transform="translate(107.09 76.21)"><tspan x="0" y="0">O</tspan></text>
  <text class="cls-4" transform="translate(113.09 76.21)"><tspan x="0" y="0">R</tspan></text>
  <text class="cls-4" transform="translate(118.34 76.21)"><tspan x="0" y="0">T</tspan></text>
  <text class="cls-4" transform="translate(123.59 76.21)"><tspan x="0" y="0">A</tspan></text>
  <text class="cls-4" transform="translate(129.6 76.21)"><tspan x="0" y="0">C</tspan></text>
  <text class="cls-4" transform="translate(135.6 76.21)"><tspan x="0" y="0">I</tspan></text>
  <text class="cls-4" transform="translate(137.85 76.21)"><tspan x="0" y="0">O</tspan></text>
  <text class="cls-4" transform="translate(143.85 76.21)"><tspan x="0" y="0">N</tspan></text>
  <text class="cls-4" transform="translate(150.61 76.21)"><tspan x="0" y="0"> </tspan></text>
  <text class="cls-4" transform="translate(152.86 76.21)"><tspan x="0" y="0">S</tspan></text>
  <text class="cls-4" transform="translate(158.11 76.21)"><tspan x="0" y="0">O</tspan></text>
  <text class="cls-4" transform="translate(164.11 76.21)"><tspan x="0" y="0">C</tspan></text>
  <text class="cls-4" transform="translate(170.12 76.21)"><tspan x="0" y="0">I</tspan></text>
  <text class="cls-4" transform="translate(172.37 76.21)"><tspan x="0" y="0">E</tspan></text>
  <text class="cls-4" transform="translate(177.62 76.21)"><tspan x="0" y="0">D</tspan></text>
  <text class="cls-4" transform="translate(183.62 76.21)"><tspan x="0" y="0">A</tspan></text>
  <text class="cls-4" transform="translate(189.62 76.21)"><tspan x="0" y="0">D</tspan></text>
  <text class="cls-4" transform="translate(195.63 76.21)"><tspan x="0" y="0"> </tspan></text>
  <text class="cls-4" transform="translate(197.88 76.21)"><tspan x="0" y="0">A</tspan></text>
  <text class="cls-4" transform="translate(203.88 76.21)"><tspan x="0" y="0">N</tspan></text>
  <text class="cls-4" transform="translate(210.63 76.21)"><tspan x="0" y="0">O</tspan></text>
  <text class="cls-4" transform="translate(216.64 76.21)"><tspan x="0" y="0">N</tspan></text>
  <text class="cls-4" transform="translate(223.39 76.21)"><tspan x="0" y="0">I</tspan></text>
  <text class="cls-4" transform="translate(225.64 76.21)"><tspan x="0" y="0">M</tspan></text>
  <text class="cls-4" transform="translate(233.14 76.21)"><tspan x="0" y="0">A</tspan></text>
  <text class="cls-4" transform="translate(77.07 88.22)"><tspan x="0" y="0">C</tspan></text>
  <text class="cls-4" transform="translate(83.08 88.22)"><tspan x="0" y="0">O</tspan></text>
  <text class="cls-4" transform="translate(89.08 88.22)"><tspan x="0" y="0">M</tspan></text>
  <text class="cls-4" transform="translate(96.58 88.22)"><tspan x="0" y="0">P</tspan></text>
  <text class="cls-4" transform="translate(101.83 88.22)"><tspan x="0" y="0">A</tspan></text>
  <text class="cls-4" transform="translate(107.84 88.22)"><tspan x="0" y="0">Ñ</tspan></text>
  <text class="cls-4" transform="translate(114.59 88.22)"><tspan x="0" y="0">I</tspan></text>
  <text class="cls-4" transform="translate(116.84 88.22)"><tspan x="0" y="0">A</tspan></text>
  <text class="cls-4" transform="translate(122.84 88.22)"><tspan x="0" y="0"> </tspan></text>
  <text class="cls-4" transform="translate(125.1 88.22)"><tspan x="0" y="0">D</tspan></text>
  <text class="cls-4" transform="translate(131.1 88.22)"><tspan x="0" y="0">E</tspan></text>
  <text class="cls-4" transform="translate(136.35 88.22)"><tspan x="0" y="0"> </tspan></text>
  <text class="cls-4" transform="translate(138.6 88.22)"><tspan x="0" y="0">S</tspan></text>
  <text class="cls-4" transform="translate(143.85 88.22)"><tspan x="0" y="0">E</tspan></text>
  <text class="cls-4" transform="translate(149.11 88.22)"><tspan x="0" y="0">G</tspan></text>
  <text class="cls-4" transform="translate(155.11 88.22)"><tspan x="0" y="0">U</tspan></text>
  <text class="cls-4" transform="translate(161.11 88.22)"><tspan x="0" y="0">R</tspan></text>
  <text class="cls-4" transform="translate(166.36 88.22)"><tspan x="0" y="0">O</tspan></text>
  <text class="cls-4" transform="translate(172.37 88.22)"><tspan x="0" y="0">S</tspan></text>
  <text class="cls-4" transform="translate(177.62 88.22)"><tspan x="0" y="0"> </tspan></text>
  <text class="cls-4" transform="translate(179.87 88.22)"><tspan x="0" y="0">Y</tspan></text>
  <text class="cls-4" transform="translate(185.12 88.22)"><tspan x="0" y="0"> </tspan></text>
  <text class="cls-4" transform="translate(187.37 88.22)"><tspan x="0" y="0">R</tspan></text>
  <text class="cls-4" transform="translate(192.62 88.22)"><tspan x="0" y="0">E</tspan></text>
  <text class="cls-4" transform="translate(197.88 88.22)"><tspan x="0" y="0">A</tspan></text>
  <text class="cls-4" transform="translate(203.88 88.22)"><tspan x="0" y="0">S</tspan></text>
  <text class="cls-4" transform="translate(209.13 88.22)"><tspan x="0" y="0">E</tspan></text>
  <text class="cls-4" transform="translate(214.38 88.22)"><tspan x="0" y="0">G</tspan></text>
  <text class="cls-4" transform="translate(220.39 88.22)"><tspan x="0" y="0">U</tspan></text>
  <text class="cls-4" transform="translate(226.39 88.22)"><tspan x="0" y="0">R</tspan></text>
  <text class="cls-4" transform="translate(231.64 88.22)"><tspan x="0" y="0">O</tspan></text>
  <text class="cls-4" transform="translate(237.65 88.22)"><tspan x="0" y="0">S</tspan></text>
  <text class="cls-4" transform="translate(77.07 99.47)"><tspan x="0" y="0">S</tspan></text>
  <text class="cls-4" transform="translate(82.33 99.47)"><tspan x="0" y="0">O</tspan></text>
  <text class="cls-4" transform="translate(88.33 99.47)"><tspan x="0" y="0">C</tspan></text>
  <text class="cls-4" transform="translate(94.33 99.47)"><tspan x="0" y="0">I</tspan></text>
  <text class="cls-4" transform="translate(96.58 99.47)"><tspan x="0" y="0">E</tspan></text>
  <text class="cls-4" transform="translate(101.83 99.47)"><tspan x="0" y="0">D</tspan></text>
  <text class="cls-4" transform="translate(107.84 99.47)"><tspan x="0" y="0">A</tspan></text>
  <text class="cls-4" transform="translate(113.84 99.47)"><tspan x="0" y="0">D</tspan></text>
  <text class="cls-4" transform="translate(119.84 99.47)"><tspan x="0" y="0"> </tspan></text>
  <text class="cls-4" transform="translate(122.09 99.47)"><tspan x="0" y="0">M</tspan></text>
  <text class="cls-4" transform="translate(129.6 99.47)"><tspan x="0" y="0">E</tspan></text>
  <text class="cls-4" transform="translate(134.85 99.47)"><tspan x="0" y="0">R</tspan></text>
  <text class="cls-4" transform="translate(140.1 99.47)"><tspan x="0" y="0">C</tspan></text>
  <text class="cls-4" transform="translate(146.1 99.47)"><tspan x="0" y="0">A</tspan></text>
  <text class="cls-4" transform="translate(152.11 99.47)"><tspan x="0" y="0">N</tspan></text>
  <text class="cls-4" transform="translate(158.86 99.47)"><tspan x="0" y="0">T</tspan></text>
  <text class="cls-4" transform="translate(164.11 99.47)"><tspan x="0" y="0">I</tspan></text>
  <text class="cls-4" transform="translate(166.36 99.47)"><tspan x="0" y="0">L</tspan></text>
  <text class="cls-4" transform="translate(170.87 99.47)"><tspan x="0" y="0"> </tspan></text>
  <text class="cls-4" transform="translate(173.12 99.47)"><tspan x="0" y="0">E</tspan></text>
  <text class="cls-4" transform="translate(178.37 99.47)"><tspan x="0" y="0">S</tspan></text>
  <text class="cls-4" transform="translate(183.62 99.47)"><tspan x="0" y="0">T</tspan></text>
  <text class="cls-4" transform="translate(188.87 99.47)"><tspan x="0" y="0">A</tspan></text>
  <text class="cls-4" transform="translate(194.13 99.47)"><tspan x="0" y="0">T</tspan></text>
  <text class="cls-4" transform="translate(199.38 99.47)"><tspan x="0" y="0">A</tspan></text>
  <text class="cls-4" transform="translate(205.38 99.47)"><tspan x="0" y="0">L</tspan></text>
  <g>
    <text class="cls-3" transform="translate(77.07 121.23)"><tspan x="0" y="0">D</tspan></text>
    <text class="cls-3" transform="translate(82.48 121.23)"><tspan x="0" y="0">E</tspan></text>
    <text class="cls-3" transform="translate(87.13 121.23)"><tspan x="0" y="0">P</tspan></text>
    <text class="cls-3" transform="translate(92.53 121.23)"><tspan x="0" y="0">E</tspan></text>
    <text class="cls-3" transform="translate(97.18 121.23)"><tspan x="0" y="0">N</tspan></text>
    <text class="cls-3" transform="translate(103.34 121.23)"><tspan x="0" y="0">D</tspan></text>
    <text class="cls-3" transform="translate(108.74 121.23)"><tspan x="0" y="0">E</tspan></text>
    <text class="cls-3" transform="translate(113.39 121.23)"><tspan x="0" y="0">N</tspan></text>
    <text class="cls-3" transform="translate(119.54 121.23)"><tspan x="0" y="0">C</tspan></text>
    <text class="cls-3" transform="translate(124.95 121.23)"><tspan x="0" y="0">I</tspan></text>
    <text class="cls-3" transform="translate(127.35 121.23)"><tspan x="0" y="0">A</tspan></text>
    <text class="cls-3" transform="translate(132.75 121.23)"><tspan x="0" y="0"> </tspan></text>
    <text class="cls-3" transform="translate(135.15 121.23)"><tspan x="0" y="0">E</tspan></text>
    <text class="cls-3" transform="translate(139.8 121.23)"><tspan x="0" y="0">S</tspan></text>
    <text class="cls-3" transform="translate(145.2 121.23)"><tspan x="0" y="0">T</tspan></text>
    <text class="cls-3" transform="translate(150.61 121.23)"><tspan x="0" y="0">R</tspan></text>
    <text class="cls-3" transform="translate(156.01 121.23)"><tspan x="0" y="0">U</tspan></text>
    <text class="cls-3" transform="translate(161.41 121.23)"><tspan x="0" y="0">C</tspan></text>
    <text class="cls-3" transform="translate(166.81 121.23)"><tspan x="0" y="0">T</tspan></text>
    <text class="cls-3" transform="translate(172.22 121.23)"><tspan x="0" y="0">U</tspan></text>
    <text class="cls-3" transform="translate(177.62 121.23)"><tspan x="0" y="0">R</tspan></text>
    <text class="cls-3" transform="translate(183.02 121.23)"><tspan x="0" y="0">A</tspan></text>
    <text class="cls-3" transform="translate(188.42 121.23)"><tspan x="0" y="0">L</tspan></text>
  </g>
  <text class="cls-4" transform="translate(77.07 135.49)"><tspan x="0" y="0">C</tspan></text>
  <text class="cls-4" transform="translate(83.08 135.49)"><tspan x="0" y="0">a</tspan></text>
  <text class="cls-4" transform="translate(88.33 135.49)"><tspan x="0" y="0">b</tspan></text>
  <text class="cls-4" transform="translate(93.58 135.49)"><tspan x="0" y="0">e</tspan></text>
  <text class="cls-4" transform="translate(98.08 135.49)"><tspan x="0" y="0">c</tspan></text>
  <text class="cls-4" transform="translate(102.59 135.49)"><tspan x="0" y="0">e</tspan></text>
  <text class="cls-4" transform="translate(107.09 135.49)"><tspan x="0" y="0">r</tspan></text>
  <text class="cls-4" transform="translate(110.09 135.49)"><tspan x="0" y="0">a</tspan></text>
  <text class="cls-4" transform="translate(115.34 135.49)"><tspan x="0" y="0"> </tspan></text>
  <text class="cls-4" transform="translate(117.59 135.49)"><tspan x="0" y="0">G</tspan></text>
  <text class="cls-4" transform="translate(123.59 135.49)"><tspan x="0" y="0">r</tspan></text>
  <text class="cls-4" transform="translate(126.6 135.49)"><tspan x="0" y="0">u</tspan></text>
  <text class="cls-4" transform="translate(131.85 135.49)"><tspan x="0" y="0">p</tspan></text>
  <text class="cls-4" transform="translate(137.1 135.49)"><tspan x="0" y="0">o</tspan></text>
  <text class="cls-4" transform="translate(142.35 135.49)"><tspan x="0" y="0"> </tspan></text>
  <text class="cls-4" transform="translate(144.6 135.49)"><tspan x="0" y="0">C</tspan></text>
  <text class="cls-4" transform="translate(150.61 135.49)"><tspan x="0" y="0">o</tspan></text>
  <text class="cls-4" transform="translate(155.86 135.49)"><tspan x="0" y="0">n</tspan></text>
  <text class="cls-4" transform="translate(161.11 135.49)"><tspan x="0" y="0">s</tspan></text>
  <text class="cls-4" transform="translate(165.61 135.49)"><tspan x="0" y="0">o</tspan></text>
  <text class="cls-4" transform="translate(170.87 135.49)"><tspan x="0" y="0">l</tspan></text>
  <text class="cls-4" transform="translate(173.12 135.49)"><tspan x="0" y="0">i</tspan></text>
  <text class="cls-4" transform="translate(175.37 135.49)"><tspan x="0" y="0">d</tspan></text>
  <text class="cls-4" transform="translate(180.62 135.49)"><tspan x="0" y="0">a</tspan></text>
  <text class="cls-4" transform="translate(185.87 135.49)"><tspan x="0" y="0">d</tspan></text>
  <text class="cls-4" transform="translate(191.12 135.49)"><tspan x="0" y="0">o</tspan></text>
  <g>
    <text class="cls-3" transform="translate(77.07 157.25)"><tspan x="0" y="0">P</tspan></text>
    <text class="cls-3" transform="translate(81.73 157.25)"><tspan x="0" y="0">A</tspan></text>
    <text class="cls-3" transform="translate(87.13 157.25)"><tspan x="0" y="0">R</tspan></text>
    <text class="cls-3" transform="translate(92.53 157.25)"><tspan x="0" y="0">T</tspan></text>
    <text class="cls-3" transform="translate(97.93 157.25)"><tspan x="0" y="0">I</tspan></text>
    <text class="cls-3" transform="translate(100.33 157.25)"><tspan x="0" y="0">C</tspan></text>
    <text class="cls-3" transform="translate(105.74 157.25)"><tspan x="0" y="0">I</tspan></text>
    <text class="cls-3" transform="translate(108.14 157.25)"><tspan x="0" y="0">P</tspan></text>
    <text class="cls-3" transform="translate(112.79 157.25)"><tspan x="0" y="0">A</tspan></text>
    <text class="cls-3" transform="translate(118.19 157.25)"><tspan x="0" y="0">C</tspan></text>
    <text class="cls-3" transform="translate(123.59 157.25)"><tspan x="0" y="0">I</tspan></text>
    <text class="cls-3" transform="translate(126 157.25)"><tspan x="0" y="0">O</tspan></text>
    <text class="cls-3" transform="translate(132.15 157.25)"><tspan x="0" y="0">N</tspan></text>
    <text class="cls-3" transform="translate(138.3 157.25)"><tspan x="0" y="0">E</tspan></text>
    <text class="cls-3" transform="translate(142.95 157.25)"><tspan x="0" y="0">S</tspan></text>
  </g>
  <text class="cls-4" transform="translate(77.07 171.51)"><tspan x="0" y="0">7</tspan></text>
  <g>
    <g>
      <path class="cls-1" d="m53.86,26.19h1.59s.39-4.51.39-4.51l1.32-.43v-3.61c0-.82-.66-1.48-1.48-1.48h-2.06s.19,0,.19,0h-2.06c-.82,0-1.48.66-1.48,1.48v3.61l1.32.43.39,4.51h1.87Z"/>
      <circle class="cls-1" cx="53.74" cy="12.23" r="2.29"/>
    </g>
    <path class="cls-1" d="m57.84,24.23c2.74.4,4.61,1.17,4.61,2.07,0,1.29-3.91,2.33-8.73,2.33s-8.74-1.04-8.74-2.33c0-.89,1.87-1.67,4.61-2.07"/>
  </g>
  <g>
    <path class="cls-1" d="m47.56,58.4c0,3.7,3.12,6.67,6.87,6.43,3.43-.22,6.02-3.22,6.02-6.65v-4.94h-.13c-1.46,0-2.65,1.19-2.65,2.65v1.73h-.62c-1.65,0-2.99,1.34-2.99,2.99h0"/>
    <path class="cls-1" d="m47.87,50.46v-2.04c0-.64.52-1.16,1.16-1.16h0c.64,0,1.16.52,1.16,1.16v1.99"/>
    <path class="cls-1" d="m54.85,50.46v-2.04c0-.64.52-1.16,1.16-1.16h0c.64,0,1.16.52,1.16,1.16v1.99"/>
    <path class="cls-1" d="m50.19,50.38v-2.37c0-.64.52-1.16,1.16-1.16h0c.64,0,1.16.52,1.16,1.16v2.32"/>
    <path class="cls-1" d="m52.52,50.38v-2.37c0-.64.52-1.16,1.16-1.16h0c.64,0,1.16.52,1.16,1.16v2.32"/>
    <polyline class="cls-1" points="60.48 58.73 62.46 58.73 62.46 50.53 44.98 50.53 44.98 58.78 54.57 58.78"/>
    <circle class="cls-1" cx="53.21" cy="54.66" r="1.73"/>
    <line class="cls-1" x1="47.12" y1="53.03" x2="49.26" y2="53.03"/>
  </g>
  <g>
    <g>
      <g class="cls-2">
        <g>
          <path class="cls-1" d="m54.29,134.66h1.76s.43-4.97.43-4.97l1.46-.47v-3.98c0-.9-.73-1.63-1.63-1.63h-2.26s.21,0,.21,0h-2.26c-.9,0-1.63.73-1.63,1.63v3.98l1.46.47.43,4.97h2.06Z"/>
          <circle class="cls-1" cx="54.16" cy="119.29" r="2.53"/>
        </g>
      </g>
      <circle class="cls-1" cx="54.14" cy="120.44" r="5.37"/>
    </g>
    <circle class="cls-1" cx="54.14" cy="120.44" r="5.37"/>
    <g>
      <path class="cls-1" d="m48.11,139.17h.86s.21-2.43.21-2.43l.71-.23v-1.95c0-.44-.36-.8-.8-.8h-1.11s.1,0,.1,0h-1.11c-.44,0-.8.36-.8.8v1.95l.71.23.21,2.43h1.01Z"/>
      <circle class="cls-1" cx="48.05" cy="131.64" r="1.24"/>
    </g>
    <g>
      <path class="cls-1" d="m54.25,139.17h.86s.21-2.43.21-2.43l.71-.23v-1.95c0-.44-.36-.8-.8-.8h-1.11s.1,0,.1,0h-1.11c-.44,0-.8.36-.8.8v1.95l.71.23.21,2.43h1.01Z"/>
      <circle class="cls-1" cx="54.19" cy="131.64" r="1.24"/>
    </g>
    <g>
      <path class="cls-1" d="m60.54,139.17h.86s.21-2.43.21-2.43l.71-.23v-1.95c0-.44-.36-.8-.8-.8h-1.11s.1,0,.1,0h-1.11c-.44,0-.8.36-.8.8v1.95l.71.23.21,2.43h1.01Z"/>
      <circle class="cls-1" cx="60.48" cy="131.64" r="1.24"/>
    </g>
    <polyline class="cls-1" points="47.93 129.06 47.93 127.72 60.46 127.72 60.46 128.9"/>
    <line class="cls-1" x1="54.19" y1="128.95" x2="54.19" y2="125.81"/>
  </g>
  <g>
    <path class="cls-1" d="m53.36,161.63l-.03-7.84c-4.29.02-7.8,3.55-7.8,7.84s3.54,7.84,7.84,7.84,7.84-3.54,7.84-7.84h-7.84Z"/>
    <path class="cls-1" d="m55.84,159.16l7.84-.04c-.02-4.28-3.55-7.8-7.84-7.8-.02,0-.04,0-.06,0l.06,7.84Z"/>
  </g>
</svg>