<?xml version="1.0" encoding="UTF-8"?>
<svg id="Capa_1" data-name="Capa 1" xmlns="http://www.w3.org/2000/svg" viewBox="0 0 297.48 186.43">
  <defs>
    <style>
      .cls-1 {
        fill: none;
        stroke: #3a61d9;
        stroke-miterlimit: 10;
        stroke-width: 1.52px;
      }

      .cls-2 {
        fill: #2550d6;
        font-family: Roboto-Bold, Roboto;
        font-size: 8.25px;
        font-weight: 700;
        opacity: .6;
      }

      .cls-3 {
        fill: #494e54;
        font-family: Roboto-Regular, Roboto;
        font-size: 9px;
      }

      .cls-4 {
        fill: #3a61d9;
        stroke-width: 0px;
      }
    </style>
  </defs>
  <g>
    <text class="cls-2" transform="translate(55.03 14.69)"><tspan x="0" y="0">F</tspan></text>
    <text class="cls-2" transform="translate(59.68 14.69)"><tspan x="0" y="0">O</tspan></text>
    <text class="cls-2" transform="translate(65.83 14.69)"><tspan x="0" y="0">R</tspan></text>
    <text class="cls-2" transform="translate(71.23 14.69)"><tspan x="0" y="0">M</tspan></text>
    <text class="cls-2" transform="translate(78.89 14.69)"><tspan x="0" y="0">A</tspan></text>
    <text class="cls-2" transform="translate(84.29 14.69)"><tspan x="0" y="0"> </tspan></text>
    <text class="cls-2" transform="translate(86.69 14.69)"><tspan x="0" y="0">J</tspan></text>
    <text class="cls-2" transform="translate(91.34 14.69)"><tspan x="0" y="0">U</tspan></text>
    <text class="cls-2" transform="translate(96.74 14.69)"><tspan x="0" y="0">R</tspan></text>
    <text class="cls-2" transform="translate(102.15 14.69)"><tspan x="0" y="0">Í</tspan></text>
    <text class="cls-2" transform="translate(104.55 14.69)"><tspan x="0" y="0">D</tspan></text>
    <text class="cls-2" transform="translate(109.95 14.69)"><tspan x="0" y="0">I</tspan></text>
    <text class="cls-2" transform="translate(112.35 14.69)"><tspan x="0" y="0">C</tspan></text>
    <text class="cls-2" transform="translate(117.75 14.69)"><tspan x="0" y="0">A</tspan></text>
  </g>
  <text class="cls-3" transform="translate(55.03 28.94)"><tspan x="0" y="0">S</tspan></text>
  <text class="cls-3" transform="translate(60.28 28.94)"><tspan x="0" y="0">o</tspan></text>
  <text class="cls-3" transform="translate(65.53 28.94)"><tspan x="0" y="0">c</tspan></text>
  <text class="cls-3" transform="translate(70.03 28.94)"><tspan x="0" y="0">i</tspan></text>
  <text class="cls-3" transform="translate(72.28 28.94)"><tspan x="0" y="0">e</tspan></text>
  <text class="cls-3" transform="translate(76.78 28.94)"><tspan x="0" y="0">d</tspan></text>
  <text class="cls-3" transform="translate(82.04 28.94)"><tspan x="0" y="0">a</tspan></text>
  <text class="cls-3" transform="translate(87.29 28.94)"><tspan x="0" y="0">d</tspan></text>
  <text class="cls-3" transform="translate(92.54 28.94)"><tspan x="0" y="0"> </tspan></text>
  <text class="cls-3" transform="translate(94.79 28.94)"><tspan x="0" y="0">a</tspan></text>
  <text class="cls-3" transform="translate(100.05 28.94)"><tspan x="0" y="0">n</tspan></text>
  <text class="cls-3" transform="translate(105.3 28.94)"><tspan x="0" y="0">ó</tspan></text>
  <text class="cls-3" transform="translate(110.55 28.94)"><tspan x="0" y="0">n</tspan></text>
  <text class="cls-3" transform="translate(115.8 28.94)"><tspan x="0" y="0">i</tspan></text>
  <text class="cls-3" transform="translate(118.05 28.94)"><tspan x="0" y="0">m</tspan></text>
  <text class="cls-3" transform="translate(126.31 28.94)"><tspan x="0" y="0">a</tspan></text>
  <text class="cls-3" transform="translate(131.56 28.94)"><tspan x="0" y="0"> </tspan></text>
  <text class="cls-3" transform="translate(133.81 28.94)"><tspan x="0" y="0">u</tspan></text>
  <text class="cls-3" transform="translate(139.06 28.94)"><tspan x="0" y="0">n</tspan></text>
  <text class="cls-3" transform="translate(144.32 28.94)"><tspan x="0" y="0">i</tspan></text>
  <text class="cls-3" transform="translate(146.57 28.94)"><tspan x="0" y="0">p</tspan></text>
  <text class="cls-3" transform="translate(151.82 28.94)"><tspan x="0" y="0">e</tspan></text>
  <text class="cls-3" transform="translate(156.32 28.94)"><tspan x="0" y="0">r</tspan></text>
  <text class="cls-3" transform="translate(159.32 28.94)"><tspan x="0" y="0">s</tspan></text>
  <text class="cls-3" transform="translate(163.82 28.94)"><tspan x="0" y="0">o</tspan></text>
  <text class="cls-3" transform="translate(169.08 28.94)"><tspan x="0" y="0">n</tspan></text>
  <text class="cls-3" transform="translate(174.33 28.94)"><tspan x="0" y="0">a</tspan></text>
  <text class="cls-3" transform="translate(179.58 28.94)"><tspan x="0" y="0">l</tspan></text>
  <g>
    <text class="cls-2" transform="translate(55.03 50.7)"><tspan x="0" y="0">Ú</tspan></text>
    <text class="cls-2" transform="translate(60.43 50.7)"><tspan x="0" y="0">L</tspan></text>
    <text class="cls-2" transform="translate(64.33 50.7)"><tspan x="0" y="0">T</tspan></text>
    <text class="cls-2" transform="translate(69.73 50.7)"><tspan x="0" y="0">I</tspan></text>
    <text class="cls-2" transform="translate(72.13 50.7)"><tspan x="0" y="0">M</tspan></text>
    <text class="cls-2" transform="translate(79.79 50.7)"><tspan x="0" y="0">O</tspan></text>
    <text class="cls-2" transform="translate(85.94 50.7)"><tspan x="0" y="0"> </tspan></text>
    <text class="cls-2" transform="translate(88.34 50.7)"><tspan x="0" y="0">A</tspan></text>
    <text class="cls-2" transform="translate(93.74 50.7)"><tspan x="0" y="0">C</tspan></text>
    <text class="cls-2" transform="translate(99.14 50.7)"><tspan x="0" y="0">T</tspan></text>
    <text class="cls-2" transform="translate(104.55 50.7)"><tspan x="0" y="0">O</tspan></text>
    <text class="cls-2" transform="translate(110.7 50.7)"><tspan x="0" y="0"> </tspan></text>
    <text class="cls-2" transform="translate(113.1 50.7)"><tspan x="0" y="0">P</tspan></text>
    <text class="cls-2" transform="translate(118.5 50.7)"><tspan x="0" y="0">U</tspan></text>
    <text class="cls-2" transform="translate(123.91 50.7)"><tspan x="0" y="0">B</tspan></text>
    <text class="cls-2" transform="translate(129.31 50.7)"><tspan x="0" y="0">L</tspan></text>
    <text class="cls-2" transform="translate(133.96 50.7)"><tspan x="0" y="0">I</tspan></text>
    <text class="cls-2" transform="translate(136.36 50.7)"><tspan x="0" y="0">C</tspan></text>
    <text class="cls-2" transform="translate(141.76 50.7)"><tspan x="0" y="0">A</tspan></text>
    <text class="cls-2" transform="translate(147.17 50.7)"><tspan x="0" y="0">D</tspan></text>
    <text class="cls-2" transform="translate(152.57 50.7)"><tspan x="0" y="0">O</tspan></text>
    <text class="cls-2" transform="translate(158.72 50.7)"><tspan x="0" y="0"> </tspan></text>
    <text class="cls-2" transform="translate(161.12 50.7)"><tspan x="0" y="0">E</tspan></text>
    <text class="cls-2" transform="translate(165.77 50.7)"><tspan x="0" y="0">N</tspan></text>
    <text class="cls-2" transform="translate(171.93 50.7)"><tspan x="0" y="0"> </tspan></text>
    <text class="cls-2" transform="translate(174.33 50.7)"><tspan x="0" y="0">B</tspan></text>
    <text class="cls-2" transform="translate(179.73 50.7)"><tspan x="0" y="0">O</tspan></text>
    <text class="cls-2" transform="translate(185.88 50.7)"><tspan x="0" y="0">R</tspan></text>
    <text class="cls-2" transform="translate(191.29 50.7)"><tspan x="0" y="0">M</tspan></text>
    <text class="cls-2" transform="translate(198.94 50.7)"><tspan x="0" y="0">E</tspan></text>
  </g>
  <text class="cls-3" transform="translate(55.03 64.96)"><tspan x="0" y="0">2</tspan></text>
  <text class="cls-3" transform="translate(60.28 64.96)"><tspan x="0" y="0">3</tspan></text>
  <text class="cls-3" transform="translate(65.53 64.96)"><tspan x="0" y="0">/</tspan></text>
  <text class="cls-3" transform="translate(69.28 64.96)"><tspan x="0" y="0">0</tspan></text>
  <text class="cls-3" transform="translate(74.53 64.96)"><tspan x="0" y="0">1</tspan></text>
  <text class="cls-3" transform="translate(79.79 64.96)"><tspan x="0" y="0">/</tspan></text>
  <text class="cls-3" transform="translate(83.54 64.96)"><tspan x="0" y="0">2</tspan></text>
  <text class="cls-3" transform="translate(88.79 64.96)"><tspan x="0" y="0">0</tspan></text>
  <text class="cls-3" transform="translate(94.04 64.96)"><tspan x="0" y="0">2</tspan></text>
  <text class="cls-3" transform="translate(99.29 64.96)"><tspan x="0" y="0">4</tspan></text>
  <text class="cls-3" transform="translate(104.55 64.96)"><tspan x="0" y="0"> </tspan></text>
  <text class="cls-3" transform="translate(106.8 64.96)"><tspan x="0" y="0">-</tspan></text>
  <text class="cls-3" transform="translate(109.05 64.96)"><tspan x="0" y="0"> </tspan></text>
  <text class="cls-3" transform="translate(111.3 64.96)"><tspan x="0" y="0">R</tspan></text>
  <text class="cls-3" transform="translate(116.55 64.96)"><tspan x="0" y="0">e</tspan></text>
  <text class="cls-3" transform="translate(121.05 64.96)"><tspan x="0" y="0">v</tspan></text>
  <text class="cls-3" transform="translate(125.56 64.96)"><tspan x="0" y="0">o</tspan></text>
  <text class="cls-3" transform="translate(130.81 64.96)"><tspan x="0" y="0">c</tspan></text>
  <text class="cls-3" transform="translate(135.31 64.96)"><tspan x="0" y="0">a</tspan></text>
  <text class="cls-3" transform="translate(140.56 64.96)"><tspan x="0" y="0">c</tspan></text>
  <text class="cls-3" transform="translate(145.07 64.96)"><tspan x="0" y="0">i</tspan></text>
  <text class="cls-3" transform="translate(147.32 64.96)"><tspan x="0" y="0">o</tspan></text>
  <text class="cls-3" transform="translate(152.57 64.96)"><tspan x="0" y="0">n</tspan></text>
  <text class="cls-3" transform="translate(157.82 64.96)"><tspan x="0" y="0">e</tspan></text>
  <text class="cls-3" transform="translate(162.32 64.96)"><tspan x="0" y="0">s</tspan></text>
  <g>
    <text class="cls-2" transform="translate(55.03 86.72)"><tspan x="0" y="0">Ú</tspan></text>
    <text class="cls-2" transform="translate(60.43 86.72)"><tspan x="0" y="0">L</tspan></text>
    <text class="cls-2" transform="translate(64.33 86.72)"><tspan x="0" y="0">T</tspan></text>
    <text class="cls-2" transform="translate(69.73 86.72)"><tspan x="0" y="0">I</tspan></text>
    <text class="cls-2" transform="translate(72.13 86.72)"><tspan x="0" y="0">M</tspan></text>
    <text class="cls-2" transform="translate(79.79 86.72)"><tspan x="0" y="0">O</tspan></text>
    <text class="cls-2" transform="translate(85.94 86.72)"><tspan x="0" y="0"> </tspan></text>
    <text class="cls-2" transform="translate(88.34 86.72)"><tspan x="0" y="0">A</tspan></text>
    <text class="cls-2" transform="translate(93.74 86.72)"><tspan x="0" y="0">R</tspan></text>
    <text class="cls-2" transform="translate(99.14 86.72)"><tspan x="0" y="0">T</tspan></text>
    <text class="cls-2" transform="translate(104.55 86.72)"><tspan x="0" y="0">Í</tspan></text>
    <text class="cls-2" transform="translate(106.95 86.72)"><tspan x="0" y="0">C</tspan></text>
    <text class="cls-2" transform="translate(112.35 86.72)"><tspan x="0" y="0">U</tspan></text>
    <text class="cls-2" transform="translate(117.75 86.72)"><tspan x="0" y="0">L</tspan></text>
    <text class="cls-2" transform="translate(122.4 86.72)"><tspan x="0" y="0">O</tspan></text>
    <text class="cls-2" transform="translate(128.56 86.72)"><tspan x="0" y="0"> </tspan></text>
    <text class="cls-2" transform="translate(130.96 86.72)"><tspan x="0" y="0">P</tspan></text>
    <text class="cls-2" transform="translate(136.36 86.72)"><tspan x="0" y="0">U</tspan></text>
    <text class="cls-2" transform="translate(141.76 86.72)"><tspan x="0" y="0">B</tspan></text>
    <text class="cls-2" transform="translate(147.17 86.72)"><tspan x="0" y="0">L</tspan></text>
    <text class="cls-2" transform="translate(151.82 86.72)"><tspan x="0" y="0">I</tspan></text>
    <text class="cls-2" transform="translate(154.22 86.72)"><tspan x="0" y="0">C</tspan></text>
    <text class="cls-2" transform="translate(159.62 86.72)"><tspan x="0" y="0">A</tspan></text>
    <text class="cls-2" transform="translate(165.02 86.72)"><tspan x="0" y="0">D</tspan></text>
    <text class="cls-2" transform="translate(170.43 86.72)"><tspan x="0" y="0">O</tspan></text>
    <text class="cls-2" transform="translate(176.58 86.72)"><tspan x="0" y="0"> </tspan></text>
    <text class="cls-2" transform="translate(178.98 86.72)"><tspan x="0" y="0">E</tspan></text>
    <text class="cls-2" transform="translate(183.63 86.72)"><tspan x="0" y="0">N</tspan></text>
    <text class="cls-2" transform="translate(189.78 86.72)"><tspan x="0" y="0"> </tspan></text>
    <text class="cls-2" transform="translate(192.19 86.72)"><tspan x="0" y="0">P</tspan></text>
    <text class="cls-2" transform="translate(197.59 86.72)"><tspan x="0" y="0">R</tspan></text>
    <text class="cls-2" transform="translate(202.99 86.72)"><tspan x="0" y="0">E</tspan></text>
    <text class="cls-2" transform="translate(207.64 86.72)"><tspan x="0" y="0">N</tspan></text>
    <text class="cls-2" transform="translate(213.8 86.72)"><tspan x="0" y="0">S</tspan></text>
    <text class="cls-2" transform="translate(219.2 86.72)"><tspan x="0" y="0">A</tspan></text>
  </g>
  <text class="cls-3" transform="translate(55.03 100.97)"><tspan x="0" y="0">1</tspan></text>
  <text class="cls-3" transform="translate(60.28 100.97)"><tspan x="0" y="0">5</tspan></text>
  <text class="cls-3" transform="translate(65.53 100.97)"><tspan x="0" y="0">/</tspan></text>
  <text class="cls-3" transform="translate(69.28 100.97)"><tspan x="0" y="0">0</tspan></text>
  <text class="cls-3" transform="translate(74.53 100.97)"><tspan x="0" y="0">4</tspan></text>
  <text class="cls-3" transform="translate(79.79 100.97)"><tspan x="0" y="0">/</tspan></text>
  <text class="cls-3" transform="translate(83.54 100.97)"><tspan x="0" y="0">2</tspan></text>
  <text class="cls-3" transform="translate(88.79 100.97)"><tspan x="0" y="0">0</tspan></text>
  <text class="cls-3" transform="translate(94.04 100.97)"><tspan x="0" y="0">2</tspan></text>
  <text class="cls-3" transform="translate(99.29 100.97)"><tspan x="0" y="0">4</tspan></text>
  <text class="cls-3" transform="translate(104.55 100.97)"><tspan x="0" y="0"> </tspan></text>
  <text class="cls-3" transform="translate(106.8 100.97)"><tspan x="0" y="0">-</tspan></text>
  <text class="cls-3" transform="translate(109.05 100.97)"><tspan x="0" y="0"> </tspan></text>
  <text class="cls-3" transform="translate(111.3 100.97)"><tspan x="0" y="0">C</tspan></text>
  <text class="cls-3" transform="translate(117.3 100.97)"><tspan x="0" y="0">a</tspan></text>
  <text class="cls-3" transform="translate(122.56 100.97)"><tspan x="0" y="0">n</tspan></text>
  <text class="cls-3" transform="translate(127.81 100.97)"><tspan x="0" y="0">t</tspan></text>
  <text class="cls-3" transform="translate(130.81 100.97)"><tspan x="0" y="0">a</tspan></text>
  <text class="cls-3" transform="translate(136.06 100.97)"><tspan x="0" y="0">b</tspan></text>
  <text class="cls-3" transform="translate(141.31 100.97)"><tspan x="0" y="0">r</tspan></text>
  <text class="cls-3" transform="translate(144.32 100.97)"><tspan x="0" y="0">i</tspan></text>
  <text class="cls-3" transform="translate(146.57 100.97)"><tspan x="0" y="0">a</tspan></text>
  <text class="cls-3" transform="translate(151.82 100.97)"><tspan x="0" y="0"> </tspan></text>
  <text class="cls-3" transform="translate(154.07 100.97)"><tspan x="0" y="0">E</tspan></text>
  <text class="cls-3" transform="translate(159.32 100.97)"><tspan x="0" y="0">c</tspan></text>
  <text class="cls-3" transform="translate(163.82 100.97)"><tspan x="0" y="0">o</tspan></text>
  <text class="cls-3" transform="translate(169.08 100.97)"><tspan x="0" y="0">n</tspan></text>
  <text class="cls-3" transform="translate(174.33 100.97)"><tspan x="0" y="0">ó</tspan></text>
  <text class="cls-3" transform="translate(179.58 100.97)"><tspan x="0" y="0">m</tspan></text>
  <text class="cls-3" transform="translate(187.83 100.97)"><tspan x="0" y="0">i</tspan></text>
  <text class="cls-3" transform="translate(190.08 100.97)"><tspan x="0" y="0">c</tspan></text>
  <text class="cls-3" transform="translate(194.59 100.97)"><tspan x="0" y="0">a</tspan></text>
  <text class="cls-3" transform="translate(199.84 100.97)"><tspan x="0" y="0"> </tspan></text>
  <text class="cls-3" transform="translate(202.09 100.97)"><tspan x="0" y="0">-</tspan></text>
  <text class="cls-3" transform="translate(204.34 100.97)"><tspan x="0" y="0"> </tspan></text>
  <text class="cls-3" transform="translate(206.59 100.97)"><tspan x="0" y="0">P</tspan></text>
  <text class="cls-3" transform="translate(212.59 100.97)"><tspan x="0" y="0">R</tspan></text>
  <text class="cls-3" transform="translate(217.85 100.97)"><tspan x="0" y="0">O</tspan></text>
  <text class="cls-3" transform="translate(223.85 100.97)"><tspan x="0" y="0">D</tspan></text>
  <text class="cls-3" transform="translate(229.85 100.97)"><tspan x="0" y="0">U</tspan></text>
  <text class="cls-3" transform="translate(235.86 100.97)"><tspan x="0" y="0">C</tspan></text>
  <text class="cls-3" transform="translate(241.86 100.97)"><tspan x="0" y="0">T</tspan></text>
  <text class="cls-3" transform="translate(247.11 100.97)"><tspan x="0" y="0">O</tspan></text>
  <text class="cls-3" transform="translate(253.11 100.97)"><tspan x="0" y="0">S</tspan></text>
  <text class="cls-3" transform="translate(55.03 112.23)"><tspan x="0" y="0">Y</tspan></text>
  <text class="cls-3" transform="translate(60.28 112.23)"><tspan x="0" y="0"> </tspan></text>
  <text class="cls-3" transform="translate(62.53 112.23)"><tspan x="0" y="0">A</tspan></text>
  <text class="cls-3" transform="translate(68.53 112.23)"><tspan x="0" y="0">C</tspan></text>
  <text class="cls-3" transform="translate(74.53 112.23)"><tspan x="0" y="0">T</tspan></text>
  <text class="cls-3" transform="translate(79.79 112.23)"><tspan x="0" y="0">I</tspan></text>
  <text class="cls-3" transform="translate(82.04 112.23)"><tspan x="0" y="0">V</tspan></text>
  <text class="cls-3" transform="translate(88.04 112.23)"><tspan x="0" y="0">I</tspan></text>
  <text class="cls-3" transform="translate(90.29 112.23)"><tspan x="0" y="0">D</tspan></text>
  <text class="cls-3" transform="translate(96.29 112.23)"><tspan x="0" y="0">A</tspan></text>
  <text class="cls-3" transform="translate(102.3 112.23)"><tspan x="0" y="0">D</tspan></text>
  <text class="cls-3" transform="translate(108.3 112.23)"><tspan x="0" y="0">E</tspan></text>
  <text class="cls-3" transform="translate(113.55 112.23)"><tspan x="0" y="0">S</tspan></text>
  <g>
    <text class="cls-2" transform="translate(55.03 134.74)"><tspan x="0" y="0">E</tspan></text>
    <text class="cls-2" transform="translate(59.68 134.74)"><tspan x="0" y="0">M</tspan></text>
    <text class="cls-2" transform="translate(67.33 134.74)"><tspan x="0" y="0">P</tspan></text>
    <text class="cls-2" transform="translate(72.73 134.74)"><tspan x="0" y="0">R</tspan></text>
    <text class="cls-2" transform="translate(78.14 134.74)"><tspan x="0" y="0">E</tspan></text>
    <text class="cls-2" transform="translate(82.79 134.74)"><tspan x="0" y="0">S</tspan></text>
    <text class="cls-2" transform="translate(88.19 134.74)"><tspan x="0" y="0">A</tspan></text>
    <text class="cls-2" transform="translate(93.59 134.74)"><tspan x="0" y="0"> </tspan></text>
    <text class="cls-2" transform="translate(95.99 134.74)"><tspan x="0" y="0">P</tspan></text>
    <text class="cls-2" transform="translate(101.4 134.74)"><tspan x="0" y="0">Ú</tspan></text>
    <text class="cls-2" transform="translate(106.8 134.74)"><tspan x="0" y="0">B</tspan></text>
    <text class="cls-2" transform="translate(112.2 134.74)"><tspan x="0" y="0">L</tspan></text>
    <text class="cls-2" transform="translate(116.85 134.74)"><tspan x="0" y="0">I</tspan></text>
    <text class="cls-2" transform="translate(119.25 134.74)"><tspan x="0" y="0">C</tspan></text>
    <text class="cls-2" transform="translate(124.66 134.74)"><tspan x="0" y="0">A</tspan></text>
  </g>
  <text class="cls-3" transform="translate(55.03 148.25)"><tspan x="0" y="0">S</tspan></text>
  <text class="cls-3" transform="translate(60.28 148.25)"><tspan x="0" y="0">o</tspan></text>
  <text class="cls-3" transform="translate(65.53 148.25)"><tspan x="0" y="0">c</tspan></text>
  <text class="cls-3" transform="translate(70.03 148.25)"><tspan x="0" y="0">i</tspan></text>
  <text class="cls-3" transform="translate(72.28 148.25)"><tspan x="0" y="0">e</tspan></text>
  <text class="cls-3" transform="translate(76.78 148.25)"><tspan x="0" y="0">d</tspan></text>
  <text class="cls-3" transform="translate(82.04 148.25)"><tspan x="0" y="0">a</tspan></text>
  <text class="cls-3" transform="translate(87.29 148.25)"><tspan x="0" y="0">d</tspan></text>
  <text class="cls-3" transform="translate(92.54 148.25)"><tspan x="0" y="0"> </tspan></text>
  <text class="cls-3" transform="translate(94.79 148.25)"><tspan x="0" y="0">m</tspan></text>
  <text class="cls-3" transform="translate(103.05 148.25)"><tspan x="0" y="0">e</tspan></text>
  <text class="cls-3" transform="translate(107.55 148.25)"><tspan x="0" y="0">r</tspan></text>
  <text class="cls-3" transform="translate(110.55 148.25)"><tspan x="0" y="0">c</tspan></text>
  <text class="cls-3" transform="translate(115.05 148.25)"><tspan x="0" y="0">a</tspan></text>
  <text class="cls-3" transform="translate(120.3 148.25)"><tspan x="0" y="0">n</tspan></text>
  <text class="cls-3" transform="translate(125.56 148.25)"><tspan x="0" y="0">t</tspan></text>
  <text class="cls-3" transform="translate(128.56 148.25)"><tspan x="0" y="0">i</tspan></text>
  <text class="cls-3" transform="translate(130.81 148.25)"><tspan x="0" y="0">l</tspan></text>
  <g>
    <circle class="cls-1" cx="31.82" cy="16.25" r="2.48"/>
    <circle class="cls-1" cx="31.82" cy="16.25" r="7.33"/>
    <polyline class="cls-1" points="27.7 22.51 27.7 29.57 31.86 27.45 35.74 29.57 35.74 22.6"/>
  </g>
  <g>
    <rect class="cls-1" x="22.98" y="43.85" width="17.67" height="19.25"/>
    <g>
      <circle class="cls-1" cx="26.57" cy="48.73" r="1.29"/>
      <circle class="cls-1" cx="26.57" cy="53.47" r="1.29"/>
      <circle class="cls-1" cx="26.57" cy="58.21" r="1.29"/>
    </g>
    <line class="cls-1" x1="30.45" y1="49.81" x2="37.06" y2="49.81"/>
    <line class="cls-1" x1="30.45" y1="54.48" x2="35.77" y2="54.48"/>
  </g>
  <g>
    <rect class="cls-1" x="21.08" y="83.13" width="18.24" height="21.3"/>
    <g>
      <line class="cls-1" x1="25.29" y1="89.15" x2="35.11" y2="89.15"/>
      <line class="cls-1" x1="25.29" y1="93.78" x2="35.11" y2="93.78"/>
      <line class="cls-1" x1="25.29" y1="98.41" x2="31.12" y2="98.41"/>
    </g>
    <polyline class="cls-1" points="23.02 79.61 42.56 79.61 42.56 102.11"/>
  </g>
  <g>
    <rect class="cls-4" x="39.37" y="139.52" width="2.35" height="3.11"/>
    <rect class="cls-4" x="39.37" y="144.08" width="2.35" height="3.11"/>
    <g>
      <rect class="cls-4" x="28.55" y="134.22" width="2.35" height="3.11"/>
      <rect class="cls-4" x="32.58" y="134.22" width="2.35" height="3.11"/>
      <rect class="cls-4" x="28.55" y="138.89" width="2.35" height="3.11"/>
      <rect class="cls-4" x="32.58" y="138.89" width="2.35" height="3.11"/>
    </g>
    <polyline class="cls-1" points="25.34 133.94 31.74 130.27 38.14 134.1"/>
    <polyline class="cls-1" points="33.26 128.64 35.2 128.64 35.2 126.18 31.9 126.18 31.9 130.27"/>
    <line class="cls-1" x1="26.34" y1="135.09" x2="26.34" y2="148.05"/>
    <line class="cls-1" x1="37.19" y1="135.09" x2="37.19" y2="148.05"/>
    <line class="cls-1" x1="38.61" y1="136.93" x2="43.43" y2="136.93"/>
    <line class="cls-1" x1="43.54" y1="134.52" x2="43.54" y2="151.24"/>
    <rect class="cls-4" x="21.91" y="139.52" width="2.35" height="3.11" transform="translate(46.17 282.14) rotate(-180)"/>
    <rect class="cls-4" x="21.91" y="144.08" width="2.35" height="3.11" transform="translate(46.17 291.27) rotate(-180)"/>
    <line class="cls-1" x1="25.03" y1="136.93" x2="20.2" y2="136.93"/>
    <line class="cls-1" x1="20.1" y1="134.52" x2="20.1" y2="151.24"/>
    <line class="cls-1" x1="27.96" y1="144.32" x2="35.52" y2="144.32"/>
    <g>
      <line class="cls-1" x1="29.17" y1="147.84" x2="29.17" y2="144.32"/>
      <line class="cls-1" x1="34.31" y1="147.84" x2="34.31" y2="144.32"/>
    </g>
    <line class="cls-1" x1="24.58" y1="149.15" x2="38.9" y2="149.15"/>
    <line class="cls-1" x1="22.62" y1="151.03" x2="40.86" y2="151.03"/>
  </g>
</svg>