<?xml version="1.0" encoding="UTF-8"?>
<svg id="Capa_1" data-name="Capa 1" xmlns="http://www.w3.org/2000/svg" viewBox="0 0 172.43 79.37">
  <defs>
    <style>
      .cls-1 {
        stroke: #3a61d9;
        stroke-width: 1.52px;
      }

      .cls-1, .cls-2 {
        fill: none;
        stroke-miterlimit: 10;
      }

      .cls-3 {
        fill: #91a6e9;
      }

      .cls-3, .cls-4 {
        font-family: Roboto-Regular, Roboto;
      }

      .cls-3, .cls-5 {
        font-size: 8.25px;
      }

      .cls-4 {
        fill: #494e54;
        font-size: 9px;
      }

      .cls-2 {
        stroke: #9dc34b;
        stroke-width: 2px;
      }

      .cls-5 {
        fill: #7c96e6;
        font-family: Roboto-Bold, Roboto;
        font-weight: 700;
      }
    </style>
  </defs>
  <text class="cls-3" transform="translate(56.83 17.58)"><tspan x="0" y="0">C</tspan></text>
  <text class="cls-3" transform="translate(62.83 17.58)"><tspan x="0" y="0">i</tspan></text>
  <text class="cls-3" transform="translate(65.08 17.58)"><tspan x="0" y="0">f</tspan></text>
  <text class="cls-3" transform="translate(68.08 17.58)"><tspan x="0" y="0">r</tspan></text>
  <text class="cls-3" transform="translate(71.08 17.58)"><tspan x="0" y="0">a</tspan></text>
  <text class="cls-3" transform="translate(76.34 17.58)"><tspan x="0" y="0">s</tspan></text>
  <text class="cls-3" transform="translate(80.84 17.58)"><tspan x="0" y="0"> </tspan></text>
  <text class="cls-3" transform="translate(83.09 17.58)"><tspan x="0" y="0">e</tspan></text>
  <text class="cls-3" transform="translate(87.59 17.58)"><tspan x="0" y="0">x</tspan></text>
  <text class="cls-3" transform="translate(92.09 17.58)"><tspan x="0" y="0">p</tspan></text>
  <text class="cls-3" transform="translate(97.34 17.58)"><tspan x="0" y="0">r</tspan></text>
  <text class="cls-3" transform="translate(100.35 17.58)"><tspan x="0" y="0">e</tspan></text>
  <text class="cls-3" transform="translate(104.85 17.58)"><tspan x="0" y="0">s</tspan></text>
  <text class="cls-3" transform="translate(109.35 17.58)"><tspan x="0" y="0">a</tspan></text>
  <text class="cls-3" transform="translate(114.6 17.58)"><tspan x="0" y="0">d</tspan></text>
  <text class="cls-3" transform="translate(119.85 17.58)"><tspan x="0" y="0">a</tspan></text>
  <text class="cls-3" transform="translate(125.11 17.58)"><tspan x="0" y="0">s</tspan></text>
  <text class="cls-3" transform="translate(129.61 17.58)"><tspan x="0" y="0"> </tspan></text>
  <text class="cls-3" transform="translate(131.86 17.58)"><tspan x="0" y="0">e</tspan></text>
  <text class="cls-3" transform="translate(136.36 17.58)"><tspan x="0" y="0">n</tspan></text>
  <text class="cls-3" transform="translate(141.61 17.58)"><tspan x="0" y="0"> </tspan></text>
  <text class="cls-3" transform="translate(143.87 17.58)"><tspan x="0" y="0">€</tspan></text>
  <text class="cls-5" transform="translate(44.07 38.59)"><tspan x="0" y="0">L</tspan></text>
  <text class="cls-5" transform="translate(48.35 38.59)"><tspan x="0" y="0">E</tspan></text>
  <text class="cls-5" transform="translate(53.38 38.59)"><tspan x="0" y="0">Y</tspan></text>
  <text class="cls-5" transform="translate(58.4 38.59)"><tspan x="0" y="0">E</tspan></text>
  <text class="cls-5" transform="translate(63.43 38.59)"><tspan x="0" y="0">N</tspan></text>
  <text class="cls-5" transform="translate(69.96 38.59)"><tspan x="0" y="0">D</tspan></text>
  <text class="cls-5" transform="translate(74.99 38.59)"><tspan x="0" y="0">A</tspan></text>
  <text class="cls-4" transform="translate(77.07 57.35)"><tspan x="0" y="0">C</tspan></text>
  <text class="cls-4" transform="translate(83.08 57.35)"><tspan x="0" y="0">i</tspan></text>
  <text class="cls-4" transform="translate(85.33 57.35)"><tspan x="0" y="0">f</tspan></text>
  <text class="cls-4" transform="translate(88.33 57.35)"><tspan x="0" y="0">r</tspan></text>
  <text class="cls-4" transform="translate(91.33 57.35)"><tspan x="0" y="0">a</tspan></text>
  <text class="cls-4" transform="translate(96.58 57.35)"><tspan x="0" y="0"> </tspan></text>
  <text class="cls-4" transform="translate(98.83 57.35)"><tspan x="0" y="0">a</tspan></text>
  <text class="cls-4" transform="translate(104.09 57.35)"><tspan x="0" y="0">ñ</tspan></text>
  <text class="cls-4" transform="translate(109.34 57.35)"><tspan x="0" y="0">o</tspan></text>
  <text class="cls-4" transform="translate(114.59 57.35)"><tspan x="0" y="0"> </tspan></text>
  <text class="cls-4" transform="translate(116.84 57.35)"><tspan x="0" y="0">2</tspan></text>
  <text class="cls-4" transform="translate(122.09 57.35)"><tspan x="0" y="0">0</tspan></text>
  <text class="cls-4" transform="translate(127.35 57.35)"><tspan x="0" y="0">2</tspan></text>
  <text class="cls-4" transform="translate(132.6 57.35)"><tspan x="0" y="0">3</tspan></text>
  <text class="cls-4" transform="translate(77.07 70.11)"><tspan x="0" y="0">C</tspan></text>
  <text class="cls-4" transform="translate(82.33 70.11)"><tspan x="0" y="0">i</tspan></text>
  <text class="cls-4" transform="translate(84.58 70.11)"><tspan x="0" y="0">f</tspan></text>
  <text class="cls-4" transform="translate(87.58 70.11)"><tspan x="0" y="0">r</tspan></text>
  <text class="cls-4" transform="translate(90.58 70.11)"><tspan x="0" y="0">a</tspan></text>
  <text class="cls-4" transform="translate(95.08 70.11)"><tspan x="0" y="0"> </tspan></text>
  <text class="cls-4" transform="translate(97.33 70.11)"><tspan x="0" y="0">a</tspan></text>
  <text class="cls-4" transform="translate(101.83 70.11)"><tspan x="0" y="0">ñ</tspan></text>
  <text class="cls-4" transform="translate(106.34 70.11)"><tspan x="0" y="0">o</tspan></text>
  <text class="cls-4" transform="translate(110.84 70.11)"><tspan x="0" y="0"> </tspan></text>
  <text class="cls-4" transform="translate(113.09 70.11)"><tspan x="0" y="0">2</tspan></text>
  <text class="cls-4" transform="translate(117.59 70.11)"><tspan x="0" y="0">0</tspan></text>
  <text class="cls-4" transform="translate(122.09 70.11)"><tspan x="0" y="0">2</tspan></text>
  <text class="cls-4" transform="translate(126.6 70.11)"><tspan x="0" y="0">2</tspan></text>
  <circle class="cls-1" cx="47.54" cy="14.36" r="4.31"/>
  <g>
    <line class="cls-1" x1="47.54" y1="13.25" x2="47.54" y2="16.95"/>
    <line class="cls-1" x1="47.54" y1="11.76" x2="47.54" y2="12.6"/>
  </g>
  <polyline class="cls-2" points="43.77 65.6 55.12 54.25 66.47 65.6"/>
</svg>