<?xml version="1.0" encoding="UTF-8"?>
<svg id="Capa_1" data-name="Capa 1" xmlns="http://www.w3.org/2000/svg" viewBox="0 0 250.08 203.6">
  <defs>
    <style>
      .cls-1 {
        fill: #7c96e6;
        font-family: Roboto-Bold, Roboto;
        font-size: 8.25px;
        font-weight: 700;
        opacity: .6;
      }

      .cls-2 {
        fill: #494e54;
        font-family: Roboto-Regular, Roboto;
        font-size: 9px;
      }

      .cls-3 {
        stroke: #9dc34b;
      }

      .cls-3, .cls-4 {
        fill: none;
        stroke-miterlimit: 10;
        stroke-width: 2px;
      }

      .cls-4 {
        stroke: red;
      }

      .cls-5 {
        fill: #1dc5f9;
      }

      .cls-5, .cls-6, .cls-7 {
        stroke-width: 0px;
      }

      .cls-6 {
        fill: #112f80;
      }

      .cls-7 {
        fill: #c1ccec;
      }
    </style>
  </defs>
  <g>
    <g>
      <text class="cls-1" transform="translate(104.65 34.08)"><tspan x="0" y="0">A</tspan></text>
      <text class="cls-1" transform="translate(110.05 34.08)"><tspan x="0" y="0">C</tspan></text>
      <text class="cls-1" transform="translate(115.45 34.08)"><tspan x="0" y="0">T</tspan></text>
      <text class="cls-1" transform="translate(120.86 34.08)"><tspan x="0" y="0">I</tspan></text>
      <text class="cls-1" transform="translate(123.26 34.08)"><tspan x="0" y="0">V</tspan></text>
      <text class="cls-1" transform="translate(128.66 34.08)"><tspan x="0" y="0">O</tspan></text>
      <text class="cls-1" transform="translate(134.81 34.08)"><tspan x="0" y="0"> </tspan></text>
      <text class="cls-1" transform="translate(137.21 34.08)"><tspan x="0" y="0">N</tspan></text>
      <text class="cls-1" transform="translate(143.37 34.08)"><tspan x="0" y="0">O</tspan></text>
      <text class="cls-1" transform="translate(149.52 34.08)"><tspan x="0" y="0"> </tspan></text>
      <text class="cls-1" transform="translate(151.92 34.08)"><tspan x="0" y="0">C</tspan></text>
      <text class="cls-1" transform="translate(157.32 34.08)"><tspan x="0" y="0">O</tspan></text>
      <text class="cls-1" transform="translate(163.48 34.08)"><tspan x="0" y="0">R</tspan></text>
      <text class="cls-1" transform="translate(168.88 34.08)"><tspan x="0" y="0">R</tspan></text>
      <text class="cls-1" transform="translate(174.28 34.08)"><tspan x="0" y="0">I</tspan></text>
      <text class="cls-1" transform="translate(176.68 34.08)"><tspan x="0" y="0">E</tspan></text>
      <text class="cls-1" transform="translate(181.33 34.08)"><tspan x="0" y="0">N</tspan></text>
      <text class="cls-1" transform="translate(187.49 34.08)"><tspan x="0" y="0">T</tspan></text>
      <text class="cls-1" transform="translate(192.89 34.08)"><tspan x="0" y="0">E</tspan></text>
    </g>
    <text class="cls-2" transform="translate(134.51 50.59)"><tspan x="0" y="0">3</tspan></text>
    <text class="cls-2" transform="translate(140.51 50.59)"><tspan x="0" y="0">0</tspan></text>
    <text class="cls-2" transform="translate(146.51 50.59)"><tspan x="0" y="0">.</tspan></text>
    <text class="cls-2" transform="translate(148.77 50.59)"><tspan x="0" y="0">5</tspan></text>
    <text class="cls-2" transform="translate(154.77 50.59)"><tspan x="0" y="0">5</tspan></text>
    <text class="cls-2" transform="translate(160.77 50.59)"><tspan x="0" y="0">1</tspan></text>
    <text class="cls-2" transform="translate(166.02 50.59)"><tspan x="0" y="0">.</tspan></text>
    <text class="cls-2" transform="translate(168.27 50.59)"><tspan x="0" y="0">4</tspan></text>
    <text class="cls-2" transform="translate(175.03 50.59)"><tspan x="0" y="0">2</tspan></text>
    <text class="cls-2" transform="translate(181.03 50.59)"><tspan x="0" y="0">4</tspan></text>
    <text class="cls-2" transform="translate(187.78 50.59)"><tspan x="0" y="0"> </tspan></text>
    <text class="cls-2" transform="translate(190.78 50.59)"><tspan x="0" y="0">€</tspan></text>
  </g>
  <rect class="cls-5" x="45.51" y="11.57" width="162.07" height="4.5"/>
  <g>
    <g>
      <text class="cls-1" transform="translate(110.21 98.61)"><tspan x="0" y="0">F</tspan></text>
      <text class="cls-1" transform="translate(114.86 98.61)"><tspan x="0" y="0">O</tspan></text>
      <text class="cls-1" transform="translate(121.01 98.61)"><tspan x="0" y="0">N</tspan></text>
      <text class="cls-1" transform="translate(127.16 98.61)"><tspan x="0" y="0">D</tspan></text>
      <text class="cls-1" transform="translate(132.57 98.61)"><tspan x="0" y="0">O</tspan></text>
      <text class="cls-1" transform="translate(138.72 98.61)"><tspan x="0" y="0"> </tspan></text>
      <text class="cls-1" transform="translate(141.12 98.61)"><tspan x="0" y="0">D</tspan></text>
      <text class="cls-1" transform="translate(146.52 98.61)"><tspan x="0" y="0">E</tspan></text>
      <text class="cls-1" transform="translate(151.17 98.61)"><tspan x="0" y="0"> </tspan></text>
      <text class="cls-1" transform="translate(153.58 98.61)"><tspan x="0" y="0">M</tspan></text>
      <text class="cls-1" transform="translate(161.23 98.61)"><tspan x="0" y="0">A</tspan></text>
      <text class="cls-1" transform="translate(166.63 98.61)"><tspan x="0" y="0">N</tspan></text>
      <text class="cls-1" transform="translate(172.78 98.61)"><tspan x="0" y="0">I</tspan></text>
      <text class="cls-1" transform="translate(175.18 98.61)"><tspan x="0" y="0">O</tspan></text>
      <text class="cls-1" transform="translate(181.34 98.61)"><tspan x="0" y="0">B</tspan></text>
      <text class="cls-1" transform="translate(186.74 98.61)"><tspan x="0" y="0">R</tspan></text>
      <text class="cls-1" transform="translate(192.14 98.61)"><tspan x="0" y="0">A</tspan></text>
    </g>
    <text class="cls-2" transform="translate(136.01 115.11)"><tspan x="0" y="0">3</tspan></text>
    <text class="cls-2" transform="translate(142.01 115.11)"><tspan x="0" y="0">0</tspan></text>
    <text class="cls-2" transform="translate(148.02 115.11)"><tspan x="0" y="0">.</tspan></text>
    <text class="cls-2" transform="translate(150.27 115.11)"><tspan x="0" y="0">7</tspan></text>
    <text class="cls-2" transform="translate(156.27 115.11)"><tspan x="0" y="0">3</tspan></text>
    <text class="cls-2" transform="translate(162.27 115.11)"><tspan x="0" y="0">1</tspan></text>
    <text class="cls-2" transform="translate(167.52 115.11)"><tspan x="0" y="0">.</tspan></text>
    <text class="cls-2" transform="translate(169.78 115.11)"><tspan x="0" y="0">8</tspan></text>
    <text class="cls-2" transform="translate(175.78 115.11)"><tspan x="0" y="0">7</tspan></text>
    <text class="cls-2" transform="translate(181.78 115.11)"><tspan x="0" y="0">7</tspan></text>
    <text class="cls-2" transform="translate(187.78 115.11)"><tspan x="0" y="0"> </tspan></text>
    <text class="cls-2" transform="translate(190.78 115.11)"><tspan x="0" y="0">€</tspan></text>
  </g>
  <rect class="cls-7" x="45.51" y="75.35" width="162.07" height="4.5"/>
  <g>
    <g>
      <text class="cls-1" transform="translate(119.36 162.38)"><tspan x="0" y="0">A</tspan></text>
      <text class="cls-1" transform="translate(124.76 162.38)"><tspan x="0" y="0">C</tspan></text>
      <text class="cls-1" transform="translate(130.17 162.38)"><tspan x="0" y="0">T</tspan></text>
      <text class="cls-1" transform="translate(135.57 162.38)"><tspan x="0" y="0">I</tspan></text>
      <text class="cls-1" transform="translate(137.97 162.38)"><tspan x="0" y="0">V</tspan></text>
      <text class="cls-1" transform="translate(143.37 162.38)"><tspan x="0" y="0">O</tspan></text>
      <text class="cls-1" transform="translate(149.53 162.38)"><tspan x="0" y="0"> </tspan></text>
      <text class="cls-1" transform="translate(151.93 162.38)"><tspan x="0" y="0">C</tspan></text>
      <text class="cls-1" transform="translate(157.33 162.38)"><tspan x="0" y="0">O</tspan></text>
      <text class="cls-1" transform="translate(163.48 162.38)"><tspan x="0" y="0">R</tspan></text>
      <text class="cls-1" transform="translate(168.88 162.38)"><tspan x="0" y="0">R</tspan></text>
      <text class="cls-1" transform="translate(174.29 162.38)"><tspan x="0" y="0">I</tspan></text>
      <text class="cls-1" transform="translate(176.69 162.38)"><tspan x="0" y="0">E</tspan></text>
      <text class="cls-1" transform="translate(181.34 162.38)"><tspan x="0" y="0">N</tspan></text>
      <text class="cls-1" transform="translate(187.49 162.38)"><tspan x="0" y="0">T</tspan></text>
      <text class="cls-1" transform="translate(192.89 162.38)"><tspan x="0" y="0">E</tspan></text>
    </g>
    <text class="cls-2" transform="translate(135.26 178.89)"><tspan x="0" y="0">4</tspan></text>
    <text class="cls-2" transform="translate(142.01 178.89)"><tspan x="0" y="0">4</tspan></text>
    <text class="cls-2" transform="translate(148.77 178.89)"><tspan x="0" y="0">.</tspan></text>
    <text class="cls-2" transform="translate(151.02 178.89)"><tspan x="0" y="0">1</tspan></text>
    <text class="cls-2" transform="translate(156.27 178.89)"><tspan x="0" y="0">6</tspan></text>
    <text class="cls-2" transform="translate(162.27 178.89)"><tspan x="0" y="0">5</tspan></text>
    <text class="cls-2" transform="translate(168.27 178.89)"><tspan x="0" y="0">.</tspan></text>
    <text class="cls-2" transform="translate(170.53 178.89)"><tspan x="0" y="0">4</tspan></text>
    <text class="cls-2" transform="translate(177.28 178.89)"><tspan x="0" y="0">1</tspan></text>
    <text class="cls-2" transform="translate(182.53 178.89)"><tspan x="0" y="0">1</tspan></text>
    <text class="cls-2" transform="translate(187.78 178.89)"><tspan x="0" y="0"> </tspan></text>
    <text class="cls-2" transform="translate(190.78 178.89)"><tspan x="0" y="0">€</tspan></text>
  </g>
  <rect class="cls-6" x="45.51" y="139.88" width="162.07" height="4.5"/>
  <polyline class="cls-3" points="57.21 110.23 68.56 98.87 79.91 110.23"/>
  <polyline class="cls-4" points="79.91 34.35 68.56 45.7 57.21 34.35"/>
  <polyline class="cls-3" points="57.21 174 68.56 162.65 79.91 174"/>
</svg>