<?xml version="1.0" encoding="UTF-8"?>
<svg id="Capa_1" data-name="Capa 1" xmlns="http://www.w3.org/2000/svg" viewBox="0 0 297.48 234.38">
  <defs>
    <style>
      .cls-1 {
        font-size: 9px;
      }

      .cls-1, .cls-2, .cls-3 {
        font-family: Roboto-Bold, Roboto;
        font-weight: 700;
      }

      .cls-1, .cls-4 {
        fill: #494e54;
      }

      .cls-2, .cls-4 {
        font-size: 8.25px;
      }

      .cls-2, .cls-3 {
        fill: #2550d6;
        opacity: .6;
      }

      .cls-4 {
        font-family: Roboto-Regular, Roboto;
      }

      .cls-5 {
        stroke: #9dc34b;
      }

      .cls-5, .cls-6 {
        fill: none;
        stroke-miterlimit: 10;
        stroke-width: 2px;
      }

      .cls-6 {
        stroke: red;
      }

      .cls-3 {
        font-size: 10.65px;
      }
    </style>
  </defs>
  <g>
    <g>
      <text class="cls-3" transform="translate(44.07 14.31)"><tspan x="0" y="0">R</tspan></text>
      <text class="cls-3" transform="translate(51.04 14.31)"><tspan x="0" y="0">A</tspan></text>
      <text class="cls-3" transform="translate(57.05 14.31)"><tspan x="0" y="0">T</tspan></text>
      <text class="cls-3" transform="translate(64.02 14.31)"><tspan x="0" y="0">I</tspan></text>
      <text class="cls-3" transform="translate(67.12 14.31)"><tspan x="0" y="0">O</tspan></text>
      <text class="cls-3" transform="translate(75.06 14.31)"><tspan x="0" y="0">S</tspan></text>
    </g>
    <g>
      <text class="cls-2" transform="translate(88.08 36.84)"><tspan x="0" y="0">R</tspan></text>
      <text class="cls-2" transform="translate(93.49 36.84)"><tspan x="0" y="0">A</tspan></text>
      <text class="cls-2" transform="translate(98.14 36.84)"><tspan x="0" y="0">T</tspan></text>
      <text class="cls-2" transform="translate(103.54 36.84)"><tspan x="0" y="0">I</tspan></text>
      <text class="cls-2" transform="translate(105.94 36.84)"><tspan x="0" y="0">O</tspan></text>
      <text class="cls-2" transform="translate(112.09 36.84)"><tspan x="0" y="0"> </tspan></text>
      <text class="cls-2" transform="translate(114.5 36.84)"><tspan x="0" y="0">F</tspan></text>
      <text class="cls-2" transform="translate(119.15 36.84)"><tspan x="0" y="0">O</tspan></text>
      <text class="cls-2" transform="translate(125.3 36.84)"><tspan x="0" y="0">N</tspan></text>
      <text class="cls-2" transform="translate(131.45 36.84)"><tspan x="0" y="0">D</tspan></text>
      <text class="cls-2" transform="translate(136.85 36.84)"><tspan x="0" y="0">O</tspan></text>
      <text class="cls-2" transform="translate(143.01 36.84)"><tspan x="0" y="0"> </tspan></text>
      <text class="cls-2" transform="translate(145.41 36.84)"><tspan x="0" y="0">D</tspan></text>
      <text class="cls-2" transform="translate(150.81 36.84)"><tspan x="0" y="0">E</tspan></text>
      <text class="cls-2" transform="translate(155.46 36.84)"><tspan x="0" y="0"> </tspan></text>
      <text class="cls-2" transform="translate(157.86 36.84)"><tspan x="0" y="0">M</tspan></text>
      <text class="cls-2" transform="translate(165.52 36.84)"><tspan x="0" y="0">A</tspan></text>
      <text class="cls-2" transform="translate(170.92 36.84)"><tspan x="0" y="0">N</tspan></text>
      <text class="cls-2" transform="translate(177.07 36.84)"><tspan x="0" y="0">I</tspan></text>
      <text class="cls-2" transform="translate(179.47 36.84)"><tspan x="0" y="0">O</tspan></text>
      <text class="cls-2" transform="translate(185.63 36.84)"><tspan x="0" y="0">B</tspan></text>
      <text class="cls-2" transform="translate(191.03 36.84)"><tspan x="0" y="0">R</tspan></text>
      <text class="cls-2" transform="translate(196.43 36.84)"><tspan x="0" y="0">A</tspan></text>
    </g>
    <text class="cls-1" transform="translate(89.41 53.34)"><tspan x="0" y="0">0</tspan></text>
    <text class="cls-1" transform="translate(94.09 53.34)"><tspan x="0" y="0">,</tspan></text>
    <text class="cls-1" transform="translate(96.34 53.34)"><tspan x="0" y="0">4</tspan></text>
    <text class="cls-1" transform="translate(101.66 53.34)"><tspan x="0" y="0">1</tspan></text>
    <text class="cls-4" transform="translate(88.08 66.1)"><tspan x="0" y="0">0</tspan></text>
    <text class="cls-4" transform="translate(92.58 66.1)"><tspan x="0" y="0">,</tspan></text>
    <text class="cls-4" transform="translate(94.09 66.1)"><tspan x="0" y="0">3</tspan></text>
    <text class="cls-4" transform="translate(98.59 66.1)"><tspan x="0" y="0">9</tspan></text>
    <g>
      <text class="cls-2" transform="translate(88.08 87.86)"><tspan x="0" y="0">P</tspan></text>
      <text class="cls-2" transform="translate(93.49 87.86)"><tspan x="0" y="0">E</tspan></text>
      <text class="cls-2" transform="translate(98.14 87.86)"><tspan x="0" y="0">R</tspan></text>
      <text class="cls-2" transform="translate(103.54 87.86)"><tspan x="0" y="0">I</tspan></text>
      <text class="cls-2" transform="translate(105.94 87.86)"><tspan x="0" y="0">O</tspan></text>
      <text class="cls-2" transform="translate(112.09 87.86)"><tspan x="0" y="0">D</tspan></text>
      <text class="cls-2" transform="translate(117.5 87.86)"><tspan x="0" y="0">O</tspan></text>
      <text class="cls-2" transform="translate(123.65 87.86)"><tspan x="0" y="0"> </tspan></text>
      <text class="cls-2" transform="translate(126.05 87.86)"><tspan x="0" y="0">M</tspan></text>
      <text class="cls-2" transform="translate(133.7 87.86)"><tspan x="0" y="0">E</tspan></text>
      <text class="cls-2" transform="translate(138.36 87.86)"><tspan x="0" y="0">D</tspan></text>
      <text class="cls-2" transform="translate(143.76 87.86)"><tspan x="0" y="0">I</tspan></text>
      <text class="cls-2" transform="translate(146.16 87.86)"><tspan x="0" y="0">O</tspan></text>
      <text class="cls-2" transform="translate(152.31 87.86)"><tspan x="0" y="0"> </tspan></text>
      <text class="cls-2" transform="translate(154.71 87.86)"><tspan x="0" y="0">D</tspan></text>
      <text class="cls-2" transform="translate(160.12 87.86)"><tspan x="0" y="0">E</tspan></text>
      <text class="cls-2" transform="translate(164.77 87.86)"><tspan x="0" y="0"> </tspan></text>
      <text class="cls-2" transform="translate(167.17 87.86)"><tspan x="0" y="0">C</tspan></text>
      <text class="cls-2" transform="translate(172.57 87.86)"><tspan x="0" y="0">O</tspan></text>
      <text class="cls-2" transform="translate(178.72 87.86)"><tspan x="0" y="0">B</tspan></text>
      <text class="cls-2" transform="translate(184.12 87.86)"><tspan x="0" y="0">R</tspan></text>
      <text class="cls-2" transform="translate(189.53 87.86)"><tspan x="0" y="0">O</tspan></text>
    </g>
    <text class="cls-1" transform="translate(88.08 104.36)"><tspan x="0" y="0">4</tspan></text>
    <text class="cls-1" transform="translate(94.03 104.36)"><tspan x="0" y="0">2</tspan></text>
    <text class="cls-1" transform="translate(100.84 104.36)"><tspan x="0" y="0"> </tspan></text>
    <text class="cls-1" transform="translate(103.84 104.36)"><tspan x="0" y="0">d</tspan></text>
    <text class="cls-1" transform="translate(109.84 104.36)"><tspan x="0" y="0">í</tspan></text>
    <text class="cls-1" transform="translate(112.84 104.36)"><tspan x="0" y="0">a</tspan></text>
    <text class="cls-1" transform="translate(118.85 104.36)"><tspan x="0" y="0">s</tspan></text>
    <text class="cls-4" transform="translate(88.08 116.37)"><tspan x="0" y="0">4</tspan></text>
    <text class="cls-4" transform="translate(92.58 116.37)"><tspan x="0" y="0">6</tspan></text>
    <g>
      <text class="cls-2" transform="translate(88.08 138.13)"><tspan x="0" y="0">P</tspan></text>
      <text class="cls-2" transform="translate(93.49 138.13)"><tspan x="0" y="0">E</tspan></text>
      <text class="cls-2" transform="translate(98.14 138.13)"><tspan x="0" y="0">R</tspan></text>
      <text class="cls-2" transform="translate(103.54 138.13)"><tspan x="0" y="0">I</tspan></text>
      <text class="cls-2" transform="translate(105.94 138.13)"><tspan x="0" y="0">O</tspan></text>
      <text class="cls-2" transform="translate(112.09 138.13)"><tspan x="0" y="0">D</tspan></text>
      <text class="cls-2" transform="translate(117.5 138.13)"><tspan x="0" y="0">O</tspan></text>
      <text class="cls-2" transform="translate(123.65 138.13)"><tspan x="0" y="0"> </tspan></text>
      <text class="cls-2" transform="translate(126.05 138.13)"><tspan x="0" y="0">M</tspan></text>
      <text class="cls-2" transform="translate(133.7 138.13)"><tspan x="0" y="0">E</tspan></text>
      <text class="cls-2" transform="translate(138.36 138.13)"><tspan x="0" y="0">D</tspan></text>
      <text class="cls-2" transform="translate(143.76 138.13)"><tspan x="0" y="0">I</tspan></text>
      <text class="cls-2" transform="translate(146.16 138.13)"><tspan x="0" y="0">O</tspan></text>
      <text class="cls-2" transform="translate(152.31 138.13)"><tspan x="0" y="0"> </tspan></text>
      <text class="cls-2" transform="translate(154.71 138.13)"><tspan x="0" y="0">D</tspan></text>
      <text class="cls-2" transform="translate(160.12 138.13)"><tspan x="0" y="0">E</tspan></text>
      <text class="cls-2" transform="translate(164.77 138.13)"><tspan x="0" y="0"> </tspan></text>
      <text class="cls-2" transform="translate(167.17 138.13)"><tspan x="0" y="0">P</tspan></text>
      <text class="cls-2" transform="translate(171.82 138.13)"><tspan x="0" y="0">A</tspan></text>
      <text class="cls-2" transform="translate(177.22 138.13)"><tspan x="0" y="0">G</tspan></text>
      <text class="cls-2" transform="translate(183.38 138.13)"><tspan x="0" y="0">O</tspan></text>
    </g>
    <text class="cls-1" transform="translate(88.08 154.64)"><tspan x="0" y="0">5</tspan></text>
    <text class="cls-1" transform="translate(93.6 155.12)"><tspan x="0" y="0">5</tspan></text>
    <text class="cls-1" transform="translate(100.09 154.64)"><tspan x="0" y="0"> </tspan></text>
    <text class="cls-1" transform="translate(103.09 154.64)"><tspan x="0" y="0">d</tspan></text>
    <text class="cls-1" transform="translate(109.09 154.64)"><tspan x="0" y="0">í</tspan></text>
    <text class="cls-1" transform="translate(112.09 154.64)"><tspan x="0" y="0">a</tspan></text>
    <text class="cls-1" transform="translate(118.1 154.64)"><tspan x="0" y="0">s</tspan></text>
    <text class="cls-4" transform="translate(88.08 167.39)"><tspan x="0" y="0">4</tspan></text>
    <text class="cls-4" transform="translate(92.58 167.39)"><tspan x="0" y="0">8</tspan></text>
    <g>
      <text class="cls-2" transform="translate(88.08 189.15)"><tspan x="0" y="0">L</tspan></text>
      <text class="cls-2" transform="translate(92.74 189.15)"><tspan x="0" y="0">I</tspan></text>
      <text class="cls-2" transform="translate(95.14 189.15)"><tspan x="0" y="0">Q</tspan></text>
      <text class="cls-2" transform="translate(101.29 189.15)"><tspan x="0" y="0">U</tspan></text>
      <text class="cls-2" transform="translate(106.69 189.15)"><tspan x="0" y="0">I</tspan></text>
      <text class="cls-2" transform="translate(109.09 189.15)"><tspan x="0" y="0">D</tspan></text>
      <text class="cls-2" transform="translate(114.5 189.15)"><tspan x="0" y="0">E</tspan></text>
      <text class="cls-2" transform="translate(119.15 189.15)"><tspan x="0" y="0">Z</tspan></text>
      <text class="cls-2" transform="translate(124.55 189.15)"><tspan x="0" y="0"> </tspan></text>
      <text class="cls-2" transform="translate(126.95 189.15)"><tspan x="0" y="0">I</tspan></text>
      <text class="cls-2" transform="translate(129.35 189.15)"><tspan x="0" y="0">N</tspan></text>
      <text class="cls-2" transform="translate(135.5 189.15)"><tspan x="0" y="0">M</tspan></text>
      <text class="cls-2" transform="translate(143.16 189.15)"><tspan x="0" y="0">E</tspan></text>
      <text class="cls-2" transform="translate(147.81 189.15)"><tspan x="0" y="0">D</tspan></text>
      <text class="cls-2" transform="translate(153.21 189.15)"><tspan x="0" y="0">I</tspan></text>
      <text class="cls-2" transform="translate(155.61 189.15)"><tspan x="0" y="0">A</tspan></text>
      <text class="cls-2" transform="translate(160.26 189.15)"><tspan x="0" y="0">T</tspan></text>
      <text class="cls-2" transform="translate(164.92 189.15)"><tspan x="0" y="0">A</tspan></text>
    </g>
    <text class="cls-1" transform="translate(88.08 205.66)"><tspan x="0" y="0">2</tspan></text>
    <text class="cls-1" transform="translate(93.09 205.66)"><tspan x="0" y="0">5</tspan></text>
    <text class="cls-1" transform="translate(99.09 205.66)"><tspan x="0" y="0">6</tspan></text>
    <text class="cls-1" transform="translate(104.09 205.66)"><tspan x="0" y="0">,</tspan></text>
    <text class="cls-1" transform="translate(107.34 205.66)"><tspan x="0" y="0">6</tspan></text>
    <text class="cls-1" transform="translate(112.34 205.66)"><tspan x="0" y="0">9</tspan></text>
    <text class="cls-1" transform="translate(120.35 205.66)"><tspan x="0" y="0"> </tspan></text>
    <text class="cls-1" transform="translate(118.35 205.66)"><tspan x="0" y="0">%</tspan></text>
    <text class="cls-4" transform="translate(88.08 218.42)"><tspan x="0" y="0">1</tspan></text>
    <text class="cls-4" transform="translate(92.58 218.42)"><tspan x="0" y="0">8</tspan></text>
    <text class="cls-4" transform="translate(97.09 218.42)"><tspan x="0" y="0">8</tspan></text>
    <text class="cls-4" transform="translate(101.59 218.42)"><tspan x="0" y="0">,</tspan></text>
    <text class="cls-4" transform="translate(103.09 218.42)"><tspan x="0" y="0">1</tspan></text>
    <text class="cls-4" transform="translate(107.59 218.42)"><tspan x="0" y="0">6</tspan></text>
  </g>
  <polyline class="cls-5" points="47.31 44.19 58.66 32.84 70.01 44.19"/>
  <polyline class="cls-5" points="70.01 92.45 58.66 103.81 47.31 92.45"/>
  <polyline class="cls-6" points="47.31 146.17 58.66 134.82 70.01 146.17"/>
  <polyline class="cls-5" points="47.31 196.61 58.66 185.26 70.01 196.61"/>
</svg>