<?xml version="1.0" encoding="UTF-8"?>
<svg id="Capa_1" data-name="Capa 1" xmlns="http://www.w3.org/2000/svg" viewBox="0 0 297.48 234.38">
  <defs>
    <style>
      .cls-1 {
        font-size: 9px;
      }

      .cls-1, .cls-2 {
        font-family: Roboto-Bold, Roboto;
        font-weight: 700;
      }

      .cls-1, .cls-3 {
        fill: #494e54;
      }

      .cls-2 {
        fill: #2550d6;
        opacity: .6;
      }

      .cls-2, .cls-3 {
        font-size: 8.25px;
      }

      .cls-3 {
        font-family: Roboto-Regular, Roboto;
      }

      .cls-4 {
        fill: none;
        stroke: #9dc34b;
        stroke-miterlimit: 10;
        stroke-width: 2px;
      }
    </style>
  </defs>
  <g>
    <g>
      <text class="cls-2" transform="translate(54.53 36.84)"><tspan x="0" y="0">%</tspan></text>
      <text class="cls-2" transform="translate(60.69 36.84)"><tspan x="0" y="0"> </tspan></text>
      <text class="cls-2" transform="translate(63.09 36.84)"><tspan x="0" y="0">D</tspan></text>
      <text class="cls-2" transform="translate(68.49 36.84)"><tspan x="0" y="0">E</tspan></text>
      <text class="cls-2" transform="translate(73.14 36.84)"><tspan x="0" y="0"> </tspan></text>
      <text class="cls-2" transform="translate(75.54 36.84)"><tspan x="0" y="0">E</tspan></text>
      <text class="cls-2" transform="translate(80.19 36.84)"><tspan x="0" y="0">N</tspan></text>
      <text class="cls-2" transform="translate(86.35 36.84)"><tspan x="0" y="0">D</tspan></text>
      <text class="cls-2" transform="translate(91.75 36.84)"><tspan x="0" y="0">E</tspan></text>
      <text class="cls-2" transform="translate(96.4 36.84)"><tspan x="0" y="0">U</tspan></text>
      <text class="cls-2" transform="translate(101.8 36.84)"><tspan x="0" y="0">D</tspan></text>
      <text class="cls-2" transform="translate(107.21 36.84)"><tspan x="0" y="0">A</tspan></text>
      <text class="cls-2" transform="translate(112.61 36.84)"><tspan x="0" y="0">M</tspan></text>
      <text class="cls-2" transform="translate(120.26 36.84)"><tspan x="0" y="0">I</tspan></text>
      <text class="cls-2" transform="translate(122.66 36.84)"><tspan x="0" y="0">E</tspan></text>
      <text class="cls-2" transform="translate(127.32 36.84)"><tspan x="0" y="0">N</tspan></text>
      <text class="cls-2" transform="translate(133.47 36.84)"><tspan x="0" y="0">T</tspan></text>
      <text class="cls-2" transform="translate(138.87 36.84)"><tspan x="0" y="0">O</tspan></text>
    </g>
    <text class="cls-1" transform="translate(54.53 53.34)"><tspan x="0" y="0">N</tspan></text>
    <text class="cls-1" transform="translate(62.79 53.34)"><tspan x="0" y="0">/</tspan></text>
    <text class="cls-1" transform="translate(65.79 53.34)"><tspan x="0" y="0">A</tspan></text>
    <g>
      <text class="cls-2" transform="translate(54.53 87.86)"><tspan x="0" y="0">P</tspan></text>
      <text class="cls-2" transform="translate(59.94 87.86)"><tspan x="0" y="0">U</tspan></text>
      <text class="cls-2" transform="translate(65.34 87.86)"><tspan x="0" y="0">N</tspan></text>
      <text class="cls-2" transform="translate(71.49 87.86)"><tspan x="0" y="0">T</tspan></text>
      <text class="cls-2" transform="translate(76.89 87.86)"><tspan x="0" y="0">O</tspan></text>
      <text class="cls-2" transform="translate(83.05 87.86)"><tspan x="0" y="0"> </tspan></text>
      <text class="cls-2" transform="translate(85.45 87.86)"><tspan x="0" y="0">M</tspan></text>
      <text class="cls-2" transform="translate(93.1 87.86)"><tspan x="0" y="0">U</tspan></text>
      <text class="cls-2" transform="translate(98.5 87.86)"><tspan x="0" y="0">E</tspan></text>
      <text class="cls-2" transform="translate(103.15 87.86)"><tspan x="0" y="0">R</tspan></text>
      <text class="cls-2" transform="translate(108.56 87.86)"><tspan x="0" y="0">T</tspan></text>
      <text class="cls-2" transform="translate(113.96 87.86)"><tspan x="0" y="0">O</tspan></text>
    </g>
    <text class="cls-1" transform="translate(54.53 104.36)"><tspan x="0" y="0">1</tspan></text>
    <text class="cls-1" transform="translate(58.78 104.36)"><tspan x="0" y="0">,</tspan></text>
    <text class="cls-1" transform="translate(61.04 104.36)"><tspan x="0" y="0">0</tspan></text>
    <text class="cls-1" transform="translate(66.04 104.36)"><tspan x="0" y="0">9</tspan></text>
    <text class="cls-3" transform="translate(54.53 116.37)"><tspan x="0" y="0">1</tspan></text>
    <text class="cls-3" transform="translate(59.03 116.37)"><tspan x="0" y="0">,</tspan></text>
    <text class="cls-3" transform="translate(60.54 116.37)"><tspan x="0" y="0">0</tspan></text>
    <text class="cls-3" transform="translate(65.04 116.37)"><tspan x="0" y="0">8</tspan></text>
    <g>
      <text class="cls-2" transform="translate(54.53 138.13)"><tspan x="0" y="0">R</tspan></text>
      <text class="cls-2" transform="translate(59.94 138.13)"><tspan x="0" y="0">E</tspan></text>
      <text class="cls-2" transform="translate(64.59 138.13)"><tspan x="0" y="0">N</tspan></text>
      <text class="cls-2" transform="translate(70.74 138.13)"><tspan x="0" y="0">T</tspan></text>
      <text class="cls-2" transform="translate(75.39 138.13)"><tspan x="0" y="0">A</tspan></text>
      <text class="cls-2" transform="translate(80.79 138.13)"><tspan x="0" y="0">B</tspan></text>
      <text class="cls-2" transform="translate(86.2 138.13)"><tspan x="0" y="0">I</tspan></text>
      <text class="cls-2" transform="translate(88.6 138.13)"><tspan x="0" y="0">L</tspan></text>
      <text class="cls-2" transform="translate(93.25 138.13)"><tspan x="0" y="0">I</tspan></text>
      <text class="cls-2" transform="translate(95.65 138.13)"><tspan x="0" y="0">D</tspan></text>
      <text class="cls-2" transform="translate(101.05 138.13)"><tspan x="0" y="0">A</tspan></text>
      <text class="cls-2" transform="translate(106.46 138.13)"><tspan x="0" y="0">D</tspan></text>
      <text class="cls-2" transform="translate(111.86 138.13)"><tspan x="0" y="0"> </tspan></text>
      <text class="cls-2" transform="translate(114.26 138.13)"><tspan x="0" y="0">E</tspan></text>
      <text class="cls-2" transform="translate(118.91 138.13)"><tspan x="0" y="0">C</tspan></text>
      <text class="cls-2" transform="translate(124.31 138.13)"><tspan x="0" y="0">O</tspan></text>
      <text class="cls-2" transform="translate(130.47 138.13)"><tspan x="0" y="0">N</tspan></text>
      <text class="cls-2" transform="translate(136.62 138.13)"><tspan x="0" y="0">Ó</tspan></text>
      <text class="cls-2" transform="translate(142.77 138.13)"><tspan x="0" y="0">M</tspan></text>
      <text class="cls-2" transform="translate(150.43 138.13)"><tspan x="0" y="0">I</tspan></text>
      <text class="cls-2" transform="translate(152.83 138.13)"><tspan x="0" y="0">C</tspan></text>
      <text class="cls-2" transform="translate(158.23 138.13)"><tspan x="0" y="0">A</tspan></text>
    </g>
    <text class="cls-1" transform="translate(54.53 154.64)"><tspan x="0" y="0">7</tspan></text>
    <text class="cls-1" transform="translate(58.78 154.64)"><tspan x="0" y="0">,</tspan></text>
    <text class="cls-1" transform="translate(61.04 154.64)"><tspan x="0" y="0">9</tspan></text>
    <text class="cls-1" transform="translate(67.04 154.64)"><tspan x="0" y="0">9</tspan></text>
    <text class="cls-1" transform="translate(74.04 154.64)"><tspan x="0" y="0"> </tspan></text>
    <text class="cls-1" transform="translate(73.04 154.64)"><tspan x="0" y="0">%</tspan></text>
    <text class="cls-3" transform="translate(54.53 167.39)"><tspan x="0" y="0">6</tspan></text>
    <text class="cls-3" transform="translate(59.03 167.39)"><tspan x="0" y="0">,</tspan></text>
    <text class="cls-3" transform="translate(60.54 167.39)"><tspan x="0" y="0">1</tspan></text>
    <text class="cls-3" transform="translate(65.04 167.39)"><tspan x="0" y="0">0</tspan></text>
    <g>
      <text class="cls-2" transform="translate(54.53 189.15)"><tspan x="0" y="0">R</tspan></text>
      <text class="cls-2" transform="translate(59.94 189.15)"><tspan x="0" y="0">E</tspan></text>
      <text class="cls-2" transform="translate(64.59 189.15)"><tspan x="0" y="0">N</tspan></text>
      <text class="cls-2" transform="translate(70.74 189.15)"><tspan x="0" y="0">T</tspan></text>
      <text class="cls-2" transform="translate(75.39 189.15)"><tspan x="0" y="0">A</tspan></text>
      <text class="cls-2" transform="translate(80.79 189.15)"><tspan x="0" y="0">B</tspan></text>
      <text class="cls-2" transform="translate(86.2 189.15)"><tspan x="0" y="0">I</tspan></text>
      <text class="cls-2" transform="translate(88.6 189.15)"><tspan x="0" y="0">L</tspan></text>
      <text class="cls-2" transform="translate(93.25 189.15)"><tspan x="0" y="0">I</tspan></text>
      <text class="cls-2" transform="translate(95.65 189.15)"><tspan x="0" y="0">D</tspan></text>
      <text class="cls-2" transform="translate(101.05 189.15)"><tspan x="0" y="0">A</tspan></text>
      <text class="cls-2" transform="translate(106.46 189.15)"><tspan x="0" y="0">D</tspan></text>
      <text class="cls-2" transform="translate(111.86 189.15)"><tspan x="0" y="0"> </tspan></text>
      <text class="cls-2" transform="translate(114.26 189.15)"><tspan x="0" y="0">F</tspan></text>
      <text class="cls-2" transform="translate(118.91 189.15)"><tspan x="0" y="0">I</tspan></text>
      <text class="cls-2" transform="translate(121.31 189.15)"><tspan x="0" y="0">N</tspan></text>
      <text class="cls-2" transform="translate(127.47 189.15)"><tspan x="0" y="0">A</tspan></text>
      <text class="cls-2" transform="translate(132.87 189.15)"><tspan x="0" y="0">N</tspan></text>
      <text class="cls-2" transform="translate(139.02 189.15)"><tspan x="0" y="0">C</tspan></text>
      <text class="cls-2" transform="translate(144.42 189.15)"><tspan x="0" y="0">I</tspan></text>
      <text class="cls-2" transform="translate(146.82 189.15)"><tspan x="0" y="0">E</tspan></text>
      <text class="cls-2" transform="translate(151.48 189.15)"><tspan x="0" y="0">R</tspan></text>
      <text class="cls-2" transform="translate(156.88 189.15)"><tspan x="0" y="0">A</tspan></text>
    </g>
    <text class="cls-1" transform="translate(54.53 205.66)"><tspan x="0" y="0">1</tspan></text>
    <text class="cls-1" transform="translate(58.78 205.66)"><tspan x="0" y="0">5</tspan></text>
    <text class="cls-1" transform="translate(63.79 205.66)"><tspan x="0" y="0">,</tspan></text>
    <text class="cls-1" transform="translate(66.04 205.66)"><tspan x="0" y="0">4</tspan></text>
    <text class="cls-1" transform="translate(71.79 205.66)"><tspan x="0" y="0">3</tspan></text>
    <text class="cls-1" transform="translate(80.79 205.66)"><tspan x="0" y="0"> </tspan></text>
    <text class="cls-1" transform="translate(76.8 205.66)"><tspan x="0" y="0">%</tspan></text>
    <text class="cls-3" transform="translate(54.53 218.42)"><tspan x="0" y="0">1</tspan></text>
    <text class="cls-3" transform="translate(59.03 218.42)"><tspan x="0" y="0">3</tspan></text>
    <text class="cls-3" transform="translate(63.54 218.42)"><tspan x="0" y="0">,</tspan></text>
    <text class="cls-3" transform="translate(65.04 218.42)"><tspan x="0" y="0">3</tspan></text>
    <text class="cls-3" transform="translate(69.54 218.42)"><tspan x="0" y="0">1</tspan></text>
  </g>
  <polyline class="cls-4" points="15.16 196.61 26.51 185.26 37.87 196.61"/>
  <polyline class="cls-4" points="15.16 147.03 26.51 135.68 37.87 147.03"/>
  <polyline class="cls-4" points="15.16 97.44 26.51 86.09 37.87 97.44"/>
</svg>