<?xml version="1.0" encoding="UTF-8"?>
<svg id="Capa_2" data-name="Capa 2" xmlns="http://www.w3.org/2000/svg" viewBox="0 0 110 112.11">
  <defs>
    <style>
      .cls-1 {
        fill: none;
        stroke: #fff;
        stroke-linecap: round;
        stroke-miterlimit: 10;
        stroke-width: .15px;
      }

      .cls-2 {
        fill: #fff;
      }

      .cls-2, .cls-3 {
        stroke-width: 0px;
      }

      .cls-3 {
        fill: #e73042;
      }
    </style>
  </defs>
  <g id="Outline">
    <g>
      <rect class="cls-3" width="110" height="112.11"/>
      <path class="cls-2" d="m9.64,13.81c-.19.11-.74.33-1.66.66-.73.25-1.19.41-1.38.51v-3.04c.59-.23,1.3-.58,2.14-1.06.84-.48,1.43-.91,1.78-1.3h3.14v21.42h-4.02V13.81Z"/>
      <polygon class="cls-2" points="22.48 17.75 22.48 9.57 25.78 9.57 25.78 10.6 23.94 10.6 23.94 12.98 25.41 12.98 25.41 14.03 23.94 14.03 23.94 17.75 22.48 17.75"/>
      <rect class="cls-2" x="26.39" y="9.57" width="1.44" height="8.18"/>
      <polygon class="cls-2" points="28.88 17.75 28.88 9.57 29.88 9.57 31.85 14.2 31.85 9.57 33.07 9.57 33.07 17.75 32.1 17.75 30.12 12.88 30.12 17.75 28.88 17.75"/>
      <path class="cls-2" d="m23.94,30.08h.42c.14,0,.27-.01.38-.04.11-.03.2-.06.28-.09.07-.04.14-.09.19-.18.05-.08.09-.16.11-.23.03-.07.05-.17.06-.31.01-.14.02-.26.02-.36,0-.1,0-.24,0-.44v-2.99c0-.19,0-.35-.01-.47,0-.12-.02-.24-.05-.36-.02-.12-.06-.21-.11-.28-.05-.07-.11-.13-.19-.18-.08-.06-.17-.09-.29-.11-.12-.02-.26-.03-.42-.03h-.4v6.07Zm-1.46,1.05v-8.18h1.87c.48,0,.89.05,1.22.15.33.1.59.26.78.47.2.21.34.47.42.79.08.31.12.69.12,1.15v2.95c0,.47-.04.86-.12,1.19-.09.32-.22.6-.41.83-.19.23-.45.4-.77.5-.32.11-.71.16-1.18.16h-1.93Z"/>
      <polygon class="cls-2" points="27.77 31.12 27.77 22.94 31.13 22.94 31.13 23.99 29.24 23.99 29.24 26.34 30.74 26.34 30.74 27.39 29.24 27.39 29.24 30.09 31.16 30.09 31.16 31.12 27.77 31.12"/>
      <polygon class="cls-2" points="34.03 31.12 34.03 22.94 35.49 22.94 35.49 30.09 37.42 30.09 37.42 31.12 34.03 31.12"/>
      <path class="cls-2" d="m39.44,28.25h1.08l-.54-3.36-.54,3.36Zm-1.86,2.87l1.63-8.18h1.53l1.63,8.18h-1.36l-.32-1.9h-1.39l-.33,1.9h-1.38Z"/>
      <g>
        <path class="cls-2" d="m46.65,26.42h.47c.41,0,.69-.08.84-.25.14-.17.22-.47.22-.91,0-.25,0-.45-.03-.59-.02-.14-.06-.26-.14-.38-.07-.11-.18-.19-.32-.23-.14-.04-.33-.06-.57-.06h-.48v2.43Zm-1.46,4.7v-8.18h2.31c1.37,0,2.06.78,2.06,2.32,0,.76-.19,1.32-.56,1.67-.37.35-.9.53-1.58.53h-.76v3.65h-1.46Z"/>
        <path class="cls-2" d="m51.95,30.05c.1.04.22.07.37.07s.26-.02.36-.07c.1-.04.18-.1.24-.17.06-.07.11-.16.14-.27.03-.11.06-.22.07-.34.01-.11.02-.24.02-.4v-3.72c0-.2,0-.36-.03-.49-.02-.13-.06-.26-.11-.37-.06-.12-.14-.21-.25-.26-.11-.06-.26-.09-.43-.09s-.32.03-.43.09c-.11.05-.2.14-.26.26-.05.12-.09.24-.11.37-.02.13-.03.3-.03.49v3.72c0,.16,0,.29.02.4.01.11.03.22.07.34.03.11.08.2.14.27.06.07.14.13.24.17m.37,1.17c-.83,0-1.42-.23-1.78-.69-.36-.46-.54-1.13-.54-2.01v-3.02c0-.43.04-.81.12-1.13.08-.32.21-.6.39-.83.18-.23.42-.41.72-.53.3-.12.66-.17,1.09-.17.82,0,1.42.23,1.78.68.36.45.54,1.11.54,1.98v3.02c0,.43-.04.8-.12,1.13-.08.32-.22.6-.4.84-.18.24-.42.42-.72.54-.3.12-.66.18-1.08.18"/>
        <path class="cls-2" d="m56.97,30.07h.54c.44,0,.74-.1.9-.31.17-.21.25-.55.25-1.03s-.09-.85-.28-1.07c-.19-.22-.51-.33-.95-.33h-.46v2.75Zm0-3.79h.46c.43,0,.73-.09.89-.28.16-.19.24-.5.24-.95,0-.23-.03-.42-.08-.56-.05-.14-.14-.25-.27-.32-.12-.08-.26-.12-.42-.14-.15-.02-.35-.04-.61-.04h-.2v2.29Zm-1.46,4.84v-8.18h1.97c.37,0,.7.03.97.1.28.07.52.18.74.33.22.16.38.37.49.65.11.28.16.61.16,1,0,1.01-.4,1.58-1.18,1.69.47.09.83.3,1.06.64.23.33.35.8.35,1.39,0,.78-.19,1.37-.57,1.77-.38.4-.94.6-1.68.6h-2.31Z"/>
        <path class="cls-2" d="m62.29,26.43h.35c.43,0,.74-.09.92-.28.18-.19.27-.51.27-.96s-.08-.75-.24-.94c-.16-.19-.45-.28-.87-.28h-.44v2.47Zm-1.46,4.69v-8.18h1.84c.42,0,.79.03,1.09.1.3.07.57.19.79.35.23.17.39.39.5.68.11.29.17.64.17,1.04,0,.52-.08.93-.23,1.26-.15.32-.4.56-.74.71l1.11,4.03h-1.47l-.96-3.73h-.65v3.73h-1.46Z"/>
      </g>
      <polygon class="cls-2" points="66.13 31.12 66.13 22.94 69.49 22.94 69.49 23.99 67.59 23.99 67.59 26.34 69.1 26.34 69.1 27.39 67.59 27.39 67.59 30.09 69.52 30.09 69.52 31.12 66.13 31.12"/>
      <polygon class="cls-2" points="69.91 31.12 69.91 30.15 72.04 23.97 70.02 23.97 70.02 22.94 73.54 22.94 73.54 23.68 71.31 30.09 73.55 30.09 73.55 31.12 69.91 31.12"/>
      <path class="cls-2" d="m75.63,28.25h1.07l-.54-3.36-.54,3.36Zm-1.87,2.87l1.63-8.18h1.53l1.63,8.18h-1.36l-.32-1.9h-1.39l-.33,1.9h-1.38Z"/>
      <g>
        <path class="cls-2" d="m84.93,53.38c0-1.73,1.37-3.12,3.07-3.12s3.06,1.4,3.06,3.12-1.37,3.12-3.06,3.12-3.07-1.4-3.07-3.12"/>
        <path class="cls-2" d="m91.58,57.7c2.08.19,3.71,1.98,3.71,4.15v8.66c0,.67-.53,1.21-1.19,1.21s-1.19-.54-1.19-1.21v-7.44c0-.28-.08-.66-.58-.66-.35,0-.42.38-.43.61v22.29c0,.96-.76,1.74-1.71,1.74s-1.71-.78-1.71-1.74v-12.84c0-.14-.05-.51-.49-.51h0c-.44,0-.49.37-.5.51v12.84c0,.96-.76,1.74-1.71,1.74s-1.71-.78-1.71-1.74v-22.29c-.01-.24-.09-.61-.43-.61-.5,0-.58.38-.58.66v7.44c0,.67-.53,1.21-1.19,1.21s-1.19-.54-1.19-1.21v-8.66c0-2.17,1.63-3.96,3.72-4.15.07,0,.14-.02.22-.02h6.7c.09,0,.16,0,.23.02"/>
        <path class="cls-2" d="m66.69,55.02c0-1.63-1.3-2.96-2.9-2.96s-2.91,1.33-2.91,2.96,1.3,2.96,2.91,2.96,2.9-1.32,2.9-2.96"/>
        <path class="cls-2" d="m57.93,61.72l-2.42,8s-.43,1.47.79,1.83c1.22.37,1.58-1.06,1.58-1.06l1.95-6.68s.1-.51.49-.4c.38.11.24.66.24.66l-3.39,12.52h3.15v8.97c0,.85.68,1.54,1.51,1.54s1.51-.69,1.51-1.54v-8.97h.86v8.97c0,.85.67,1.54,1.51,1.54s1.52-.69,1.52-1.54v-8.97h3.15l-3.39-12.52s-.14-.55.24-.66c.38-.11.49.4.49.4l1.95,6.68s.37,1.43,1.58,1.06c1.23-.37.79-1.83.79-1.83l-2.42-8s-.86-2.31-2.77-2.31h-6.16c-1.91,0-2.77,2.31-2.77,2.31"/>
        <path class="cls-2" d="m49.29,55.02c0-1.63-1.3-2.96-2.9-2.96s-2.91,1.33-2.91,2.96,1.3,2.96,2.91,2.96,2.9-1.32,2.9-2.96"/>
        <path class="cls-2" d="m40.54,61.72l-2.41,8s-.43,1.47.79,1.83c1.21.37,1.58-1.06,1.58-1.06l1.95-6.68s.11-.51.49-.4c.38.11.24.66.24.66l-3.39,12.52h3.15v8.97c0,.85.68,1.54,1.51,1.54s1.51-.69,1.51-1.54v-8.97h.86v8.97c0,.85.67,1.54,1.51,1.54s1.51-.69,1.51-1.54v-8.97h3.15l-3.39-12.52s-.14-.55.24-.66c.38-.11.49.4.49.4l1.94,6.68s.37,1.43,1.58,1.06c1.23-.37.79-1.83.79-1.83l-2.42-8s-.86-2.31-2.77-2.31h-6.15c-1.91,0-2.78,2.31-2.78,2.31"/>
        <path class="cls-2" d="m76.45,71.57c1.34,0,2.42-1.1,2.42-2.46s-1.08-2.46-2.42-2.46-2.42,1.1-2.42,2.46,1.08,2.46,2.42,2.46"/>
        <path class="cls-2" d="m70.65,79.22c-.12.29-.21.9.35,1.17.67.31,1.04-.34,1.04-.34l1.32-4.27s.23-.29.23.01v10.05h0c0,.7.55,1.26,1.24,1.26s1.24-.56,1.24-1.26v-3.96s-.07-.56.37-.56.37.56.37.56v3.96c0,.7.56,1.26,1.24,1.26s1.24-.56,1.24-1.26v-10.05c0-.3.15-.09.15-.09l1.03,2.92s.45,1.31.59,1.36c.46.2,1-.03,1.2-.5.13-.31.08-.64-.1-.9h0c-.03-.1-1.54-3.87-1.72-4.4-.54-1.62-1.54-1.61-2.49-1.64-.95-.02-1.53,0-1.53,0,0,0-.61-.02-1.87.01-1.26.04-1.66.7-3.05,4.34-.2.53-.87,2.22-.88,2.32h0Z"/>
        <path class="cls-2" d="m23.35,53.38c0-1.73-1.38-3.12-3.07-3.12s-3.06,1.4-3.06,3.12,1.37,3.12,3.06,3.12,3.07-1.4,3.07-3.12"/>
        <path class="cls-2" d="m16.7,57.7c-2.08.19-3.71,1.98-3.71,4.15v8.66c0,.67.53,1.21,1.19,1.21s1.19-.54,1.19-1.21v-7.44c0-.28.08-.66.58-.66.34,0,.42.38.43.61v22.29c0,.96.76,1.74,1.71,1.74s1.71-.78,1.71-1.74v-12.84c0-.14.06-.51.49-.51s.49.37.49.51v12.84c0,.96.76,1.74,1.71,1.74s1.71-.78,1.71-1.74v-22.29c.01-.24.09-.61.43-.61.5,0,.58.38.58.66v7.44c0,.67.53,1.21,1.19,1.21s1.19-.54,1.19-1.21v-8.66c0-2.17-1.63-3.96-3.72-4.15-.07,0-.14-.02-.22-.02h-6.71c-.09,0-.16,0-.23.02"/>
      </g>
      <line class="cls-1" x1="14.6" y1="71.18" x2="10.73" y2="87.06"/>
      <g>
        <path class="cls-2" d="m29.04,70.28c-.16-.25-.43-.42-.75-.42-.49,0-.88.4-.88.89,0,.14.09.39.09.39l2.44,4.49s.15.31.15.59v9.64h0c0,.67.53,1.21,1.19,1.21s1.18-.54,1.18-1.21v-3.81s-.06-.54.36-.54.36.54.36.54v3.81c0,.67.53,1.21,1.19,1.21s1.19-.54,1.19-1.21v-9.64c0-.28.15-.59.15-.59l2.25-4.15s.27-.59.27-.74c0-.49-.4-.89-.88-.89-.32,0-.59.17-.74.42h-.01c-.07.06-1.2,2.1-1.57,2.48-.39.4-.75.36-.75.36h-2.93s-.36.04-.75-.36c-.38-.38-1.5-2.43-1.58-2.49h0Z"/>
        <path class="cls-2" d="m32.83,71.57c1.34,0,2.42-1.1,2.42-2.46s-1.08-2.46-2.42-2.46-2.42,1.1-2.42,2.46,1.08,2.46,2.42,2.46"/>
      </g>
      <polygon class="cls-2" points="32.83 75.02 35.56 77.06 36.86 81.92 32.83 81.92 28.8 81.92 30.1 77.06 32.83 75.02"/>
    </g>
  </g>
</svg>