<?xml version="1.0" encoding="UTF-8"?>
<svg id="Capa_2" data-name="Capa 2" xmlns="http://www.w3.org/2000/svg" viewBox="0 0 111 111">
  <defs>
    <style>
      .cls-1 {
        fill: #d53e6c;
      }

      .cls-1, .cls-2 {
        stroke-width: 0px;
      }

      .cls-2 {
        fill: #fff;
      }
    </style>
  </defs>
  <g id="Outline">
    <g>
      <rect class="cls-1" width="111" height="111"/>
      <g>
        <path class="cls-2" d="m9.36,13.83c-.19.11-.75.32-1.67.65-.73.24-1.19.41-1.39.5v-3c.59-.23,1.31-.57,2.16-1.05.84-.47,1.44-.9,1.79-1.28h3.16v21.17h-4.05V13.83Z"/>
        <path class="cls-2" d="m22.72,24.99v-9.33c0-.79-.1-1.44-.3-1.96-.2-.52-.61-.79-1.24-.79-.66,0-1.09.26-1.28.77-.19.52-.29,1.17-.29,1.97v9.33c0,1.76.52,2.64,1.57,2.64s1.54-.88,1.54-2.64m-5.76,4.53c-.97-1.11-1.45-2.59-1.45-4.46v-9.48c0-1.94.47-3.45,1.41-4.56.94-1.11,2.36-1.66,4.26-1.66s3.29.55,4.23,1.66c.94,1.11,1.41,2.62,1.41,4.56v9.48c0,1.85-.49,3.33-1.47,4.44-.97,1.12-2.37,1.67-4.18,1.67s-3.25-.55-4.22-1.66"/>
        <path class="cls-2" d="m36.64,13.09h.36c.44,0,.74-.09.93-.28.18-.19.27-.5.27-.95s-.08-.74-.24-.93c-.16-.19-.45-.28-.88-.28h-.44v2.44Zm-1.47,4.63v-8.09h1.85c.43,0,.79.04,1.1.11.31.07.57.18.8.35.23.16.4.39.51.67.11.28.17.62.17,1.03,0,.51-.07.92-.22,1.24-.15.32-.4.55-.75.7l1.12,3.98h-1.48l-.96-3.69h-.65v3.69h-1.47Z"/>
      </g>
      <polygon class="cls-2" points="40.45 17.73 40.45 9.64 43.83 9.64 43.83 10.68 41.92 10.68 41.92 13 43.43 13 43.43 14.04 41.92 14.04 41.92 16.71 43.86 16.71 43.86 17.73 40.45 17.73"/>
      <g>
        <path class="cls-2" d="m45.92,16.7h.42c.15,0,.27-.01.39-.04.11-.02.2-.06.28-.1.08-.03.14-.09.19-.17.05-.08.09-.15.11-.23.03-.07.05-.17.06-.31.01-.14.02-.25.02-.35,0-.1,0-.24,0-.43v-2.96c0-.19,0-.35-.01-.46,0-.12-.02-.24-.05-.35-.02-.12-.06-.21-.11-.28-.05-.06-.11-.13-.19-.18-.08-.05-.17-.09-.29-.11-.12-.02-.26-.03-.42-.03h-.4v6Zm-1.47,1.03v-8.09h1.88c.49,0,.9.05,1.23.14.33.1.59.26.79.46.2.21.34.47.42.78.08.31.12.68.12,1.13v2.92c0,.46-.04.85-.13,1.18-.08.32-.22.59-.42.82-.19.23-.45.39-.77.49-.32.11-.72.16-1.19.16h-1.94Z"/>
        <path class="cls-2" d="m51.93,17.83c-.36,0-.67-.04-.94-.13-.27-.08-.49-.2-.65-.36-.17-.15-.31-.35-.41-.59-.1-.24-.17-.5-.21-.77-.04-.28-.06-.6-.06-.97v-5.37h1.43v5.53c0,.19,0,.35.02.48,0,.13.03.27.06.42.03.15.08.26.14.35.06.09.14.16.25.22.1.06.23.09.38.09s.28-.03.38-.09c.11-.06.19-.13.25-.22.06-.09.1-.2.14-.35.04-.15.05-.29.06-.42,0-.13.01-.29.01-.48v-5.53h1.43v5.37c0,.37-.02.69-.06.97-.04.28-.11.54-.22.77-.1.24-.24.44-.41.59-.17.15-.39.27-.65.36-.26.08-.57.13-.93.13"/>
        <path class="cls-2" d="m57.25,17.83c-.35,0-.66-.04-.92-.13-.27-.09-.49-.21-.66-.37-.17-.16-.32-.35-.43-.58-.11-.23-.18-.48-.23-.74-.04-.26-.06-.56-.06-.89v-2.82c0-.35.02-.66.07-.93.05-.27.12-.52.23-.76.11-.23.25-.42.42-.58.17-.15.39-.27.66-.35.26-.08.57-.13.92-.13.4,0,.75.05,1.03.16.29.11.51.26.68.47s.29.45.36.73c.07.28.11.6.11.98v.69h-1.42v-.69c0-.4-.02-.68-.06-.81-.08-.27-.29-.42-.62-.44h-.08c-.12,0-.23.01-.33.04-.09.03-.17.08-.22.14-.06.06-.1.13-.14.2-.03.07-.06.17-.08.28-.02.12-.03.22-.03.32,0,.09,0,.22,0,.37v3.43c0,.47.06.81.18,1.01s.33.3.64.3c.1,0,.2-.01.27-.04.08-.02.15-.06.2-.09.05-.04.1-.09.14-.16.04-.07.07-.13.08-.19.02-.06.03-.14.04-.25,0-.11.01-.2.02-.27v-1.03h1.42v.67c0,.3-.02.57-.06.81-.04.24-.12.47-.22.68-.1.21-.23.39-.4.53-.16.14-.37.25-.62.33-.25.08-.55.12-.88.12"/>
        <path class="cls-2" d="m62.37,17.83c-.35,0-.66-.04-.92-.13-.27-.09-.49-.21-.66-.37-.17-.16-.31-.35-.42-.58-.11-.23-.19-.48-.23-.74-.04-.26-.07-.56-.07-.89v-2.82c0-.35.02-.66.07-.93.05-.27.12-.52.23-.76.11-.23.25-.42.42-.58.17-.15.39-.27.66-.35.26-.08.57-.13.92-.13.4,0,.75.05,1.03.16.29.11.51.26.68.47.17.21.29.45.36.73.07.28.11.6.11.98v.69h-1.42v-.69c0-.4-.02-.68-.07-.81-.08-.27-.29-.42-.62-.44h-.08c-.12,0-.23.01-.32.04-.09.03-.17.08-.23.14-.06.06-.1.13-.14.2-.04.07-.06.17-.08.28-.02.12-.03.22-.03.32,0,.09,0,.22,0,.37v3.43c0,.47.06.81.18,1.01.12.2.33.3.64.3.1,0,.2-.01.28-.04.08-.02.15-.06.2-.09.05-.04.1-.09.14-.16.04-.07.07-.13.08-.19.02-.06.03-.14.04-.25.01-.11.02-.2.02-.27,0-.08,0-.18,0-.31v-.72h1.42v.67c0,.3-.02.57-.06.81-.04.24-.11.47-.22.68-.1.21-.24.39-.4.53-.16.14-.37.25-.62.33-.25.08-.55.12-.88.12"/>
      </g>
      <rect class="cls-2" x="65.36" y="9.64" width="1.45" height="8.09"/>
      <path class="cls-2" d="m69.61,8.95l.59-1.99h1.38l-1.2,1.99h-.78Zm.02,7.72c.1.04.23.06.37.06s.26-.02.36-.06c.1-.04.18-.1.24-.17.06-.07.11-.16.14-.27.03-.11.06-.22.07-.33.01-.11.02-.24.02-.4v-3.67c0-.19,0-.36-.03-.49-.02-.13-.06-.25-.12-.37-.06-.11-.14-.2-.25-.26-.11-.06-.26-.09-.43-.09s-.32.03-.44.09c-.12.06-.2.14-.26.26-.06.11-.09.24-.11.37-.02.13-.03.29-.03.49v3.67c0,.15,0,.28.02.4,0,.11.03.22.07.33.03.11.08.2.14.27.06.07.14.12.24.17m.37,1.15c-.84,0-1.43-.22-1.79-.68-.36-.45-.54-1.12-.54-1.98v-2.99c0-.43.04-.8.12-1.12.08-.32.21-.59.39-.82.18-.23.42-.4.73-.52.3-.11.67-.17,1.09-.17.83,0,1.42.22,1.79.67.36.44.54,1.1.54,1.96v2.99c0,.42-.04.79-.12,1.11-.08.32-.22.6-.4.84-.18.23-.42.41-.72.53-.31.12-.67.18-1.09.18"/>
      <polygon class="cls-2" points="73.15 17.73 73.15 9.64 74.16 9.64 76.14 14.22 76.14 9.64 77.36 9.64 77.36 17.73 76.4 17.73 74.4 12.92 74.4 17.73 73.15 17.73"/>
      <path class="cls-2" d="m81.97,16.7h.42c.15,0,.28-.01.39-.04.11-.02.2-.06.28-.1.08-.03.14-.09.19-.17.05-.08.09-.15.11-.23.03-.07.05-.17.06-.31.01-.14.02-.25.02-.35,0-.1,0-.24,0-.43v-2.96c0-.19,0-.35,0-.46,0-.12-.02-.24-.05-.35-.02-.12-.06-.21-.11-.28-.05-.06-.11-.13-.19-.18-.08-.05-.17-.09-.29-.11-.12-.02-.26-.03-.42-.03h-.4v6Zm-1.47,1.03v-8.09h1.88c.49,0,.9.05,1.23.14.33.1.59.26.79.46.2.21.34.47.42.78.08.31.12.68.12,1.13v2.92c0,.46-.04.85-.13,1.18-.09.32-.23.59-.42.82-.19.23-.45.39-.77.49-.32.11-.72.16-1.18.16h-1.94Z"/>
      <polygon class="cls-2" points="85.76 17.73 85.76 9.64 89.15 9.64 89.15 10.68 87.23 10.68 87.23 13 88.75 13 88.75 14.04 87.23 14.04 87.23 16.71 89.17 16.71 89.17 17.73 85.76 17.73"/>
      <polygon class="cls-2" points="91.94 17.73 91.94 9.64 93.41 9.64 93.41 16.71 95.35 16.71 95.35 17.73 91.94 17.73"/>
      <path class="cls-2" d="m97.33,14.89h1.08l-.54-3.32-.54,3.32Zm-1.88,2.84l1.64-8.09h1.54l1.64,8.09h-1.37l-.32-1.88h-1.4l-.33,1.88h-1.39Z"/>
      <g>
        <path class="cls-2" d="m102.84,17.83c-1.43,0-2.17-.82-2.25-2.47l1.28-.27c.03,1.07.34,1.6.92,1.6.23,0,.39-.07.5-.2.11-.14.16-.32.16-.55s-.04-.43-.12-.62c-.08-.19-.17-.34-.28-.46-.11-.12-.26-.27-.46-.44l-1.07-.92c-.31-.27-.54-.56-.7-.85-.15-.29-.23-.66-.23-1.1,0-.63.19-1.12.55-1.46.37-.35.88-.53,1.52-.53.3,0,.56.03.79.11.23.07.41.18.56.3.15.13.27.29.37.48.1.19.17.39.22.6.05.21.08.44.1.69l-1.26.25c0-.16-.02-.3-.03-.42-.01-.12-.04-.24-.07-.37-.04-.12-.08-.22-.14-.3-.06-.08-.14-.14-.23-.18-.1-.05-.21-.06-.33-.05-.22.01-.39.09-.5.22-.12.13-.17.31-.17.53,0,.26.05.47.15.64.1.17.26.35.48.54l1.05.92c.18.16.33.31.46.46.13.15.25.32.37.51.12.19.21.4.27.64.06.23.09.48.09.73,0,.59-.19,1.07-.56,1.43-.37.37-.86.55-1.46.55"/>
        <path class="cls-2" d="m36.64,29.91h.42c.15,0,.28-.01.38-.04.11-.03.2-.06.28-.1.08-.03.14-.09.19-.17.05-.08.09-.15.11-.23.03-.07.05-.17.06-.31.01-.14.02-.26.02-.35,0-.1,0-.24,0-.43v-2.96c0-.19,0-.35,0-.46,0-.12-.02-.24-.05-.36-.02-.12-.06-.21-.11-.27-.05-.07-.11-.13-.19-.18-.08-.05-.17-.09-.29-.11-.12-.02-.26-.03-.42-.03h-.41v6Zm-1.47,1.03v-8.09h1.88c.49,0,.9.05,1.22.15.33.1.59.25.79.46.2.21.34.47.42.78.08.31.12.69.12,1.13v2.92c0,.46-.04.85-.13,1.18-.08.32-.22.59-.42.82-.19.23-.45.39-.77.49-.32.11-.72.16-1.19.16h-1.94Z"/>
      </g>
      <polygon class="cls-2" points="40.43 30.95 40.43 22.86 43.82 22.86 43.82 23.9 41.9 23.9 41.9 26.22 43.42 26.22 43.42 27.26 41.9 27.26 41.9 29.93 43.84 29.93 43.84 30.95 40.43 30.95"/>
      <path class="cls-2" d="m46.47,31.05c-1.43,0-2.17-.82-2.25-2.47l1.28-.27c.03,1.07.34,1.61.92,1.61.23,0,.39-.07.5-.2.11-.14.17-.32.17-.55s-.04-.43-.12-.62c-.08-.19-.17-.34-.28-.46-.11-.12-.26-.26-.46-.44l-1.07-.92c-.31-.27-.54-.56-.7-.85-.15-.29-.23-.66-.23-1.1,0-.63.18-1.12.55-1.46.37-.35.88-.52,1.52-.53.3,0,.56.03.79.11.22.08.41.18.56.31.15.13.27.29.37.48.1.19.17.39.22.6.05.21.08.44.1.69l-1.26.25c0-.16-.02-.3-.03-.42-.02-.12-.04-.24-.08-.37-.03-.12-.08-.22-.14-.3-.06-.08-.14-.14-.23-.18-.1-.04-.21-.06-.33-.05-.22.01-.39.09-.5.22-.12.13-.17.31-.17.53,0,.26.05.48.15.64.1.17.26.35.48.54l1.05.92c.18.16.33.31.46.46.13.15.26.32.37.51.12.19.21.4.27.63.06.23.09.48.09.74,0,.59-.19,1.06-.56,1.43-.37.37-.86.55-1.46.55"/>
      <rect class="cls-2" x="49.14" y="22.86" width="1.45" height="8.09"/>
      <g>
        <path class="cls-2" d="m53.6,31.05c-.76,0-1.32-.24-1.65-.71-.34-.48-.5-1.17-.5-2.09v-2.63c0-.46.04-.87.11-1.2.07-.34.19-.63.37-.89.17-.25.41-.44.71-.57s.67-.19,1.11-.19c.8,0,1.37.2,1.72.59.35.39.52.99.52,1.78v.39h-1.41v-.42c0-.18,0-.32-.01-.44,0-.11-.03-.23-.06-.34-.03-.12-.08-.2-.13-.26-.06-.06-.14-.11-.24-.15-.1-.04-.22-.06-.37-.06-.11,0-.21.01-.29.04-.09.03-.16.06-.22.1-.06.04-.11.1-.15.17-.04.08-.07.15-.09.22-.02.07-.04.16-.05.27-.01.11-.02.21-.02.29,0,.09,0,.2,0,.33v3.26c0,.49.06.85.18,1.07.12.23.35.34.69.34.18,0,.32-.03.44-.1.12-.07.21-.17.28-.3.07-.14.12-.29.14-.47.03-.17.04-.38.04-.63v-.66h-.88v-.95h2.2v4.11h-.96l-.11-.82c-.24.62-.7.93-1.37.93"/>
        <path class="cls-2" d="m59.1,31.05c-.36,0-.67-.04-.94-.13-.27-.08-.48-.2-.65-.36-.17-.15-.31-.35-.41-.59-.1-.24-.17-.5-.21-.77-.04-.28-.06-.6-.06-.97v-5.37h1.43v5.52c0,.19,0,.35.02.48,0,.13.03.27.06.42.03.15.08.26.14.35.06.09.14.16.25.22.11.06.23.09.38.09s.28-.03.38-.09c.11-.06.19-.13.25-.22.06-.09.1-.2.14-.35.03-.15.06-.28.06-.42,0-.13.01-.29.01-.49v-5.52h1.43v5.37c0,.37-.02.69-.06.97-.04.27-.11.54-.21.77-.1.24-.24.44-.41.59-.17.15-.39.27-.65.36-.27.08-.58.13-.94.13"/>
      </g>
      <path class="cls-2" d="m63.72,28.11h1.08l-.54-3.32-.54,3.32Zm-1.88,2.84l1.64-8.09h1.54l1.64,8.09h-1.37l-.33-1.88h-1.4l-.33,1.88h-1.39Z"/>
      <polygon class="cls-2" points="67.2 30.95 67.2 22.86 68.67 22.86 68.67 29.93 70.61 29.93 70.61 30.95 67.2 30.95"/>
      <path class="cls-2" d="m72.6,29.91h.42c.15,0,.27-.01.39-.04.11-.03.2-.06.28-.1.08-.03.14-.09.19-.17.05-.08.09-.15.11-.23.03-.07.05-.17.06-.31.01-.14.02-.26.02-.35,0-.1,0-.24,0-.43v-2.96c0-.19,0-.35-.01-.46,0-.12-.02-.24-.05-.36-.03-.12-.06-.21-.11-.27-.05-.07-.11-.13-.19-.18-.08-.05-.17-.09-.29-.11-.12-.02-.26-.03-.42-.03h-.4v6Zm-1.47,1.03v-8.09h1.88c.49,0,.9.05,1.23.15.33.1.59.25.79.46.2.21.34.47.42.78.08.31.13.69.13,1.13v2.92c0,.46-.04.85-.13,1.18-.08.32-.22.59-.42.82-.19.23-.45.39-.77.49-.32.11-.72.16-1.19.16h-1.94Z"/>
      <path class="cls-2" d="m77.74,28.11h1.08l-.54-3.32-.54,3.32Zm-1.88,2.84l1.64-8.09h1.54l1.64,8.09h-1.37l-.33-1.88h-1.4l-.33,1.88h-1.39Z"/>
      <path class="cls-2" d="m82.69,29.91h.42c.14,0,.27-.01.38-.04.11-.03.2-.06.28-.1.08-.03.14-.09.19-.17.05-.08.09-.15.12-.23.03-.07.04-.17.06-.31.01-.14.02-.26.02-.35,0-.1,0-.24,0-.43v-2.96c0-.19,0-.35-.01-.46,0-.12-.02-.24-.05-.36-.03-.12-.06-.21-.11-.27-.05-.07-.11-.13-.19-.18-.08-.05-.17-.09-.29-.11-.12-.02-.26-.03-.42-.03h-.41v6Zm-1.47,1.03v-8.09h1.88c.49,0,.9.05,1.22.15.33.1.59.25.79.46.2.21.34.47.42.78.08.31.12.69.12,1.13v2.92c0,.46-.04.85-.13,1.18-.08.32-.22.59-.42.82-.19.23-.45.39-.77.49-.32.11-.72.16-1.19.16h-1.94Z"/>
      <polygon class="cls-2" points="86.49 30.95 86.49 22.86 89.87 22.86 89.87 23.9 87.96 23.9 87.96 26.22 89.47 26.22 89.47 27.26 87.96 27.26 87.96 29.93 89.9 29.93 89.9 30.95 86.49 30.95"/>
      <g>
        <path class="cls-2" d="m92.52,31.05c-1.43,0-2.17-.82-2.24-2.47l1.28-.27c.03,1.07.34,1.61.92,1.61.23,0,.39-.07.5-.2.11-.14.16-.32.16-.55s-.04-.43-.12-.62c-.08-.19-.17-.34-.28-.46-.11-.12-.26-.26-.46-.44l-1.06-.92c-.31-.27-.54-.56-.7-.85-.15-.29-.23-.66-.23-1.1,0-.63.18-1.12.56-1.46.37-.35.88-.52,1.52-.53.3,0,.56.03.79.11.23.08.41.18.56.31.15.13.27.29.37.48.1.19.17.39.22.6.05.21.08.44.1.69l-1.26.25c0-.16-.02-.3-.03-.42-.02-.12-.04-.24-.07-.37-.04-.12-.08-.22-.14-.3-.06-.08-.14-.14-.23-.18-.1-.04-.21-.06-.33-.05-.22.01-.39.09-.5.22-.12.13-.17.31-.17.53,0,.26.05.48.15.64.1.17.26.35.48.54l1.05.92c.18.16.33.31.46.46.13.15.26.32.38.51.12.19.21.4.27.63.06.23.09.48.09.74,0,.59-.18,1.06-.56,1.43-.37.37-.86.55-1.47.55"/>
        <path class="cls-2" d="m65.8,72.84h-20.44c-.12,0-.22.11-.22.25v6.14c0,.14.1.25.22.25h20.44c.13,0,.22-.11.22-.25v-6.14c0-.14-.1-.25-.22-.25"/>
        <path class="cls-2" d="m65.8,59.76h-20.44c-.12,0-.22.11-.22.25v6.14c0,.14.1.25.22.25h20.44c.13,0,.22-.11.22-.25v-6.14c0-.14-.1-.25-.22-.25"/>
        <path class="cls-2" d="m65.51,50.48l-9.81-9.81c-.07-.07-.17-.07-.24,0l-9.81,9.81c-.11.11-.03.29.12.29h19.62c.15,0,.23-.18.12-.29"/>
        <path class="cls-2" d="m74.72,79.55l9.81-9.81c.07-.07.07-.17,0-.24l-9.81-9.81c-.11-.11-.29-.03-.29.12v19.62c0,.15.18.23.29.12"/>
        <path class="cls-2" d="m45.65,88.77l9.81,9.81c.07.07.18.07.24,0l9.81-9.81c.11-.11.03-.29-.12-.29h-19.62c-.15,0-.22.18-.12.29"/>
        <path class="cls-2" d="m36.44,59.69l-9.81,9.81c-.07.07-.07.17,0,.24l9.81,9.81c.11.11.29.03.29-.12v-19.62c0-.15-.18-.23-.29-.12"/>
      </g>
    </g>
  </g>
</svg>