<?xml version="1.0" encoding="UTF-8"?>
<svg id="Capa_2" data-name="Capa 2" xmlns="http://www.w3.org/2000/svg" viewBox="0 0 111 111">
  <defs>
    <style>
      .cls-1 {
        fill: #287d45;
      }

      .cls-1, .cls-2 {
        stroke-width: 0px;
      }

      .cls-2 {
        fill: #fff;
      }
    </style>
  </defs>
  <g id="Outline">
    <g>
      <rect class="cls-1" x=".08" y=".08" width="110.85" height="110.85" transform="translate(-.08 110.92) rotate(-89.92)"/>
      <g>
        <path class="cls-2" d="m9.52,13.83c-.19.11-.75.32-1.67.65-.73.24-1.19.41-1.38.5v-3c.59-.23,1.31-.57,2.15-1.05.85-.47,1.44-.9,1.79-1.28h3.16v21.16h-4.05V13.83Z"/>
        <path class="cls-2" d="m16.99,29.51c-.89-1.11-1.33-2.69-1.33-4.73v-.73h4.02v.71c.02,1.08.15,1.85.39,2.32.24.47.69.71,1.33.71s1.07-.24,1.29-.72c.22-.48.33-1.26.33-2.34,0-1.13-.16-1.97-.5-2.52-.33-.55-.94-.83-1.83-.85-.05-.02-.3-.03-.73-.03v-2.95h.66c.9,0,1.53-.24,1.88-.73.35-.49.52-1.29.52-2.41,0-.9-.12-1.58-.38-2.01-.25-.44-.7-.65-1.35-.65s-1.03.23-1.25.7c-.23.47-.35,1.17-.37,2.09v.94h-4.02v-1.15c0-1.85.49-3.27,1.47-4.29.99-1.01,2.37-1.52,4.17-1.52s3.24.49,4.23,1.46c.99.97,1.49,2.38,1.49,4.21,0,1.22-.25,2.24-.76,3.07-.5.83-1.15,1.35-1.93,1.55,1.79.67,2.69,2.33,2.69,4.99,0,2.04-.45,3.64-1.36,4.79-.91,1.16-2.34,1.74-4.31,1.74s-3.48-.56-4.36-1.67"/>
      </g>
      <path class="cls-2" d="m37.39,14.89h1.08l-.54-3.32-.54,3.32Zm-1.88,2.84l1.64-8.09h1.54l1.64,8.09h-1.37l-.33-1.88h-1.4l-.33,1.88h-1.39Z"/>
      <g>
        <path class="cls-2" d="m43.29,17.83c-.35,0-.66-.04-.92-.13-.27-.09-.49-.21-.66-.37-.17-.15-.32-.35-.43-.58-.11-.23-.19-.48-.23-.74-.04-.26-.07-.56-.07-.9v-2.82c0-.35.02-.66.07-.93.05-.27.12-.52.23-.76.11-.23.25-.42.42-.57.17-.15.39-.27.66-.35.27-.08.57-.13.93-.13.4,0,.75.06,1.03.16.29.11.51.26.68.47.17.21.29.45.36.73.07.28.11.6.11.97v.69h-1.42v-.69c0-.4-.02-.68-.06-.81-.08-.27-.29-.42-.62-.44h-.08c-.12,0-.23.02-.32.04-.09.03-.17.08-.23.14-.06.06-.1.13-.14.2-.04.07-.06.17-.08.28-.02.11-.03.22-.03.32,0,.1,0,.22,0,.37v3.42c0,.48.06.81.18,1.01.12.2.33.3.64.3.1,0,.2-.01.28-.04.08-.03.15-.06.2-.1.05-.04.1-.09.14-.16.04-.07.07-.13.08-.2.02-.06.03-.14.04-.25,0-.11.01-.2.02-.27,0-.07,0-.18,0-.31v-.72h1.42v.66c0,.3-.02.57-.07.81-.04.24-.11.47-.22.68-.1.21-.23.39-.4.53-.17.14-.37.25-.63.33-.25.08-.55.12-.88.12"/>
        <path class="cls-2" d="m48.67,17.83c-.35,0-.66-.04-.92-.13-.27-.09-.49-.21-.66-.37-.18-.15-.32-.35-.43-.58-.11-.23-.19-.48-.23-.74-.04-.26-.07-.56-.07-.9v-2.82c0-.35.02-.66.07-.93.04-.27.12-.52.23-.76.11-.23.25-.42.42-.57.17-.15.39-.27.66-.35.26-.08.57-.13.93-.13.4,0,.75.06,1.03.16.29.11.51.26.68.47.17.21.29.45.36.73.07.28.11.6.11.97v.69h-1.42v-.69c0-.4-.02-.68-.06-.81-.09-.27-.29-.42-.62-.44h-.08c-.12,0-.23.02-.32.04-.09.03-.17.08-.23.14-.06.06-.1.13-.14.2-.04.07-.06.17-.08.28-.02.11-.03.22-.03.32,0,.1,0,.22,0,.37v3.42c0,.48.06.81.18,1.01.12.2.33.3.64.3.1,0,.2-.01.28-.04.08-.03.14-.06.2-.1.05-.04.1-.09.14-.16.04-.07.07-.13.09-.2.02-.06.03-.14.04-.25,0-.11.01-.2.01-.27,0-.07,0-.18,0-.31v-.72h1.42v.66c0,.3-.02.57-.06.81-.04.24-.11.47-.22.68-.1.21-.23.39-.4.53-.16.14-.37.25-.62.33-.25.08-.55.12-.88.12"/>
      </g>
      <rect class="cls-2" x="51.92" y="9.64" width="1.45" height="8.09"/>
      <path class="cls-2" d="m56.43,8.95l.59-1.99h1.38l-1.2,1.99h-.78Zm.02,7.72c.1.04.23.06.37.06s.26-.02.36-.06c.1-.04.18-.1.24-.17.06-.07.11-.16.14-.27.03-.11.06-.22.07-.33.01-.11.02-.24.02-.39v-3.68c0-.2,0-.36-.03-.49-.02-.13-.06-.25-.12-.37-.05-.12-.14-.2-.25-.26-.12-.05-.26-.08-.43-.08s-.32.03-.44.08c-.12.06-.2.14-.26.26-.06.12-.09.24-.11.37-.02.13-.03.29-.03.49v3.68c0,.15,0,.28.02.39.01.11.03.22.07.33.04.11.08.2.14.27.06.07.14.12.24.17m.37,1.15c-.83,0-1.43-.22-1.79-.68-.36-.45-.54-1.11-.54-1.98v-2.99c0-.43.04-.8.12-1.12s.21-.59.39-.82c.18-.23.42-.4.73-.52.3-.12.67-.17,1.09-.17.83,0,1.42.22,1.79.67.36.44.54,1.1.54,1.96v2.99c0,.42-.04.79-.12,1.11-.08.32-.21.6-.39.84-.18.23-.42.41-.72.53-.3.12-.67.18-1.09.18"/>
      <polygon class="cls-2" points="60.23 17.73 60.23 9.64 61.24 9.64 63.22 14.22 63.22 9.64 64.44 9.64 64.44 17.73 63.48 17.73 61.48 12.92 61.48 17.73 60.23 17.73"/>
      <g>
        <path class="cls-2" d="m37.4,26.3h.47c.42,0,.7-.08.85-.25.15-.16.22-.47.22-.9,0-.25-.01-.45-.03-.58-.02-.14-.06-.26-.13-.37-.07-.11-.18-.19-.32-.23-.14-.04-.33-.06-.58-.06h-.48v2.4Zm-1.47,4.65v-8.09h2.33c1.38,0,2.07.77,2.07,2.3,0,.75-.19,1.3-.57,1.65-.38.35-.91.52-1.6.52h-.76v3.61h-1.47Z"/>
        <path class="cls-2" d="m42.94,29.89c.1.04.22.06.37.06s.27-.02.37-.06c.1-.04.18-.1.24-.17.06-.07.11-.16.14-.27.03-.11.06-.22.07-.33.01-.11.02-.24.02-.4v-3.67c0-.19,0-.35-.03-.49-.02-.13-.06-.25-.11-.37s-.14-.2-.26-.26c-.11-.06-.26-.09-.44-.09s-.32.03-.44.09c-.11.05-.2.14-.25.26-.06.12-.1.24-.11.37-.02.13-.03.29-.03.49v3.67c0,.15,0,.29.02.4.01.11.03.22.07.33.03.11.08.2.14.27.06.07.14.12.24.17m.37,1.15c-.83,0-1.43-.22-1.79-.68-.36-.45-.54-1.11-.54-1.99v-2.99c0-.43.04-.8.12-1.11.08-.32.21-.59.39-.82.18-.23.42-.4.72-.52.31-.12.67-.17,1.09-.17.83,0,1.43.22,1.79.67.36.45.55,1.1.55,1.96v2.99c0,.42-.04.79-.12,1.11-.08.32-.21.6-.4.83-.18.24-.42.41-.72.54-.3.12-.67.18-1.09.18"/>
        <path class="cls-2" d="m48.19,26.32h.36c.44,0,.75-.09.93-.28.18-.19.27-.5.27-.95s-.08-.74-.24-.93c-.16-.19-.45-.28-.88-.28h-.44v2.44Zm-1.47,4.63v-8.09h1.85c.43,0,.79.04,1.1.1.31.07.57.19.8.35.22.16.4.39.51.67.11.28.17.63.17,1.03,0,.51-.07.92-.23,1.24-.15.32-.4.55-.75.7l1.12,3.98h-1.48l-.97-3.69h-.65v3.69h-1.47Z"/>
      </g>
      <polygon class="cls-2" points="54.7 30.95 54.7 22.86 58.09 22.86 58.09 23.9 56.17 23.9 56.17 26.22 57.69 26.22 57.69 27.26 56.17 27.26 56.17 29.93 58.11 29.93 58.11 30.95 54.7 30.95"/>
      <polygon class="cls-2" points="58.96 30.95 58.96 22.86 60.43 22.86 60.43 29.93 62.37 29.93 62.37 30.95 58.96 30.95"/>
      <path class="cls-2" d="m67.76,31.05c-.35,0-.66-.04-.92-.13-.27-.09-.49-.21-.66-.37-.18-.16-.32-.35-.43-.58-.11-.23-.19-.48-.23-.74-.04-.27-.06-.56-.06-.9v-2.82c0-.35.02-.66.07-.93.05-.27.12-.52.23-.76.11-.23.25-.42.42-.57.17-.15.39-.27.66-.35.26-.09.57-.13.92-.13.4,0,.75.05,1.03.16.29.11.51.26.68.47.17.21.29.45.36.73.07.28.11.6.11.97v.69h-1.42v-.69c0-.4-.02-.68-.07-.82-.08-.27-.29-.42-.62-.44h-.08c-.12,0-.23.01-.33.04-.09.03-.17.08-.22.14-.06.06-.1.13-.14.2-.04.07-.06.17-.08.28-.02.11-.03.22-.03.32,0,.1,0,.22,0,.37v3.43c0,.48.06.81.18,1.01.12.2.33.3.64.3.1,0,.2-.01.28-.04.08-.02.15-.06.2-.09.05-.04.1-.09.14-.16.04-.07.07-.14.08-.2.02-.06.03-.14.04-.25.01-.11.01-.2.02-.27,0-.07,0-.18,0-.31v-.72h1.42v.67c0,.3-.02.57-.06.81-.04.24-.12.47-.22.68-.1.21-.24.39-.4.53-.16.14-.37.25-.62.33-.25.08-.55.12-.88.12"/>
      <polygon class="cls-2" points="70.96 30.95 70.96 22.86 72.44 22.86 72.44 29.93 74.37 29.93 74.37 30.95 70.96 30.95"/>
      <rect class="cls-2" x="75.2" y="22.86" width="1.45" height="8.09"/>
      <polygon class="cls-2" points="77.88 30.95 78.01 22.86 79.52 22.86 80.69 28.55 81.9 22.86 83.38 22.86 83.52 30.95 82.4 30.95 82.31 25.38 81.14 30.95 80.28 30.95 79.1 25.36 79.01 30.95 77.88 30.95"/>
      <path class="cls-2" d="m86.17,28.11h1.08l-.54-3.32-.54,3.32Zm-1.88,2.84l1.64-8.09h1.54l1.64,8.09h-1.37l-.33-1.88h-1.4l-.33,1.88h-1.39Z"/>
      <path class="cls-2" d="m73.19,73.65c-.46-.13-2.39-2.8-.86-4.56.25-.29-.51-1.14-.3-1.16.83-.06,1.28.46,1.5,1.2.01.33.03.66.03,1,0,1.2-.13,2.38-.37,3.51m-4.73,8.68c-.17-.05-.35-.1-.54-.2-.94-.48-.83.28-1.29.12-.46-.17.52-1.24-.87-.34-1.38.9-1.01-.14-1.61-1.67-.61-1.53.7-3.28,1.79-3.68,1.5-.54,2.42-.65,3.12-.82,2.07-.51,2.51-1.74,2.88-.99.07.14.14.27.2.4.12.22.26.67.26,1.12-.88,2.3-2.24,4.36-3.95,6.06m-12.14,4.99c-1.68,0-3.3-.25-4.83-.7-.22-.18-.35-.48-.21-.84.54-1.39,2.12-1.93,3.38-2.05,2.79-.27,6.46,1.82,7.04,1.49.59-.34,1.77-1.87,3.5-1.8,1.18.05,1.17.24,1.57.4-2.9,2.2-6.51,3.51-10.44,3.51m-2.32-11.22c-.24.39-.89,3.28-1.32,2.94-.44-.34.18-3.36.31-3.58.68-1.25,2.15-1.18,1.02.64m7.03-3.41c-.34.3-1.21.19-1.64-.15-.43-.34.28-.89.53-.92.58-.05,1.45.76,1.11,1.07m7.59.04c-.18-.07-.35-.25-.49-.67-.14-.42.22-.66.56-.49.35.18.81.71.81.99,0,.28-.69.25-.89.17m.73.53c.58-.04,1.44.76,1.11,1.07-.34.31-1.21.19-1.64-.15-.43-.34.28-.89.54-.92m-18.47,6.84c-.34,1.32-.73,1.79-1.06,2.21-.33.42-1.56.95-2.35.89-.78-.06-.89-2.15-.89-3.22,0-.37-.53.73-.8-1.51-.17-1.43-1.1.15-1.16-.81-.07-.95-.52-.76-1.01-1.36-.48-.6-1.08.05-1.75.36-.67.29-.39.45-1.34.15-.02,0-.04-.01-.06-.02-.87-2.06-1.35-4.32-1.34-6.7,0-.58.03-1.15.09-1.72.03-.06.06-.11.11-.16.91-1.08.89-1.33.89-1.33l1-.35s1.61.25,2.82.71c1,.38,2.57,1.22,3.48.85.66-.27,1.18-.63,1.12-1.18-.07-.69-.62-.85-1.28-.39-.24.17-.76-1.04-1.16-.98-.4.06.5,1.43.16,1.48-.35.06-1.04-1.42-1.15-1.66-.11-.24-.65-.83-1.13-.38-1.02.96-2.66.9-2.99,1.15-1.01.75-1.27-.25-1.25-.86.04-.14.08-.28.13-.42.33-.36,1.51-.48,1.92-.21.44.3.76-.08.94-.26.18-.18.12-.46,0-.7-.11-.24.22-.42.45-.48.23-.06,1-.6,1.31-.78.31-.18,1.9-.37,2.61,0,.71.36,1.37.07,1.72-.35.44-.52,1-.92,1.25-1.04.25-.12-.61-.92-1.33-.05-.71.88-1.08.95-1.41.95s-2.32-.5-2.56-1.13c-.24-.63.62-1.1,1.36-1.45.73-.35,2.74-.34,3.25-.45,1.04-.23,2.38-.75,3.05-.29.67.45-2.81,1.24-1.67,1.85.41.22,2.25-1.05,2.87-1.38,1.48-.76-1.43-1.02-1.05-2.57.43-1.76-3.57-1.08-5.57-.94,2.68-1.71,5.86-2.7,9.27-2.7,8.12.01,14.91,5.65,16.72,13.21.01.37-.05.64-.09.8-.16.62-1.33,1.15-2.02.15-.17-.25-.91-.95-.89.24.02,1.19,1.16,1.32.06,2.03-1.1.72-1.3.54-1.81.72-.51.18-1,1.41-.88,2.06.12.66,1.69,2.46.52,2.38-.27-.02-2.33-1.43-2.67-2.33-.36-.95-.74-1.88-1.02-2.6-.28-.71-1-.9-1.62-.48-.61.42.17.84-.27,1.73-.44.89-.76,1.69-1.4.95-1.68-1.93-4.12-.98-4.5-3.12-.21-1.16-1.21-1.05-2.04-1.71-.84-.66-1.31-1.01-1.45-.54-.13.41,2.63,2.6,2.82,3.16.29.83-.83,1.56-1.64,1.76-.82.19-1.17-.46-1.97-1.3-.8-.84-1.15-1.43-1.21-.78-.08.95.76,2.34,1.57,2.86.7.44,1.48.64,1.25,1.36-.23.72,0,.31-.78,1.08-.78.77-.93,1.02-.88,2.1.06,1.07-.22,1.14-.39,2.03-.17.89-.56.12-.89,1.43m-9.22-18.98s.08-.09.09-.1c.31-.35.93-.43,1.36-.49.43-.07,1,.14,1.07.43.07.28-1.08.8-1.29,1-.6.55-1.53,1.66-2.07,1.78-.18.04-.32.01-.44-.05.36-.89.79-1.75,1.29-2.56m.89-1.75c.22-.33.96-1.26,1.05-1.38.19-.25.57-.3.83-.34.26-.05.61.1.65.29.04.2-.1.96-.23,1.09-.36.38-1.3.9-1.82.82-.4-.06-.56-.37-.48-.49m54.69,10.24c-2.93-4.12-16.2-20.59-40.9-20.63-24.71-.03-38.01,16.4-40.96,20.52-.13.18-.23.33-.32.46.09.13.2.28.32.46,2.94,4.12,16.2,20.59,40.9,20.63,24.7.03,38.01-16.4,40.96-20.52.13-.18.23-.33.32-.46-.08-.13-.19-.28-.32-.46"/>
    </g>
  </g>
</svg>