<?xml version="1.0" encoding="UTF-8"?>
<svg id="Capa_2" data-name="Capa 2" xmlns="http://www.w3.org/2000/svg" viewBox="0 0 111 111">
  <defs>
    <style>
      .cls-1 {
        fill: #fff;
      }

      .cls-1, .cls-2 {
        stroke-width: 0px;
      }

      .cls-2 {
        fill: #00689c;
      }
    </style>
  </defs>
  <g id="Outline">
    <g>
      <rect class="cls-2" width="111" height="111"/>
      <g>
        <path class="cls-1" d="m9.98,13.83c-.19.11-.75.32-1.67.65-.73.24-1.19.41-1.39.5v-3c.59-.22,1.31-.57,2.15-1.05.85-.47,1.44-.9,1.79-1.28h3.16v21.16h-4.05V13.83Z"/>
        <path class="cls-1" d="m23.24,27.23c.22-.58.33-1.51.33-2.78,0-.89-.03-1.58-.08-2.06-.05-.49-.2-.88-.43-1.18-.24-.29-.6-.44-1.09-.44-.36,0-.69.1-.98.29-.29.19-.51.42-.67.68v3.37c0,2,.56,3,1.67,3,.61,0,1.02-.29,1.24-.88m-5.59,2c-.93-1.26-1.4-2.94-1.4-5.07v-7.52c0-2.3.42-4.08,1.25-5.34.83-1.26,2.31-1.9,4.41-1.9,1.88,0,3.24.44,4.08,1.33.84.89,1.26,2.23,1.28,4.02l.03.37h-3.84c0-.98-.1-1.66-.29-2.05-.19-.39-.59-.59-1.2-.59-.43,0-.77.13-1.01.39-.24.26-.4.7-.5,1.31-.1.61-.14,1.47-.14,2.59v2.14c.23-.38.59-.68,1.1-.9.51-.22,1.08-.33,1.72-.33,1.57,0,2.7.54,3.41,1.63.71,1.09,1.06,2.57,1.06,4.45,0,2.34-.44,4.14-1.31,5.42-.87,1.28-2.33,1.92-4.36,1.92-1.93,0-3.37-.63-4.3-1.88"/>
        <path class="cls-1" d="m37.41,13.08h.47c.42,0,.7-.08.85-.25.15-.16.22-.47.22-.9,0-.25-.01-.44-.03-.58-.02-.14-.07-.26-.14-.38-.07-.11-.18-.19-.32-.23-.14-.04-.33-.06-.57-.06h-.48v2.4Zm-1.47,4.65v-8.09h2.32c1.38,0,2.07.77,2.07,2.3,0,.75-.19,1.3-.57,1.65-.38.35-.91.52-1.6.52h-.76v3.61h-1.47Z"/>
      </g>
      <path class="cls-1" d="m42.18,14.89h1.08l-.54-3.32-.54,3.32Zm-1.88,2.84l1.64-8.09h1.54l1.64,8.09h-1.37l-.33-1.88h-1.4l-.33,1.88h-1.39Z"/>
      <polygon class="cls-1" points="45.66 17.73 45.66 16.76 47.8 10.66 45.77 10.66 45.77 9.64 49.31 9.64 49.31 10.37 47.06 16.71 49.32 16.71 49.32 17.73 45.66 17.73"/>
      <g>
        <path class="cls-1" d="m50.16,19.1l-.15-.51c.19-.05.35-.15.47-.3.12-.15.18-.34.18-.56h-.72v-1.32h1.34v1.23c0,.82-.38,1.32-1.13,1.46"/>
        <path class="cls-1" d="m54.18,17.9v-1.03c.43,0,.72-.06.86-.2.14-.14.21-.41.21-.82v-6.21h1.47v6.24c0,.36-.04.65-.09.89-.06.24-.16.45-.29.62-.14.18-.33.3-.57.38-.24.08-.53.12-.89.12h-.71Z"/>
        <path class="cls-1" d="m60.16,17.83c-.36,0-.68-.04-.94-.13s-.48-.2-.65-.36c-.17-.15-.31-.35-.41-.59-.1-.24-.17-.5-.21-.77-.04-.28-.06-.6-.06-.97v-5.37h1.43v5.52c0,.19,0,.35.02.48,0,.13.03.27.06.42.03.15.08.26.14.35.06.09.14.16.25.22.1.06.23.09.38.09s.28-.03.38-.09c.11-.06.19-.13.25-.22.06-.09.1-.2.14-.35.03-.15.05-.29.06-.42,0-.13.01-.29.01-.48v-5.52h1.43v5.37c0,.37-.02.69-.06.97-.04.28-.11.54-.21.77-.1.24-.24.44-.41.59-.17.15-.39.27-.65.36-.27.08-.58.13-.93.13"/>
        <path class="cls-1" d="m65.62,17.83c-1.43,0-2.17-.82-2.25-2.47l1.28-.27c.03,1.07.34,1.6.92,1.6.23,0,.39-.07.5-.2.11-.14.16-.32.16-.55s-.04-.43-.12-.62c-.08-.19-.17-.34-.28-.46-.11-.12-.26-.27-.46-.44l-1.07-.92c-.31-.27-.54-.56-.7-.85-.15-.29-.23-.66-.23-1.1,0-.63.19-1.12.55-1.46.37-.35.88-.53,1.52-.53.3,0,.56.03.78.11.23.08.42.18.56.31.15.13.27.29.37.48.1.19.17.39.22.6.05.21.08.44.1.69l-1.26.25c0-.16-.02-.31-.03-.42-.01-.12-.04-.24-.07-.37-.04-.12-.08-.22-.14-.3-.06-.08-.13-.14-.23-.18-.09-.05-.21-.06-.33-.05-.22.01-.39.09-.5.22-.12.13-.17.31-.17.53,0,.26.05.47.15.64.1.17.26.35.48.54l1.05.92c.18.16.33.31.46.46.13.15.25.32.37.51.12.19.21.4.27.63.06.23.09.48.09.73,0,.59-.19,1.07-.56,1.43-.37.37-.86.55-1.46.55"/>
      </g>
      <polygon class="cls-1" points="69.29 17.73 69.29 10.73 67.94 10.73 67.94 9.64 72.08 9.64 72.08 10.73 70.77 10.73 70.77 17.73 69.29 17.73"/>
      <rect class="cls-1" x="72.77" y="9.64" width="1.45" height="8.09"/>
      <path class="cls-1" d="m77.64,17.83c-.35,0-.66-.04-.92-.13-.27-.09-.49-.21-.66-.37-.17-.16-.32-.35-.43-.58-.11-.23-.18-.48-.23-.74-.04-.26-.07-.56-.07-.9v-2.82c0-.35.02-.66.07-.94.05-.27.12-.52.23-.75.11-.23.25-.43.42-.57.17-.15.39-.27.66-.35.26-.08.57-.13.92-.13.4,0,.75.05,1.03.16.29.11.51.26.68.47.16.21.29.45.36.73.07.28.11.6.11.97v.69h-1.42v-.69c0-.4-.02-.68-.06-.81-.08-.27-.29-.42-.62-.44h-.08c-.12,0-.23.01-.32.04-.09.03-.17.08-.23.14-.06.06-.1.13-.14.2-.04.07-.06.17-.08.28-.02.11-.03.22-.03.32,0,.1,0,.22,0,.37v3.42c0,.47.06.81.18,1.01.12.2.33.3.64.3.1,0,.2-.01.28-.04.08-.03.15-.06.2-.1.05-.03.1-.09.14-.16.04-.07.07-.13.08-.19.02-.06.03-.14.04-.25.01-.11.02-.2.02-.27,0-.07,0-.18,0-.31v-.72h1.42v.66c0,.3-.02.57-.07.81-.04.24-.11.47-.22.68-.1.21-.23.39-.4.53-.17.14-.37.25-.63.33-.25.08-.55.12-.88.12"/>
      <rect class="cls-1" x="80.89" y="9.64" width="1.45" height="8.09"/>
      <path class="cls-1" d="m85.04,14.89h1.08l-.54-3.32-.54,3.32Zm-1.88,2.84l1.64-8.09h1.54l1.64,8.09h-1.37l-.33-1.88h-1.4l-.33,1.88h-1.39Z"/>
      <polygon class="cls-1" points="35.93 30.95 35.93 22.86 39.32 22.86 39.32 23.9 37.41 23.9 37.41 26.22 38.92 26.22 38.92 27.26 37.41 27.26 37.41 29.93 39.34 29.93 39.34 30.95 35.93 30.95"/>
      <rect class="cls-1" x="42.68" y="22.86" width="1.45" height="8.09"/>
      <polygon class="cls-1" points="45.37 30.95 45.37 22.86 46.39 22.86 48.36 27.44 48.36 22.86 49.59 22.86 49.59 30.95 48.62 30.95 46.62 26.13 46.62 30.95 45.37 30.95"/>
      <path class="cls-1" d="m52.84,31.05c-1.43,0-2.17-.82-2.25-2.47l1.28-.27c.03,1.07.34,1.61.92,1.61.23,0,.39-.07.5-.2.11-.14.16-.32.16-.55s-.04-.43-.12-.62c-.08-.19-.17-.34-.28-.46-.11-.12-.26-.27-.46-.44l-1.07-.92c-.31-.27-.54-.56-.7-.85-.15-.29-.23-.66-.23-1.1,0-.63.18-1.12.55-1.46.37-.35.88-.52,1.52-.53.3,0,.56.03.78.11.23.08.42.18.56.31.15.13.27.29.37.48.1.19.17.39.22.6.05.21.08.44.1.69l-1.26.25c0-.16-.02-.3-.03-.43-.01-.12-.04-.24-.07-.37-.04-.12-.08-.22-.14-.3-.06-.08-.13-.14-.23-.18-.09-.05-.21-.07-.33-.05-.22.01-.39.09-.5.22-.12.13-.17.31-.17.53,0,.26.05.47.15.64.1.17.26.35.48.54l1.05.92c.18.16.33.31.46.46.13.15.25.32.37.51.12.19.21.4.27.64.06.23.09.48.09.73,0,.59-.19,1.07-.56,1.43-.37.37-.86.55-1.46.55"/>
      <polygon class="cls-1" points="56.51 30.95 56.51 23.95 55.16 23.95 55.16 22.86 59.3 22.86 59.3 23.95 57.99 23.95 57.99 30.95 56.51 30.95"/>
      <rect class="cls-1" x="59.99" y="22.86" width="1.45" height="8.09"/>
      <polygon class="cls-1" points="63.48 30.95 63.48 23.95 62.12 23.95 62.12 22.86 66.26 22.86 66.26 23.95 64.95 23.95 64.95 30.95 63.48 30.95"/>
      <g>
        <path class="cls-1" d="m69.12,31.05c-.36,0-.67-.04-.94-.13-.27-.08-.49-.2-.65-.36-.17-.15-.31-.35-.41-.59-.1-.24-.17-.5-.21-.77-.04-.28-.06-.6-.06-.97v-5.37h1.43v5.52c0,.19,0,.35.02.48,0,.13.03.27.06.42.03.15.08.26.14.35.06.09.14.16.25.22.1.06.23.09.38.09s.28-.03.38-.09c.11-.06.19-.13.24-.22s.1-.2.14-.35c.03-.15.05-.28.06-.42,0-.13.01-.29.01-.48v-5.52h1.43v5.37c0,.37-.02.69-.06.97-.04.28-.11.54-.22.77-.1.24-.24.44-.41.59-.17.16-.39.27-.65.36s-.58.13-.93.13"/>
        <path class="cls-1" d="m74.71,31.05c-.35,0-.66-.04-.92-.13-.26-.09-.49-.21-.66-.37-.17-.16-.31-.35-.42-.58-.11-.23-.19-.48-.23-.74-.04-.26-.06-.56-.06-.9v-2.82c0-.35.02-.66.07-.93.05-.27.12-.52.23-.76.11-.23.25-.42.42-.57.17-.15.39-.27.66-.35.26-.09.57-.13.93-.13.4,0,.75.05,1.03.16.29.11.51.26.68.47.17.21.29.45.36.73.07.28.11.6.11.97v.69h-1.42v-.69c0-.4-.02-.68-.06-.82-.08-.27-.29-.42-.62-.44h-.08c-.12,0-.23.01-.33.04-.09.03-.17.08-.22.14s-.1.13-.14.2c-.04.07-.06.17-.08.28-.02.11-.03.22-.04.32,0,.1,0,.22,0,.37v3.43c0,.47.06.81.18,1.01.12.2.33.3.64.3.1,0,.2-.01.28-.04.08-.02.15-.06.2-.09.06-.03.1-.09.14-.16.04-.07.07-.13.09-.19.02-.06.03-.14.04-.25.01-.11.02-.2.02-.27,0-.07,0-.18,0-.31v-.72h1.42v.67c0,.3-.02.57-.07.81-.04.24-.11.47-.22.68-.1.21-.24.39-.4.53s-.37.25-.62.33c-.25.08-.55.12-.88.12"/>
      </g>
      <rect class="cls-1" x="77.95" y="22.86" width="1.45" height="8.09"/>
      <path class="cls-1" d="m82.48,29.89c.1.04.22.06.37.06s.27-.02.37-.06c.1-.04.18-.1.24-.17.06-.07.11-.16.14-.27.03-.11.06-.22.07-.33.01-.11.02-.24.02-.4v-3.67c0-.19-.01-.35-.03-.49-.02-.13-.06-.25-.12-.37-.06-.12-.14-.2-.25-.26-.11-.06-.26-.09-.44-.09s-.32.03-.44.09c-.12.06-.2.14-.26.26-.06.12-.09.24-.11.37-.02.13-.03.29-.03.49v3.67c0,.15,0,.28.02.4.01.11.03.22.07.33.03.11.08.2.14.27.06.07.14.12.24.17m.37,1.15c-.83,0-1.43-.22-1.79-.68-.36-.45-.54-1.11-.54-1.98v-2.99c0-.43.04-.8.12-1.12.08-.32.21-.59.39-.82.18-.23.42-.4.72-.52.3-.11.67-.17,1.09-.17.83,0,1.43.22,1.79.67.36.45.54,1.1.54,1.96v2.99c0,.42-.04.79-.12,1.11-.08.32-.21.6-.39.83-.18.24-.42.42-.72.54-.3.12-.67.18-1.09.18"/>
      <polygon class="cls-1" points="86.26 30.95 86.26 22.86 87.28 22.86 89.26 27.44 89.26 22.86 90.48 22.86 90.48 30.95 89.51 30.95 87.51 26.13 87.51 30.95 86.26 30.95"/>
      <polygon class="cls-1" points="91.69 30.95 91.69 22.86 95.07 22.86 95.07 23.9 93.16 23.9 93.16 26.22 94.67 26.22 94.67 27.26 93.16 27.26 93.16 29.93 95.1 29.93 95.1 30.95 91.69 30.95"/>
      <g>
        <path class="cls-1" d="m97.99,31.05c-1.43,0-2.17-.82-2.24-2.47l1.28-.27c.03,1.07.34,1.61.92,1.61.22,0,.39-.07.5-.2.11-.14.16-.32.16-.55s-.04-.43-.12-.62c-.08-.19-.17-.34-.28-.46-.11-.12-.26-.27-.46-.44l-1.07-.92c-.31-.27-.54-.56-.7-.85-.15-.29-.23-.66-.23-1.1,0-.63.18-1.12.55-1.46.37-.35.88-.52,1.52-.53.3,0,.56.03.79.11.22.08.41.18.56.31.15.13.27.29.37.48.1.19.17.39.22.6.05.21.08.44.1.69l-1.26.25c0-.16-.02-.3-.03-.43-.01-.12-.04-.24-.08-.37-.04-.12-.08-.22-.14-.3-.06-.08-.13-.14-.23-.18-.1-.05-.21-.07-.33-.05-.22.01-.39.09-.5.22-.12.13-.17.31-.17.53,0,.26.05.47.15.64.1.17.26.35.48.54l1.05.92c.18.16.33.31.46.46.13.15.25.32.37.51.12.19.21.4.27.64.06.23.09.48.09.73,0,.59-.18,1.07-.56,1.43-.37.37-.86.55-1.46.55"/>
        <path class="cls-1" d="m37.97,44.27c-1.43,0-2.17-.82-2.25-2.47l1.28-.27c.03,1.07.34,1.61.92,1.61.23,0,.39-.07.5-.2.11-.14.16-.32.16-.55s-.04-.43-.12-.62c-.08-.19-.17-.34-.28-.46-.11-.12-.26-.27-.46-.44l-1.06-.92c-.31-.27-.54-.56-.7-.85-.15-.29-.23-.66-.23-1.1,0-.63.18-1.12.55-1.46.37-.35.88-.52,1.52-.53.3,0,.56.03.78.11.23.08.42.18.57.31.15.13.27.29.37.48.1.19.17.39.22.6.05.21.08.44.1.69l-1.26.25c0-.16-.02-.3-.03-.43-.01-.12-.04-.24-.07-.37-.04-.12-.08-.22-.14-.3-.06-.08-.13-.14-.23-.18-.1-.04-.21-.06-.33-.05-.22.01-.39.09-.5.22-.12.13-.17.31-.17.53,0,.26.05.47.15.64.1.17.26.35.48.54l1.05.92c.17.16.33.31.46.46.13.15.25.32.37.51.12.19.21.4.27.64.06.23.09.48.09.73,0,.59-.19,1.07-.56,1.43-.37.37-.86.55-1.46.55"/>
        <path class="cls-1" d="m42.67,35.39l.59-2h1.38l-1.2,2h-.78Zm.02,7.72c.1.04.22.06.37.06s.26-.02.37-.06c.1-.04.18-.1.24-.17.06-.07.11-.16.14-.27.03-.11.06-.22.07-.33.01-.11.02-.24.02-.4v-3.67c0-.2,0-.36-.03-.49-.02-.13-.06-.25-.12-.37-.06-.11-.14-.2-.26-.26-.11-.06-.26-.08-.43-.08s-.32.03-.44.08c-.11.06-.2.14-.26.26-.06.12-.09.24-.11.37-.02.13-.03.29-.03.49v3.67c0,.15,0,.28.02.4.01.11.03.22.07.33.03.11.08.2.14.27.06.07.14.12.24.17m.37,1.15c-.83,0-1.43-.22-1.79-.68-.36-.45-.54-1.11-.54-1.99v-2.98c0-.43.04-.8.12-1.12.08-.31.21-.59.39-.82.18-.23.42-.4.72-.52.3-.11.67-.17,1.09-.17.83,0,1.42.22,1.79.67.36.45.54,1.1.54,1.96v2.98c0,.42-.04.79-.12,1.11-.08.32-.21.6-.39.84-.18.24-.42.41-.72.53-.3.12-.67.18-1.09.18"/>
      </g>
      <polygon class="cls-1" points="46.47 44.17 46.47 36.08 47.94 36.08 47.94 43.15 49.88 43.15 49.88 44.17 46.47 44.17"/>
      <rect class="cls-1" x="50.7" y="36.08" width="1.45" height="8.09"/>
      <path class="cls-1" d="m54.87,43.13h.42c.14,0,.28-.01.39-.04.11-.03.2-.06.28-.09.08-.04.14-.09.19-.17.05-.08.09-.16.12-.23.03-.07.04-.17.06-.31.01-.14.02-.25.02-.35,0-.1,0-.24,0-.43v-2.96c0-.19,0-.35-.01-.46,0-.12-.02-.24-.05-.35-.03-.12-.06-.21-.11-.28-.05-.07-.11-.12-.19-.18-.08-.06-.18-.09-.29-.11-.12-.02-.26-.03-.42-.03h-.4v6Zm-1.47,1.03v-8.09h1.88c.49,0,.9.05,1.23.15.33.1.59.25.79.46.2.21.34.47.42.78.08.31.13.68.13,1.13v2.92c0,.46-.04.85-.13,1.18-.08.32-.22.59-.41.82-.2.23-.45.39-.78.5-.32.11-.72.16-1.19.16h-1.94Z"/>
      <path class="cls-1" d="m60.27,41.33h1.08l-.54-3.32-.54,3.32Zm-1.88,2.84l1.64-8.09h1.54l1.64,8.09h-1.37l-.33-1.88h-1.4l-.33,1.88h-1.39Z"/>
      <g>
        <path class="cls-1" d="m66.05,44.27c-1.43,0-2.17-.82-2.24-2.47l1.28-.27c.03,1.07.34,1.61.92,1.61.23,0,.39-.07.5-.2.11-.14.16-.32.16-.55s-.04-.43-.12-.62c-.08-.19-.17-.34-.28-.46-.11-.12-.26-.27-.46-.44l-1.06-.92c-.31-.27-.55-.56-.7-.85-.15-.29-.23-.66-.23-1.1,0-.63.18-1.12.56-1.46.37-.35.87-.52,1.52-.53.3,0,.56.03.79.11.23.08.41.18.56.31.15.13.27.29.37.48.1.19.17.39.22.6.05.21.08.44.1.69l-1.26.25c0-.16-.02-.3-.03-.43-.01-.12-.04-.24-.07-.37-.04-.12-.08-.22-.14-.3-.06-.08-.14-.14-.23-.18-.1-.04-.21-.06-.33-.05-.22.01-.39.09-.5.22-.12.13-.17.31-.17.53,0,.26.05.47.15.64.1.17.26.35.48.54l1.05.92c.18.16.33.31.46.46.13.15.25.32.37.51.12.19.21.4.27.64.06.23.09.48.09.73,0,.59-.18,1.07-.56,1.43-.37.37-.86.55-1.47.55"/>
        <path class="cls-1" d="m73.77,49.24s-1.08,1.44-.77,2.84c.32,1.4,1.91,2.23,1.91,2.23,0,0,1.08-1.44.77-2.84-.32-1.4-1.91-2.24-1.91-2.24"/>
        <path class="cls-1" d="m72.01,57.45s1.08-1.44.77-2.84c-.32-1.4-1.91-2.23-1.91-2.23,0,0-1.09,1.44-.77,2.84.32,1.4,1.92,2.23,1.92,2.23"/>
        <path class="cls-1" d="m76.45,55.91s1.14,1.15,2.44,1.04c1.3-.12,2.27-1.46,2.27-1.46,0,0-1.14-1.15-2.44-1.04-1.3.12-2.27,1.45-2.27,1.45"/>
        <path class="cls-1" d="m78.33,49.75c-1.06,1.08-.91,2.98-.91,2.98,0,0,1.87.16,2.93-.91,1.06-1.07.91-2.97.91-2.97,0,0-1.87-.16-2.93.91"/>
        <path class="cls-1" d="m75.99,60.19c1.3.15,2.52-.96,2.52-.96,0,0-.88-1.36-2.18-1.51-1.3-.15-2.52.96-2.52.96,0,0,.88,1.36,2.18,1.51"/>
        <path class="cls-1" d="m77.15,81.04h-9.7c-.76,0-1.37.61-1.37,1.37s.61,1.37,1.37,1.37h9.7c.76,0,1.37-.62,1.37-1.37s-.61-1.37-1.37-1.37"/>
        <path class="cls-1" d="m77.15,96.16h-9.7c-.76,0-1.37.61-1.37,1.37s.61,1.37,1.37,1.37h9.7c.76,0,1.37-.61,1.37-1.37s-.61-1.37-1.37-1.37"/>
        <path class="cls-1" d="m33.54,77.71c-.23-.07-.45-.13-.67-.17,0,0,.25.08.67.17"/>
        <path class="cls-1" d="m49.26,83.64c.64.01,1.28,0,1.92-.05v5.07l-1.92-.05v-4.97Zm27.53,1.1h-8.99c-.43,0-.78.35-.78.78v2.72l-5.86.65-8.57-.19v-5.23c1.14-.15,2.28-.37,3.41-.69,8.25-2.33,10.05-7.47,9.87-12.18-.18-4.81,1.36-6.67,3.57-7.5.63-.24,1.26-.39,1.83-.48.03,1.18.26,2.55.79,4.19.2-.01.39-.03.59-.05-.56-1.67-.8-3.05-.81-4.22,1.14-.13,1.96-.06,1.96-.06,0,0-.77-.42-1.86-1.33.37-2.28,1.73-3.67,3.12-5.1.77-.79,1.56-1.6,2.19-2.57l-.49-.31c-.59.92-1.37,1.71-2.11,2.48-1.36,1.39-2.74,2.82-3.2,5.08-.44-.4-.92-.87-1.41-1.42-2.03-2.28-4.65-.61-8.39,2.87-3.74,3.48-8.43,3.59-13.02-1.1-6.05-6.2-11.33-6.16-14.95-5.81,2.48,1.05,3.34,3.37,4.6,9.25,1.31,6.17,4.63,8.97,9.16,9.35-2.1.34-2.65.63-6.02,2.97-2.64,1.82-6.35,1.24-7.85.9,2.76.86,6.03,3.76,8.96,4.77,1.7.59,3.5.95,5.34,1.1v5.01l-16.25-.35v3.5l29.57-.66,5.86.65v2.72c0,.43.35.78.78.78h8.99c.43,0,.78-.35.78-.78v-8.92c0-.43-.35-.78-.78-.78"/>
        <path class="cls-1" d="m30.75,91.15c0,.74-.52,1.33-1.15,1.33h-.69c-.63,0-1.15-.6-1.15-1.33v-2.42c0-.74.52-1.34,1.15-1.34h.69c.63,0,1.15.6,1.15,1.34v2.42Z"/>
      </g>
    </g>
  </g>
</svg>