<?xml version="1.0" encoding="UTF-8"?>
<svg id="Capa_2" data-name="Capa 2" xmlns="http://www.w3.org/2000/svg" viewBox="0 0 111 110.82">
  <defs>
    <style>
      .cls-1 {
        fill: #fff;
      }

      .cls-1, .cls-2 {
        stroke-width: 0px;
      }

      .cls-2 {
        fill: #f1a829;
      }
    </style>
  </defs>
  <g id="Outline">
    <g>
      <rect class="cls-2" width="111" height="110.82"/>
      <path class="cls-1" d="m8.95,27.78l5.12-7.92.31-.47c.66-.99,1.15-1.83,1.46-2.5.31-.67.47-1.41.47-2.21,0-.68-.13-1.2-.39-1.56-.26-.36-.63-.54-1.12-.54-.73,0-1.24.28-1.52.84-.28.56-.42,1.32-.42,2.3v.97h-3.92v-1.05c0-1.98.46-3.56,1.4-4.71.93-1.16,2.39-1.74,4.38-1.74,1.83,0,3.22.48,4.17,1.45.95.97,1.42,2.34,1.42,4.11,0,.8-.12,1.56-.37,2.27-.24.71-.53,1.35-.86,1.91-.33.56-.85,1.35-1.54,2.38l-4.08,6.11h6.3v3.19h-10.82v-2.85Z"/>
      <polygon class="cls-1" points="29.22 17.54 29.22 9.46 30.69 9.46 30.69 12.84 32.34 12.84 32.34 9.46 33.81 9.46 33.81 17.54 32.34 17.54 32.34 13.89 30.69 13.89 30.69 17.54 29.22 17.54"/>
      <path class="cls-1" d="m36.44,14.7h1.08l-.54-3.32-.54,3.32Zm-1.88,2.84l1.64-8.09h1.54l1.64,8.09h-1.37l-.33-1.88h-1.4l-.33,1.88h-1.39Z"/>
      <polygon class="cls-1" points="40.12 17.54 40.25 9.46 41.76 9.46 42.93 15.14 44.14 9.46 45.61 9.46 45.75 17.54 44.64 17.54 44.54 11.97 43.38 17.54 42.51 17.54 41.33 11.95 41.24 17.54 40.12 17.54"/>
      <g>
        <path class="cls-1" d="m48.37,16.51h.54c.44,0,.74-.1.91-.31.17-.21.26-.54.26-1.01s-.1-.84-.29-1.06c-.19-.22-.51-.33-.96-.33h-.47v2.71Zm0-3.75h.46c.43,0,.73-.09.89-.28.16-.18.24-.5.24-.94,0-.23-.02-.41-.08-.56-.05-.14-.14-.25-.27-.32-.13-.07-.27-.12-.42-.14-.16-.02-.36-.03-.62-.03h-.21v2.26Zm-1.47,4.79v-8.09h1.98c.37,0,.7.03.98.1.28.07.53.18.74.33.22.16.38.37.49.64.11.27.16.6.16.99,0,1-.4,1.55-1.19,1.67.48.09.83.3,1.07.63.24.33.35.78.36,1.38,0,.77-.19,1.35-.58,1.75-.39.4-.95.6-1.69.6h-2.32Z"/>
        <path class="cls-1" d="m53.87,12.91h.36c.44,0,.74-.09.93-.28.18-.18.28-.5.28-.95s-.08-.74-.24-.93c-.16-.19-.45-.28-.88-.28h-.44v2.44Zm-1.47,4.63v-8.09h1.85c.43,0,.79.03,1.1.11.31.07.57.18.8.35.22.16.39.39.51.67.11.28.17.62.17,1.03,0,.51-.08.92-.23,1.25-.15.32-.4.55-.75.7l1.12,3.98h-1.48l-.97-3.69h-.65v3.69h-1.47Z"/>
      </g>
      <polygon class="cls-1" points="57.88 17.54 57.88 9.46 61.27 9.46 61.27 10.5 59.36 10.5 59.36 12.82 60.87 12.82 60.87 13.86 59.36 13.86 59.36 16.53 61.29 16.53 61.29 17.54 57.88 17.54"/>
      <path class="cls-1" d="m31.38,30.86c-.35,0-.66-.04-.92-.13-.27-.09-.49-.21-.66-.37-.18-.16-.32-.35-.43-.58-.11-.23-.18-.48-.23-.74-.04-.26-.06-.56-.06-.89v-2.82c0-.35.02-.67.07-.94.05-.27.12-.52.23-.76.11-.23.25-.42.42-.57.17-.15.39-.27.66-.35.27-.08.57-.13.92-.13.4,0,.75.05,1.03.16.29.11.51.27.68.47s.29.45.36.73c.07.28.11.6.11.97v.7h-1.42v-.69c0-.4-.02-.68-.06-.82-.08-.27-.29-.42-.62-.44h-.08c-.12,0-.23.01-.33.04-.09.03-.17.08-.23.14-.06.06-.1.13-.14.2-.04.07-.06.16-.08.28-.02.11-.03.22-.03.32,0,.1,0,.22,0,.37v3.43c0,.47.06.81.18,1.01.12.2.33.3.64.3.1,0,.19-.01.27-.04.08-.02.15-.06.2-.09.05-.04.1-.09.14-.16.04-.07.07-.13.08-.19.02-.06.03-.14.04-.25,0-.11.01-.2.02-.27,0-.08,0-.18,0-.31v-.72h1.42v.66c0,.3-.02.58-.06.82-.04.24-.11.47-.22.68-.1.21-.24.39-.4.53-.16.14-.37.25-.62.33-.25.08-.55.12-.88.12"/>
      <polygon class="cls-1" points="34.53 30.76 34.53 22.68 37.92 22.68 37.92 23.72 36.01 23.72 36.01 26.04 37.52 26.04 37.52 27.08 36.01 27.08 36.01 29.74 37.94 29.74 37.94 30.76 34.53 30.76"/>
      <g>
        <path class="cls-1" d="m40.21,26.13h.36c.44,0,.74-.09.93-.28.18-.18.27-.5.27-.95s-.08-.74-.24-.93c-.16-.19-.45-.28-.88-.28h-.44v2.44Zm-1.47,4.63v-8.09h1.85c.43,0,.79.03,1.1.1.31.07.57.19.8.35.23.17.4.39.51.67.11.28.17.63.17,1.03,0,.51-.08.92-.23,1.25-.15.32-.4.55-.75.7l1.12,3.98h-1.48l-.96-3.69h-.65v3.69h-1.47Z"/>
        <path class="cls-1" d="m46.06,29.7c.1.04.22.07.37.07s.26-.02.37-.07c.1-.04.18-.1.24-.16.06-.07.11-.16.14-.27.03-.11.06-.22.07-.33.01-.11.02-.24.02-.39v-3.67c0-.2,0-.36-.03-.49-.02-.13-.06-.25-.11-.37-.06-.12-.14-.2-.26-.26-.11-.06-.26-.09-.43-.09s-.32.03-.44.09c-.11.05-.2.14-.26.26-.06.11-.09.24-.11.37-.02.13-.03.29-.03.49v3.67c0,.15,0,.28.02.39,0,.11.03.22.07.33.03.11.08.2.14.27.06.07.14.12.24.16m.37,1.16c-.83,0-1.43-.23-1.79-.68-.36-.45-.54-1.11-.54-1.99v-2.99c0-.43.04-.8.12-1.11.08-.32.21-.59.39-.82.18-.23.42-.4.72-.52.3-.11.67-.17,1.09-.17.83,0,1.42.22,1.79.67.36.45.54,1.1.54,1.96v2.99c0,.42-.04.79-.12,1.11-.08.32-.21.6-.4.83-.18.24-.42.41-.72.53-.3.12-.67.18-1.09.18"/>
        <path class="cls-1" d="m44.22,94.31v1.57s0,.02,0,.04c0,.01,0,.02,0,.04.02.39.33.7.72.7,0,0,0,0,.01,0,0,0,0,0,.02,0h18.4s0,0,.02,0c0,0,0,0,.01,0,.4,0,.72-.33.73-.74h0,0v-1.78c10.35-3.39,18.11-11.79,19.82-22.02,0-.02,0-.04.01-.06,0-.03,0-.07,0-.1,0-.41-.33-.74-.74-.74H24.6c-.41,0-.74.33-.74.74l.04.34c1.79,10.32,9.76,18.76,20.33,22.02"/>
        <path class="cls-1" d="m64.11,46.19c-.24.34-5.91,8.5.13,15.09,2.77,3.03,2.53,5.7,1.74,7.5h3.87c.78-2.66.46-6-2.68-9.43-4.44-4.86.06-11.43.12-11.53.53-.75.25-1.72-.63-2.17-.88-.45-2.02-.21-2.55.54"/>
        <path class="cls-1" d="m54.31,68.78h3.87c.78-2.66.46-6-2.69-9.43-4.44-4.86.05-11.42.12-11.53.53-.74.25-1.71-.63-2.16-.87-.45-2.01-.21-2.54.54-.24.34-5.91,8.5.13,15.09,2.76,3.03,2.52,5.7,1.74,7.5"/>
        <path class="cls-1" d="m40.78,46.19c-.24.34-5.91,8.5.13,15.09,2.77,3.03,2.53,5.7,1.74,7.5h3.87c.78-2.66.46-6-2.68-9.43-4.45-4.86.06-11.43.13-11.53.52-.75.24-1.71-.63-2.16-.87-.45-2.01-.21-2.54.54"/>
      </g>
    </g>
  </g>
</svg>