<?xml version="1.0" encoding="UTF-8"?>
<svg id="Capa_2" data-name="Capa 2" xmlns="http://www.w3.org/2000/svg" viewBox="0 0 111 110.81">
  <defs>
    <style>
      .cls-1 {
        fill: #00a03b;
      }

      .cls-1, .cls-2 {
        stroke-width: 0px;
      }

      .cls-2 {
        fill: #fff;
      }
    </style>
  </defs>
  <g id="Outline">
    <g>
      <rect class="cls-1" width="111" height="110.81"/>
      <g>
        <path class="cls-2" d="m10.13,29.33c-.89-1.11-1.33-2.69-1.33-4.73v-.73h4.02v.7c.02,1.08.15,1.86.39,2.33.24.47.69.71,1.33.71s1.07-.24,1.29-.72c.22-.48.33-1.26.33-2.34s-.17-1.97-.5-2.52c-.33-.55-.94-.83-1.83-.85-.05-.01-.3-.02-.73-.02v-2.95h.65c.9,0,1.53-.24,1.88-.73.35-.49.52-1.29.52-2.4,0-.91-.13-1.58-.38-2.01-.25-.44-.7-.65-1.34-.65s-1.03.24-1.26.7c-.23.47-.35,1.17-.37,2.09v.94h-4.02v-1.15c0-1.85.49-3.27,1.48-4.29s2.37-1.52,4.17-1.52,3.24.49,4.23,1.46c.99.98,1.49,2.38,1.49,4.21,0,1.22-.25,2.24-.76,3.07-.5.83-1.15,1.35-1.93,1.55,1.79.66,2.69,2.33,2.69,4.99,0,2.04-.45,3.63-1.36,4.79-.91,1.16-2.34,1.74-4.31,1.74s-3.47-.56-4.36-1.67"/>
        <path class="cls-2" d="m31.25,17.64c-1.43,0-2.17-.82-2.25-2.47l1.28-.27c.03,1.07.34,1.6.92,1.6.23,0,.39-.07.5-.2.11-.14.16-.32.16-.55s-.04-.43-.12-.62c-.08-.18-.18-.34-.28-.46-.11-.12-.26-.26-.46-.44l-1.06-.92c-.31-.27-.55-.56-.7-.85-.15-.3-.23-.66-.23-1.11,0-.63.18-1.11.55-1.46.37-.35.88-.53,1.52-.53.3,0,.56.03.78.11.23.08.42.18.56.31.15.13.27.29.37.48.1.19.17.39.22.6.05.21.08.44.1.69l-1.26.25c0-.17-.02-.3-.03-.42-.01-.12-.04-.24-.08-.37-.04-.12-.08-.22-.14-.3-.06-.08-.13-.14-.23-.18-.1-.05-.21-.07-.33-.05-.22.02-.39.09-.5.22-.12.13-.17.31-.17.53,0,.26.05.47.15.64.1.17.26.35.48.54l1.06.92c.18.16.33.31.46.46.13.15.25.32.37.51.12.19.21.4.27.64.06.23.09.47.09.73,0,.59-.19,1.07-.56,1.43-.37.37-.86.55-1.46.55"/>
      </g>
      <path class="cls-2" d="m35.54,14.7h1.08l-.54-3.32-.54,3.32Zm-1.88,2.84l1.64-8.09h1.54l1.64,8.09h-1.37l-.33-1.88h-1.4l-.33,1.88h-1.39Z"/>
      <polygon class="cls-2" points="39.23 17.54 39.23 9.46 40.7 9.46 40.7 16.53 42.64 16.53 42.64 17.54 39.23 17.54"/>
      <g>
        <path class="cls-2" d="m45.59,17.64c-.36,0-.68-.04-.94-.13-.26-.08-.48-.2-.65-.36-.17-.15-.31-.35-.41-.59-.1-.24-.17-.5-.22-.77-.04-.28-.06-.6-.06-.97v-5.37h1.43v5.52c0,.19,0,.35.01.48.01.13.03.27.07.42.03.14.08.26.14.35.06.09.14.16.25.22.1.06.23.09.38.09s.28-.03.38-.09c.1-.06.19-.13.24-.22.06-.09.1-.2.13-.35.03-.15.05-.29.07-.42,0-.13.01-.29.01-.49v-5.52h1.43v5.37c0,.37-.02.69-.06.97-.04.28-.11.54-.21.77-.1.24-.24.44-.41.59-.17.15-.39.27-.65.36-.26.08-.58.13-.93.13"/>
        <path class="cls-2" d="m50.42,16.51h.42c.15,0,.28-.01.39-.04.11-.03.2-.06.28-.09.07-.04.14-.1.19-.18.05-.08.09-.15.12-.23.02-.07.04-.17.06-.31.01-.14.02-.26.02-.35,0-.1,0-.24,0-.43v-2.96c0-.19,0-.35-.01-.46,0-.12-.02-.24-.05-.36-.02-.12-.06-.21-.11-.27-.05-.07-.11-.13-.19-.18-.08-.05-.18-.09-.29-.11-.12-.02-.26-.03-.42-.03h-.4v6Zm-1.47,1.03v-8.09h1.88c.49,0,.9.05,1.23.15.33.1.59.25.79.46.2.21.34.47.42.78.08.31.12.69.12,1.13v2.92c0,.46-.04.85-.13,1.17-.09.32-.22.6-.42.82-.19.22-.45.39-.77.49-.32.1-.72.16-1.19.16h-1.94Z"/>
      </g>
      <polygon class="cls-2" points="30.34 30.76 30.34 27.68 28.7 22.68 30.07 22.68 31.07 25.9 32.03 22.68 33.39 22.68 31.75 27.68 31.75 30.76 30.34 30.76"/>
      <path class="cls-2" d="m37.9,29.73h.54c.44,0,.74-.1.91-.31.17-.21.25-.54.25-1.02s-.09-.84-.28-1.06c-.19-.22-.51-.33-.96-.33h-.46v2.71Zm0-3.75h.46c.43,0,.73-.09.89-.28.16-.19.24-.5.24-.93,0-.23-.03-.42-.08-.56-.05-.14-.15-.25-.27-.32-.13-.07-.27-.12-.42-.14-.15-.02-.36-.04-.61-.04h-.21v2.26Zm-1.47,4.79v-8.09h1.98c.37,0,.7.03.98.1.28.07.52.18.74.33.22.16.38.37.49.64.11.27.17.6.16.99,0,1-.4,1.56-1.19,1.67.48.09.84.3,1.07.63.24.33.36.79.36,1.38,0,.77-.19,1.35-.58,1.75-.39.4-.95.6-1.69.6h-2.32Z"/>
      <rect class="cls-2" x="41.97" y="22.68" width="1.45" height="8.09"/>
      <polygon class="cls-2" points="44.62 30.76 44.62 22.68 48 22.68 48 23.72 46.09 23.72 46.09 26.04 47.6 26.04 47.6 27.08 46.09 27.08 46.09 29.74 48.03 29.74 48.03 30.76 44.62 30.76"/>
      <polygon class="cls-2" points="48.83 30.76 48.83 22.68 49.84 22.68 51.82 27.26 51.82 22.68 53.04 22.68 53.04 30.76 52.08 30.76 50.08 25.95 50.08 30.76 48.83 30.76"/>
      <polygon class="cls-2" points="54.2 30.76 54.2 22.68 57.59 22.68 57.59 23.72 55.68 23.72 55.68 26.04 57.19 26.04 57.19 27.08 55.68 27.08 55.68 29.74 57.61 29.74 57.61 30.76 54.2 30.76"/>
      <path class="cls-2" d="m60.45,30.86c-1.43,0-2.17-.82-2.24-2.47l1.28-.27c.03,1.07.34,1.61.92,1.61.23,0,.39-.07.5-.2.11-.14.16-.32.16-.55s-.04-.43-.12-.62c-.08-.18-.17-.34-.28-.46-.11-.12-.26-.26-.46-.44l-1.06-.92c-.31-.27-.54-.56-.7-.85-.15-.3-.23-.66-.23-1.11,0-.62.18-1.11.55-1.46.37-.35.88-.52,1.52-.53.3,0,.56.03.78.11.23.08.42.18.56.31.15.13.27.29.37.48.1.19.17.39.22.6.05.21.08.44.1.69l-1.26.25c0-.16-.01-.3-.03-.42-.01-.12-.04-.24-.08-.37-.04-.12-.08-.22-.14-.3-.06-.08-.13-.14-.23-.18-.09-.05-.21-.06-.33-.05-.22.01-.39.09-.5.22-.12.13-.17.31-.17.53,0,.26.05.48.15.64.1.17.26.35.48.54l1.05.92c.17.16.33.32.46.46.13.15.25.32.37.51.12.19.21.4.27.64.06.23.09.48.09.73,0,.59-.19,1.07-.56,1.43-.37.37-.86.55-1.46.55"/>
      <polygon class="cls-2" points="64.08 30.76 64.08 23.76 62.72 23.76 62.72 22.68 66.86 22.68 66.86 23.76 65.55 23.76 65.55 30.76 64.08 30.76"/>
      <path class="cls-2" d="m68.88,27.92h1.08l-.54-3.32-.54,3.32Zm-1.88,2.84l1.64-8.09h1.54l1.64,8.09h-1.37l-.33-1.88h-1.4l-.33,1.88h-1.39Z"/>
      <g>
        <path class="cls-2" d="m74.04,26.13h.35c.44,0,.75-.09.93-.28.18-.18.28-.5.28-.95s-.08-.74-.24-.93c-.16-.19-.45-.28-.88-.28h-.44v2.44Zm-1.47,4.63v-8.09h1.85c.43,0,.79.03,1.1.1.31.07.57.19.8.35.23.17.4.39.51.67.11.28.17.63.17,1.03,0,.51-.08.92-.23,1.25-.15.32-.4.55-.75.7l1.12,3.98h-1.48l-.97-3.69h-.65v3.69h-1.47Z"/>
        <path class="cls-2" d="m92.95,69.25c0-3.14-2.01-5.68-5.06-5.68-1.53,0-3.36,1.67-4.36,2.7-1-1.03-2.72-2.7-4.24-2.7-3.05,0-5.19,2.55-5.19,5.68,0,1.57.62,2.99,1.62,4.02l7.81,7.83,7.81-7.82h0c1-1.03,1.62-2.46,1.62-4.03"/>
        <path class="cls-2" d="m59.68,93.88s-.05,0-.08,0c-.6-.04-1.09-.48-1.19-1.07l-3.97-23.12-6.02,11.15c-.26.49-.81.75-1.35.65-.55-.1-.97-.53-1.05-1.08l-2.56-17.85-4.67,10.49c-.21.46-.67.76-1.17.76h-18.15c-.71,0-1.29-.57-1.29-1.28s.58-1.28,1.29-1.28h17.32l6.14-13.8c.23-.52.78-.82,1.35-.75.57.08,1.01.52,1.09,1.09l2.63,18.4,5.93-11c.26-.48.8-.75,1.34-.66.54.09.97.51,1.06,1.05l3.68,21.42,13.4-44.51c.15-.51.6-.87,1.13-.91.53-.04,1.03.25,1.26.72l7.05,14.62c.31.64.04,1.41-.6,1.71-.64.31-1.41.04-1.72-.6l-5.62-11.65-14.02,46.57c-.17.55-.67.91-1.23.91"/>
      </g>
    </g>
  </g>
</svg>