<?xml version="1.0" encoding="UTF-8"?>
<svg id="Capa_2" data-name="Capa 2" xmlns="http://www.w3.org/2000/svg" viewBox="0 0 111 110.81">
  <defs>
    <style>
      .cls-1 {
        fill: #fff;
      }

      .cls-1, .cls-2 {
        stroke-width: 0px;
      }

      .cls-2 {
        fill: #e84139;
      }
    </style>
  </defs>
  <g id="Outline">
    <g>
      <rect class="cls-2" width="111" height="110.81"/>
      <path class="cls-1" d="m11.12,30.2c-.8-.51-1.35-1.24-1.65-2.18-.3-.94-.45-2.12-.45-3.53h3.92c0,1.22.11,2.1.34,2.65.23.55.67.82,1.33.82.52,0,.9-.17,1.15-.52.24-.35.39-.82.45-1.42.06-.6.09-1.47.09-2.6,0-1.29-.12-2.25-.35-2.89-.23-.64-.72-.95-1.45-.95-.94,0-1.54.63-1.8,1.91h-3.47l.29-12.02h9.75v3.48h-6.43l-.23,4.68c.24-.3.66-.54,1.25-.74.59-.2,1.23-.3,1.91-.3,1.44,0,2.53.58,3.26,1.75.73,1.17,1.1,2.8,1.1,4.91,0,1.67-.15,3.06-.45,4.17-.3,1.11-.86,1.98-1.69,2.61-.83.64-2.01.95-3.54.95-1.43,0-2.54-.26-3.35-.77"/>
      <rect class="cls-1" x="29.25" y="9.46" width="1.45" height="8.09"/>
      <g>
        <path class="cls-1" d="m33.92,17.65c-.76,0-1.32-.24-1.65-.72-.33-.48-.5-1.17-.5-2.09v-2.63c0-.47.04-.87.11-1.2.07-.34.19-.63.37-.88.17-.26.41-.44.71-.57.3-.13.67-.19,1.11-.19.8,0,1.37.2,1.72.59.35.39.52.99.52,1.78v.4h-1.41v-.42c0-.18,0-.33-.01-.44,0-.12-.03-.23-.06-.35-.03-.12-.08-.2-.14-.27-.06-.06-.14-.11-.24-.15-.1-.04-.23-.06-.37-.06-.11,0-.21.02-.29.04-.09.03-.16.06-.22.1-.06.04-.11.1-.15.17-.04.07-.07.15-.09.21-.02.07-.04.16-.05.27-.01.11-.02.21-.02.29,0,.09,0,.19,0,.33v3.26c0,.49.06.84.18,1.07.12.23.35.34.69.34.17,0,.32-.03.44-.1.12-.07.21-.17.28-.3.07-.14.11-.29.14-.46.03-.17.04-.38.04-.63v-.67h-.87v-.95h2.2v4.11h-.95l-.11-.82c-.24.62-.7.93-1.37.93"/>
        <path class="cls-1" d="m39.63,17.64c-.36,0-.67-.04-.94-.13-.27-.08-.48-.21-.65-.36-.17-.15-.31-.35-.41-.59-.1-.24-.17-.5-.22-.77-.04-.28-.06-.6-.06-.97v-5.37h1.43v5.52c0,.19,0,.35.02.48,0,.13.03.27.06.42.03.14.08.26.14.35.06.09.14.16.25.22.1.06.23.09.38.09s.28-.03.38-.09c.11-.06.19-.13.24-.22.06-.09.1-.2.14-.35.03-.15.06-.29.06-.42,0-.13.01-.3.01-.49v-5.52h1.43v5.37c0,.37-.02.69-.06.97-.04.28-.11.54-.21.77-.1.24-.24.44-.41.59-.17.15-.39.27-.65.36-.26.08-.58.13-.93.13"/>
      </g>
      <path class="cls-1" d="m44.46,14.7h1.08l-.54-3.32-.54,3.32Zm-1.88,2.84l1.64-8.09h1.54l1.64,8.09h-1.37l-.33-1.88h-1.4l-.33,1.88h-1.39Z"/>
      <polygon class="cls-1" points="48.15 17.54 48.15 9.46 49.62 9.46 49.62 16.52 51.55 16.52 51.55 17.54 48.15 17.54"/>
      <path class="cls-1" d="m53.76,16.51h.42c.15,0,.28-.01.39-.04.11-.03.2-.06.28-.09.08-.04.14-.1.19-.18.05-.08.09-.15.12-.23.03-.07.04-.17.06-.31.01-.14.02-.26.02-.35,0-.1,0-.24,0-.43v-2.96c0-.19,0-.35,0-.46,0-.12-.02-.24-.05-.36-.03-.12-.06-.21-.11-.27-.05-.07-.11-.13-.19-.18-.08-.05-.17-.09-.29-.11-.12-.02-.26-.03-.42-.03h-.4v6Zm-1.47,1.03v-8.09h1.88c.49,0,.9.05,1.23.15.33.1.59.25.79.46.2.21.34.47.42.78.08.31.12.69.12,1.13v2.92c0,.46-.04.85-.13,1.17-.08.32-.22.6-.42.82-.19.22-.45.39-.77.49-.32.1-.72.16-1.19.16h-1.94Z"/>
      <path class="cls-1" d="m59.11,14.7h1.08l-.54-3.32-.54,3.32Zm-1.88,2.84l1.65-8.09h1.54l1.64,8.09h-1.37l-.33-1.88h-1.4l-.33,1.88h-1.39Z"/>
      <g>
        <path class="cls-1" d="m64.27,16.51h.42c.15,0,.27-.01.39-.04.11-.03.2-.06.28-.09.07-.04.14-.1.19-.18.05-.08.09-.15.12-.23.03-.07.04-.17.06-.31.01-.14.02-.26.02-.35,0-.1,0-.24,0-.43v-2.96c0-.19,0-.35,0-.46,0-.12-.02-.24-.05-.36-.03-.12-.06-.21-.11-.27-.05-.07-.11-.13-.19-.18-.08-.05-.18-.09-.29-.11-.12-.02-.26-.03-.43-.03h-.4v6Zm-1.47,1.03v-8.09h1.88c.49,0,.9.05,1.22.15.33.1.59.25.79.46.2.21.34.47.42.78.08.31.13.69.13,1.13v2.92c0,.46-.04.85-.13,1.17-.08.32-.22.6-.42.82-.19.22-.45.39-.77.49-.32.1-.71.16-1.18.16h-1.94Z"/>
        <path class="cls-1" d="m30.68,29.73h.42c.15,0,.28-.01.39-.04.11-.03.2-.06.28-.09.08-.04.14-.09.19-.17.05-.08.09-.15.11-.23.03-.07.05-.17.06-.31.01-.14.02-.26.02-.35,0-.1,0-.24,0-.43v-2.96c0-.19,0-.35-.01-.46,0-.12-.02-.24-.05-.36-.02-.12-.06-.21-.11-.28-.05-.07-.11-.12-.19-.18-.08-.05-.17-.09-.29-.11-.12-.02-.26-.03-.42-.03h-.41v6Zm-1.47,1.03v-8.09h1.88c.49,0,.9.05,1.23.15.33.1.59.25.79.46.2.21.34.47.42.78.08.31.12.68.12,1.13v2.92c0,.46-.04.85-.13,1.17-.09.32-.23.6-.42.82-.19.22-.45.39-.77.5-.32.1-.72.16-1.18.16h-1.94Z"/>
      </g>
      <polygon class="cls-1" points="34.68 30.76 34.68 22.67 38.07 22.67 38.07 23.71 36.16 23.71 36.16 26.04 37.67 26.04 37.67 27.07 36.16 27.07 36.16 29.74 38.1 29.74 38.1 30.76 34.68 30.76"/>
      <path class="cls-1" d="m43.31,30.87c-.76,0-1.31-.24-1.65-.72-.34-.48-.51-1.17-.51-2.09v-2.63c0-.47.04-.87.11-1.2.07-.34.19-.63.37-.88.17-.26.41-.45.71-.57.3-.13.68-.19,1.11-.19.8,0,1.37.2,1.72.59.35.39.52.99.52,1.78v.39h-1.41v-.42c0-.18,0-.32-.01-.44,0-.11-.03-.23-.06-.35-.03-.11-.08-.2-.13-.26-.06-.06-.14-.11-.24-.15-.1-.04-.22-.06-.37-.06-.11,0-.21.01-.29.04-.09.03-.16.06-.22.1-.06.04-.11.1-.15.17-.04.07-.07.15-.09.22-.02.07-.04.16-.05.27-.01.11-.02.21-.02.29,0,.09,0,.19,0,.33v3.26c0,.49.06.85.18,1.07.12.23.35.34.69.34.17,0,.32-.03.44-.1.12-.07.21-.17.28-.3.06-.14.11-.29.14-.46.03-.17.04-.38.04-.63v-.67h-.87v-.95h2.2v4.11h-.96l-.11-.82c-.24.62-.7.93-1.37.93"/>
      <path class="cls-1" d="m48.12,21.99l.6-1.99h1.38l-1.2,1.99h-.78Zm-1.32,8.77v-8.09h3.39v1.04h-1.91v2.32h1.51v1.04h-1.51v2.67h1.94v1.02h-3.41Z"/>
      <polygon class="cls-1" points="51.01 30.76 51.01 22.67 52.03 22.67 54.01 27.26 54.01 22.67 55.23 22.67 55.23 30.76 54.26 30.76 52.26 25.95 52.26 30.76 51.01 30.76"/>
      <polygon class="cls-1" points="56.39 30.76 56.39 22.67 59.77 22.67 59.77 23.71 57.86 23.71 57.86 26.04 59.37 26.04 59.37 27.07 57.86 27.07 57.86 29.74 59.8 29.74 59.8 30.76 56.39 30.76"/>
      <g>
        <path class="cls-1" d="m62.07,26.13h.36c.44,0,.74-.09.93-.28.18-.18.27-.5.27-.95s-.08-.74-.24-.93c-.16-.19-.45-.28-.88-.28h-.44v2.44Zm-1.47,4.63v-8.09h1.85c.43,0,.79.03,1.1.1.31.07.57.19.8.35.23.17.39.39.51.67.11.28.17.63.17,1.03,0,.51-.08.92-.22,1.25-.15.32-.4.55-.75.7l1.12,3.98h-1.48l-.97-3.69h-.65v3.69h-1.47Z"/>
        <path class="cls-1" d="m67.92,29.7c.1.04.22.07.37.07s.26-.02.37-.07c.1-.04.18-.1.24-.17.06-.07.11-.16.14-.27.03-.11.06-.22.07-.33,0-.11.01-.24.01-.39v-3.67c0-.2,0-.36-.03-.49-.02-.13-.06-.25-.12-.37-.06-.12-.14-.2-.26-.26-.11-.06-.26-.09-.43-.09s-.32.03-.44.09c-.11.05-.2.14-.26.26-.06.11-.09.24-.11.37-.02.13-.03.29-.03.49v3.67c0,.15,0,.28.02.39.01.11.03.22.07.33.03.11.08.2.14.27.06.07.14.12.24.17m.37,1.16c-.83,0-1.43-.23-1.79-.68-.36-.45-.54-1.12-.54-1.99v-2.99c0-.43.04-.8.12-1.11.08-.32.21-.59.39-.82.18-.23.42-.4.72-.52.3-.11.67-.17,1.09-.17.83,0,1.42.22,1.79.67.36.45.54,1.1.54,1.96v2.99c0,.42-.04.79-.12,1.11-.08.32-.21.6-.4.83-.18.24-.42.41-.72.53-.3.12-.67.18-1.09.18"/>
        <path class="cls-1" d="m55.31,80.48c-7.37,0-13.36-5.99-13.36-13.36s5.99-13.36,13.36-13.36,13.36,5.99,13.36,13.36-5.99,13.36-13.36,13.36m25.66-38.73h-13.86c-.09,0-.17.08-.17.18v4.61c0,.1.08.18.17.18h5.52l-6.13,6.13c-3.08-2.42-6.97-3.87-11.19-3.87-10.01,0-18.15,8.14-18.15,18.15,0,9.21,6.9,16.84,15.81,17.99v5.31h-5.47c-.1,0-.18.08-.18.18v4.94c0,.1.08.18.18.18h5.47v5.22c0,.1.08.18.18.18h4.93c.1,0,.18-.08.18-.18v-5.22h5.47c.1,0,.17-.08.17-.18v-4.94c0-.1-.08-.18-.17-.18h-5.47v-5.39c8.61-1.41,15.21-8.9,15.21-17.91,0-3.88-1.23-7.49-3.31-10.44l6.04-6.04v5.16c0,.1.08.17.18.17h4.6c.1,0,.18-.08.18-.17v-13.86c0-.1-.08-.18-.18-.18"/>
        <path class="cls-1" d="m63.47,61.63h-16.21c-.1,0-.17.07-.17.16v3.92c0,.09.08.16.17.16h16.21c.1,0,.18-.07.18-.16v-3.92c0-.08-.08-.16-.18-.16"/>
        <path class="cls-1" d="m63.47,68.64h-16.21c-.1,0-.17.07-.17.16v3.92c0,.09.08.16.17.16h16.21c.1,0,.18-.07.18-.16v-3.92c0-.09-.08-.16-.18-.16"/>
      </g>
    </g>
  </g>
</svg>