<?xml version="1.0" encoding="UTF-8"?>
<svg id="Capa_2" data-name="Capa 2" xmlns="http://www.w3.org/2000/svg" viewBox="0 0 111 109.85">
  <defs>
    <style>
      .cls-1 {
        fill: #fff;
      }

      .cls-1, .cls-2 {
        stroke-width: 0px;
      }

      .cls-2 {
        fill: #fcc000;
      }
    </style>
  </defs>
  <g id="Outline">
    <g>
      <rect class="cls-2" width="111" height="109.85"/>
      <polygon class="cls-1" points="14.86 12.61 9.11 12.61 9.11 9.56 18.8 9.56 18.8 12.17 14.33 30.5 10.42 30.5 14.86 12.61"/>
      <polygon class="cls-1" points="27.82 17.55 27.82 9.54 31.21 9.54 31.21 10.57 29.3 10.57 29.3 12.87 30.81 12.87 30.81 13.9 29.3 13.9 29.3 16.54 31.23 16.54 31.23 17.55 27.82 17.55"/>
      <polygon class="cls-1" points="31.88 17.55 31.88 9.54 32.9 9.54 34.88 14.08 34.88 9.54 36.1 9.54 36.1 17.55 35.13 17.55 33.13 12.78 33.13 17.55 31.88 17.55"/>
      <polygon class="cls-1" points="37.11 17.55 37.11 9.54 40.49 9.54 40.49 10.57 38.58 10.57 38.58 12.87 40.09 12.87 40.09 13.9 38.58 13.9 38.58 16.54 40.52 16.54 40.52 17.55 37.11 17.55"/>
      <g>
        <path class="cls-1" d="m42.64,12.96h.36c.44,0,.74-.09.93-.28.18-.18.27-.49.27-.94s-.08-.74-.24-.92c-.16-.19-.45-.28-.88-.28h-.44v2.41Zm-1.47,4.59v-8h1.85c.43,0,.79.04,1.1.1s.57.18.8.35c.22.16.39.38.51.66.11.28.17.62.17,1.02,0,.5-.08.91-.23,1.23-.15.32-.4.55-.75.7l1.12,3.94h-1.48l-.97-3.65h-.65v3.65h-1.47Z"/>
        <path class="cls-1" d="m48.53,17.65c-.76,0-1.32-.24-1.65-.71-.34-.47-.5-1.16-.5-2.07v-2.61c0-.46.03-.86.11-1.19.07-.33.19-.62.37-.87.17-.25.41-.44.71-.57.31-.12.68-.19,1.12-.19.8,0,1.37.19,1.72.58.35.39.52.98.52,1.76v.39h-1.41v-.41c0-.18,0-.32-.01-.43,0-.11-.03-.22-.06-.34-.03-.11-.08-.2-.13-.26-.06-.06-.14-.11-.24-.15-.1-.04-.23-.06-.37-.06-.11,0-.21.01-.3.04-.08.03-.16.06-.22.1-.06.04-.11.1-.15.17-.04.07-.07.15-.09.21-.02.07-.04.16-.05.27-.01.11-.02.21-.02.29,0,.09,0,.19,0,.33v3.23c0,.49.06.84.18,1.06.12.22.35.34.69.34.17,0,.32-.03.44-.1.12-.07.21-.17.28-.3.06-.14.11-.29.14-.46.03-.17.04-.38.04-.62v-.66h-.87v-.94h2.2v4.07h-.96l-.11-.81c-.24.61-.7.92-1.37.92"/>
      </g>
      <path class="cls-1" d="m52.26,8.86l.6-1.98h1.38l-1.2,1.98h-.78Zm-.34.68h1.45v8h-1.45v-8Z"/>
      <path class="cls-1" d="m55.88,14.74h1.08l-.54-3.29-.54,3.29Zm-1.88,2.81l1.64-8h1.54l1.64,8h-1.37l-.33-1.86h-1.4l-.33,1.86h-1.39Z"/>
      <path class="cls-1" d="m63.11,14.74h1.08l-.54-3.29-.54,3.29Zm-1.88,2.81l1.64-8h1.54l1.64,8h-1.37l-.33-1.86h-1.4l-.33,1.86h-1.39Z"/>
      <path class="cls-1" d="m68.69,17.64c-1.43,0-2.17-.81-2.25-2.44l1.28-.26c.03,1.06.34,1.59.92,1.59.22,0,.39-.07.5-.2.11-.14.16-.32.16-.55s-.04-.43-.12-.61c-.08-.19-.17-.34-.28-.45-.11-.12-.26-.26-.46-.44l-1.06-.91c-.31-.27-.54-.55-.7-.84-.15-.29-.23-.66-.23-1.09,0-.62.18-1.1.55-1.45.37-.35.88-.52,1.52-.53.3,0,.56.03.78.11.23.07.42.17.56.3s.27.29.37.47c.1.19.17.39.22.59.05.2.08.43.1.68l-1.26.25c0-.16-.01-.3-.03-.42-.01-.12-.04-.24-.07-.36-.04-.12-.08-.22-.14-.3-.06-.08-.13-.13-.23-.18-.09-.05-.21-.06-.33-.05-.22.01-.39.09-.5.21-.12.13-.17.31-.17.53,0,.26.05.47.15.63.1.17.26.34.48.53l1.05.91c.18.16.33.31.46.46.13.15.25.32.37.51.12.19.21.4.27.63.06.23.09.47.09.72,0,.58-.19,1.06-.56,1.42-.37.36-.86.55-1.46.55"/>
      <polygon class="cls-1" points="71.38 17.55 71.38 9.54 74.76 9.54 74.76 10.57 72.85 10.57 72.85 12.87 74.36 12.87 74.36 13.9 72.85 13.9 72.85 16.54 74.79 16.54 74.79 17.55 71.38 17.55"/>
      <g>
        <path class="cls-1" d="m77.27,16.5c.1.04.23.06.37.06s.26-.02.37-.06c.1-.04.18-.1.24-.17.06-.07.11-.16.14-.27.03-.11.06-.22.07-.33.01-.11.02-.24.02-.39v-3.64c0-.19,0-.35-.03-.48-.02-.13-.06-.25-.12-.36-.06-.11-.14-.2-.25-.25-.11-.06-.26-.08-.43-.08s-.32.03-.44.08c-.11.06-.2.14-.26.25-.05.11-.09.24-.11.36-.02.13-.03.29-.03.48v3.64c0,.15,0,.28.02.39.01.11.03.22.07.33.03.11.08.2.14.27.06.07.14.12.24.17m2.09,2.65c-.24-.11-.51-.32-.81-.61-.29-.29-.54-.59-.75-.9-.03,0-.09,0-.16,0-.83,0-1.43-.22-1.79-.67-.36-.45-.54-1.1-.54-1.96v-2.96c0-.43.04-.8.12-1.11.08-.31.21-.58.39-.81.18-.23.42-.4.72-.51.31-.11.67-.17,1.09-.17.83,0,1.42.22,1.79.66.36.44.54,1.09.54,1.94v2.96c0,1.24-.37,2.04-1.12,2.4.32.38.58.63.79.75l-.27.99Z"/>
        <path class="cls-1" d="m83.06,17.64c-.36,0-.67-.04-.94-.12-.26-.08-.48-.2-.65-.35-.17-.15-.31-.35-.41-.58-.1-.24-.17-.49-.21-.77-.04-.28-.06-.6-.06-.96v-5.32h1.43v5.47c0,.18,0,.35.02.48,0,.13.03.27.06.41.03.15.08.26.14.35.06.09.14.16.25.22.1.06.23.09.38.09s.28-.03.38-.09c.11-.06.19-.13.24-.22.06-.09.1-.2.14-.35.03-.15.05-.28.06-.41,0-.13.01-.29.01-.48v-5.47h1.43v5.32c0,.36-.02.68-.06.96-.04.27-.11.53-.21.77-.1.24-.24.43-.41.58-.17.15-.39.27-.65.35-.26.08-.58.12-.93.12"/>
      </g>
      <rect class="cls-1" x="86.32" y="9.54" width="1.45" height="8"/>
      <path class="cls-1" d="m90.29,16.52h.54c.44,0,.74-.1.91-.3.17-.2.25-.54.25-1s-.09-.83-.28-1.05c-.19-.22-.51-.33-.96-.33h-.46v2.68Zm0-3.71h.46c.43,0,.73-.09.9-.28s.24-.49.24-.93c0-.22-.03-.41-.08-.55-.05-.14-.14-.25-.27-.32-.13-.07-.27-.12-.42-.14-.15-.02-.36-.03-.62-.03h-.2v2.24Zm-1.47,4.74v-8h1.98c.38,0,.7.03.98.1.28.07.52.18.74.33.22.15.38.36.49.64.11.27.17.6.16.98,0,.99-.4,1.54-1.19,1.65.48.09.84.3,1.07.62.24.32.35.78.36,1.36,0,.76-.19,1.34-.58,1.73-.39.39-.95.59-1.69.59h-2.32Z"/>
      <polygon class="cls-1" points="94.17 17.55 94.17 9.54 95.64 9.54 95.64 16.54 97.58 16.54 97.58 17.55 94.17 17.55"/>
      <polygon class="cls-1" points="98.16 17.55 98.16 9.54 101.54 9.54 101.54 10.57 99.63 10.57 99.63 12.87 101.14 12.87 101.14 13.9 99.63 13.9 99.63 16.54 101.57 16.54 101.57 17.55 98.16 17.55"/>
      <polygon class="cls-1" points="28.96 30.63 28.96 27.58 27.31 22.63 28.69 22.63 29.69 25.81 30.64 22.63 32 22.63 30.36 27.58 30.36 30.63 28.96 30.63"/>
      <polygon class="cls-1" points="34.75 30.63 34.75 22.63 35.76 22.63 37.74 27.16 37.74 22.63 38.96 22.63 38.96 30.63 37.99 30.63 36 25.87 36 30.63 34.75 30.63"/>
      <g>
        <path class="cls-1" d="m41.8,29.58c.1.04.22.06.37.06s.26-.02.37-.06c.1-.04.18-.1.24-.17.06-.07.11-.16.14-.27.03-.11.06-.22.07-.33.01-.11.02-.24.02-.39v-3.64c0-.19,0-.35-.03-.48-.02-.13-.06-.25-.11-.36-.06-.11-.14-.2-.26-.25-.11-.06-.26-.08-.43-.08s-.32.03-.44.08c-.11.06-.2.14-.26.25-.06.11-.09.24-.11.36-.02.13-.03.29-.03.48v3.64c0,.15,0,.28.02.39.01.11.04.22.07.33.03.11.08.2.14.27.06.07.14.12.24.17m.37,1.14c-.83,0-1.43-.22-1.79-.67-.36-.45-.54-1.1-.54-1.96v-2.96c0-.43.04-.79.12-1.1.08-.31.21-.58.39-.81.18-.23.42-.4.72-.51.31-.11.67-.17,1.09-.17.83,0,1.42.22,1.79.66.36.44.55,1.09.55,1.94v2.96c0,.42-.04.79-.12,1.1-.08.32-.21.59-.4.83-.18.23-.42.41-.72.53-.3.12-.67.18-1.09.18"/>
        <path class="cls-1" d="m49.79,30.73c-.35,0-.65-.04-.92-.13-.27-.09-.49-.21-.66-.36-.17-.16-.32-.35-.42-.57-.11-.23-.19-.47-.23-.74-.04-.26-.06-.56-.06-.89v-2.79c0-.35.02-.66.07-.93.05-.27.12-.52.23-.75.11-.23.25-.42.42-.57.17-.15.39-.26.66-.35.27-.08.57-.12.92-.12.4,0,.75.05,1.03.16.29.11.51.26.68.47.17.2.29.45.36.72.08.28.11.6.11.96v.69h-1.42v-.68c0-.4-.02-.67-.06-.81-.08-.27-.29-.42-.62-.43h-.08c-.12,0-.23.01-.33.04-.09.03-.17.08-.23.14-.06.06-.1.13-.14.2-.04.07-.06.16-.08.28-.02.11-.03.22-.03.32,0,.1,0,.22,0,.36v3.39c0,.47.06.8.18,1,.12.2.33.3.64.3.1,0,.19-.01.27-.04.08-.03.15-.06.2-.09.05-.04.1-.09.14-.16.04-.07.06-.13.08-.19.02-.06.03-.14.04-.25,0-.11.02-.19.02-.27,0-.08,0-.18,0-.31v-.71h1.42v.66c0,.3-.02.57-.06.81-.04.24-.11.46-.22.67-.1.21-.24.38-.4.52-.16.14-.37.25-.62.32-.26.08-.55.12-.88.12"/>
        <path class="cls-1" d="m54.63,29.58c.1.04.22.06.37.06s.26-.02.37-.06c.1-.04.18-.1.24-.17.06-.07.1-.16.14-.27.03-.11.06-.22.07-.33.01-.11.02-.24.02-.39v-3.64c0-.19,0-.35-.03-.48-.02-.13-.06-.25-.11-.36-.06-.11-.14-.2-.26-.25-.11-.06-.26-.08-.43-.08s-.32.03-.44.08c-.11.06-.2.14-.26.25-.06.11-.1.24-.11.36-.02.13-.03.29-.03.48v3.64c0,.15,0,.28.01.39.01.11.03.22.07.33.03.11.08.2.14.27.06.07.14.12.24.17m.37,1.14c-.83,0-1.43-.22-1.79-.67-.36-.45-.54-1.1-.54-1.96v-2.96c0-.43.04-.79.12-1.1.08-.31.21-.58.39-.81.18-.23.42-.4.72-.51.3-.11.67-.17,1.09-.17.83,0,1.42.22,1.79.66.36.44.54,1.09.54,1.94v2.96c0,.42-.04.79-.12,1.1-.08.32-.21.59-.4.83-.18.23-.42.41-.72.53-.3.12-.67.18-1.09.18"/>
      </g>
      <polygon class="cls-1" points="58.21 30.63 58.21 22.63 59.22 22.63 61.2 27.16 61.2 22.63 62.42 22.63 62.42 30.63 61.45 30.63 59.46 25.87 59.46 30.63 58.21 30.63"/>
      <polygon class="cls-1" points="64.22 30.63 64.22 23.7 62.86 23.7 62.86 22.63 67.01 22.63 67.01 23.7 65.69 23.7 65.69 30.63 64.22 30.63"/>
      <path class="cls-1" d="m68.87,27.82h1.08l-.54-3.29-.54,3.29Zm-1.88,2.81l1.64-8h1.54l1.64,8h-1.37l-.33-1.86h-1.4l-.33,1.86h-1.39Z"/>
      <polygon class="cls-1" points="72.39 30.63 72.52 22.63 74.04 22.63 75.21 28.25 76.41 22.63 77.89 22.63 78.03 30.63 76.92 30.63 76.82 25.12 75.65 30.63 74.79 30.63 73.61 25.1 73.52 30.63 72.39 30.63"/>
      <rect class="cls-1" x="79.07" y="22.62" width="1.45" height="8"/>
      <polygon class="cls-1" points="81.56 30.63 81.56 22.63 82.58 22.63 84.56 27.16 84.56 22.63 85.78 22.63 85.78 30.63 84.81 30.63 82.81 25.87 82.81 30.63 81.56 30.63"/>
      <path class="cls-1" d="m88.25,27.82h1.08l-.54-3.29-.54,3.29Zm-1.88,2.81l1.65-8h1.54l1.64,8h-1.37l-.33-1.86h-1.4l-.33,1.86h-1.39Z"/>
      <polygon class="cls-1" points="91.78 30.63 91.78 22.63 92.8 22.63 94.78 27.16 94.78 22.63 96 22.63 96 30.63 95.03 30.63 93.03 25.87 93.03 30.63 91.78 30.63"/>
      <polygon class="cls-1" points="97.8 30.63 97.8 23.7 96.44 23.7 96.44 22.63 100.58 22.63 100.58 23.7 99.27 23.7 99.27 30.63 97.8 30.63"/>
      <polygon class="cls-1" points="101.03 30.63 101.03 22.63 104.42 22.63 104.42 23.65 102.5 23.65 102.5 25.95 104.01 25.95 104.01 26.98 102.5 26.98 102.5 29.62 104.44 29.62 104.44 30.63 101.03 30.63"/>
      <g>
        <path class="cls-1" d="m55.54,80.9c-4,0-7.24-3.21-7.24-7.17,0-3.22,2.14-5.94,5.09-6.84v2.67c-1.54.78-2.59,2.35-2.59,4.18,0,2.59,2.12,4.69,4.74,4.69s4.74-2.1,4.74-4.69c0-1.83-1.06-3.41-2.6-4.18v-2.67c2.95.9,5.1,3.63,5.1,6.85,0,3.96-3.24,7.17-7.24,7.17m-1.03-15.4c0-.46.47-.96,1.04-.96s1.03.51,1.03.96v4.73c0,.46-.46.95-1.03.95s-1.04-.5-1.04-.95v-4.73Zm1.03-5.44c-7.69,0-13.92,6.17-13.92,13.78s6.23,13.78,13.92,13.78,13.92-6.17,13.92-13.78-6.23-13.78-13.92-13.78"/>
        <path class="cls-1" d="m39.56,73.72c0-.62-.56-1.13-1.07-1.13h-6.1c-.52,0-1.08.51-1.08,1.13s.56,1.14,1.08,1.14h6.1c.51,0,1.07-.51,1.07-1.14"/>
        <path class="cls-1" d="m79.78,73.72c0-.62-.56-1.13-1.07-1.13h-6.1c-.51,0-1.08.51-1.08,1.13s.56,1.14,1.08,1.14h6.1c.51,0,1.07-.51,1.07-1.14"/>
        <path class="cls-1" d="m55.55,97.71c.63,0,1.14-.55,1.14-1.06v-6.03c0-.51-.51-1.07-1.14-1.07s-1.15.56-1.15,1.07v6.03c0,.51.52,1.06,1.15,1.06"/>
        <path class="cls-1" d="m76.58,85.63c.31-.54.08-1.26-.36-1.51l-5.29-3c-.45-.26-1.19-.09-1.5.45-.32.54-.08,1.26.37,1.52l5.29,3c.44.25,1.18.08,1.5-.46"/>
        <path class="cls-1" d="m43.51,94.54c.55.31,1.27.08,1.52-.36l3.03-5.24c.26-.44.09-1.18-.45-1.49-.55-.31-1.27-.08-1.53.36l-3.03,5.24c-.25.44-.08,1.17.47,1.48"/>
        <path class="cls-1" d="m67.63,94.51c.55-.31.71-1.04.46-1.48l-3.04-5.23c-.26-.44-.98-.67-1.53-.36-.55.31-.71,1.05-.45,1.49l3.04,5.23c.26.44.98.66,1.53.35"/>
        <path class="cls-1" d="m34.54,85.68c.31.54,1.05.7,1.5.45l5.29-3.01c.45-.25.68-.97.36-1.51-.31-.54-1.06-.71-1.51-.45l-5.29,3.01c-.44.25-.67.97-.35,1.51"/>
        <path class="cls-1" d="m55.55,57.9c.63,0,1.14-.55,1.14-1.06v-6.03c0-.51-.51-1.07-1.14-1.07s-1.15.56-1.15,1.07v6.03c0,.5.52,1.06,1.15,1.06"/>
        <path class="cls-1" d="m41.67,65.86c.31-.54.08-1.26-.36-1.51l-5.29-3c-.44-.25-1.19-.09-1.5.45-.31.54-.08,1.26.37,1.52l5.29,3c.44.25,1.18.08,1.5-.46"/>
        <path class="cls-1" d="m63.49,60c.55.31,1.27.08,1.52-.36l3.03-5.24c.26-.44.09-1.18-.45-1.49-.55-.31-1.28-.08-1.53.36l-3.03,5.24c-.26.44-.09,1.17.46,1.48"/>
        <path class="cls-1" d="m47.58,60.01c.55-.31.71-1.04.46-1.48l-3.04-5.23c-.26-.44-.98-.67-1.53-.36-.55.31-.71,1.05-.46,1.49l3.04,5.23c.26.44.98.66,1.53.35"/>
        <path class="cls-1" d="m69.4,65.84c.31.54,1.05.7,1.5.45l5.29-3.01c.45-.26.68-.97.37-1.51-.31-.54-1.06-.7-1.51-.45l-5.29,3.01c-.44.25-.67.97-.36,1.51"/>
      </g>
    </g>
  </g>
</svg>