<?xml version="1.0" encoding="UTF-8"?>
<svg id="Capa_2" data-name="Capa 2" xmlns="http://www.w3.org/2000/svg" viewBox="0 0 111 111">
  <defs>
    <style>
      .cls-1 {
        fill: #af2b44;
      }

      .cls-1, .cls-2 {
        stroke-width: 0px;
      }

      .cls-2 {
        fill: #fff;
      }
    </style>
  </defs>
  <g id="Outline">
    <g>
      <rect class="cls-1" width="111" height="111"/>
      <path class="cls-2" d="m15.85,14.91c0-.77-.12-1.37-.37-1.82-.24-.45-.62-.67-1.12-.67s-.89.22-1.15.67c-.26.45-.39,1.05-.39,1.82,0,2.18.51,3.27,1.54,3.27s1.49-1.09,1.49-3.27m-.12,12.29c.24-.62.35-1.4.35-2.34,0-1.05-.12-1.87-.35-2.48-.23-.61-.69-.91-1.37-.91s-1.14.31-1.37.93c-.23.62-.35,1.44-.35,2.47,0,.94.12,1.72.35,2.34.24.62.69.93,1.37.93s1.14-.31,1.37-.93m-7.04-2.5c0-1.18.21-2.21.63-3.08.42-.87,1.03-1.52,1.85-1.93-.64-.47-1.17-1.1-1.57-1.89-.4-.79-.6-1.76-.6-2.89,0-1.74.46-3.1,1.39-4.06.92-.97,2.24-1.45,3.97-1.45s3.04.48,3.95,1.44c.9.96,1.36,2.29,1.36,4,0,1.19-.19,2.18-.57,2.98-.38.8-.9,1.43-1.54,1.88.82.42,1.44,1.08,1.85,1.99.42.9.63,1.98.63,3.21,0,1.97-.45,3.5-1.36,4.6-.9,1.1-2.34,1.65-4.31,1.65-3.78,0-5.67-2.14-5.67-6.43"/>
      <polygon class="cls-2" points="28.77 17.73 28.77 10.73 27.41 10.73 27.41 9.64 31.55 9.64 31.55 10.73 30.24 10.73 30.24 17.73 28.77 17.73"/>
      <path class="cls-2" d="m33.41,13.09h.36c.44,0,.74-.09.93-.28.18-.19.28-.5.28-.95s-.08-.74-.24-.93c-.16-.19-.45-.28-.88-.28h-.44v2.44Zm-1.47,4.63v-8.09h1.86c.42,0,.79.04,1.1.11.31.07.57.18.8.35.23.16.4.39.51.67.11.28.17.62.17,1.03,0,.51-.08.92-.23,1.24-.15.32-.4.55-.75.7l1.12,3.98h-1.48l-.97-3.69h-.65v3.69h-1.47Z"/>
      <path class="cls-2" d="m38.68,14.89h1.08l-.54-3.32-.54,3.32Zm-1.88,2.84l1.65-8.09h1.54l1.64,8.09h-1.37l-.33-1.88h-1.4l-.33,1.88h-1.39Z"/>
      <path class="cls-2" d="m43.63,16.69h.54c.44,0,.74-.1.91-.31.17-.21.26-.54.26-1.01s-.1-.84-.29-1.06c-.19-.22-.51-.33-.96-.33h-.46v2.71Zm0-3.75h.46c.43,0,.73-.09.89-.28s.24-.5.24-.94c0-.23-.02-.41-.08-.55-.05-.14-.14-.25-.27-.32-.13-.07-.27-.12-.42-.14-.16-.02-.36-.04-.62-.04h-.21v2.26Zm-1.47,4.79v-8.09h1.98c.37,0,.7.03.98.1.28.07.53.18.74.33.22.15.38.37.49.64.11.27.16.6.16.99,0,1-.4,1.55-1.19,1.67.48.09.83.3,1.07.63.24.33.36.79.36,1.38,0,.77-.19,1.35-.58,1.75-.39.4-.95.6-1.69.6h-2.32Z"/>
      <path class="cls-2" d="m48.89,14.89h1.08l-.54-3.32-.54,3.32Zm-1.88,2.84l1.64-8.09h1.54l1.64,8.09h-1.37l-.33-1.88h-1.4l-.33,1.88h-1.39Z"/>
      <g>
        <path class="cls-2" d="m51.85,17.9v-1.03c.43,0,.72-.06.86-.2.14-.13.21-.41.21-.83v-6.21h1.47v6.24c0,.35-.04.65-.09.89-.06.24-.16.45-.29.62-.14.17-.33.3-.57.38-.24.08-.53.12-.89.12h-.71Z"/>
        <path class="cls-2" d="m57.19,16.67c.1.04.22.06.37.06s.26-.02.37-.06.18-.1.24-.17c.06-.07.11-.16.14-.27.03-.11.06-.22.07-.33.01-.11.02-.24.02-.39v-3.67c0-.19,0-.35-.03-.49-.02-.13-.06-.25-.12-.37-.06-.11-.14-.2-.26-.26-.11-.06-.26-.09-.43-.09s-.32.03-.44.09c-.11.06-.2.14-.26.26-.06.12-.09.24-.11.37-.02.13-.03.29-.03.49v3.67c0,.15,0,.28.02.39,0,.11.03.22.07.33.04.11.08.2.14.27.06.07.14.12.24.17m.37,1.16c-.83,0-1.43-.23-1.79-.68-.36-.45-.54-1.11-.54-1.98v-2.99c0-.43.04-.8.12-1.12.08-.32.21-.59.39-.82.18-.23.42-.4.73-.52.3-.11.67-.17,1.09-.17.83,0,1.42.22,1.79.67.36.45.54,1.1.54,1.96v2.99c0,.42-.04.79-.12,1.11-.08.32-.21.6-.39.83-.18.24-.42.41-.72.54-.3.12-.67.18-1.09.18"/>
        <path class="cls-2" d="m64.36,16.7h.42c.15,0,.28-.01.39-.04.11-.02.2-.06.28-.09.07-.03.14-.09.19-.17.05-.08.09-.16.11-.23.03-.07.05-.17.06-.31.01-.14.02-.25.02-.35,0-.1,0-.24,0-.43v-2.96c0-.19,0-.35-.01-.46,0-.12-.02-.24-.05-.35-.02-.12-.06-.21-.11-.28-.05-.06-.11-.13-.19-.18-.08-.05-.18-.09-.29-.11-.12-.02-.26-.03-.42-.03h-.4v6Zm-1.47,1.03v-8.09h1.88c.49,0,.9.05,1.23.15.33.1.59.26.79.46.2.21.34.47.42.78.08.31.12.68.12,1.13v2.92c0,.46-.04.85-.13,1.18-.09.32-.22.59-.42.82-.19.23-.45.39-.77.49-.32.11-.72.16-1.19.16h-1.94Z"/>
      </g>
      <polygon class="cls-2" points="68.16 17.73 68.16 9.64 71.54 9.64 71.54 10.68 69.63 10.68 69.63 13 71.14 13 71.14 14.04 69.63 14.04 69.63 16.71 71.57 16.71 71.57 17.73 68.16 17.73"/>
      <path class="cls-2" d="m74.33,17.83c-.35,0-.66-.04-.92-.13-.27-.09-.49-.21-.66-.37-.17-.16-.32-.35-.43-.58-.11-.23-.18-.48-.23-.74-.04-.27-.06-.56-.06-.9v-2.82c0-.35.02-.66.07-.93.04-.27.12-.52.23-.76.11-.23.25-.42.42-.58.17-.15.39-.27.66-.35s.57-.13.92-.13c.4,0,.75.05,1.03.16.29.11.51.26.68.47s.29.45.36.73c.07.28.11.6.11.98v.69h-1.42v-.69c0-.4-.02-.68-.06-.81-.08-.27-.29-.42-.62-.44h-.08c-.12,0-.23.01-.33.04-.09.03-.17.08-.22.14-.06.06-.1.13-.14.2-.03.07-.06.17-.08.28-.02.11-.03.22-.03.32,0,.09,0,.22,0,.37v3.43c0,.47.06.81.18,1.01.12.2.33.3.64.3.1,0,.2-.01.27-.04.08-.02.15-.06.2-.09.05-.04.1-.09.14-.16.04-.07.07-.13.08-.19.02-.06.03-.14.04-.25,0-.11.01-.2.02-.27,0-.08,0-.18,0-.31v-.72h1.42v.67c0,.3-.02.57-.06.81-.04.24-.12.47-.22.68-.1.21-.24.39-.4.53-.16.14-.37.25-.62.33-.25.08-.55.12-.88.12"/>
      <polygon class="cls-2" points="77.27 17.73 77.27 9.64 80.66 9.64 80.66 10.68 78.75 10.68 78.75 13 80.26 13 80.26 14.04 78.75 14.04 78.75 16.71 80.68 16.71 80.68 17.73 77.27 17.73"/>
      <polygon class="cls-2" points="81.27 17.73 81.27 9.64 82.29 9.64 84.27 14.22 84.27 9.64 85.49 9.64 85.49 17.73 84.52 17.73 82.52 12.92 82.52 17.73 81.27 17.73"/>
      <polygon class="cls-2" points="87.23 17.73 87.23 10.73 85.87 10.73 85.87 9.64 90.01 9.64 90.01 10.73 88.7 10.73 88.7 17.73 87.23 17.73"/>
      <polygon class="cls-2" points="90.4 17.73 90.4 9.64 93.78 9.64 93.78 10.68 91.87 10.68 91.87 13 93.38 13 93.38 14.04 91.87 14.04 91.87 16.71 93.81 16.71 93.81 17.73 90.4 17.73"/>
      <polygon class="cls-2" points="29.11 30.95 29.11 27.87 27.46 22.86 28.84 22.86 29.84 26.08 30.8 22.86 32.16 22.86 30.52 27.87 30.52 30.95 29.11 30.95"/>
      <g>
        <path class="cls-2" d="m36.95,31.05c-.35,0-.65-.04-.92-.13-.27-.09-.49-.21-.66-.37-.17-.16-.32-.35-.42-.58-.11-.23-.19-.48-.23-.74-.04-.27-.06-.56-.06-.9v-2.82c0-.35.02-.66.07-.93.05-.27.12-.52.23-.76.11-.23.25-.42.42-.57.17-.15.39-.27.66-.35.27-.08.57-.13.92-.13.4,0,.75.05,1.03.16.29.11.51.27.68.48.17.21.29.45.36.73.08.28.11.6.11.97v.69h-1.42v-.69c0-.4-.02-.68-.06-.81-.08-.27-.29-.42-.62-.44h-.08c-.12,0-.23.01-.33.04-.09.03-.17.08-.23.14-.06.06-.1.13-.14.2-.04.07-.06.16-.08.28-.02.11-.03.22-.03.32,0,.1,0,.22,0,.37v3.43c0,.47.06.81.18,1.01.12.2.33.3.64.3.1,0,.2-.01.27-.04.08-.02.15-.06.2-.09.05-.04.1-.09.14-.16.04-.07.06-.13.08-.19.02-.06.03-.14.04-.25,0-.11.02-.2.02-.27,0-.08,0-.18,0-.31v-.72h1.42v.66c0,.3-.02.57-.06.81-.04.24-.11.47-.22.68-.1.21-.23.39-.4.53-.16.14-.37.25-.62.33-.26.08-.55.12-.88.12"/>
        <path class="cls-2" d="m41.37,26.31h.36c.43,0,.75-.09.93-.28.18-.19.27-.5.27-.95s-.08-.74-.24-.93c-.16-.19-.45-.28-.88-.28h-.44v2.44Zm-1.47,4.63v-8.09h1.85c.43,0,.79.03,1.1.11.31.07.57.18.8.35.22.16.39.39.5.67.11.28.17.63.17,1.03,0,.51-.08.92-.23,1.24s-.4.55-.75.7l1.12,3.98h-1.48l-.97-3.69h-.65v3.69h-1.47Z"/>
      </g>
      <polygon class="cls-2" points="45.18 30.95 45.18 22.86 48.56 22.86 48.56 23.9 46.65 23.9 46.65 26.22 48.16 26.22 48.16 27.26 46.65 27.26 46.65 29.93 48.59 29.93 48.59 30.95 45.18 30.95"/>
      <path class="cls-2" d="m51.35,31.05c-.35,0-.66-.04-.92-.13-.27-.09-.49-.21-.66-.37-.17-.16-.32-.35-.43-.58-.11-.23-.18-.48-.23-.74-.04-.27-.06-.56-.06-.9v-2.82c0-.35.02-.66.07-.93.05-.27.12-.52.23-.76.11-.23.25-.42.42-.57.17-.15.39-.27.66-.35s.57-.13.92-.13c.4,0,.75.05,1.03.16.29.11.51.27.68.48.17.21.29.45.36.73.07.28.11.6.11.97v.69h-1.42v-.69c0-.4-.02-.68-.06-.81-.08-.27-.29-.42-.62-.44h-.08c-.12,0-.23.01-.32.04-.09.03-.17.08-.23.14-.06.06-.1.13-.14.2-.04.07-.06.16-.08.28-.02.11-.03.22-.03.32,0,.1,0,.22,0,.37v3.43c0,.47.06.81.18,1.01.12.2.33.3.64.3.1,0,.2-.01.27-.04.08-.02.15-.06.2-.09.05-.04.1-.09.14-.16.04-.07.07-.13.08-.19.02-.06.03-.14.04-.25,0-.11.01-.2.02-.27,0-.08,0-.18,0-.31v-.72h1.42v.66c0,.3-.02.57-.06.81-.04.24-.11.47-.22.68-.1.21-.24.39-.4.53-.16.14-.37.25-.62.33-.25.08-.55.12-.88.12"/>
      <rect class="cls-2" x="54.34" y="22.86" width="1.45" height="8.09"/>
      <polygon class="cls-2" points="56.76 30.95 56.89 22.86 58.4 22.86 59.57 28.54 60.78 22.86 62.26 22.86 62.39 30.95 61.28 30.95 61.18 25.38 60.02 30.95 59.16 30.95 57.97 25.36 57.89 30.95 56.76 30.95"/>
      <rect class="cls-2" x="63.37" y="22.86" width="1.45" height="8.09"/>
      <polygon class="cls-2" points="65.81 30.95 65.81 22.86 69.2 22.86 69.2 23.9 67.28 23.9 67.28 26.22 68.8 26.22 68.8 27.26 67.28 27.26 67.28 29.93 69.22 29.93 69.22 30.95 65.81 30.95"/>
      <polygon class="cls-2" points="69.81 30.95 69.81 22.86 70.82 22.86 72.81 27.44 72.81 22.86 74.03 22.86 74.03 30.95 73.06 30.95 71.06 26.14 71.06 30.95 69.81 30.95"/>
      <polygon class="cls-2" points="75.76 30.95 75.76 23.95 74.41 23.95 74.41 22.86 78.55 22.86 78.55 23.95 77.24 23.95 77.24 30.95 75.76 30.95"/>
      <path class="cls-2" d="m80.77,29.89c.1.04.23.06.37.06s.26-.02.37-.06c.1-.04.18-.1.24-.17.06-.07.11-.16.14-.27.03-.11.06-.22.07-.33.01-.11.02-.24.02-.4v-3.67c0-.2,0-.35-.03-.49-.02-.13-.06-.25-.11-.37-.06-.12-.14-.2-.26-.26-.11-.06-.26-.09-.43-.09s-.32.03-.44.09c-.11.06-.2.14-.26.26-.06.11-.09.24-.11.37-.02.13-.03.29-.03.49v3.67c0,.15,0,.28.02.4.01.11.03.22.07.33.03.11.08.2.14.27.06.07.14.12.24.17m.37,1.15c-.83,0-1.43-.22-1.79-.68-.36-.45-.54-1.11-.54-1.99v-2.99c0-.43.04-.8.12-1.11.08-.32.21-.59.39-.82.18-.23.42-.4.72-.52.3-.11.67-.17,1.09-.17.83,0,1.42.22,1.79.67.36.45.54,1.1.54,1.96v2.99c0,.42-.04.79-.12,1.11-.08.32-.21.6-.4.83-.18.24-.42.41-.72.53-.31.12-.67.18-1.09.18"/>
      <polygon class="cls-2" points="27.98 44.17 27.98 36.08 31.36 36.08 31.36 37.12 29.45 37.12 29.45 39.44 30.96 39.44 30.96 40.48 29.45 40.48 29.45 43.15 31.39 43.15 31.39 44.17 27.98 44.17"/>
      <g>
        <path class="cls-2" d="m34.15,44.27c-.35,0-.66-.04-.92-.13-.27-.09-.49-.21-.66-.36-.17-.16-.32-.35-.43-.58-.11-.23-.19-.48-.23-.74-.04-.27-.07-.56-.07-.9v-2.82c0-.35.02-.67.07-.93.04-.27.12-.52.23-.76.11-.23.25-.42.42-.57.17-.15.39-.27.66-.35.27-.08.57-.13.93-.13.4,0,.75.05,1.03.16.29.11.51.27.68.48.17.21.29.45.36.73.07.28.11.6.11.97v.69h-1.42v-.69c0-.4-.02-.68-.06-.81-.09-.27-.29-.42-.62-.44h-.08c-.12,0-.23.01-.32.04-.09.03-.17.07-.23.14-.06.06-.1.13-.14.2-.03.07-.06.16-.08.28-.02.11-.03.22-.04.32,0,.1,0,.22,0,.37v3.43c0,.47.06.81.18,1.01.12.2.33.3.63.3.1,0,.2-.01.28-.04.08-.02.15-.06.2-.09.05-.04.1-.09.14-.16.04-.07.07-.13.09-.19.02-.06.03-.14.04-.25,0-.11.01-.2.02-.27,0-.08,0-.18,0-.31v-.72h1.42v.67c0,.3-.02.57-.06.81-.04.24-.11.47-.22.68-.1.21-.24.39-.4.53-.16.14-.37.25-.62.33-.25.08-.55.12-.88.12"/>
        <path class="cls-2" d="m38.92,43.11c.1.04.22.06.37.06s.26-.02.37-.06c.1-.04.18-.1.24-.17.06-.07.11-.16.14-.27.03-.11.06-.22.07-.33.01-.11.02-.24.02-.4v-3.67c0-.2,0-.36-.03-.49-.02-.13-.06-.25-.11-.37-.06-.12-.14-.2-.26-.26-.11-.06-.26-.09-.43-.09s-.32.03-.44.09c-.11.06-.2.14-.26.26-.06.11-.1.24-.11.37-.02.13-.03.29-.03.49v3.67c0,.15,0,.28.02.4,0,.11.03.22.07.33.03.11.08.2.14.27.06.07.14.12.24.17m.37,1.15c-.83,0-1.43-.22-1.79-.68-.36-.45-.54-1.11-.54-1.99v-2.99c0-.43.04-.8.12-1.11.08-.32.21-.59.39-.82.18-.23.42-.4.72-.52.3-.11.67-.17,1.09-.17.83,0,1.42.22,1.79.67.36.44.54,1.1.54,1.96v2.99c0,.42-.04.79-.12,1.11-.08.32-.21.6-.4.83-.18.24-.42.41-.72.53-.3.12-.67.18-1.09.18"/>
      </g>
      <polygon class="cls-2" points="42.44 44.17 42.44 36.08 43.45 36.08 45.43 40.66 45.43 36.08 46.66 36.08 46.66 44.17 45.69 44.17 43.69 39.35 43.69 44.17 42.44 44.17"/>
      <path class="cls-2" d="m49.42,35.39l.6-2h1.38l-1.2,2h-.78Zm.02,7.72c.1.04.22.06.37.06s.26-.02.37-.06c.1-.04.18-.1.24-.17.06-.07.11-.16.14-.27.03-.11.06-.22.07-.33.01-.11.02-.24.02-.4v-3.67c0-.2-.01-.36-.03-.49-.02-.13-.06-.25-.12-.37-.06-.11-.14-.2-.25-.26-.12-.06-.26-.09-.44-.09s-.32.03-.44.09c-.11.05-.2.14-.25.26-.06.11-.09.24-.11.37-.02.13-.03.29-.03.49v3.67c0,.15,0,.28.02.4,0,.11.03.22.07.33.04.11.08.2.14.27.06.07.14.12.24.17m.37,1.15c-.83,0-1.43-.23-1.79-.68-.36-.45-.54-1.11-.54-1.99v-2.99c0-.43.04-.8.12-1.12.08-.31.22-.59.39-.82.18-.23.42-.4.73-.52.3-.11.67-.17,1.09-.17.83,0,1.43.22,1.79.67.36.45.54,1.1.54,1.96v2.99c0,.42-.04.79-.12,1.11-.08.32-.21.6-.39.84-.18.24-.42.41-.73.53-.3.12-.67.18-1.09.18"/>
      <polygon class="cls-2" points="52.94 44.17 53.07 36.08 54.59 36.08 55.76 41.76 56.96 36.08 58.44 36.08 58.58 44.17 57.46 44.17 57.37 38.6 56.2 44.17 55.34 44.17 54.16 38.58 54.07 44.17 52.94 44.17"/>
      <rect class="cls-2" x="59.55" y="36.08" width="1.45" height="8.09"/>
      <g>
        <path class="cls-2" d="m64.17,44.27c-.35,0-.66-.04-.92-.13-.26-.09-.49-.21-.66-.36-.18-.16-.32-.35-.43-.58-.11-.23-.19-.48-.23-.74-.04-.27-.07-.56-.07-.9v-2.82c0-.35.02-.67.07-.93.04-.27.12-.52.23-.76.11-.23.25-.42.42-.57.17-.15.39-.27.66-.35s.57-.13.93-.13c.4,0,.75.05,1.03.16.29.11.51.27.68.48.17.21.29.45.36.73.07.28.11.6.11.97v.69h-1.42v-.69c0-.4-.02-.68-.07-.81-.08-.27-.29-.42-.62-.44h-.08c-.12,0-.23.01-.33.04-.09.03-.17.07-.22.14-.06.06-.1.13-.14.2-.03.07-.06.16-.08.28-.02.11-.03.22-.03.32,0,.1,0,.22,0,.37v3.43c0,.47.06.81.18,1.01.12.2.33.3.64.3.1,0,.2-.01.28-.04.08-.02.14-.06.2-.09.06-.04.1-.09.14-.16.04-.07.07-.13.08-.19.02-.06.04-.14.04-.25.01-.11.01-.2.02-.27,0-.08,0-.18,0-.31v-.72h1.42v.67c0,.3-.02.57-.06.81-.04.24-.11.47-.22.68-.1.21-.24.39-.4.53-.16.14-.37.25-.62.33-.25.08-.55.12-.88.12"/>
        <path class="cls-2" d="m68.94,43.11c.1.04.22.06.37.06s.26-.02.37-.06c.1-.04.18-.1.24-.17.06-.07.11-.16.14-.27.03-.11.06-.22.07-.33.01-.11.02-.24.02-.4v-3.67c0-.2,0-.36-.03-.49-.02-.13-.06-.25-.12-.37-.06-.12-.14-.2-.26-.26-.11-.06-.26-.09-.43-.09s-.32.03-.44.09c-.11.06-.2.14-.25.26-.06.11-.1.24-.11.37-.02.13-.03.29-.03.49v3.67c0,.15,0,.28.02.4.01.11.04.22.07.33.03.11.08.2.14.27.06.07.14.12.24.17m.37,1.15c-.83,0-1.43-.22-1.79-.68-.36-.45-.54-1.11-.54-1.99v-2.99c0-.43.04-.8.12-1.11.08-.32.21-.59.39-.82.18-.23.42-.4.73-.52.3-.11.67-.17,1.09-.17.83,0,1.42.22,1.79.67.36.44.54,1.1.54,1.96v2.99c0,.42-.04.79-.12,1.11-.08.32-.21.6-.39.83-.18.24-.42.41-.73.53-.3.12-.66.18-1.09.18"/>
        <path class="cls-2" d="m73.19,61.53l-9.52,9.06c-.36.36-.54.62-.54,1.36v25.38c0,.3.24.54.54.54h9.83c.3,0,.54-.24.54-.54v-35.57c0-.3-.23-.84-.85-.23"/>
        <path class="cls-2" d="m45.77,73.33l-9.52,9.06c-.36.36-.54.62-.54,1.36v13.59c0,.29.25.54.54.54h9.83c.3,0,.54-.24.54-.54v-23.77c0-.3-.24-.85-.86-.23"/>
        <path class="cls-2" d="m77.52,50.54c0-.07-.02-.15-.08-.21-.05-.05-.11-.07-.18-.08h-.05s-.08,0-.08,0l-7.29,1.64h-.13c-.05.02-.1.05-.14.09-.11.11-.11.28,0,.39l.08.08,1.67,1.66-16.52,16.52-7.63-7.63c-.09-.09-.22-.09-.31,0l-2.07,2.07h0s-12.23,12.23-12.23,12.23c-.09.09-.09.23,0,.31l2.07,2.07c.08.09.22.09.31,0l12.08-12.08,5.54,5.54s0,.02.02.03l2.07,2.07c.09.09.22.09.31,0l18.75-18.75,1.75,1.75c.11.11.28.11.39,0,.05-.05.08-.11.08-.18v-.02s1.6-7.44,1.6-7.44v-.08Z"/>
        <path class="cls-2" d="m59.53,74.92l-4.61,4.64c-.09.07-.22.07-.3-.01l-4.18-4.25c-.76-.76-.93-.15-.93.15v21.88c0,.3.24.54.54.54h9.83c.3,0,.54-.24.54-.54v-22.24c0-.3-.24-.85-.91-.17"/>
      </g>
    </g>
  </g>
</svg>