<?xml version="1.0" encoding="UTF-8"?>
<svg id="Capa_2" data-name="Capa 2" xmlns="http://www.w3.org/2000/svg" viewBox="0 0 111 111">
  <defs>
    <style>
      .cls-1 {
        fill: #dc6d43;
      }

      .cls-1, .cls-2 {
        stroke-width: 0px;
      }

      .cls-2 {
        fill: #fff;
      }
    </style>
  </defs>
  <g id="Outline">
    <g>
      <rect class="cls-1" width="111" height="111"/>
      <path class="cls-2" d="m15.95,18.77v-3.37c0-.92-.11-1.65-.34-2.19-.23-.54-.64-.81-1.23-.81-.63,0-1.05.29-1.25.88-.21.58-.31,1.51-.31,2.78,0,.9.02,1.6.08,2.08.05.48.19.87.43,1.16.24.3.6.44,1.08.44.65,0,1.16-.32,1.54-.97m-5.66,10.99c-.83-.9-1.25-2.25-1.27-4.06v-.31h3.81c0,.96.1,1.64.3,2.04.2.4.61.6,1.24.6.44,0,.76-.13.98-.39.22-.26.37-.69.46-1.29.09-.6.13-1.47.13-2.6v-2.15c-.23.39-.58.68-1.07.9-.49.22-1.05.33-1.7.33-1.57,0-2.71-.57-3.42-1.72-.72-1.15-1.07-2.68-1.07-4.57,0-4.76,1.9-7.13,5.7-7.13,1.95,0,3.39.6,4.31,1.8.92,1.2,1.39,2.86,1.39,4.97v7.71c0,2.28-.42,4.06-1.27,5.33-.85,1.27-2.33,1.91-4.46,1.91-1.88,0-3.23-.45-4.06-1.34"/>
      <rect class="cls-2" x="29.1" y="9.5" width="1.45" height="8.09"/>
      <polygon class="cls-2" points="31.59 17.59 31.59 9.5 32.61 9.5 34.59 14.08 34.59 9.5 35.81 9.5 35.81 17.59 34.84 17.59 32.84 12.77 32.84 17.59 31.59 17.59"/>
      <g>
        <path class="cls-2" d="m38.29,16.55h.42c.15,0,.28-.01.38-.04.11-.03.2-.06.28-.09.08-.04.14-.09.19-.18.05-.08.09-.16.12-.22.03-.07.05-.17.06-.31.01-.14.02-.26.02-.35,0-.1,0-.24,0-.44v-2.96c0-.19,0-.35-.01-.46,0-.12-.02-.24-.05-.36-.03-.12-.06-.21-.11-.28-.05-.06-.11-.12-.19-.18-.08-.05-.18-.09-.29-.11-.12-.02-.26-.03-.42-.03h-.4v6Zm-1.47,1.03v-8.09h1.88c.49,0,.9.05,1.23.15.33.1.59.25.79.46.2.21.34.47.42.78.08.31.12.69.12,1.13v2.92c0,.46-.04.85-.13,1.18-.08.32-.22.59-.42.82-.19.23-.45.39-.77.49-.32.11-.72.16-1.19.16h-1.94Z"/>
        <path class="cls-2" d="m44.36,17.68c-.36,0-.68-.04-.94-.13-.27-.08-.48-.2-.65-.36-.17-.15-.31-.35-.41-.59-.1-.24-.17-.5-.21-.78-.04-.28-.06-.6-.06-.97v-5.37h1.43v5.52c0,.19,0,.35.01.48.01.13.03.27.06.42.03.15.08.26.14.35.06.09.14.16.25.22.1.06.23.09.38.09s.28-.03.38-.09c.11-.06.18-.13.24-.22.06-.09.1-.2.13-.35.04-.14.06-.28.07-.42,0-.13.01-.29.01-.49v-5.52h1.43v5.37c0,.37-.02.69-.06.97-.04.28-.11.54-.21.78-.1.24-.24.44-.41.59-.17.15-.39.27-.65.36-.27.08-.58.13-.93.13"/>
        <path class="cls-2" d="m49.61,17.68c-1.42,0-2.17-.82-2.24-2.47l1.28-.27c.03,1.07.34,1.6.92,1.6.22,0,.39-.07.5-.2.11-.14.16-.32.16-.55s-.04-.43-.12-.62c-.08-.19-.17-.34-.28-.46-.11-.12-.26-.26-.46-.44l-1.07-.92c-.31-.27-.54-.56-.7-.85-.15-.29-.23-.66-.23-1.1,0-.63.18-1.12.55-1.46.37-.35.88-.53,1.52-.53.3,0,.56.04.79.11.23.08.41.18.56.31.15.13.27.29.37.48.1.19.17.39.22.6.05.21.08.44.1.69l-1.26.25c0-.16-.02-.3-.03-.42-.01-.12-.04-.24-.08-.37-.04-.12-.08-.22-.14-.3-.06-.08-.13-.14-.23-.18-.1-.05-.21-.07-.33-.05-.22.01-.38.09-.5.22-.12.13-.17.31-.17.53,0,.26.05.48.15.64.1.17.26.35.48.54l1.05.92c.18.16.33.31.46.46.13.15.25.32.37.51.12.19.21.4.27.64.06.23.09.48.09.73,0,.59-.19,1.07-.56,1.43-.37.37-.86.55-1.47.55"/>
      </g>
      <polygon class="cls-2" points="53.09 17.59 53.09 10.58 51.74 10.58 51.74 9.5 55.88 9.5 55.88 10.58 54.57 10.58 54.57 17.59 53.09 17.59"/>
      <path class="cls-2" d="m57.8,12.95h.36c.44,0,.75-.09.93-.28.18-.18.28-.5.28-.95s-.08-.74-.24-.93c-.16-.19-.45-.28-.88-.28h-.44v2.44Zm-1.47,4.63v-8.09h1.85c.43,0,.79.04,1.1.11.31.07.57.19.8.35.22.16.39.39.5.67.11.28.17.63.17,1.03,0,.51-.07.92-.22,1.24-.15.32-.4.55-.75.7l1.12,3.98h-1.48l-.97-3.69h-.65v3.69h-1.47Z"/>
      <rect class="cls-2" x="61.71" y="9.5" width="1.45" height="8.09"/>
      <path class="cls-2" d="m65.67,14.75h1.08l-.54-3.32-.54,3.32Zm-1.88,2.84l1.64-8.09h1.54l1.64,8.09h-1.37l-.33-1.88h-1.4l-.33,1.88h-1.39Z"/>
      <path class="cls-2" d="m69.2,18.96l-.15-.51c.19-.05.35-.15.47-.29.12-.15.18-.34.18-.56h-.71v-1.32h1.34v1.23c0,.83-.38,1.31-1.13,1.46"/>
      <rect class="cls-2" x="29.1" y="22.72" width="1.45" height="8.09"/>
      <polygon class="cls-2" points="31.59 30.8 31.59 22.72 32.61 22.72 34.59 27.3 34.59 22.72 35.81 22.72 35.81 30.8 34.84 30.8 32.84 25.99 32.84 30.8 31.59 30.8"/>
      <polygon class="cls-2" points="36.82 30.8 36.82 22.72 37.83 22.72 39.81 27.3 39.81 22.72 41.04 22.72 41.04 30.8 40.07 30.8 38.07 25.99 38.07 30.8 36.82 30.8"/>
      <path class="cls-2" d="m43.88,29.75c.1.04.22.06.37.06s.27-.02.37-.06c.1-.04.18-.1.24-.17.06-.07.11-.16.14-.27.03-.11.06-.22.07-.33.01-.11.02-.24.02-.4v-3.67c0-.2,0-.36-.03-.49-.02-.13-.06-.25-.11-.37-.06-.12-.14-.2-.26-.26-.11-.06-.26-.09-.44-.09s-.32.03-.43.09c-.11.05-.2.14-.26.26-.06.12-.09.24-.11.37-.02.13-.03.29-.03.49v3.67c0,.15,0,.28.02.4.01.11.03.22.07.33.03.11.08.2.14.27.06.07.14.12.24.17m.37,1.15c-.83,0-1.43-.22-1.79-.68-.36-.45-.54-1.11-.54-1.99v-2.99c0-.43.04-.8.12-1.11.08-.32.21-.59.39-.82.18-.23.42-.4.73-.52.3-.11.67-.17,1.09-.17.83,0,1.43.22,1.79.67.36.44.55,1.1.55,1.96v2.99c0,.42-.04.79-.12,1.11-.08.32-.21.6-.4.83-.18.23-.42.41-.72.53s-.67.18-1.09.18"/>
      <polygon class="cls-2" points="48.72 30.8 47.08 22.72 48.39 22.72 49.45 28.34 50.45 22.72 51.79 22.72 50.14 30.8 48.72 30.8"/>
      <path class="cls-2" d="m53.62,27.97h1.08l-.54-3.32-.54,3.32Zm-1.88,2.84l1.64-8.09h1.54l1.64,8.09h-1.37l-.33-1.88h-1.4l-.33,1.88h-1.39Z"/>
      <path class="cls-2" d="m59.32,30.9c-.35,0-.66-.04-.92-.13-.27-.09-.49-.21-.66-.36-.17-.16-.32-.35-.43-.58-.11-.23-.18-.48-.23-.74-.04-.27-.06-.56-.06-.9v-2.82c0-.35.02-.66.07-.93.04-.27.12-.52.23-.76.11-.23.25-.42.42-.57.17-.15.39-.27.66-.35.26-.09.57-.13.92-.13.4,0,.75.05,1.03.16.29.11.51.27.68.47s.29.45.36.73c.07.28.11.6.11.97v.69h-1.42v-.69c0-.4-.02-.67-.06-.82-.08-.27-.29-.42-.62-.44h-.08c-.12,0-.23.01-.32.04-.09.03-.17.07-.23.14-.06.06-.1.13-.14.2-.03.07-.06.17-.08.28-.02.11-.03.22-.03.32,0,.1,0,.22,0,.37v3.43c0,.48.06.81.18,1.01.12.2.33.3.64.3.1,0,.2-.01.27-.04.08-.02.15-.06.2-.09.05-.04.1-.09.14-.16.04-.07.07-.13.08-.19.02-.06.03-.14.04-.25,0-.11.02-.2.02-.27,0-.08,0-.18,0-.31v-.72h1.42v.66c0,.3-.02.57-.06.81-.04.24-.12.47-.22.68-.1.21-.23.39-.4.53-.16.14-.37.25-.62.33-.25.08-.55.12-.88.12"/>
      <rect class="cls-2" x="62.37" y="22.72" width="1.45" height="8.09"/>
      <path class="cls-2" d="m66.69,22.03l.6-1.99h1.38l-1.2,1.99h-.77Zm.02,7.72c.1.04.22.06.37.06s.26-.02.37-.06c.1-.04.18-.1.24-.17.06-.07.11-.16.14-.27.03-.11.06-.22.07-.33.01-.11.02-.24.02-.4v-3.67c0-.2-.01-.36-.03-.49-.02-.13-.06-.25-.12-.37-.06-.11-.14-.2-.26-.26-.11-.06-.26-.09-.43-.09s-.32.03-.44.09c-.11.05-.2.14-.26.26-.06.12-.09.24-.11.37-.02.13-.03.29-.03.49v3.67c0,.15,0,.28.02.4,0,.11.03.22.07.33.03.11.08.2.14.27.06.07.14.12.24.17m.37,1.15c-.83,0-1.43-.23-1.79-.68-.36-.45-.54-1.11-.54-1.99v-2.98c0-.43.04-.8.12-1.12.08-.32.21-.59.39-.82.18-.23.42-.4.73-.52.3-.11.67-.17,1.09-.17.83,0,1.43.22,1.79.67.36.45.54,1.1.54,1.96v2.98c0,.42-.04.79-.12,1.11-.08.32-.21.6-.4.84-.18.23-.42.41-.72.53-.3.12-.67.18-1.09.18"/>
      <polygon class="cls-2" points="70.28 30.8 70.28 22.72 71.3 22.72 73.28 27.3 73.28 22.72 74.5 22.72 74.5 30.8 73.53 30.8 71.53 25.99 71.53 30.8 70.28 30.8"/>
      <polygon class="cls-2" points="77.75 30.8 77.75 22.72 81.13 22.72 81.13 23.76 79.22 23.76 79.22 26.08 80.73 26.08 80.73 27.12 79.22 27.12 79.22 29.78 81.16 29.78 81.16 30.8 77.75 30.8"/>
      <rect class="cls-2" x="29.1" y="35.93" width="1.45" height="8.09"/>
      <polygon class="cls-2" points="31.59 44.02 31.59 35.93 32.61 35.93 34.59 40.52 34.59 35.93 35.81 35.93 35.81 44.02 34.84 44.02 32.84 39.21 32.84 44.02 31.59 44.02"/>
      <polygon class="cls-2" points="36.82 44.02 36.82 35.93 40.14 35.93 40.14 36.95 38.29 36.95 38.29 39.31 39.77 39.31 39.77 40.35 38.29 40.35 38.29 44.02 36.82 44.02"/>
      <path class="cls-2" d="m42.19,39.39h.36c.43,0,.75-.09.93-.28.18-.18.27-.5.27-.95s-.08-.74-.24-.93c-.16-.19-.45-.28-.88-.28h-.44v2.44Zm-1.47,4.63v-8.09h1.85c.43,0,.79.04,1.1.1.31.07.57.19.8.35.22.16.4.38.5.67.11.28.17.63.17,1.03,0,.51-.08.92-.23,1.24s-.4.55-.75.7l1.12,3.99h-1.48l-.97-3.69h-.65v3.69h-1.47Z"/>
      <path class="cls-2" d="m47.52,41.18h1.08l-.54-3.32-.54,3.32Zm-1.88,2.84l1.65-8.09h1.54l1.64,8.09h-1.37l-.33-1.88h-1.4l-.33,1.88h-1.39Z"/>
      <polygon class="cls-2" points="51.06 44.02 51.06 35.93 54.44 35.93 54.44 36.97 52.53 36.97 52.53 39.3 54.04 39.3 54.04 40.33 52.53 40.33 52.53 43 54.46 43 54.46 44.02 51.06 44.02"/>
      <path class="cls-2" d="m57.15,44.12c-1.43,0-2.17-.82-2.25-2.47l1.28-.27c.03,1.07.34,1.61.92,1.61.23,0,.39-.07.5-.2.11-.14.16-.32.16-.55s-.04-.43-.12-.61c-.08-.19-.17-.34-.28-.46-.11-.12-.26-.27-.46-.44l-1.07-.92c-.31-.27-.54-.56-.7-.85-.15-.29-.23-.66-.23-1.1,0-.63.18-1.12.55-1.47.37-.35.88-.52,1.52-.53.3,0,.56.03.78.11.23.08.42.18.56.31.15.13.27.29.37.48.1.19.17.39.22.6.05.2.08.43.1.69l-1.26.25c0-.16-.01-.3-.03-.42-.01-.12-.04-.24-.08-.37-.04-.12-.08-.22-.14-.3-.06-.08-.14-.14-.23-.18-.1-.04-.21-.06-.33-.05-.22.01-.39.09-.5.22-.12.13-.17.31-.17.53,0,.26.05.47.15.64.1.17.26.35.48.54l1.05.92c.18.16.33.31.46.46.13.15.25.32.37.51.12.19.21.4.27.64.06.23.09.47.09.73,0,.59-.18,1.07-.56,1.43-.38.37-.86.55-1.47.55"/>
      <polygon class="cls-2" points="60.63 44.02 60.63 37.02 59.28 37.02 59.28 35.93 63.42 35.93 63.42 37.02 62.11 37.02 62.11 44.02 60.63 44.02"/>
      <g>
        <path class="cls-2" d="m65.34,39.39h.36c.44,0,.74-.09.93-.28.18-.18.28-.5.28-.95s-.08-.74-.24-.93c-.16-.19-.45-.28-.88-.28h-.44v2.44Zm-1.47,4.63v-8.09h1.85c.43,0,.79.04,1.1.1.31.07.57.19.8.35.23.16.4.38.51.67.11.28.17.63.17,1.03,0,.51-.07.92-.23,1.24-.15.32-.4.55-.75.7l1.12,3.99h-1.48l-.97-3.69h-.65v3.69h-1.47Z"/>
        <path class="cls-2" d="m71.42,44.12c-.36,0-.68-.04-.94-.13-.26-.08-.48-.2-.65-.36-.17-.15-.31-.35-.41-.59-.1-.24-.17-.5-.21-.78-.04-.28-.06-.6-.06-.97v-5.37h1.43v5.52c0,.19,0,.35.02.48,0,.13.03.27.06.42.03.15.08.26.14.35.06.09.14.16.25.22.1.06.23.09.38.09s.28-.03.38-.09c.11-.06.18-.13.24-.22.06-.09.1-.2.14-.35.03-.14.05-.28.06-.42s.01-.29.01-.49v-5.52h1.43v5.37c0,.37-.02.69-.06.97-.04.28-.11.54-.21.78-.1.24-.24.44-.41.59-.17.15-.39.27-.65.36-.26.08-.58.13-.93.13"/>
        <path class="cls-2" d="m76.8,44.12c-.35,0-.65-.04-.92-.13-.27-.09-.49-.21-.66-.36-.18-.16-.32-.35-.43-.58-.11-.23-.19-.48-.23-.74-.04-.27-.06-.56-.06-.9v-2.82c0-.35.02-.66.07-.93.04-.27.12-.52.23-.76.11-.23.25-.42.42-.57.17-.15.39-.27.66-.35.27-.08.57-.13.92-.13.4,0,.75.05,1.03.16.29.1.52.26.68.47.17.21.29.45.36.73.08.28.11.6.11.97v.69h-1.42v-.69c0-.4-.02-.67-.06-.82-.09-.27-.29-.42-.62-.44h-.08c-.12,0-.23.01-.33.04-.09.03-.17.07-.22.14-.06.07-.1.13-.14.2-.03.07-.06.17-.08.28-.02.11-.03.22-.03.32,0,.1,0,.22,0,.37v3.43c0,.48.06.81.18,1.01.12.2.33.3.64.3.1,0,.2-.01.27-.04.08-.02.15-.06.2-.09.05-.04.1-.09.14-.16.04-.07.07-.13.09-.19.02-.06.03-.14.04-.25.01-.11.01-.2.02-.27,0-.08,0-.18,0-.31v-.72h1.42v.66c0,.3-.02.57-.06.81-.04.24-.11.47-.22.68-.1.21-.24.39-.4.53-.16.14-.37.25-.62.33-.25.08-.55.12-.88.12"/>
      </g>
      <polygon class="cls-2" points="80.6 44.02 80.6 37.02 79.24 37.02 79.24 35.93 83.39 35.93 83.39 37.02 82.07 37.02 82.07 44.02 80.6 44.02"/>
      <g>
        <path class="cls-2" d="m86.04,44.12c-.36,0-.67-.04-.94-.13-.27-.08-.49-.2-.65-.36-.17-.15-.31-.35-.41-.59-.1-.24-.17-.5-.21-.78-.04-.28-.06-.6-.06-.97v-5.37h1.43v5.52c0,.19,0,.35.02.48,0,.13.03.27.06.42.03.15.08.26.14.35.06.09.14.16.25.22.11.06.23.09.38.09s.28-.03.38-.09c.11-.06.19-.13.24-.22s.1-.2.14-.35c.04-.14.05-.28.06-.42,0-.13.01-.29.01-.49v-5.52h1.43v5.37c0,.37-.02.69-.06.97-.04.28-.11.54-.21.78-.1.24-.24.44-.41.59-.17.15-.39.27-.65.36s-.57.13-.93.13"/>
        <path class="cls-2" d="m90.73,39.39h.36c.44,0,.75-.09.93-.28.18-.18.27-.5.27-.95s-.08-.74-.24-.93c-.16-.19-.45-.28-.88-.28h-.44v2.44Zm-1.47,4.63v-8.09h1.85c.43,0,.79.04,1.1.1.31.07.57.19.8.35.22.16.39.38.51.67.11.28.17.63.17,1.03,0,.51-.08.92-.23,1.24-.15.32-.4.55-.75.7l1.12,3.99h-1.48l-.97-3.69h-.65v3.69h-1.47Z"/>
      </g>
      <path class="cls-2" d="m96.06,41.18h1.08l-.54-3.32-.54,3.32Zm-1.88,2.84l1.65-8.09h1.54l1.64,8.09h-1.37l-.33-1.88h-1.4l-.33,1.88h-1.39Z"/>
      <path class="cls-2" d="m78.46,90.6l-10.03,5.79v-11.58l10.03-5.79v11.58Zm-33.13,5.79v-10.7l9.26,5.35-9.26,5.35Zm-1.52,0l-10.03-5.79v-11.58l10.03,5.79v11.58Zm10.79-32.03l-9.26,5.35v-10.7l9.26,5.35Zm12.31,5.35l-9.26-5.35,9.26-5.35v10.7Zm-9.26,7.99l10.02-5.79,10.03,5.79-10.03,5.79-10.02-5.79Zm-2.29-1.32l-9.26-5.35,9.26-5.35v10.7Zm10.79-5.35l-9.26,5.35v-10.7l9.26,5.35Zm-10.79,18.69l-9.26-5.35,9.26-5.35v10.7Zm24.24-12.68l-11.17-6.45v-12.9c0-.27-.14-.52-.38-.66l-11.55-6.67c-.24-.13-.53-.13-.76,0l-11.55,6.67c-.24.14-.38.39-.38.66v12.9l-11.17,6.45c-.24.14-.38.39-.38.66v13.34c0,.27.15.53.38.66l11.55,6.67c.12.07.25.1.38.1s.26-.04.38-.1l11.17-6.45,11.17,6.45c.12.07.25.1.38.1s.26-.03.38-.1l11.55-6.67c.24-.13.38-.39.38-.66v-13.34c0-.27-.14-.53-.38-.66"/>
    </g>
  </g>
</svg>