<?xml version="1.0" encoding="UTF-8"?>
<svg id="clientes" data-name="Capa 2" xmlns="http://www.w3.org/2000/svg" viewBox="0 0 26 26">
  <defs>
    <style>
      #clientes .cls-1 {
        stroke-width: 0px;
        fill: #fff;
      }
    </style>
  </defs>
  <g id="Outline">
    <g>
      <path class="cls-1" d="m13,12c3.31,0,6-2.69,6-6S16.31,0,13,0s-6,2.69-6,6,2.69,6,6,6Zm0-10c2.21,0,4,1.79,4,4s-1.79,4-4,4-4-1.79-4-4,1.79-4,4-4Z"/>
      <path class="cls-1" d="m21.79,14.34c-5.83-1.79-11.75-1.79-17.59,0-2.48.76-4.21,3.12-4.21,5.73v5.93h26v-5.93c0-2.62-1.73-4.97-4.21-5.73Zm-8.24.68l.4,4.65-.95.63-.95-.63.4-4.65c.37,0,.73,0,1.1,0Zm10.45,8.98h-3v-3.5h-2v3.5H7v-3.5h-2v3.5h-3v-3.93c0-1.74,1.15-3.32,2.79-3.82,1.87-.57,3.75-.94,5.64-1.12l-.48,5.54,3.05,2.03,3.05-2.03-.48-5.54c1.88.18,3.77.54,5.64,1.12,1.64.5,2.79,2.08,2.79,3.82v3.93Z"/>
    </g>
  </g>
</svg>