<?xml version="1.0" encoding="UTF-8"?>
<svg id="Capa_2" data-name="Capa 2" xmlns="http://www.w3.org/2000/svg" viewBox="0 0 578.24 343.98">
  <defs>
    <style>
      .cls-1 {
        fill: #5072dd;
      }

      .cls-1, .cls-2, .cls-3, .cls-4, .cls-5, .cls-6, .cls-7, .cls-8, .cls-9, .cls-10, .cls-11 {
        stroke-width: 0px;
      }

      .cls-2 {
        fill: #dcdedf;
      }

      .cls-3 {
        fill: #d12f3a;
      }

      .cls-4 {
        fill: #f3c835;
      }

      .cls-5 {
        fill: #2550d6;
      }

      .cls-6, .cls-12 {
        fill: #494e54;
      }

      .cls-12 {
        font-family: Roboto-Regular, Roboto;
        font-size: 12.63px;
      }

      .cls-7 {
        fill: #bed07c;
      }

      .cls-8 {
        fill: #7fad3e;
      }

      .cls-9 {
        fill: #fff;
      }

      .cls-10 {
        fill: #274991;
      }

      .cls-11 {
        fill: #dc732e;
      }
    </style>
  </defs>
  <g id="Capa_1-2" data-name="Capa 1">
    <rect class="cls-3" x="202.79" width="10.61" height="53.03"/>
    <rect class="cls-11" x="202.79" y="53.03" width="10.61" height="53.03"/>
    <rect class="cls-4" x="202.79" y="106.06" width="10.61" height="53.03"/>
    <rect class="cls-7" x="202.79" y="159.09" width="10.61" height="53.03"/>
    <rect class="cls-8" x="202.79" y="212.12" width="10.61" height="53.03"/>
    <rect class="cls-8" x="202.79" y="265.15" width="10.61" height="12.73"/>
    <rect class="cls-8" x="213.39" y="265.15" width="72.12" height="12.73"/>
    <rect class="cls-7" x="285.51" y="265.15" width="112.42" height="12.73"/>
    <rect class="cls-4" x="397.94" y="265.15" width="109.24" height="12.73"/>
    <rect class="cls-3" x="507.18" y="265.15" width="70" height="12.73"/>
    <rect class="cls-9" x="202.79" y="277.88" width="10.61" height="36.06"/>
    <rect class="cls-2" x="577.18" y="212.12" width="1.06" height="53.03"/>
    <rect class="cls-2" x="507.18" y="212.12" width="1.06" height="53.03"/>
    <rect class="cls-2" x="397.94" y="212.12" width="1.06" height="53.03"/>
    <rect class="cls-2" x="285.51" y="212.12" width="1.06" height="53.03"/>
    <rect class="cls-2" x="577.18" y="159.09" width="1.06" height="53.03"/>
    <rect class="cls-2" x="507.18" y="159.09" width="1.06" height="53.03"/>
    <rect class="cls-2" x="397.94" y="159.09" width="1.06" height="53.03"/>
    <rect class="cls-2" x="213.39" y="212.12" width="73.18" height="1.06"/>
    <rect class="cls-2" x="285.51" y="159.09" width="1.06" height="54.09"/>
    <rect class="cls-2" x="577.18" y="106.06" width="1.06" height="53.03"/>
    <rect class="cls-2" x="507.18" y="106.06" width="1.06" height="53.03"/>
    <rect class="cls-2" x="285.51" y="159.09" width="113.48" height="1.06"/>
    <rect class="cls-2" x="397.94" y="106.06" width="1.06" height="54.09"/>
    <rect class="cls-2" x="213.39" y="159.09" width="73.18" height="1.06"/>
    <rect class="cls-2" x="577.18" y="53.03" width="1.06" height="53.03"/>
    <rect class="cls-2" x="397.94" y="106.06" width="110.3" height="1.06"/>
    <rect class="cls-2" x="507.18" y="53.03" width="1.06" height="54.09"/>
    <rect class="cls-2" x="285.51" y="106.06" width="113.48" height="1.06"/>
    <rect class="cls-2" x="213.39" y="106.06" width="72.12" height="1.06"/>
    <rect class="cls-2" x="507.18" width="71.06" height="1.06"/>
    <rect class="cls-2" x="577.18" width="1.06" height="53.03"/>
    <rect class="cls-2" x="397.94" width="110.3" height="1.06"/>
    <rect class="cls-2" x="507.18" width="1.06" height="53.03"/>
    <rect class="cls-2" x="285.51" width="112.42" height="1.06"/>
    <rect class="cls-2" x="213.39" width="72.12" height="1.06"/>
    <path class="cls-6" d="M161.54,28.89h-3.27l-.62,1.86h-1.98l3.37-9.05h1.73l3.39,9.05h-1.98l-.63-1.86ZM158.78,27.38h2.26l-1.14-3.39-1.12,3.39Z"/>
    <path class="cls-6" d="M166.7,30.76h-1.8v-9.55h1.8v9.55Z"/>
    <path class="cls-6" d="M170.14,22.38v1.65h1.15v1.32h-1.15v3.36c0,.25.05.43.14.53.09.11.28.16.55.16.2,0,.38-.01.53-.04v1.36c-.35.11-.71.16-1.09.16-1.26,0-1.9-.64-1.93-1.91v-3.62h-.98v-1.32h.98v-1.65h1.8Z"/>
    <path class="cls-6" d="M171.94,27.33c0-.67.13-1.26.39-1.78s.63-.93,1.11-1.21c.48-.29,1.04-.43,1.68-.43.91,0,1.65.28,2.22.83s.89,1.31.96,2.26v.46c.01,1.03-.28,1.86-.85,2.48-.58.62-1.35.94-2.32.94s-1.74-.31-2.32-.93c-.58-.62-.87-1.47-.87-2.54v-.08ZM173.74,27.46c0,.64.12,1.13.36,1.47.24.34.58.51,1.03.51s.77-.17,1.02-.5c.25-.33.37-.87.37-1.6,0-.63-.12-1.11-.37-1.46-.24-.34-.59-.52-1.03-.52s-.78.17-1.02.51-.36.87-.36,1.59Z"/>
    <path class="cls-6" d="M97.36,74.74l2.32,6.56,2.31-6.56h2.45v9.05h-1.87v-2.47l.19-4.27-2.44,6.74h-1.28l-2.44-6.74.19,4.26v2.47h-1.86v-9.05h2.44Z"/>
    <path class="cls-6" d="M106.2,80.37c0-.67.13-1.26.38-1.78s.63-.93,1.11-1.21c.48-.29,1.04-.43,1.68-.43.91,0,1.65.28,2.22.83.57.56.89,1.31.96,2.26v.46c.01,1.03-.28,1.86-.85,2.48s-1.35.94-2.32.94-1.74-.31-2.32-.93c-.58-.62-.87-1.47-.87-2.54v-.08ZM107.99,80.5c0,.64.12,1.13.36,1.47.24.34.58.51,1.03.51s.78-.17,1.02-.5.37-.87.37-1.6c0-.63-.12-1.11-.37-1.46s-.59-.52-1.03-.52-.78.17-1.02.51-.36.87-.36,1.59Z"/>
    <path class="cls-6" d="M113.62,80.38c0-1.05.23-1.88.71-2.5.47-.62,1.11-.93,1.93-.93.65,0,1.2.24,1.62.73v-3.43h1.8v9.55h-1.62l-.09-.71c-.45.56-1.02.84-1.73.84-.79,0-1.43-.31-1.9-.94s-.72-1.49-.72-2.6ZM115.41,80.51c0,.63.11,1.11.33,1.45.22.34.54.5.96.5.56,0,.95-.23,1.17-.7v-2.66c-.22-.47-.61-.7-1.16-.7-.87,0-1.3.7-1.3,2.11Z"/>
    <path class="cls-6" d="M124.41,83.92c-.99,0-1.79-.3-2.41-.91-.62-.6-.93-1.41-.93-2.42v-.17c0-.68.13-1.28.39-1.81.26-.53.63-.94,1.11-1.23.48-.29,1.02-.43,1.64-.43.92,0,1.64.29,2.17.87.53.58.79,1.4.79,2.47v.73h-4.28c.06.44.23.79.53,1.06s.66.4,1.11.4c.69,0,1.23-.25,1.62-.75l.88.99c-.27.38-.63.68-1.09.89s-.97.32-1.53.32ZM124.2,78.39c-.36,0-.65.12-.87.36-.22.24-.36.59-.42,1.04h2.5v-.14c0-.4-.12-.71-.32-.93-.21-.22-.5-.33-.88-.33Z"/>
    <path class="cls-6" d="M131.46,78.75c-.25-.03-.46-.05-.65-.05-.68,0-1.12.23-1.34.69v4.4h-1.8v-6.72h1.7l.05.8c.36-.62.86-.93,1.5-.93.2,0,.39.03.56.08l-.02,1.73Z"/>
    <path class="cls-6" d="M135.81,83.79c-.08-.16-.14-.36-.18-.6-.44.48-1,.73-1.7.73-.66,0-1.2-.19-1.64-.57-.43-.38-.65-.86-.65-1.44,0-.71.26-1.26.79-1.64s1.29-.57,2.29-.58h.83v-.39c0-.31-.08-.56-.24-.75s-.41-.28-.75-.28c-.3,0-.54.07-.71.22s-.26.34-.26.6h-1.8c0-.39.12-.75.36-1.08s.58-.59,1.02-.78.93-.28,1.48-.28c.83,0,1.49.21,1.97.62.49.42.73,1,.73,1.76v2.91c0,.64.09,1.12.27,1.45v.11h-1.81ZM134.33,82.54c.27,0,.51-.06.73-.18s.39-.28.5-.48v-1.16h-.67c-.9,0-1.38.31-1.44.93v.11c0,.22.07.41.23.55.16.15.37.22.65.22Z"/>
    <path class="cls-6" d="M138,80.38c0-1.05.24-1.88.71-2.5.47-.62,1.11-.93,1.93-.93.66,0,1.2.24,1.62.73v-3.43h1.8v9.55h-1.62l-.09-.71c-.45.56-1.02.84-1.73.84-.79,0-1.43-.31-1.91-.94s-.72-1.49-.72-2.6ZM139.8,80.51c0,.63.11,1.11.33,1.45.22.34.54.5.96.5.55,0,.95-.23,1.17-.7v-2.66c-.22-.47-.61-.7-1.16-.7-.87,0-1.3.7-1.3,2.11Z"/>
    <path class="cls-6" d="M145.42,80.37c0-.67.13-1.26.39-1.78s.63-.93,1.11-1.21c.48-.29,1.04-.43,1.68-.43.91,0,1.65.28,2.22.83s.89,1.31.96,2.26v.46c.01,1.03-.28,1.86-.85,2.48-.58.62-1.35.94-2.32.94s-1.74-.31-2.32-.93c-.58-.62-.87-1.47-.87-2.54v-.08ZM147.22,80.5c0,.64.12,1.13.36,1.47.24.34.58.51,1.03.51s.77-.17,1.02-.5c.25-.33.37-.87.37-1.6,0-.63-.12-1.11-.37-1.46-.24-.34-.59-.52-1.03-.52s-.78.17-1.02.51-.36.87-.36,1.59Z"/>
    <path class="cls-6" d="M156.61,80.64h-3.5v-1.45h3.5v1.45Z"/>
    <path class="cls-6" d="M162.32,83.79c-.08-.16-.14-.36-.18-.6-.44.48-1,.73-1.7.73-.66,0-1.2-.19-1.64-.57-.43-.38-.65-.86-.65-1.44,0-.71.26-1.26.79-1.64s1.29-.57,2.29-.58h.83v-.39c0-.31-.08-.56-.24-.75s-.41-.28-.75-.28c-.3,0-.54.07-.71.22s-.26.34-.26.6h-1.8c0-.39.12-.75.36-1.08s.58-.59,1.02-.78.93-.28,1.48-.28c.83,0,1.49.21,1.97.62.49.42.73,1,.73,1.76v2.91c0,.64.09,1.12.27,1.45v.11h-1.81ZM160.84,82.54c.27,0,.51-.06.73-.18s.39-.28.5-.48v-1.16h-.67c-.9,0-1.38.31-1.44.93v.11c0,.22.07.41.23.55.16.15.37.22.65.22Z"/>
    <path class="cls-6" d="M166.69,83.79h-1.8v-9.55h1.8v9.55Z"/>
    <path class="cls-6" d="M170.12,75.42v1.65h1.15v1.32h-1.15v3.36c0,.25.05.43.14.53.09.11.28.16.55.16.2,0,.38-.01.53-.04v1.36c-.35.11-.71.16-1.09.16-1.26,0-1.9-.64-1.93-1.91v-3.62h-.98v-1.32h.98v-1.65h1.8Z"/>
    <path class="cls-6" d="M171.93,80.37c0-.67.13-1.26.39-1.78s.63-.93,1.11-1.21c.48-.29,1.04-.43,1.68-.43.91,0,1.65.28,2.22.83s.89,1.31.96,2.26v.46c.01,1.03-.28,1.86-.85,2.48-.58.62-1.35.94-2.32.94s-1.74-.31-2.32-.93c-.58-.62-.87-1.47-.87-2.54v-.08ZM173.73,80.5c0,.64.12,1.13.36,1.47.24.34.58.51,1.03.51s.77-.17,1.02-.5c.25-.33.37-.87.37-1.6,0-.63-.12-1.11-.37-1.46-.24-.34-.59-.52-1.03-.52s-.78.17-1.02.51-.36.87-.36,1.59Z"/>
    <path class="cls-6" d="M123.86,127.78l2.32,6.56,2.31-6.56h2.45v9.05h-1.87v-2.47l.19-4.27-2.44,6.74h-1.28l-2.44-6.74.19,4.26v2.47h-1.86v-9.05h2.44Z"/>
    <path class="cls-6" d="M132.69,133.4c0-.67.13-1.26.38-1.78.26-.52.63-.93,1.11-1.21.48-.29,1.04-.43,1.68-.43.91,0,1.65.28,2.22.83.57.56.89,1.31.96,2.26v.46c.01,1.03-.28,1.86-.85,2.48-.58.62-1.35.94-2.32.94s-1.74-.31-2.32-.93c-.58-.62-.87-1.47-.87-2.54v-.08ZM134.49,133.53c0,.64.12,1.13.36,1.47.24.34.58.51,1.03.51s.78-.17,1.02-.5.37-.87.37-1.6c0-.63-.12-1.11-.37-1.46-.24-.34-.59-.52-1.03-.52s-.78.17-1.02.51c-.24.34-.36.87-.36,1.59Z"/>
    <path class="cls-6" d="M140.11,133.42c0-1.05.23-1.88.71-2.5.47-.62,1.11-.93,1.93-.93.65,0,1.2.24,1.62.73v-3.43h1.8v9.54h-1.62l-.09-.71c-.45.56-1.02.84-1.73.84-.79,0-1.43-.31-1.9-.94-.48-.62-.72-1.49-.72-2.6ZM141.91,133.55c0,.63.11,1.11.33,1.45.22.34.54.5.96.5.56,0,.95-.23,1.17-.7v-2.66c-.22-.47-.61-.7-1.16-.7-.87,0-1.3.7-1.3,2.11Z"/>
    <path class="cls-6" d="M150.91,136.95c-.99,0-1.79-.3-2.41-.91-.62-.6-.93-1.41-.93-2.42v-.17c0-.68.13-1.28.39-1.81s.63-.94,1.11-1.23,1.02-.43,1.64-.43c.92,0,1.64.29,2.17.87.53.58.79,1.4.79,2.47v.73h-4.28c.06.44.23.79.53,1.06.29.26.66.4,1.11.4.69,0,1.23-.25,1.62-.75l.88.99c-.27.38-.63.68-1.09.89-.46.21-.97.32-1.53.32ZM150.7,131.43c-.36,0-.65.12-.87.36s-.36.59-.42,1.04h2.5v-.14c0-.4-.12-.71-.32-.93s-.5-.33-.88-.33Z"/>
    <path class="cls-6" d="M157.95,131.79c-.24-.03-.46-.05-.65-.05-.68,0-1.12.23-1.34.69v4.4h-1.8v-6.72h1.7l.05.8c.36-.62.86-.93,1.5-.93.2,0,.38.03.56.08l-.03,1.73Z"/>
    <path class="cls-6" d="M162.31,136.83c-.08-.16-.14-.36-.18-.6-.44.48-1,.73-1.7.73-.66,0-1.2-.19-1.64-.57-.43-.38-.65-.86-.65-1.44,0-.71.26-1.26.79-1.64.53-.38,1.29-.57,2.29-.58h.83v-.39c0-.31-.08-.56-.24-.75s-.41-.28-.75-.28c-.3,0-.54.07-.71.22-.17.15-.26.34-.26.6h-1.8c0-.39.12-.75.36-1.08.24-.33.58-.59,1.02-.78s.93-.28,1.48-.28c.83,0,1.49.21,1.97.62.49.42.73,1,.73,1.76v2.91c0,.64.09,1.12.27,1.45v.11h-1.81ZM160.83,135.58c.27,0,.51-.06.73-.18s.39-.28.5-.48v-1.16h-.67c-.9,0-1.38.31-1.44.93v.11c0,.22.07.41.23.55.16.15.37.22.65.22Z"/>
    <path class="cls-6" d="M164.5,133.42c0-1.05.24-1.88.71-2.5.47-.62,1.11-.93,1.93-.93.66,0,1.2.24,1.62.73v-3.43h1.8v9.54h-1.62l-.09-.71c-.45.56-1.02.84-1.73.84-.79,0-1.43-.31-1.91-.94-.48-.62-.72-1.49-.72-2.6ZM166.29,133.55c0,.63.11,1.11.33,1.45.22.34.54.5.96.5.55,0,.95-.23,1.17-.7v-2.66c-.22-.47-.61-.7-1.16-.7-.87,0-1.3.7-1.3,2.11Z"/>
    <path class="cls-6" d="M171.92,133.4c0-.67.13-1.26.39-1.78.26-.52.63-.93,1.11-1.21.48-.29,1.04-.43,1.68-.43.91,0,1.65.28,2.22.83.57.56.89,1.31.96,2.26v.46c.01,1.03-.28,1.86-.85,2.48-.58.62-1.35.94-2.32.94s-1.74-.31-2.32-.93-.87-1.47-.87-2.54v-.08ZM173.71,133.53c0,.64.12,1.13.36,1.47.24.34.58.51,1.03.51s.77-.17,1.02-.5c.25-.33.37-.87.37-1.6,0-.63-.12-1.11-.37-1.46-.24-.34-.59-.52-1.03-.52s-.78.17-1.02.51c-.24.34-.36.87-.36,1.59Z"/>
    <path class="cls-6" d="M94.15,180.81l2.32,6.56,2.31-6.56h2.45v9.05h-1.87v-2.47l.19-4.27-2.44,6.74h-1.28l-2.44-6.74.19,4.26v2.47h-1.86v-9.05h2.44Z"/>
    <path class="cls-6" d="M102.99,186.44c0-.67.13-1.26.39-1.78.26-.52.63-.93,1.11-1.21.48-.29,1.04-.43,1.68-.43.91,0,1.65.28,2.22.83.57.55.89,1.31.96,2.26v.46c.01,1.03-.28,1.86-.85,2.48-.58.62-1.35.94-2.32.94s-1.74-.31-2.32-.93c-.58-.62-.87-1.47-.87-2.54v-.08ZM104.78,186.56c0,.64.12,1.13.36,1.47s.58.51,1.03.51.77-.17,1.02-.5c.25-.33.37-.87.37-1.6,0-.63-.12-1.11-.37-1.46-.24-.34-.59-.52-1.03-.52s-.78.17-1.02.51c-.24.34-.36.87-.36,1.59Z"/>
    <path class="cls-6" d="M110.41,186.45c0-1.05.24-1.88.71-2.5.47-.62,1.11-.93,1.93-.93.66,0,1.2.24,1.62.73v-3.43h1.8v9.55h-1.62l-.09-.71c-.45.56-1.02.84-1.73.84-.79,0-1.43-.31-1.91-.94-.48-.62-.72-1.49-.72-2.6ZM112.2,186.58c0,.63.11,1.11.33,1.45.22.34.54.5.96.5.55,0,.95-.23,1.17-.7v-2.66c-.22-.47-.61-.7-1.16-.7-.87,0-1.3.7-1.3,2.11Z"/>
    <path class="cls-6" d="M121.2,189.99c-.99,0-1.79-.3-2.41-.91s-.93-1.41-.93-2.42v-.17c0-.67.13-1.28.39-1.81.26-.53.63-.94,1.11-1.23.48-.29,1.02-.43,1.64-.43.92,0,1.64.29,2.17.87s.79,1.4.79,2.47v.73h-4.28c.06.44.23.79.53,1.06.29.27.66.4,1.11.4.69,0,1.23-.25,1.62-.75l.88.99c-.27.38-.63.68-1.09.89-.46.21-.97.32-1.53.32ZM121,184.46c-.36,0-.65.12-.87.36-.22.24-.36.59-.43,1.04h2.5v-.14c0-.4-.12-.71-.32-.93-.21-.22-.5-.33-.88-.33Z"/>
    <path class="cls-6" d="M128.25,184.82c-.24-.03-.46-.05-.65-.05-.68,0-1.12.23-1.34.69v4.4h-1.8v-6.72h1.7l.05.8c.36-.62.86-.93,1.5-.93.2,0,.38.03.56.08l-.03,1.73Z"/>
    <path class="cls-6" d="M132.61,189.86c-.08-.16-.14-.36-.18-.6-.44.49-1,.73-1.7.73-.66,0-1.2-.19-1.64-.57-.43-.38-.65-.86-.65-1.44,0-.71.26-1.26.79-1.64.53-.38,1.29-.57,2.29-.58h.83v-.38c0-.31-.08-.56-.24-.75s-.41-.28-.75-.28c-.3,0-.54.07-.71.22-.17.14-.26.34-.26.6h-1.8c0-.39.12-.75.36-1.08.24-.33.58-.59,1.02-.78s.93-.28,1.48-.28c.83,0,1.49.21,1.97.62.49.42.73,1,.73,1.75v2.92c0,.64.09,1.12.27,1.45v.11h-1.81ZM131.12,188.61c.27,0,.51-.06.73-.18s.39-.28.5-.48v-1.16h-.67c-.9,0-1.38.31-1.44.93v.11c0,.22.07.41.23.55.16.14.37.22.65.22Z"/>
    <path class="cls-6" d="M134.79,186.45c0-1.05.23-1.88.71-2.5.47-.62,1.11-.93,1.93-.93.65,0,1.2.24,1.62.73v-3.43h1.8v9.55h-1.62l-.09-.71c-.45.56-1.02.84-1.73.84-.79,0-1.43-.31-1.9-.94-.48-.62-.72-1.49-.72-2.6ZM136.59,186.58c0,.63.11,1.11.33,1.45s.54.5.96.5c.56,0,.95-.23,1.17-.7v-2.66c-.22-.47-.61-.7-1.16-.7-.87,0-1.3.7-1.3,2.11Z"/>
    <path class="cls-6" d="M142.21,186.44c0-.67.13-1.26.38-1.78.26-.52.63-.93,1.11-1.21s1.04-.43,1.68-.43c.91,0,1.65.28,2.22.83.57.55.89,1.31.96,2.26v.46c.01,1.03-.28,1.86-.85,2.48-.58.62-1.35.94-2.32.94s-1.74-.31-2.32-.93c-.58-.62-.87-1.47-.87-2.54v-.08ZM144.01,186.56c0,.64.12,1.13.36,1.47s.58.51,1.03.51.78-.17,1.02-.5.37-.87.37-1.6c0-.63-.12-1.11-.37-1.46-.24-.34-.59-.52-1.03-.52s-.78.17-1.02.51c-.24.34-.36.87-.36,1.59Z"/>
    <path class="cls-6" d="M153.4,186.71h-3.5v-1.45h3.5v1.45Z"/>
    <path class="cls-6" d="M161.28,186.56c0,1.08-.23,1.92-.69,2.52s-1.1.9-1.93.9c-.73,0-1.31-.28-1.75-.84l-.08.71h-1.62v-9.55h1.8v3.42c.41-.49.96-.73,1.63-.73.82,0,1.46.3,1.93.9.47.6.7,1.45.7,2.54v.1ZM159.48,186.43c0-.68-.11-1.18-.32-1.49-.22-.31-.54-.47-.96-.47-.57,0-.96.23-1.18.7v2.65c.22.47.62.71,1.19.71s.96-.29,1.14-.86c.09-.27.13-.69.13-1.25Z"/>
    <path class="cls-6" d="M166.54,189.86c-.08-.16-.14-.36-.18-.6-.44.49-1,.73-1.7.73-.66,0-1.2-.19-1.64-.57-.43-.38-.65-.86-.65-1.44,0-.71.26-1.26.79-1.64.53-.38,1.29-.57,2.29-.58h.83v-.38c0-.31-.08-.56-.24-.75s-.41-.28-.75-.28c-.3,0-.54.07-.71.22-.17.14-.26.34-.26.6h-1.8c0-.39.12-.75.36-1.08.24-.33.58-.59,1.02-.78s.93-.28,1.48-.28c.83,0,1.49.21,1.97.62.49.42.73,1,.73,1.75v2.92c0,.64.09,1.12.27,1.45v.11h-1.81ZM165.05,188.61c.27,0,.51-.06.73-.18s.39-.28.5-.48v-1.16h-.67c-.9,0-1.38.31-1.44.93v.11c0,.22.07.41.23.55.16.14.37.22.65.22Z"/>
    <path class="cls-6" d="M170.9,183.14v7.09c0,.74-.2,1.32-.59,1.73-.39.41-.96.62-1.7.62-.31,0-.61-.04-.89-.11v-1.42c.22.04.4.06.57.06.54,0,.81-.29.81-.86v-7.1h1.8ZM168.96,181.4c0-.27.09-.49.27-.67.18-.17.43-.26.74-.26s.56.09.74.26c.18.17.27.4.27.67s-.09.5-.28.67-.43.26-.73.26-.55-.09-.73-.26c-.18-.17-.28-.4-.28-.67Z"/>
    <path class="cls-6" d="M171.91,186.44c0-.67.13-1.26.39-1.78.26-.52.63-.93,1.11-1.21.48-.29,1.04-.43,1.68-.43.91,0,1.65.28,2.22.83.57.55.89,1.31.96,2.26v.46c.01,1.03-.28,1.86-.85,2.48-.58.62-1.35.94-2.32.94s-1.74-.31-2.32-.93c-.58-.62-.87-1.47-.87-2.54v-.08ZM173.7,186.56c0,.64.12,1.13.36,1.47s.58.51,1.03.51.77-.17,1.02-.5c.25-.33.37-.87.37-1.6,0-.63-.12-1.11-.37-1.46-.24-.34-.59-.52-1.03-.52s-.78.17-1.02.51c-.24.34-.36.87-.36,1.59Z"/>
    <path class="cls-6" d="M154.27,242.9v-9.05h3.17c1.1,0,1.93.21,2.5.63.57.42.85,1.04.85,1.85,0,.44-.11.83-.34,1.17-.23.34-.54.58-.95.74.46.12.83.35,1.1.7.27.35.4.78.4,1.29,0,.87-.28,1.53-.83,1.98-.56.45-1.35.67-2.37.68h-3.52ZM156.13,237.64h1.38c.94-.02,1.41-.39,1.41-1.12,0-.41-.12-.71-.36-.88-.24-.18-.61-.27-1.13-.27h-1.3v2.28ZM156.13,238.96v2.44h1.6c.44,0,.78-.1,1.03-.31.25-.21.37-.5.37-.87,0-.83-.43-1.25-1.29-1.26h-1.71Z"/>
    <path class="cls-6" d="M166.54,242.9c-.08-.16-.14-.36-.18-.6-.44.49-1,.73-1.7.73-.66,0-1.2-.19-1.64-.57-.43-.38-.65-.86-.65-1.44,0-.71.26-1.26.79-1.64.53-.38,1.29-.57,2.29-.58h.83v-.38c0-.31-.08-.56-.24-.75s-.41-.28-.75-.28c-.3,0-.54.07-.71.22-.17.14-.26.34-.26.6h-1.8c0-.39.12-.75.36-1.08.24-.33.58-.59,1.02-.78s.93-.28,1.48-.28c.83,0,1.49.21,1.97.62.49.42.73,1,.73,1.75v2.92c0,.64.09,1.12.27,1.45v.11h-1.81ZM165.05,241.65c.27,0,.51-.06.73-.18s.39-.28.5-.48v-1.16h-.67c-.9,0-1.38.31-1.44.93v.11c0,.22.07.41.23.55.16.14.37.22.65.22Z"/>
    <path class="cls-6" d="M170.9,236.17v7.09c0,.74-.2,1.32-.59,1.73-.39.41-.96.62-1.7.62-.31,0-.61-.04-.89-.11v-1.42c.22.04.4.06.57.06.54,0,.81-.29.81-.86v-7.1h1.8ZM168.96,234.43c0-.27.09-.49.27-.67.18-.17.43-.26.74-.26s.56.09.74.26c.18.17.27.4.27.67s-.09.5-.28.67-.43.26-.73.26-.55-.09-.73-.26c-.18-.17-.28-.4-.28-.67Z"/>
    <path class="cls-6" d="M171.91,239.47c0-.67.13-1.26.39-1.78.26-.52.63-.93,1.11-1.21.48-.29,1.04-.43,1.68-.43.91,0,1.65.28,2.22.83.57.55.89,1.31.96,2.26v.46c.01,1.03-.28,1.86-.85,2.48-.58.62-1.35.94-2.32.94s-1.74-.31-2.32-.93c-.58-.62-.87-1.47-.87-2.54v-.08ZM173.7,239.6c0,.64.12,1.13.36,1.47s.58.51,1.03.51.77-.17,1.02-.5c.25-.33.37-.87.37-1.6,0-.63-.12-1.11-.37-1.46-.24-.34-.59-.52-1.03-.52s-.78.17-1.02.51c-.24.34-.36.87-.36,1.59Z"/>
    <text class="cls-12" transform="translate(244.18 276.82)"><tspan x="0" y="0"> </tspan></text>
    <text class="cls-12" transform="translate(247.37 276.82)"><tspan x="0" y="0"> </tspan></text>
    <text class="cls-12" transform="translate(250.55 276.82)"><tspan x="0" y="0"> </tspan></text>
    <text class="cls-12" transform="translate(336.46 276.82)"><tspan x="0" y="0"> </tspan></text>
    <text class="cls-12" transform="translate(339.64 276.82)"><tspan x="0" y="0"> </tspan></text>
    <text class="cls-12" transform="translate(342.82 276.82)"><tspan x="0" y="0"> </tspan></text>
    <text class="cls-12" transform="translate(447.29 276.82)"><tspan x="0" y="0"> </tspan></text>
    <text class="cls-12" transform="translate(450.47 276.82)"><tspan x="0" y="0"> </tspan></text>
    <text class="cls-12" transform="translate(453.65 276.82)"><tspan x="0" y="0"> </tspan></text>
    <text class="cls-12" transform="translate(536.91 276.82)"><tspan x="0" y="0"> </tspan></text>
    <text class="cls-12" transform="translate(540.09 276.82)"><tspan x="0" y="0"> </tspan></text>
    <text class="cls-12" transform="translate(543.28 276.82)"><tspan x="0" y="0"> </tspan></text>
    <path class="cls-6" d="M237.04,300.15v-9.05h3.17c1.1,0,1.93.21,2.5.63.57.42.85,1.04.85,1.85,0,.44-.11.83-.34,1.17-.23.34-.54.58-.95.74.46.12.83.35,1.1.7.27.35.4.78.4,1.29,0,.87-.28,1.53-.83,1.98-.56.45-1.35.68-2.37.68h-3.52ZM238.9,294.89h1.38c.94-.02,1.41-.39,1.41-1.12,0-.41-.12-.71-.36-.89-.24-.18-.61-.27-1.13-.27h-1.3v2.28ZM238.9,296.21v2.44h1.6c.44,0,.78-.1,1.03-.31.25-.21.37-.5.37-.87,0-.83-.43-1.25-1.29-1.26h-1.71Z"/>
    <path class="cls-6" d="M249.31,300.15c-.08-.16-.14-.36-.18-.6-.44.48-1,.73-1.7.73-.66,0-1.2-.19-1.64-.57-.43-.38-.65-.86-.65-1.44,0-.71.26-1.26.79-1.64.53-.38,1.29-.57,2.29-.58h.83v-.39c0-.31-.08-.56-.24-.75-.16-.19-.41-.28-.75-.28-.3,0-.54.07-.71.22-.17.14-.26.34-.26.6h-1.8c0-.39.12-.75.36-1.08.24-.33.58-.59,1.02-.78s.93-.28,1.48-.28c.83,0,1.49.21,1.97.62.49.42.73,1,.73,1.76v2.91c0,.64.09,1.12.27,1.45v.11h-1.81ZM247.82,298.9c.27,0,.51-.06.73-.18.22-.12.39-.28.5-.48v-1.16h-.67c-.9,0-1.38.31-1.44.93v.11c0,.22.07.41.23.55.16.15.37.22.65.22Z"/>
    <path class="cls-6" d="M253.67,293.43v7.09c0,.74-.2,1.32-.59,1.73s-.96.62-1.7.62c-.31,0-.61-.04-.89-.11v-1.42c.22.04.4.06.57.06.54,0,.81-.29.81-.86v-7.1h1.8ZM251.73,291.69c0-.27.09-.49.27-.67.18-.17.43-.26.74-.26s.56.09.74.26c.18.17.27.4.27.67s-.09.5-.28.67-.43.26-.73.26-.55-.09-.73-.26c-.18-.17-.28-.4-.28-.67Z"/>
    <path class="cls-6" d="M254.68,296.73c0-.67.13-1.26.38-1.78.26-.52.63-.93,1.11-1.21.48-.29,1.04-.43,1.68-.43.91,0,1.65.28,2.22.83.57.56.89,1.31.96,2.26v.46c.01,1.03-.28,1.86-.85,2.48-.58.62-1.35.93-2.32.93s-1.74-.31-2.32-.93c-.58-.62-.87-1.47-.87-2.54v-.08ZM256.47,296.85c0,.64.12,1.13.36,1.47s.58.51,1.03.51.78-.17,1.02-.5c.24-.33.37-.87.37-1.6,0-.63-.12-1.11-.37-1.46s-.59-.52-1.03-.52-.78.17-1.02.51c-.24.34-.36.87-.36,1.59Z"/>
    <path class="cls-6" d="M311.6,291.1l2.32,6.56,2.31-6.56h2.45v9.05h-1.87v-2.47l.19-4.27-2.44,6.74h-1.28l-2.44-6.74.19,4.26v2.47h-1.86v-9.05h2.44Z"/>
    <path class="cls-6" d="M323.81,300.27c-.99,0-1.79-.3-2.41-.91-.62-.6-.93-1.41-.93-2.42v-.17c0-.68.13-1.28.39-1.81.26-.53.63-.94,1.11-1.23.48-.29,1.02-.43,1.64-.43.92,0,1.64.29,2.17.87s.79,1.4.79,2.47v.73h-4.28c.06.44.23.79.53,1.06.29.27.66.4,1.11.4.69,0,1.23-.25,1.62-.75l.88.99c-.27.38-.63.68-1.09.89-.46.21-.97.32-1.53.32ZM323.61,294.75c-.36,0-.65.12-.87.36s-.36.59-.42,1.04h2.5v-.14c0-.4-.12-.71-.32-.93-.21-.22-.5-.33-.88-.33Z"/>
    <path class="cls-6" d="M326.8,296.74c0-1.05.23-1.88.71-2.5.47-.62,1.11-.93,1.93-.93.65,0,1.2.25,1.62.73v-3.43h1.8v9.54h-1.62l-.09-.71c-.45.56-1.02.84-1.73.84-.79,0-1.43-.31-1.9-.93-.48-.62-.72-1.49-.72-2.6ZM328.6,296.87c0,.63.11,1.11.33,1.45.22.34.54.5.96.5.56,0,.95-.23,1.17-.7v-2.66c-.22-.47-.61-.7-1.16-.7-.87,0-1.3.7-1.3,2.11Z"/>
    <path class="cls-6" d="M334.49,291.69c0-.27.09-.49.27-.67.18-.17.43-.26.74-.26s.55.09.73.26c.18.17.27.4.27.67s-.09.5-.28.67c-.18.17-.43.26-.73.26s-.55-.09-.73-.26-.28-.4-.28-.67ZM336.4,300.15h-1.8v-6.72h1.8v6.72Z"/>
    <path class="cls-6" d="M337.4,296.73c0-.67.13-1.26.39-1.78.26-.52.63-.93,1.11-1.21.48-.29,1.04-.43,1.68-.43.91,0,1.65.28,2.22.83.57.56.89,1.31.96,2.26v.46c.01,1.03-.28,1.86-.85,2.48-.58.62-1.35.93-2.32.93s-1.74-.31-2.32-.93c-.58-.62-.87-1.47-.87-2.54v-.08ZM339.2,296.85c0,.64.12,1.13.36,1.47s.58.51,1.03.51.77-.17,1.02-.5c.25-.33.37-.87.37-1.6,0-.63-.12-1.11-.37-1.46-.24-.34-.59-.52-1.03-.52s-.78.17-1.02.51c-.24.34-.36.87-.36,1.59Z"/>
    <path class="cls-6" d="M348.59,297h-3.5v-1.45h3.5v1.45Z"/>
    <path class="cls-6" d="M356.47,296.85c0,1.08-.23,1.92-.69,2.52-.46.6-1.1.9-1.93.9-.73,0-1.31-.28-1.75-.84l-.08.71h-1.62v-9.54h1.8v3.42c.41-.49.96-.73,1.63-.73.82,0,1.46.3,1.93.9.47.6.7,1.45.7,2.54v.1ZM354.67,296.72c0-.68-.11-1.17-.32-1.49-.22-.31-.54-.47-.96-.47-.57,0-.96.23-1.18.7v2.65c.22.47.62.71,1.19.71s.96-.29,1.14-.86c.09-.27.13-.69.13-1.25Z"/>
    <path class="cls-6" d="M361.73,300.15c-.08-.16-.14-.36-.18-.6-.44.48-1,.73-1.7.73-.66,0-1.2-.19-1.64-.57-.43-.38-.65-.86-.65-1.44,0-.71.26-1.26.79-1.64.53-.38,1.29-.57,2.29-.58h.83v-.39c0-.31-.08-.56-.24-.75-.16-.19-.41-.28-.75-.28-.3,0-.54.07-.71.22-.17.14-.26.34-.26.6h-1.8c0-.39.12-.75.36-1.08.24-.33.58-.59,1.02-.78s.93-.28,1.48-.28c.83,0,1.49.21,1.97.62.49.42.73,1,.73,1.76v2.91c0,.64.09,1.12.27,1.45v.11h-1.81ZM360.24,298.9c.27,0,.51-.06.73-.18.22-.12.39-.28.5-.48v-1.16h-.67c-.9,0-1.38.31-1.44.93v.11c0,.22.07.41.23.55.16.15.37.22.65.22Z"/>
    <path class="cls-6" d="M366.09,293.43v7.09c0,.74-.2,1.32-.59,1.73s-.96.62-1.7.62c-.31,0-.61-.04-.89-.11v-1.42c.21.04.4.06.57.06.54,0,.81-.29.81-.86v-7.1h1.8ZM364.15,291.69c0-.27.09-.49.27-.67.18-.17.43-.26.74-.26s.56.09.74.26c.18.17.27.4.27.67s-.09.5-.28.67c-.18.17-.43.26-.73.26s-.55-.09-.73-.26-.28-.4-.28-.67Z"/>
    <path class="cls-6" d="M367.1,296.73c0-.67.13-1.26.38-1.78.26-.52.63-.93,1.11-1.21.48-.29,1.04-.43,1.68-.43.91,0,1.65.28,2.22.83.57.56.89,1.31.96,2.26v.46c.01,1.03-.28,1.86-.85,2.48-.58.62-1.35.93-2.32.93s-1.74-.31-2.32-.93c-.58-.62-.87-1.47-.87-2.54v-.08ZM368.89,296.85c0,.64.12,1.13.36,1.47s.58.51,1.03.51.78-.17,1.02-.5c.24-.33.37-.87.37-1.6,0-.63-.12-1.11-.37-1.46s-.59-.52-1.03-.52-.78.17-1.02.51c-.24.34-.36.87-.36,1.59Z"/>
    <path class="cls-6" d="M424.02,291.1l2.32,6.56,2.31-6.56h2.45v9.05h-1.87v-2.47l.19-4.27-2.44,6.74h-1.28l-2.44-6.74.19,4.26v2.47h-1.86v-9.05h2.44Z"/>
    <path class="cls-6" d="M436.23,300.27c-.99,0-1.79-.3-2.41-.91-.62-.6-.93-1.41-.93-2.42v-.17c0-.68.13-1.28.39-1.81.26-.53.63-.94,1.11-1.23.48-.29,1.02-.43,1.64-.43.92,0,1.64.29,2.17.87s.79,1.4.79,2.47v.73h-4.28c.06.44.23.79.53,1.06.29.27.66.4,1.11.4.69,0,1.23-.25,1.62-.75l.88.99c-.27.38-.63.68-1.09.89-.46.21-.97.32-1.53.32ZM436.03,294.75c-.36,0-.65.12-.87.36s-.36.59-.43,1.04h2.5v-.14c0-.4-.12-.71-.32-.93-.21-.22-.5-.33-.88-.33Z"/>
    <path class="cls-6" d="M439.22,296.74c0-1.05.23-1.88.71-2.5.47-.62,1.11-.93,1.93-.93.65,0,1.2.25,1.62.73v-3.43h1.8v9.54h-1.62l-.09-.71c-.45.56-1.02.84-1.73.84-.79,0-1.43-.31-1.9-.93-.48-.62-.72-1.49-.72-2.6ZM441.02,296.87c0,.63.11,1.11.33,1.45.22.34.54.5.96.5.56,0,.95-.23,1.17-.7v-2.66c-.22-.47-.61-.7-1.16-.7-.87,0-1.3.7-1.3,2.11Z"/>
    <path class="cls-6" d="M446.91,291.69c0-.27.09-.49.27-.67.18-.17.43-.26.74-.26s.55.09.73.26.27.4.27.67-.09.5-.28.67-.43.26-.73.26-.55-.09-.73-.26c-.18-.17-.28-.4-.28-.67ZM448.81,300.15h-1.8v-6.72h1.8v6.72Z"/>
    <path class="cls-6" d="M449.82,296.73c0-.67.13-1.26.38-1.78.26-.52.63-.93,1.11-1.21.48-.29,1.04-.43,1.68-.43.91,0,1.65.28,2.22.83.57.56.89,1.31.96,2.26v.46c.01,1.03-.28,1.86-.85,2.48-.58.62-1.35.93-2.32.93s-1.74-.31-2.32-.93c-.58-.62-.87-1.47-.87-2.54v-.08ZM451.62,296.85c0,.64.12,1.13.36,1.47s.58.51,1.03.51.78-.17,1.02-.5c.24-.33.37-.87.37-1.6,0-.63-.12-1.11-.37-1.46s-.59-.52-1.03-.52-.78.17-1.02.51c-.24.34-.36.87-.36,1.59Z"/>
    <path class="cls-6" d="M461.01,297h-3.5v-1.45h3.5v1.45Z"/>
    <path class="cls-6" d="M466.73,300.15c-.08-.16-.14-.36-.18-.6-.43.48-1,.73-1.7.73-.66,0-1.21-.19-1.64-.57s-.65-.86-.65-1.44c0-.71.26-1.26.79-1.64.53-.38,1.29-.57,2.29-.58h.83v-.39c0-.31-.08-.56-.24-.75-.16-.19-.41-.28-.75-.28-.3,0-.54.07-.71.22-.17.14-.26.34-.26.6h-1.8c0-.39.12-.75.36-1.08.24-.33.58-.59,1.02-.78.44-.19.93-.28,1.48-.28.83,0,1.49.21,1.97.62.49.42.73,1,.73,1.76v2.91c0,.64.09,1.12.27,1.45v.11h-1.81ZM465.24,298.9c.26,0,.51-.06.73-.18.22-.12.39-.28.5-.48v-1.16h-.67c-.9,0-1.38.31-1.44.93v.11c0,.22.07.41.23.55.16.15.37.22.65.22Z"/>
    <path class="cls-6" d="M471.09,300.15h-1.8v-9.54h1.8v9.54Z"/>
    <path class="cls-6" d="M474.52,291.77v1.65h1.15v1.32h-1.15v3.36c0,.25.05.43.14.53.1.11.28.16.55.16.2,0,.38-.01.53-.04v1.36c-.35.11-.71.16-1.09.16-1.26,0-1.9-.64-1.93-1.91v-3.62h-.98v-1.32h.98v-1.65h1.8Z"/>
    <path class="cls-6" d="M476.33,296.73c0-.67.13-1.26.38-1.78.26-.52.63-.93,1.11-1.21.48-.29,1.04-.43,1.68-.43.91,0,1.65.28,2.22.83.57.56.89,1.31.96,2.26v.46c.01,1.03-.28,1.86-.85,2.48-.58.62-1.35.93-2.32.93s-1.74-.31-2.32-.93c-.58-.62-.87-1.47-.87-2.54v-.08ZM478.13,296.85c0,.64.12,1.13.36,1.47s.58.51,1.03.51.78-.17,1.02-.5c.24-.33.37-.87.37-1.6,0-.63-.12-1.11-.37-1.46s-.59-.52-1.03-.52-.78.17-1.02.51c-.24.34-.36.87-.36,1.59Z"/>
    <path class="cls-6" d="M535.93,298.29h-3.27l-.62,1.86h-1.98l3.37-9.05h1.73l3.39,9.05h-1.98l-.63-1.86ZM533.16,296.78h2.26l-1.14-3.39-1.12,3.39Z"/>
    <path class="cls-6" d="M541.09,300.15h-1.8v-9.54h1.8v9.54Z"/>
    <path class="cls-6" d="M544.52,291.77v1.65h1.15v1.32h-1.15v3.36c0,.25.05.43.14.53.1.11.28.16.55.16.2,0,.38-.01.53-.04v1.36c-.35.11-.71.16-1.09.16-1.26,0-1.9-.64-1.93-1.91v-3.62h-.98v-1.32h.98v-1.65h1.8Z"/>
    <path class="cls-6" d="M546.33,296.73c0-.67.13-1.26.39-1.78.26-.52.63-.93,1.11-1.21.48-.29,1.04-.43,1.68-.43.91,0,1.65.28,2.22.83.57.56.89,1.31.96,2.26v.46c.01,1.03-.28,1.86-.85,2.48-.58.62-1.35.93-2.32.93s-1.74-.31-2.32-.93c-.58-.62-.87-1.47-.87-2.54v-.08ZM548.13,296.85c0,.64.12,1.13.36,1.47s.58.51,1.03.51.77-.17,1.02-.5c.25-.33.37-.87.37-1.6,0-.63-.12-1.11-.37-1.46-.24-.34-.59-.52-1.03-.52s-.78.17-1.02.51c-.24.34-.36.87-.36,1.59Z"/>
    <path class="cls-5" d="M336.17,336.04h-1.98v4.42h-2.49v-12.06h4.48c1.42,0,2.52.32,3.3.95s1.16,1.53,1.16,2.69c0,.82-.18,1.51-.53,2.06-.36.55-.9.99-1.62,1.31l2.61,4.93v.12h-2.67l-2.26-4.42ZM334.19,334.02h2.01c.62,0,1.11-.16,1.45-.48.34-.32.51-.75.51-1.31s-.16-1.02-.48-1.34c-.32-.33-.82-.49-1.49-.49h-2v3.62Z"/>
    <path class="cls-5" d="M342.13,329.17c0-.36.12-.66.36-.89.24-.23.57-.35.98-.35s.73.12.98.35c.24.23.36.53.36.89s-.12.66-.37.89c-.25.23-.57.35-.97.35s-.73-.12-.97-.35c-.25-.23-.37-.53-.37-.89ZM344.68,340.45h-2.4v-8.96h2.4v8.96Z"/>
    <path class="cls-5" d="M350.52,340.62c-1.31,0-2.38-.4-3.21-1.21s-1.24-1.88-1.24-3.22v-.23c0-.9.17-1.71.52-2.42.35-.71.84-1.26,1.48-1.64.64-.38,1.37-.58,2.18-.58,1.23,0,2.19.39,2.9,1.16s1.06,1.87,1.06,3.29v.98h-5.71c.08.59.31,1.06.7,1.41.39.35.88.53,1.48.53.92,0,1.64-.33,2.16-1l1.18,1.32c-.36.51-.85.9-1.46,1.19-.61.28-1.29.43-2.04.43ZM350.24,333.25c-.48,0-.86.16-1.16.48-.29.32-.48.78-.57,1.38h3.33v-.19c-.01-.53-.15-.95-.43-1.24s-.67-.44-1.18-.44Z"/>
    <path class="cls-5" d="M360.78,337.97c0-.29-.14-.52-.43-.69-.29-.17-.76-.32-1.4-.45-2.13-.45-3.2-1.35-3.2-2.72,0-.79.33-1.46.99-1.99s1.52-.8,2.59-.8c1.14,0,2.05.27,2.73.8s1.02,1.23,1.02,2.09h-2.39c0-.34-.11-.63-.33-.85-.22-.22-.57-.33-1.04-.33-.4,0-.72.09-.94.27-.22.18-.33.41-.33.7,0,.27.12.48.38.64.25.16.67.3,1.27.42.6.12,1.1.25,1.51.4,1.27.46,1.9,1.27,1.9,2.41,0,.82-.35,1.48-1.05,1.98-.7.51-1.61.76-2.72.76-.75,0-1.42-.13-2-.4-.58-.27-1.04-.63-1.37-1.1-.33-.47-.5-.97-.5-1.51h2.27c.02.43.18.75.47.98.29.23.68.34,1.18.34.46,0,.8-.09,1.04-.26.23-.17.35-.4.35-.68Z"/>
    <path class="cls-5" d="M364.06,335.9c0-1.38.33-2.48.98-3.32.65-.84,1.54-1.26,2.65-1.26.98,0,1.75.34,2.29,1.01l.1-.84h2.17v8.67c0,.78-.18,1.47-.54,2.05-.36.58-.86,1.02-1.5,1.33-.65.3-1.4.46-2.27.46-.66,0-1.3-.13-1.92-.39-.62-.26-1.1-.6-1.42-1.01l1.06-1.46c.6.67,1.32,1,2.17,1,.64,0,1.13-.17,1.48-.51.35-.34.53-.82.53-1.45v-.48c-.55.62-1.28.94-2.18.94-1.08,0-1.95-.42-2.61-1.26-.67-.84-1-1.96-1-3.35v-.1ZM366.46,336.08c0,.81.16,1.45.49,1.91s.77.69,1.34.69c.73,0,1.25-.27,1.57-.82v-3.78c-.32-.55-.84-.82-1.55-.82-.57,0-1.03.24-1.35.71-.33.47-.49,1.17-.49,2.11Z"/>
    <path class="cls-5" d="M373.58,335.89c0-.89.17-1.68.51-2.38.34-.7.84-1.23,1.48-1.62.64-.38,1.39-.57,2.24-.57,1.21,0,2.2.37,2.96,1.11.77.74,1.19,1.75,1.28,3.02l.02.61c0,1.38-.38,2.48-1.15,3.31-.77.83-1.8,1.25-3.09,1.25s-2.32-.42-3.09-1.24-1.16-1.96-1.16-3.38v-.11ZM375.97,336.06c0,.85.16,1.5.48,1.95.32.45.78.68,1.38.68s1.03-.22,1.36-.67c.33-.45.49-1.16.49-2.14,0-.84-.16-1.48-.49-1.94-.33-.46-.78-.69-1.38-.69s-1.04.23-1.36.68c-.32.46-.48,1.16-.48,2.12Z"/>
    <path class="cls-5" d="M387.36,335.9c0-1.4.31-2.51.94-3.34.63-.83,1.48-1.24,2.57-1.24.87,0,1.59.33,2.16.98v-4.57h2.4v12.73h-2.16l-.12-.95c-.6.75-1.37,1.12-2.3,1.12-1.06,0-1.9-.42-2.54-1.25-.64-.83-.96-1.99-.96-3.47ZM389.75,336.08c0,.84.15,1.49.44,1.93.29.45.72.67,1.28.67.74,0,1.26-.31,1.57-.94v-3.54c-.3-.62-.81-.94-1.55-.94-1.16,0-1.73.94-1.73,2.81Z"/>
    <path class="cls-5" d="M401.39,340.62c-1.31,0-2.38-.4-3.21-1.21-.83-.81-1.24-1.88-1.24-3.22v-.23c0-.9.17-1.71.52-2.42.35-.71.84-1.26,1.48-1.64.64-.38,1.37-.58,2.18-.58,1.23,0,2.19.39,2.9,1.16.71.77,1.06,1.87,1.06,3.29v.98h-5.71c.08.59.31,1.06.7,1.41s.88.53,1.48.53c.92,0,1.64-.33,2.16-1l1.18,1.32c-.36.51-.84.9-1.46,1.19-.61.28-1.29.43-2.04.43ZM401.12,333.25c-.47,0-.86.16-1.16.48-.3.32-.49.78-.57,1.38h3.33v-.19c-.01-.53-.16-.95-.43-1.24s-.67-.44-1.18-.44Z"/>
    <path class="cls-5" d="M420.67,336.43c-.09,1.3-.57,2.32-1.44,3.07-.86.75-2,1.12-3.42,1.12-1.55,0-2.76-.52-3.65-1.56-.89-1.04-1.33-2.47-1.33-4.29v-.74c0-1.16.2-2.18.61-3.07.41-.88.99-1.56,1.75-2.03.76-.47,1.64-.71,2.65-.71,1.39,0,2.51.37,3.36,1.12s1.34,1.79,1.47,3.14h-2.49c-.06-.78-.28-1.34-.65-1.69-.37-.35-.94-.53-1.7-.53-.83,0-1.45.3-1.86.89-.41.59-.62,1.51-.63,2.76v.91c0,1.3.2,2.26.59,2.86.39.6,1.02.9,1.87.9.77,0,1.34-.18,1.72-.53.38-.35.59-.89.65-1.63h2.49Z"/>
    <path class="cls-5" d="M425.78,340.62c-1.31,0-2.38-.4-3.21-1.21s-1.24-1.88-1.24-3.22v-.23c0-.9.17-1.71.52-2.42.35-.71.84-1.26,1.48-1.64.64-.38,1.37-.58,2.18-.58,1.23,0,2.19.39,2.9,1.16s1.06,1.87,1.06,3.29v.98h-5.71c.08.59.31,1.06.7,1.41.39.35.88.53,1.48.53.92,0,1.64-.33,2.16-1l1.18,1.32c-.36.51-.85.9-1.46,1.19-.61.28-1.29.43-2.04.43ZM425.5,333.25c-.48,0-.86.16-1.16.48-.29.32-.48.78-.57,1.38h3.33v-.19c-.01-.53-.15-.95-.43-1.24s-.67-.44-1.18-.44Z"/>
    <path class="cls-5" d="M436.04,337.97c0-.29-.14-.52-.43-.69-.29-.17-.76-.32-1.4-.45-2.13-.45-3.2-1.35-3.2-2.72,0-.79.33-1.46.99-1.99s1.52-.8,2.59-.8c1.14,0,2.05.27,2.73.8s1.02,1.23,1.02,2.09h-2.39c0-.34-.11-.63-.33-.85-.22-.22-.57-.33-1.04-.33-.4,0-.72.09-.94.27-.22.18-.33.41-.33.7,0,.27.12.48.38.64.25.16.67.3,1.27.42.6.12,1.1.25,1.51.4,1.27.46,1.9,1.27,1.9,2.41,0,.82-.35,1.48-1.05,1.98-.7.51-1.61.76-2.72.76-.75,0-1.42-.13-2-.4-.58-.27-1.04-.63-1.37-1.1-.33-.47-.5-.97-.5-1.51h2.27c.02.43.18.75.47.98.29.23.68.34,1.18.34.46,0,.8-.09,1.04-.26.23-.17.35-.4.35-.68Z"/>
    <path class="cls-5" d="M443.8,340.62c-1.31,0-2.38-.4-3.21-1.21s-1.24-1.88-1.24-3.22v-.23c0-.9.17-1.71.52-2.42.35-.71.84-1.26,1.48-1.64.64-.38,1.37-.58,2.18-.58,1.23,0,2.19.39,2.9,1.16s1.06,1.87,1.06,3.29v.98h-5.71c.08.59.31,1.06.7,1.41.39.35.88.53,1.48.53.92,0,1.64-.33,2.16-1l1.18,1.32c-.36.51-.85.9-1.46,1.19-.61.28-1.29.43-2.04.43ZM443.53,333.25c-.48,0-.86.16-1.16.48-.29.32-.48.78-.57,1.38h3.33v-.19c-.01-.53-.15-.95-.43-1.24s-.67-.44-1.18-.44Z"/>
    <path class="cls-5" d="M8.31,269.15v1.98h4.42v2.49H.66v-4.48c0-1.42.32-2.52.95-3.3s1.53-1.16,2.69-1.16c.82,0,1.51.18,2.06.53.55.36.99.9,1.31,1.62l4.93-2.61h.12v2.67l-4.42,2.26ZM6.3,271.13v-2c0-.62-.16-1.11-.48-1.45s-.75-.51-1.31-.51-1.02.16-1.34.48c-.33.32-.49.82-.49,1.49v2h3.62Z"/>
    <path class="cls-5" d="M1.44,263.19c-.36,0-.65-.12-.89-.36s-.35-.57-.35-.98.12-.73.35-.98.53-.36.89-.36.66.12.89.37c.23.25.35.57.35.97s-.12.73-.35.97c-.23.25-.53.37-.89.37ZM12.73,260.64v2.4H3.76v-2.4h8.97Z"/>
    <path class="cls-5" d="M12.89,254.8c0,1.31-.4,2.38-1.21,3.21s-1.88,1.24-3.22,1.24h-.23c-.9,0-1.71-.17-2.42-.52s-1.26-.84-1.64-1.48c-.38-.64-.58-1.37-.58-2.18,0-1.23.39-2.19,1.16-2.9.77-.7,1.87-1.06,3.29-1.06h.98v5.71c.58-.08,1.05-.31,1.41-.7.35-.39.53-.88.53-1.48,0-.92-.33-1.64-1-2.16l1.32-1.18c.51.36.9.84,1.19,1.46.28.61.43,1.29.43,2.04ZM5.53,255.07c0,.48.16.86.48,1.16.32.29.78.48,1.38.57v-3.33h-.19c-.53.01-.94.15-1.24.43-.29.28-.44.67-.44,1.18Z"/>
    <path class="cls-5" d="M10.25,244.52c-.29,0-.52.15-.69.44-.17.29-.32.76-.45,1.4-.45,2.13-1.35,3.2-2.72,3.2-.79,0-1.46-.33-1.99-.99s-.8-1.52-.8-2.59c0-1.14.27-2.05.8-2.73.54-.68,1.23-1.02,2.09-1.02v2.39c-.34,0-.62.11-.85.33-.22.22-.34.57-.34,1.04,0,.4.09.71.27.94.18.22.41.33.7.33.26,0,.48-.12.64-.38s.3-.68.42-1.27c.12-.6.25-1.1.4-1.51.46-1.27,1.27-1.9,2.41-1.9.82,0,1.48.35,1.99,1.05.5.7.76,1.61.76,2.72,0,.75-.13,1.42-.4,2-.27.58-.63,1.04-1.1,1.37-.47.33-.97.5-1.51.5v-2.27c.43-.02.75-.18.98-.47s.34-.68.34-1.18c0-.46-.09-.8-.26-1.04-.17-.23-.4-.35-.68-.35Z"/>
    <path class="cls-5" d="M8.18,241.24c-1.38,0-2.48-.33-3.32-.98-.84-.65-1.26-1.54-1.26-2.65,0-.98.34-1.75,1.01-2.29l-.84-.1v-2.17h8.67c.78,0,1.47.18,2.05.54.58.36,1.02.86,1.33,1.5s.46,1.4.46,2.27c0,.66-.13,1.3-.39,1.92-.26.62-.6,1.1-1.02,1.42l-1.46-1.06c.67-.6,1-1.32,1-2.17,0-.64-.17-1.13-.51-1.48s-.82-.53-1.45-.53h-.48c.62.55.94,1.28.94,2.18,0,1.08-.42,1.95-1.26,2.62s-1.96,1-3.35,1h-.1ZM8.36,238.84c.81,0,1.45-.16,1.91-.49.46-.33.69-.77.69-1.34,0-.73-.27-1.25-.82-1.57h-3.78c-.55.32-.82.84-.82,1.55,0,.57.24,1.03.71,1.35.47.33,1.17.49,2.11.49Z"/>
    <path class="cls-5" d="M8.16,231.72c-.89,0-1.68-.17-2.38-.51-.7-.34-1.23-.84-1.62-1.48-.38-.64-.57-1.39-.57-2.24,0-1.21.37-2.2,1.11-2.96.74-.76,1.75-1.19,3.02-1.28l.61-.02c1.38,0,2.48.38,3.31,1.15.83.77,1.25,1.8,1.25,3.09s-.41,2.32-1.24,3.09-1.96,1.16-3.38,1.16h-.11ZM8.33,229.33c.85,0,1.5-.16,1.95-.48.45-.32.68-.78.68-1.38s-.22-1.03-.67-1.36c-.45-.33-1.16-.49-2.14-.49-.84,0-1.48.16-1.94.49-.46.33-.69.78-.69,1.38s.23,1.04.68,1.36,1.16.48,2.12.48Z"/>
    <path class="cls-5" d="M8.18,217.95c-1.4,0-2.51-.31-3.34-.94-.83-.63-1.24-1.48-1.24-2.57,0-.87.33-1.59.98-2.16H0v-2.4h12.73v2.16l-.95.12c.75.6,1.12,1.36,1.12,2.3,0,1.05-.42,1.9-1.25,2.54-.83.64-1.99.96-3.47.96ZM8.36,215.55c.84,0,1.49-.15,1.93-.44.45-.29.67-.72.67-1.28,0-.74-.31-1.26-.94-1.57h-3.54c-.62.3-.94.82-.94,1.55,0,1.16.94,1.73,2.81,1.73Z"/>
    <path class="cls-5" d="M12.89,203.91c0,1.31-.4,2.38-1.21,3.21-.81.83-1.88,1.24-3.22,1.24h-.23c-.9,0-1.71-.17-2.42-.52s-1.26-.84-1.64-1.48c-.38-.64-.58-1.37-.58-2.18,0-1.23.39-2.19,1.16-2.9.77-.71,1.87-1.06,3.29-1.06h.98v5.71c.59-.08,1.06-.31,1.41-.7.35-.39.53-.88.53-1.48,0-.92-.33-1.64-1-2.16l1.32-1.18c.51.36.9.85,1.19,1.46.28.61.43,1.29.43,2.04ZM5.53,204.18c0,.47.16.86.48,1.16s.78.49,1.38.57v-3.33h-.19c-.53.01-.94.16-1.24.43-.29.28-.44.67-.44,1.18Z"/>
    <path class="cls-5" d="M6.01,189.22c-.04.33-.07.61-.07.86,0,.91.31,1.5.92,1.78h5.87v2.39H3.76v-2.26l1.07-.07c-.82-.48-1.23-1.15-1.23-2,0-.27.04-.51.11-.75l2.3.03Z"/>
    <path class="cls-5" d="M12.89,183.77c0,1.31-.4,2.38-1.21,3.21-.81.83-1.88,1.24-3.22,1.24h-.23c-.9,0-1.71-.17-2.42-.52s-1.26-.84-1.64-1.48c-.38-.64-.58-1.37-.58-2.18,0-1.23.39-2.19,1.16-2.9.77-.71,1.87-1.06,3.29-1.06h.98v5.71c.58-.08,1.05-.31,1.41-.7.35-.39.53-.88.53-1.48,0-.92-.33-1.64-1-2.16l1.32-1.18c.51.36.91.85,1.19,1.46s.43,1.29.43,2.04ZM5.53,184.04c0,.47.16.86.48,1.16.32.3.78.49,1.38.57v-3.33h-.19c-.53.01-.94.16-1.24.43-.29.28-.44.67-.44,1.18Z"/>
    <path class="cls-5" d="M1.56,175.49h2.2v-1.53h1.76v1.53h4.47c.33,0,.57-.06.71-.19.14-.13.22-.37.22-.73,0-.26-.02-.5-.06-.7h1.81c.14.47.22.95.22,1.45,0,1.68-.85,2.54-2.54,2.57h-4.83v1.31h-1.76v-1.31H1.56v-2.39Z"/>
    <path class="cls-5" d="M6.01,168.01c-.04.33-.07.61-.07.86,0,.91.31,1.5.92,1.78h5.87v2.39H3.76v-2.26l1.07-.07c-.82-.48-1.23-1.15-1.23-2,0-.26.04-.51.11-.75l2.3.03Z"/>
    <path class="cls-5" d="M12.73,161.49c-.21.11-.48.19-.8.24.65.58.97,1.33.97,2.26,0,.88-.25,1.61-.76,2.18-.51.58-1.15.87-1.92.87-.95,0-1.68-.35-2.19-1.06-.51-.7-.76-1.72-.77-3.05v-1.1h-.51c-.41,0-.75.11-.99.32-.25.21-.37.55-.37,1.01,0,.4.1.72.29.95.19.23.46.34.79.34v2.39c-.52,0-1-.16-1.44-.48s-.79-.77-1.04-1.36c-.25-.59-.38-1.24-.38-1.97,0-1.11.28-1.98.83-2.63.55-.65,1.33-.97,2.34-.97h3.89c.85,0,1.49-.12,1.93-.36h.14v2.42ZM11.06,163.47c0-.35-.08-.68-.24-.98-.16-.3-.37-.52-.63-.66h-1.54v.89c0,1.2.41,1.84,1.24,1.91h.14c.3,0,.54-.1.74-.31s.29-.5.29-.86Z"/>
    <path class="cls-5" d="M10.25,152.29c-.29,0-.52.14-.69.43s-.32.75-.45,1.4c-.45,2.13-1.35,3.2-2.72,3.2-.8,0-1.46-.33-1.99-.99-.53-.66-.8-1.52-.8-2.59,0-1.14.27-2.05.8-2.73.54-.68,1.23-1.02,2.09-1.02v2.39c-.34,0-.63.11-.85.33-.22.22-.34.57-.34,1.04,0,.4.09.72.27.94.18.22.41.33.7.33.27,0,.48-.13.64-.38s.3-.67.42-1.27c.12-.6.25-1.1.4-1.51.46-1.26,1.27-1.9,2.41-1.9.82,0,1.48.35,1.98,1.05s.76,1.61.76,2.72c0,.75-.13,1.42-.4,2-.27.58-.63,1.04-1.1,1.37-.47.33-.97.5-1.51.5v-2.27c.43-.02.75-.18.98-.47s.34-.69.34-1.18c0-.46-.09-.81-.26-1.04s-.4-.35-.68-.35Z"/>
    <path class="cls-5" d="M8.16,149.03c-.89,0-1.68-.17-2.38-.51-.7-.34-1.23-.83-1.62-1.48-.38-.64-.57-1.39-.57-2.24,0-1.21.37-2.2,1.11-2.96.74-.77,1.75-1.19,3.02-1.28l.61-.02c1.38,0,2.48.38,3.31,1.15.83.77,1.25,1.8,1.25,3.09s-.41,2.32-1.24,3.09-1.96,1.16-3.38,1.16h-.11ZM8.33,146.64c.85,0,1.5-.16,1.95-.48.45-.32.68-.78.68-1.38s-.22-1.03-.67-1.36-1.16-.49-2.14-.49c-.84,0-1.48.16-1.94.49-.46.33-.69.79-.69,1.38s.23,1.04.68,1.36,1.16.48,2.12.48Z"/>
    <path class="cls-5" d="M12.89,130.75c0,1.31-.4,2.38-1.21,3.21-.81.83-1.88,1.24-3.22,1.24h-.23c-.9,0-1.71-.17-2.42-.52s-1.26-.84-1.64-1.48c-.38-.64-.58-1.37-.58-2.18,0-1.23.39-2.19,1.16-2.9.77-.71,1.87-1.06,3.29-1.06h.98v5.71c.59-.08,1.06-.31,1.41-.7.35-.39.53-.88.53-1.48,0-.92-.33-1.64-1-2.16l1.32-1.18c.51.36.9.85,1.19,1.46.28.61.43,1.29.43,2.04ZM5.53,131.03c0,.47.16.86.48,1.16s.78.49,1.38.57v-3.33h-.19c-.53.01-.94.16-1.24.43-.29.28-.44.67-.44,1.18Z"/>
    <path class="cls-5" d="M3.76,123.14l1.04-.07c-.8-.64-1.2-1.5-1.2-2.58,0-.95.28-1.66.84-2.12.56-.46,1.39-.7,2.5-.71h5.79v2.39h-5.73c-.51,0-.88.11-1.11.33-.23.22-.34.59-.34,1.1,0,.67.29,1.18.86,1.52h6.32v2.39H3.76v-2.25Z"/>
    <path class="cls-5" d="M12.73,109.04v2.4H0v-2.4h12.73Z"/>
    <path class="cls-5" d="M8.16,107.7c-.89,0-1.68-.17-2.38-.51-.7-.34-1.23-.84-1.62-1.48-.38-.64-.57-1.39-.57-2.24,0-1.21.37-2.2,1.11-2.96.74-.76,1.75-1.19,3.02-1.28l.61-.02c1.38,0,2.48.38,3.31,1.15s1.25,1.8,1.25,3.09-.41,2.32-1.24,3.09c-.83.77-1.96,1.16-3.38,1.16h-.11ZM8.33,105.3c.85,0,1.5-.16,1.95-.48.45-.32.68-.78.68-1.38s-.22-1.03-.67-1.36c-.45-.33-1.16-.49-2.14-.49-.84,0-1.48.16-1.94.49-.46.33-.69.78-.69,1.38s.23,1.04.68,1.36c.46.32,1.16.48,2.12.48Z"/>
    <path class="cls-5" d="M10.25,92.93c-.29,0-.52.15-.69.44s-.32.76-.45,1.4c-.45,2.13-1.35,3.2-2.72,3.2-.8,0-1.46-.33-1.99-.99-.53-.66-.8-1.52-.8-2.59,0-1.14.27-2.05.8-2.73.54-.68,1.23-1.02,2.09-1.02v2.39c-.34,0-.63.11-.85.33-.22.22-.34.57-.34,1.04,0,.4.09.72.27.94.18.22.41.33.7.33.27,0,.48-.13.64-.38s.3-.68.42-1.27c.12-.6.25-1.1.4-1.51.46-1.27,1.27-1.9,2.41-1.9.82,0,1.48.35,1.98,1.05s.76,1.61.76,2.72c0,.75-.13,1.42-.4,2-.27.58-.63,1.04-1.1,1.37-.47.33-.97.5-1.51.5v-2.27c.43-.02.75-.18.98-.47s.34-.69.34-1.18c0-.46-.09-.81-.26-1.04-.17-.23-.4-.35-.68-.35Z"/>
    <path class="cls-5" d="M8.33,76.99c1.38,0,2.49.31,3.32.94.83.63,1.25,1.47,1.25,2.54,0,.91-.31,1.64-.94,2.2h4.23v2.39H3.76v-2.22l.88-.08c-.7-.58-1.04-1.34-1.04-2.27,0-1.1.41-1.96,1.23-2.58.82-.61,1.94-.92,3.38-.92h.12ZM8.15,79.38c-.83,0-1.48.15-1.93.44s-.68.73-.68,1.29c0,.75.29,1.27.86,1.55h3.67c.59-.29.89-.81.89-1.57,0-1.14-.94-1.72-2.81-1.72Z"/>
    <path class="cls-5" d="M12.73,70.33c-.21.11-.48.19-.8.24.65.58.97,1.33.97,2.26,0,.88-.25,1.61-.76,2.18-.51.58-1.15.87-1.92.87-.95,0-1.68-.35-2.19-1.06-.51-.7-.76-1.72-.77-3.05v-1.1h-.51c-.41,0-.75.11-.99.32-.25.21-.37.55-.37,1.01,0,.4.1.72.29.95.19.23.46.34.79.34v2.39c-.52,0-1-.16-1.44-.48s-.79-.77-1.04-1.36c-.25-.59-.38-1.24-.38-1.97,0-1.1.28-1.98.83-2.63.55-.65,1.33-.97,2.34-.97h3.89c.85,0,1.49-.12,1.93-.36h.14v2.42ZM11.06,72.31c0-.35-.08-.68-.24-.98s-.37-.52-.63-.66h-1.54v.9c0,1.2.41,1.84,1.24,1.91h.14c.3,0,.54-.1.74-.31s.29-.5.29-.86Z"/>
    <path class="cls-5" d="M8.18,66.33c-1.38,0-2.48-.33-3.32-.98-.84-.65-1.26-1.54-1.26-2.65,0-.98.34-1.75,1.01-2.29l-.85-.1v-2.17h8.67c.78,0,1.47.18,2.05.53.58.36,1.02.86,1.33,1.5.3.65.46,1.4.46,2.27,0,.66-.13,1.3-.39,1.92-.26.62-.6,1.1-1.02,1.42l-1.46-1.06c.67-.6,1-1.32,1-2.17,0-.64-.17-1.13-.51-1.48-.34-.35-.82-.53-1.45-.53h-.48c.62.55.94,1.28.94,2.18,0,1.08-.42,1.95-1.26,2.61-.84.67-1.96,1-3.35,1h-.1ZM8.36,63.94c.81,0,1.45-.16,1.91-.49.46-.33.69-.77.69-1.34,0-.73-.27-1.25-.82-1.57h-3.78c-.55.32-.82.84-.82,1.55,0,.57.24,1.03.71,1.35s1.17.49,2.11.49Z"/>
    <path class="cls-5" d="M8.16,56.82c-.89,0-1.68-.17-2.38-.51s-1.23-.84-1.62-1.48c-.38-.64-.57-1.39-.57-2.24,0-1.21.37-2.2,1.11-2.96s1.75-1.19,3.02-1.28l.61-.02c1.38,0,2.48.38,3.31,1.15.83.77,1.25,1.8,1.25,3.09s-.41,2.32-1.24,3.09c-.83.77-1.96,1.16-3.38,1.16h-.11ZM8.33,54.43c.85,0,1.5-.16,1.95-.48.45-.32.68-.78.68-1.38s-.22-1.03-.67-1.36c-.45-.33-1.16-.49-2.14-.49-.84,0-1.48.16-1.94.49-.46.33-.69.78-.69,1.38s.23,1.04.68,1.36c.46.32,1.16.48,2.12.48Z"/>
    <path class="cls-5" d="M10.25,42.05c-.29,0-.52.15-.69.44s-.32.76-.45,1.4c-.45,2.13-1.35,3.2-2.72,3.2-.8,0-1.46-.33-1.99-.99-.53-.66-.8-1.52-.8-2.59,0-1.14.27-2.05.8-2.73.54-.68,1.23-1.02,2.09-1.02v2.39c-.34,0-.63.11-.85.33-.22.22-.34.57-.34,1.04,0,.4.09.72.27.94.18.22.41.33.7.33.27,0,.48-.13.64-.38s.3-.68.42-1.27c.12-.6.25-1.1.4-1.51.46-1.27,1.27-1.9,2.41-1.9.82,0,1.48.35,1.98,1.05s.76,1.61.76,2.72c0,.75-.13,1.42-.4,2-.27.58-.63,1.04-1.1,1.37-.47.33-.97.5-1.51.5v-2.27c.43-.02.75-.18.98-.47s.34-.69.34-1.18c0-.46-.09-.81-.26-1.04-.17-.23-.4-.35-.68-.35Z"/>
    <polygon class="cls-10" points="343.85 124.09 335.36 138.94 352.33 138.94 343.85 124.09"/>
    <path class="cls-3" d="M254.76,237.57c0,.42-.04.83-.12,1.24-.08.41-.2.81-.36,1.19-.16.39-.36.75-.59,1.1-.23.35-.5.67-.79.96-.3.3-.62.56-.96.79-.35.23-.71.43-1.1.59-.39.16-.79.28-1.2.36-.41.08-.82.12-1.24.12s-.83-.04-1.24-.12c-.41-.08-.81-.2-1.19-.36-.39-.16-.75-.36-1.1-.59s-.67-.5-.96-.79c-.3-.29-.56-.62-.79-.96-.23-.35-.43-.71-.59-1.1-.16-.39-.28-.78-.36-1.19-.08-.41-.12-.82-.12-1.24s.04-.83.12-1.24c.08-.41.2-.81.36-1.19.16-.39.36-.75.59-1.1.23-.35.5-.67.79-.96.3-.3.62-.56.96-.79s.71-.43,1.1-.59c.39-.16.78-.28,1.19-.36.41-.08.82-.12,1.24-.12s.83.04,1.24.12c.41.08.81.2,1.2.36.39.16.75.36,1.1.59.35.23.67.5.96.79.3.29.56.62.79.96.23.35.43.71.59,1.1.16.39.28.78.36,1.19.08.41.12.82.12,1.24"/>
    <path class="cls-1" d="M79.06,304.24h-3.92v3.21h4.55v.98h-5.75v-9.05h5.69v.98h-4.49v2.91h3.92v.98Z"/>
    <g>
      <path class="cls-1" d="M76.62,336.57c-1.02-.29-1.77-.66-2.23-1.08-.47-.43-.7-.96-.7-1.59,0-.71.29-1.3.85-1.77.57-.47,1.31-.7,2.22-.7.62,0,1.18.12,1.66.36.49.24.86.57,1.13,1,.27.42.4.88.4,1.39h-1.2c0-.55-.17-.98-.52-1.29-.35-.31-.84-.47-1.47-.47-.59,0-1.05.13-1.38.39-.33.26-.49.62-.49,1.08,0,.37.16.68.47.94.31.26.85.49,1.6.7.75.21,1.34.44,1.77.7s.74.55.94.89.31.74.31,1.2c0,.73-.29,1.32-.86,1.76-.57.44-1.34.66-2.29.66-.62,0-1.2-.12-1.74-.36-.54-.24-.95-.56-1.25-.98s-.44-.88-.44-1.41h1.2c0,.55.2.98.61,1.29.4.32.94.48,1.62.48.63,0,1.11-.13,1.45-.38.34-.26.5-.61.5-1.05s-.16-.79-.47-1.03c-.31-.24-.88-.48-1.69-.72Z"/>
      <path class="cls-1" d="M84.11,340.73c-.91,0-1.65-.3-2.22-.9-.57-.6-.86-1.4-.86-2.4v-.21c0-.67.13-1.26.38-1.79.25-.52.61-.93,1.07-1.23.46-.3.95-.44,1.49-.44.87,0,1.55.29,2.04.86.49.58.73,1.4.73,2.47v.48h-4.56c.02.66.21,1.2.58,1.61.37.41.84.61,1.41.61.41,0,.75-.08,1.03-.25.28-.17.53-.39.74-.66l.7.55c-.56.87-1.41,1.3-2.54,1.3ZM83.97,334.7c-.46,0-.85.17-1.17.51-.32.34-.51.81-.58,1.42h3.37v-.09c-.03-.58-.19-1.04-.47-1.36-.28-.32-.66-.48-1.14-.48Z"/>
      <path class="cls-1" d="M90.76,339.79c.41,0,.77-.12,1.08-.37.31-.25.48-.56.51-.93h1.09c-.02.39-.15.75-.4,1.1-.25.35-.57.63-.98.83s-.84.31-1.3.31c-.92,0-1.64-.31-2.18-.92-.54-.61-.81-1.45-.81-2.51v-.19c0-.66.12-1.24.36-1.75.24-.51.58-.9,1.04-1.19.45-.28.98-.42,1.59-.42.75,0,1.38.23,1.88.68s.77,1.04.8,1.76h-1.09c-.03-.44-.2-.79-.49-1.07-.3-.28-.66-.42-1.1-.42-.58,0-1.04.21-1.36.63-.32.42-.48,1.03-.48,1.82v.22c0,.77.16,1.37.48,1.79.32.42.78.63,1.37.63Z"/>
      <path class="cls-1" d="M96.28,332.25v1.63h1.26v.89h-1.26v4.17c0,.27.06.47.17.61.11.13.3.2.57.2.13,0,.31-.02.55-.07v.93c-.3.08-.6.12-.88.12-.51,0-.9-.16-1.16-.47s-.39-.75-.39-1.32v-4.17h-1.22v-.89h1.22v-1.63h1.15Z"/>
      <path class="cls-1" d="M98.58,337.18c0-.66.13-1.25.39-1.78.26-.53.62-.93,1.08-1.22.46-.29.99-.43,1.58-.43.92,0,1.66.32,2.22.95s.85,1.48.85,2.53v.08c0,.65-.12,1.24-.38,1.76-.25.52-.61.92-1.08,1.21s-1,.43-1.61.43c-.91,0-1.65-.32-2.22-.95-.57-.63-.85-1.47-.85-2.52v-.08ZM99.73,337.31c0,.75.17,1.34.52,1.8.35.45.81.68,1.39.68s1.05-.23,1.39-.69c.34-.46.52-1.1.52-1.92,0-.74-.18-1.33-.53-1.79-.35-.46-.82-.69-1.4-.69s-1.03.23-1.37.68c-.35.45-.52,1.1-.52,1.94Z"/>
      <path class="cls-1" d="M109.39,334.91c-.17-.03-.36-.04-.57-.04-.75,0-1.27.32-1.54.96v4.77h-1.15v-6.72h1.12l.02.78c.38-.6.91-.9,1.6-.9.22,0,.39.03.51.09v1.07Z"/>
    </g>
    <path class="cls-1" d="M82.27,301.7l.03.75c.49-.58,1.16-.87,2-.87.94,0,1.58.36,1.92,1.08.22-.32.51-.58.87-.78.36-.2.78-.3,1.27-.3,1.47,0,2.22.78,2.25,2.34v4.51h-1.15v-4.44c0-.48-.11-.84-.33-1.08s-.59-.36-1.11-.36c-.43,0-.78.13-1.06.38-.28.25-.45.6-.49,1.03v4.46h-1.16v-4.41c0-.98-.48-1.47-1.44-1.47-.75,0-1.27.32-1.55.96v4.91h-1.15v-6.72h1.09Z"/>
    <path class="cls-1" d="M98.54,305.14c0,1.02-.23,1.85-.7,2.47-.47.63-1.1.94-1.9.94s-1.46-.26-1.93-.78v3.24h-1.15v-9.31h1.05l.06.75c.47-.58,1.12-.87,1.95-.87s1.45.3,1.92.91c.47.61.71,1.46.71,2.54v.11ZM97.39,305.01c0-.76-.16-1.36-.48-1.8s-.77-.66-1.33-.66c-.7,0-1.22.31-1.57.93v3.21c.34.61.87.92,1.58.92.55,0,.99-.22,1.31-.66s.49-1.09.49-1.95Z"/>
    <path class="cls-1" d="M103.53,302.73c-.17-.03-.36-.04-.57-.04-.75,0-1.27.32-1.54.96v4.77h-1.15v-6.72h1.12l.02.78c.38-.6.91-.9,1.6-.9.22,0,.39.03.51.09v1.07Z"/>
    <path class="cls-1" d="M107.31,308.55c-.91,0-1.65-.3-2.22-.9-.57-.6-.86-1.4-.86-2.4v-.21c0-.67.13-1.26.38-1.79.25-.52.61-.93,1.07-1.23.46-.3.95-.44,1.49-.44.87,0,1.55.29,2.04.86.49.58.73,1.4.73,2.47v.48h-4.56c.02.66.21,1.2.58,1.61.37.41.84.61,1.41.61.41,0,.75-.08,1.03-.25.28-.17.53-.39.74-.66l.7.55c-.56.87-1.41,1.3-2.54,1.3ZM107.17,302.52c-.46,0-.85.17-1.17.51-.32.34-.51.81-.58,1.42h3.37v-.09c-.03-.58-.19-1.04-.47-1.36-.28-.32-.66-.48-1.14-.48Z"/>
    <path class="cls-1" d="M114.8,306.64c0-.31-.12-.55-.35-.72-.23-.17-.64-.32-1.22-.44-.58-.12-1.04-.27-1.39-.45s-.59-.38-.76-.62c-.16-.24-.25-.53-.25-.86,0-.55.23-1.02.7-1.4.47-.38,1.06-.57,1.79-.57.76,0,1.38.2,1.85.59s.71.9.71,1.51h-1.16c0-.31-.13-.59-.4-.81-.27-.23-.6-.34-1.01-.34s-.75.09-.98.27c-.24.18-.35.42-.35.71,0,.28.11.49.33.63s.62.28,1.19.4c.57.13,1.04.28,1.4.46.36.18.62.39.79.64.17.25.26.56.26.92,0,.6-.24,1.08-.72,1.44-.48.36-1.1.54-1.87.54-.54,0-1.02-.09-1.43-.29-.41-.19-.74-.46-.97-.8-.23-.34-.35-.71-.35-1.11h1.15c.02.38.17.69.46.92.29.23.67.34,1.14.34.43,0,.78-.09,1.05-.26s.39-.41.39-.71Z"/>
    <path class="cls-1" d="M121.4,308.43c-.07-.13-.12-.37-.16-.71-.53.55-1.17.83-1.91.83-.66,0-1.21-.19-1.63-.56-.42-.38-.64-.85-.64-1.43,0-.7.27-1.24.8-1.63.53-.39,1.28-.58,2.25-.58h1.12v-.53c0-.4-.12-.72-.36-.96s-.59-.36-1.06-.36c-.41,0-.75.1-1.03.31-.28.21-.42.46-.42.75h-1.16c0-.34.12-.66.36-.97.24-.31.56-.56.97-.74.41-.18.86-.27,1.35-.27.77,0,1.38.19,1.82.58.44.39.67.92.68,1.6v3.09c0,.62.08,1.11.24,1.47v.1h-1.21ZM119.49,307.55c.36,0,.7-.09,1.03-.28s.56-.43.7-.73v-1.38h-.9c-1.41,0-2.11.41-2.11,1.24,0,.36.12.64.36.85s.55.3.93.3Z"/>
    <path class="cls-3" d="M59.61,303.12c0,.42-.04.83-.12,1.24-.08.41-.2.81-.36,1.19-.16.39-.36.75-.59,1.1-.23.35-.5.67-.79.96s-.62.56-.96.79c-.35.23-.71.43-1.1.59-.39.16-.79.28-1.2.36-.41.08-.82.12-1.24.12s-.83-.04-1.24-.12c-.41-.08-.81-.2-1.19-.36-.39-.16-.75-.36-1.1-.59s-.67-.5-.96-.79-.56-.62-.79-.96c-.23-.35-.43-.71-.59-1.1-.16-.39-.28-.78-.36-1.19-.08-.41-.12-.82-.12-1.24s.04-.83.12-1.24c.08-.41.2-.81.36-1.19.16-.39.36-.75.59-1.1.23-.35.5-.67.79-.96.3-.3.62-.56.96-.79.35-.23.71-.43,1.1-.59.39-.16.78-.28,1.19-.36.41-.08.82-.12,1.24-.12s.83.04,1.24.12c.41.08.81.2,1.2.36.39.16.75.36,1.1.59.35.23.67.49.96.79.3.3.56.62.79.96.23.35.43.71.59,1.1.16.39.28.78.36,1.19.08.41.12.82.12,1.24"/>
    <polygon class="cls-10" points="55.37 327.52 46.88 342.37 63.85 342.37 55.37 327.52"/>
  </g>
</svg>