<?xml version="1.0" encoding="UTF-8"?>
<svg id="Capa_2" data-name="Capa 2" xmlns="http://www.w3.org/2000/svg" viewBox="0 0 72.76 76">
  <defs>
    <style>
      .cls-1 {
        fill: #fff;
        stroke-width: 0px;
      }
    </style>
  </defs>
  <g id="Capa_1-2" data-name="Capa 1">
    <path class="cls-1" d="M72.76,35.77c0-9.56-3.78-18.54-10.66-25.3C55.23,3.72,46.09,0,36.38,0S17.53,3.72,10.65,10.48C3.78,17.23,0,26.22,0,35.77s3.78,18.54,10.65,25.3c1.38,1.36,2.85,2.59,4.4,3.69-.05.42-.07.84-.07,1.27v5.52h9.06v4.45h24.67v-4.45h9.06v-5.52c0-.43-.02-.85-.07-1.27,1.55-1.11,3.02-2.34,4.4-3.69,6.87-6.76,10.66-15.74,10.66-25.3ZM36.38,4.45c4.86,0,9.46,1.08,13.58,3v1.09c-.97.34-1.86.89-2.6,1.64-1.29,1.3-1.97,3.02-1.92,4.84.1,3.58,3.19,6.49,6.88,6.49h3.23c2.08,0,3.77,1.66,3.77,3.71s-1.69,3.71-3.77,3.71h-3.32c-6.24,0-11.32,4.99-11.32,11.13,0,.71.07,1.39.2,2.06-1.57.79-2.9,2-3.81,3.47-.3-.03-.6-.04-.91-.04s-.61.02-.91.04c-1.68-2.7-4.7-4.5-8.15-4.5-1.34,0-2.61.27-3.76.76-.96-2.08-3.1-3.53-5.57-3.53-.88,0-1.59-.7-1.59-1.56v-4.28h2.14c3.74,0,6.79-3,6.79-6.68v-2.23h1.98c3.74,0,6.79-3,6.79-6.68s-3.05-6.68-6.79-6.68h-9.38c5.21-3.65,11.57-5.79,18.43-5.79ZM41.73,47.18c.92-.99,2.24-1.61,3.71-1.61,2.77,0,5.02,2.22,5.02,4.94,0,2.56-2,4.68-4.54,4.92,0-.15.01-.31.01-.46,0-3.23-1.67-6.09-4.2-7.78ZM41.4,54.96c0,2.72-2.25,4.94-5.02,4.94s-5.02-2.22-5.02-4.94,2.25-4.94,5.02-4.94,5.02,2.22,5.02,4.94ZM26.84,55.43c-2.54-.24-4.54-2.35-4.54-4.92,0-2.72,2.25-4.94,5.02-4.94,1.47,0,2.79.62,3.71,1.61-2.53,1.69-4.2,4.55-4.2,7.78,0,.15,0,.31.01.46ZM16.51,60.23c-7.29-5.74-11.98-14.57-11.98-24.45,0-8.11,3.15-15.51,8.31-21.08h14.48c1.25,0,2.26,1,2.26,2.23s-1.02,2.23-2.26,2.23h-6.51v6.68c0,1.23-1.01,2.23-2.26,2.23h-6.67v8.73c0,3.32,2.74,6.02,6.12,6.02.88,0,1.59.7,1.59,1.56v.65c-1.14,1.54-1.81,3.44-1.81,5.49,0,2.22.79,4.26,2.1,5.86-1.39,1.04-2.53,2.36-3.36,3.85ZM24.54,67.09h-5.03v-1.06c0-2.88,1.66-5.51,4.22-6.82,1.11.44,2.32.69,3.59.69.31,0,.61-.02.91-.04.21.34.44.66.7.97-2.1,1.57-3.64,3.78-4.38,6.27ZM44.18,71.55h-15.61v-1.06c0-2.88,1.66-5.51,4.22-6.82,1.11.44,2.32.69,3.59.69s2.48-.25,3.59-.69c2.56,1.31,4.22,3.94,4.22,6.82v1.06ZM53.24,67.09h-5.03c-.74-2.49-2.29-4.69-4.38-6.27.25-.31.48-.63.7-.97.3.03.6.04.91.04,1.27,0,2.48-.25,3.59-.69,2.55,1.31,4.22,3.94,4.22,6.82v1.06ZM56.25,60.23c-.83-1.49-1.98-2.81-3.36-3.85,1.31-1.61,2.1-3.65,2.1-5.86,0-5.15-4.24-9.34-9.46-9.39-.05-.34-.09-.69-.09-1.04,0-3.68,3.05-6.68,6.79-6.68h3.32c4.58,0,8.3-3.66,8.3-8.16s-3.72-8.16-8.3-8.16h-3.23c-1.27,0-2.32-.97-2.36-2.16-.02-.61.21-1.18.64-1.62.43-.43,1.01-.67,1.62-.67h2.26v-2.59c8.29,5.66,13.74,15.09,13.74,25.75,0,9.88-4.68,18.71-11.98,24.45Z"/>
  </g>
</svg>