<?xml version="1.0" encoding="UTF-8"?>
<svg id="Capa_2" data-name="Capa 2" xmlns="http://www.w3.org/2000/svg" viewBox="0 0 71.43 76.07">
  <defs>
    <style>
      .cls-1 {
        fill: #fff;
        stroke-width: 0px;
      }
    </style>
  </defs>
  <g id="Capa_1-2" data-name="Capa 1">
    <g>
      <path class="cls-1" d="M71.43,26.28l-9.84-7.29-3.81-11.73-12.18-.05L35.72,0l-9.89,7.21-12.18.05-3.81,11.73L0,26.28l3.73,11.76-3.73,11.76,9.84,7.29,3.81,11.73,12.19.05,9.89,7.21,9.88-7.21,12.19-.05,3.81-11.73,9.84-7.29-3.73-11.76,3.73-11.76ZM66,48l-8.34,6.18-3.23,9.95-10.33.04-8.38,6.11-8.39-6.11-10.33-.04-3.23-9.95-8.34-6.18,3.17-9.97-3.17-9.97,8.34-6.18,3.23-9.95,10.33-.04,8.39-6.12,8.38,6.12,10.33.04,3.23,9.95,8.34,6.18-3.17,9.97,3.17,9.97Z"/>
      <polygon class="cls-1" points="37.89 35.47 35.69 30.78 33.36 35.41 28.28 36.09 31.9 39.76 30.97 44.87 35.53 42.51 40.04 44.99 39.24 39.86 42.96 36.29 37.89 35.47"/>
      <path class="cls-1" d="M35.72,17.61c-11.12,0-20.16,9.16-20.16,20.42s9.04,20.42,20.16,20.42,20.16-9.16,20.16-20.42-9.04-20.42-20.16-20.42ZM35.72,53.77c-8.56,0-15.53-7.06-15.53-15.73s6.97-15.73,15.53-15.73,15.53,7.06,15.53,15.73-6.97,15.73-15.53,15.73Z"/>
    </g>
  </g>
</svg>