<?xml version="1.0" encoding="UTF-8"?>
<svg id="Capa_2" data-name="Capa 2" xmlns="http://www.w3.org/2000/svg" viewBox="0 0 73.52 73.52">
  <defs>
    <style>
      .cls-1 {
        fill: #1c4dde;
        stroke-width: 0px;
      }
    </style>
  </defs>
  <g id="Capa_1-2" data-name="Capa 1">
    <g>
      <path class="cls-1" d="M36.76,33.93c9.36,0,16.97-7.61,16.97-16.97S46.12,0,36.76,0s-16.97,7.61-16.97,16.97,7.61,16.97,16.97,16.97ZM36.76,5.66c6.24,0,11.31,5.07,11.31,11.31s-5.07,11.31-11.31,11.31-11.31-5.07-11.31-11.31,5.07-11.31,11.31-11.31Z"/>
      <path class="cls-1" d="M61.63,40.55c-16.5-5.06-33.23-5.06-49.73,0C4.89,42.7,0,49.36,0,56.76v16.76h73.52v-16.76c0-7.39-4.89-14.06-11.89-16.21ZM35.2,42.47c1.04-.02,2.08-.02,3.12,0l1.13,13.14-2.69,1.79-2.69-1.79,1.14-13.14ZM67.87,67.87h-8.48v-9.9h-5.66v9.9H19.79v-9.9h-5.66v9.9H5.66v-11.11c0-4.93,3.25-9.38,7.9-10.81,5.29-1.63,10.61-2.65,15.94-3.16l-1.35,15.67,8.62,5.73,8.62-5.73-1.35-15.67c5.33.51,10.65,1.53,15.94,3.16,4.65,1.43,7.9,5.87,7.9,10.81v11.11Z"/>
    </g>
  </g>
</svg>