<?xml version="1.0" encoding="UTF-8"?>
<svg id="Capa_2" data-name="Capa 2" xmlns="http://www.w3.org/2000/svg" viewBox="0 0 95.64 53.12">
  <defs>
    <style>
      .cls-1 {
        fill: #1c4dde;
        stroke-width: 0px;
      }
    </style>
  </defs>
  <g id="Capa_1-2" data-name="Capa 1">
    <g>
      <path class="cls-1" d="M78.54,9.46c-.48,0-.97.02-1.43.07V0H0v53.12h77.1v-9.52c.46.05.96.07,1.43.07,9.42,0,17.1-7.66,17.1-17.1s-7.68-17.1-17.1-17.1ZM38.54,33.47L8.98,5.12h59.14l-29.58,28.35ZM23.62,26.26L5.12,44.76V8.52l18.5,17.74ZM27.32,29.8l11.23,10.77,11.44-10.96,18.38,18.39H9.12l18.2-18.2ZM53.68,26.06l18.3-17.55v2.25c-6.2,2.58-10.55,8.69-10.55,15.79s4.35,13.21,10.55,15.79v2.03l-18.3-18.31ZM78.54,38.54c-.48,0-.97-.03-1.43-.1-1.88-.21-3.62-.87-5.12-1.86-3.28-2.13-5.43-5.84-5.43-10.02s2.15-7.89,5.43-10.02c.29-.19.59-.36.9-.52,1.28-.69,2.71-1.17,4.22-1.34h0c.46-.07.96-.1,1.43-.1,6.61,0,11.98,5.38,11.98,11.98s-5.38,11.98-11.98,11.98Z"/>
      <polygon class="cls-1" points="77.1 17.24 76.65 17.69 74.68 19.65 75.74 20.71 77.1 22.07 79.05 24 77.1 24 71.98 24 69.11 24 69.11 29.12 71.98 29.12 77.1 29.12 79.05 29.12 77.1 31.07 77.1 31.07 74.68 33.49 75.74 34.54 77.1 35.9 78.31 37.11 88.85 26.56 78.31 16.03 77.1 17.24"/>
    </g>
  </g>
</svg>