<?xml version="1.0" encoding="UTF-8"?>
<svg id="Capa_2" data-name="Capa 2" xmlns="http://www.w3.org/2000/svg" viewBox="0 0 89 67.45">
  <defs>
    <style>
      .cls-1 {
        fill: #fff;
        stroke-width: 0px;
      }
    </style>
  </defs>
  <g id="Capa_1-2" data-name="Capa 1">
    <g>
      <path class="cls-1" d="M43.17,22.04l1.16.85,1.17-.84c1.82-1.29,10.88-8.04,10.88-13.74,0-4.58-3.75-8.31-8.36-8.31-1.23,0-2.43.27-3.53.78-1.1-.51-2.3-.78-3.53-.78-4.61,0-8.36,3.73-8.36,8.31,0,5.76,8.8,12.45,10.56,13.73ZM40.97,4c.86,0,1.7.25,2.42.73l1.1.73,1.11-.73c.72-.48,1.56-.73,2.42-.73,2.4,0,4.36,1.93,4.36,4.31s-4.37,6.78-8.02,9.61c-3.54-2.8-7.75-7.12-7.75-9.61s1.96-4.31,4.36-4.31Z"/>
      <path class="cls-1" d="M44.5,27.13c-5.38,0-9.76,4.29-9.76,9.57s4.38,9.57,9.76,9.57,9.76-4.29,9.76-9.57-4.38-9.57-9.76-9.57ZM50.17,36.7c0,3.06-2.55,5.55-5.68,5.55s-5.67-2.49-5.67-5.55,2.55-5.55,5.67-5.55,5.68,2.49,5.68,5.55Z"/>
      <path class="cls-1" d="M68.43,40.22c5.38,0,9.76-4.29,9.76-9.57s-4.38-9.57-9.76-9.57-9.76,4.29-9.76,9.57,4.38,9.57,9.76,9.57ZM62.75,30.65c0-3.06,2.55-5.55,5.67-5.55s5.68,2.49,5.68,5.55-2.55,5.55-5.68,5.55-5.67-2.49-5.67-5.55Z"/>
      <path class="cls-1" d="M89,51.93c0-4.17-2.82-7.93-6.86-9.14-9.1-2.74-18.33-2.74-27.43,0-2.26.68-4.23,2.23-5.46,4.25-3.16-.32-6.35-.32-9.51,0-1.23-2.03-3.2-3.57-5.46-4.25-9.1-2.74-18.33-2.74-27.43,0-4.04,1.21-6.86,4.97-6.86,9.14v9.47h23.93v6.05h41.14v-6.05h23.93v-9.47ZM77.19,52.08v5.29h-12.15c-.26-3.93-3-7.4-6.83-8.54-1.4-.43-2.84-.77-4.34-1.08.58-.51,1.26-.89,2.03-1.12,2.29-.68,4.62-1.18,6.93-1.48,1.14-.15,1.55-.19,2.64-.19h4.51c1.21,0,3,.05,4.06.19,2.31.3,4.64.8,6.93,1.48,2.33.71,3.95,2.89,3.95,5.3v5.44h-3.63v-5.29h-4.09ZM11.81,57.37v-5.29h-4.09v5.29h-3.63v-5.44c0-2.41,1.63-4.59,3.95-5.3,2.29-.68,4.62-1.18,6.93-1.48,1.07-.14,1.49-.19,2.64-.19h4.51c1.21,0,3,.05,4.06.19,2.31.3,4.64.8,6.93,1.48.76.23,1.45.62,2.02,1.12-1.46.29-2.85.63-4.21,1.04-.04.01-.08.03-.13.04-3.83,1.14-6.57,4.61-6.83,8.54h-12.15ZM57.35,63.42v-2.03h0v-3.27h-4.09v5.29h-17.53v-2.02h0v-3.27h0s-4.09,0-4.09,0v5.29h-3.63v-5.54c.03-1.64.8-3.19,2.12-4.24,0,0,0,0,0,0,.16-.13.31-.24.46-.33.06-.04.12-.07.18-.1.1-.06.2-.12.31-.17l.35-.16c.18-.08.35-.14.52-.19,1.79-.54,3.59-.96,5.35-1.25l.14-.02s.05,0,.08-.01h.02c.43-.08.88-.13,1.34-.19l.14-.02c.63-.08,1.05-.13,1.52-.15l.57-.02h0c.13-.01.26-.01.42-.01h4.51c.66,0,1.54.01,2.4.06.6.03,1.19.07,1.66.13.46.06.91.12,1.36.19,1.83.29,3.7.73,5.58,1.29.16.04.33.1.5.18l.36.17c.14.07.28.14.42.23.02.01.03.02.05.03.16.1.31.21.48.34h.01c1.31,1.07,2.08,2.6,2.11,4.23v3.53h0v2.03h-3.63Z"/>
      <path class="cls-1" d="M20.57,40.22c5.38,0,9.76-4.29,9.76-9.57s-4.38-9.57-9.76-9.57-9.76,4.29-9.76,9.57,4.38,9.57,9.76,9.57ZM14.9,30.65c0-3.06,2.55-5.55,5.67-5.55s5.67,2.49,5.67,5.55-2.55,5.55-5.67,5.55-5.67-2.49-5.67-5.55Z"/>
    </g>
  </g>
</svg>