<?xml version="1.0" encoding="UTF-8"?>
<svg id="Capa_2" data-name="Capa 2" xmlns="http://www.w3.org/2000/svg" viewBox="0 0 78.65 69.02">
  <defs>
    <style>
      .cls-1 {
        fill: #fff;
        stroke-width: 0px;
      }
    </style>
  </defs>
  <g id="Capa_1-2" data-name="Capa 1">
    <path class="cls-1" d="M74.04,38.35c-.25-.33-.51-.64-.8-.93l-10.46-10.5c-.43-.43-1.02-.68-1.63-.68h-6.98c-5.47,0-9.91-4.46-9.91-9.94,0-1.28-1.03-2.31-2.3-2.31h-6.98c-5.64,0-10.35-4.04-11.42-9.38h24.44l11.54,11.57c.43.43,1.02.68,1.63.68h12.9v21.48ZM71.21,43.95s0,0,0,.01c-.07,1.21-.66,2.33-1.62,3.08l-19.72,15.38c-1.78,1.39-4.12,1.64-6.09.81l1.54-1.54c2.82-2.83,2.82-7.43,0-10.26,0,0,0,0,0,0-1.68-1.67-3.97-2.35-6.15-2.04-.26-1.39-.92-2.71-1.99-3.78,0,0,0,0,0,0-1.68-1.67-3.97-2.35-6.15-2.04-.26-1.39-.92-2.71-1.99-3.78,0,0,0,0,0,0-1.68-1.67-3.97-2.35-6.15-2.04-.26-1.39-.92-2.71-1.99-3.78,0,0,0,0,0,0-2.83-2.82-7.43-2.82-10.24,0l-4.56,4.57h-1.48v-21.63h14.65c.61,0,1.2-.24,1.63-.68l2.46-2.47c2.95,3.02,7.07,4.9,11.61,4.9h4.86c1.11,6.93,7.11,12.25,14.34,12.25h6.03l9.79,9.83c.86.86,1.31,2.04,1.23,3.25M42.07,58.42l-5.25,5.25c-1.02,1.02-2.67,1.04-3.72,0-1.03-1.03-1.04-2.69,0-3.73l5.23-5.25c1.02-1.03,2.69-1.03,3.73,0,1.02,1.03,1.02,2.7,0,3.73M28.67,57.84c-1.02,1.02-2.68,1.04-3.72,0-1.03-1.02-1.04-2.69,0-3.73l5.23-5.25c1.02-1.03,2.69-1.02,3.73,0,1.02,1.03,1.02,2.7,0,3.73l-5.25,5.25ZM20.53,52.01c-1.02,1.02-2.67,1.04-3.72,0-1.03-1.03-1.04-2.69,0-3.73l5.23-5.25c1.02-1.03,2.69-1.02,3.73,0,1.02,1.03,1.02,2.7,0,3.73l-5.25,5.25ZM12.39,46.17c-1.02,1.02-2.68,1.04-3.72,0-1.03-1.02-1.04-2.69,0-3.73l5.23-5.25c1.02-1.03,2.69-1.02,3.73,0,1.02,1.03,1.02,2.7,0,3.73l-5.24,5.25ZM62.1,12.25L50.55.68c-.43-.43-1.02-.68-1.63-.68h-27.92c-1.28,0-2.31,1.06-2.3,2.34,0,2.75.69,5.34,1.9,7.61l-2.29,2.3H0v28.56c0,1.28,1.03,2.31,2.3,2.31h1.08c-.64,3.89,1.96,6.25,2.03,6.32.6.6,2.75,2.54,6.14,2.05.27,1.42.96,2.73,2,3.78.6.6,2.75,2.54,6.15,2.05.27,1.43.96,2.74,2,3.78.6.61,2.75,2.53,6.15,2.05.36,1.94,1.51,3.68,3.29,4.81,2.9,1.84,6.74,1.18,9.17-1.25l.08-.07c1.74,1.11,3.75,1.68,5.76,1.68,2.31,0,4.62-.74,6.56-2.25l19.72-15.38c2-1.56,3.24-3.91,3.39-6.45.02-.38.02-.75,0-1.12h.54c1.27,0,2.3-1.03,2.3-2.31V12.27l-16.55-.02Z"/>
  </g>
</svg>