<?xml version="1.0" encoding="UTF-8"?>
<svg id="Capa_2" data-name="Capa 2" xmlns="http://www.w3.org/2000/svg" viewBox="0 0 80.17 79">
  <defs>
    <style>
      .cls-1 {
        fill: #1c4dde;
        stroke-width: 0px;
      }
    </style>
  </defs>
  <g id="Capa_1-2" data-name="Capa 1">
    <g>
      <path class="cls-1" d="M67.08,32.4c0-14.1-12.1-25.55-26.99-25.55s-26.99,11.45-26.99,25.55c0,7.85,3.75,14.85,9.62,19.54h-9.62v27.06h53.98v-27.06h-9.62c5.88-4.69,9.62-11.69,9.62-19.54ZM60.73,72.99H19.45v-4.51h41.28v4.51ZM60.73,57.96v4.51H19.45v-4.51h41.28ZM40.09,51.94c-11.37,0-20.64-8.78-20.64-19.54s9.27-19.54,20.64-19.54,20.64,8.78,20.64,19.54-9.27,19.54-20.64,19.54Z"/>
      <polygon class="cls-1" points="70.25 0 60.34 7.48 64.29 12.18 67.08 10.08 67.08 18.88 73.43 18.88 73.43 10.08 76.21 12.18 80.17 7.48 70.25 0"/>
      <polygon class="cls-1" points="13.1 18.9 13.1 10.09 15.88 12.19 19.84 7.49 9.92 0 0 7.49 3.96 12.19 6.74 10.09 6.74 18.9 13.1 18.9"/>
      <path class="cls-1" d="M43.06,41.99c-4.8,0-7.62-2.13-8.8-5.26h7.2l.65-3.03h-8.68c-.04-.25-.04-.61-.04-.9,0-.33,0-.72.04-1.04h9.29l.72-3.07h-9.1c1.26-3.14,4.08-5.27,8.72-5.27.91,0,1.83.07,2.74.32l1.3-3.61c-1.3-.36-2.67-.54-4.04-.54-7.54,0-11.69,3.93-13.06,9.09h-2.63v3.07h2.13c-.04.36-.04.72-.04,1.08v.87h-2.1v3.03h2.55c1.33,5.3,5.33,9.05,13.14,9.05,1.56,0,3.2-.22,4.65-.65l-1.18-3.75c-1.14.4-2.33.61-3.47.61Z"/>
    </g>
  </g>
</svg>