<?xml version="1.0" encoding="UTF-8"?>
<svg id="Capa_2" data-name="Capa 2" xmlns="http://www.w3.org/2000/svg" viewBox="0 0 37.36 37.36">
  <defs>
    <style>
      .cls-1 {
        fill: #7f7f7f;
        stroke-width: 0px;
      }
    </style>
  </defs>
  <g id="Capa_1-2" data-name="Capa 1">
    <g>
      <path class="cls-1" d="M18.68,0C12.34,0,6.59,3.13,3.15,8.31l-.87-7.06L.2,1.5l1.29,10.45,10.45-1.29-.26-2.07-6.78.84c3.06-4.57,8.16-7.34,13.77-7.34,9.15,0,16.59,7.44,16.59,16.59s-7.44,16.59-16.59,16.59S2.09,27.83,2.09,18.68H0c0,10.3,8.38,18.68,18.68,18.68s18.68-8.38,18.68-18.68S28.98,0,18.68,0Z"/>
      <polygon class="cls-1" points="17.34 9.19 17.34 19.11 24.9 26.68 26.38 25.2 19.43 18.25 19.43 9.19 17.34 9.19"/>
    </g>
  </g>
</svg>