<?xml version="1.0" encoding="UTF-8"?>
<svg id="Capa_2" data-name="Capa 2" xmlns="http://www.w3.org/2000/svg" viewBox="0 0 35.98 36.81">
  <defs>
    <style>
      .cls-1 {
        fill: #7f7f7f;
        stroke-width: 0px;
      }
    </style>
  </defs>
  <g id="Capa_1-2" data-name="Capa 1">
    <g>
      <path class="cls-1" d="M35.98,16.89h-3.53v-6.56L22.1,0H3.48v16.89H0v16.1h3.69v3.82h28.49v-3.82h3.79v-16.1ZM22.64,3.69l5.94,5.92h-5.94V3.69ZM5.71,2.23h14.7v9.62h9.81v5.04H5.71V2.23ZM29.96,34.58H5.93v-1.59h24.03v1.59ZM33.75,30.76H2.23v-11.64h31.52v11.64Z"/>
      <path class="cls-1" d="M12.24,25.81h.57c1.45,0,2.3-.56,2.3-2.04,0-1.66-.89-2.07-2.37-2.07h-1.94v6.09h1.45v-1.98ZM12.24,22.94h.46c.7,0,.93.2.93.81s-.24.82-.93.82h-.46v-1.63Z"/>
      <path class="cls-1" d="M20.7,24.73c0-2.11-.96-3.03-2.55-3.03h-2.16v6.09h2.35c1.41,0,2.36-1.12,2.36-3.06ZM17.43,26.56v-3.62h.61c.96,0,1.19.9,1.19,1.77,0,.97-.23,1.85-1.19,1.85h-.61Z"/>
      <polygon class="cls-1" points="23.06 25.45 25.16 25.45 25.16 24.21 23.06 24.21 23.06 22.94 25.36 22.94 25.36 21.7 21.61 21.7 21.61 27.79 23.06 27.79 23.06 25.45"/>
    </g>
  </g>
</svg>