<?xml version="1.0" encoding="UTF-8"?>
<svg id="Capa_2" data-name="Capa 2" xmlns="http://www.w3.org/2000/svg" viewBox="0 0 18.99 20.21">
  <defs>
    <style>
      .cls-1 {
        fill: #3a61d9;
        stroke-width: 0px;
      }
    </style>
  </defs>
  <g id="Capa_1-2" data-name="Capa 1">
    <g>
      <path class="cls-1" d="M7.06,17.77h4.86l.41-4.7,1.37-.44v-4.16c0-1.24-1-2.24-2.24-2.24h-3.93c-1.24,0-2.24,1-2.24,2.24v4.16l1.37.44.41,4.7ZM6.81,8.46c0-.4.32-.72.72-.72h3.93c.4,0,.72.32.72.72v3.06l-1.27.41-.37,4.32h-2.08l-.37-4.32-1.27-.41v-3.06Z"/>
      <path class="cls-1" d="M9.52,6.1c1.68,0,3.05-1.37,3.05-3.05s-1.37-3.05-3.05-3.05-3.05,1.37-3.05,3.05,1.37,3.05,3.05,3.05ZM9.52,1.52c.84,0,1.53.69,1.53,1.53s-.69,1.53-1.53,1.53-1.53-.69-1.53-1.53.69-1.53,1.53-1.53Z"/>
      <path class="cls-1" d="M13.73,14.3l-.22,1.5c3.04.44,3.9,1.17,3.96,1.29-.22.56-3.15,1.6-7.97,1.6s-7.77-1.04-7.98-1.54c.07-.17.94-.91,3.96-1.35l-.22-1.5c-2.4.35-5.26,1.12-5.26,2.82,0,2.44,5.97,3.09,9.5,3.09s9.49-.65,9.49-3.09c0-1.7-2.86-2.47-5.26-2.82Z"/>
    </g>
  </g>
</svg>