<?xml version="1.0" encoding="UTF-8"?>
<svg id="Capa_2" data-name="Capa 2" xmlns="http://www.w3.org/2000/svg" viewBox="0 0 78.04 76">
  <defs>
    <style>
      .cls-1 {
        fill: #1c4dde;
        stroke-width: 0px;
      }
    </style>
  </defs>
  <g id="Capa_1-2" data-name="Capa 1">
    <g>
      <path class="cls-1" d="M60.71,41.33c-.95,0-1.89.07-2.8.24,0,0,0,0,0,0h0c-.22.03-.43.08-.64.12.21-.04.42-.09.64-.12l15.35-14.97-25.31-3.67L36.62,0l-11.31,22.94L0,26.61l18.3,17.85-4.33,25.21,22.65-11.9,6.97,3.67h0c1.33,8.25,8.51,14.57,17.11,14.57,9.57,0,17.33-7.79,17.33-17.33s-7.77-17.34-17.33-17.34ZM51.85,43.77c-.43.26-.86.53-1.26.82.57-.41,1.16-.78,1.77-1.12-.17.09-.34.19-.51.29ZM20.88,60.17l3.01-17.52-12.73-12.4,17.59-2.56,7.87-15.95,7.87,15.95,17.59,2.56-12.73,12.4.43,2.56s0,0,0,0h0c-3.15,2.58-5.4,6.21-6.14,10.38-.19.99-.28,2.02-.28,3.08h0c0-1.06.09-2.09.28-3.08l-7.02-3.68-15.74,8.27ZM60.71,70.81c-4.38,0-8.22-2.34-10.35-5.81,0,0,0,0,0,0h0c-.29-.46-.55-.95-.77-1.46-.66-1.49-1.03-3.14-1.03-4.88,0-.16,0-.33.03-.49.07-2.47.92-4.76,2.28-6.63h0c1.18-1.64,2.77-2.98,4.6-3.84h0c1.57-.76,3.36-1.19,5.22-1.19,6.7,0,12.14,5.45,12.14,12.15s-5.45,12.14-12.14,12.14Z"/>
      <polygon class="cls-1" points="59.04 59.18 57.19 57.68 57.19 57.68 56.71 57.28 56.14 56.81 52.85 60.83 52.85 60.83 52.85 60.83 58.53 65.46 58.53 65.46 58.53 65.46 59.39 66.17 69.91 55.65 66.24 51.99 59.04 59.18"/>
    </g>
  </g>
</svg>