<?xml version="1.0" encoding="UTF-8"?>
<svg id="Capa_2" data-name="Capa 2" xmlns="http://www.w3.org/2000/svg" viewBox="0 0 78.65 76">
  <defs>
    <style>
      .cls-1 {
        fill: #fff;
        stroke-width: 0px;
      }
    </style>
  </defs>
  <g id="Capa_1-2" data-name="Capa 1">
    <g>
      <path class="cls-1" d="M71.74,24.79c-3.81,0-6.91,3-6.91,6.68v11.34l-.73.7c-.33-.67-.78-1.29-1.35-1.84-2.7-2.6-7.08-2.6-9.78,0l-11.23,10.85c-.94.91-1.75,1.91-2.42,2.98-.67-1.07-1.48-2.07-2.42-2.98l-11.23-10.85c-2.7-2.6-7.08-2.6-9.78,0-.57.55-1.02,1.18-1.35,1.84l-.73-.7v-11.34c0-3.68-3.1-6.68-6.91-6.68S0,27.78,0,31.47v15.57l14.04,18.54v10.42h50.56v-10.42l14.05-18.54v-15.57c0-3.68-3.1-6.68-6.91-6.68ZM37.02,71.55h-18.37v-7.42l-14.05-18.54v-14.12c0-1.23,1.03-2.23,2.3-2.23s2.3,1,2.3,2.23v13.18l12.58,12.16,3.26-3.15-5.9-5.7c-.89-.87-.89-2.28,0-3.15.9-.87,2.36-.87,3.26,0l11.23,10.85c2.18,2.1,3.37,4.9,3.37,7.87v8.01ZM74.04,45.58l-14.04,18.54v7.42h-18.37v-8.01c0-2.97,1.2-5.77,3.37-7.87l11.23-10.85c.9-.87,2.36-.87,3.26,0,.9.87.9,2.28,0,3.15l-5.9,5.7,3.26,3.15,12.58-12.16v-13.18c0-1.23,1.03-2.23,2.3-2.23s2.3,1,2.3,2.23v14.12Z"/>
      <path class="cls-1" d="M20.13,28.19l19.2,15.25,19.2-15.25c2.75-2.18,4.66-5.05,5.52-8.29.8-3,.67-6.18-.36-9.17-1.01-2.94-2.82-5.48-5.24-7.36C55.82,1.33,52.6.17,49.12.02c-.3-.01-.61-.02-.92-.02-3.08,0-6.13.69-8.88,2-2.75-1.31-5.8-2-8.88-2-.3,0-.61,0-.92.02-3.48.15-6.7,1.31-9.32,3.34-2.42,1.88-4.23,4.43-5.24,7.36-1.03,3-1.16,6.17-.36,9.17.86,3.24,2.77,6.1,5.52,8.29ZM19.34,12.13c1.22-3.54,4.59-7.41,10.39-7.67.23,0,.47-.01.71-.01,2.71,0,5.38.69,7.73,2l1.15.65,1.15-.65c2.34-1.31,5.01-2,7.73-2,.24,0,.47,0,.71.01,5.8.25,9.17,4.12,10.39,7.67,1.27,3.67.95,8.91-3.71,12.61l-16.27,12.93-16.27-12.93c-4.66-3.71-4.98-8.95-3.71-12.61Z"/>
    </g>
  </g>
</svg>