<?xml version="1.0" encoding="UTF-8"?>
<svg id="Capa_2" data-name="Capa 2" xmlns="http://www.w3.org/2000/svg" viewBox="0 0 47.91 34.35">
  <defs>
    <style>
      .cls-1 {
        fill: #3a61d9;
        stroke-width: 0px;
      }
    </style>
  </defs>
  <g id="Capa_1-2" data-name="Capa 1">
    <g>
      <path class="cls-1" d="M23.4,17.25c0-.39-.17-.76-.48-1.01L11.54,6.96c-.39-.32-.92-.38-1.38-.17-.45.21-.74.67-.74,1.17v7.95H1.3c-.72,0-1.3.58-1.3,1.3s.58,1.3,1.3,1.3h8.13v7.95c0,.5.29.96.74,1.17.18.08.37.13.56.13.29,0,.58-.1.82-.29l11.38-9.21c.3-.25.48-.62.48-1ZM12.02,23.74v-13.04l8.03,6.55-8.03,6.5Z"/>
      <path class="cls-1" d="M19.71,2.59h26.9c.72,0,1.3-.58,1.3-1.3s-.58-1.3-1.3-1.3h-26.9c-.72,0-1.3.58-1.3,1.3s.58,1.3,1.3,1.3Z"/>
      <path class="cls-1" d="M46.61,31.76h-26.9c-.72,0-1.3.58-1.3,1.3s.58,1.3,1.3,1.3h26.9c.72,0,1.3-.58,1.3-1.3s-.58-1.3-1.3-1.3Z"/>
      <path class="cls-1" d="M46.61,8.12h-17.18c-.72,0-1.3.58-1.3,1.3s.58,1.3,1.3,1.3h17.18c.72,0,1.3-.58,1.3-1.3s-.58-1.3-1.3-1.3Z"/>
      <path class="cls-1" d="M46.61,18.62c.72,0,1.3-.58,1.3-1.3s-.58-1.3-1.3-1.3h-12.61c-.72,0-1.3.58-1.3,1.3s.58,1.3,1.3,1.3h12.61Z"/>
      <path class="cls-1" d="M46.61,24.07h-17.18c-.72,0-1.3.58-1.3,1.3s.58,1.3,1.3,1.3h17.18c.72,0,1.3-.58,1.3-1.3s-.58-1.3-1.3-1.3Z"/>
    </g>
  </g>
</svg>