<?xml version="1.0" encoding="UTF-8"?>
<svg id="Capa_2" data-name="Capa 2" xmlns="http://www.w3.org/2000/svg" viewBox="0 0 43.26 41.96">
  <defs>
    <style>
      .cls-1 {
        fill: #3a61d9;
        stroke-width: 0px;
      }
    </style>
  </defs>
  <g id="Capa_1-2" data-name="Capa 1">
    <g>
      <path class="cls-1" d="M19.57,16.7l-1.67-3.9-.44,4.22c-.19,1.81-1.84,17.74-1.47,20.23.42,2.74,2.79,4.71,5.48,4.71.27,0,.55-.02.83-.06,1.46-.22,2.75-1,3.63-2.19.88-1.19,1.24-2.65,1.02-4.11-.38-2.49-6.67-17.22-7.38-18.89ZM24.15,38.39c-.53.71-1.3,1.18-2.19,1.31-1.81.27-3.52-.98-3.79-2.79-.2-1.36.41-8.86,1.05-15.37,2.53,6.04,5.34,13.03,5.55,14.38.13.88-.08,1.75-.61,2.47Z"/>
      <path class="cls-1" d="M42.6,10.94C37.82,4.09,29.97,0,21.6,0S5.45,4.06.66,10.87l-.66.94,8.43,5.62.63-.87c2.9-4.02,7.58-6.42,12.54-6.42s9.64,2.4,12.54,6.42l.62.86,8.5-5.52-.66-.95ZM7.91,14.39l-4.74-3.16C7.52,5.66,14.2,2.34,21.29,2.24v5.67c-5.2.09-10.11,2.47-13.39,6.48ZM35.3,14.4c-2.93-3.59-7.18-5.89-11.77-6.39V2.32c6.52.54,12.54,3.78,16.56,8.97l-4.78,3.1Z"/>
    </g>
  </g>
</svg>