<?xml version="1.0" encoding="UTF-8"?>
<svg id="Capa_2" data-name="Capa 2" xmlns="http://www.w3.org/2000/svg" viewBox="0 0 72 72.75">
  <defs>
    <style>
      .cls-1 {
        fill: #fff;
        stroke-width: 0px;
      }
    </style>
  </defs>
  <g id="Capa_1-2" data-name="Capa 1">
    <path class="cls-1" d="M69.04,19.5l2.96-2.55V0h-16.67l-3.8,3.84h-4c-3.97,0-7.7,1.56-10.5,4.4l-2.89,2.92L26.05,3h-6.75l-2.53-3H0v16.85l3.8,3.84v4.04c0,4.01,1.54,7.78,4.35,10.61l2.89,2.92-8.08,8.16v6.82l-2.96,2.55v16.95h16.67l3.8-3.84h4c3.97,0,7.7-1.56,10.5-4.4l2.89-2.92,8.08,8.16h6.75l2.53,2.99h16.77v-16.85l-3.8-3.84v-4.04c0-4.01-1.54-7.78-4.35-10.61l-2.89-2.92,8.08-8.16v-6.82ZM8.02,24.73v-5.81l-3.8-3.84V4.26h10.61l2.53,2.99h6.95l12.45,12.58c1.74,1.76,2.7,4.1,2.7,6.58s-.96,4.82-2.7,6.58c-.13.13-.26.26-.4.38-.23-.27-.46-.53-.71-.78-2.54-2.56-5.91-3.98-9.5-3.98-1.95,0-3.83.42-5.55,1.21l-5.04-5.1-2.98,3.01,4.44,4.49-2.98,3.01-2.89-2.92c-2.01-2.03-3.11-4.73-3.11-7.6ZM32,61.5c-2.01,2.03-4.68,3.15-7.52,3.15h-5.75l-3.8,3.84H4.22v-10.72l2.96-2.55v-7.02l12.45-12.58c1.74-1.76,4.05-2.73,6.51-2.73s4.77.97,6.51,2.73c1.74,1.76,2.7,4.09,2.7,6.58s-.96,4.82-2.7,6.58l-8.18,8.26,2.98,3.01,4.44-4.49,2.98,3.01-2.89,2.92ZM63.98,48.02v5.81l3.8,3.84v10.82h-10.61l-2.53-3h-6.95l-12.81-12.94.75-.76c2.54-2.56,3.93-5.97,3.93-9.59,0-1.62-.28-3.19-.81-4.66.95-.33,1.96-.51,3-.51,2.46,0,4.77.97,6.51,2.73l8.18,8.26,2.98-3.01-4.44-4.49,2.98-3.01,2.89,2.92c2.01,2.03,3.11,4.73,3.11,7.6ZM67.78,14.98l-2.97,2.55v7.02l-12.81,12.94-.75-.76c-2.45-2.48-5.69-3.88-9.15-3.97,1.02-1.93,1.56-4.1,1.56-6.35,0-1.97-.41-3.87-1.19-5.61l5.04-5.1-2.98-3.01-4.44,4.49-2.98-3.01,2.89-2.92c2.01-2.03,4.68-3.15,7.52-3.15h5.75l3.8-3.84h10.71v10.72Z"/>
  </g>
</svg>