<?xml version="1.0" encoding="UTF-8"?>
<svg id="Capa_2" data-name="Capa 2" xmlns="http://www.w3.org/2000/svg" viewBox="0 0 38.3 38.84">
  <defs>
    <style>
      .cls-1 {
        stroke-width: 0px;
        fill: #3a61d9;
      }
    </style>
  </defs>
  <g id="Outline">
    <g>
      <path class="cls-1" d="m19.15,6.52c-1.78,1.38-2.81,3.19-2.81,5.08s1.04,3.7,2.81,5.08c1.78-1.38,2.81-3.19,2.81-5.08s-1.04-3.7-2.81-5.08m0,12.19c-.15,0-.37-.07-.52-.14-2.66-1.74-4.14-4.28-4.14-6.96s1.55-5.22,4.14-6.96c.3-.22.74-.22,1.04,0,2.66,1.74,4.14,4.28,4.14,6.96s-1.55,5.22-4.14,6.96c-.15.07-.37.14-.52.14"/>
      <path class="cls-1" d="m22.18,21.82c.3,2.25,1.41,3.99,3.03,4.93.89.51,1.85.73,2.88.73.96,0,2-.22,2.96-.58-.3-2.25-1.41-3.99-3.03-4.93-.89-.51-1.85-.73-2.89-.73-.96,0-1.92.14-2.96.58m5.99,7.47c-1.41,0-2.66-.36-3.85-1.02-2.37-1.31-3.85-3.92-4.07-7.04,0-.36.15-.73.52-.87,1.41-.73,2.96-1.09,4.36-1.09s2.66.36,3.85,1.02c2.37,1.31,3.85,3.92,4.07,7.04,0,.36-.15.73-.52.87-1.48.73-2.96,1.09-4.37,1.09"/>
      <path class="cls-1" d="m7.16,26.9c1.04.43,2,.58,2.96.58,1.04,0,2.07-.22,2.88-.73,1.63-.94,2.74-2.68,3.03-4.93-1.04-.44-2-.58-2.96-.58-1.04,0-2.07.22-2.88.73-1.63.94-2.74,2.68-3.03,4.93m2.96,2.39c-1.41,0-2.96-.36-4.37-1.09-.37-.15-.52-.51-.52-.87.22-3.12,1.7-5.66,4.07-7.04,1.18-.65,2.44-1.02,3.85-1.02s2.96.36,4.36,1.09c.37.14.52.51.52.87-.22,3.12-1.7,5.66-4.07,7.04-1.11.73-2.44,1.02-3.85,1.02"/>
      <path class="cls-1" d="m11.16,25.38c-.3,0-.67-.14-.81-.43-.22-.44-.07-1.02.37-1.23l5.92-3.26c.44-.22,1.04-.07,1.26.36.22.44.07,1.02-.37,1.23l-5.92,3.26c-.15.07-.3.07-.44.07"/>
      <path class="cls-1" d="m26.1,24.87c-.15,0-.3-.07-.44-.14l-4.88-2.68c-.44-.22-.59-.8-.37-1.23.22-.43.81-.58,1.26-.36l4.88,2.68c.44.22.59.8.37,1.23-.15.36-.44.51-.81.51"/>
      <path class="cls-1" d="m19.15,18.7c-.52,0-.96-.43-.96-.94v-5.95c0-.51.44-.94.96-.94s.96.44.96.94v5.95c0,.51-.44.94-.96.94"/>
      <path class="cls-1" d="m19.18,38.84c-5.15,0-10.08-2.04-13.68-5.71C2.55,30.17.64,26.37,0,22.21c-.07-.49.28-.92.77-.99.49-.07.92.28.99.78.56,3.81,2.26,7.26,5,9.94,6.84,6.84,18.05,6.84,24.96,0,.35-.35.92-.35,1.27,0,.35.35.35.92,0,1.27-3.74,3.6-8.67,5.64-13.82,5.64"/>
      <path class="cls-1" d="m37.51,17.69c-.42,0-.77-.28-.85-.78-.56-3.81-2.26-7.26-5-9.94C24.82.14,13.61.14,6.71,6.98c-.35.35-.92.35-1.27,0-.35-.35-.35-.92,0-1.27C9.1,2.04,13.97,0,19.11,0s10.08,2.04,13.68,5.71c2.96,2.96,4.86,6.77,5.5,10.93.07.49-.28.92-.78.99.07.07,0,.07,0,.07"/>
      <path class="cls-1" d="m32.3,37.15c-.49,0-.92-.42-.92-.92v-2.89h-2.89c-.49,0-.92-.42-.92-.92s.42-.92.92-.92h3.74c.49,0,.92.42.92.92v3.74c0,.63-.35.99-.85.99"/>
      <path class="cls-1" d="m9.81,7.26h-3.74c-.49,0-.92-.42-.92-.92v-3.74c0-.49.42-.92.92-.92s.92.42.92.92v2.89h2.89c.49,0,.92.42.92.92s-.49.85-.99.85"/>
    </g>
  </g>
</svg>