<?xml version="1.0" encoding="UTF-8"?>
<svg id="Capa_2" data-name="Capa 2" xmlns="http://www.w3.org/2000/svg" viewBox="0 0 31.65 31.58">
  <defs>
    <style>
      .cls-1 {
        fill: #3a61d9;
        stroke-width: 0px;
      }
    </style>
  </defs>
  <g id="Capa_1-2" data-name="Capa 1">
    <g>
      <path class="cls-1" d="M15.82,0C7.1,0,0,7.08,0,15.79s7.1,15.79,15.82,15.79,15.82-7.08,15.82-15.79S24.55,0,15.82,0ZM25.6,6.39s-.06.06-.09.1c-.2-.02-.48-.05-.83-.02-1.54.13-2.47.95-3.29,1.79l-.1.1c-.35.36-.43.42-.58.44-.2.02-.45-.18-.58-.31-.59-.54-.82-1.19-1.13-2.09l-.06-.17c-.5-1.42-1.76-1.25-2.17-1.19-.09.01-.19.03-.3.03-.02,0-.03,0-.05,0,0-.08,0-.18,0-.25,0-.19,0-.38,0-.57-.04-.95-.55-1.55-1.54-1.77.03-.07.06-.14.1-.2.27-.02.55-.04.82-.04,3.84,0,7.3,1.6,9.78,4.16ZM2.23,15.79c0-4.1,1.84-7.77,4.73-10.26.2.48.45.98.79,1.38.17.2.33.36.5.52.29.27.37.36.42.57.03.15,0,.37-.02.62-.04.35-.09.79,0,1.27.1.55.37.93.57,1.2.05.07.1.14.13.19-.1.13-.31.31-.38.38-.71.63-1.51,1.2-2.59,1.84-1.07.63-1.71,1.63-1.84,2.88-.08.75-.28,2.51,1.63,3.49.19.1.51.27.57.35,0,.05-.01.11-.02.17-.03.2-.07.48-.02.8.08.55.35.96.55,1.26.07.11.14.21.19.33.12.27-.11.57-1.01,1.33-.27.23-.52.45-.73.66-2.14-2.4-3.45-5.54-3.45-9ZM15.82,29.34c-3.23,0-6.19-1.13-8.53-3.01.16-.17.36-.33.56-.5.9-.76,2.41-2.04,1.62-3.9-.12-.27-.26-.5-.38-.68-.09-.13-.19-.29-.2-.34,0-.06.01-.12.02-.18.03-.2.05-.39.04-.58-.07-1.35-1.14-1.9-1.84-2.26-.32-.16-.48-.25-.37-1.23.06-.55.3-.94.76-1.21,1.19-.71,2.12-1.37,2.94-2.09.45-.4,1.5-1.33,1.08-2.64-.13-.39-.33-.68-.49-.91-.09-.13-.18-.26-.2-.32-.03-.14,0-.36.03-.59.05-.38.1-.86-.02-1.39-.2-.87-.7-1.34-1.06-1.68-.11-.1-.22-.21-.33-.34-.21-.25-.44-.73-.61-1.29,1.15-.69,2.41-1.22,3.75-1.54-.01.22,0,.44.05.66.25,1.02,1.12,1.24,1.56,1.32,0,.05,0,.09,0,.13-.02.62-.07,2.49,2.19,2.55.19,0,.38-.01.55-.03.34.98.72,1.98,1.68,2.86.65.6,1.34.9,2.06.9.1,0,.19,0,.29-.02.97-.11,1.5-.66,1.93-1.1l.09-.09c.7-.72,1.16-1.07,1.88-1.13.17-.02.3,0,.46.02.57.07,1.17.04,1.72-.56,1.49,2.18,2.37,4.81,2.37,7.64,0,7.47-6.1,13.56-13.59,13.56Z"/>
      <path class="cls-1" d="M27.86,17.01c-.4-1.5-1.78-1.73-2.52-1.86-.14-.02-.28-.05-.41-.08-.34-.08-.48-.23-.87-.72l-.15-.18c-.48-.58-.59-.69-1.1-.96l-.56-.3s-.09-.06-.14-.09c-.29-.2-.4-.28-.56-.33-.14-.05-.28-.14-.42-.23-.12-.07-.23-.14-.35-.2-.21-.11-.47-.25-.79-.37l-.9-.49.17.3c-.43-.06-.92-.02-1.44.2-.68.29-1.19.78-1.66,1.26l-.33.33c-.57.57-1.21,1.21-1.62,2.01-.9,1.76-.43,2.61.82,3.66.65.55.9.89.92,1.32.01.21-.18.57-.36.92-.19.35-.4.75-.52,1.2-.22.79-.62,2.78.25,4.08.41.61,1.03.98,1.79,1.07.11.01.22.02.34.02,1.23,0,2.35-.78,2.94-1.19.83-.52,1.51-1.21,2.01-2.04l.07-.13c.16-.37.33-.75.51-1.11.31-.46.91-.79,1.55-1.15.6-.33,1.21-.68,1.75-1.19.77-.73,2.05-1.95,1.56-3.75ZM24.76,19.14c-.34.32-.81.58-1.31.86-.83.46-1.77.99-2.37,1.94l-.06.1c-.19.4-.38.8-.56,1.2-.32.51-.73.92-1.3,1.27-.38.26-1.26.87-1.78.81-.15-.02-.18-.06-.2-.1-.23-.33-.2-1.3.05-2.25.06-.21.19-.46.34-.74.3-.56.67-1.27.62-2.11-.09-1.36-.92-2.23-1.72-2.9-.1-.08-.36-.3-.47-.43.02-.07.07-.22.21-.49.25-.49.74-.98,1.21-1.45l.35-.36c.24-.25.61-.63.93-.77.2-.08.39-.07,1.02.28.08.05.17.1.25.15.2.12.42.25.68.36.05.03.12.08.19.13.22.15.47.32.73.43l.2.11c.06.03.1.05.1.05.07.07.15.17.31.36l.14.17c.47.57,1,1.22,2.09,1.48.17.04.35.07.54.1.22.04.64.11.74.24.12.44-.19.84-.94,1.55Z"/>
    </g>
  </g>
</svg>