<?xml version="1.0" encoding="UTF-8"?>
<svg id="Capa_2" data-name="Capa 2" xmlns="http://www.w3.org/2000/svg" viewBox="0 0 55 55">
  <defs>
    <style>
      .cls-1 {
        fill: #081e3b;
      }

      .cls-1, .cls-2 {
        stroke-width: 0px;
      }

      .cls-2 {
        fill: #fff;
      }
    </style>
  </defs>
  <g id="Outline">
    <g>
      <circle class="cls-1" cx="27.5" cy="27.5" r="27.5"/>
      <path class="cls-2" d="m39.44,34.46c0,2.75-2.23,4.97-4.97,4.97h-13.93c-2.75,0-4.97-2.23-4.97-4.97v-13.93c0-2.75,2.23-4.97,4.97-4.97h13.93c2.74,0,4.97,2.23,4.97,4.97v13.93Zm-4.48-21.39h-14.92c-3.85,0-6.96,3.12-6.96,6.96v14.92c0,3.85,3.12,6.96,6.96,6.96h14.92c3.84,0,6.96-3.12,6.96-6.96v-14.92c0-3.85-3.12-6.96-6.96-6.96"/>
      <path class="cls-2" d="m27.51,32.47c-2.74,0-4.97-2.23-4.97-4.97s2.23-4.97,4.97-4.97,4.97,2.23,4.97,4.97-2.23,4.97-4.97,4.97m0-12.44c-4.12,0-7.46,3.34-7.46,7.46s3.34,7.46,7.46,7.46,7.46-3.34,7.46-7.46-3.34-7.46-7.46-7.46"/>
      <path class="cls-2" d="m35.47,21.03c-.82,0-1.49-.67-1.49-1.49s.67-1.49,1.49-1.49,1.49.67,1.49,1.49-.67,1.49-1.49,1.49"/>
    </g>
  </g>
</svg>