<?xml version="1.0" encoding="UTF-8"?>
<svg id="Capa_2" data-name="Capa 2" xmlns="http://www.w3.org/2000/svg" viewBox="0 0 16.18 22.69">
  <defs>
    <style>
      .cls-1 {
        fill: #3a61d9;
        stroke-width: 0px;
      }
    </style>
  </defs>
  <g id="Capa_1-2" data-name="Capa 1">
    <g>
      <path class="cls-1" d="M8.09,11.33c1.79,0,3.24-1.45,3.24-3.24s-1.45-3.24-3.24-3.24-3.24,1.45-3.24,3.24,1.45,3.24,3.24,3.24ZM8.09,6.37c.95,0,1.72.77,1.72,1.72s-.77,1.72-1.72,1.72-1.72-.77-1.72-1.72.77-1.72,1.72-1.72Z"/>
      <path class="cls-1" d="M16.18,8.09C16.18,3.63,12.55,0,8.09,0S0,3.63,0,8.09c0,2.63,1.26,4.96,3.21,6.44v8.12l4.91-2.5,4.65,2.54v-8.01c2.06-1.47,3.41-3.87,3.41-6.59ZM1.52,8.09c0-3.62,2.95-6.57,6.57-6.57s6.57,2.95,6.57,6.57-2.95,6.57-6.57,6.57S1.52,11.71,1.52,8.09ZM11.25,20.13l-3.11-1.7-3.41,1.74v-4.73c1.02.47,2.16.74,3.36.74,1.12,0,2.19-.23,3.16-.64v4.59Z"/>
    </g>
  </g>
</svg>