<?xml version="1.0" encoding="UTF-8"?>
<svg id="Capa_2" data-name="Capa 2" xmlns="http://www.w3.org/2000/svg" viewBox="0 0 17.67 25.62">
  <defs>
    <style>
      .cls-1 {
        fill: #3a61d9;
        stroke-width: 0px;
      }
    </style>
  </defs>
  <g id="Capa_1-2" data-name="Capa 1">
    <g>
      <path class="cls-1" d="M8.75,8.27c1.81,0,3.29-1.48,3.29-3.29s-1.48-3.29-3.29-3.29-3.29,1.47-3.29,3.29,1.48,3.29,3.29,3.29ZM8.75,3.21c.98,0,1.77.79,1.77,1.77s-.79,1.77-1.77,1.77-1.77-.8-1.77-1.77.79-1.77,1.77-1.77Z"/>
      <path class="cls-1" d="M3.28,14.17h4.74v.47h1.52v-.47h4.75v.42h1.52v-1.94h-6.27v-.45c3-.39,5.32-2.96,5.32-6.07,0-3.38-2.75-6.13-6.13-6.13S2.6,2.75,2.6,6.13c0,3.14,2.37,5.74,5.42,6.09v.43H1.76v2.1h1.52v-.58ZM4.12,6.13c0-2.54,2.07-4.61,4.61-4.61s4.61,2.07,4.61,4.61c0,1.09-.4,2.09-1.04,2.88-.4-.29-.87-.47-1.4-.47h-4.31c-.54,0-1.02.19-1.42.48-.65-.79-1.05-1.79-1.05-2.9ZM6.41,10.09c.06-.01.12-.03.18-.03h4.31c.05,0,.11.01.16.02-.69.41-1.48.65-2.33.65s-1.64-.25-2.32-.65Z"/>
      <path class="cls-1" d="M4.06,18.74c.36-.36.58-.86.58-1.41,0-1.1-.9-2-2-2s-2,.9-2,2c0,.55.22,1.04.58,1.4-.69.16-1.22.78-1.22,1.52v2.5l.76.25.23,2.62h3.27l.23-2.62.76-.25v-2.5c0-.73-.51-1.34-1.18-1.51ZM2.64,16.85c.26,0,.48.22.48.48s-.22.48-.48.48-.48-.22-.48-.48.22-.48.48-.48ZM3.72,21.65l-.66.22-.19,2.24h-.49l-.19-2.24-.65-.21.03-1.44,2.16.04v1.4Z"/>
      <path class="cls-1" d="M10.2,18.74c.36-.36.58-.86.58-1.41,0-1.1-.9-2-2-2s-2,.9-2,2c0,.55.22,1.04.58,1.4-.69.16-1.22.78-1.22,1.52v2.5l.76.25.23,2.62h3.27l.23-2.62.76-.25v-2.5c0-.73-.51-1.34-1.18-1.51ZM8.78,16.85c.26,0,.48.22.48.48s-.22.48-.48.48-.48-.22-.48-.48.22-.48.48-.48ZM9.86,21.65l-.66.22-.19,2.24h-.49l-.19-2.24-.65-.21.03-1.44,2.16.04v1.4Z"/>
      <path class="cls-1" d="M16.49,18.74c.36-.36.58-.86.58-1.41,0-1.1-.9-2-2-2s-2,.9-2,2c0,.55.22,1.04.58,1.4-.69.16-1.22.78-1.22,1.52v2.5l.76.25.23,2.62h3.27l.23-2.62.76-.25v-2.5c0-.73-.51-1.34-1.18-1.51ZM15.07,16.85c.26,0,.48.22.48.48s-.22.48-.48.48-.48-.22-.48-.48.22-.48.48-.48ZM16.15,21.65l-.66.22-.19,2.24h-.49l-.19-2.24-.65-.21.03-1.44,2.16.04v1.4Z"/>
    </g>
  </g>
</svg>