<?xml version="1.0" encoding="UTF-8"?>
<svg id="Capa_2" data-name="Capa 2" xmlns="http://www.w3.org/2000/svg" viewBox="0 0 55 55">
  <defs>
    <style>
      .cls-1 {
        fill: #081e3b;
      }

      .cls-1, .cls-2 {
        stroke-width: 0px;
      }

      .cls-2 {
        fill: #fff;
      }
    </style>
  </defs>
  <g id="Outline">
    <g>
      <circle class="cls-1" cx="27.5" cy="27.5" r="27.5"/>
      <path class="cls-2" d="m35.65,25.37l-.46,3.68c-.08.61-.6,1.08-1.21,1.08h-5.96v15.38c-.63.06-1.26.09-1.91.09-1.44,0-2.85-.14-4.2-.42v-15.05h-4.58c-.42,0-.76-.35-.76-.77v-4.6c0-.42.34-.77.76-.77h4.58v-6.9c0-4.24,3.42-7.67,7.64-7.67h5.35c.42,0,.76.35.76.77v4.6c0,.42-.34.77-.76.77h-3.82c-1.69,0-3.05,1.37-3.05,3.07v5.37h6.42c.74,0,1.31.65,1.22,1.38"/>
    </g>
  </g>
</svg>