<?xml version="1.0" encoding="UTF-8"?>
<svg id="Capa_2" data-name="Capa 2" xmlns="http://www.w3.org/2000/svg" viewBox="0 0 27.01 27.06">
  <defs>
    <style>
      .cls-1 {
        fill: #9dc34b;
        stroke-width: 0px;
      }
    </style>
  </defs>
  <g id="Capa_1-2" data-name="Capa 1">
    <g>
      <path class="cls-1" d="M16.71,15.76l-.27.27,1.29,1.29.27-.27,2.15,2.15,6.85-6.85-2.15-2.15.27-.27-1.29-1.29-.27.27-5.47-5.47.27-.27-1.29-1.29-.27.27-2.15-2.15-6.85,6.85,2.15,2.15-.27.27,1.29,1.29.27-.27,2.11,2.11L0,25.76l1.29,1.29,13.36-13.36,2.06,2.06ZM24.42,12.35l-4.26,4.26-.85-.85,4.26-4.26.85.85ZM10.39,6.85l4.26-4.26.85.85-4.26,4.26-.85-.85ZM16.8,4.74l5.47,5.47-4.26,4.26-5.47-5.47,4.26-4.26Z"/>
      <rect class="cls-1" x="15.05" y="21.67" width="7.99" height="1.83"/>
      <rect class="cls-1" x="11.53" y="24.75" width="15.02" height="1.83"/>
    </g>
  </g>
</svg>