<?xml version="1.0" encoding="UTF-8"?>
<svg id="Capa_2" data-name="Capa 2" xmlns="http://www.w3.org/2000/svg" viewBox="0 0 19.67 19.67">
  <defs>
    <style>
      .cls-1 {
        fill: #3a61d9;
        stroke-width: 0px;
      }
    </style>
  </defs>
  <g id="Capa_1-2" data-name="Capa 1">
    <g>
      <path class="cls-1" d="M9.32,2.47h-.76C3.84,2.49,0,6.35,0,11.07s3.86,8.6,8.6,8.6,8.6-3.86,8.6-8.6v-.76h-7.85l-.03-7.84ZM8.6,18.15c-3.9,0-7.08-3.18-7.08-7.08,0-3.63,2.76-6.64,6.28-7.04l.03,7.04v.76h7.81c-.38,3.55-3.39,6.32-7.04,6.32Z"/>
      <path class="cls-1" d="M19.67,9.32v-.76c-.03-4.72-3.88-8.56-8.66-8.56h-.77l.07,9.36,9.36-.05ZM18.11,7.8l-6.28.03-.05-6.28c3.31.33,5.96,2.95,6.33,6.25Z"/>
    </g>
  </g>
</svg>