<?xml version="1.0" encoding="UTF-8"?>
<svg id="Capa_2" data-name="Capa 2" xmlns="http://www.w3.org/2000/svg" viewBox="0 0 33.4 32.3">
  <defs>
    <style>
      .cls-1 {
        fill: #3a61d9;
        stroke-width: 0px;
      }
    </style>
  </defs>
  <g id="Capa_1-2" data-name="Capa 1">
    <g>
      <path class="cls-1" d="M24.19,15.36c0-2.13-1.73-3.86-3.86-3.86h-7.26c-2.13,0-3.87,1.73-3.87,3.86v7.49l2.52.81.74,8.62h8.47l.75-8.62,2.52-.81v-7.49ZM21.96,21.23l-2.38.77-.7,8.06h-4.37l-.7-8.06-2.38-.77v-5.87c0-.9.73-1.62,1.63-1.62h7.26c.9,0,1.63.73,1.63,1.62v5.87Z"/>
      <path class="cls-1" d="M16.7,10.72c2.96,0,5.37-2.4,5.37-5.36S19.66,0,16.7,0s-5.37,2.4-5.37,5.36,2.41,5.36,5.37,5.36ZM16.7,2.23c1.73,0,3.14,1.4,3.14,3.13s-1.41,3.13-3.14,3.13-3.14-1.4-3.14-3.13,1.41-3.13,3.14-3.13Z"/>
      <path class="cls-1" d="M8.08,26.47h-3.29l-.58-6.67-1.97-.64v-4.75c0-.64.53-1.17,1.17-1.17h6.05v-2.23H3.41c-1.88,0-3.41,1.52-3.41,3.4v6.38l2.11.68.62,7.23h7.39l.38-4.42-2.22-.19-.21,2.38Z"/>
      <path class="cls-1" d="M6.46,10.74c2.57,0,4.66-2.09,4.66-4.65S9.03,1.44,6.46,1.44,1.8,3.52,1.8,6.09s2.09,4.65,4.66,4.65ZM6.46,3.67c1.34,0,2.42,1.08,2.42,2.42s-1.09,2.42-2.42,2.42-2.43-1.08-2.43-2.42,1.09-2.42,2.43-2.42Z"/>
      <path class="cls-1" d="M29.99,11.02h-6.05v2.23h6.05c.65,0,1.17.52,1.17,1.17v4.75l-1.97.64-.58,6.67h-3.29l-.21-2.38-2.22.19.38,4.42h7.39l.62-7.23,2.11-.68v-6.38c0-1.87-1.53-3.4-3.41-3.4Z"/>
      <path class="cls-1" d="M26.94,10.74c2.57,0,4.66-2.09,4.66-4.65s-2.09-4.65-4.66-4.65-4.66,2.09-4.66,4.65,2.09,4.65,4.66,4.65ZM26.94,3.67c1.34,0,2.43,1.08,2.43,2.42s-1.09,2.42-2.43,2.42-2.42-1.08-2.42-2.42,1.09-2.42,2.42-2.42Z"/>
    </g>
  </g>
</svg>