<?xml version="1.0" encoding="UTF-8"?>
<svg id="Capa_2" data-name="Capa 2" xmlns="http://www.w3.org/2000/svg" viewBox="0 0 43.59 42.94">
  <defs>
    <style>
      .cls-1 {
        fill: #3a61d9;
        stroke-width: 0px;
      }
    </style>
  </defs>
  <g id="Capa_1-2" data-name="Capa 1">
    <g>
      <path class="cls-1" d="M29.09,18.77c-2.71-2.71-7.13-2.71-9.84,0-1.32,1.31-2.04,3.06-2.04,4.91s.72,3.6,2.04,4.91c1.36,1.35,3.14,2.03,4.92,2.03s3.56-.68,4.92-2.03c1.32-1.31,2.04-3.06,2.04-4.91s-.72-3.6-2.04-4.91ZM27.53,27.04c-1.85,1.85-4.87,1.85-6.72,0-.9-.89-1.39-2.08-1.39-3.35s.49-2.46,1.39-3.35c.93-.92,2.14-1.39,3.36-1.39s2.43.46,3.36,1.39c.9.89,1.39,2.08,1.39,3.35s-.49,2.46-1.39,3.35Z"/>
      <path class="cls-1" d="M18.21,3.98H4.06v5.1h14.15V3.98ZM16,6.87H6.27v-.68h9.73v.68Z"/>
      <rect class="cls-1" x="5.2" y="9.87" width="12.28" height="2.21"/>
      <rect class="cls-1" x="5.2" y="12.35" width="12.28" height="2.21"/>
      <path class="cls-1" d="M42.05,39.08l1.54-1.58-6.93-6.75-.85.85-.33-.33.86-.86-2.21-2.2c.64-1.4.99-2.93.99-4.52,0-2.51-.84-4.9-2.4-6.83V2.84c0-1.57-1.28-2.84-2.86-2.84H2.85C1.28,0,0,1.27,0,2.84v13.47c0,1.57,1.28,2.85,2.85,2.85h11.34c-.64,1.41-.98,2.94-.98,4.53,0,2.92,1.14,5.66,3.21,7.73,2.14,2.13,4.94,3.19,7.75,3.19,1.54,0,3.09-.34,4.52-.99l2.22,2.21.86-.86.33.33-.88.87,6.97,6.77,1.54-1.58-5.36-5.21,2.31-2.3,5.37,5.23ZM2.85,16.95c-.35,0-.64-.29-.64-.64V2.84c0-.35.29-.63.64-.63h27.01c.36,0,.65.28.65.63v11.94c-4.27-3.04-10.26-2.64-14.09,1.18-.31.31-.61.64-.88.99H2.85ZM17.98,29.85c-1.65-1.64-2.56-3.83-2.56-6.16s.91-4.52,2.56-6.17c1.71-1.7,3.95-2.55,6.19-2.55s4.47.85,6.18,2.55c1.65,1.65,2.56,3.84,2.56,6.17s-.91,4.52-2.56,6.16c-3.41,3.4-8.96,3.4-12.37,0ZM30.91,32.71l-.25-.24c.44-.32.86-.66,1.25-1.05.39-.39.74-.81,1.06-1.25l.24.24-2.3,2.3ZM33.5,33.58l-.17-.17.58-.58.17.17-.58.58Z"/>
    </g>
  </g>
</svg>