<?xml version="1.0" encoding="UTF-8"?>
<svg id="Capa_2" data-name="Capa 2" xmlns="http://www.w3.org/2000/svg" viewBox="0 0 49.89 49.89">
  <defs>
    <style>
      .cls-1 {
        fill: #3a61d9;
        stroke-width: 0px;
      }
    </style>
  </defs>
  <g id="Capa_1-2" data-name="Capa 1">
    <g>
      <path class="cls-1" d="M27.18,36.5c-4.26,0-7.98-2.33-9.97-5.78h8.61v-2.59h-9.71c-.29-1-.45-2.05-.45-3.15,0-1,.14-1.96.38-2.88h9.77v-2.59h-8.77c1.95-3.59,5.76-6.04,10.13-6.04,2.24,0,4.41.64,6.28,1.86l1.42-2.17c-2.29-1.49-4.95-2.28-7.7-2.28-5.84,0-10.86,3.57-13,8.63h-5.14v2.59h4.33c-.19.93-.3,1.89-.3,2.88,0,1.08.13,2.13.37,3.15h-4.4v2.59h5.26c2.2,4.92,7.14,8.37,12.88,8.37,2.76,0,5.43-.8,7.73-2.31l-1.42-2.17c-1.88,1.23-4.06,1.88-6.31,1.88Z"/>
      <path class="cls-1" d="M24.94,0C11.19,0,0,11.19,0,24.94s11.19,24.94,24.94,24.94,24.94-11.19,24.94-24.94S38.7,0,24.94,0ZM24.94,47.29c-12.32,0-22.35-10.03-22.35-22.35S12.62,2.59,24.94,2.59s22.35,10.03,22.35,22.35-10.03,22.35-22.35,22.35Z"/>
    </g>
  </g>
</svg>