<?xml version="1.0" encoding="UTF-8"?>
<svg id="Capa_2" data-name="Capa 2" xmlns="http://www.w3.org/2000/svg" viewBox="0 0 19 19.51">
  <defs>
    <style>
      .cls-1 {
        fill: #3a61d9;
        stroke-width: 0px;
      }
    </style>
  </defs>
  <g id="Capa_1-2" data-name="Capa 1">
    <g>
      <path class="cls-1" d="M19,3.68h-5.29v-1.35c0-1.06-.86-1.92-1.92-1.92-.33,0-.63.09-.9.24-.35-.39-.86-.65-1.43-.65-.44,0-.84.15-1.17.4-.32-.25-.72-.4-1.16-.4-.57,0-1.07.25-1.42.64-.27-.14-.57-.23-.9-.23-1.06,0-1.92.86-1.92,1.92v1.35H0v9.77h2.68c.25,1.56,1.01,3.02,2.17,4.11,1.35,1.27,3.08,1.95,4.92,1.95.16,0,.32,0,.48-.02,3.34-.21,6.04-2.79,6.61-6.1h2.13V3.68ZM11.79,1.93c.22,0,.4.18.4.4v1.35h-.8v-1.35c0-.22.18-.4.4-.4ZM9.46,1.52c.22,0,.4.18.4.4v1.76h-.8v-1.76c0-.22.18-.4.4-.4ZM6.73,1.92c0-.22.18-.4.4-.4s.4.18.4.4v1.76h-.8v-1.76ZM4.41,2.33c0-.22.18-.4.4-.4s.4.18.4.4v1.35h-.8v-1.35ZM15.47,12.09c0,3.11-2.33,5.7-5.31,5.89-1.59.1-3.11-.44-4.27-1.53-.87-.82-1.45-1.86-1.68-3.01h5.04c-.1.34-.17.7-.17,1.07h1.52c0-1.23,1-2.23,2.23-2.23h1.38v-2.49c0-.82.53-1.52,1.26-1.78v4.07ZM17.48,11.88h-.49v-5.49h-.89c-1.88,0-3.41,1.53-3.41,3.41v.97c-1.01.04-1.91.48-2.57,1.16H1.52v-6.73h15.96v6.68Z"/>
      <path class="cls-1" d="M8.99,11.06c1.37,0,2.49-1.12,2.49-2.49s-1.12-2.49-2.49-2.49-2.49,1.12-2.49,2.49,1.12,2.49,2.49,2.49ZM8.99,7.6c.53,0,.97.44.97.97s-.44.97-.97.97-.97-.44-.97-.97.44-.97.97-.97Z"/>
      <rect class="cls-1" x="2.9" y="6.18" width="2.14" height="1.52"/>
    </g>
  </g>
</svg>