<?xml version="1.0" encoding="UTF-8"?>
<svg id="Capa_2" data-name="Capa 2" xmlns="http://www.w3.org/2000/svg" viewBox="0 0 24.96 26.37">
  <defs>
    <style>
      .cls-1 {
        fill: #3a61d9;
        stroke-width: 0px;
      }
    </style>
  </defs>
  <g id="Capa_1-2" data-name="Capa 1">
    <g>
      <rect class="cls-1" x="20.03" y="14.1" width="2.35" height="3.11"/>
      <rect class="cls-1" x="20.03" y="18.66" width="2.35" height="3.11"/>
      <rect class="cls-1" x="9.21" y="8.8" width="2.35" height="3.11"/>
      <rect class="cls-1" x="13.24" y="8.8" width="2.35" height="3.11"/>
      <rect class="cls-1" x="9.21" y="13.47" width="2.35" height="3.11"/>
      <rect class="cls-1" x="13.24" y="13.47" width="2.35" height="3.11"/>
      <polygon class="cls-1" points="6.38 9.18 12.39 5.73 18.41 9.33 19.19 8.03 13.32 4.51 13.32 1.52 15.1 1.52 15.1 2.46 13.92 2.46 13.92 3.98 16.62 3.98 16.62 0 11.8 0 11.8 4.32 5.62 7.86 6.38 9.18"/>
      <rect class="cls-1" x="6.24" y="9.67" width="1.52" height="12.96"/>
      <rect class="cls-1" x="17.09" y="9.67" width="1.52" height="12.96"/>
      <polygon class="cls-1" points="23.44 9.1 23.44 10.75 19.27 10.75 19.27 12.27 23.44 12.27 23.44 25.82 24.96 25.82 24.96 9.1 23.44 9.1"/>
      <rect class="cls-1" x="2.57" y="14.09" width="2.35" height="3.11"/>
      <rect class="cls-1" x="2.57" y="18.66" width="2.35" height="3.11"/>
      <polygon class="cls-1" points="5.69 12.27 5.69 10.75 1.52 10.75 1.52 9.1 0 9.1 0 25.82 1.52 25.82 1.52 12.27 5.69 12.27"/>
      <polygon class="cls-1" points="8.62 19.66 9.07 19.66 9.07 22.42 10.59 22.42 10.59 19.66 14.21 19.66 14.21 22.42 15.73 22.42 15.73 19.66 16.18 19.66 16.18 18.14 8.62 18.14 8.62 19.66"/>
      <rect class="cls-1" x="5.24" y="22.97" width="14.32" height="1.52"/>
      <rect class="cls-1" x="3.28" y="24.85" width="18.24" height="1.52"/>
    </g>
  </g>
</svg>