<?xml version="1.0" encoding="UTF-8"?>
<svg id="Capa_2" data-name="Capa 2" xmlns="http://www.w3.org/2000/svg" viewBox="0 0 55 55">
  <defs>
    <style>
      .cls-1 {
        fill: #081e3b;
      }

      .cls-1, .cls-2 {
        stroke-width: 0px;
      }

      .cls-2 {
        fill: #fff;
      }
    </style>
  </defs>
  <g id="Outline">
    <g>
      <path class="cls-1" d="m55,27.5c0,15.19-12.31,27.5-27.5,27.5S0,42.69,0,27.5,12.31,0,27.5,0s27.5,12.31,27.5,27.5"/>
      <path class="cls-2" d="m21.3,16.61c0,1.96-1.59,3.54-3.54,3.54s-3.54-1.59-3.54-3.54,1.59-3.54,3.54-3.54,3.54,1.59,3.54,3.54"/>
      <path class="cls-2" d="m20.45,40.22h-5.38c-.15,0-.26-.12-.26-.26v-17.18c0-.14.12-.26.26-.26h5.38c.15,0,.26.12.26.26v17.18c0,.15-.12.26-.26.26"/>
      <path class="cls-2" d="m40.78,29v10.04c0,.65-.53,1.18-1.18,1.18h-3.54c-.65,0-1.18-.53-1.18-1.18v-8.26c0-1.63-1.32-2.95-2.95-2.95s-2.95,1.32-2.95,2.95v8.26c0,.65-.53,1.18-1.18,1.18h-3.54c-.65,0-1.18-.53-1.18-1.18v-15.35c0-.65.53-1.18,1.18-1.18h3.54c.65,0,1.18.53,1.18,1.18v.76c1.18-1.53,3.13-2.53,5.31-2.53,3.26,0,6.49,2.36,6.49,7.08"/>
    </g>
  </g>
</svg>