<?xml version="1.0" encoding="UTF-8"?>
<svg id="Capa_2" data-name="Capa 2" xmlns="http://www.w3.org/2000/svg" viewBox="0 0 32.3 32.05">
  <defs>
    <style>
      .cls-1 {
        fill: #3a61d9;
        stroke-width: 0px;
      }
    </style>
  </defs>
  <g id="Capa_1-2" data-name="Capa 1">
    <g>
      <path class="cls-1" d="M16.14,0L0,8.8v5.23h32.3v-5.46L16.14,0ZM30.06,11.8H2.23v-1.67l13.92-7.59,13.91,7.39v1.88Z"/>
      <path class="cls-1" d="M12.55,7.74c0,1.98,1.62,3.6,3.6,3.6s3.6-1.61,3.6-3.6-1.62-3.6-3.6-3.6-3.6,1.61-3.6,3.6ZM17.52,7.74c0,.75-.61,1.37-1.37,1.37s-1.37-.61-1.37-1.37.61-1.37,1.37-1.37,1.37.61,1.37,1.37Z"/>
      <path class="cls-1" d="M29.27,15.72h-2.23v9.46h-5.77v-9.46h-2.23v9.46h-5.77v-9.46h-2.23v9.46h-5.77v-9.46h-2.23v9.46H0v6.87h32.3v-6.87h-3.03v-9.46ZM30.06,29.82H2.23v-2.41h27.83v2.41Z"/>
    </g>
  </g>
</svg>