<?xml version="1.0" encoding="UTF-8"?>
<svg id="Capa_2" data-name="Capa 2" xmlns="http://www.w3.org/2000/svg" viewBox="0 0 29.08 33.66">
  <defs>
    <style>
      .cls-1 {
        fill: #3a61d9;
        stroke-width: 0px;
      }
    </style>
  </defs>
  <g id="Capa_1-2" data-name="Capa 1">
    <g>
      <path class="cls-1" d="M25.4,20.53V0H0v33.42h20.12v-.04c.62.18,1.28.28,1.96.28,3.86,0,7-3.13,7-6.99,0-2.65-1.49-4.97-3.68-6.15ZM2.23,2.23h20.94v17.55c-.36-.06-.72-.09-1.09-.09-3.86,0-7,3.13-7,6.99,0,1.72.63,3.29,1.66,4.51H2.23V2.23ZM22.08,31.43c-2.63,0-4.77-2.13-4.77-4.75s2.14-4.75,4.77-4.75,4.77,2.13,4.77,4.75-2.14,4.75-4.77,4.75Z"/>
      <polygon class="cls-1" points="21.09 27.27 19.44 26.03 18.1 27.82 21.35 30.25 25.72 25.61 24.09 24.08 21.09 27.27"/>
      <rect class="cls-1" x="5.53" y="6.6" width="14.35" height="2.23"/>
      <rect class="cls-1" x="5.53" y="11.74" width="14.35" height="2.23"/>
      <rect class="cls-1" x="5.53" y="16.88" width="14.35" height="2.23"/>
    </g>
  </g>
</svg>