<?xml version="1.0" encoding="UTF-8"?>
<svg id="Capa_2" data-name="Capa 2" xmlns="http://www.w3.org/2000/svg" viewBox="0 0 19.19 20.77">
  <defs>
    <style>
      .cls-1 {
        fill: #3a61d9;
        stroke-width: 0px;
      }
    </style>
  </defs>
  <g id="Capa_1-2" data-name="Capa 1">
    <g>
      <path class="cls-1" d="M0,0v20.77h19.19V0H0ZM17.67,19.25H1.52V1.52h16.15v17.73Z"/>
      <path class="cls-1" d="M4.35,7.69c1.13,0,2.05-.92,2.05-2.05s-.92-2.05-2.05-2.05-2.05.92-2.05,2.05.92,2.05,2.05,2.05ZM4.35,5.11c.29,0,.53.24.53.53s-.24.53-.53.53-.53-.24-.53-.53.24-.53.53-.53Z"/>
      <path class="cls-1" d="M4.35,12.43c1.13,0,2.05-.92,2.05-2.05s-.92-2.05-2.05-2.05-2.05.92-2.05,2.05.92,2.05,2.05,2.05ZM4.35,9.85c.29,0,.53.24.53.53s-.24.53-.53.53-.53-.24-.53-.53.24-.53.53-.53Z"/>
      <path class="cls-1" d="M4.35,17.17c1.13,0,2.05-.92,2.05-2.05s-.92-2.05-2.05-2.05-2.05.92-2.05,2.05.92,2.05,2.05,2.05ZM4.35,14.59c.29,0,.53.24.53.53s-.24.53-.53.53-.53-.24-.53-.53.24-.53.53-.53Z"/>
      <rect class="cls-1" x="8.23" y="5.96" width="6.61" height="1.52"/>
      <rect class="cls-1" x="8.23" y="10.63" width="5.32" height="1.52"/>
    </g>
  </g>
</svg>