<?xml version="1.0" encoding="UTF-8"?>
<svg id="Capa_2" data-name="Capa 2" xmlns="http://www.w3.org/2000/svg" viewBox="0 0 73.52 77.04">
  <defs>
    <style>
      .cls-1 {
        fill: #1c4dde;
        stroke-width: 0px;
      }
    </style>
  </defs>
  <g id="Capa_1-2" data-name="Capa 1">
    <g>
      <rect class="cls-1" x="11.78" y="19.05" width="34.09" height="5.05"/>
      <rect class="cls-1" x="11.78" y="27.38" width="34.09" height="5.05"/>
      <rect class="cls-1" x="11.78" y="35.72" width="34.09" height="5.05"/>
      <polygon class="cls-1" points="62.06 53.96 61.75 53.65 59.63 55.73 59.32 56.02 57.65 57.65 55.98 59.3 55.98 59.3 54.58 60.65 52.48 58.96 51.7 58.34 50.46 59.8 50.46 59.8 50.46 59.8 49.79 60.61 48.43 62.25 48.43 62.25 48.43 62.25 54.94 67.47 54.94 67.47 54.94 67.47 57.65 64.83 59.63 62.87 59.63 62.87 59.63 62.87 65.4 57.22 62.06 53.96 62.06 53.96"/>
      <path class="cls-1" d="M67.23,47.13V0H10.69v9.67h5.17s-5.17,0-5.17,0v-2.19H0v66.98l9.17-9.97,5.95,7.33,6.67-7.48,7.15,7.3,6.19-7.08,5.89,7.28,1.4-1.58c3.15,4.11,8.19,6.79,13.84,6.79,9.51,0,17.27-7.58,17.27-16.88,0-5.24-2.45-9.92-6.29-13.03ZM15.86,5.06h46.21v39.21c-1.4-.5-2.88-.82-4.41-.94h0V7.48H15.86v-2.43ZM35.26,56.6l-6.55,7.5-7.12-7.26-6.29,7.08-5.89-7.24-4.24,4.6V12.54h47.31v31.14c-7.72,1.69-13.49,8.42-13.49,16.48,0,.37.02.72.03,1.08h0s0,0,0,0l-3.76-4.63ZM67.23,65.09h0c-.19.4-.41.79-.64,1.16-.43.7-.93,1.36-1.5,1.95-1.9,2.01-4.52,3.37-7.44,3.69-.17.02-.33.02-.5.03-.3.02-.6.05-.9.05-.14,0-.27-.01-.41-.02-.09,0-.18,0-.26-.01-4.1-.2-7.65-2.43-9.65-5.66h0c-.22-.35-.42-.73-.6-1.1-.7-1.42-1.11-2.98-1.16-4.64l-.02-.39c0-5.22,3.5-9.67,8.32-11.22h0c.21-.07.42-.13.63-.18.44-.12.88-.22,1.33-.29.6-.09,1.2-.14,1.82-.14.18,0,.37.02.55.03.28.01.56.02.85.05,1.58.17,3.07.66,4.41,1.38h0c2.17,1.16,3.93,2.96,5.02,5.13.05.1.11.2.15.3.72,1.5,1.12,3.17,1.12,4.94s-.4,3.44-1.12,4.94Z"/>
    </g>
  </g>
</svg>