<?xml version="1.0" encoding="UTF-8"?>
<svg id="nuestro-entorno" data-name="Capa 2" xmlns="http://www.w3.org/2000/svg" viewBox="0 0 26 26">
  <defs>
    <style>
      #nuestro-entorno .cls-1 {
        stroke-width: 0px;
        fill: #fff;
      }
    </style>
  </defs>
  <g id="Outline">
    <path class="cls-1" d="m13,0C5.83,0,0,5.83,0,13s5.83,13,13,13,13-5.83,13-13S20.17,0,13,0Zm7.56,17.31c.28-1.34.44-2.79.44-4.31s-.16-2.96-.44-4.31c2.1,1.1,3.44,2.64,3.44,4.31s-1.34,3.21-3.44,4.31Zm-7.56,6.69c-1.67,0-3.21-1.34-4.31-3.44,1.34.28,2.79.44,4.31.44s2.96-.16,4.31-.44c-1.1,2.1-2.64,3.44-4.31,3.44Zm0-5c-1.88,0-3.68-.28-5.25-.75-.48-1.57-.75-3.36-.75-5.25s.28-3.68.75-5.25c1.57-.48,3.36-.75,5.25-.75s3.68.28,5.25.75c.48,1.57.75,3.36.75,5.25s-.28,3.68-.75,5.25c-1.57.48-3.36.75-5.25.75ZM2,13c0-1.67,1.34-3.21,3.44-4.31-.28,1.34-.44,2.79-.44,4.31s.16,2.96.44,4.31c-2.1-1.1-3.44-2.64-3.44-4.31ZM13,2c1.67,0,3.21,1.34,4.31,3.44-1.34-.28-2.79-.44-4.31-.44s-2.96.16-4.31.44c1.1-2.1,2.64-3.44,4.31-3.44Zm9.52,5.51c-.79-.52-1.69-.97-2.69-1.34-.37-1-.82-1.9-1.34-2.69,1.67.97,3.06,2.36,4.03,4.03ZM7.51,3.48c-.52.79-.97,1.69-1.34,2.69-1,.37-1.9.82-2.69,1.34.97-1.67,2.36-3.06,4.03-4.03Zm-4.03,15.01c.79.52,1.69.97,2.69,1.34.37,1,.82,1.9,1.34,2.69-1.67-.97-3.06-2.36-4.03-4.03Zm15.01,4.03c.52-.79.97-1.69,1.34-2.69,1-.37,1.9-.82,2.69-1.34-.97,1.67-2.36,3.06-4.03,4.03Z"/>
  </g>
</svg>