<?xml version="1.0" encoding="UTF-8"?>
<svg id="Capa_2" data-name="Capa 2" xmlns="http://www.w3.org/2000/svg" viewBox="0 0 375.16 112">
  <defs>
    <style>
      .cls-1 {
        fill: #2b5cab;
      }

      .cls-1, .cls-2, .cls-3 {
        stroke-width: 0px;
      }

      .cls-2 {
        fill: #1c4dde;
      }

      .cls-3 {
        fill: #f03845;
      }
    </style>
  </defs>
  <g id="Outline">
    <g>
      <path class="cls-1" d="m131.66,35.84s0,.01,0,.02c0-.01,0-.02,0-.03h0Z"/>
      <path class="cls-1" d="m132.72,36.89s.01,0,.02,0h-.03s0,0,.01,0"/>
      <path class="cls-1" d="m131.66,35.84s0,.01,0,.02c0-.01,0-.02,0-.03h0Z"/>
      <path class="cls-1" d="m132.72,36.89s.01,0,.02,0h-.03s0,0,.01,0"/>
      <path class="cls-3" d="m131.37,53.93c0,4.93,3.94,8.88,8.88,8.88s8.87-3.95,8.87-8.88-3.94-8.88-8.87-8.88-8.88,3.95-8.88,8.88"/>
      <path class="cls-2" d="m11.27.48c.79,0,1.19.4,1.19,1.27v58.87c0,.87-.4,1.27-1.19,1.27H1.19C.4,61.88,0,61.49,0,60.62V1.75C0,.87.4.48,1.19.48h10.08Z"/>
      <path class="cls-2" d="m73.55.48c.8,0,1.19.4,1.19,1.27v58.87c0,.87-.39,1.27-1.19,1.27h-7.38c-1.9,0-2.85-.48-3.96-1.98l-26.02-38.16v38.88c0,.87-.4,1.27-1.19,1.27h-10.08c-.79,0-1.19-.4-1.19-1.27V1.75c0-.87.4-1.27,1.19-1.27h7.85c3.17,0,3.57.72,4.92,2.62l24.59,35.94V1.75c0-.87.4-1.27,1.19-1.27h10.07Z"/>
      <path class="cls-2" d="m125.46.48c.79,0,1.19.4,1.19,1.19v8.49c0,.8-.39,1.19-1.19,1.19h-26.98v15.07h24.51c.79,0,1.27.4,1.27,1.19v8.09c0,.8-.48,1.19-1.27,1.19h-24.51v23.72c0,.87-.4,1.27-1.19,1.27h-10.08c-.79,0-1.19-.4-1.19-1.27V1.67c0-.79.4-1.19,1.19-1.19h38.24Z"/>
      <path class="cls-2" d="m237.91,20.39c0,11.98-3.17,16.74-12.14,18.49l13.49,21.42c.63.87.24,1.59-.95,1.59h-10c-1.83,0-2.38-.56-3.17-1.75l-13.01-20.47h-7.3v20.95c0,1.03-.24,1.27-1.19,1.27h-10.07c-.95,0-1.19-.24-1.19-1.27V1.99c0-.88.24-1.04,1.19-1.11C200.54.24,208.15,0,214.66,0,232.04,0,237.91,4.53,237.91,20.39m-33.09-9.52v19.2h8.57c9.44,0,11.9-1.27,11.9-9.36s-2.46-9.84-11.9-9.84h-8.57Z"/>
      <path class="cls-2" d="m309.49.4c.79,0,.95.56,1.03,1.27l5.71,58.95c.08.87-.4,1.27-1.19,1.27h-10.08c-.79,0-1.11-.4-1.19-1.27l-3.49-38.08-14.28,36.26c-.32.8-.87,1.19-1.67,1.19h-7.54c-.71,0-1.27-.4-1.67-1.19l-14.2-36.26-3.49,38.08c-.08.87-.4,1.27-1.19,1.27h-10.08c-.79,0-1.27-.4-1.19-1.27l5.71-58.87c.08-.79.24-1.27,1.03-1.27h9.6c2.54,0,3.49.63,4.52,3.1l14.76,38.63,14.76-38.63c.95-2.54,1.98-3.18,4.52-3.18h9.6Z"/>
      <path class="cls-2" d="m361.16,9.52l13.96,51.1c.16.95-.24,1.27-1.03,1.27h-10.15c-.71,0-.79-.32-1.03-1.27l-4.52-16.5h-21.26l-4.6,16.5c-.24.95-.32,1.27-1.11,1.27h-10.08c-.87,0-1.19-.32-1.03-1.27l14.2-51.1c2.38-8.65,3.97-9.52,13.17-9.52s11.11.87,13.49,9.52m-15.47,3.25l-5.79,21.03h15.71l-5.71-21.03c-.55-1.9-.63-2.3-2.22-2.3-1.35,0-1.51.39-1.98,2.3"/>
      <path class="cls-2" d="m157.29,0C137.05,0,131.58,7.14,131.58,31.26c0,1.6.03,3.12.08,4.57v.03c0,.57.47,1.03,1.04,1.04h10.45c.62,0,1.12-.51,1.12-1.13-.09-1.7-.08-2.44-.08-4.5,0-15.55,2.14-20.39,13.09-20.39s13.09,4.84,13.09,20.39-2.01,19.85-12.1,20.14c-.32,0-.66.07-.76.16-.13.12-.22.1-.22.52,0,2.24,0,9.37,0,9.45,0,.09.04.32.36.53.23.15.54.22.98.21,19.14-.31,24.37-7.59,24.37-31.01S177.52,0,157.29,0"/>
      <path class="cls-2" d="m0,94.18v-20.82h2.18v20.48c0,4.84,1.72,7.8,7.16,7.8s7.15-2.96,7.15-7.8v-20.48h2.19v20.82c0,6.04-2.87,9.51-9.34,9.51s-9.34-3.47-9.34-9.51"/>
      <path class="cls-2" d="m40.57,103.35v-15.94c0-3.9-1.58-5.82-5.31-5.82-2.91,0-5.4,1.84-6.77,3.12v18.64h-2.1v-23.43h1.63l.3,3.17c1.11-1.16,3.85-3.55,7.67-3.55,5.4,0,6.68,3.77,6.68,8.22v15.59h-2.1Z"/>
      <path class="cls-2" d="m63.15,100.17c-1.2,1.89-3.47,3.51-6.9,3.51-4.63,0-7.28-2.74-7.28-6.55,0-6.6,7.02-8.78,14.05-8.78v-1.8c0-3.26-1.84-5.1-5.78-5.1-2.48,0-4.37.77-6.51,1.67l-.64-1.67c1.97-.99,4.32-1.93,7.15-1.93,5.36,0,7.84,2.66,7.84,7.45v16.37h-1.63l-.3-3.17Zm-.13-2.44v-7.67c-6.3,0-11.95,1.71-11.95,7.07,0,3,2.23,4.75,5.57,4.75s5.83-2.44,6.38-4.16"/>
      <path class="cls-2" d="m83.41,94.73v-6.21c0-5.53,2.4-9,8.18-9,3.51,0,5.4,1.58,6.85,3.6l-1.41,1.11c-1.54-1.88-2.91-2.78-5.44-2.78-4.93,0-6.08,3-6.08,8.27v4.8c0,4.54,1.5,7.24,6.08,7.24,2.53,0,3.99-.73,5.53-2.66l1.37,1.16c-1.58,2.23-3.68,3.43-6.9,3.43-5.74,0-8.18-3.47-8.18-8.95"/>
      <path class="cls-2" d="m102.95,94.73v-6.21c0-5.48,2.4-8.99,8.18-8.99s8.14,3.43,8.14,8.99v6.21c0,5.53-2.31,8.96-8.14,8.96s-8.18-3.47-8.18-8.96m14.27-1.2v-4.8c0-4.58-1.5-7.28-6.08-7.28-4.93,0-6.08,3-6.08,8.27v4.8c0,4.54,1.5,7.24,6.08,7.24,4.88,0,6.08-3.04,6.08-8.23"/>
      <path class="cls-2" d="m139.62,103.35v-15.94c0-3.9-1.37-5.82-4.97-5.82-2.91,0-5.4,1.84-6.77,3.12v18.64h-2.1v-23.43h1.63l.3,3.17c1.11-1.16,3.85-3.55,7.67-3.55,3.04,0,4.71,1.41,5.57,3.55,1.16-1.16,4.16-3.55,7.97-3.55,5.01,0,6.34,3.77,6.34,8.22v15.59h-2.1v-15.94c0-3.9-1.37-5.82-4.97-5.82-2.91,0-5.35,1.8-6.72,3.08.17.99.25,2.01.25,3.09v15.59h-2.1Z"/>
      <path class="cls-2" d="m164.76,82.65c1.15-1.33,3.51-3.13,6.81-3.13,5.05,0,7.49,3.21,7.49,8.69v6.77c0,5.48-2.44,8.69-7.49,8.69-3.26,0-5.57-1.75-6.73-3.13v11.44h-2.1v-32.09h1.63l.39,2.74Zm12.21,12.12v-6.34c0-4.58-1.63-6.98-5.96-6.98-2.74,0-4.8,1.45-6.17,3.04v14.22c1.37,1.54,3.43,3.04,6.17,3.04,4.32,0,5.96-2.44,5.96-6.98"/>
      <path class="cls-2" d="m198.57,100.17c-1.2,1.89-3.47,3.51-6.9,3.51-4.62,0-7.28-2.74-7.28-6.55,0-6.6,7.02-8.78,14.05-8.78v-1.8c0-3.26-1.84-5.1-5.79-5.1-2.48,0-4.37.77-6.51,1.67l-.64-1.67c1.97-.99,4.33-1.93,7.15-1.93,5.36,0,7.84,2.66,7.84,7.45v16.37h-1.63l-.3-3.17Zm-.13-2.44v-7.67c-6.3,0-11.95,1.71-11.95,7.07,0,3,2.23,4.75,5.57,4.75s5.83-2.44,6.38-4.16"/>
      <path class="cls-2" d="m222.08,103.35v-15.94c0-3.9-1.58-5.83-5.31-5.83-2.91,0-5.4,1.84-6.77,3.13v18.64h-2.1v-23.43h1.63l.3,3.17c1.11-1.16,3.86-3.56,7.67-3.56,5.4,0,6.68,3.77,6.68,8.23v15.59h-2.1Zm-8.95-29.6c-1.2,0-1.97,1.07-2.44,2.06l-1.42-.56c.99-2.4,2.27-3.34,3.77-3.34,2.4,0,3.77,2.32,5.66,2.32,1.03,0,1.63-.56,2.48-2.14l1.37.69c-1.03,2.4-2.27,3.3-3.77,3.3-2.4,0-3.77-2.32-5.66-2.32"/>
    </g>
  </g>
</svg>