<?xml version="1.0" encoding="utf-8"?>
<!-- Generator: Adobe Illustrator 28.3.0, SVG Export Plug-In . SVG Version: 6.00 Build 0)  -->
<svg version="1.1" xmlns="http://www.w3.org/2000/svg" xmlns:xlink="http://www.w3.org/1999/xlink" x="0px" y="0px"
	 viewBox="0 0 375.2 112" style="enable-background:new 0 0 375.2 112;" xml:space="preserve">
<style type="text/css">
	.st0{fill:#2B5CAB;}
	.st1{fill:#F03845;}
	.st2{fill:#1C4DDE;}
	.st3{fill:#1C4DDE;stroke:#1C4DDE;stroke-miterlimit:10;}
</style>
<g id="Capa_2_00000088839852034011167540000011997139150754514561_">
	<path class="st0" d="M131.7,35.8C131.7,35.8,131.7,35.8,131.7,35.8C131.7,35.9,131.7,35.8,131.7,35.8L131.7,35.8L131.7,35.8z"/>
	<path class="st0" d="M132.7,36.9C132.7,36.9,132.7,36.9,132.7,36.9L132.7,36.9C132.7,36.9,132.7,36.9,132.7,36.9"/>
	<path class="st0" d="M131.7,35.8C131.7,35.8,131.7,35.8,131.7,35.8C131.7,35.9,131.7,35.8,131.7,35.8L131.7,35.8L131.7,35.8z"/>
	<path class="st0" d="M132.7,36.9C132.7,36.9,132.7,36.9,132.7,36.9L132.7,36.9C132.7,36.9,132.7,36.9,132.7,36.9"/>
	<path class="st1" d="M131.4,53.9c0,4.9,3.9,8.9,8.9,8.9s8.9-4,8.9-8.9s-3.9-8.9-8.9-8.9S131.4,49,131.4,53.9"/>
	<path class="st2" d="M11.3,0.5c0.8,0,1.2,0.4,1.2,1.3v58.9c0,0.9-0.4,1.3-1.2,1.3H1.2c-0.8,0-1.2-0.4-1.2-1.3V1.8
		c0-0.9,0.4-1.3,1.2-1.3H11.3z"/>
	<path class="st2" d="M73.6,0.5c0.8,0,1.2,0.4,1.2,1.3v58.9c0,0.9-0.4,1.3-1.2,1.3h-7.4c-1.9,0-2.8-0.5-4-2l-26-38.2v38.9
		c0,0.9-0.4,1.3-1.2,1.3H24.9c-0.8,0-1.2-0.4-1.2-1.3V1.8c0-0.9,0.4-1.3,1.2-1.3h7.9c3.2,0,3.6,0.7,4.9,2.6L62.3,39V1.8
		c0-0.9,0.4-1.3,1.2-1.3L73.6,0.5L73.6,0.5z"/>
	<path class="st2" d="M125.5,0.5c0.8,0,1.2,0.4,1.2,1.2v8.5c0,0.8-0.4,1.2-1.2,1.2h-27v15.1H123c0.8,0,1.3,0.4,1.3,1.2v8.1
		c0,0.8-0.5,1.2-1.3,1.2H98.5v23.7c0,0.9-0.4,1.3-1.2,1.3H87.2c-0.8,0-1.2-0.4-1.2-1.3V1.7c0-0.8,0.4-1.2,1.2-1.2L125.5,0.5
		L125.5,0.5z"/>
	<path class="st2" d="M237.9,20.4c0,12-3.2,16.7-12.1,18.5l13.5,21.4c0.6,0.9,0.2,1.6-0.9,1.6h-10c-1.8,0-2.4-0.6-3.2-1.8l-13-20.5
		h-7.3v21c0,1-0.2,1.3-1.2,1.3h-10.1c-0.9,0-1.2-0.2-1.2-1.3V2c0-0.9,0.2-1,1.2-1.1c7-0.6,14.6-0.9,21.1-0.9
		C232,0,237.9,4.5,237.9,20.4 M204.8,10.9v19.2h8.6c9.4,0,11.9-1.3,11.9-9.4s-2.5-9.8-11.9-9.8H204.8z"/>
	<path class="st2" d="M309.5,0.4c0.8,0,1,0.6,1,1.3l5.7,59c0.1,0.9-0.4,1.3-1.2,1.3H305c-0.8,0-1.1-0.4-1.2-1.3l-3.5-38.1L286,58.8
		c-0.3,0.8-0.9,1.2-1.7,1.2h-7.5c-0.7,0-1.3-0.4-1.7-1.2l-14.2-36.3l-3.5,38.1c-0.1,0.9-0.4,1.3-1.2,1.3h-10.1
		c-0.8,0-1.3-0.4-1.2-1.3l5.7-58.9c0.1-0.8,0.2-1.3,1-1.3h9.6c2.5,0,3.5,0.6,4.5,3.1l14.8,38.6l14.8-38.6c1-2.5,2-3.2,4.5-3.2
		L309.5,0.4L309.5,0.4z"/>
	<path class="st2" d="M361.2,9.5l14,51.1c0.2,1-0.2,1.3-1,1.3h-10.1c-0.7,0-0.8-0.3-1-1.3l-4.5-16.5h-21.3l-4.6,16.5
		c-0.2,1-0.3,1.3-1.1,1.3h-10.1c-0.9,0-1.2-0.3-1-1.3l14.2-51.1c2.4-8.6,4-9.5,13.2-9.5S358.8,0.9,361.2,9.5 M345.7,12.8l-5.8,21
		h15.7l-5.7-21c-0.5-1.9-0.6-2.3-2.2-2.3C346.3,10.5,346.2,10.9,345.7,12.8"/>
	<path class="st2" d="M157.3,0c-20.2,0-25.7,7.1-25.7,31.3c0,1.6,0,3.1,0.1,4.6v0c0,0.6,0.5,1,1,1h10.4c0.6,0,1.1-0.5,1.1-1.1
		c-0.1-1.7-0.1-2.4-0.1-4.5c0-15.6,2.1-20.4,13.1-20.4s13.1,4.8,13.1,20.4s-2,19.9-12.1,20.1c-0.3,0-0.7,0.1-0.8,0.2
		c-0.1,0.1-0.2,0.1-0.2,0.5c0,2.2,0,9.4,0,9.5c0,0.1,0,0.3,0.4,0.5c0.2,0.2,0.5,0.2,1,0.2c19.1-0.3,24.4-7.6,24.4-31
		S177.5,0,157.3,0"/>
	<g>
		<path class="st2" d="M0-44.8v-20.8h2.2v20.5c0,4.8,1.7,7.8,7.2,7.8s7.1-3,7.1-7.8v-20.5h2.2v20.8c0,6-2.9,9.5-9.3,9.5
			S0-38.8,0-44.8"/>
		<path class="st2" d="M40.6-35.7v-15.9c0-3.9-1.6-5.8-5.3-5.8c-2.9,0-5.4,1.8-6.8,3.1v18.6h-2.1v-23.4H28l0.3,3.2
			c1.1-1.2,3.8-3.6,7.7-3.6c5.4,0,6.7,3.8,6.7,8.2v15.6C42.7-35.7,40.6-35.7,40.6-35.7z"/>
		<path class="st2" d="M63.2-38.8c-1.2,1.9-3.5,3.5-6.9,3.5c-4.6,0-7.3-2.7-7.3-6.6c0-6.6,7-8.8,14-8.8v-1.8c0-3.3-1.8-5.1-5.8-5.1
			c-2.5,0-4.4,0.8-6.5,1.7l-0.6-1.7c2-1,4.3-1.9,7.2-1.9c5.4,0,7.8,2.7,7.8,7.4v16.4h-1.6L63.2-38.8z M63-41.3V-49
			c-6.3,0-12,1.7-12,7.1c0,3,2.2,4.8,5.6,4.8S62.5-39.6,63-41.3"/>
		<path class="st2" d="M83.4-44.3v-6.2c0-5.5,2.4-9,8.2-9c3.5,0,5.4,1.6,6.8,3.6L97-54.8c-1.5-1.9-2.9-2.8-5.4-2.8
			c-4.9,0-6.1,3-6.1,8.3v4.8c0,4.5,1.5,7.2,6.1,7.2c2.5,0,4-0.7,5.5-2.7l1.4,1.2c-1.6,2.2-3.7,3.4-6.9,3.4
			C85.8-35.3,83.4-38.8,83.4-44.3"/>
		<path class="st2" d="M102.9-44.3v-6.2c0-5.5,2.4-9,8.2-9s8.1,3.4,8.1,9v6.2c0,5.5-2.3,9-8.1,9S102.9-38.8,102.9-44.3 M117.2-45.5
			v-4.8c0-4.6-1.5-7.3-6.1-7.3c-4.9,0-6.1,3-6.1,8.3v4.8c0,4.5,1.5,7.2,6.1,7.2C116-37.3,117.2-40.3,117.2-45.5"/>
		<path class="st2" d="M139.6-35.7v-15.9c0-3.9-1.4-5.8-5-5.8c-2.9,0-5.4,1.8-6.8,3.1v18.6h-2.1v-23.4h1.6l0.3,3.2
			c1.1-1.2,3.8-3.6,7.7-3.6c3,0,4.7,1.4,5.6,3.6c1.2-1.2,4.2-3.6,8-3.6c5,0,6.3,3.8,6.3,8.2v15.6h-2.1v-15.9c0-3.9-1.4-5.8-5-5.8
			c-2.9,0-5.4,1.8-6.7,3.1c0.2,1,0.2,2,0.2,3.1v15.6C141.7-35.7,139.6-35.7,139.6-35.7z"/>
		<path class="st2" d="M164.8-56.4c1.1-1.3,3.5-3.1,6.8-3.1c5.1,0,7.5,3.2,7.5,8.7v6.8c0,5.5-2.4,8.7-7.5,8.7
			c-3.3,0-5.6-1.8-6.7-3.1V-27h-2.1v-32.1h1.6L164.8-56.4L164.8-56.4z M177-44.2v-6.3c0-4.6-1.6-7-6-7c-2.7,0-4.8,1.4-6.2,3v14.2
			c1.4,1.5,3.4,3,6.2,3C175.3-37.3,177-39.7,177-44.2"/>
		<path class="st2" d="M198.6-38.8c-1.2,1.9-3.5,3.5-6.9,3.5c-4.6,0-7.3-2.7-7.3-6.6c0-6.6,7-8.8,14.1-8.8v-1.8
			c0-3.3-1.8-5.1-5.8-5.1c-2.5,0-4.4,0.8-6.5,1.7l-0.6-1.7c2-1,4.3-1.9,7.1-1.9c5.4,0,7.8,2.7,7.8,7.4v16.4h-1.6L198.6-38.8
			L198.6-38.8z M198.4-41.3V-49c-6.3,0-11.9,1.7-11.9,7.1c0,3,2.2,4.8,5.6,4.8S197.9-39.6,198.4-41.3"/>
		<path class="st2" d="M222.1-35.7v-15.9c0-3.9-1.6-5.8-5.3-5.8c-2.9,0-5.4,1.8-6.8,3.1v18.6h-2.1v-23.4h1.6l0.3,3.2
			c1.1-1.2,3.9-3.6,7.7-3.6c5.4,0,6.7,3.8,6.7,8.2v15.6L222.1-35.7L222.1-35.7z M213.1-65.3c-1.2,0-2,1.1-2.4,2.1l-1.4-0.6
			c1-2.4,2.3-3.3,3.8-3.3c2.4,0,3.8,2.3,5.7,2.3c1,0,1.6-0.6,2.5-2.1l1.4,0.7c-1,2.4-2.3,3.3-3.8,3.3
			C216.4-62.9,215-65.3,213.1-65.3"/>
	</g>
</g>
<g id="Capa_3">
	<g>
		<path class="st3" d="M0,94.2V73.4h2.2v20.5c0,4.8,1.7,7.8,7.2,7.8s7.1-3,7.1-7.8V73.4h2.2v20.8c0,6-2.9,9.5-9.3,9.5
			S0,100.2,0,94.2"/>
		<path class="st3" d="M40.6,103.4V87.4c0-3.9-1.6-5.8-5.3-5.8c-2.9,0-5.4,1.8-6.8,3.1v18.6h-2.1V79.9H28l0.3,3.2
			c1.1-1.2,3.8-3.6,7.7-3.6c5.4,0,6.7,3.8,6.7,8.2v15.6C42.7,103.4,40.6,103.4,40.6,103.4z"/>
		<path class="st3" d="M63.2,100.2c-1.2,1.9-3.5,3.5-6.9,3.5c-4.6,0-7.3-2.7-7.3-6.6c0-6.6,7-8.8,14-8.8v-1.8c0-3.3-1.8-5.1-5.8-5.1
			c-2.5,0-4.4,0.8-6.5,1.7l-0.6-1.7c2-1,4.3-1.9,7.2-1.9c5.4,0,7.8,2.7,7.8,7.4v16.4h-1.6L63.2,100.2z M63,97.7v-7.7
			c-6.3,0-12,1.7-12,7.1c0,3,2.2,4.8,5.6,4.8S62.5,99.5,63,97.7"/>
		<path class="st3" d="M83.4,94.7v-6.2c0-5.5,2.4-9,8.2-9c3.5,0,5.4,1.6,6.8,3.6L97,84.2c-1.5-1.9-2.9-2.8-5.4-2.8
			c-4.9,0-6.1,3-6.1,8.3v4.8c0,4.5,1.5,7.2,6.1,7.2c2.5,0,4-0.7,5.5-2.7l1.4,1.2c-1.6,2.2-3.7,3.4-6.9,3.4
			C85.8,103.7,83.4,100.2,83.4,94.7"/>
		<path class="st3" d="M102.9,94.7v-6.2c0-5.5,2.4-9,8.2-9s8.1,3.4,8.1,9v6.2c0,5.5-2.3,9-8.1,9S102.9,100.2,102.9,94.7 M117.2,93.5
			v-4.8c0-4.6-1.5-7.3-6.1-7.3c-4.9,0-6.1,3-6.1,8.3v4.8c0,4.5,1.5,7.2,6.1,7.2C116,101.8,117.2,98.7,117.2,93.5"/>
		<path class="st3" d="M139.6,103.4V87.4c0-3.9-1.4-5.8-5-5.8c-2.9,0-5.4,1.8-6.8,3.1v18.6h-2.1V79.9h1.6l0.3,3.2
			c1.1-1.2,3.8-3.6,7.7-3.6c3,0,4.7,1.4,5.6,3.6c1.2-1.2,4.2-3.6,8-3.6c5,0,6.3,3.8,6.3,8.2v15.6h-2.1V87.4c0-3.9-1.4-5.8-5-5.8
			c-2.9,0-5.4,1.8-6.7,3.1c0.2,1,0.2,2,0.2,3.1v15.6C141.7,103.4,139.6,103.4,139.6,103.4z"/>
		<path class="st3" d="M164.8,82.7c1.1-1.3,3.5-3.1,6.8-3.1c5.1,0,7.5,3.2,7.5,8.7V95c0,5.5-2.4,8.7-7.5,8.7c-3.3,0-5.6-1.8-6.7-3.1
			V112h-2.1V79.9h1.6L164.8,82.7L164.8,82.7z M177,94.8v-6.3c0-4.6-1.6-7-6-7c-2.7,0-4.8,1.4-6.2,3v14.2c1.4,1.5,3.4,3,6.2,3
			C175.3,101.8,177,99.3,177,94.8"/>
		<path class="st3" d="M198.6,100.2c-1.2,1.9-3.5,3.5-6.9,3.5c-4.6,0-7.3-2.7-7.3-6.6c0-6.6,7-8.8,14.1-8.8v-1.8
			c0-3.3-1.8-5.1-5.8-5.1c-2.5,0-4.4,0.8-6.5,1.7l-0.6-1.7c2-1,4.3-1.9,7.1-1.9c5.4,0,7.8,2.7,7.8,7.4v16.4h-1.6L198.6,100.2
			L198.6,100.2z M198.4,97.7v-7.7c-6.3,0-11.9,1.7-11.9,7.1c0,3,2.2,4.8,5.6,4.8S197.9,99.5,198.4,97.7"/>
		<path class="st3" d="M222.1,103.4V87.4c0-3.9-1.6-5.8-5.3-5.8c-2.9,0-5.4,1.8-6.8,3.1v18.6h-2.1V79.9h1.6l0.3,3.2
			c1.1-1.2,3.9-3.6,7.7-3.6c5.4,0,6.7,3.8,6.7,8.2v15.6L222.1,103.4L222.1,103.4z M213.1,73.8c-1.2,0-2,1.1-2.4,2.1l-1.4-0.6
			c1-2.4,2.3-3.3,3.8-3.3c2.4,0,3.8,2.3,5.7,2.3c1,0,1.6-0.6,2.5-2.1l1.4,0.7c-1,2.4-2.3,3.3-3.8,3.3
			C216.4,76.1,215,73.8,213.1,73.8"/>
		<path class="st3" d="M236.2,69.9l-3.3,6.9h-1.5l2.5-6.9H236.2L236.2,69.9z M231.8,79.9h2.1v23.4h-2.1V79.9z"/>
		<path class="st3" d="M254.6,100.2c-1.2,1.9-3.5,3.5-6.9,3.5c-4.6,0-7.3-2.7-7.3-6.6c0-6.6,7-8.8,14.1-8.8v-1.8
			c0-3.3-1.8-5.1-5.8-5.1c-2.5,0-4.4,0.8-6.5,1.7l-0.6-1.7c2-1,4.3-1.9,7.1-1.9c5.4,0,7.8,2.7,7.8,7.4v16.4h-1.6L254.6,100.2
			L254.6,100.2z M254.4,97.7v-7.7c-6.3,0-11.9,1.7-11.9,7.1c0,3,2.2,4.8,5.6,4.8S253.9,99.5,254.4,97.7"/>
		<path class="st3" d="M291.7,97.1l1.8,0.9c-1.3,2.5-3.5,5.7-8.6,5.7c-6.6,0-9.5-4-9.5-10.1V83.1c0-6,2.8-10.1,9.4-10.1
			c5.1,0,7.3,3.2,8.6,5.7l-1.8,1c-1.8-3.1-3.5-4.5-6.8-4.5c-5.3,0-7.2,3.2-7.2,8.3v9.9c0,5.1,2,8.3,7.3,8.3
			C288.3,101.7,290,100.2,291.7,97.1"/>
		<path class="st3" d="M298.4,95.1v-6.6c0-5.5,2.4-9,8.1-9s8,3.5,8,9v3.9h-14v3c0,3.7,1.4,6.4,6.1,6.4c3,0,4.6-0.8,6.5-2l0.9,1.6
			c-1.8,1.3-4.1,2.4-7.4,2.4C300.8,103.7,298.4,100.3,298.4,95.1 M300.5,90.6h12v-1.9c0-4.6-1.5-7.3-6-7.3s-6,2.7-6,7.3L300.5,90.6
			L300.5,90.6z"/>
		<path class="st3" d="M318.9,101.6l0.9-1.6c1.8,1,4.2,1.9,6.4,1.9c4.3,0,5.8-2,5.8-4.8c0-7.2-12.5-3.6-12.5-11.5c0-4,2.7-6,7.1-6
			c2.9,0,5,0.9,6.4,1.9L332,83c-1.8-1.1-3.6-1.6-5.5-1.6c-3.7,0-5.1,1.7-5.1,4.1c0,6.1,12.5,2.9,12.5,11.3c0,4.1-2.2,6.8-7.7,6.8
			C323.2,103.7,320.4,102.5,318.9,101.6"/>
		<path class="st3" d="M338.3,94.7v-6.2c0-5.5,2.4-9,8.2-9c3.5,0,5.4,1.6,6.9,3.6l-1.4,1.1c-1.5-1.9-2.9-2.8-5.4-2.8
			c-4.9,0-6.1,3-6.1,8.3v4.8c0,4.5,1.5,7.2,6.1,7.2c2.5,0,4-0.7,5.5-2.7l1.4,1.2c-1.6,2.2-3.7,3.4-6.9,3.4
			C340.8,103.7,338.3,100.2,338.3,94.7"/>
		<path class="st3" d="M357.8,95.1v-6.6c0-5.5,2.4-9,8-9s8,3.5,8,9v3.9h-14v3c0,3.7,1.4,6.4,6.1,6.4c3,0,4.6-0.8,6.5-2l0.9,1.6
			c-1.8,1.3-4.1,2.4-7.4,2.4C360.2,103.7,357.8,100.3,357.8,95.1 M359.9,90.6h12v-1.9c0-4.6-1.5-7.3-6-7.3s-6,2.7-6,7.3L359.9,90.6
			L359.9,90.6z"/>
	</g>
</g>
</svg>
